<?xml version="1.0" encoding="utf-8"?>
<!-- Generator: Adobe Illustrator 24.3.0, SVG Export Plug-In . SVG Version: 6.00 Build 0)  -->
<svg version="1.2" baseProfile="tiny" id="Layer" xmlns="http://www.w3.org/2000/svg" xmlns:xlink="http://www.w3.org/1999/xlink"
	 x="0px" y="0px" viewBox="0 0 818 519.6" overflow="visible" xml:space="preserve">
<polygon id="Path" points="415.8,519.6 0,272 0,241.1 71.8,201 72,200 72.3,186.1 71.2,178.8 72.5,174.5 73,168.7 75.5,160.3 
	77.9,153.3 79.6,150.9 83.6,148.8 86.7,148.1 89.8,148.9 91.4,150.6 95.8,154.3 99.4,155.6 102.1,145.8 106.3,136.3 112.3,133.9 
	114.9,133.7 117.2,135.2 122.3,139.6 125.9,141.3 131.4,123.5 133.4,121.4 138.3,119.3 141.2,119.1 143.8,120.8 150,125.5 
	150.2,99.9 176.3,85.7 176.5,73.5 184,73.5 184.8,86.8 184.9,101.4 186.2,97.3 192.1,100.4 192.4,94.8 197.9,92.3 203.7,95.3 
	203.2,104.6 203.5,105.5 207.5,107 215.9,120.3 404.8,4.7 513.2,73.6 580.6,31.9 772.4,135.8 772.4,240.3 817.1,263.4 818,264.2 
	818,294.9 "/>
</svg>
