<?xml version="1.0" encoding="utf-8"?>
<!-- Generator: Adobe Illustrator 24.3.0, SVG Export Plug-In . SVG Version: 6.00 Build 0)  -->
<svg version="1.1" id="Слой_2" xmlns="http://www.w3.org/2000/svg" xmlns:xlink="http://www.w3.org/1999/xlink" x="0px" y="0px"
	 viewBox="0 0 285 181" style="enable-background:new 0 0 285 181;" xml:space="preserve">
<polygon points="144.9,181 0.3,94.9 0,83.9 24.4,70.3 25.4,69.1 25.2,64.9 24.6,63.7 24.9,60.7 25.5,57.8 25.8,56.9 27.4,52.8 
	27.6,52.4 30,51.2 33.1,52.8 34.5,54.1 34.7,51.8 36.6,47.9 37.3,47 39.7,46.2 42.6,47.8 43.7,49 44.2,46.6 45.8,43 46.5,41.8 
	49.2,41.1 52.3,43.1 52.4,38 52,37.8 52,37.4 52.3,37.3 52.3,34.7 61.1,29.9 61.5,30 61.4,25.5 64.1,25.5 64.1,30.5 64.6,30.4 
	65.1,32.3 65.1,33.7 66.8,34.4 66.9,32 71,32 71,36.2 72.3,37 73.5,38.5 74,39.4 74.3,40.4 75.2,41.9 116.1,19 116.1,17.5 
	116.7,17.5 116.8,17.7 118,17 118,13.7 122.3,13.5 122.4,13.1 122.6,13.1 122.6,10.7 127.1,10.7 128.6,8.8 141,0.1 141.5,0 
	144.1,2.1 178.2,24.3 184.3,21 184.3,20.8 202.3,11 218.8,20 221.5,21 222.6,22.2 233.6,28.3 233.7,32.4 237.8,30.1 254,38.9 
	256.4,39.7 258.2,41.3 269.1,47.4 269.1,82.4 285,91.9 285,102.7 "/>
</svg>
