<?xml version="1.0" encoding="utf-8"?>
<!-- Generator: Adobe Illustrator 24.3.0, SVG Export Plug-In . SVG Version: 6.00 Build 0)  -->
<svg version="1.1" id="Слой_1" xmlns="http://www.w3.org/2000/svg" xmlns:xlink="http://www.w3.org/1999/xlink" x="0px" y="0px"
	 viewBox="0 0 285 175.4" style="enable-background:new 0 0 285 175.4;" xml:space="preserve">
<g>
	<path d="M285,84.4c0,4.3,0,8.6,0,12.8c-46.6,25-92.6,51.7-139,77.3c-20.1-8.5-38.9-23-58.5-33.6c-17.7-10.5-35.5-20.9-53.1-31.6
		c-10.9-6.5-21.9-13-32.9-19.5c-1.9-3.9-1-9.5-0.6-14c0.3,0.2,0.8,0.6,1.2,0.9C3.5,75.6,6,76.2,6.1,74c2.9,0.3,1.8-1.7,2.1-3.8
		c0.6,0.8,1.2,1.6,1.7,2.3c0.1,0,0.3,0,0.4,0c-0.1-0.7-0.2-1.4-0.3-2c0.8,0.3,1.5,0.5,2.3,0.8c0.2-0.8,0.4-1.7,0.6-2.5
		c2.1,1.7,3.8,0.5,5.2-0.8c-0.2-0.7-0.3-1.3-0.5-1.7c2.8-0.6,5.1,0.4,6.6-2.4c0,0,0.6,0.1,1.5,0.4c-0.4-0.7-0.6-1-0.8-1.3
		c1.4,0.2,2.6,0.3,4.2,0.5c-0.4-0.5-0.8-0.9-1.1-1.4c1.6-1.3,4.4-0.5,5.1-3.3c0-0.1,0.4-0.2,0.6-0.3c3.2-0.6,6-2.5,9.1-3.3
		c1.4-0.3,2.5-0.3,2.4-2.1c0.6,0,1,0,1.8,0c-0.5-0.7-0.8-1.2-1.2-1.7c3.4,1.3,9.2-3,11.9-5.1c4.4-3.1,10.2-4.4,13.5-8.5
		c1.4-0.8,3-0.6,4.1-2.1c-0.8-0.2-1.4-0.3-1.9-0.4c0-0.1,0.1-0.2,0.1-0.3c3.1,1.5,5.4-1.2,8.1-2.4c-0.2-0.8-0.4-1.6-0.6-2.3
		c0.1-0.1,0.2-0.1,0.3-0.2c0.5,0.6,1,1.1,1.6,1.9c0-0.8,0-1.3,0-2c0.7,0.4,1.3,0.7,1.9,1.1c0.3-0.9,0.6-1.6,0.8-2.3
		c1.9,0.7,3.9,0.4,4.1-2c1.2-1.5,3.9-0.8,5.7-1.4c-0.1-0.8-0.2-1.2-0.3-1.7c0.6,0.3,1.1,0.5,1.9,1c-0.4-0.7-0.6-1-0.8-1.3
		c1.9,0.8,3-1,4.6-1.3c1.9-0.2,2.3-2.2,4.1-2.7c5.6-1,23.6-12.6,25.4-13.9c4.9-2.2,9.3-8,14.2-2.8c-0.1-0.7-0.1-1-0.1-1.3
		c1,2.2,3,3,5.1,4.1c0.1-0.2,0.3-0.5,0.5-0.9c0.1,0,0.2,0.1,0.3,0.1c0,0.4,0,0.7,0,1.1c3.4,0,5.5,3.1,8.6,4.7
		c-0.9-5.2,6.3-7.2,9.5-3.8c-1.7,3.8-4.7,4.9-8.8,4c0.8,2.1,2.3,2.6,4.1,2.9c0.3-1.4,1.2-0.9,2.1-0.4c0.1-0.5,0.2-0.9,0.3-1.4
		c0.1,0.1,0.2,0.2,0.3,0.4c1.9-1,2-4.1,4.3-4.5c0.3,1.5,0.6,3,0.9,4.4c0.1-0.1,0.3-0.3,0.4-0.4c2.9,1.6,7.4,3.9,5.5,7.8
		c-0.5-0.2-1-0.3-1.6-0.5c-0.1,0.7-0.2,1.4-0.3,1.9c1.8-0.3,2.3,1.2,3.4,2.3c0.2-0.5,0.4-0.8,0.6-1.2c0.8,1.1,1.5,1.8,2.5,2.6
		c0,0,0-0.1,0-0.1c1,0.3,2.3,2.8,3,1c2,0.4,2.6,1,1.9,3.1c1-0.6,1.9-1.2,2.8-1.8c-0.2,2.6,1.7,4.2,3.5,3.4c1.9,0.8,3.3,4.2,5.2,2.9
		c1.2-0.7,1.9,0.3,2.9,0.2c-0.7,2,3.3,7.4,4.7,4c-0.6,3.1,2.9,2.5,3.7,4.3c0.4-0.9,0.8-1.7,1.2-2.4c0.7,0.7,1.4,1.4,2.3,2.4
		c-0.6,1.1,0.6,2,1.4,2.6c1.2-1.3,2.8,2.1,3.9,2.9c1.3-4.1,5,2.5,7,3.5c0-0.5-0.1-1-0.1-1.4c1.2,1.6,4.1,1.9,3.5,4.4
		c1.9,0.5,3.7,2.2,5.2-0.6c0,2.7,0.8,3.8,3.5,4.8c-0.3-0.9-0.5-1.6-0.8-2.4c1.9,0.1,2.2,1.7,3.3,2.8c-0.6,0.2-0.9,0.3-1.4,0.5
		c0.8,0.4,1.3,0.7,1.9,1c0.3-0.4,0.5-0.7,0.8-1.1c1.1,2.5,1.4,2.6,3,2.2c2.1,1.4,4,2.6,5.9,3.8c0-0.1,0.2-0.4,0.4-0.8
		c5.1,3.8,3.2-1.8,9.6,6.3c0.5-0.2,1.2-0.6,2-1c-1.7,5.9,9.1,2.5,12.9,13c0.1-0.1,0.3-0.2,0.4-0.2c-1.1-2-2.3-4-3.5-6.1
		c1.7,0.2,2.9-0.1,3.8,1.7c-0.4,0.5-0.7,0.9-1.2,1.6c5.3-0.5,0.9,1.1,4.7,2.7c0.3-0.8,0.5-1.6,0.3-2.5c0.1,0,0.2,0,0.3,0
		c0.2,1.1,0.4,2.2,0.7,3.3c0.5-0.2,0.9-0.3,1.4-0.4C282.5,83.5,283,84.8,285,84.4z"/>
</g>
</svg>
