<?xml version="1.0" encoding="utf-8"?>
<!-- Generator: Adobe Illustrator 24.3.0, SVG Export Plug-In . SVG Version: 6.00 Build 0)  -->
<svg version="1.1" id="Слой_2" xmlns="http://www.w3.org/2000/svg" xmlns:xlink="http://www.w3.org/1999/xlink" x="0px" y="0px"
	 viewBox="0 0 285 246.4" style="enable-background:new 0 0 285 246.4;" xml:space="preserve">
<path d="M144.9,246.4l-144.6-86l-0.3-11l31-17.3l1-10.9l1.9-1.6l3.3,0.7l1.6,7.7l30.8-17.7l-1.9-67.2l20.8-12.6l15.1,8.4l15.2-9
	l-0.4-17.3L139.2,0l46.2,24.5l2.3,74.9l29.1,17.6l5.2,0.1l0,2.5l4.4,3.1l1.9-1.5l3.3,0.7l1.2,1.8l0.1,2.2
	c17.3,10.5,34.7,20.9,52,31.4c0,3.6,0,7.2,0,10.8L144.9,246.4z"/>
</svg>
