<?xml version="1.0" encoding="utf-8"?>
<!-- Generator: Adobe Illustrator 24.3.0, SVG Export Plug-In . SVG Version: 6.00 Build 0)  -->
<svg version="1.1" id="Слой_1" xmlns="http://www.w3.org/2000/svg" xmlns:xlink="http://www.w3.org/1999/xlink" x="0px" y="0px"
	 viewBox="0 0 285 175.4" style="enable-background:new 0 0 285 175.4;" xml:space="preserve">
<style type="text/css">
	.st0{opacity:0;fill:none;stroke:#FFFFFF;stroke-miterlimit:10;}
</style>
<path class="st0" d="M28.4,44.9c37.5-58.6,195.8-20.9,197.4,2c0.8,11.4-36.1,30.1-68.1,25.5c-23.1-3.3-28.2-16.6-52.4-18.7
	c-26.5-2.3-56.7,10.3-57.9,23.8c-1.3,14.6,31,35.3,63.7,39.5c65.3,8.4,105.6-54.7,138.2-36.1c15.8,9,22.3,33,17,48.7
	c-10.1,30.1-64.7,34.1-95.7,36.4c-50.5,3.7-98.4,7.9-128-26.9C21.5,114.2,11.4,71.5,28.4,44.9z"/>
</svg>
