<svg xmlns="http://www.w3.org/2000/svg" xmlns:xlink="http://www.w3.org/1999/xlink" viewBox="0 0 817.96 503.22"><defs><linearGradient id="Безымянный_градиент_15-6" x1="658.68" y1="279.82" x2="687.47" y2="279.82" xlink:href="#Безымянный_градиент_15"/><linearGradient id="Безымянный_градиент_15-2" x1="586" y1="323.03" x2="614.79" y2="323.03" xlink:href="#Безымянный_градиент_15"/><linearGradient id="Безымянный_градиент_15-3" x1="619.7" y1="321.17" x2="651.39" y2="321.17" xlink:href="#Безымянный_градиент_15"/><linearGradient id="Безымянный_градиент_15-4" x1="621.15" y1="301.99" x2="649.94" y2="301.99" xlink:href="#Безымянный_градиент_15"/><linearGradient id="Безымянный_градиент_15-5" x1="657.23" y1="298.99" x2="688.92" y2="298.99" xlink:href="#Безымянный_градиент_15"/><linearGradient id="Безымянный_градиент_15" x1="584.55" y1="342.2" x2="616.25" y2="342.2" gradientUnits="userSpaceOnUse"><stop offset="0" stop-color="#f2edec"/><stop offset=".19" stop-color="#efe9e8"/><stop offset=".41" stop-color="#e5dbda"/><stop offset=".63" stop-color="#d4c5c5"/><stop offset=".86" stop-color="#bda7a6"/><stop offset="1" stop-color="#ac9090"/></linearGradient><linearGradient id="Безымянный_градиент_15-7" x1="692.37" y1="277.95" x2="724.07" y2="277.95" xlink:href="#Безымянный_градиент_15"/><linearGradient id="Безымянный_градиент_15-8" x1="693.83" y1="258.78" x2="722.62" y2="258.78" xlink:href="#Безымянный_градиент_15"/><linearGradient id="Безымянный_градиент_15-9" x1="545.11" y1="135.87" x2="581.73" y2="135.87" xlink:href="#Безымянный_градиент_15"/><linearGradient id="Безымянный_градиент_15-10" x1="570.62" y1="150.78" x2="607.25" y2="150.78" xlink:href="#Безымянный_градиент_15"/><clipPath id="clip-path-2"><path class="cls-1" d="M599.58 112.55c-5.88-3.4-15.41-3.4-21.28 0s-5.88 8.89 0 12.28 15.4 3.39 21.28 0 5.87-8.89 0-12.28Z"/></clipPath><clipPath id="clip-path"><path class="cls-1" d="M574.06 97.64c-5.88-3.4-15.4-3.4-21.28 0s-5.87 8.89 0 12.28 15.4 3.39 21.28 0 5.88-8.92 0-12.28Z"/></clipPath><style>.cls-1{fill:none}.cls-5{fill:#ed8e2f}.cls-6{fill:#c96a1c}.cls-7{fill:#d87923}.cls-8{fill:#dba763}.cls-9{fill:#e8b679}.cls-10{fill:#cc8c46}.cls-11{fill:#fff}.cls-12{fill:#bf7e3d}.cls-13{fill:#ffe1c0}.cls-14{fill:#4d4d4d}.cls-15{fill:#5d588d}.cls-16{fill:#7c76ac}.cls-17{fill:#8a9ad0}.cls-18{fill:#386819}.cls-19{fill:#d3d3d3}.cls-20{fill:#7eb25d}.cls-21{fill:#d4c9c9}.cls-23{fill:#b1989b}.cls-24{fill:#9c8383}.cls-25{fill:#00892d}.cls-26{fill:#006b21}.cls-27{fill:#003d0b}.cls-28{fill:#86676a}.cls-29{fill:#b09b9f}.cls-30{fill:#402317}.cls-33{fill:#91787b}.cls-37{fill:#f9f3f4}.cls-39{fill:#eee}.cls-40{fill:#331a14}.cls-50{fill:#694147}.cls-52{fill:#807171}.cls-53{fill:#645454}.cls-55{fill:#424242}.cls-56{fill:#5b5b5b}.cls-57{fill:#303030}.cls-58{fill:#494949}.cls-59{fill:#ffba76}.cls-60{fill:#707070}.cls-61{fill:#ffc999}.cls-62{fill:#3a3a3a}.cls-63{fill:#ffa543}.cls-66{fill:#ffc5b3}.cls-67{fill:#d1406b}.cls-69{fill:#6d6d6d}.cls-70{fill:#699ff0}.cls-71{fill:#4a75cb}.cls-72{fill:#f1a34f}.cls-73{fill:#e88f46;opacity:.5}.cls-74{fill:#e59545}</style></defs><g id="Слой_2" data-name="Слой 2"><g id="Слой_1-2" data-name="Слой 1"><path style="fill:#292929" d="M414.98 471.76 817.1 247.02l.86 31.46-402.12 224.74-.86-31.46z"/><path style="fill:#454545" d="M414.98 471.76 0 224.74l.86 31.45 414.98 247.03-.86-31.46z"/><path style="fill:#4f4f4f" d="M0 224.74 402.12 0 817.1 247.03 414.98 471.77 0 224.74z"/></g><g id="бочки"><path class="cls-5" d="m363.49 354.56-37.94 23.48 1.18.8 38.05-23.54-1.29-.74z"/><path class="cls-6" d="m364.78 355.3-38.05 23.53v5.8l38.05-23.53v-5.8z"/><path class="cls-7" d="M325.55 383.9v-5.86l1.18.79v5.8l-1.18-.73z"/><path class="cls-5" d="m321.14 328.25-37.94 23.48 1.18.8 38.05-23.54-1.29-.74z"/><path class="cls-6" d="m322.43 328.99-38.05 23.53v5.8l38.05-23.53v-5.8z"/><path class="cls-7" d="M283.2 357.59v-5.86l1.18.79v5.8l-1.18-.73z"/><path class="cls-5" d="m341.7 340.76-37.94 23.48 1.19.79 38.04-23.53-1.29-.74z"/><path class="cls-6" d="m342.99 341.49-38.04 23.54v5.79l38.04-23.53v-5.8z"/><path class="cls-7" d="M303.76 370.1v-5.86l1.19.79v5.79l-1.19-.72z"/><path class="cls-7" d="m326.73 377.06-43.53-26.93v1.88l43.53 26.92v-1.87z"/><path class="cls-5" d="m331.3 374.32-4.57 2.74-43.53-26.93 4.54-2.73 43.56 26.92z"/><path class="cls-6" d="m331.3 374.32-4.57 2.74v3.49l4.57-2.84v-3.39z"/><path class="cls-7" d="m335.22 371.7-43.65-27.04v1.88l43.65 27.03v-1.87z"/><path class="cls-5" d="m339.79 368.96-4.57 2.74-43.65-27.04 4.54-2.73 43.68 27.03z"/><path class="cls-6" d="m339.79 368.96-4.57 2.74v3.49l4.57-2.84v-3.39z"/><path class="cls-7" d="m343.92 366.42-43.76-27.09v1.87l43.76 27.1v-1.88z"/><path class="cls-5" d="m348.48 363.69-4.56 2.73-43.76-27.09 4.54-2.73 43.78 27.09z"/><path class="cls-6" d="m348.48 363.69-4.56 2.73v3.5l4.56-2.85v-3.38z"/><path class="cls-7" d="m352.41 361.06-43.66-26.92v1.88l43.66 26.92v-1.88z"/><path class="cls-5" d="m356.97 358.33-4.56 2.73-43.66-26.92 4.54-2.73 43.68 26.92z"/><path class="cls-6" d="m356.97 358.33-4.56 2.73v3.5l4.56-2.85v-3.38z"/><path class="cls-7" d="m360.22 356.36-43.76-27.04v1.88l43.76 27.04v-1.88z"/><path class="cls-5" d="m364.78 353.63-4.56 2.73-43.76-27.04 4.54-2.73 43.78 27.04z"/><path class="cls-6" d="m364.78 353.63-4.56 2.73v3.5l4.56-2.85v-3.38z"/><path class="cls-8" d="m307.71 361.73-.01-25.4 18.95-11.74v25.38l-18.94 11.76z"/><path class="cls-9" d="m307.71 361.73-.01-25.4-18.95-11.74v25.38l18.96 11.76z"/><path class="cls-10" d="M291.21 348.28v-19.51l-.56-.34v20.28l15.15 9.4v-.77l-14.59-9.06z"/><path class="cls-8" d="M305.8 357.34v-19.53l-14.59-9.04v19.51l14.59 9.06z"/><path class="cls-11" d="m300.29 352.41 4.06 2.52v-6.56l-4.06-2.52v6.56z"/><path class="cls-12" d="M324.2 348.28v-19.51l.55-.34v20.28l-15.15 9.4v-.77l14.6-9.06z"/><path class="cls-10" d="M309.6 357.34v-19.53l14.6-9.04v19.51l-14.6 9.06z"/><path class="cls-13" d="m288.75 324.59 18.95 11.74 18.95-11.74-18.94-11.73-18.96 11.73z"/><path class="cls-8" d="m322.72 324.83.63-.39-15.64-9.68-15.64 9.68.62.39 15.02-9.29 15.01 9.29z"/><path class="cls-9" d="m322.72 324.83-15.01-9.29-15.02 9.29 15.02 9.3 15.01-9.3z"/><path class="cls-14" d="M320.25 333.25v6.55l3.13-1.94v-6.55l-3.13 1.94zM315.61 336.06v6.56l3.13-1.94v-6.55l-3.13 1.93z"/><path class="cls-8" d="M342.28 365.48v-25.41l18.95-11.74v25.38l-18.95 11.77z"/><path class="cls-9" d="M342.28 365.48v-25.41l-18.95-11.74v25.38l18.95 11.77z"/><path class="cls-10" d="M325.78 352.02v-19.51l-.55-.34v20.28l15.15 9.4v-.77l-14.6-9.06z"/><path class="cls-8" d="M340.38 361.08v-19.53l-14.6-9.04v19.51l14.6 9.06z"/><path class="cls-11" d="m334.86 356.15 4.07 2.53v-6.56l-4.07-2.52v6.55z"/><path class="cls-12" d="M358.77 352.02v-19.51l.56-.34v20.28l-15.15 9.4v-.77l14.59-9.06z"/><path class="cls-10" d="M344.18 361.08v-19.53l14.59-9.04v19.51l-14.59 9.06z"/><path class="cls-13" d="m323.33 328.33 18.95 11.74 18.95-11.74-18.95-11.73-18.95 11.73z"/><path class="cls-8" d="m357.3 328.57.62-.39-15.63-9.68-15.65 9.68.63.39 15.02-9.29 15.01 9.29z"/><path class="cls-9" d="m357.3 328.57-15.01-9.29-15.02 9.29 15.01 9.3 15.02-9.3z"/><path class="cls-14" d="M354.83 336.99v6.56l3.13-1.94v-6.56l-3.13 1.94zM350.19 339.8v6.56l3.13-1.94v-6.55l-3.13 1.93z"/><path class="cls-8" d="m321.82 334.93-.01-25.4 18.96-11.74v25.38l-18.95 11.76z"/><path class="cls-9" d="m321.82 334.93-.01-25.4-18.95-11.74v25.38l18.96 11.76z"/><path class="cls-10" d="M305.32 321.48v-19.51l-.56-.34v20.28l15.16 9.4v-.77l-14.6-9.06z"/><path class="cls-8" d="m319.92 330.54-.01-19.53-14.59-9.04v19.51l14.6 9.06z"/><path class="cls-11" d="m314.4 325.61 4.07 2.52v-6.56l-4.07-2.51v6.55z"/><path class="cls-12" d="M338.31 321.48v-19.51l.56-.34v20.28l-15.16 9.4v-.77l14.6-9.06z"/><path class="cls-10" d="m323.71 330.54.01-19.53 14.59-9.04v19.51l-14.6 9.06z"/><path class="cls-13" d="m302.86 297.79 18.95 11.74 18.96-11.74-18.95-11.73-18.96 11.73z"/><path class="cls-8" d="m336.83 298.03.63-.39-15.63-9.68-15.65 9.68.63.39 15.02-9.29 15 9.29z"/><path class="cls-9" d="m336.83 298.03-15-9.29-15.02 9.29 15.01 9.3 15.01-9.3z"/><path class="cls-14" d="M334.37 306.45V313l3.12-1.94v-6.55l-3.12 1.94zM329.73 309.26v6.56l3.12-1.94v-6.55l-3.12 1.93z"/><path class="cls-5" d="m180.22 237.43-43.85 29.35 1.37.99 43.98-29.42-1.5-.92z"/><path class="cls-6" d="m181.72 238.35-43.98 29.41v7.25l43.98-29.41v-7.25z"/><path class="cls-7" d="M136.37 274.1v-7.32l1.37.98v7.25l-1.37-.91z"/><path class="cls-5" d="m131.27 204.54-43.85 29.35 1.37.99 43.98-29.41-1.5-.93z"/><path class="cls-6" d="m132.77 205.46-43.98 29.42v7.25l43.98-29.42v-7.25z"/><path class="cls-7" d="M87.42 241.22v-7.33l1.37.99v7.25l-1.37-.91z"/><path class="cls-5" d="m155.04 220.17-43.85 29.35 1.37 1 43.97-29.42-1.49-.93z"/><path class="cls-6" d="m156.53 221.1-43.97 29.41v7.25l43.97-29.42v-7.24z"/><path class="cls-7" d="M111.19 256.85v-7.33l1.37.99v7.25l-1.37-.91z"/><path class="cls-7" d="M137.74 265.55 87.42 231.9v2.34l50.32 33.65v-2.34z"/><path class="cls-5" d="m143.01 262.13-5.27 3.42-50.32-33.65 5.25-3.42 50.34 33.65z"/><path class="cls-6" d="m143.01 262.13-5.27 3.42v4.37l5.27-3.56v-4.23z"/><path class="cls-7" d="m147.55 258.85-50.46-33.79v2.34l50.46 33.79v-2.34z"/><path class="cls-5" d="m152.83 255.43-5.28 3.42-50.46-33.79 5.25-3.42 50.49 33.79z"/><path class="cls-6" d="m152.83 255.43-5.28 3.42v4.37l5.28-3.56v-4.23z"/><path class="cls-7" d="m157.6 252.25-50.57-33.86v2.34l50.57 33.87v-2.35z"/><path class="cls-5" d="m162.88 248.84-5.28 3.41-50.57-33.86 5.24-3.42 50.61 33.87z"/><path class="cls-6" d="m162.88 248.84-5.28 3.41v4.37l5.28-3.55v-4.23z"/><path class="cls-7" d="m167.41 245.56-50.46-33.65v2.34l50.46 33.65v-2.34z"/><path class="cls-5" d="m172.69 242.14-5.28 3.42-50.46-33.65 5.25-3.42 50.49 33.65z"/><path class="cls-6" d="m172.69 242.14-5.28 3.42v4.37l5.28-3.56v-4.23z"/><path class="cls-7" d="m176.44 239.68-50.58-33.8v2.35l50.58 33.8v-2.35z"/><path class="cls-5" d="m181.72 236.27-5.28 3.41-50.58-33.8 5.25-3.41 50.61 33.8z"/><path class="cls-6" d="m181.72 236.27-5.28 3.41v4.37l5.28-3.56v-4.22z"/><path class="cls-15" d="M121.07 176.21v13.65c0 4.47 6.3 8.1 14.07 8.1s14.06-3.63 14.06-8.1v-13.65ZM121.07 204.46v14.87c0 4.47 6.3 8.1 14.07 8.1s14.06-3.63 14.06-8.1v-14.87Z"/><path class="cls-16" d="M149.2 176.21c0 4.47-6.29 8.1-14.06 8.1s-14.07-3.63-14.07-8.1 6.3-8.11 14.07-8.11 14.06 3.63 14.06 8.11ZM135.14 198c-7.77 0-14.07-3.63-14.07-8.1v14.72c.12 4.42 6.36 8 14.06 8s13.94-3.57 14.05-8v-14.76c.02 4.47-6.27 8.14-14.04 8.14Z"/><path class="cls-17" d="M147.36 176.21c0 3.66-5.47 6.63-12.22 6.63s-12.22-3-12.22-6.63 5.47-6.63 12.22-6.63 12.22 2.96 12.22 6.63Z"/><path class="cls-15" d="M143.1 173.61c0 .53-.62.95-1.39.95s-1.39-.42-1.39-.95.62-.94 1.39-.94 1.39.42 1.39.94ZM96.26 191.33V205c0 4.48 6.3 8.11 14.07 8.11s14.06-3.63 14.06-8.11v-13.67ZM96.26 219.59v14.86c0 4.47 6.3 8.1 14.07 8.1s14.06-3.63 14.06-8.1v-14.86Z"/><path class="cls-16" d="M124.39 191.33c0 4.48-6.3 8.1-14.06 8.1s-14.07-3.62-14.07-8.1 6.3-8.1 14.07-8.1 14.06 3.63 14.06 8.1ZM110.33 213.09c-7.77 0-14.07-3.63-14.07-8.11v14.73c.11 4.42 6.36 8 14.06 8s13.94-3.56 14-8V205c.07 4.46-6.23 8.09-13.99 8.09Z"/><path class="cls-17" d="M122.54 191.33c0 3.66-5.47 6.63-12.21 6.63s-12.22-3-12.22-6.63 5.47-6.63 12.22-6.63 12.21 2.97 12.21 6.63Z"/><ellipse class="cls-15" cx="116.9" cy="188.74" rx="1.39" ry=".95"/><path class="cls-5" d="m264.51 288.62-43.85 29.35 1.37.99L266 289.55l-1.49-.93z"/><path class="cls-6" d="m266 289.54-43.97 29.42v7.24L266 296.79v-7.25z"/><path class="cls-7" d="M220.66 325.3v-7.33l1.37.99v7.24l-1.37-.9z"/><path class="cls-5" d="m215.56 255.73-43.85 29.35 1.36 1 43.98-29.42-1.49-.93z"/><path class="cls-6" d="m217.05 256.65-43.98 29.42v7.25l43.98-29.42v-7.25z"/><path class="cls-7" d="M171.71 292.41v-7.33l1.36.99v7.25l-1.36-.91z"/><path class="cls-5" d="m239.32 271.37-43.85 29.34 1.37 1 43.98-29.42-1.5-.92z"/><path class="cls-6" d="m240.82 272.29-43.98 29.41v7.25l43.98-29.41v-7.25z"/><path class="cls-7" d="M195.47 308.04v-7.33l1.37.99v7.25l-1.37-.91z"/><path class="cls-7" d="m222.03 316.74-50.32-33.65v2.34l50.32 33.65v-2.34z"/><path class="cls-5" d="m227.3 313.32-5.27 3.42-50.32-33.65 5.25-3.42 50.34 33.65z"/><path class="cls-6" d="m227.3 313.32-5.27 3.42v4.37l5.27-3.56v-4.23z"/><path class="cls-7" d="m231.84 310.04-50.46-33.79v2.34l50.46 33.79v-2.34z"/><path class="cls-5" d="m237.11 306.63-5.27 3.41-50.46-33.79 5.25-3.42 50.48 33.8z"/><path class="cls-6" d="m237.11 306.63-5.27 3.41v4.37l5.27-3.56v-4.22z"/><path class="cls-7" d="m241.89 303.45-50.58-33.87v2.34l50.58 33.87v-2.34z"/><path class="cls-5" d="m247.16 300.03-5.27 3.42-50.58-33.87 5.25-3.41 50.6 33.86z"/><path class="cls-6" d="m247.16 300.03-5.27 3.42v4.36l5.27-3.55v-4.23z"/><path class="cls-7" d="m251.7 296.75-50.46-33.65v2.34l50.46 33.65v-2.34z"/><path class="cls-5" d="m256.97 293.33-5.27 3.42-50.46-33.65 5.25-3.42 50.48 33.65z"/><path class="cls-6" d="m256.97 293.33-5.27 3.42v4.37l5.27-3.56v-4.23z"/><path class="cls-7" d="m260.73 290.87-50.58-33.8v2.35l50.58 33.8v-2.35z"/><path class="cls-5" d="m266 287.46-5.27 3.41-50.58-33.8 5.25-3.41 50.6 33.8z"/><path class="cls-6" d="m266 287.46-5.27 3.41v4.37l5.27-3.55v-4.23z"/><path class="cls-15" d="M205.36 227.4v13.65c0 4.47 6.3 8.1 14.06 8.1s14.07-3.63 14.07-8.1V227.4ZM205.36 255.65v14.87c0 4.48 6.3 8.1 14.06 8.1s14.07-3.62 14.07-8.1v-14.87Z"/><path class="cls-16" d="M233.49 227.4c0 4.47-6.3 8.1-14.07 8.1s-14.06-3.63-14.06-8.1 6.3-8.11 14.06-8.11 14.07 3.63 14.07 8.11ZM219.42 249.15c-7.76 0-14.06-3.63-14.06-8.1v14.72c.11 4.42 6.36 8 14 8s14-3.57 14.06-8v-14.72c.07 4.47-6.23 8.1-14 8.1Z"/><path class="cls-17" d="M231.64 227.4c0 3.66-5.47 6.63-12.22 6.63s-12.21-3-12.21-6.63 5.47-6.63 12.21-6.63 12.22 2.96 12.22 6.63Z"/><path class="cls-15" d="M227.39 224.8c0 .53-.63.95-1.39.95s-1.39-.42-1.39-.95.62-.94 1.39-.94 1.39.42 1.39.94Z"/><path class="cls-18" d="M229.88 248.37V262c0 4.47 6.3 8.1 14.06 8.1S258 266.49 258 262v-13.63ZM229.88 276.62v14.87c0 4.48 6.3 8.1 14.06 8.1S258 296 258 291.49v-14.87Z"/><ellipse class="cls-18" cx="243.94" cy="248.37" rx="14.07" ry="8.1"/><path class="cls-19" d="M243.94 270.12c-7.76 0-14.06-3.63-14.06-8.1v14.65c0 4.45 6.32 8.06 14.06 8.06s14-3.61 14.07-8.06V262c-.01 4.49-6.3 8.12-14.07 8.12Z"/><path class="cls-20" d="M256.16 248.37c0 3.66-5.47 6.63-12.22 6.63s-12.21-3-12.21-6.63 5.47-6.63 12.21-6.63 12.22 2.97 12.22 6.63Z"/><path class="cls-14" d="M251.91 245.77c0 .53-.63.95-1.39.95s-1.39-.42-1.39-.95.62-.94 1.39-.94 1.39.42 1.39.94Z"/><path class="cls-15" d="M180.55 242.52v13.65c0 4.48 6.29 8.11 14.06 8.11s14.07-3.63 14.07-8.11v-13.65ZM180.55 270.78v14.87c0 4.47 6.29 8.1 14.06 8.1s14.07-3.63 14.07-8.1v-14.87Z"/><path class="cls-16" d="M208.68 242.52c0 4.48-6.3 8.1-14.07 8.1s-14.06-3.62-14.06-8.1 6.29-8.1 14.06-8.1 14.07 3.63 14.07 8.1ZM194.61 264.28c-7.77 0-14.06-3.63-14.06-8.11v14.73c.11 4.42 6.35 8 14.05 8s13.94-3.56 14.06-8v-14.73c.02 4.48-6.28 8.11-14.05 8.11Z"/><path class="cls-17" d="M206.83 242.52c0 3.66-5.47 6.63-12.22 6.63s-12.22-3-12.22-6.63 5.47-6.63 12.22-6.63 12.22 2.97 12.22 6.63Z"/><ellipse class="cls-15" cx="201.18" cy="239.93" rx="1.39" ry=".95"/><path class="cls-18" d="M205.36 258.73v13.65c0 4.48 6.3 8.1 14.06 8.1s14.07-3.62 14.07-8.1v-13.65ZM205.36 287v14.87c0 4.48 6.3 8.1 14.06 8.1s14.07-3.62 14.07-8.1V287Z"/><ellipse class="cls-18" cx="219.42" cy="258.73" rx="14.07" ry="8.1"/><path class="cls-19" d="M219.42 280.48c-7.76 0-14.06-3.63-14.06-8.1V287c0 4.45 6.32 8.06 14.06 8.06s14-3.61 14.07-8.06v-14.62c0 4.47-6.3 8.1-14.07 8.1Z"/><path class="cls-20" d="M231.64 258.73c0 3.66-5.47 6.63-12.22 6.63s-12.21-3-12.21-6.63 5.47-6.63 12.21-6.63 12.22 2.97 12.22 6.63Z"/><path class="cls-14" d="M227.39 256.14c0 .52-.63.94-1.39.94s-1.39-.42-1.39-.94.62-.95 1.39-.95 1.39.42 1.39.95Z"/><path class="cls-18" d="M145.1 196.86v13.65c0 4.48 6.3 8.11 14.07 8.11s14.06-3.63 14.06-8.11v-13.65ZM145.1 225.12V240c0 4.47 6.3 8.1 14.07 8.1s14.06-3.63 14.06-8.1v-14.88Z"/><ellipse class="cls-18" cx="159.17" cy="196.86" rx="14.07" ry="8.1"/><path class="cls-19" d="M159.17 218.62c-7.77 0-14.07-3.63-14.07-8.11v14.65c0 4.46 6.31 8.06 14.06 8.06s14-3.6 14.06-8.06v-14.65c.01 4.49-6.29 8.11-14.05 8.11Z"/><path class="cls-20" d="M171.38 196.86c0 3.66-5.47 6.63-12.21 6.63s-12.22-3-12.22-6.63 5.47-6.63 12.22-6.63 12.21 2.97 12.21 6.63Z"/><path class="cls-14" d="M167.13 194.27c0 .52-.62.95-1.39.95s-1.39-.43-1.39-.95.62-1 1.39-1 1.39.48 1.39 1Z"/><path class="cls-18" d="M120.58 207.22v13.65c0 4.48 6.3 8.11 14.07 8.11s14.06-3.63 14.06-8.11v-13.65ZM120.58 235.48v14.87c0 4.47 6.3 8.1 14.07 8.1s14.06-3.63 14.06-8.1v-14.87Z"/><ellipse class="cls-18" cx="134.65" cy="207.22" rx="14.07" ry="8.1"/><path class="cls-19" d="M134.65 229c-7.77 0-14.07-3.63-14.07-8.11v14.65c0 4.46 6.31 8.06 14.06 8.06s14-3.6 14.06-8.06v-14.67c.01 4.48-6.29 8.13-14.05 8.13Z"/><path class="cls-20" d="M146.86 207.22c0 3.66-5.47 6.63-12.21 6.63s-12.22-3-12.22-6.63 5.47-6.63 12.22-6.63 12.21 2.97 12.21 6.63Z"/><path class="cls-14" d="M142.61 204.63c0 .52-.62 1-1.39 1s-1.39-.43-1.39-1 .62-.95 1.39-.95 1.39.43 1.39.95Z"/><path class="cls-5" d="m451.71 413.6-37.94 23.48 1.18.8L453 414.34l-1.29-.74z"/><path class="cls-6" d="m453 414.34-38.05 23.53v5.8L453 420.14v-5.8z"/><path class="cls-7" d="M413.77 442.94v-5.86l1.19.79v5.8l-1.19-.73z"/><path class="cls-5" d="m409.36 387.29-37.94 23.48 1.19.8 38.04-23.54-1.29-.74z"/><path class="cls-6" d="m410.65 388.03-38.04 23.53v5.8l38.04-23.53v-5.8z"/><path class="cls-7" d="M371.42 416.63v-5.86l1.19.79v5.8l-1.19-.73z"/><path class="cls-5" d="m429.92 399.8-37.93 23.48 1.18.79 38.04-23.53-1.29-.74z"/><path class="cls-6" d="m431.21 400.54-38.04 23.53v5.8l38.04-23.54v-5.79z"/><path class="cls-7" d="M391.99 429.14v-5.86l1.18.79v5.8l-1.18-.73z"/><path class="cls-7" d="m414.96 436.1-43.54-26.92v1.87l43.54 26.92v-1.87z"/><path class="cls-5" d="m419.52 433.37-4.56 2.73-43.54-26.92 4.54-2.74 43.56 26.93z"/><path class="cls-6" d="m419.52 433.37-4.56 2.73v3.49l4.56-2.84v-3.38z"/><path class="cls-7" d="m423.45 430.74-43.66-27.04v1.88l43.66 27.04v-1.88z"/><path class="cls-5" d="m428.01 428.01-4.56 2.73-43.66-27.04 4.54-2.73 43.68 27.04z"/><path class="cls-6" d="m428.01 428.01-4.56 2.73v3.5l4.56-2.85v-3.38z"/><path class="cls-7" d="m432.14 425.46-43.76-27.09v1.88l43.76 27.09v-1.88z"/><path class="cls-5" d="m436.7 422.73-4.56 2.73-43.76-27.09 4.54-2.73 43.78 27.09z"/><path class="cls-6" d="m436.7 422.73-4.56 2.73v3.5l4.56-2.85v-3.38z"/><path class="cls-7" d="m440.63 420.11-43.66-26.93v1.88l43.66 26.92v-1.87z"/><path class="cls-5" d="m445.19 417.37-4.56 2.74-43.66-26.93 4.54-2.73 43.68 26.92z"/><path class="cls-6" d="m445.19 417.37-4.56 2.74v3.49l4.56-2.85v-3.38z"/><path class="cls-7" d="m448.44 415.41-43.76-27.04v1.87l43.76 27.04v-1.87z"/><path class="cls-5" d="m453 412.67-4.56 2.74-43.76-27.04 4.54-2.74L453 412.67z"/><path class="cls-6" d="m453 412.67-4.56 2.74v3.49l4.56-2.84v-3.39z"/><path class="cls-8" d="m395.93 420.77-.01-25.4 18.95-11.74v25.38l-18.94 11.76z"/><path class="cls-9" d="m395.93 420.77-.01-25.4-18.95-11.74v25.38l18.96 11.76z"/><path class="cls-10" d="M379.43 407.32v-19.51l-.56-.34v20.28l15.15 9.4v-.77l-14.59-9.06z"/><path class="cls-8" d="M394.02 416.38v-19.53l-14.59-9.04v19.51l14.59 9.06z"/><path class="cls-11" d="m388.51 411.45 4.07 2.53-.01-6.56-4.06-2.52v6.55z"/><path class="cls-12" d="M412.42 407.32v-19.51l.55-.34v20.28l-15.15 9.4v-.77l14.6-9.06z"/><path class="cls-10" d="m397.82 416.38.01-19.53 14.59-9.04v19.51l-14.6 9.06z"/><path class="cls-13" d="m376.97 383.63 18.95 11.74 18.95-11.74-18.94-11.73-18.96 11.73z"/><path class="cls-8" d="m410.94 383.87.63-.39-15.64-9.68-15.64 9.68.63.39 15.01-9.29 15.01 9.29z"/><path class="cls-9" d="m410.94 383.87-15.01-9.29-15.01 9.29 15.01 9.3 15.01-9.3z"/><path class="cls-14" d="M408.47 392.29v6.56l3.13-1.95v-6.55l-3.13 1.94zM403.83 395.1v6.56l3.13-1.94v-6.55l-3.13 1.93z"/><path class="cls-8" d="m430.51 424.52-.01-25.41 18.95-11.73v25.37l-18.94 11.77z"/><path class="cls-9" d="m430.51 424.52-.01-25.41-18.95-11.73v25.37l18.96 11.77z"/><path class="cls-10" d="M414 411.06v-19.5l-.55-.35v20.28l15.15 9.41v-.78l-14.6-9.06z"/><path class="cls-8" d="M428.6 420.12v-19.53l-14.6-9.03v19.5l14.6 9.06z"/><path class="cls-11" d="m423.09 415.19 4.06 2.53v-6.56l-4.06-2.52v6.55z"/><path class="cls-12" d="M447 411.06v-19.5l.55-.35v20.28l-15.15 9.41v-.78l14.6-9.06z"/><path class="cls-10" d="M432.4 420.12v-19.53l14.6-9.03v19.5l-14.6 9.06z"/><path class="cls-13" d="m411.55 387.38 18.95 11.73 18.95-11.73-18.94-11.74-18.96 11.74z"/><path class="cls-8" d="m445.52 387.61.63-.38-15.64-9.69-15.64 9.69.62.38 15.02-9.29 15.01 9.29z"/><path class="cls-9" d="m445.52 387.61-15.01-9.29-15.02 9.29 15.02 9.3 15.01-9.3z"/><path class="cls-14" d="M443.05 396.03v6.56l3.13-1.94v-6.56l-3.13 1.94zM438.41 398.85v6.55l3.13-1.94v-6.55l-3.13 1.94z"/><path class="cls-8" d="M410.04 393.98v-25.41l18.95-11.74v25.38l-18.95 11.77z"/><path class="cls-9" d="M410.04 393.98v-25.41l-18.96-11.74v25.38l18.96 11.77z"/><path class="cls-10" d="M393.54 380.52v-19.51l-.55-.34v20.28l15.15 9.41v-.78l-14.6-9.06z"/><path class="cls-8" d="m408.14 389.58-.01-19.53-14.59-9.04v19.51l14.6 9.06z"/><path class="cls-11" d="m402.62 384.65 4.07 2.53v-6.56l-4.07-2.52v6.55z"/><path class="cls-12" d="M426.53 380.52v-19.51l.56-.34v20.28l-15.15 9.41v-.78l14.59-9.06z"/><path class="cls-10" d="M411.94 389.58v-19.53l14.59-9.04v19.51l-14.59 9.06z"/><path class="cls-13" d="m391.08 356.83 18.96 11.74 18.95-11.74-18.95-11.73-18.96 11.73z"/><path class="cls-8" d="m425.06 357.07.62-.39-15.63-9.68-15.65 9.68.63.39 15.02-9.29 15.01 9.29z"/><path class="cls-9" d="m425.06 357.07-15.01-9.29-15.02 9.29 15.01 9.3 15.02-9.3z"/><path class="cls-14" d="M422.59 365.49v6.56l3.12-1.94v-6.56l-3.12 1.94zM417.95 368.31v6.55l3.12-1.94v-6.55l-3.12 1.94z"/></g><g id="зданния"><path class="cls-21" d="m309 107.2 95.79 52.87 104.09-59.05-95.79-52.86L309 107.2z"/><path style="fill:#fcf6f8" d="m309 105.94 95.79 52.86 104.09-59.04-95.79-52.86L309 105.94z"/><path class="cls-21" d="m309 107.2 3.76.82-3.76-2.08v1.26z"/><path class="cls-23" d="m404.79 160.07 104.09-59.05v-1.26L404.79 158.8v1.27z"/><path class="cls-24" d="m328.46 99.95 15.1-.89-.04-7.71-15.06 8.6z"/><path class="cls-25" d="M409.33 18.37v30.45l4.34 2.43V31.47l13.26 7.42v19.78l9.11 5.1V44.12l15.27 8.54v19.65l5.44 3.05 47.43 26.53V71.44L456.75 24.9l-47.42-6.53z"/><path class="cls-26" d="m501.16 100.2.36.2V68.76l-.36-.2v31.64zM497.49 98.14l.36.21v-33.2l-.36-.2v33.19zM494.12 96.26l.36.2V61.84l-.36-.2v34.62zM490.05 93.98l.36.2V57.85l-.36-.2v36.33zM486.49 91.99l.36.2V54.36l-.36-.2v37.83zM482.9 89.98l.36.2V50.83l-.36-.2v39.35zM479.7 88.19l.36.2v-40.7l-.36-.2v40.7zM476.5 86.4l.36.2V44.55l-.36-.2V86.4zM472.85 84.36l.36.2V40.97l-.36-.2v43.59zM469.32 82.39l.36.2V37.51l-.36-.21v45.09zM466.45 80.78l.36.2V34.69l-.36-.2v46.29zM463.35 79.05l.36.2v-47.6l-.36-.2v47.6zM460.5 77.45l.36.2V28.84l-.36-.2v48.81zM457.62 75.84l.37.21V26.03l-.36-.2-.01 50.01zM454.58 74.14l.36.2V24.72l-.36-.2v49.62zM451.09 24.04l.04 28.52v19.65l.36.2V52.77l-.04-28.53-.36-.2zM448.63 51.16l.36.21V23.91l-.36-.21v27.46zM445.64 49.49l.36.2v-26.2l-.36-.2v26.2zM442.48 47.72l.36.21V23.06l-.36-.2v24.86zM439.7 46.17l.36.2V22.68l-.36-.2v23.69zM436.65 44.46l.36.21V22.26l-.36-.2v22.4zM434.08 62.67l.36.2V21.9l-.36-.2v40.97zM431.44 61.2l.37.2V21.54l-.37-.2V61.2zM428.63 59.62l.36.2V21.15l-.36-.2v38.67zM425.95 38.2l.36.2V20.79l-.36-.21V38.2zM423.1 36.6l.36.2V20.39l-.36-.2V36.6zM420.43 35.11l.37.2V20.03l-.37-.21v15.29zM417.13 33.41l.36.2V19.57l-.36-.2v14.04zM414.59 31.84l.36.2V19.22l-.36-.2v12.82zM411.62 50.11l.36.2.01-31.49-.37-.21v31.5z"/><path class="cls-27" d="m419 150.58 85.18-48.69V71.44L419 120.13v30.45zM350.88 112.45l85.17-48.69V33.31L350.88 82v30.45z"/><path class="cls-27" d="m328.46 99.95 85.18-48.69V20.81L328.46 69.5v30.45z"/><path class="cls-25" d="m324.16 67.07-.01 30.45 4.35 2.42V80.16l13.25 7.42v19.78l9.11 5.1V92.81l15.27 8.55V121l5.45 3.05L419 150.58v-30.45l-47.42-46.54-47.42-6.52z"/><path class="cls-26" d="m415.99 148.89.36.2v-31.64l-.36-.2v31.64zM412.31 146.84l.36.2v-33.2l-.36-.2v33.2zM408.94 144.95l.36.2v-34.62l-.36-.2v34.62zM404.87 142.67l.36.21v-36.34l-.36-.2v36.33zM401.31 140.69l.37.2v-37.84l-.36-.2-.01 37.84zM397.72 138.67l.36.21V99.52l-.36-.2v39.35zM394.52 136.88l.36.21V96.38l-.36-.2v40.7zM391.32 135.09l.36.2V93.24l-.36-.2v42.05zM387.67 133.05l.36.2V89.66l-.36-.2v43.59zM384.14 131.08l.36.2V86.2l-.36-.2v45.08zM381.27 129.47l.36.2V83.38l-.36-.2v46.29zM378.18 127.74l.36.2v-47.6l-.36-.2v47.6zM375.32 126.14l.36.2v-48.8l-.36-.2v48.8zM372.45 124.53l.36.21V74.72l-.36-.2v50.01zM369.41 122.83l.36.2V73.42l-.36-.21v49.62zM365.92 72.73l.03 28.52v19.65l.36.2v-19.64l-.03-28.52-.36-.21zM363.45 99.86l.36.2V72.6l-.36-.21v27.47zM360.46 98.18l.37.21v-26.2l-.37-.21v26.2zM357.3 96.42l.37.2V71.75l-.36-.2-.01 24.87zM354.52 94.86l.37.2V71.37l-.36-.2-.01 23.69zM351.48 93.16l.36.2V70.95l-.36-.2v22.41zM348.9 111.36l.36.2V70.6l-.36-.21v40.97zM346.27 109.89l.36.2V70.23l-.36-.2v39.86zM343.45 108.31l.36.2V69.85l-.36-.21v38.67zM340.78 86.89l.36.2V69.48l-.36-.2v17.61zM337.93 85.29l.36.2v-16.4l-.36-.21v16.41zM335.26 83.8l.36.2V68.72l-.36-.2V83.8zM331.95 82.1l.36.2V68.27l-.36-.21V82.1zM329.42 80.53l.36.2V67.92l-.36-.21v12.82zM326.45 98.8l.36.2V67.51l-.36-.2V98.8z"/><path class="cls-28" d="m422.79 131.46 39.38-22.57v-6.56l-39.38 22.53v6.6z"/><path class="cls-29" d="m435.68 123.64 26.05-19.53v-.63l-28.39 21.49 2.34-1.33zM423.18 130.61l-.05.22.37-.22 26.08-20.64-2.26 1.29-24.14 19.35z"/><path class="cls-30" d="m422.79 131.46 39.38-22.57v-6.56l-39.38 22.53Zm.39-6.38 38.6-22.08v5.68l-38.6 22.13Z"/><path class="cls-30" d="m458.3 111.11.39-.22v-6.56l-.39.22v6.56zM454.81 113.11l.39-.22v-6.56l-.39.22v6.56zM451.31 115.12l.39-.23v-6.56l-.39.23v6.56zM447.81 117.11l.39-.22v-6.56l-.39.22v6.56zM444.6 118.96l.39-.23v-6.56l-.39.23v6.56zM441.1 120.95l.39-.22v-6.56l-.39.22v6.56zM437.61 122.95l.39-.22v-6.56l-.39.22v6.56zM434.11 124.94l.39-.22v-6.56l-.39.22v6.56zM430.49 127l.39-.22v-6.57l-.39.23V127zM426.99 129.01l.39-.22v-6.57l-.39.23v6.56z"/><path class="cls-28" d="m462.17 108.88 39.38-22.57v-6.56l-39.38 22.53v6.6z"/><path class="cls-29" d="m475.06 101.06 26.05-19.53v-.63l-28.39 21.5 2.34-1.34zM462.56 108.03l-.05.22.38-.22 26.07-20.64-2.25 1.3-24.15 19.34z"/><path class="cls-30" d="m462.17 108.88 39.38-22.57v-6.56l-39.38 22.54Zm.39-6.38 38.6-22.09v5.68l-38.6 22.13Z"/><path class="cls-30" d="m497.68 88.53.39-.22v-6.56l-.39.22v6.56zM494.19 90.53l.39-.22v-6.56l-.39.22v6.56zM490.69 92.54l.39-.22v-6.57l-.39.23v6.56zM487.19 94.54l.4-.23v-6.56l-.4.22v6.57zM483.98 96.38l.39-.22v-6.57l-.39.23v6.56zM480.48 98.38l.39-.23v-6.56l-.39.22v6.57zM476.99 100.37l.39-.22v-6.56l-.39.22v6.56zM473.49 102.37l.39-.23v-6.56l-.39.22v6.57zM469.87 104.42l.39-.22v-6.57l-.39.23v6.56zM466.38 106.43l.38-.22v-6.57l-.38.23v6.56z"/><path class="cls-28" d="m330.03 77.69 10.46 5.99v-1.75l-10.46-5.98v1.74z"/><path class="cls-29" d="m330.15 76.42 6.92 5.18.62.36-7.54-5.71v.17zM333.97 78.32l-.59-.35 6.92 5.48.1.06-.02-.06-6.41-5.13z"/><path class="cls-30" d="m330 77.69 10.46 6v-1.76L330 76Zm.11-1.57L340.38 82v1.5l-10.24-5.87Z"/><path class="cls-30" d="m332.25 78.95.11.07v-1.75l-.11-.06v1.74zM334.11 80.02l.1.06v-1.75l-.1-.05v1.74zM335.89 81.04l.1.06v-1.75l-.1-.05v1.74zM337.75 82.1l.1.06v-1.75l-.1-.06v1.75z"/><path class="cls-28" d="m330.03 75.97 10.46 5.99v-1.75l-10.46-5.99v1.75z"/><path class="cls-29" d="m330.15 74.7 6.92 5.18.62.36-7.54-5.71v.17zM333.97 76.6l-.59-.35 6.92 5.48.1.06-.02-.06-6.41-5.13z"/><path class="cls-30" d="m330 76 10.46 6v-1.79l-10.46-6Zm.11-1.57 10.24 5.86v1.52l-10.24-5.87Z"/><path class="cls-30" d="m332.25 77.23.11.06v-1.74l-.11-.06v1.74zM334.11 78.3l.1.06v-1.75l-.1-.06v1.75zM335.89 79.31l.1.06v-1.74l-.1-.06v1.74zM337.75 80.37l.1.06v-1.74l-.1-.06v1.74z"/><path class="cls-28" d="m330.03 79.44 10.46 5.99v-1.75l-10.46-5.99v1.75z"/><path class="cls-29" d="m330.15 78.17 6.92 5.18.62.36-7.54-5.71v.17zM333.97 80.07l-.59-.35 6.92 5.48.1.06-.02-.06-6.41-5.13z"/><path class="cls-30" d="m330 79.44 10.46 6v-1.76l-10.46-6Zm.11-1.57 10.24 5.86v1.52l-10.24-5.87Z"/><path class="cls-30" d="m332.25 80.7.11.06v-1.74l-.11-.06v1.74zM334.11 81.77l.1.06v-1.75l-.1-.06v1.75zM335.89 82.78l.1.06V81.1l-.1-.06v1.74zM337.75 83.84l.1.06v-1.74l-.1-.06v1.74z"/><path class="cls-28" d="m353.36 91.22 10.45 5.99v-1.75l-10.45-5.98v1.74z"/><path class="cls-29" d="m353.48 89.95 6.91 5.18.62.36-7.53-5.71v.17zM357.3 91.85l-.6-.34 6.93 5.48.09.05-.01-.05-6.41-5.14z"/><path class="cls-30" d="m353.36 91.22 10.45 6v-1.76l-10.45-6Zm.1-1.57 10.25 5.87V97l-10.25-5.88Z"/><path class="cls-30" d="m355.58 92.49.1.06v-1.74l-.1-.06v1.74zM357.44 93.55l.1.06v-1.74l-.1-.06v1.74zM359.22 94.57l.1.06v-1.74l-.1-.06v1.74zM361.07 95.63l.11.06v-1.75l-.11-.05v1.74z"/><path class="cls-28" d="m353.36 89.5 10.45 5.99v-1.75l-10.45-5.99v1.75z"/><path class="cls-29" d="m353.48 88.23 6.91 5.18.62.36-7.53-5.71v.17zM357.3 90.13l-.6-.35 6.93 5.48.09.06-.01-.06-6.41-5.13z"/><path class="cls-30" d="m353.36 89.5 10.45 6v-1.76l-10.45-6Zm.1-1.57 10.25 5.87v1.51l-10.25-5.87Z"/><path class="cls-30" d="m355.58 90.77.1.05v-1.74l-.1-.06v1.75zM357.44 91.83l.1.06v-1.75l-.1-.06v1.75zM359.22 92.85l.1.06v-1.75l-.1-.06v1.75zM361.07 93.91l.11.06v-1.75l-.11-.06v1.75z"/><path class="cls-28" d="m353.36 92.97 10.45 5.99v-1.75l-10.45-5.98v1.74z"/><path class="cls-29" d="m353.48 91.7 6.91 5.18.62.36-7.53-5.71v.17zM357.3 93.6l-.6-.35 6.93 5.48.09.06-.01-.06-6.41-5.13z"/><path class="cls-30" d="m353.36 93 10.45 6v-1.79l-10.45-6Zm.1-1.57 10.25 5.87v1.51l-10.25-5.87Z"/><path class="cls-30" d="m355.58 94.23.1.06v-1.74l-.1-.06v1.74zM357.44 95.3l.1.06v-1.75l-.1-.05v1.74zM359.22 96.32l.1.06v-1.75l-.1-.06v1.75zM361.07 97.38l.11.06v-1.75l-.11-.06v1.75z"/><path style="fill:#70a442" d="M371.58 73.59 419 123.61l87.07-50.43-49.32-48.28-85.17 48.69z"/><path style="fill:#7ec34c" d="m320.3 67.07 51.28 6.52 85.17-48.69-49.53-6.8-86.92 48.97z"/><path class="cls-33" d="m382.84 75.12 8.46 9.1 74.72-43.08-8.78-8.55-74.4 42.53z"/><path class="cls-30" d="m382.84 75.12 8.46 9.1L466 41.14l-8.78-8.55Zm8.62 8.06-7.32-7.87 73-41.71 7.54 7.4Z"/><path class="cls-30" d="m395.61 67.98 8.32 8.93.31-.87-7.86-8.52-.77.46zM408.08 60.95l8.32 8.93.31-.87-7.86-8.52-.77.46zM420.6 53.6l8.31 8.93.32-.87-7.86-8.52-.77.46zM433.07 46.56l8.31 8.93.32-.86-7.86-8.53-.77.46zM445.81 39.38l8.09 8.69.38-.23.13-.38-7.85-8.52Z"/><path class="cls-33" d="m397.23 89.93 8.47 9.1 74.72-43.08-8.78-8.55-74.41 42.53z"/><path class="cls-30" d="M397.23 89.93 405.7 99l74.72-43-8.78-8.55Zm8.63 8.07-7.33-7.87 73-41.72 7.57 7.38Z"/><path class="cls-30" d="m410.01 82.79 8.31 8.93.31-.86-7.85-8.53-.77.46zM422.48 75.76l8.31 8.93.31-.87-7.85-8.52-.77.46zM435 68.41l8.31 8.93.31-.87-7.85-8.52-.77.46zM447.46 61.37l8.32 8.94.31-.87-7.85-8.52-.78.45zM460.2 54.2l8.09 8.69a3 3 0 0 1 .38-.24l.14-.38-7.81-8.53Z"/><path class="cls-33" d="m360.21 66.89 10.71 1.36 74.4-42.54-12.15-1.6-72.96 42.78z"/><path class="cls-30" d="m360.21 66.89 10.71 1.36 74.4-42.54-12.15-1.6Zm82.62-40.69-72.09 41.21-8.06-1L433.35 25Z"/><path class="cls-30" d="m374.24 59.79-.56-.03-1.72.55 10.52 1.34-.18-.84-8.06-1.02zM387.49 52.19l-.55-.03-1.72.55 10.52 1.34-.18-.83-8.07-1.03zM398.88 44.89l-1.71.56 10.51 1.34 1.32-.65-9.56-1.21-.56-.04zM412.14 37.3l-1.72.55 10.52 1.34 1.56-.61-9.8-1.25-.56-.03zM423.52 30.31l-1.72.55 10.52 1.34 1.56-.62-9.81-1.24-.55-.03z"/><path class="cls-33" d="m341.61 64.58 10.7 1.37 74.41-42.54-12.16-1.6-72.95 42.77z"/><path class="cls-30" d="M341.6 64.59 352.31 66l74.41-42.54-12.16-1.6Zm82.63-40.69-72.09 41.21-8.07-1 70.67-41.43Z"/><path class="cls-30" d="m355.63 57.49-.56-.04-1.72.56 10.52 1.34-.17-.84-8.07-1.02zM368.88 49.89l-.55-.03-1.72.55 10.52 1.34-.18-.83-8.07-1.03zM380.28 42.59l-1.72.56 10.52 1.34 1.32-.65-9.57-1.21-.55-.04zM393.53 35l-1.71.55 10.51 1.34 1.56-.62-9.8-1.24-.56-.03zM404.91 28l-1.72.56 10.52 1.34 1.56-.62-9.8-1.24-.56-.04z"/><path style="fill:#00b527" d="M320.3 67.07v1.45l51.28 6.66L419 125.62v-2.01l-47.42-50.02-51.28-6.52z"/><path style="fill:#006815" d="m419 125.62 87.07-51.1v-1.34L419 123.61v2.01z"/><path class="cls-24" d="m350.86 112.46 15.09-.9-.03-7.71-15.06 8.61z"/><path d="m616.24 336.47-31.69.64v1.65c.63 7.52 11.93 8.87 11.93 8.87a25.37 25.37 0 0 0 13.43-1.55c6.62-2.87 6.33-7.32 6.33-7.32Z" style="fill:url(#Безымянный_градиент_15)"/><ellipse class="cls-37" cx="600.4" cy="337.11" rx="15.85" ry="9.15"/><path d="M614.79 300.58H586v36.57c.58 6.83 10.84 8.05 10.84 8.05a23 23 0 0 0 12.16-1.41c6-2.6 5.76-6.64 5.76-6.64Z" style="fill:url(#Безымянный_градиент_15-2)"/><path class="cls-39" d="M610.57 294.7c-5.62-3.24-14.73-3.24-20.35 0s-5.62 8.51 0 11.76 14.73 3.24 20.35 0 5.62-8.46 0-11.76Z"/><path class="cls-40" d="M608.31 307.65v36.73l.3-.17v-36.74l-.3.18zM610.87 306.17v36.73l.31-.17-.01-36.74-.3.18z"/><path class="cls-40" d="m608.46 310.38 2.56-1.48v-.65l-2.56 1.48v.65zM608.46 313.9l2.56-1.48v-.66l-2.56 1.48v.66zM608.46 317.42l2.56-1.48v-.66l-2.56 1.48v.66zM608.46 320.93l2.56-1.48v-.65l-2.56 1.47v.66zM608.46 323.79v.66l2.56-1.48v-.66l-2.56 1.48zM608.46 327.96l2.56-1.48v-.65l-2.56 1.48v.65zM608.46 331.48l2.56-1.48v-.66l-2.56 1.48v.66zM608.46 334.99l2.56-1.48v-.65l-2.56 1.48v.65zM608.46 338.51l2.56-1.48v-.66l-2.56 1.48v.66zM608.46 342.02l2.56-1.48v-.65l-2.56 1.48v.65z"/><path d="m651.39 315.44-31.69.64v1.64c.63 7.52 11.93 8.87 11.93 8.87a25.37 25.37 0 0 0 13.43-1.59c6.62-2.87 6.33-7.32 6.33-7.32Z" style="fill:url(#Безымянный_градиент_15-3)"/><path class="cls-37" d="M646.75 309.61c-6.19-3.58-16.22-3.58-22.41 0s-6.19 9.36 0 12.94 16.22 3.57 22.41 0 6.19-9.37 0-12.94Z"/><path d="M649.94 279.54h-28.79v36.57c.58 6.83 10.84 8.05 10.84 8.05a23 23 0 0 0 12.19-1.4c6-2.61 5.76-6.65 5.76-6.65Z" style="fill:url(#Безымянный_градиент_15-4)"/><path class="cls-39" d="M645.72 273.67c-5.62-3.25-14.73-3.25-20.35 0s-5.62 8.5 0 11.75 14.73 3.25 20.35 0 5.62-8.51 0-11.75Z"/><path class="cls-40" d="M643.46 286.61v36.74l.3-.18v-36.73l-.3.17zM646.02 285.13v36.74l.31-.18v-36.73l-.31.17z"/><path class="cls-40" d="m643.61 289.35 2.56-1.48v-.66l-2.56 1.48v.66zM643.61 292.86l2.56-1.48v-.65l-2.56 1.48v.65zM643.61 296.38l2.56-1.48v-.66l-2.56 1.49v.65zM643.61 299.9l2.56-1.48v-.66l-2.56 1.48v.66zM643.61 303.41l2.56-1.48v-.66l-2.56 1.48v.66zM643.61 306.93l2.56-1.48v-.66l-2.56 1.48v.66zM643.61 310.44l2.56-1.48v-.65l-2.56 1.48v.65zM643.61 313.96l2.56-1.48v-.66l-2.56 1.48v.66zM643.61 317.47l2.56-1.48v-.65l-2.56 1.48v.65zM643.61 320.99l2.56-1.48v-.66l-2.56 1.48v.66z"/><path d="m688.92 293.26-31.69.64v1.65c.62 7.52 11.93 8.86 11.93 8.86a25.27 25.27 0 0 0 13.42-1.54c6.62-2.87 6.34-7.32 6.34-7.32Z" style="fill:url(#Безымянный_градиент_15-5)"/><ellipse class="cls-37" cx="673.07" cy="293.9" rx="15.85" ry="9.15"/><path d="M687.46 257.37h-28.78v36.56c.57 6.83 10.84 8.06 10.84 8.06a23 23 0 0 0 12.19-1.41c6-2.6 5.75-6.65 5.75-6.65Z" style="fill:url(#Безымянный_градиент_15-6)"/><path class="cls-39" d="M683.25 251.49c-5.62-3.24-14.73-3.24-20.35 0s-5.62 8.51 0 11.76 14.73 3.24 20.35 0 5.62-8.51 0-11.76Z"/><path class="cls-40" d="M680.99 264.44v36.73l.3-.17v-36.74l-.3.18zM683.55 262.95v36.74l.3-.17v-36.74l-.3.17z"/><path class="cls-40" d="m681.14 267.17 2.56-1.48v-.65l-2.56 1.48v.65zM681.14 270.69l2.56-1.48v-.66l-2.56 1.48v.66zM681.14 274.2l2.56-1.47v-.66l-2.56 1.48v.65zM681.14 277.72l2.56-1.48v-.66l-2.56 1.48v.66zM681.14 281.24l2.56-1.48v-.66l-2.56 1.48v.66zM681.14 284.75l2.56-1.48v-.65l-2.56 1.48v.65zM681.14 288.27l2.56-1.48v-.66l-2.56 1.48v.66zM681.14 291.78l2.56-1.48v-.65l-2.56 1.48v.65zM681.14 295.3l2.56-1.48v-.66l-2.56 1.48v.66zM681.14 298.81l2.56-1.48v-.65l-2.56 1.48v.65z"/><path d="m724.07 272.23-31.7.64v1.64c.63 7.52 11.94 8.87 11.94 8.87a25.34 25.34 0 0 0 13.42-1.55c6.62-2.87 6.34-7.32 6.34-7.32Z" style="fill:url(#Безымянный_градиент_15-7)"/><path class="cls-37" d="M719.43 266.4c-6.19-3.58-16.23-3.58-22.41 0s-6.19 9.36 0 12.93 16.22 3.58 22.41 0 6.19-9.33 0-12.93Z"/><path d="M722.61 236.33h-28.78v36.57c.57 6.83 10.84 8.05 10.84 8.05a23 23 0 0 0 12.19-1.4c6-2.61 5.75-6.65 5.75-6.65Z" style="fill:url(#Безымянный_градиент_15-8)"/><path class="cls-39" d="M718.4 230.46c-5.62-3.25-14.73-3.25-20.35 0s-5.62 8.5 0 11.75 14.73 3.24 20.35 0 5.6-8.51 0-11.75Z"/><path class="cls-40" d="M716.14 243.4v36.74l.3-.18v-36.73l-.3.17zM718.7 278.66l.3-.18v-36.73l-.3.17v36.74z"/><path class="cls-40" d="m716.29 246.14 2.56-1.48V244l-2.56 1.48v.66zM716.29 249.65l2.56-1.48v-.65l-2.56 1.48v.65zM716.29 253.17l2.56-1.48v-.66l-2.56 1.48v.66zM716.29 256.69l2.56-1.48v-.66l-2.56 1.48v.66zM716.29 260.2l2.56-1.48v-.66l-2.56 1.48v.66zM716.29 263.71l2.56-1.47v-.66l-2.56 1.48v.65zM716.29 267.23l2.56-1.48v-.65l-2.56 1.47v.66zM716.29 270.75l2.56-1.48v-.66l-2.56 1.48v.66zM716.29 274.26l2.56-1.48v-.65l-2.56 1.48v.65zM716.29 277.78l2.56-1.48v-.66l-2.56 1.48v.66z"/><path class="cls-21" d="m717.49 232.66-3.31-1.95-122.93 70.97 3.31 1.96 3.36-1.94 9.06 5.23 3.34-1.94-9.06-5.23 32.66-18.88 8.57 4.95 3.35-1.93-8.6-4.97 34.69-19.99 8.09 4.67 3.35-1.94-8.1-4.67 32.42-18.67 7.43 4.27 3.35-1.93-7.47-4.23 6.49-3.78z"/><path style="fill:#755f6b" d="m717.47 231.68-3.31-1.96-122.93 70.97 3.31 1.96 3.36-1.94 9.06 5.23 3.34-1.93-9.05-5.23 32.65-18.89 8.57 4.96 3.35-1.94-8.6-4.96 34.7-19.99 8.08 4.66 3.35-1.93-8.09-4.68 32.41-18.67 7.43 4.27 3.35-1.93-7.47-4.23 6.49-3.77z"/><path class="cls-37" d="m717.47 231.67-3.31-1.95-122.93 71 3.31 1.95 3.36-1.94 9.06 5.23 3.35-1.93-9.06-5.23 32.65-18.89 8.57 4.95 3.35-1.93-8.6-5 34.7-20 8.08 4.66 3.35-1.93-8.09-4.66 32.41-18.67 7.43 4.27 3.35-1.93-7.45-4.22Zm-.34 8-2 1.17-7.1-4.09-.33-.19-.33.19-32.41 18.67-1 .57 1 .57 7.11 4.11-2 1.17-7.76-4.47-.32-.19-.33.19-34.7 20-1 .57 1 .56 7.62 4.4-2 1.18-8.24-4.76-.33-.2-.33.2-32.65 18.88-1 .57 1 .57L609 304l-2 1.17-8.73-5-.33-.19-.33.19-3 1.75-2-1.19 121.62-70.22 2 1.19-5.52 3.22-1 .57 1 .56Z"/><path class="cls-21" d="m591.25 301.68.94.56v-.98l-.96-.57.02.99z"/><path class="cls-23" d="m594.54 302.65.02.99 3.36-1.94-.02-.99-3.36 1.94zM606.96 305.94l.02.99 3.34-1.94-.02-.98-3.34 1.93zM601.25 298.78l.85.49 31.82-18.39-.02-.99-32.65 18.89zM642.47 284.85l.02.98 3.35-1.93-.02-.99-3.35 1.94zM637.22 277.95l.88.5 33.83-19.51-.01-.98-34.7 19.99zM680 262.62l.02.99 3.35-1.94-.02-.98-3.35 1.93zM675.26 256.01l.86.5 31.57-18.18-.02-.99-32.41 18.67zM710.98 235.45l.87.49 5.64-3.28-.02-.98-6.49 3.77zM715.1 241.61l.02.99 3.35-1.93-.02-.99-3.35 1.93z"/><path d="M575.28 125.89a121.27 121.27 0 0 1 2.47-19.52h-28.66s3 11.42 2.23 19.79-6.34 25.28-6.18 27.63c0 0-1.67 11.14 18.28 11.57s18.28-11.57 18.28-11.57-6.7-18.5-6.42-27.9Z" style="fill:url(#Безымянный_градиент_15-9)"/><path class="cls-24" d="M574.06 97.64c-5.88-3.4-15.4-3.4-21.28 0s-5.87 8.89 0 12.28 15.4 3.39 21.28 0 5.88-8.92 0-12.28Z"/><path d="M600.79 140.8a121.27 121.27 0 0 1 2.47-19.52h-28.65s3 11.42 2.22 19.79-6.34 25.28-6.17 27.63c0 0-1.67 11.14 18.28 11.57s18.28-11.57 18.28-11.57-6.67-18.5-6.43-27.9Z" style="fill:url(#Безымянный_градиент_15-10)"/><path class="cls-24" d="M599.58 112.55c-5.88-3.4-15.41-3.4-21.28 0s-5.88 8.89 0 12.28 15.4 3.39 21.28 0 5.87-8.89 0-12.28Z"/><path class="cls-21" d="m524.95 168.37 47.72 27.55v-30.95l-47.72-27.55v30.95z"/><path class="cls-23" d="M572.67 164.97v30.95l18.68-10.79v-30.94l-18.68 10.78z"/><path class="cls-37" d="m524.95 137.42 47.72 27.55 18.68-10.78-47.72-27.54-18.68 10.77z"/><path class="cls-21" d="m543.68 128.97 44.23 25.82 1.42-.84-45.65-26.34v1.36z"/><path class="cls-23" d="m527.69 138.04 15.99-9.07v-1.36l-17.09 9.85 1.1.58z"/><path class="cls-50" d="m527.94 156.32 7.58 4.37V146.3l-7.58-4.37v14.39z"/><path class="cls-29" d="m528.15 143.47 6.54 16.4.51.29-6.58-17.44-.47.75zM529.76 143.38l4.87 10.08-4.39-9.81-.48-.27zM532.53 158.62l.34-.07-3.44-7.13 3.1 7.2z"/><path class="cls-30" d="m527.94 156.32 7.58 4.37V146.3l-7.58-4.37Zm.68-13.22 6.22 3.59v12.83l-6.22-3.59Z"/><path class="cls-50" d="m539.13 162.42 7.57 4.38.01-14.39-7.58-4.38v14.39z"/><path class="cls-29" d="m539.33 149.58 6.55 16.39.5.29-6.58-17.44-.47.76zM540.95 149.48l4.86 10.08-4.39-9.8-.47-.28zM543.72 164.72l.33-.06-3.44-7.13 3.11 7.19z"/><path class="cls-30" d="m539.13 162.42 7.57 4.38v-14.39l-7.57-4.41Zm.67-13.22 6.23 3.6v12.83L539.8 162Z"/><path class="cls-50" d="m550.31 169.08 7.58 4.37v-14.39l-7.58-4.37v14.39z"/><path class="cls-29" d="m550.51 156.23 6.55 16.4.51.29-6.58-17.44-.48.75zM552.13 156.14l4.86 10.08-4.38-9.81-.48-.27zM554.9 171.38l.34-.07-3.44-7.13 3.1 7.2z"/><path class="cls-30" d="m550.31 169.08 7.58 4.37v-14.39l-7.58-4.37Zm.68-13.22 6.22 3.59v12.83l-6.21-3.59Z"/><path class="cls-50" d="m561.5 175.47 7.57 4.37v-14.39l-7.57-4.37v14.39z"/><path class="cls-29" d="m561.7 162.62 6.55 16.39.5.3-6.58-17.44-.47.75zM563.32 162.53l4.86 10.08-4.39-9.81-.47-.27zM566.09 177.77l.33-.07-3.44-7.13 3.11 7.2z"/><path class="cls-30" d="m561.5 175.47 7.57 4.37v-14.39l-7.57-4.37Zm.67-13.22 6.23 3.59v12.83l-6.23-3.59Z"/><path class="cls-50" d="m583.67 173.89 6.98-4.02v-13.25l-6.98 4.02v13.25z"/><path class="cls-29" d="m583.97 173.4.46-.27 6.03-15.09-.44-.7-6.05 16.06zM584.49 167.23l4.48-9.28-.44.25-4.04 9.03zM586.42 171.99l2.86-6.63-3.17 6.56.31.07z"/><path class="cls-30" d="m583.67 173.89 7-4v-13.28l-7 4Zm.62-12.89 5.73-3.31v11.82l-5.73 3.31Z"/><path class="cls-50" d="m573.37 179.51 6.98-4.02v-13.25l-6.98 4.02v13.25z"/><path class="cls-29" d="m573.66 179.03.47-.27 6.03-15.1-.44-.7-6.06 16.07zM574.19 172.86l4.48-9.29-.44.25-4.04 9.04zM576.12 177.61l2.86-6.63-3.17 6.57.31.06z"/><path class="cls-30" d="m573.37 179.52 7-4v-13.28l-7 4Zm.62-12.9 5.73-3.31v11.82l-5.72 3.31Z"/><path class="cls-21" d="m531.49 138.62 12.2 7.04 12.2-7.04-12.2-7.05-12.2 7.05z"/><path class="cls-21" d="m530.58 138.62 13.11 7.56 13.11-7.56-13.11-7.57Zm13.11 6.52-11.29-6.52 11.29-6.52 11.31 6.52Z"/><path class="cls-21" d="m532.69 139.04.81.47 11.97-6.92-.81-.47-11.97 6.92zM534.09 139.99l.81.47 11.98-6.92-.81-.46-11.98 6.91zM535.91 140.83l.81.47 11.98-6.92-.81-.47-11.98 6.92zM537.32 141.78l.81.47 11.97-6.91-.81-.47-11.97 6.91zM538.81 142.68l.82.47 11.97-6.91-.81-.47-11.98 6.91zM540.22 143.63l.81.47 11.97-6.91-.81-.47-11.97 6.91zM542.04 144.47l.81.47 11.97-6.91-.81-.47-11.97 6.91z"/><path class="cls-29" d="m531.47 137.46 12.2 7.04 12.2-7.04-12.2-7.05-12.2 7.05z"/><path class="cls-30" d="m530.56 137.46 13.11 7.54 13.11-7.56-13.11-7.57Zm13.11 6.54-11.29-6.52 11.29-6.52 11.33 6.5Z"/><path class="cls-30" d="m532.67 137.88.81.46 11.97-6.91-.81-.47-11.97 6.92zM534.07 138.83l.81.47 11.98-6.92-.81-.47-11.98 6.92zM535.89 139.67l.81.47 11.98-6.92-.81-.47-11.98 6.92zM537.3 140.62l.81.47 11.97-6.91-.81-.47-11.97 6.91zM538.79 141.52l.81.47 11.98-6.92-.81-.47-11.98 6.92zM540.2 142.47l.81.47 11.97-6.91-.81-.47-11.97 6.91zM542.02 143.31l.81.47 11.97-6.91-.81-.47-11.97 6.91z"/><path class="cls-21" d="m530.58 138.62 2.36 1.36.17-1.05-2.55-1.47.02 1.16z"/><path class="cls-23" d="m543.67 145.02.02 1.16 13.11-7.56-.02-1.16-13.11 7.56z"/><path class="cls-21" d="m545.96 147.29 12.2 7.04 12.2-7.04-12.2-7.05-12.2 7.05z"/><path class="cls-21" d="m545.05 147.29 13.11 7.56 13.1-7.56-13.1-7.57Zm13.11 6.52-11.3-6.52 11.3-6.52 11.29 6.52Z"/><path class="cls-21" d="m547.16 147.71.81.47 11.97-6.92-.81-.47-11.97 6.92zM548.56 148.66l.81.47 11.98-6.91-.81-.47-11.98 6.91zM550.38 149.5l.81.47 11.98-6.92-.81-.46-11.98 6.91zM551.78 150.45l.82.47 11.97-6.91-.81-.47-11.98 6.91zM553.28 151.35l.81.47 11.98-6.91-.81-.47-11.98 6.91zM554.69 152.3l.81.47 11.97-6.91-.81-.47-11.97 6.91zM556.51 153.14l.81.47 11.97-6.91-.81-.47-11.97 6.91z"/><path class="cls-29" d="m545.94 146.13 12.2 7.04 12.2-7.04-12.2-7.05-12.2 7.05z"/><path class="cls-30" d="m545 146.13 13.11 7.56 13.1-7.56-13.1-7.57Zm13.11 6.52-11.3-6.52 11.3-6.52 11.29 6.52Z"/><path class="cls-30" d="m547.13 146.55.82.47 11.97-6.92-.81-.47-11.98 6.92zM548.54 147.5l.81.47 11.98-6.92-.82-.46-11.97 6.91zM550.36 148.34l.81.47 11.97-6.92-.81-.46-11.97 6.91zM551.76 149.29l.82.47 11.97-6.92-.81-.46-11.98 6.91zM553.26 150.19l.81.47 11.98-6.92-.81-.46-11.98 6.91zM554.67 151.14l.81.47 11.97-6.91-.81-.47-11.97 6.91zM556.49 151.98l.81.47 11.97-6.92-.81-.46-11.97 6.91z"/><path class="cls-21" d="m545.05 147.29 2.36 1.36.17-1.05-2.55-1.47.02 1.16z"/><path class="cls-23" d="m558.14 153.69.02 1.16 13.1-7.56-.02-1.16-13.1 7.56z"/><path class="cls-21" d="m560.48 155.6 12.2 7.04 12.2-7.04-12.2-7.04-12.2 7.04z"/><path class="cls-21" d="m559.57 155.6 13.11 7.57 13.1-7.57-13.1-7.6Zm13.11 6.52-11.3-6.52 11.3-6.52L584 155.6Z"/><path class="cls-21" d="m561.67 156.02.82.47 11.97-6.91-.81-.47-11.98 6.91zM563.08 156.97l.81.47 11.98-6.91-.82-.47-11.97 6.91zM564.9 157.81l.81.47 11.97-6.91-.81-.47-11.97 6.91zM566.3 158.76l.82.47 11.97-6.91-.81-.47-11.98 6.91zM567.8 159.66l.81.47 11.98-6.91-.82-.47-11.97 6.91zM569.21 160.62l.81.46 11.97-6.91-.81-.47-11.97 6.92zM571.02 161.46l.82.46 11.97-6.91-.81-.47-11.98 6.92z"/><path class="cls-29" d="m560.46 154.44 12.19 7.04 12.21-7.04-12.21-7.04-12.19 7.04z"/><path class="cls-30" d="m559.55 154.44 13.11 7.56 13.1-7.57-13.1-7.57Zm13.11 6.56-11.3-6.52 11.3-6.52 11.34 6.48Z"/><path class="cls-30" d="m561.65 154.86.82.47 11.97-6.91-.81-.47-11.98 6.91zM563.06 155.81l.81.47 11.98-6.91-.82-.47-11.97 6.91zM564.88 156.65l.81.47 11.97-6.91-.81-.47-11.97 6.91zM566.28 157.6l.82.47 11.97-6.91-.81-.47-11.98 6.91zM567.78 158.5l.81.47 11.98-6.91-.82-.47-11.97 6.91zM569.18 159.46l.82.46 11.97-6.91-.81-.47-11.98 6.92zM571 160.29l.82.47 11.97-6.91-.81-.47-11.98 6.91z"/><path class="cls-21" d="m559.57 155.6 2.36 1.36.17-1.05-2.55-1.47.02 1.16z"/><path class="cls-23" d="m572.65 162.01.03 1.16 13.1-7.57-.02-1.16-13.11 7.57z"/><g style="clip-path:url(#clip-path)"><path class="cls-24" d="M574.06 97.64c-5.88-3.4-15.4-3.4-21.28 0s-5.87 8.89 0 12.28 15.4 3.39 21.28 0 5.88-8.92 0-12.28Z"/><path class="cls-52" d="M572.68 101.24c-5-2.87-13-2.87-18 0s-5 7.51 0 10.37 13 2.87 18 0 4.96-7.51 0-10.37Z"/><ellipse class="cls-53" cx="563.42" cy="107.99" rx="11.07" ry="6.39"/></g><g style="clip-path:url(#clip-path-2)"><path class="cls-24" d="M599.58 112.55c-5.88-3.4-15.41-3.4-21.28 0s-5.88 8.89 0 12.28 15.4 3.39 21.28 0 5.87-8.89 0-12.28Z"/><path class="cls-52" d="M598.19 116.15c-5-2.87-13-2.87-18 0s-5 7.51 0 10.37 13 2.87 18 0 4.96-7.52 0-10.37Z"/><ellipse class="cls-53" cx="588.94" cy="122.9" rx="11.07" ry="6.39"/></g></g><g id="люди"><path class="cls-55" d="M439.56 213.85a79.85 79.85 0 0 0-9.12 10.15l-11 5.4v8.28l.05.15L443.12 226a7.07 7.07 0 0 1-.57-2.94c0-4.58 3.27-9.9 7.31-11.88a6.43 6.43 0 0 1 3-.73v-4a41.45 41.45 0 0 0-13.3 7.4Z"/><path class="cls-56" d="M440.68 214.81a73.67 73.67 0 0 0-8.73 10l-11.38 5.57v8.27l.05.16 23.62-11.87a7.07 7.07 0 0 1-.57-2.94 14.43 14.43 0 0 1 7.33-11.92 6.56 6.56 0 0 1 3-.73v-4a41.69 41.69 0 0 0-13.32 7.46Z"/><path class="cls-57" d="m450.64 208.72-1.66-.8v-45.76l3.32-2.64-1.66 49.2z"/><path class="cls-56" d="m453.96 208.62-3.32 1.63v-48.09l3.32-2.64v49.1z"/><path class="cls-55" d="m452.2 157.1-18.29 8.9c-5.64 2.76-10.48 9.66-11.56 16.46l-3.54 47.08 1.77 1.17 1.62-2.88 3.12-44.41c.95-5.95 5.18-12 10.11-14.4l16.77-8.14Z"/><path class="cls-55" d="m453.96 158.24-1.76-1.14-2.33 1.14 2.22 1.67 1.87-1.67z"/><path class="cls-56" d="m454 158.24-18.29 8.88c-5.63 2.77-10.47 9.67-11.55 16.46l-3.54 46.77v.6l3.4-2 3.12-44.41c.94-5.94 5.18-12 10.11-14.4L454 162Z"/><path class="cls-57" d="M423.37 238.26a11.59 11.59 0 0 1-5.88 9.56c-3.25 1.59-5.88-.1-5.88-3.78a11.58 11.58 0 0 1 5.88-9.55c3.25-1.6 5.88.09 5.88 3.77Z"/><path class="cls-57" d="m418.1 250.19-4.26-2.04 7.6-13.87 4.07 1.93-7.41 13.98z"/><path class="cls-58" d="M427.79 240.36a11.59 11.59 0 0 1-5.88 9.55c-3.25 1.59-5.88-.1-5.88-3.78a11.58 11.58 0 0 1 5.88-9.55c3.25-1.58 5.88.1 5.88 3.78Z"/><path class="cls-11" d="M426.51 241.1a9.08 9.08 0 0 1-4.6 7.48c-2.54 1.24-4.6-.08-4.6-3a9.05 9.05 0 0 1 4.6-7.47c2.54-1.21 4.6.11 4.6 2.99Z"/><path class="cls-57" d="M425.38 241.66a6.84 6.84 0 0 1-3.47 5.64c-1.92.94-3.47-.06-3.47-2.23a6.82 6.82 0 0 1 3.47-5.64c1.92-.95 3.47.05 3.47 2.23Z"/><path class="cls-11" d="M423.23 242.71a2.61 2.61 0 0 1-1.32 2.15c-.73.36-1.32 0-1.32-.85a2.61 2.61 0 0 1 1.32-2.15c.73-.36 1.32.02 1.32.85Z"/><path class="cls-59" d="M484.78 224.36 454 209.26a39.77 39.77 0 0 0-11.87 6.87 79.85 79.85 0 0 0-9.13 10.14l-8.74 4.3V239l14.23-7.15 26.29 13.71Z"/><path class="cls-60" d="m451.8 188.53 2.16-1.18 2.4 1.18-2.76 2.06-1.8-2.06z"/><path class="cls-60" d="m487.07 203.6-33.11-16.25v21.49l33.11 16.24V203.6z"/><path class="cls-57" d="m477.08 178.46-32.45-15.74v1.32l32.45 16v-1.58z"/><path class="cls-61" d="m477.51 228.12 5.61-2.76-31.33-15.4-5.25 2.92 30.97 15.24z"/><path class="cls-58" d="m484.91 204.78-33.11-16.25v21.49l33.11 16.24v-21.48z"/><path class="cls-57" d="M486.58 232.05a11.59 11.59 0 0 1-5.88 9.55c-3.24 1.59-5.88-.1-5.88-3.78a11.6 11.6 0 0 1 5.88-9.55c3.3-1.6 5.88.09 5.88 3.78Z"/><path class="cls-57" d="m481.31 243.97-4.26-2.04 7.6-13.87 4.07 1.93-7.41 13.98z"/><path class="cls-58" d="M491 234.14a11.58 11.58 0 0 1-5.88 9.55c-3.24 1.59-5.88-.1-5.88-3.78a11.6 11.6 0 0 1 5.88-9.55c3.25-1.59 5.88.1 5.88 3.78Z"/><path class="cls-11" d="M489.72 234.88a9.08 9.08 0 0 1-4.6 7.48c-2.54 1.24-4.6-.08-4.6-3a9.05 9.05 0 0 1 4.6-7.47c2.54-1.21 4.6.11 4.6 2.99Z"/><path class="cls-57" d="M488.59 235.44a6.84 6.84 0 0 1-3.47 5.64c-1.91.94-3.47-.06-3.47-2.23a6.85 6.85 0 0 1 3.47-5.64c1.88-.94 3.47.06 3.47 2.23Z"/><path class="cls-11" d="M486.44 236.49a2.61 2.61 0 0 1-1.32 2.15c-.73.36-1.32 0-1.32-.85a2.61 2.61 0 0 1 1.32-2.15.85.85 0 0 1 1.32.85Z"/><path class="cls-55" d="M418.81 229.37v8.43l35.91 17.62V247l-35.91-17.63zM473.71 230.5c-3.33 2.88-7.42 8.24-8.94 10.27L453.6 246v8.43l23.62-11.87a7.07 7.07 0 0 1-.57-2.94c0-4.58 3.27-9.9 7.31-11.88a6.61 6.61 0 0 1 3-.74v-4a41.55 41.55 0 0 0-13.25 7.5Z"/><path class="cls-56" d="M474.82 231.46a73.67 73.67 0 0 0-8.73 10L454.72 247v8.42l23.62-11.86a7.07 7.07 0 0 1-.57-2.94 14.43 14.43 0 0 1 7.31-11.89 6.59 6.59 0 0 1 3-.73v-4a41.69 41.69 0 0 0-13.26 7.46Z"/><path class="cls-57" d="M455.88 226.58a31.85 31.85 0 0 1-5.78-1.92 21 21 0 0 1-5.2-3.47c-.65-.67-1.56-2.42.5-3.43l6.81-3.34c2-1.2 5.16-1.43 7-.25 1.42.92 4.26 3 5.69 3.7s4 1.21 5.29 1.69c1.68.63 1.56 2.42-.51 3.43l-6.81 3.35c-2.06 1.01-5.3.66-6.99.24Z"/><path class="cls-57" d="M450.12 217.88s-5.15-2.2-5.53-1a8.54 8.54 0 0 0-.46 2.52l6 .3ZM470.81 218c-.84-1-5.84 1.2-5.84 1.2v2.11l6.38-.42a4 4 0 0 0-.54-2.89Z"/><path class="cls-62" d="M455.94 223.87a30.46 30.46 0 0 1-5.58-1.86 24.21 24.21 0 0 1-5-3.35c-.62-.64-1.51-2.34.48-3.31l6.59-3.24c1.91-1.15 5-1.38 6.76-.24 1.38.9 4.12 2.91 5.5 3.58s3.86 1.17 5.11 1.63c1.63.61 1.51 2.34-.49 3.32l-6.58 3.23c-2.02.98-5.15.6-6.79.24Z"/><path class="cls-57" d="M474.11 214.78v-9.91a11 11 0 0 0-5.56-9l-2.9-1.43c-3.06-1.5-5.56.11-5.56 3.58v9.9Z"/><path class="cls-63" d="m461.95 194.2-2.37 1.21 2.12 1.19.25-2.4z"/><path class="cls-57" d="m471.8 215.95 2.31-1.17-2.74-2.29.43 3.46z"/><path class="cls-62" d="M471.8 216v-10a11 11 0 0 0-5.57-9l-2.9-1.43c-3.06-1.5-5.56.11-5.56 3.58v9.9Z"/><path class="cls-57" d="m454.72 247.02 11.37-5.59-35.65-17.44-11.41 5.54 35.69 17.49z"/><path class="cls-17" d="M455.2 189.52s-1.68-.07-3.42 2.7-3.39 5.73-3.39 5.73a11.82 11.82 0 0 1 5.27 2.46c3.77-2.89 4.34-9.54 1.54-10.89Z"/><path d="M455.2 189.52a20.31 20.31 0 0 0-1.81 4.37c-.87 2.83-.56 16-.56 16a17.48 17.48 0 0 0 9.59 1.73 8.65 8.65 0 0 0 5.39-2.13s2.13-12.88 1.84-14.73-4.83-6.18-4.83-6.18-6-.27-9.62.94Z" style="fill:#97a9dd"/><path d="m459.31 187.72-.7 3.46s2.07 2 4.1.5 2.31-2.16 2.31-2.16l-1-4.71Z" style="fill:#ffad97"/><path class="cls-66" d="M462.17 179.63c-1.73-1.13-5.83-1.48-7.32 2.11-1.57 3.78 2.44 8.49 4.58 7.69 1.2-.45 3.72-2 4.43-4a5.37 5.37 0 0 0-1.69-5.8Z"/><path class="cls-14" d="M454.49 182.94a4.38 4.38 0 0 0 3.9 1 9.5 9.5 0 0 0 3-.95s1.35.77 1.86 1 .6 1.39.6 1.39a3.78 3.78 0 0 0 .55-3.48c-.36-1.41-2-4.39-5.1-4.14s-4.92 2-5.31 3.51a1.68 1.68 0 0 0 .5 1.67Z"/><path class="cls-15" d="M459.48 197.34s2.64-3.38 4.73-4.32a14.44 14.44 0 0 1 3.68-1.16s-.93-1.3-1.44-1.46a12.29 12.29 0 0 0-3.63 1.15 13.3 13.3 0 0 0-4.76 4.07c-1.66 2.49.21 3.16 1.42 1.72ZM455 189.54a19.74 19.74 0 0 0-1.65 4.6c-.21 1.68.18 2.19 1 2.25s.83-1.14 1.07-2.47 1.47-4.82 1.47-4.82Z"/><path class="cls-14" d="M435.52 235.2c-1.27 1.05-1.67 1.35-2.85 2.33-.68.57-.12 1.1 1.19 1.05a26.25 26.25 0 0 0 5.23-1 27.69 27.69 0 0 0 3.91-1.73 2.25 2.25 0 0 0 1.16-1.25v-1.76l-6.24.23s-1.03.99-2.4 2.13ZM447.88 239.87c-1.27 1-1.66 1.35-2.84 2.33-.69.57-.12 1.1 1.19 1.05a26.25 26.25 0 0 0 5.23-1 27.69 27.69 0 0 0 3.91-1.73 2.25 2.25 0 0 0 1.16-1.25v-3.1l-6.25 1.57s-1.02.99-2.4 2.13Z"/><path class="cls-15" d="M468.19 208.8s-11.35 2.86-17.66.84c-2.19 1.13-8.24 4.15-10.18 5.31-1.19.72-1.73 2.27-2.19 5.75-.77 5.76-1.33 12.33-1.33 12.33a5.81 5.81 0 0 0 4.41 1.59 13.41 13.41 0 0 0 4.1-.63l.48-13.24 10.22-5s-5.8 3.05-6.63 5.76a23.23 23.23 0 0 0-1 6.56c-.21 5.85-.29 9.68-.29 9.68s.46 1.94 3.52 1.93a7.53 7.53 0 0 0 4.28-1.64l.62-13.4s8-4.61 10.3-6.88c2.59-2.55 1.35-8.96 1.35-8.96Z"/><path class="cls-15" d="M468.15 207.34s-2.62 1.54-4.52 1.36c-1.68-.15-4.08-1.53-4-6a36.68 36.68 0 0 1 .62-6.57l-6.39-2.39s-1.74 3.42-2.08 10.12-.49 9-.49 9a103.66 103.66 0 0 0 10.86 0 24.67 24.67 0 0 0 6.27-1.24Z"/><path class="cls-11" d="M454.6 194.94a.41.41 0 1 1-.81 0 .41.41 0 1 1 .81 0ZM458.43 196.46c-.19.23-.19.5 0 .61a.57.57 0 0 0 .67-.2c.19-.23.2-.5 0-.61a.57.57 0 0 0-.67.2Z"/><path class="cls-16" d="M453.35 197.12c-.26 1.12-.13 4.66 2.23 5.19 2.14.49 2.69-1.66 3.18-3.31a23.82 23.82 0 0 1-5.41-1.88Z"/><path class="cls-66" d="M461.82 201.44a23.33 23.33 0 0 1-2.22 3.76c-.66.79-4.59 3.06-6.13 4.09a5.51 5.51 0 0 1 1.89 2 40.53 40.53 0 0 0 6.53-2.94c1.55-.93 4.48-4.56 4.48-4.56a4.26 4.26 0 0 0-4.55-2.35Z"/><path class="cls-17" d="M468.88 193.16c-1.28-.87-4 2.08-5.45 3.93a23.58 23.58 0 0 0-2.61 4.61s1.75 1.07 3.31 1.91a26.16 26.16 0 0 0 2.69 1.23s6.43-8.69 2.06-11.68Z"/><path class="cls-59" d="M462.71 179.85c2.51.85 3.06 2.54 1.22 3.78s-5.36 1.55-7.88.7-3.06-2.54-1.23-3.78 5.37-1.55 7.89-.7Z"/><path class="cls-59" d="M453.76 182.39s-1.07-5.49 4.53-6.19c6.52-.82 6.72 5.69 6.72 5.69Z"/><path class="cls-63" d="M453.68 181.58s-2.72 2.16.57 3.37c5.59 2.05 10.16-1.71 10.16-1.71s-5.93 1.2-9 .08c-1.99-.77-1.73-1.74-1.73-1.74Z"/><path class="cls-63" d="M459.13 176.52a3.49 3.49 0 0 0-1.72 1.95 1.86 1.86 0 0 0 1.11 2.6 6.89 6.89 0 0 1 2 1.61 2.05 2.05 0 0 0-.86-1.89c-1-.74-2-1.12-1.41-2.32.74-1.48 3.13-2 3.13-2a2.14 2.14 0 0 0-2.25.05ZM458.29 176.2a5.51 5.51 0 0 0-2.25 1.39c-.3.41-.29 1.83-.58 2.18a16.39 16.39 0 0 1-1.78 1.37s-.45-.36.11-1 1.24-.7 1.3-1.66c.04-.66-.34-2.09 3.2-2.28Z"/><path class="cls-57" d="m467.95 182.98-32.44-15.74v1.32l32.44 15.99v-1.57zM448.37 221.28a5.27 5.27 0 0 1-2.28-.58 10.19 10.19 0 0 1-5.25-8.49 4 4 0 0 1 2-3.86 4.38 4.38 0 0 1 3.87.22 10.2 10.2 0 0 1 5.25 8.49 4 4 0 0 1-2 3.86 3.57 3.57 0 0 1-1.59.36Zm-3.92-12.2a2.17 2.17 0 0 0-.95.21 3.05 3.05 0 0 0-1.39 2.92 9.14 9.14 0 0 0 4.62 7.55 2.94 2.94 0 0 0 2.59.23 3.07 3.07 0 0 0 1.39-2.93 9.16 9.16 0 0 0-4.62-7.55 3.75 3.75 0 0 0-1.64-.43Z"/><path class="cls-57" d="m450.88 216.46-9.22-4.52v.87l9.22 4.52v-.87z"/><path class="cls-57" d="m446.6 220.34-.66-.31v-10.77l.66.32v10.76z"/><path class="cls-57" d="M447.36 215.09a2 2 0 0 0-1-1.69.88.88 0 0 0-.77 0c-.06 0-.1.1-.14.14s-3.31 3-5.42 5.1-5.64 5.21-5.64 5.21l1.8 3.29s4.14-4.58 7-7.43 3.94-3.88 3.94-3.88a.82.82 0 0 0 .23-.74Z"/><path class="cls-66" d="M454.23 208.8a8.81 8.81 0 0 1-1.94.77 4.16 4.16 0 0 1-2.49-.17 2.18 2.18 0 0 0-1.73 0l.55.46s-1.74.09-2.12 1.18c-.2.54-.07.59.4.74.05.26 0 .59.65.65.15.15.65.82 1.05.86 1.81.18 3.49-.85 4.32-1.12a25.13 25.13 0 0 0 3.39-1.21c-.23-.87-1.31-1.53-2.08-2.16ZM448.72 198a35.55 35.55 0 0 0-5 6.88c-.37.72-1.43 2.83-1.3 3.86a2.73 2.73 0 0 0 1.32 2.06c.56.26.72-.22.72-.22a4.91 4.91 0 0 1 1-.05c.33 0 1-.75 1-.75s-1-.26-.84-.76c0-.17.54-.59.54-.59l1.18.54s-.85-1.15-1.05-1.5a1.36 1.36 0 0 1-.28-.65c-.08-.63 3.63-4.2 4.05-4.63a14.72 14.72 0 0 0 2.09-2.81 12.08 12.08 0 0 0-1.32-.73 6.26 6.26 0 0 0-2.11-.65Z"/><path class="cls-60" d="m446.27 230.63-3.37 1.65-13.56-6.68 3.35-1.65 13.58 6.68z"/><path class="cls-55" d="M429.34 225.6v9.3l13.57 6.65v-9.29l-13.57-6.66z"/><path class="cls-58" d="m446.27 230.63-3.36 1.65v8.94l3.36-1.66v-8.93z"/><path class="cls-56" d="m427.65 192.76-5.43 2.67v54.32l5.43-2.67v-54.32z"/><path class="cls-55" d="M419.67 194.17v52.74l2.55 1.25v-52.73l-2.55-1.26z"/><path class="cls-60" d="m427.65 192.76-2.49-1.25-5.49 2.66 2.55 1.26 5.43-2.67z"/><path class="cls-59" d="m433.64 201.48-9.21-4.52v1.77l9.21 4.52v-1.77z"/><path class="cls-61" d="m438.19 202.18-12.2-5.98-1.56.78 13.76 6.75v-1.55z"/><path class="cls-59" d="m433.64 207.65-9.21-4.52v1.76l9.21 4.53v-1.77z"/><path class="cls-61" d="m438.19 208.34-12.2-5.97-1.56.78 13.76 6.75v-1.56z"/><path class="cls-56" d="m439.5 198.77-5.44 2.67v52.73l5.44-2.66v-52.74z"/><path class="cls-55" d="M431.51 200.19v52.73l2.55 1.25v-52.73l-2.55-1.25z"/><path class="cls-60" d="m439.5 198.77-2.49-1.25-5.5 2.67 2.55 1.25 5.44-2.67z"/><path class="cls-57" d="M448.66 250.45a11.59 11.59 0 0 1-5.88 9.55c-3.24 1.59-5.88-.1-5.88-3.78a11.6 11.6 0 0 1 5.88-9.55c3.22-1.6 5.88.09 5.88 3.78Z"/><path class="cls-57" d="m443.39 262.37-4.26-2.04 7.6-13.87 4.07 1.93-7.41 13.98z"/><path class="cls-58" d="M453.08 252.54a11.58 11.58 0 0 1-5.88 9.55c-3.25 1.59-5.88-.1-5.88-3.78a11.58 11.58 0 0 1 5.88-9.55c3.25-1.59 5.88.1 5.88 3.78Z"/><path class="cls-11" d="M451.8 253.28a9.08 9.08 0 0 1-4.6 7.48c-2.54 1.25-4.6-.08-4.6-3a9.05 9.05 0 0 1 4.6-7.47c2.54-1.21 4.6.11 4.6 2.99Z"/><path class="cls-57" d="M450.67 253.84a6.84 6.84 0 0 1-3.47 5.64c-1.92.94-3.47-.06-3.47-2.23a6.82 6.82 0 0 1 3.47-5.64c1.92-.94 3.47.06 3.47 2.23Z"/><path class="cls-11" d="M448.52 254.89a2.61 2.61 0 0 1-1.32 2.11c-.73.36-1.32 0-1.32-.85a2.61 2.61 0 0 1 1.32-2.15.85.85 0 0 1 1.32.89Z"/><path class="cls-57" d="m484.78 225.36-1.66-.79v-45.76l3.32-2.64-1.66 49.19z"/><path class="cls-56" d="m488.11 225.27-3.33 1.63v-48.09l3.33-2.64v49.1z"/><path class="cls-55" d="m486.34 173.75-18.29 8.89c-5.63 2.76-10.48 9.66-11.55 16.46l-3.5 47.08 3.4-1.71 3.12-44.41c.94-5.95 5.18-12 10.1-14.4l16.77-8.14Z"/><path class="cls-55" d="m488.11 174.88-1.77-1.13-2.33 1.13 2.22 1.68 1.88-1.68zM454.27 247.45l-1.32-1.27 1.77-2.52 1.89 2.05-2.34 1.74z"/><path class="cls-56" d="m488.11 174.88-18.3 8.89c-5.63 2.76-10.47 9.66-11.55 16.46L454.72 247v.6l3.39-2 3.12-44.41c.94-5.94 5.18-12 10.11-14.4l16.77-8.14Z"/><path class="cls-63" d="m418.56 222.26-1.59.78v24.26l1.59-.53v-24.51z"/><path class="cls-61" d="m438.6 243.23-1.59.77-20.03-9.82 1.57-.78 20.05 9.83z"/><path class="cls-60" d="m438.6 253.46-1.59.78-20.03-9.83 1.57-.78 20.05 9.83z"/><path class="cls-59" d="m437.01 232.75-21.87-10.74v1.77l21.87 10.74v-1.77z"/><path class="cls-61" d="m438.6 237.59-1.59.77-20.03-9.82 1.57-.78 20.05 9.83z"/><path class="cls-63" d="m438.6 231.97-1.59.78v24.51l1.59-.78v-24.51z"/><path class="cls-61" d="m438.6 231.97-1.59.78-21.87-10.74 1.56-.77 21.9 10.73z"/><path class="cls-59" d="m437.01 238.36-21.87-10.73v1.76l21.87 10.74v-1.77zM437.01 244l-21.87-10.73v1.76l21.87 10.74V244z"/><path class="cls-59" d="m416.97 247.3-1.83-.84V222.3l1.83.9v24.1zM437.01 257.26l-1.83-.9v-24.3l1.83.9v24.3z"/><path class="cls-55" d="m437.01 254.17-21.87-10.66v2.67l21.87 10.65v-2.66z"/><path class="cls-60" d="m438.6 257.62-43.07 21.08-5.4-2.65 43.06-21.08 5.41 2.65z"/><path class="cls-55" d="M395.53 278.7v-1.06l43.07-21.07v1.05l-43.07 21.08z"/><path class="cls-57" d="M390.13 274.99v1.06l5.4 2.65v-1.06l-5.4-2.65z"/><path class="cls-60" d="m438.6 256.56-43.07 21.08-5.4-2.65 43.06-21.08 5.41 2.65zM420.59 248.7l-43.07 21.08-5.4-2.65 43.07-21.08 5.4 2.65z"/><path class="cls-55" d="M377.52 269.78v-1.05l43.07-21.07v1.04l-43.07 21.08z"/><path class="cls-57" d="M372.12 266.07v1.06l5.4 2.65v-1.05l-5.4-2.66z"/><path class="cls-60" d="m420.59 247.65-43.07 21.08-5.4-2.66L415.19 245l5.4 2.65z"/><path class="cls-55" d="M469.9 182.6 436.04 166l-1.57.78 33.89 16.61 1.54-.79zM479.03 178.08l-33.86-16.6-1.57.78 33.88 16.62 1.55-.8z"/><path class="cls-57" d="m485.12 174.59-32.44-15.74v1.32l32.44 16v-1.58z"/><path class="cls-55" d="M487.07 174.21 452.2 157.1l-1.56.8 34.89 17.1 1.54-.79z"/><path class="cls-57" d="M440.86 167.13c0 1-1.89 1.86-4.22 1.86s-4.22-.83-4.22-1.86 1.89-1.87 4.22-1.87 4.22.83 4.22 1.87Z"/><path class="cls-57" d="M432.42 166.5h8.44v.62h-8.44z"/><path class="cls-60" d="M440.86 166.5c0 1-1.89 1.87-4.22 1.87s-4.22-.84-4.22-1.87 1.89-1.87 4.22-1.87 4.22.84 4.22 1.87Z"/><path class="cls-67" d="M440.09 166.35c0 .84-1.54 1.52-3.45 1.52s-3.45-.68-3.45-1.52 1.54-1.53 3.45-1.53 3.45.68 3.45 1.53Z"/><path class="cls-67" d="m433.77 159.91-.58 6.44h6.9l-.58-6.44h-5.74z"/><path d="M439.51 159.91c0 .7-1.28 1.27-2.87 1.27s-2.87-.57-2.87-1.27 1.28-1.27 2.87-1.27 2.87.57 2.87 1.27Z" style="fill:#ff618b"/><path class="cls-67" d="M438.59 159.93c0 .47-.87.86-1.95.86s-1.95-.39-1.95-.86.87-.87 1.95-.87 1.95.39 1.95.87Z"/><path class="cls-5" d="m436.26 262.11-31.78 15.61.99.53 31.88-15.65-1.09-.49z"/><path class="cls-6" d="m437.35 262.6-31.88 15.65v3.85l31.88-15.65v-3.85z"/><path class="cls-7" d="M404.48 281.62v-3.9l.99.53v3.85l-.99-.48z"/><path class="cls-5" d="M400.78 244.61 369 260.23l.99.52 31.88-15.65-1.09-.49z"/><path class="cls-6" d="m401.87 245.1-31.88 15.65v3.86l31.88-15.65v-3.86z"/><path class="cls-7" d="M369 264.12v-3.89l.99.52v3.86l-.99-.49z"/><path class="cls-5" d="m418.01 252.93-31.78 15.61.99.53 31.87-15.65-1.08-.49z"/><path class="cls-6" d="m419.09 253.42-31.87 15.65v3.85l31.87-15.65v-3.85z"/><path class="cls-7" d="M386.23 272.44v-3.9l.99.53v3.85l-.99-.48z"/><path class="cls-7" d="M405.47 277.07 369 259.16v1.25l36.47 17.9v-1.24z"/><path class="cls-5" d="m409.3 275.25-3.83 1.82L369 259.16l3.81-1.81 36.49 17.9z"/><path class="cls-6" d="m409.3 275.25-3.83 1.82v2.32l3.83-1.89v-2.25z"/><path class="cls-7" d="m412.58 273.5-36.57-17.97v1.24l36.57 17.98v-1.25z"/><path class="cls-5" d="m416.41 271.69-3.83 1.81-36.57-17.97 3.81-1.82 36.59 17.98z"/><path class="cls-6" d="m416.41 271.69-3.83 1.81v2.33l3.83-1.89v-2.25z"/><path class="cls-7" d="m419.87 270-36.66-18.02v1.24l36.66 18.02V270z"/><path class="cls-5" d="m423.69 268.18-3.82 1.82-36.66-18.02 3.8-1.82 36.68 18.02z"/><path class="cls-6" d="m423.69 268.18-3.82 1.82v2.32l3.82-1.89v-2.25z"/><path class="cls-7" d="m426.98 266.43-36.57-17.9v1.25l36.57 17.9v-1.25z"/><path class="cls-5" d="m430.8 264.61-3.82 1.82-36.57-17.9 3.8-1.82 36.59 17.9z"/><path class="cls-6" d="m430.8 264.61-3.82 1.82v2.32l3.82-1.89v-2.25z"/><path class="cls-7" d="m433.52 263.31-36.66-17.99v1.25l36.66 17.98v-1.24z"/><path class="cls-5" d="m437.35 261.49-3.83 1.82-36.66-17.99 3.81-1.81 36.68 17.98z"/><path class="cls-6" d="m437.35 261.49-3.83 1.82v2.32l3.83-1.89v-2.25z"/><path class="cls-8" d="m402.95 259.43-.01-16.89 15.88-7.81v16.88l-15.87 7.82z"/><path class="cls-9" d="m402.95 259.43-.01-16.89-15.87-7.81v16.88l15.88 7.82z"/><path class="cls-13" d="m387.07 234.73 15.87 7.81 15.88-7.81-15.87-7.8-15.88 7.8z"/><path class="cls-14" d="m412.92 242.55-3.54 1.74v-4.93l3.54-1.74v4.93z"/><path class="cls-69" d="m412.92 237.62-15.86-7.8-3.54 1.74 15.86 7.81 3.54-1.75z"/><path class="cls-14" d="M405.05 257.01v-.87l5.33-2.62v.88l-5.33 2.61zM405.05 255.46v-.87l5.33-2.63v.88l-5.33 2.62zM415.16 249.13v3.02l2.55-1.26v-3.01l-2.55 1.25zM390.56 248.82v3.14l-2.55-1.25v-3.14l2.55 1.25zM394.04 250.53v3.15l-2.55-1.26v-3.14l2.55 1.25z"/><path class="cls-11" d="M393.25 239.64v4.51l-5.24-2.57v-4.52l5.24 2.58z"/><path class="cls-14" d="M392.61 240.56v-.73l-4.12-2.02v.72l4.12 2.03z"/><path class="cls-8" d="m420.31 267.87-.01-16.9 15.88-7.8v16.88l-15.87 7.82z"/><path class="cls-9" d="m420.31 267.87-.01-16.9-15.87-7.8v16.88l15.88 7.82z"/><path class="cls-13" d="m404.43 243.17 15.87 7.8 15.88-7.8-15.87-7.8-15.88 7.8z"/><path class="cls-14" d="m430.28 250.99-3.54 1.74v-4.93l3.54-1.75v4.94z"/><path class="cls-69" d="m430.28 246.05-15.86-7.79-3.54 1.74 15.86 7.81 3.54-1.76z"/><path class="cls-14" d="M422.41 265.45v-.87l5.33-2.63v.89l-5.33 2.61zM422.41 263.9v-.87l5.33-2.63v.88l-5.33 2.62zM432.52 257.57v3.02l2.55-1.26v-3.01l-2.55 1.25zM407.92 257.26v3.14l-2.55-1.26V256l2.55 1.26zM411.4 258.97v3.14l-2.55-1.25v-3.14l2.55 1.25z"/><path class="cls-11" d="M410.61 248.08v4.51l-5.24-2.57v-4.52l5.24 2.58z"/><path class="cls-14" d="M409.97 249v-.73l-4.12-2.02v.72l4.12 2.03z"/><path class="cls-8" d="M386.6 267.81v-16.89l15.87-7.81v16.88l-15.87 7.82z"/><path class="cls-9" d="M386.6 267.81v-16.89l-15.88-7.81v16.88l15.88 7.82z"/><path class="cls-13" d="m370.72 243.11 15.88 7.81 15.87-7.81-15.87-7.8-15.88 7.8z"/><path class="cls-14" d="m396.57 250.93-3.54 1.74v-4.93l3.54-1.74v4.93z"/><path class="cls-69" d="m396.57 246-15.85-7.8-3.55 1.74 15.86 7.81 3.54-1.75z"/><path class="cls-14" d="M388.7 265.39v-.87l5.33-2.62v.88l-5.33 2.61zM388.7 263.84v-.87l5.33-2.63v.88l-5.33 2.62zM398.82 257.51v3.02l2.55-1.26v-3.01l-2.55 1.25zM374.21 257.2v3.14l-2.55-1.25v-3.14l2.55 1.25zM377.69 258.91v3.14l-2.55-1.25v-3.14l2.55 1.25z"/><path class="cls-11" d="M376.9 248.02v4.51l-5.24-2.57v-4.52l5.24 2.58z"/><path class="cls-14" d="M376.26 248.94v-.73l-4.12-2.02v.72l4.12 2.03z"/><path class="cls-8" d="M403.96 276.25v-16.9l15.87-7.8v16.88l-15.87 7.82z"/><path class="cls-9" d="M403.96 276.25v-16.9l-15.88-7.8v16.88l15.88 7.82z"/><path class="cls-13" d="m388.08 251.55 15.88 7.8 15.87-7.8-15.87-7.8-15.88 7.8z"/><path class="cls-14" d="m413.93 259.37-3.54 1.74v-4.93l3.54-1.75v4.94z"/><path class="cls-69" d="m413.93 254.43-15.86-7.79-3.54 1.74 15.86 7.81 3.54-1.76z"/><path class="cls-14" d="M406.06 273.83v-.87l5.33-2.63v.89l-5.33 2.61zM406.06 272.28v-.87l5.33-2.63v.88l-5.33 2.62zM416.18 265.95v3.01l2.54-1.25v-3.01l-2.54 1.25zM391.57 265.64v3.14l-2.55-1.26v-3.14l2.55 1.26zM395.05 267.35v3.14l-2.55-1.25v-3.14l2.55 1.25z"/><path class="cls-11" d="M394.26 256.46v4.51l-5.24-2.57v-4.52l5.24 2.58z"/><path class="cls-14" d="M393.62 257.38v-.73l-4.12-2.02v.72l4.12 2.03z"/><path class="cls-8" d="m402.95 241.66-.01-16.89 15.88-7.81v16.88l-15.87 7.82z"/><path class="cls-9" d="m402.95 241.66-.01-16.89-15.87-7.81v16.88l15.88 7.82z"/><path class="cls-13" d="m387.07 216.96 15.87 7.81 15.88-7.81-15.87-7.8-15.88 7.8z"/><path class="cls-14" d="m412.92 224.78-3.54 1.75v-4.94l3.54-1.75v4.94z"/><path class="cls-69" d="m412.92 219.84-15.86-7.79-3.54 1.74 15.86 7.81 3.54-1.76z"/><path class="cls-14" d="M405.05 239.24v-.86l5.33-2.63v.88l-5.33 2.61zM405.05 237.69v-.87l5.33-2.63v.88l-5.33 2.62zM415.16 231.36v3.02l2.55-1.26v-3.01l-2.55 1.25zM390.56 231.05v3.14l-2.55-1.25v-3.14l2.55 1.25zM394.04 232.76v3.14l-2.55-1.25v-3.14l2.55 1.25z"/><path class="cls-11" d="M393.25 221.87v4.51l-5.24-2.57v-4.52l5.24 2.58z"/><path class="cls-14" d="M392.61 222.79v-.73l-4.12-2.02v.72l4.12 2.03z"/><path class="cls-8" d="m420.31 250.1-.01-16.9 15.88-7.8v16.88l-15.87 7.82z"/><path class="cls-9" d="m420.31 250.1-.01-16.9-15.87-7.8v16.88l15.88 7.82z"/><path class="cls-13" d="m404.43 225.4 15.87 7.8 15.88-7.8-15.87-7.8-15.88 7.8z"/><path class="cls-14" d="m430.28 233.22-3.54 1.74v-4.93l3.54-1.75v4.94z"/><path class="cls-69" d="m430.28 228.28-15.86-7.79-3.54 1.74 15.86 7.81 3.54-1.76z"/><path class="cls-14" d="M422.41 247.68v-.87l5.33-2.62v.88l-5.33 2.61zM422.41 246.13v-.87l5.33-2.63v.88l-5.33 2.62zM432.52 239.8v3.01l2.55-1.25v-3.01l-2.55 1.25zM407.92 239.49v3.14l-2.55-1.25v-3.14l2.55 1.25zM411.4 241.2v3.14l-2.55-1.25v-3.14l2.55 1.25z"/><path class="cls-11" d="M410.61 230.31v4.51l-5.24-2.57v-4.52l5.24 2.58z"/><path class="cls-14" d="M409.97 231.23v-.73l-4.12-2.02v.72l4.12 2.03z"/><path class="cls-8" d="M386.6 250.04v-16.89l15.87-7.81v16.88l-15.87 7.82z"/><path class="cls-9" d="M386.6 250.04v-16.89l-15.88-7.81v16.88l15.88 7.82z"/><path class="cls-13" d="m370.72 225.34 15.88 7.81 15.87-7.81-15.87-7.8-15.88 7.8z"/><path class="cls-14" d="m396.57 233.16-3.54 1.74v-4.93l3.54-1.75v4.94z"/><path class="cls-69" d="m396.57 228.22-15.85-7.79-3.55 1.74 15.86 7.81 3.54-1.76z"/><path class="cls-14" d="M388.7 247.62v-.87l5.33-2.62v.88l-5.33 2.61zM388.7 246.07v-.87l5.33-2.63v.88l-5.33 2.62zM398.82 239.74v3.02l2.55-1.26v-3.01l-2.55 1.25zM374.21 239.43v3.14l-2.55-1.25v-3.14l2.55 1.25zM377.69 241.14v3.14l-2.55-1.25v-3.14l2.55 1.25z"/><path class="cls-11" d="M376.9 230.25v4.51l-5.24-2.57v-4.52l5.24 2.58z"/><path class="cls-14" d="M376.26 231.17v-.73l-4.12-2.02v.72l4.12 2.03z"/><path class="cls-8" d="M403.96 258.48v-16.9l15.87-7.8v16.88l-15.87 7.82z"/><path class="cls-9" d="M403.96 258.48v-16.9l-15.88-7.8v16.88l15.88 7.82z"/><path class="cls-13" d="m388.08 233.78 15.88 7.8 15.87-7.8-15.87-7.8-15.88 7.8z"/><path class="cls-14" d="m413.93 241.59-3.54 1.75v-4.93l3.54-1.75v4.93z"/><path class="cls-69" d="m413.93 236.66-15.86-7.79-3.54 1.74 15.86 7.81 3.54-1.76z"/><path class="cls-14" d="M406.06 256.06v-.87l5.33-2.63v.88l-5.33 2.62zM406.06 254.51v-.87l5.33-2.63v.88l-5.33 2.62zM416.18 248.18v3.01l2.54-1.25v-3.01l-2.54 1.25zM391.57 247.87v3.14l-2.55-1.26v-3.14l2.55 1.26zM395.05 249.58v3.14l-2.55-1.25v-3.14l2.55 1.25z"/><path class="cls-11" d="M394.26 238.69v4.51l-5.24-2.57v-4.52l5.24 2.58z"/><path class="cls-14" d="M393.62 239.61v-.73l-4.12-2.03v.73l4.12 2.03z"/></g><g id="мешки"><path class="cls-70" d="m386.38 124.56-4-1.09-6.33 3.56-4.78 9.03 1.94 5.89-3.88 5.89-.13 10-1.56 2.45 25.46.01 4.39-8.08.51-12.73-2.97-13.15-5.29-2.6-3.36.82z"/><path class="cls-71" d="m386.11 123.73-.95-3.23a.54.54 0 0 0-.54-.4 10.1 10.1 0 0 0-2.73.35 52.45 52.45 0 0 0 4.22 3.28ZM386.63 123.87l.14-2.22a.43.43 0 0 1 .54-.41l.86.25a.78.78 0 0 1 .15 1.42Z"/><path class="cls-71" d="m385.33 123.92.2-.37a.46.46 0 0 1 .4-.25h1.21a.47.47 0 0 1 .39.2l.18.27a.51.51 0 0 1 .09.38v.19a.48.48 0 0 1-.48.42l-1.57-.08a.51.51 0 0 1-.42-.76ZM376.05 127l2.53 7a.44.44 0 0 0 .84 0l1-2.39a1 1 0 0 0-.26-1.16ZM373.41 142.23s3.1 4 2.5 4.65-6.19 1-6.19 1ZM397.49 152.22s-11.52 4.06-10.89 5.52 6.5 2.56 6.5 2.56ZM383.8 138.61l12.29 1.5a.42.42 0 0 1 .09.79l-7 2.76a1.28 1.28 0 0 1-1.35-.28l-4.28-4.12a.38.38 0 0 1 .25-.65ZM385.12 125.19l-2.89.79a.79.79 0 0 0-.44 1.17l.35.57a.54.54 0 0 0 .89.07ZM386.63 125.1l2.89-.54a.71.71 0 0 1 .54.14l1.15.88a.26.26 0 0 1-.19.47Z"/><path class="cls-70" d="m416 153.31-.1 2.08-.11 1.94-.34 6.62-4.71 6.76s-3.53 3.09-12.6 3.09c-11.31 0-13-5.16-13-5.16l.14-8.35 4.15-4.92-2.07-4.92 5.11-7.56 6.78-3 4.29.92 3.6-.7 5.67 2.18Z"/><path class="cls-71" d="m403.27 140.14-1-2.7a.59.59 0 0 0-.58-.34 13.6 13.6 0 0 0-2.92.29c-.02.19 4.5 2.75 4.5 2.75ZM403.82 140.25l.15-1.86a.46.46 0 0 1 .58-.34l.92.21a.61.61 0 0 1 .16 1.19Z"/><path class="cls-71" d="m402.43 140.3.21-.31a.53.53 0 0 1 .43-.22h1.3a.55.55 0 0 1 .41.17l.2.22a.38.38 0 0 1 .1.32v.16a.48.48 0 0 1-.52.35l-1.67-.07c-.41-.02-.64-.35-.46-.62ZM392.49 142.89l2.71 5.89a.53.53 0 0 0 .9 0l1.1-2a.72.72 0 0 0-.28-1ZM389.44 155.37s3.12 3.58 2.47 4.12-6.63.8-6.63.8ZM415.45 164s-12.34 3.39-11.66 4.61 7 2.14 7 2.14ZM415.9 155.39l-.11 1.94-11.46.92c-.45 0-.66-.45-.28-.65l7.09-3.73a1.75 1.75 0 0 1 1.53 0ZM402.21 141.36l-3.1.65a.63.63 0 0 0-.47 1l.37.47a.67.67 0 0 0 .95.06ZM403.82 141.28l3.1-.45a.86.86 0 0 1 .57.11l1.24.74c.23.14.07.44-.21.39Z"/><path class="cls-72" d="m378.18 145.47-5.71-.54-3.64 2.87-1.38 5.33 1.71 3.64-3.75-1.57-8.72 9.72-1.59 8.27 2.94 2.07h25.29l3.67-11.92-.12-9.73-8.7-8.14z"/><path class="cls-73" d="M365.41 155.2s3.31 4.33 4 4.49 2.88-.16 2.83-.49a24.06 24.06 0 0 0-3.1-2.43ZM356.69 164.92l4.61 3.43a1.24 1.24 0 0 1 .48 1.25c-.2 1-.58 2.66-.88 2.74s-4.21-7.42-4.21-7.42ZM386.14 164.23s-6.6 3.4-6.85 4 2 5.19 2.93 4.54 3.92-8.54 3.92-8.54Z"/><path class="cls-72" d="M370.3 146.07s-4.73-1.25-5.16-1-2.61 3.19-2.39 3.73 7.55-2.73 7.55-2.73Z"/><path class="cls-74" d="m370.63 143.15-.33 2.92 2-1.79s-.75-1.45-1.67-1.13Z"/><path class="cls-74" d="M370.94 146.28s-.07-.64-.18-.62a3.32 3.32 0 0 0-.84.56c0 .08-.14.69.15.66s.87-.6.87-.6Z"/><path class="cls-73" d="M370.68 146.61a17.33 17.33 0 0 0-.6 2.75c.11.22 1.58 1.87 1.77 1.79a35.53 35.53 0 0 0-1.17-4.54ZM370.9 146.47a11.73 11.73 0 0 0 1 2.52 5.32 5.32 0 0 0 1.2-2.19 12.67 12.67 0 0 0-2.2-.33ZM371 146.34l.69-.36a.12.12 0 0 1 .1 0l.29.12a.06.06 0 0 1 0 .12ZM370.46 146.7l-.4.4a.13.13 0 0 0 0 .2l.14.1a.07.07 0 0 0 .12 0Z"/><path class="cls-74" d="M370.37 146.07a22.68 22.68 0 0 0-3.3-.2c-.25.12-1.37 1.15-.92 1.21a38.31 38.31 0 0 0 4.22-1.01Z"/><path class="cls-73" d="M358 175.26s10.53-1.57 11.62-1.19 4.83 1.13 4.83 1.13 4.68-1.19 5.16-.92a6.4 6.4 0 0 1 1.15 1Z"/></g></g></svg>