<svg xmlns="http://www.w3.org/2000/svg" xmlns:xlink="http://www.w3.org/1999/xlink" viewBox="0 0 578.17 366.53"><defs><linearGradient id="Безымянный_градиент_15-6" x1="449.44" y1="184.16" x2="478.23" y2="184.16" xlink:href="#Безымянный_градиент_15"/><linearGradient id="Безымянный_градиент_15-2" x1="376.76" y1="227.37" x2="405.55" y2="227.37" xlink:href="#Безымянный_градиент_15"/><linearGradient id="Безымянный_градиент_15-3" x1="410.46" y1="225.51" x2="442.16" y2="225.51" xlink:href="#Безымянный_градиент_15"/><linearGradient id="Безымянный_градиент_15-4" x1="411.91" y1="206.34" x2="440.7" y2="206.34" xlink:href="#Безымянный_градиент_15"/><linearGradient id="Безымянный_градиент_15-5" x1="447.99" y1="203.33" x2="479.68" y2="203.33" xlink:href="#Безымянный_градиент_15"/><linearGradient id="Безымянный_градиент_15" x1="375.31" y1="246.54" x2="407.01" y2="246.54" gradientUnits="userSpaceOnUse"><stop offset="0" stop-color="#f2edec"/><stop offset=".19" stop-color="#efe9e8"/><stop offset=".41" stop-color="#e5dbda"/><stop offset=".63" stop-color="#d4c5c5"/><stop offset=".86" stop-color="#bda7a6"/><stop offset="1" stop-color="#ac9090"/></linearGradient><linearGradient id="Безымянный_градиент_15-7" x1="483.13" y1="182.3" x2="514.83" y2="182.3" xlink:href="#Безымянный_градиент_15"/><linearGradient id="Безымянный_градиент_15-8" x1="484.59" y1="163.12" x2="513.38" y2="163.12" xlink:href="#Безымянный_градиент_15"/><linearGradient id="Безымянный_градиент_15-9" x1="373.87" y1="100.21" x2="410.5" y2="100.21" xlink:href="#Безымянный_градиент_15"/><linearGradient id="Безымянный_градиент_15-10" x1="399.38" y1="115.12" x2="436.01" y2="115.12" xlink:href="#Безымянный_градиент_15"/><clipPath id="clip-path-2"><path class="cls-1" d="M428.34 76.89c-5.88-3.39-15.41-3.39-21.28 0s-5.88 8.89 0 12.29 15.4 3.39 21.28 0 5.87-8.9 0-12.29Z"/></clipPath><clipPath id="clip-path"><path class="cls-1" d="M402.82 62c-5.87-3.39-15.4-3.39-21.28 0s-5.87 8.89 0 12.29 15.41 3.39 21.28 0 5.88-8.92 0-12.29Z"/></clipPath><style>.cls-1{fill:none}.cls-5{fill:#ed8e2f}.cls-6{fill:#c96a1c}.cls-7{fill:#d87923}.cls-8{fill:#dba763}.cls-9{fill:#e8b679}.cls-10{fill:#cc8c46}.cls-11{fill:#fff}.cls-12{fill:#bf7e3d}.cls-13{fill:#ffe1c0}.cls-14{fill:#4d4d4d}.cls-15{fill:#5d588d}.cls-16{fill:#7c76ac}.cls-17{fill:#8a9ad0}.cls-18{fill:#386819}.cls-19{fill:#d3d3d3}.cls-20{fill:#7eb25d}.cls-21{fill:#d4c9c9}.cls-23{fill:#b1989b}.cls-24{fill:#9c8383}.cls-25{fill:#00892d}.cls-26{fill:#006b21}.cls-27{fill:#003d0b}.cls-28{fill:#86676a}.cls-29{fill:#b09b9f}.cls-30{fill:#402317}.cls-33{fill:#91787b}.cls-37{fill:#f9f3f4}.cls-39{fill:#eee}.cls-40{fill:#331a14}.cls-50{fill:#694147}.cls-52{fill:#807171}.cls-53{fill:#645454}.cls-55{fill:#424242}.cls-56{fill:#5b5b5b}.cls-57{fill:#303030}.cls-58{fill:#494949}.cls-59{fill:#ffba76}.cls-60{fill:#707070}.cls-61{fill:#ffc999}.cls-62{fill:#3a3a3a}.cls-63{fill:#ffa543}.cls-66{fill:#ffc5b3}.cls-67{fill:#d1406b}.cls-69{fill:#6d6d6d}.cls-70{fill:#699ff0}.cls-71{fill:#4a75cb}.cls-72{fill:#f1a34f}.cls-73{fill:#e88f46;opacity:.5}.cls-74{fill:#e59545}</style></defs><g id="Слой_2" data-name="Слой 2"><g id="Слой_1-2" data-name="Слой 1"><path style="fill:#4f4f4f" d="M0 177.85 289.08 0l289.09 177.85L289.08 355.7 0 177.85z"/><path style="fill:#292929" d="M288.74 344.29 577.9 177.02l-.04 22.23L288.7 366.53l.04-22.24z"/><path style="fill:#454545" d="M288.74 344.29.14 177.98.1 200.22l288.6 166.31.04-22.24z"/></g><g id="бочки"><path class="cls-5" d="m262.25 265.9-37.94 23.48 1.18.8 38.05-23.54-1.29-.74z"/><path class="cls-6" d="m263.54 266.64-38.05 23.53v5.8l38.05-23.53v-5.8z"/><path class="cls-7" d="M224.31 295.25v-5.87l1.18.79v5.8l-1.18-.72z"/><path class="cls-5" d="m219.9 239.59-37.94 23.48 1.19.8 38.04-23.54-1.29-.74z"/><path class="cls-6" d="m221.19 240.33-38.04 23.53v5.8l38.04-23.53v-5.8z"/><path class="cls-7" d="M181.96 268.93v-5.86l1.19.79v5.8l-1.19-.73z"/><path class="cls-5" d="m240.46 252.1-37.94 23.48 1.19.8 38.04-23.54-1.29-.74z"/><path class="cls-6" d="m241.75 252.84-38.04 23.53v5.8l38.04-23.53v-5.8z"/><path class="cls-7" d="M202.52 281.44v-5.86l1.19.79v5.8l-1.19-.73z"/><path class="cls-7" d="m225.49 288.4-43.53-26.92v1.87l43.53 26.92v-1.87z"/><path class="cls-5" d="m230.06 285.67-4.57 2.73-43.53-26.92 4.54-2.73 43.56 26.92z"/><path class="cls-6" d="m230.06 285.67-4.57 2.73v3.49l4.57-2.84v-3.38z"/><path class="cls-7" d="M233.98 283.04 190.33 256v1.88l43.65 27.04v-1.88z"/><path class="cls-5" d="m238.55 280.31-4.57 2.73L190.33 256l4.54-2.73 43.68 27.04z"/><path class="cls-6" d="m238.55 280.31-4.57 2.73v3.5l4.57-2.85v-3.38z"/><path class="cls-7" d="m242.68 277.76-43.76-27.09v1.88l43.76 27.09v-1.88z"/><path class="cls-5" d="m247.24 275.03-4.56 2.73-43.76-27.09 4.54-2.73 43.78 27.09z"/><path class="cls-6" d="m247.24 275.03-4.56 2.73v3.5l4.56-2.84v-3.39z"/><path class="cls-7" d="m251.17 272.41-43.66-26.92v1.87l43.66 26.92v-1.87z"/><path class="cls-5" d="m255.73 269.67-4.56 2.74-43.66-26.92 4.54-2.74 43.68 26.92z"/><path class="cls-6" d="m255.73 269.67-4.56 2.74v3.49l4.56-2.84v-3.39z"/><path class="cls-7" d="m258.98 267.71-43.76-27.04v1.87l43.76 27.04v-1.87z"/><path class="cls-5" d="m263.54 264.97-4.56 2.74-43.76-27.04 4.54-2.73 43.78 27.03z"/><path class="cls-6" d="m263.54 264.97-4.56 2.74v3.49l4.56-2.84v-3.39z"/><path class="cls-8" d="m206.47 273.08-.01-25.41 18.95-11.73v25.37l-18.94 11.77z"/><path class="cls-9" d="m206.47 273.08-.01-25.41-18.95-11.73v25.37l18.96 11.77z"/><path class="cls-10" d="M189.97 259.62v-19.51l-.56-.34v20.28l15.15 9.4v-.77l-14.59-9.06z"/><path class="cls-8" d="M204.56 268.68v-19.53l-14.59-9.04v19.51l14.59 9.06z"/><path class="cls-11" d="m199.05 263.75 4.07 2.53-.01-6.56-4.06-2.52v6.55z"/><path class="cls-12" d="M222.96 259.62v-19.51l.55-.34v20.28l-15.15 9.4v-.77l14.6-9.06z"/><path class="cls-10" d="m208.36 268.68.01-19.53 14.59-9.04v19.51l-14.6 9.06z"/><path class="cls-13" d="m187.51 235.94 18.95 11.73 18.95-11.73-18.94-11.74-18.96 11.74z"/><path class="cls-8" d="m221.48 236.17.63-.39-15.64-9.68-15.64 9.68.62.39 15.02-9.29 15.01 9.29z"/><path class="cls-9" d="m221.48 236.17-15.01-9.29-15.02 9.29 15.02 9.3 15.01-9.3z"/><path class="cls-14" d="M219.01 244.59v6.56l3.13-1.94v-6.56l-3.13 1.94zM214.37 247.41v6.55l3.13-1.94v-6.55l-3.13 1.94z"/><path class="cls-8" d="M241.04 276.82v-25.41l18.95-11.73v25.37l-18.95 11.77z"/><path class="cls-9" d="M241.04 276.82v-25.41l-18.95-11.73v25.37l18.95 11.77z"/><path class="cls-10" d="M224.54 263.36v-19.5l-.55-.35v20.29l15.15 9.4v-.78l-14.6-9.06z"/><path class="cls-8" d="M239.14 272.42v-19.53l-14.6-9.03v19.5l14.6 9.06z"/><path class="cls-11" d="m233.63 267.49 4.06 2.53v-6.56l-4.06-2.52v6.55z"/><path class="cls-12" d="M257.54 263.36v-19.5l.55-.35v20.29l-15.15 9.4v-.78l14.6-9.06z"/><path class="cls-10" d="M242.94 272.42v-19.53l14.6-9.03v19.5l-14.6 9.06z"/><path class="cls-13" d="m222.09 239.68 18.95 11.73 18.95-11.73-18.95-11.74-18.95 11.74z"/><path class="cls-8" d="m256.06 239.91.63-.38-15.64-9.69-15.65 9.69.63.38 15.02-9.29 15.01 9.29z"/><path class="cls-9" d="m256.06 239.91-15.01-9.29-15.02 9.29 15.01 9.3 15.02-9.3z"/><path class="cls-14" d="M253.59 248.33v6.56l3.13-1.94v-6.55l-3.13 1.93zM248.95 251.15v6.55l3.13-1.94v-6.55l-3.13 1.94z"/><path class="cls-8" d="m220.58 246.28-.01-25.41 18.96-11.73v25.37l-18.95 11.77z"/><path class="cls-9" d="m220.58 246.28-.01-25.41-18.95-11.73v25.37l18.96 11.77z"/><path class="cls-10" d="M204.08 232.82v-19.5l-.55-.35v20.28l15.15 9.41v-.78l-14.6-9.06z"/><path class="cls-8" d="m218.68 241.88-.01-19.53-14.59-9.03v19.5l14.6 9.06z"/><path class="cls-11" d="m213.16 236.95 4.07 2.53v-6.56l-4.07-2.52v6.55z"/><path class="cls-12" d="M237.07 232.82v-19.5l.56-.35v20.28l-15.16 9.41v-.78l14.6-9.06z"/><path class="cls-10" d="m222.47 241.88.01-19.53 14.59-9.03v19.5l-14.6 9.06z"/><path class="cls-13" d="m201.62 209.14 18.95 11.73 18.96-11.73-18.95-11.74-18.96 11.74z"/><path class="cls-8" d="m235.59 209.37.63-.38-15.63-9.69-15.65 9.69.63.38 15.02-9.29 15 9.29z"/><path class="cls-9" d="m235.59 209.37-15-9.29-15.02 9.29 15.01 9.3 15.01-9.3z"/><path class="cls-14" d="M233.13 217.79v6.56l3.12-1.94v-6.56l-3.12 1.94zM228.49 220.61v6.55l3.12-1.94v-6.55l-3.12 1.94z"/><path class="cls-5" d="m111.48 179.81-37.47 24.71 1.17.83 37.58-24.76-1.28-.78z"/><path class="cls-6" d="m112.76 180.59-37.58 24.76v6.1l37.58-24.76v-6.1z"/><path class="cls-7" d="M74.01 210.69v-6.17l1.17.83v6.1l-1.17-.76z"/><path class="cls-5" d="m69.65 152.12-37.47 24.71 1.17.84 37.58-24.77-1.28-.78z"/><path class="cls-6" d="m70.93 152.9-37.58 24.76v6.1L70.93 159v-6.1z"/><path class="cls-7" d="M32.18 183v-6.17l1.17.83v6.1l-1.17-.76z"/><path class="cls-5" d="m89.96 165.28-37.47 24.71 1.17.84 37.58-24.77-1.28-.78z"/><path class="cls-6" d="m91.24 166.06-37.58 24.76v6.11l37.58-24.77v-6.1z"/><path class="cls-7" d="M52.49 196.16v-6.17l1.17.83v6.11l-1.17-.77z"/><path class="cls-7" d="m75.18 203.48-43-28.33v1.98l43 28.33v-1.98z"/><path class="cls-5" d="m79.69 200.61-4.51 2.87-43-28.33 4.49-2.87 43.02 28.33z"/><path class="cls-6" d="m79.69 200.61-4.51 2.87v3.68l4.51-2.99v-3.56z"/><path class="cls-7" d="m83.57 197.84-43.12-28.45v1.98l43.12 28.45v-1.98z"/><path class="cls-5" d="m88.08 194.97-4.51 2.87-43.12-28.45 4.48-2.87 43.15 28.45z"/><path class="cls-6" d="m88.08 194.97-4.51 2.87v3.68l4.51-2.99v-3.56z"/><path class="cls-7" d="m92.16 192.29-43.23-28.51v1.97l43.23 28.51v-1.97z"/><path class="cls-5" d="m96.66 189.42-4.5 2.87-43.23-28.51 4.49-2.87 43.24 28.51z"/><path class="cls-6" d="m96.66 189.42-4.5 2.87v3.68l4.5-3v-3.55z"/><path class="cls-7" d="m100.54 186.65-43.12-28.33v1.98l43.12 28.33v-1.98z"/><path class="cls-5" d="m105.05 183.78-4.51 2.87-43.12-28.33 4.49-2.87 43.14 28.33z"/><path class="cls-6" d="m105.05 183.78-4.51 2.87v3.68l4.51-2.99v-3.56z"/><path class="cls-7" d="m108.25 181.71-43.22-28.46v1.98l43.22 28.45v-1.97z"/><path class="cls-5" d="m112.76 178.83-4.51 2.88-43.22-28.46 4.49-2.87 43.24 28.45z"/><path class="cls-6" d="m112.76 178.83-4.51 2.88v3.67l4.51-2.99v-3.56z"/><path class="cls-15" d="M60.94 128.27v11.49c0 3.77 5.38 6.82 12 6.82s12-3.05 12-6.82v-11.49ZM60.94 152.06v12.51c0 3.77 5.38 6.82 12 6.82s12-3 12-6.82v-12.51Z"/><path class="cls-16" d="M85 128.27c0 3.77-5.38 6.82-12 6.82s-12-3.05-12-6.82 5.38-6.82 12-6.82 12 3.05 12 6.82ZM73 146.58c-6.64 0-12-3.05-12-6.82v12.4c.09 3.72 5.43 6.72 12 6.72s11.91-3 12-6.72v-12.4c0 3.77-5.4 6.82-12 6.82Z"/><path class="cls-17" d="M83.4 128.27c0 3.08-4.68 5.58-10.44 5.58s-10.44-2.5-10.44-5.58 4.67-5.58 10.44-5.58 10.44 2.49 10.44 5.58Z"/><path class="cls-15" d="M79.76 126.09c0 .44-.53.79-1.18.79s-1.19-.35-1.19-.79.53-.8 1.19-.8 1.18.35 1.18.8ZM39.74 141v11.49c0 3.77 5.38 6.83 12 6.83s12-3.06 12-6.83V141ZM39.74 164.79v12.52c0 3.76 5.38 6.82 12 6.82s12-3.06 12-6.82v-12.52Z"/><path class="cls-16" d="M63.77 141c0 3.77-5.38 6.82-12 6.82s-12-3-12-6.82 5.38-6.82 12-6.82 12 3.05 12 6.82ZM51.76 159.32c-6.64 0-12-3.06-12-6.83v12.4c.1 3.72 5.44 6.72 12 6.72s11.91-3 12-6.72v-12.4c.01 3.77-5.37 6.83-12 6.83Z"/><path class="cls-17" d="M62.19 141c0 3.08-4.67 5.58-10.43 5.58s-10.44-2.5-10.44-5.58 4.67-5.58 10.44-5.58 10.43 2.5 10.43 5.58Z"/><ellipse class="cls-15" cx="57.37" cy="138.82" rx="1.19" ry=".8"/><path class="cls-5" d="m183.51 222.91-37.47 24.7 1.17.84 37.58-24.76-1.28-.78z"/><path class="cls-6" d="m184.79 223.68-37.58 24.76v6.11l37.58-24.77v-6.1z"/><path class="cls-7" d="M146.04 253.78v-6.17l1.17.83v6.11l-1.17-.77z"/><path class="cls-5" d="m141.68 195.22-37.47 24.71 1.17.83L142.96 196l-1.28-.78z"/><path class="cls-6" d="m142.96 196-37.58 24.76v6.1l37.58-24.76V196z"/><path class="cls-7" d="M104.21 226.09v-6.16l1.17.83v6.1l-1.17-.77z"/><path class="cls-5" d="m161.99 208.38-37.47 24.71 1.17.84 37.58-24.77-1.28-.78z"/><path class="cls-6" d="m163.27 209.16-37.58 24.76v6.1l37.58-24.76v-6.1z"/><path class="cls-7" d="M124.52 239.26v-6.17l1.17.83v6.1l-1.17-.76z"/><path class="cls-7" d="m147.21 246.58-43-28.33v1.97l43 28.33v-1.97z"/><path class="cls-5" d="m151.72 243.7-4.51 2.88-43-28.33 4.48-2.88 43.03 28.33z"/><path class="cls-6" d="m151.72 243.7-4.51 2.88v3.68l4.51-3v-3.56z"/><path class="cls-7" d="m155.59 240.94-43.12-28.45v1.97l43.12 28.45v-1.97z"/><path class="cls-5" d="m160.1 238.06-4.51 2.88-43.12-28.45 4.49-2.88 43.14 28.45z"/><path class="cls-6" d="m160.1 238.06-4.51 2.88v3.68l4.51-3v-3.56z"/><path class="cls-7" d="m164.18 235.39-43.22-28.51v1.97l43.22 28.51v-1.97z"/><path class="cls-5" d="m168.69 232.51-4.51 2.88-43.22-28.51 4.48-2.88 43.25 28.51z"/><path class="cls-6" d="m168.69 232.51-4.51 2.88v3.67l4.51-2.99v-3.56z"/><path class="cls-7" d="m172.57 229.75-43.12-28.33v1.97l43.12 28.33v-1.97z"/><path class="cls-5" d="m177.07 226.87-4.5 2.88-43.12-28.33 4.48-2.88 43.14 28.33z"/><path class="cls-6" d="m177.07 226.87-4.5 2.88v3.68l4.5-3v-3.56z"/><path class="cls-7" d="m180.28 224.8-43.22-28.45v1.97l43.22 28.46v-1.98z"/><path class="cls-5" d="m184.79 221.93-4.51 2.87-43.22-28.45 4.48-2.88 43.25 28.46z"/><path class="cls-6" d="m184.79 221.93-4.51 2.87v3.68l4.51-2.99v-3.56z"/><path class="cls-15" d="M133 171.36v11.5c0 3.76 5.38 6.82 12 6.82s12-3.06 12-6.82v-11.5ZM133 195.15v12.52c0 3.77 5.38 6.82 12 6.82s12-3.05 12-6.82v-12.52Z"/><path class="cls-16" d="M157 171.36c0 3.77-5.38 6.83-12 6.83s-12-3.06-12-6.83 5.38-6.82 12-6.82 12 3.06 12 6.82ZM145 189.68c-6.63 0-12-3.06-12-6.82v12.39c.1 3.73 5.44 6.73 12 6.73s11.92-3 12-6.73v-12.39c0 3.76-5.38 6.82-12 6.82Z"/><path class="cls-17" d="M155.42 171.36c0 3.09-4.67 5.59-10.44 5.59s-10.43-2.5-10.43-5.59 4.67-5.58 10.43-5.58 10.44 2.5 10.44 5.58Z"/><path class="cls-15" d="M151.79 169.18c0 .44-.53.8-1.19.8s-1.19-.36-1.19-.8.54-.8 1.19-.8 1.19.36 1.19.8Z"/><path class="cls-18" d="M153.92 189v11.49c0 3.77 5.38 6.82 12 6.82s12-3.05 12-6.82V189ZM153.92 212.81v12.51c0 3.77 5.38 6.83 12 6.83s12-3.06 12-6.83v-12.51Z"/><ellipse class="cls-18" cx="165.94" cy="189.02" rx="12.02" ry="6.82"/><path class="cls-19" d="M165.94 207.33c-6.64 0-12-3.05-12-6.82v12.33c0 3.75 5.4 6.79 12 6.79s12-3 12-6.79v-12.33c.06 3.77-5.36 6.82-12 6.82Z"/><path class="cls-20" d="M176.38 189c0 3.08-4.68 5.58-10.44 5.58S155.5 192.1 155.5 189s4.67-5.58 10.44-5.58 10.44 2.52 10.44 5.58Z"/><path class="cls-14" d="M172.74 186.84c0 .44-.53.79-1.18.79s-1.19-.35-1.19-.79.53-.8 1.19-.8 1.18.36 1.18.8Z"/><path class="cls-15" d="M111.76 184.1v11.49c0 3.77 5.38 6.82 12 6.82s12-3 12-6.82V184.1ZM111.76 207.89v12.51c0 3.77 5.38 6.82 12 6.82s12-3.05 12-6.82v-12.51Z"/><path class="cls-16" d="M135.8 184.1c0 3.77-5.38 6.82-12 6.82s-12-3-12-6.82 5.38-6.82 12-6.82 12 3.05 12 6.82ZM123.78 202.41c-6.64 0-12-3-12-6.82V208c.1 3.72 5.43 6.72 12 6.72s11.92-3 12-6.72v-12.4c.02 3.76-5.36 6.81-12 6.81Z"/><path class="cls-17" d="M134.22 184.1c0 3.08-4.67 5.58-10.44 5.58s-10.44-2.5-10.44-5.58 4.68-5.58 10.44-5.58 10.44 2.48 10.44 5.58Z"/><ellipse class="cls-15" cx="129.4" cy="181.92" rx="1.19" ry=".8"/><path class="cls-18" d="M133 197.74v11.49c0 3.77 5.38 6.83 12 6.83s12-3.06 12-6.83v-11.49ZM133 221.53v12.52c0 3.76 5.38 6.82 12 6.82s12-3.06 12-6.82v-12.52Z"/><ellipse class="cls-18" cx="144.98" cy="197.74" rx="12.02" ry="6.82"/><path class="cls-19" d="M145 216.06c-6.63 0-12-3.06-12-6.83v12.34c0 3.75 5.4 6.78 12 6.78s12-3 12-6.78v-12.34c0 3.77-5.38 6.83-12 6.83Z"/><path class="cls-20" d="M155.42 197.74c0 3.08-4.67 5.58-10.44 5.58s-10.43-2.5-10.43-5.58 4.67-5.58 10.43-5.58 10.44 2.5 10.44 5.58Z"/><path class="cls-14" d="M151.79 195.56c0 .44-.53.8-1.19.8s-1.19-.36-1.19-.8.54-.8 1.19-.8 1.19.36 1.19.8Z"/><path class="cls-18" d="M81.47 145.66v11.49c0 3.77 5.38 6.82 12 6.82s12-3.05 12-6.82v-11.49ZM81.47 169.45V182c0 3.77 5.38 6.82 12 6.82s12-3.05 12-6.82v-12.55Z"/><ellipse class="cls-18" cx="93.49" cy="145.66" rx="12.02" ry="6.82"/><path class="cls-19" d="M93.49 164c-6.64 0-12-3.05-12-6.82v12.33c0 3.75 5.39 6.79 12 6.79s12-3 12-6.79v-12.36c.02 3.77-5.36 6.85-12 6.85Z"/><path class="cls-20" d="M103.93 145.66c0 3.08-4.67 5.58-10.44 5.58s-10.44-2.5-10.44-5.58 4.68-5.58 10.44-5.58 10.44 2.49 10.44 5.58Z"/><path class="cls-14" d="M100.3 143.48c0 .44-.53.79-1.19.79s-1.19-.35-1.19-.79.53-.8 1.19-.8 1.19.32 1.19.8Z"/><path class="cls-18" d="M60.52 154.38v11.49c0 3.77 5.38 6.82 12 6.82s12-3.05 12-6.82v-11.49ZM60.52 178.17v12.51c0 3.77 5.38 6.83 12 6.83s12-3.06 12-6.83v-12.51Z"/><ellipse class="cls-18" cx="72.54" cy="154.38" rx="12.02" ry="6.82"/><path class="cls-19" d="M72.54 172.69c-6.64 0-12-3.05-12-6.82v12.33c0 3.76 5.4 6.79 12 6.79s12-3 12-6.79v-12.33c.02 3.77-5.36 6.82-12 6.82Z"/><path class="cls-20" d="M83 154.38c0 3.08-4.68 5.58-10.44 5.58s-10.44-2.5-10.44-5.58 4.67-5.58 10.44-5.58S83 151.3 83 154.38Z"/><path class="cls-14" d="M79.34 152.2c0 .44-.53.8-1.18.8s-1.19-.36-1.19-.8.53-.8 1.19-.8 1.18.36 1.18.8Z"/><path class="cls-5" d="m324.47 305.95-37.94 23.48 1.19.79 38.04-23.53-1.29-.74z"/><path class="cls-6" d="m325.76 306.68-38.04 23.53v5.8l38.04-23.53v-5.8z"/><path class="cls-7" d="M286.53 335.29v-5.86l1.19.79v5.79l-1.19-.72z"/><path class="cls-5" d="m282.12 279.64-37.94 23.48 1.19.79 38.04-23.53-1.29-.74z"/><path class="cls-6" d="m283.41 280.37-38.04 23.53v5.8l38.04-23.53v-5.8z"/><path class="cls-7" d="M244.18 308.98v-5.86l1.19.78v5.8l-1.19-.72z"/><path class="cls-5" d="m302.68 292.14-37.93 23.48 1.18.8 38.04-23.54-1.29-.74z"/><path class="cls-6" d="m303.97 292.88-38.04 23.53v5.8l38.04-23.53v-5.8z"/><path class="cls-7" d="M264.75 321.48v-5.86l1.18.79v5.8l-1.18-.73z"/><path class="cls-7" d="m287.72 328.44-43.54-26.92v1.88l43.54 26.92v-1.88z"/><path class="cls-5" d="m292.28 325.71-4.56 2.73-43.54-26.92 4.54-2.73 43.56 26.92z"/><path class="cls-6" d="m292.28 325.71-4.56 2.73v3.5l4.56-2.85v-3.38z"/><path class="cls-7" d="m296.21 323.08-43.66-27.03v1.87l43.66 27.04v-1.88z"/><path class="cls-5" d="m300.77 320.35-4.56 2.73-43.66-27.03 4.54-2.74 43.68 27.04z"/><path class="cls-6" d="m300.77 320.35-4.56 2.73v3.5l4.56-2.85v-3.38z"/><path class="cls-7" d="m304.9 317.81-43.76-27.1v1.88l43.76 27.09v-1.87z"/><path class="cls-5" d="m309.46 315.07-4.56 2.74-43.76-27.1 4.54-2.73 43.78 27.09z"/><path class="cls-6" d="m309.46 315.07-4.56 2.74v3.49l4.56-2.84v-3.39z"/><path class="cls-7" d="m313.39 312.45-43.66-26.92v1.87l43.66 26.92v-1.87z"/><path class="cls-5" d="m317.95 309.72-4.56 2.73-43.66-26.92 4.54-2.73 43.68 26.92z"/><path class="cls-6" d="m317.95 309.72-4.56 2.73v3.49l4.56-2.84v-3.38z"/><path class="cls-7" d="m321.2 307.75-43.76-27.04v1.87l43.76 27.05v-1.88z"/><path class="cls-5" d="m325.76 305.02-4.56 2.73-43.76-27.04 4.54-2.73 43.78 27.04z"/><path class="cls-6" d="m325.76 305.02-4.56 2.73v3.49l4.56-2.84v-3.38z"/><path class="cls-8" d="m268.69 313.12-.01-25.41 18.95-11.73v25.37l-18.94 11.77z"/><path class="cls-9" d="m268.69 313.12-.01-25.41-18.95-11.73v25.37l18.96 11.77z"/><path class="cls-10" d="M252.19 299.66v-19.5l-.56-.35v20.29l15.16 9.4v-.78l-14.6-9.06z"/><path class="cls-8" d="m266.79 308.72-.01-19.53-14.59-9.03v19.5l14.6 9.06z"/><path class="cls-11" d="m261.27 303.79 4.07 2.53-.01-6.56-4.06-2.52v6.55z"/><path class="cls-12" d="M285.18 299.66v-19.5l.55-.35v20.29l-15.15 9.4v-.78l14.6-9.06z"/><path class="cls-10" d="m270.58 308.72.01-19.53 14.59-9.03v19.5l-14.6 9.06z"/><path class="cls-13" d="m249.73 275.98 18.95 11.73 18.95-11.73-18.94-11.74-18.96 11.74z"/><path class="cls-8" d="m283.7 276.21.63-.38-15.64-9.69-15.64 9.69.63.38 15.01-9.29 15.01 9.29z"/><path class="cls-9" d="m283.7 276.21-15.01-9.29-15.01 9.29 15.01 9.3 15.01-9.3z"/><path class="cls-14" d="M281.23 284.63v6.56l3.13-1.94v-6.56l-3.13 1.94zM276.59 287.45V294l3.13-1.94v-6.55l-3.13 1.94z"/><path class="cls-8" d="m303.27 316.86-.01-25.41 18.95-11.73v25.38l-18.94 11.76z"/><path class="cls-9" d="m303.27 316.86-.01-25.41-18.95-11.73v25.38l18.96 11.76z"/><path class="cls-10" d="M286.77 303.41V283.9l-.56-.35v20.29l15.15 9.4v-.78l-14.59-9.05z"/><path class="cls-8" d="M301.36 312.46v-19.53l-14.59-9.03v19.51l14.59 9.05z"/><path class="cls-11" d="m295.85 307.54 4.07 2.52-.01-6.56-4.06-2.52v6.56z"/><path class="cls-12" d="M319.76 303.41V283.9l.55-.35v20.29l-15.15 9.4v-.78l14.6-9.05z"/><path class="cls-10" d="M305.16 312.46v-19.53l14.6-9.03v19.51l-14.6 9.05z"/><path class="cls-13" d="m284.31 279.72 18.95 11.73 18.95-11.73-18.94-11.73-18.96 11.73z"/><path class="cls-8" d="m318.28 279.96.63-.39-15.64-9.68-15.64 9.68.62.39 15.02-9.3 15.01 9.3z"/><path class="cls-9" d="m318.28 279.96-15.01-9.3-15.02 9.3 15.02 9.29 15.01-9.29z"/><path class="cls-14" d="M315.81 288.37v6.56l3.13-1.94v-6.55l-3.13 1.93zM311.17 291.19v6.56l3.13-1.94v-6.56l-3.13 1.94z"/><path class="cls-8" d="M282.8 286.32v-25.41l18.95-11.73v25.38l-18.95 11.76z"/><path class="cls-9" d="M282.8 286.32v-25.41l-18.95-11.73v25.38l18.95 11.76z"/><path class="cls-10" d="M266.3 272.87v-19.51l-.55-.35v20.29l15.15 9.4v-.78l-14.6-9.05z"/><path class="cls-8" d="m280.9 281.92-.01-19.53-14.59-9.03v19.51l14.6 9.05z"/><path class="cls-11" d="m275.38 277 4.07 2.52v-6.56l-4.07-2.52V277z"/><path class="cls-12" d="M299.29 272.87v-19.51l.56-.35v20.29l-15.15 9.4v-.78l14.59-9.05z"/><path class="cls-10" d="M284.7 281.92v-19.53l14.59-9.03v19.51l-14.59 9.05z"/><path class="cls-13" d="m263.85 249.18 18.95 11.73 18.95-11.73-18.95-11.73-18.95 11.73z"/><path class="cls-8" d="m297.82 249.42.62-.39-15.63-9.69-15.65 9.69.63.39 15.02-9.3 15.01 9.3z"/><path class="cls-9" d="m297.82 249.42-15.01-9.3-15.02 9.3 15.01 9.29 15.02-9.29z"/><path class="cls-14" d="M295.35 257.83v6.56l3.13-1.94v-6.55l-3.13 1.93zM290.71 260.65v6.56l3.13-1.94v-6.56l-3.13 1.94z"/></g><g id="зданния"><path class="cls-21" d="m182.76 95.55 95.79 52.86 104.09-59.04-95.79-52.86-104.09 59.04z"/><path style="fill:#fcf6f8" d="m182.76 94.28 95.79 52.86L382.64 88.1l-95.79-52.86-104.09 59.04z"/><path class="cls-21" d="m182.76 95.55 3.77.81-3.77-2.08v1.27z"/><path class="cls-23" d="m278.55 148.41 104.09-59.04V88.1l-104.09 59.04v1.27z"/><path class="cls-24" d="m202.22 88.3 15.09-.9-.03-7.71-15.06 8.61z"/><path class="cls-25" d="M283.09 6.72v30.45l4.34 2.42V19.82l13.26 7.41v19.78l9.11 5.1V32.46l15.27 8.55v19.64l5.44 3.05 47.43 26.53V59.78l-47.42-46.54-47.43-6.52z"/><path class="cls-26" d="m374.92 88.54.36.21V57.1l-.36-.2v31.64zM371.25 86.49l.36.2v-33.2l-.36-.2v33.2zM367.88 84.6l.36.2V50.19l-.36-.21V84.6zM363.81 82.33l.36.2V46.19l-.36-.2v36.34zM360.25 80.34l.36.2V42.7l-.36-.2v37.84zM356.66 78.33l.36.2V39.17l-.36-.2v39.36zM353.46 76.53l.36.21V36.03l-.36-.2v40.7zM350.26 74.75l.36.2V32.89l-.36-.2v42.06zM346.61 72.7l.36.21v-43.6l-.36-.2V72.7zM343.08 70.73l.36.2V25.85l-.36-.2v45.08zM340.21 69.12l.36.2V23.03l-.36-.2v46.29zM337.11 67.39l.36.2.01-47.6-.37-.2v47.6zM334.25 65.79l.37.2v-48.8l-.37-.2v48.8zM331.38 64.19l.37.2V14.37l-.36-.2-.01 50.02zM328.34 62.48l.36.21V13.07l-.36-.2v49.61zM324.85 12.39l.04 28.52v19.64l.36.2V41.11l-.04-28.52-.36-.2zM322.39 39.51l.36.2V12.25l-.36-.2v27.46zM319.4 37.84l.36.2v-26.2l-.36-.2v26.2zM316.24 36.07l.36.2V11.4l-.36-.2v24.87zM313.46 34.51l.36.21v-23.7l-.36-.2v23.69zM310.41 32.81l.36.2V10.6l-.36-.2v22.41zM307.84 51.01l.36.2V10.25l-.36-.21v40.97zM305.2 49.54l.36.2V9.88l-.36-.2v39.86zM302.38 47.96l.37.2V9.5l-.37-.21v38.67zM299.71 26.54l.36.2V9.13l-.36-.2v17.61zM296.86 24.94l.36.2V8.74l-.36-.2v16.4zM294.19 23.45l.37.2V8.37l-.37-.2v15.28zM290.89 21.75l.36.2V7.92l-.36-.21v14.04zM288.35 20.18l.36.21V7.57l-.36-.2v12.81zM285.38 38.45l.36.2.01-31.49-.37-.2v31.49z"/><path class="cls-27" d="m292.76 138.92 85.18-48.69V59.78l-85.18 48.69v30.45zM224.64 100.79l85.17-48.69V21.65l-85.17 48.69v30.45z"/><path class="cls-27" d="m202.22 88.3 85.18-48.69V9.16l-85.18 48.69V88.3z"/><path class="cls-25" d="M197.92 55.41v30.45l4.34 2.43V68.51l13.25 7.41V95.7l9.11 5.1V81.16l15.27 8.54v19.64l5.45 3.05 47.42 26.53v-30.45l-47.42-46.54-47.42-6.52z"/><path class="cls-26" d="m289.75 137.24.36.2v-31.65l-.36-.2v31.65zM286.07 135.18l.36.2v-33.19l-.36-.21v33.2zM282.7 133.29l.36.21V98.88l-.36-.2v34.61zM278.63 131.02l.36.2V94.88l-.36-.2v36.34zM275.07 129.03l.37.2V91.39l-.36-.2-.01 37.84zM271.48 127.02l.36.2V87.87l-.36-.21v39.36zM268.28 125.23l.36.2V84.72l-.36-.2v40.71zM265.08 123.44l.36.2V81.58l-.36-.2v42.06zM261.43 121.39l.36.21V78l-.36-.2v43.59zM257.9 119.42l.36.2V74.54l-.36-.2v45.08zM255.03 117.81l.36.21v-46.3l-.36-.2v46.29zM251.94 116.08l.36.2V68.69l-.36-.21v47.6zM249.08 114.48l.36.21V65.88l-.36-.2v48.8zM246.21 112.88l.36.2V63.06l-.36-.2v50.02zM243.17 111.18l.36.2V61.76l-.36-.2v49.62zM239.68 61.08l.03 28.52v19.64l.36.21V89.8l-.03-28.52-.36-.2zM237.21 88.2l.36.2V60.94l-.36-.2V88.2zM234.22 86.53l.37.2v-26.2l-.37-.2v26.2zM231.06 84.76l.37.2V60.09l-.36-.2-.01 24.87zM228.29 83.2l.36.21v-23.7l-.36-.2V83.2zM225.24 81.5l.36.2V59.29l-.36-.2V81.5zM222.66 99.7l.36.21V58.94l-.36-.2V99.7zM220.03 98.23l.36.2V58.58l-.36-.2v39.85zM217.21 96.65l.36.21V58.19l-.36-.2v38.66zM214.54 75.23l.36.2V57.82l-.36-.2v17.61zM211.69 73.64l.36.2V57.43l-.36-.2v16.41zM209.02 72.14l.36.21V57.06l-.36-.2v15.28zM205.71 70.44l.37.2V56.61l-.37-.2v14.03zM203.18 68.88l.36.2V56.26l-.36-.2v12.82zM200.21 87.14l.36.2V55.85l-.36-.2v31.49z"/><path class="cls-28" d="m296.55 119.81 39.38-22.58v-6.56l-39.38 22.54v6.6z"/><path class="cls-29" d="m309.44 111.98 26.05-19.53v-.63l-28.39 21.5 2.34-1.34zM296.94 118.96l-.05.21.38-.21 26.07-20.64-2.26 1.29-24.14 19.35z"/><path class="cls-30" d="m296.55 119.81 39.38-22.58v-6.56l-39.38 22.54Zm.39-6.39 38.6-22.09V97l-38.6 22.13Z"/><path class="cls-30" d="m332.06 99.45.39-.22v-6.56l-.39.22v6.56zM328.57 101.46l.39-.23v-6.56l-.39.22v6.57zM325.07 103.46l.39-.22v-6.56l-.39.22v6.56zM321.57 105.46l.39-.23v-6.56l-.39.23v6.56zM318.36 107.3l.39-.22v-6.56l-.39.22v6.56zM314.86 109.3l.39-.22v-6.57l-.39.22v6.57zM311.37 111.3l.39-.23v-6.56l-.39.22v6.57zM307.87 113.29l.39-.23v-6.56l-.39.23v6.56zM304.25 115.34l.39-.22v-6.56l-.39.22v6.56zM300.75 117.35l.39-.22v-6.56l-.39.22v6.56z"/><path class="cls-28" d="m335.93 97.23 39.38-22.58v-6.56l-39.38 22.54v6.6z"/><path class="cls-29" d="m348.82 89.4 26.05-19.52v-.64l-28.39 21.5 2.34-1.34zM336.32 96.38l-.05.21.38-.21 26.07-20.64-2.25 1.29-24.15 19.35z"/><path class="cls-30" d="m335.93 97.23 39.38-22.58v-6.56l-39.38 22.54Zm.39-6.39 38.6-22.09v5.69l-38.6 22.12Z"/><path class="cls-30" d="m371.44 76.88.39-.23v-6.56l-.39.22v6.57zM367.95 78.88l.39-.23v-6.56l-.39.22v6.57zM364.45 80.89l.39-.23V74.1l-.39.22v6.57zM360.96 82.88l.39-.22v-6.57l-.39.23v6.56zM357.74 84.72l.39-.22v-6.56l-.39.22v6.56zM354.24 86.72l.39-.22v-6.57l-.39.23v6.56zM350.75 88.72l.39-.23v-6.56l-.39.22v6.57zM347.25 90.71l.39-.22v-6.57l-.39.23v6.56zM343.63 92.76l.39-.22v-6.56l-.39.22v6.56zM340.14 94.78l.38-.23v-6.56l-.38.22v6.57z"/><path class="cls-28" d="m203.79 66.03 10.46 5.99v-1.75l-10.46-5.98v1.74z"/><path class="cls-29" d="m203.91 64.76 6.92 5.19.62.35-7.54-5.71v.17zM207.73 66.66l-.6-.34 6.93 5.48.1.06-.02-.06-6.41-5.14z"/><path class="cls-30" d="m203.79 66 10.46 6v-1.73l-10.46-6Zm.11-1.56 10.24 5.86v1.52L203.9 66Z"/><path class="cls-30" d="m206.01 67.3.11.06v-1.74l-.11-.06v1.74zM207.87 68.36l.1.06v-1.74l-.1-.06v1.74zM209.65 69.38l.1.06V67.7l-.1-.06v1.74zM211.51 70.44l.1.06v-1.74l-.1-.06v1.74z"/><path class="cls-28" d="m203.79 64.31 10.46 5.99v-1.75l-10.46-5.98v1.74z"/><path class="cls-29" d="m203.91 63.04 6.92 5.18.62.36-7.54-5.71v.17zM207.73 64.94l-.6-.34 6.93 5.48.1.05-.02-.05-6.41-5.14z"/><path class="cls-30" d="m203.79 64.31 10.46 6v-1.76l-10.46-6Zm.11-1.57 10.24 5.87v1.52l-10.24-5.88Z"/><path class="cls-30" d="m206.01 65.58.11.06v-1.75l-.11-.06v1.75zM207.87 66.64l.1.06v-1.74l-.1-.06v1.74zM209.65 67.66l.1.06v-1.74l-.1-.06v1.74zM211.51 68.72l.1.06v-1.75l-.1-.06v1.75z"/><path class="cls-28" d="m203.79 67.78 10.46 5.99v-1.75l-10.46-5.98v1.74z"/><path class="cls-29" d="m203.91 66.51 6.92 5.18.62.36-7.54-5.71v.17zM207.73 68.41l-.6-.34 6.93 5.48.1.05-.02-.05-6.41-5.14z"/><path class="cls-30" d="m203.79 67.78 10.46 6V72l-10.46-6Zm.11-1.57 10.24 5.87v1.52l-10.24-5.88Z"/><path class="cls-30" d="m206.01 69.05.11.06v-1.75l-.11-.06v1.75zM207.87 70.11l.1.06v-1.74l-.1-.06v1.74zM209.65 71.13l.1.06v-1.74l-.1-.06v1.74zM211.51 72.19l.1.06V70.5l-.1-.06v1.75z"/><path class="cls-28" d="m227.12 79.56 10.45 6V83.8l-10.45-5.98v1.74z"/><path class="cls-29" d="m227.24 78.3 6.91 5.18.62.35-7.53-5.7v.17zM231.06 80.19l-.6-.34 6.93 5.48.1.06-.02-.06-6.41-5.14z"/><path class="cls-30" d="m227.12 79.56 10.46 6V83.8l-10.46-6Zm.1-1.56 10.25 5.86v1.52l-10.25-5.87Z"/><path class="cls-30" d="m229.34 80.83.1.06v-1.74l-.1-.06v1.74zM231.2 81.89l.1.06v-1.74l-.1-.06v1.74zM232.98 82.91l.1.06v-1.74l-.1-.06v1.74zM234.84 83.97l.1.06v-1.74l-.1-.06v1.74z"/><path class="cls-28" d="m227.12 77.84 10.45 5.99v-1.75l-10.45-5.98v1.74z"/><path class="cls-29" d="m227.24 76.57 6.91 5.18.62.36-7.53-5.71v.17zM231.06 78.47l-.6-.34 6.93 5.48.1.06-.02-.06-6.41-5.14z"/><path class="cls-30" d="m227.12 77.84 10.46 6v-1.76l-10.46-6Zm.1-1.57 10.25 5.87v1.52l-10.25-5.88Z"/><path class="cls-30" d="m229.34 79.11.1.06v-1.75l-.1-.05v1.74zM231.2 80.17l.1.06v-1.74l-.1-.06v1.74zM232.98 81.19l.1.06v-1.74l-.1-.06v1.74zM234.84 82.25l.1.06v-1.74l-.1-.06v1.74z"/><path class="cls-28" d="m227.12 81.31 10.45 5.99v-1.75l-10.45-5.98v1.74z"/><path class="cls-29" d="m227.24 80.04 6.91 5.18.62.36-7.53-5.71v.17zM231.06 81.94l-.6-.34 6.93 5.48.1.06-.02-.06-6.41-5.14z"/><path class="cls-30" d="m227.12 81.31 10.46 6v-1.76l-10.46-6Zm.1-1.56 10.25 5.86v1.52l-10.25-5.88Z"/><path class="cls-30" d="m229.34 82.58.1.06V80.9l-.1-.06v1.74zM231.2 83.64l.1.06v-1.74l-.1-.06v1.74zM232.98 84.66l.1.06v-1.74l-.1-.06v1.74zM234.84 85.72l.1.06v-1.74l-.1-.06v1.74z"/><path style="fill:#70a442" d="m245.34 61.93 47.42 50.02 87.07-50.43-49.31-48.28-85.18 48.69z"/><path style="fill:#7ec34c" d="m194.06 55.41 51.28 6.52 85.18-48.69-49.53-6.79-86.93 48.96z"/><path class="cls-33" d="m256.6 63.46 8.46 9.1 74.72-43.08-8.78-8.55-74.4 42.53z"/><path class="cls-30" d="m256.6 63.46 8.46 9.1 74.72-43.08-8.78-8.55Zm8.63 8.07-7.33-7.87 73-41.72 7.57 7.38Z"/><path class="cls-30" d="m269.37 56.32 8.32 8.94.31-.87-7.86-8.52-.77.45zM281.84 49.29l8.32 8.93.31-.87-7.85-8.52-.78.46zM294.36 41.94l8.32 8.93.31-.87-7.86-8.52-.77.46zM306.83 34.9l8.32 8.94.31-.87-7.86-8.52-.77.45zM319.57 27.73l8.09 8.69c.12-.09.25-.16.38-.24l.14-.39-7.86-8.52Z"/><path class="cls-33" d="m270.99 78.28 8.47 9.09 74.72-43.07-8.78-8.56-74.41 42.54z"/><path class="cls-30" d="m271 78.28 8.47 9.09 74.72-43.08-8.78-8.55Zm8.63 8.06-7.33-7.87 73-41.71 7.57 7.37Z"/><path class="cls-30" d="m283.77 71.14 8.31 8.93.31-.87-7.85-8.52-.77.46zM296.24 64.1l8.31 8.93.31-.87-7.85-8.52-.77.46zM308.75 56.75l8.32 8.94.31-.87-7.85-8.52-.78.45zM321.23 49.72l8.31 8.93.31-.87-7.85-8.52-.77.46zM334 42.54l8.09 8.69.38-.24.14-.39-7.85-8.52Z"/><path class="cls-33" d="m233.97 55.23 10.71 1.36 74.4-42.53-12.15-1.61-72.96 42.78z"/><path class="cls-30" d="m234 55.23 10.71 1.36 74.4-42.53-12.15-1.61Zm82.62-40.69L244.5 55.75l-8.06-1 70.67-41.44Z"/><path class="cls-30" d="m248 48.13-.56-.03-1.72.55 10.52 1.34-.18-.83-8.06-1.03zM261.25 40.53l-.55-.03-1.72.56 10.52 1.34-.18-.84-8.07-1.03zM272.64 33.24l-1.71.55 10.51 1.34 1.33-.64-9.57-1.22-.56-.03zM285.9 25.64l-1.72.56 10.52 1.34 1.56-.62-9.8-1.25-.56-.03zM297.28 18.65l-1.72.55 10.52 1.34 1.56-.61-9.8-1.25-.56-.03z"/><path class="cls-33" d="m215.37 52.93 10.7 1.36 74.41-42.53-12.16-1.61-72.95 42.78z"/><path class="cls-30" d="m215.37 52.93 10.7 1.36 74.41-42.53-12.16-1.61ZM298 12.24l-72.1 41.21-8.07-1L288.5 11Z"/><path class="cls-30" d="m229.39 45.83-.56-.03-1.71.55 10.51 1.34-.17-.83-8.07-1.03zM242.65 38.23l-.56-.03-1.72.56 10.52 1.34-.18-.84-8.06-1.03zM254.04 30.94l-1.72.55 10.52 1.34 1.32-.64-9.57-1.22-.55-.03zM267.3 23.34l-1.72.56 10.51 1.33 1.56-.61-9.8-1.25-.55-.03zM278.67 16.35l-1.71.55 10.51 1.34 1.56-.61-9.8-1.25-.56-.03z"/><path style="fill:#00b527" d="M194.06 55.41v1.45l51.28 6.66 47.42 50.44v-2.01l-47.42-50.02-51.28-6.52z"/><path style="fill:#006815" d="m292.76 113.96 87.07-51.1v-1.34l-87.07 50.43v2.01z"/><path class="cls-24" d="m224.62 100.8 15.09-.89-.03-7.72-15.06 8.61z"/><path d="m407 240.82-31.69.63v1.65c.63 7.52 11.93 8.87 11.93 8.87a25.37 25.37 0 0 0 13.43-1.55c6.62-2.87 6.33-7.32 6.33-7.32Z" style="fill:url(#Безымянный_градиент_15)"/><ellipse class="cls-37" cx="391.16" cy="241.45" rx="15.85" ry="9.15"/><path d="M405.55 204.92h-28.79v36.57c.58 6.83 10.84 8 10.84 8a23.08 23.08 0 0 0 12.2-1.4c6-2.61 5.75-6.65 5.75-6.65Z" style="fill:url(#Безымянный_градиент_15-2)"/><path class="cls-39" d="M401.33 199.05c-5.62-3.25-14.73-3.25-20.35 0s-5.62 8.5 0 11.75 14.73 3.24 20.35 0 5.67-8.51 0-11.75Z"/><path class="cls-40" d="M399.07 211.99v36.73l.3-.17v-36.74l-.3.18zM401.63 210.51v36.74l.31-.18v-36.73l-.31.17z"/><path class="cls-40" d="m399.22 214.73 2.57-1.48v-.66l-2.57 1.48v.66zM399.22 218.24l2.57-1.48v-.65l-2.57 1.48v.65zM399.22 221.76l2.57-1.48v-.66l-2.57 1.48v.66zM399.22 225.27l2.57-1.48v-.65l-2.57 1.48v.65zM399.22 228.13v.66l2.57-1.48v-.66l-2.57 1.48zM399.22 232.31l2.57-1.48v-.66l-2.57 1.48v.66zM399.22 235.82l2.57-1.48v-.65l-2.57 1.47v.66zM399.22 239.34l2.57-1.48v-.66l-2.57 1.48v.66zM399.22 242.85l2.57-1.48v-.65l-2.57 1.48v.65zM399.22 246.37l2.57-1.48v-.66l-2.57 1.48v.66z"/><path d="m442.15 219.78-31.69.64v1.65c.63 7.52 11.93 8.86 11.93 8.86a25.31 25.31 0 0 0 13.43-1.54c6.62-2.87 6.33-7.32 6.33-7.32Z" style="fill:url(#Безымянный_градиент_15-3)"/><path class="cls-37" d="M437.51 214c-6.19-3.57-16.22-3.57-22.41 0s-6.19 9.37 0 12.94 16.22 3.57 22.41 0 6.19-9.42 0-12.94Z"/><path d="M440.7 183.89h-28.79v36.56c.58 6.83 10.84 8.06 10.84 8.06a23 23 0 0 0 12.19-1.41c6-2.61 5.76-6.65 5.76-6.65Z" style="fill:url(#Безымянный_градиент_15-4)"/><path class="cls-39" d="M436.48 178c-5.62-3.24-14.73-3.24-20.35 0s-5.62 8.51 0 11.75 14.73 3.25 20.35 0 5.62-8.49 0-11.75Z"/><path class="cls-40" d="M434.22 190.95v36.74l.3-.17v-36.74l-.3.17zM436.78 189.47v36.74l.31-.17-.01-36.74-.3.17z"/><path class="cls-40" d="m434.37 193.69 2.57-1.48v-.65l-2.57 1.48v.65zM434.37 197.21l2.57-1.48v-.66l-2.57 1.48v.66zM434.37 200.72l2.57-1.48v-.65l-2.57 1.48v.65zM434.37 204.24l2.57-1.48v-.66l-2.57 1.48v.66zM434.37 207.75l2.57-1.48v-.65l-2.57 1.48v.65zM434.37 211.27l2.57-1.48v-.66l-2.57 1.48v.66zM434.37 214.78l2.57-1.47v-.66l-2.57 1.48v.65zM434.37 218.3l2.57-1.48v-.66l-2.57 1.48v.66zM434.37 221.82l2.57-1.48v-.66l-2.57 1.48v.66zM434.37 225.33l2.57-1.48v-.65l-2.57 1.48v.65z"/><path d="m479.68 197.61-31.69.63v1.65c.62 7.52 11.93 8.87 11.93 8.87a25.33 25.33 0 0 0 13.42-1.55c6.62-2.87 6.34-7.32 6.34-7.32Z" style="fill:url(#Безымянный_градиент_15-5)"/><ellipse class="cls-37" cx="463.83" cy="198.24" rx="15.85" ry="9.15"/><path d="M478.22 161.71h-28.78v36.57c.57 6.83 10.84 8.05 10.84 8.05a23 23 0 0 0 12.19-1.4c6-2.61 5.75-6.65 5.75-6.65Z" style="fill:url(#Безымянный_градиент_15-6)"/><path class="cls-39" d="M474 155.84c-5.62-3.25-14.73-3.25-20.35 0s-5.62 8.5 0 11.75 14.73 3.24 20.35 0 5.63-8.51 0-11.75Z"/><path class="cls-40" d="M471.75 168.78v36.73l.3-.17V168.6l-.3.18zM474.31 167.3v36.73l.3-.17v-36.73l-.3.17z"/><path class="cls-40" d="m471.9 171.52 2.56-1.48v-.66l-2.56 1.48v.66zM471.9 175.03l2.56-1.48v-.65l-2.56 1.48v.65zM471.9 178.55l2.56-1.48v-.66l-2.56 1.48v.66zM471.9 182.06l2.56-1.48v-.65l-2.56 1.48v.65zM471.9 185.58l2.56-1.48v-.66l-2.56 1.48v.66zM471.9 189.09l2.56-1.47v-.66l-2.56 1.48v.65zM471.9 192.61l2.56-1.48v-.66l-2.56 1.48v.66zM471.9 196.13l2.56-1.48v-.66l-2.56 1.48v.66zM471.9 199.64l2.56-1.48v-.65l-2.56 1.48v.65zM471.9 203.16l2.56-1.48v-.66l-2.56 1.48v.66z"/><path d="m514.83 176.57-31.7.64v1.65c.63 7.52 11.94 8.86 11.94 8.86a25.22 25.22 0 0 0 13.42-1.55c6.62-2.87 6.34-7.31 6.34-7.31Z" style="fill:url(#Безымянный_градиент_15-7)"/><path class="cls-37" d="M510.19 170.74c-6.19-3.57-16.22-3.57-22.41 0s-6.19 9.37 0 12.94 16.22 3.57 22.41 0 6.19-9.37 0-12.94Z"/><path d="M513.37 140.68h-28.78v36.56c.57 6.83 10.84 8.06 10.84 8.06a23 23 0 0 0 12.19-1.41c6-2.61 5.75-6.65 5.75-6.65Z" style="fill:url(#Безымянный_градиент_15-8)"/><path class="cls-39" d="M509.16 134.8c-5.62-3.24-14.73-3.24-20.35 0s-5.62 8.51 0 11.75 14.73 3.25 20.35 0 5.62-8.5 0-11.75Z"/><path class="cls-40" d="M506.9 147.74v36.74l.3-.17v-36.74l-.3.17zM509.46 183l.3-.17v-36.74l-.3.17V183z"/><path class="cls-40" d="m507.05 150.48 2.56-1.48v-.65l-2.56 1.48v.65zM507.05 154l2.56-1.48v-.66l-2.56 1.48v.66zM507.05 157.51l2.56-1.48v-.65l-2.56 1.48v.65zM507.05 161.03l2.56-1.48v-.66l-2.56 1.48v.66zM507.05 164.54l2.56-1.48v-.65l-2.56 1.48v.65zM507.05 168.06l2.56-1.48v-.66l-2.56 1.48v.66zM507.05 171.57l2.56-1.48v-.65l-2.56 1.48v.65zM507.05 175.09l2.56-1.48v-.65l-2.56 1.47v.66zM507.05 178.6l2.56-1.47v-.66l-2.56 1.48v.65zM507.05 182.12l2.56-1.48v-.65l-2.56 1.47v.66z"/><path class="cls-21" d="m508.25 137-3.31-1.95-122.93 70.97 3.31 1.96 3.36-1.94 9.06 5.23 3.34-1.93-9.05-5.23 32.65-18.89 8.57 4.95 3.35-1.93-8.6-4.96 34.7-20 8.08 4.67 3.35-1.93-8.09-4.68 32.41-18.67 7.43 4.27 3.35-1.93-7.47-4.23 6.49-3.78z"/><path style="fill:#755f6b" d="m508.23 136.02-3.31-1.96-122.93 70.98 3.31 1.95 3.36-1.94 9.06 5.23 3.35-1.93-9.06-5.23 32.65-18.88 8.57 4.95 3.35-1.93-8.6-4.97 34.7-19.99 8.08 4.66 3.35-1.93-8.09-4.67 32.41-18.67 7.43 4.27 3.35-1.94-7.47-4.22 6.49-3.78z"/><path class="cls-37" d="m508.23 136-3.31-2L382 205l3.31 2 3.36-1.94 9.06 5.23 3.35-1.93-9.08-5.24 32.65-18.88 8.57 4.95 3.35-1.93-8.6-5 34.7-20 8.08 4.66 3.35-1.93-8.1-4.63 32.41-18.67 7.43 4.27 3.35-1.94-7.47-4.22Zm-.34 8-2 1.17-7.1-4.08-.33-.19-.33.19-32.41 18.67-1 .57 1 .57 7.11 4.1-2 1.17-7.83-4.44-.33-.19-.33.19-34.7 20-1 .57 1 .57 7.62 4.4-2 1.17-8.26-4.77-.33-.19-.33.19-32.65 18.88-1 .57 1 .57 8.07 4.66-2 1.18-8.73-5-.33-.19-.33.19-3 1.74-2-1.18L505 134.86l2 1.19-5.52 3.22-1 .57 1 .57Z"/><path class="cls-21" d="m382.01 206.02.94.56v-.97l-.96-.57.02.98z"/><path class="cls-23" d="m385.3 206.99.02.99 3.36-1.94-.02-.99-3.36 1.94zM397.72 210.28l.02.99 3.34-1.93-.01-.99-3.35 1.93zM392.01 203.12l.85.49 31.82-18.39-.02-.98-32.65 18.88zM433.23 189.19l.02.98 3.35-1.93-.02-.98-3.35 1.93zM427.98 182.29l.88.51 33.84-19.52-.02-.98-34.7 19.99zM470.76 166.96l.02.99 3.35-1.93-.02-.99-3.35 1.93zM466.02 160.36l.86.49 31.57-18.18-.02-.98-32.41 18.67zM501.74 139.8l.87.49 5.64-3.29-.02-.98-6.49 3.78zM505.86 145.96l.02.98 3.35-1.93-.02-.99-3.35 1.94z"/><path d="M404 90.24a121.07 121.07 0 0 1 2.47-19.52h-28.61s3 11.41 2.22 19.78-6.34 25.28-6.18 27.64c0 0-1.66 11.14 18.28 11.56s18.28-11.56 18.28-11.56-6.67-18.51-6.46-27.9Z" style="fill:url(#Безымянный_градиент_15-9)"/><path class="cls-24" d="M402.82 62c-5.87-3.39-15.4-3.39-21.28 0s-5.87 8.89 0 12.29 15.41 3.39 21.28 0 5.88-8.92 0-12.29Z"/><path d="M429.55 105.15A121.07 121.07 0 0 1 432 85.63h-28.63s3 11.41 2.22 19.78-6.34 25.28-6.17 27.64c0 0-1.67 11.14 18.28 11.56s18.3-11.56 18.3-11.56-6.69-18.51-6.45-27.9Z" style="fill:url(#Безымянный_градиент_15-10)"/><path class="cls-24" d="M428.34 76.89c-5.88-3.39-15.41-3.39-21.28 0s-5.88 8.89 0 12.29 15.4 3.39 21.28 0 5.87-8.9 0-12.29Z"/><path class="cls-21" d="m353.7 132.71 47.73 27.55v-30.94l-47.73-27.55v30.94z"/><path class="cls-23" d="M401.43 129.32v30.94l18.68-10.79v-30.94l-18.68 10.79z"/><path class="cls-37" d="m353.7 101.77 47.73 27.55 18.68-10.79-47.72-27.54-18.69 10.78z"/><path class="cls-21" d="m372.44 93.31 44.24 25.83 1.41-.84-45.65-26.35v1.36z"/><path class="cls-23" d="m356.45 102.38 15.99-9.07v-1.36l-17.09 9.86 1.1.57z"/><path class="cls-50" d="m356.7 120.66 7.58 4.37v-14.38l-7.58-4.38v14.39z"/><path class="cls-29" d="m356.91 107.82 6.54 16.39.51.29-6.58-17.44-.47.76zM358.53 107.72l4.85 10.08L359 108l-.47-.28zM361.29 122.96l.34-.06-3.44-7.13 3.1 7.19z"/><path class="cls-30" d="m356.7 120.66 7.58 4.37v-14.38l-7.58-4.38Zm.68-13.22 6.23 3.6v12.83l-6.23-3.6Z"/><path class="cls-50" d="m367.89 126.77 7.57 4.37v-14.39l-7.57-4.37v14.39z"/><path class="cls-29" d="m368.09 113.92 6.55 16.39.5.3-6.58-17.44-.47.75zM369.71 113.83l4.86 10.08-4.39-9.81-.47-.27zM372.48 129.07l.33-.07-3.44-7.13 3.11 7.2z"/><path class="cls-30" d="m367.89 126.77 7.57 4.37v-14.39l-7.58-4.37Zm.67-13.22 6.23 3.59V130l-6.23-3.59Z"/><path class="cls-50" d="m379.07 133.42 7.58 4.37v-14.38l-7.58-4.38v14.39z"/><path class="cls-29" d="m379.27 120.58 6.55 16.39.51.29-6.58-17.44-.48.76zM380.89 120.48l4.86 10.08-4.38-9.8-.48-.28zM383.66 135.72l.34-.06-3.44-7.13 3.1 7.19z"/><path class="cls-30" d="m379.07 133.42 7.58 4.37v-14.38l-7.58-4.41Zm.68-13.22 6.22 3.6v12.83l-6.22-3.6Z"/><path class="cls-50" d="m390.26 139.81 7.57 4.37v-14.39l-7.57-4.37v14.39z"/><path class="cls-29" d="m390.46 126.97 6.55 16.39.5.29-6.58-17.44-.47.76zM392.08 126.87l4.86 10.08-4.39-9.81-.47-.27zM394.85 142.11l.33-.07-3.44-7.13 3.11 7.2z"/><path class="cls-30" d="m390.26 139.81 7.57 4.37v-14.39l-7.57-4.37Zm.67-13.22 6.23 3.59V143l-6.23-3.59Z"/><path class="cls-50" d="m412.43 138.24 6.98-4.03v-13.25l-6.98 4.03v13.25z"/><path class="cls-29" d="m412.73 137.75.46-.27 6.03-15.1-.44-.7-6.05 16.07zM413.25 131.58l4.48-9.29-.44.25-4.04 9.04zM415.18 136.33l2.86-6.63-3.17 6.57.31.06z"/><path class="cls-30" d="m412.43 138.24 7-4V121l-7 4Zm.62-12.9 5.73-3.31v11.82l-5.73 3.31Z"/><path class="cls-50" d="m402.13 143.86 6.98-4.03v-13.25l-6.98 4.03v13.25z"/><path class="cls-29" d="m402.43 143.37.46-.27 6.03-15.1-.44-.69-6.05 16.06zM402.95 137.2l4.48-9.28-.44.25-4.04 9.03zM404.88 141.95l2.86-6.63-3.17 6.57.31.06z"/><path class="cls-30" d="m402.13 143.86 7-4v-13.28l-7 4Zm.62-12.89 5.73-3.31v11.81l-5.73 3.31Z"/><path class="cls-21" d="m360.25 102.96 12.2 7.04 12.2-7.04-12.2-7.04-12.2 7.04z"/><path class="cls-21" d="m359.34 103 13.11 7.57 13.11-7.57-13.11-7.57Zm13.11 6.52L361.16 103l11.29-6.52 11.29 6.52Z"/><path class="cls-21" d="m361.45 103.38.81.47 11.97-6.91-.81-.47-11.97 6.91zM362.85 104.33l.82.47 11.97-6.91-.81-.47-11.98 6.91zM364.67 105.17l.81.47 11.98-6.91-.81-.47-11.98 6.91zM366.08 106.12l.81.47 11.97-6.91-.81-.47-11.97 6.91zM367.57 107.02l.81.47 11.98-6.91-.81-.47-11.98 6.91zM368.98 107.97l.81.47 11.97-6.91-.81-.47-11.97 6.91zM370.8 108.81l.81.47 11.97-6.91-.81-.47-11.97 6.91z"/><path class="cls-29" d="m360.23 101.8 12.2 7.04 12.2-7.04-12.2-7.05-12.2 7.05z"/><path class="cls-30" d="m359.32 101.8 13.11 7.57 13.11-7.57-13.11-7.57Zm13.11 6.52-11.29-6.52 11.29-6.52 11.29 6.52Z"/><path class="cls-30" d="m361.43 102.22.81.47 11.97-6.91-.81-.47-11.97 6.91zM362.83 103.17l.81.47 11.98-6.91-.81-.47-11.98 6.91zM364.65 104.01l.81.47 11.98-6.91-.81-.47-11.98 6.91zM366.06 104.96l.81.47 11.97-6.91-.81-.47-11.97 6.91zM367.55 105.86l.81.47 11.98-6.91-.81-.47-11.98 6.91zM368.96 106.81l.81.47 11.97-6.91-.81-.47-11.97 6.91zM370.78 107.65l.81.47 11.97-6.91-.81-.47-11.97 6.91z"/><path class="cls-21" d="m359.34 102.96 2.36 1.36.17-1.05-2.55-1.47.02 1.16z"/><path class="cls-23" d="m372.43 109.37.02 1.16 13.11-7.57-.02-1.16-13.11 7.57z"/><path class="cls-21" d="m374.72 111.63 12.2 7.04 12.2-7.04-12.2-7.04-12.2 7.04z"/><path class="cls-21" d="m373.81 111.63 13.11 7.57 13.08-7.57-13.11-7.57Zm13.11 6.52-11.29-6.52 11.29-6.52 11.29 6.52Z"/><path class="cls-21" d="m375.92 112.05.81.47 11.97-6.91-.81-.47-11.97 6.91zM377.32 113l.81.47 11.98-6.91-.81-.47-11.98 6.91zM379.14 113.84l.81.47 11.98-6.91-.81-.47-11.98 6.91zM380.55 114.79l.81.47 11.97-6.91-.81-.47-11.97 6.91zM382.04 115.69l.81.47 11.98-6.91-.81-.47-11.98 6.91zM383.45 116.64l.81.47 11.97-6.91-.81-.47-11.97 6.91zM385.27 117.48l.81.47 11.97-6.91-.81-.47-11.97 6.91z"/><path class="cls-29" d="m374.7 110.47 12.2 7.04 12.2-7.04-12.2-7.04-12.2 7.04z"/><path class="cls-30" d="M373.79 110.47 386.9 118l13.1-7.57-13.1-7.57ZM386.9 117l-11.3-6.52 11.3-6.48 11.29 6.52Z"/><path class="cls-30" d="m375.9 110.89.81.47 11.97-6.91-.81-.47-11.97 6.91zM377.3 111.84l.81.47 11.98-6.91-.82-.47-11.97 6.91zM379.12 112.68l.81.47 11.97-6.91-.81-.47-11.97 6.91zM380.52 113.63l.82.47 11.97-6.91-.81-.47-11.98 6.91zM382.02 114.53l.81.47 11.98-6.91-.81-.47-11.98 6.91zM383.43 115.48l.81.47 11.97-6.91-.81-.47-11.97 6.91zM385.25 116.32l.81.47 11.97-6.91-.81-.47-11.97 6.91z"/><path class="cls-21" d="m373.81 111.63 2.36 1.36.17-1.05-2.55-1.47.02 1.16z"/><path class="cls-23" d="m386.9 118.04.02 1.16 13.1-7.57-.02-1.16-13.1 7.57z"/><path class="cls-21" d="m389.24 119.94 12.2 7.05 12.2-7.05-12.2-7.04-12.2 7.04z"/><path class="cls-21" d="m388.33 119.94 13.11 7.57 13.1-7.57-13.1-7.56Zm13.11 6.52-11.3-6.52 11.3-6.52 11.29 6.52Z"/><path class="cls-21" d="m390.44 120.37.81.46 11.97-6.91-.81-.47-11.97 6.92zM391.84 121.32l.81.47 11.98-6.92-.82-.47-11.97 6.92zM393.66 122.16l.81.47 11.98-6.92-.82-.47-11.97 6.92zM395.06 123.11l.82.47 11.97-6.92-.81-.47-11.98 6.92zM396.56 124.01l.81.47 11.98-6.92-.81-.47-11.98 6.92zM397.97 124.96l.81.47 11.97-6.92-.81-.46-11.97 6.91zM399.79 125.8l.81.47 11.97-6.92-.81-.46-11.97 6.91z"/><path class="cls-29" d="m389.22 118.78 12.2 7.05 12.2-7.05-12.2-7.04-12.2 7.04z"/><path class="cls-30" d="m388.31 118.78 13.11 7.57 13.1-7.57-13.1-7.56Zm13.11 6.52-11.3-6.52 11.3-6.52 11.29 6.52Z"/><path class="cls-30" d="m390.42 119.2.81.47 11.97-6.91-.81-.47-11.97 6.91zM391.82 120.16l.81.47 11.98-6.92-.82-.47-11.97 6.92zM393.64 121l.81.46 11.98-6.91-.82-.47-11.97 6.92zM395.04 121.95l.82.47 11.97-6.92-.81-.47-11.98 6.92zM396.54 122.85l.81.46 11.98-6.91-.82-.47-11.97 6.92zM397.95 123.8l.81.47 11.97-6.92-.81-.46-11.97 6.91zM399.76 124.64l.82.47 11.97-6.92-.81-.47-11.98 6.92z"/><path class="cls-21" d="m388.33 119.94 2.36 1.37.17-1.06-2.55-1.47.02 1.16z"/><path class="cls-23" d="m401.42 126.35.02 1.16 13.11-7.57-.03-1.16-13.1 7.57z"/><g style="clip-path:url(#clip-path)"><path class="cls-24" d="M402.82 62c-5.87-3.39-15.4-3.39-21.28 0s-5.87 8.89 0 12.29 15.41 3.39 21.28 0 5.88-8.92 0-12.29Z"/><path class="cls-52" d="M401.44 65.58c-5-2.86-13-2.86-18 0s-5 7.51 0 10.38 13 2.86 18 0 4.96-7.51 0-10.38Z"/><ellipse class="cls-53" cx="392.18" cy="72.33" rx="11.07" ry="6.39"/></g><g style="clip-path:url(#clip-path-2)"><path class="cls-24" d="M428.34 76.89c-5.88-3.39-15.41-3.39-21.28 0s-5.88 8.89 0 12.29 15.4 3.39 21.28 0 5.87-8.9 0-12.29Z"/><path class="cls-52" d="M427 80.49c-5-2.86-13-2.86-18 0s-5 7.51 0 10.38 13 2.86 18 0 4.91-7.51 0-10.38Z"/><ellipse class="cls-53" cx="417.7" cy="87.24" rx="11.07" ry="6.39"/></g></g><g id="люди"><path class="cls-55" d="M321.3 162.21a57.49 57.49 0 0 0-5.76 7.46l-6.93 4v6.2l14.91-8.73a6.08 6.08 0 0 1-.36-2.17c0-3.37 2.07-7.28 4.62-8.74a3.63 3.63 0 0 1 1.89-.54v-2.91a25.26 25.26 0 0 0-8.37 5.43Z"/><path class="cls-56" d="M322 162.92a53 53 0 0 0-5.51 7.34l-7.18 4.1v6.2l14.91-8.74a6 6 0 0 1-.36-2.16c0-3.37 2.06-7.29 4.61-8.75a3.78 3.78 0 0 1 1.9-.54v-2.91a25.34 25.34 0 0 0-8.37 5.46Z"/><path class="cls-57" d="m328.29 158.43-1.05-.58v-33.68l2.1-1.95-1.05 36.21z"/><path class="cls-56" d="m330.39 158.36-2.1 1.2v-35.39l2.1-1.95v36.14z"/><path class="cls-55" d="M329.27 120.45 317.73 127c-3.56 2-6.61 7.11-7.29 12.11l-2.24 34.65 1.11.87 1-2.13 2-32.68c.6-4.38 3.27-8.82 6.38-10.6l10.58-6Z"/><path class="cls-55" d="m330.39 121.28-1.12-.83-1.47.83 1.4 1.23 1.19-1.23z"/><path class="cls-56" d="m330.39 121.28-11.55 6.54c-3.55 2-6.61 7.11-7.29 12.11l-2.23 34.43v.44l2.14-1.47 2-32.69c.6-4.37 3.27-8.82 6.38-10.6l10.59-6Z"/><path class="cls-57" d="M311.08 180.18c0 2.71-1.66 5.86-3.71 7s-3.71-.07-3.71-2.78 1.66-5.86 3.71-7 3.71.07 3.71 2.78Z"/><path class="cls-57" d="m307.75 188.96-2.69-1.5 4.8-10.21 2.57 1.42-4.68 10.29z"/><path class="cls-58" d="M313.87 181.72c0 2.71-1.67 5.86-3.71 7s-3.72-.07-3.72-2.78 1.67-5.86 3.72-7 3.71.06 3.71 2.78Z"/><path class="cls-11" d="M313.06 182.27a6.89 6.89 0 0 1-2.9 5.5c-1.61.92-2.91-.06-2.91-2.18a6.87 6.87 0 0 1 2.91-5.5c1.6-.91 2.9.06 2.9 2.18Z"/><path class="cls-57" d="M312.35 182.68a5.18 5.18 0 0 1-2.19 4.15c-1.21.69-2.2 0-2.2-1.64a5.19 5.19 0 0 1 2.2-4.15c1.21-.7 2.19.04 2.19 1.64Z"/><path class="cls-11" d="M311 183.45a2 2 0 0 1-.83 1.59c-.47.26-.84 0-.84-.63a2 2 0 0 1 .84-1.58c.45-.26.83.02.83.62Z"/><path class="cls-59" d="m349.84 170-19.45-11.12a24.63 24.63 0 0 0-7.49 5.06 56.82 56.82 0 0 0-5.76 7.46l-5.52 3.17v6.2l9-5.27 16.59 10.1Z"/><path class="cls-60" d="m329.02 143.57 1.37-.86 1.51.86-1.75 1.52-1.13-1.52z"/><path class="cls-60" d="m351.28 154.67-20.89-11.96v15.82l20.89 11.95v-15.81z"/><path class="cls-57" d="m344.98 136.17-20.48-11.59v.98l20.48 11.77v-1.16z"/><path class="cls-61" d="m345.25 172.72 3.54-2.03-19.78-11.34-3.31 2.15 19.55 11.22z"/><path class="cls-58" d="m349.92 155.54-20.9-11.97v15.82l20.9 11.96v-15.81z"/><path class="cls-57" d="M351 175.6c0 2.71-1.66 5.86-3.71 7s-3.71-.07-3.71-2.78 1.66-5.85 3.71-7 3.71.07 3.71 2.78Z"/><path class="cls-57" d="m347.65 184.38-2.69-1.5 4.79-10.21 2.57 1.42-4.67 10.29z"/><path class="cls-58" d="M353.76 177.14c0 2.71-1.66 5.86-3.71 7s-3.71-.07-3.71-2.78 1.66-5.85 3.71-7 3.71.08 3.71 2.78Z"/><path class="cls-11" d="M353 177.69a6.85 6.85 0 0 1-2.91 5.5c-1.6.92-2.9-.05-2.9-2.17a6.87 6.87 0 0 1 2.9-5.5c1.57-.92 2.91.05 2.91 2.17Z"/><path class="cls-57" d="M352.24 178.1a5.18 5.18 0 0 1-2.19 4.15c-1.21.69-2.19 0-2.19-1.64a5.18 5.18 0 0 1 2.19-4.15c1.21-.69 2.19.04 2.19 1.64Z"/><path class="cls-11" d="M350.89 178.88a2 2 0 0 1-.84 1.58c-.46.26-.83 0-.83-.63a2 2 0 0 1 .83-1.58c.46-.25.84.02.84.63Z"/><path class="cls-55" d="M308.2 173.63v6.21l22.67 12.97v-6.2l-22.67-12.98z"/><path class="cls-55" d="M342.85 174.47a54.24 54.24 0 0 0-5.64 7.56l-7.06 3.88v6.21l14.91-8.74a6 6 0 0 1-.36-2.16c0-3.37 2.07-7.29 4.62-8.75a3.63 3.63 0 0 1 1.89-.54V169a25.21 25.21 0 0 0-8.36 5.47Z"/><path class="cls-56" d="M343.55 175.17a53 53 0 0 0-5.51 7.34l-7.18 4.1v6.2l14.91-8.73a5.87 5.87 0 0 1-.36-2.17c0-3.37 2.06-7.28 4.61-8.74a3.59 3.59 0 0 1 1.9-.54v-2.92a25.5 25.5 0 0 0-8.37 5.46Z"/><path class="cls-57" d="M331.59 171.58a18.73 18.73 0 0 1-3.64-1.41 13.65 13.65 0 0 1-3.29-2.55 1.61 1.61 0 0 1 .32-2.53l4.3-2.46a4 4 0 0 1 4.41-.18c.9.68 2.7 2.21 3.6 2.72s2.52.89 3.33 1.25c1.07.46 1 1.78-.31 2.52L336 171.4c-1.29.75-3.34.46-4.41.18Z"/><path class="cls-57" d="M328 165.18s-3.25-1.62-3.49-.77a7.44 7.44 0 0 0-.29 1.86l3.78.22ZM341 165.27c-.53-.73-3.69.88-3.69.88v1.56l4-.32a3.42 3.42 0 0 0-.31-2.12Z"/><path class="cls-62" d="M331.63 169.59a18.16 18.16 0 0 1-3.52-1.37 15.39 15.39 0 0 1-3.18-2.47 1.54 1.54 0 0 1 .31-2.44l4.16-2.38a3.91 3.91 0 0 1 4.26-.17c.87.65 2.61 2.14 3.47 2.63s2.44.86 3.23 1.2c1 .45.95 1.73-.3 2.44l-4.16 2.38c-1.26.72-3.23.44-4.27.18Z"/><path class="cls-57" d="M343.1 162.89v-7.28c0-2.56-1.58-5.55-3.51-6.65l-1.83-1.05c-1.93-1.11-3.51.08-3.51 2.63v7.29Z"/><path class="cls-63" d="m335.43 147.75-1.5.89 1.34.88.16-1.77z"/><path class="cls-57" d="m341.64 163.75 1.46-.86-1.73-1.68.27 2.54z"/><path class="cls-62" d="M341.64 163.76v-7.29c0-2.56-1.58-5.55-3.51-6.65l-1.83-1c-1.93-1.11-3.51.08-3.51 2.63v7.29Z"/><path class="cls-57" d="m330.87 186.62 7.17-4.11-22.5-12.84-7.2 4.08 22.53 12.87z"/><path class="cls-17" d="M331.17 144.31s-1.06-.06-2.16 2-2.14 4.21-2.14 4.21a7 7 0 0 1 3.33 1.81c2.37-2.14 2.8-7.03.97-8.02Z"/><path d="M331.17 144.31a16.46 16.46 0 0 0-1.15 3.21c-.55 2.09-.35 11.77-.35 11.77a9.77 9.77 0 0 0 6.05 1.27 5.14 5.14 0 0 0 3.4-1.56s1.35-9.49 1.17-10.84-3.05-4.55-3.05-4.55a18.43 18.43 0 0 0-6.07.7Z" style="fill:#97a9dd"/><path d="m333.76 143-.44 2.55s1.31 1.45 2.58.36 1.46-1.58 1.46-1.58l-.62-3.47Z" style="fill:#ffad97"/><path class="cls-66" d="M335.56 137a3 3 0 0 0-4.62 1.56c-1 2.78 1.55 6.25 2.9 5.66a5.6 5.6 0 0 0 2.79-3 4.36 4.36 0 0 0-1.07-4.22Z"/><path class="cls-14" d="M330.72 139.46a2.48 2.48 0 0 0 2.46.74 5.46 5.46 0 0 0 1.9-.69s.85.57 1.17.74.38 1 .38 1a3.16 3.16 0 0 0 .35-2.57c-.23-1-1.26-3.23-3.22-3.05a3.6 3.6 0 0 0-3.35 2.59 1.36 1.36 0 0 0 .31 1.24Z"/><path class="cls-15" d="M333.87 150.06a12.59 12.59 0 0 1 3-3.18 8.3 8.3 0 0 1 2.32-.86s-.58-1-.9-1.07a7.08 7.08 0 0 0-2.3.85 9 9 0 0 0-3 3c-1.06 1.83.11 2.32.88 1.26ZM331 144.32a16.39 16.39 0 0 0-1 3.39c-.13 1.23.12 1.61.62 1.65s.52-.83.67-1.82.93-3.55.93-3.55Z"/><path class="cls-14" d="M318.74 177.92c-.8.78-1.05 1-1.79 1.72-.44.42-.08.81.75.78a15 15 0 0 0 3.3-.71 16.58 16.58 0 0 0 2.47-1.28 1.61 1.61 0 0 0 .73-.92v-1.29l-3.94.17s-.65.7-1.52 1.53ZM326.55 181.36c-.8.78-1.05 1-1.79 1.72-.44.42-.08.8.75.77a15.17 15.17 0 0 0 3.3-.7 18 18 0 0 0 2.46-1.28 1.64 1.64 0 0 0 .73-.87v-2.28l-3.95 1.15s-.63.65-1.5 1.49Z"/><path class="cls-15" d="M339.36 158.5s-7.16 2.1-11.14.61c-1.39.83-5.2 3.06-6.43 3.91-.75.53-1.09 1.67-1.38 4.24-.49 4.23-.84 9.07-.84 9.07a3.43 3.43 0 0 0 2.78 1.17 7.37 7.37 0 0 0 2.59-.46l.3-9.75 6.46-3.69s-3.66 2.24-4.19 4.24a19.83 19.83 0 0 0-.63 4.82c-.13 4.31-.18 7.13-.18 7.13a2 2 0 0 0 2.22 1.42 4.46 4.46 0 0 0 2.7-1.21l.39-9.86s5-3.4 6.5-5.06c1.64-1.87.85-6.58.85-6.58Z"/><path class="cls-15" d="M339.34 157.42a5.45 5.45 0 0 1-2.86 1c-1.05-.11-2.57-1.13-2.49-4.44a31.28 31.28 0 0 1 .39-4.84l-4-1.75a23.08 23.08 0 0 0-1.31 7.45c-.22 4.93-.31 6.63-.31 6.63a53.64 53.64 0 0 0 6.86 0 13.6 13.6 0 0 0 4-.91Z"/><path class="cls-11" d="M330.79 148.3c0 .2-.12.37-.26.37s-.25-.17-.25-.37.11-.37.25-.37.26.16.26.37ZM333.21 149.42c-.12.16-.13.36 0 .44s.3 0 .42-.15.13-.36 0-.44-.3-.02-.42.15Z"/><path class="cls-16" d="M330 149.9c-.17.82-.08 3.43 1.4 3.82s1.7-1.22 2-2.44a13.57 13.57 0 0 1-3.4-1.38Z"/><path class="cls-66" d="M335.34 153.07a17.73 17.73 0 0 1-1.39 2.77 38.18 38.18 0 0 1-3.88 3 3.75 3.75 0 0 1 1.19 1.45 23.9 23.9 0 0 0 4.13-2.16 19.92 19.92 0 0 0 2.83-3.36s-.86-2.12-2.88-1.7Z"/><path class="cls-17" d="M339.8 147c-.81-.65-2.53 1.53-3.44 2.89a18.39 18.39 0 0 0-1.64 3.39s1.1.79 2.08 1.4a15.9 15.9 0 0 0 1.7.91s4.06-6.4 1.3-8.59Z"/><path class="cls-59" d="M335.9 137.19c1.59.62 1.94 1.87.78 2.78a5.59 5.59 0 0 1-5 .51c-1.58-.62-1.93-1.86-.77-2.77a5.57 5.57 0 0 1 4.99-.52Z"/><path class="cls-59" d="M330.26 139.06s-.68-4 2.85-4.56c4.12-.6 4.25 4.19 4.25 4.19Z"/><path class="cls-63" d="M330.21 138.46s-1.72 1.59.36 2.48c3.53 1.51 6.41-1.26 6.41-1.26s-3.74.89-5.65.06c-1.33-.56-1.12-1.28-1.12-1.28Z"/><path class="cls-63" d="M333.65 134.74a2.46 2.46 0 0 0-1.09 1.43 1.46 1.46 0 0 0 .7 1.92 4.44 4.44 0 0 1 1.28 1.18 1.66 1.66 0 0 0-.54-1.39c-.66-.54-1.27-.82-.89-1.71a3.28 3.28 0 0 1 2-1.49s-.54-.47-1.46.06ZM333.11 134.5a3.35 3.35 0 0 0-1.41 1c-.2.3-.18 1.34-.37 1.6a10.22 10.22 0 0 1-1.12 1s-.29-.27.06-.74.79-.52.83-1.23c.02-.43-.22-1.49 2.01-1.63Z"/><path class="cls-57" d="m339.21 139.49-20.47-11.58v.97l20.47 11.77v-1.16zM326.86 167.68a2.84 2.84 0 0 1-1.44-.43 7.69 7.69 0 0 1-3.32-6.25 3.13 3.13 0 0 1 1.28-2.85 2.41 2.41 0 0 1 2.44.17 7.71 7.71 0 0 1 3.32 6.24 3.13 3.13 0 0 1-1.28 2.85 2.07 2.07 0 0 1-1 .27Zm-2.48-9a1.21 1.21 0 0 0-.6.15 2.39 2.39 0 0 0-.88 2.16 7 7 0 0 0 2.92 5.56 1.65 1.65 0 0 0 1.64.16 2.41 2.41 0 0 0 .87-2.16 7 7 0 0 0-2.91-5.55 2.14 2.14 0 0 0-1.04-.3Z"/><path class="cls-57" d="m328.44 164.13-5.82-3.32v.64l5.82 3.33v-.65z"/><path class="cls-57" d="m325.74 166.99-.42-.23v-7.93l.42.24v7.92z"/><path class="cls-57" d="M326.22 163.12a1.55 1.55 0 0 0-.66-1.24.47.47 0 0 0-.48 0s-.06.07-.09.11-2.09 2.19-3.42 3.75-3.56 3.84-3.56 3.84l1.13 2.42s2.62-3.37 4.44-5.47 2.48-2.85 2.48-2.85a.67.67 0 0 0 .16-.56Z"/><path class="cls-66" d="M330.55 158.5a4.79 4.79 0 0 1-1.22.56 2.33 2.33 0 0 1-1.58-.12 1.23 1.23 0 0 0-1.09 0c.12.13.35.35.35.35s-1.1.07-1.34.86c-.12.4 0 .44.25.55 0 .19 0 .44.42.48.09.11.41.6.66.63a5.58 5.58 0 0 0 2.73-.82 16 16 0 0 0 2.14-.9c-.15-.65-.87-1.09-1.32-1.59ZM327.08 150.51a25.75 25.75 0 0 0-3.15 5.06 8.17 8.17 0 0 0-.82 2.85 2 2 0 0 0 .84 1.51.29.29 0 0 0 .45-.16 3.07 3.07 0 0 1 .64 0c.2 0 .63-.55.63-.55s-.61-.19-.53-.56a1.93 1.93 0 0 1 .34-.43l.75.39s-.54-.85-.66-1.1a1 1 0 0 1-.18-.48c-.05-.46 2.29-3.09 2.56-3.41a11 11 0 0 0 1.32-2.07 8.87 8.87 0 0 0-.84-.53 3.49 3.49 0 0 0-1.35-.52Z"/><path class="cls-60" d="m325.53 174.56-2.13 1.22-8.56-4.92 2.12-1.21 8.57 4.91z"/><path class="cls-55" d="M314.84 170.86v6.84l8.57 4.9v-6.83l-8.57-4.91z"/><path class="cls-58" d="m325.53 174.56-2.12 1.22v6.57l2.12-1.21v-6.58z"/><path class="cls-56" d="m313.78 146.69-3.43 1.96v39.98l3.43-1.96v-39.98z"/><path class="cls-55" d="M308.74 147.73v38.81l1.61.92v-38.81l-1.61-.92z"/><path class="cls-60" d="m313.78 146.69-1.57-.92-3.47 1.96 1.61.92 3.43-1.96z"/><path class="cls-59" d="m317.56 153.11-5.82-3.33v1.3l5.82 3.33v-1.3z"/><path class="cls-61" d="m320.43 153.62-7.7-4.4-.99.57 8.69 4.97v-1.14z"/><path class="cls-59" d="m317.56 157.65-5.82-3.33v1.3l5.82 3.33v-1.3z"/><path class="cls-61" d="m320.43 158.16-7.7-4.4-.99.57 8.69 4.97v-1.14z"/><path class="cls-56" d="m321.25 151.12-3.42 1.96v38.81l3.42-1.96v-38.81z"/><path class="cls-55" d="M316.22 152.16v38.81l1.61.92v-38.81l-1.61-.92z"/><path class="cls-60" d="m321.25 151.12-1.56-.93-3.47 1.97 1.61.92 3.42-1.96z"/><path class="cls-57" d="M327 189.15c0 2.71-1.66 5.85-3.71 7s-3.71-.08-3.71-2.78 1.66-5.86 3.71-7 3.71.07 3.71 2.78Z"/><path class="cls-57" d="m323.71 197.92-2.69-1.5 4.8-10.21 2.57 1.43-4.68 10.28z"/><path class="cls-58" d="M329.83 190.69c0 2.71-1.66 5.85-3.71 7s-3.71-.08-3.71-2.78 1.66-5.86 3.71-7 3.71.09 3.71 2.78Z"/><path class="cls-11" d="M329 191.24a6.89 6.89 0 0 1-2.9 5.5c-1.61.91-2.91-.06-2.91-2.18a6.87 6.87 0 0 1 2.91-5.5c1.62-.92 2.9.06 2.9 2.18Z"/><path class="cls-57" d="M328.31 191.64a5.18 5.18 0 0 1-2.19 4.15c-1.21.7-2.19 0-2.19-1.64a5.18 5.18 0 0 1 2.19-4.15c1.21-.69 2.19 0 2.19 1.64Z"/><path class="cls-11" d="M327 192.42a2 2 0 0 1-.83 1.58c-.46.26-.84 0-.84-.62a2 2 0 0 1 .84-1.59c.41-.26.83.02.83.63Z"/><path class="cls-57" d="m349.84 170.69-1.05-.59v-33.68l2.1-1.94-1.05 36.21z"/><path class="cls-56" d="m351.94 170.62-2.1 1.2v-35.4l2.1-1.94v36.14z"/><path class="cls-55" d="m350.82 132.7-11.54 6.54c-3.56 2-6.62 7.11-7.3 12.11L329.75 186l2.14-1.25 2-32.69c.59-4.38 3.27-8.82 6.38-10.6l10.58-6Z"/><path class="cls-55" d="m351.94 133.53-1.12-.83-1.47.83 1.4 1.23 1.19-1.23zM330.58 186.94l-.83-.94 1.12-1.85 1.19 1.51-1.48 1.28z"/><path class="cls-56" d="m351.94 133.53-11.55 6.54c-3.56 2-6.61 7.12-7.29 12.12l-2.24 34.42v.44l2.14-1.47 2-32.68c.6-4.38 3.27-8.82 6.38-10.6l10.59-6Z"/><path class="cls-63" d="m308.04 168.4-1 .57v17.86l1-.39V168.4z"/><path class="cls-61" d="m320.69 183.83-1 .58-12.64-7.24.98-.57 12.66 7.23z"/><path class="cls-60" d="m320.69 191.37-1 .57-12.64-7.23.98-.58 12.66 7.24z"/><path class="cls-59" d="m319.69 176.12-13.81-7.9v1.3l13.81 7.9v-1.3z"/><path class="cls-61" d="m320.69 179.68-1 .57-12.64-7.23.98-.57 12.66 7.23z"/><path class="cls-63" d="m320.69 175.55-1 .57v18.04l1-.57v-18.04z"/><path class="cls-61" d="m320.69 175.55-1 .57-13.81-7.9.99-.57 13.82 7.9z"/><path class="cls-59" d="m319.69 180.25-13.81-7.9v1.3l13.81 7.9v-1.3zM319.69 184.41l-13.81-7.91v1.3l13.81 7.91v-1.3z"/><path class="cls-59" d="m307.04 186.83-1.16-.62v-17.78l1.16.67v17.73zM319.69 194.16l-1.16-.66v-17.89l1.16.67v17.88z"/><path class="cls-55" d="m319.69 191.89-13.81-7.85V186l13.81 7.85v-1.96z"/><path class="cls-60" d="m320.69 194.43-27.18 15.51-3.41-1.95 27.18-15.52 3.41 1.96z"/><path class="cls-55" d="M293.51 209.94v-.78l27.18-15.5v.77l-27.18 15.51z"/><path class="cls-57" d="M290.1 207.21v.78l3.41 1.95v-.78l-3.41-1.95z"/><path class="cls-60" d="m320.69 193.65-27.18 15.51-3.41-1.95 27.18-15.51 3.41 1.95zM309.32 187.87l-27.18 15.51-3.41-1.95 27.18-15.52 3.41 1.96z"/><path class="cls-55" d="M282.14 203.38v-.78l27.18-15.5v.77l-27.18 15.51z"/><path class="cls-57" d="M278.73 200.65v.78l3.41 1.95v-.78l-3.41-1.95z"/><path class="cls-60" d="m309.32 187.09-27.18 15.51-3.41-1.95 27.18-15.52 3.41 1.96z"/><path class="cls-55" d="m340.45 139.21-21.38-12.22-.99.57 21.39 12.23.98-.58zM346.21 135.89l-21.38-12.22-.99.57 21.39 12.23.98-.58z"/><path class="cls-57" d="m350.05 133.32-20.48-11.59v.97l20.48 11.78v-1.16z"/><path class="cls-55" d="m351.28 133.04-22.01-12.59-.98.58 22.02 12.59.97-.58z"/><path class="cls-57" d="M322.12 127.82c0 .76-1.2 1.38-2.67 1.38s-2.66-.62-2.66-1.38 1.19-1.37 2.66-1.37 2.67.61 2.67 1.37Z"/><path class="cls-57" d="M316.79 127.36h5.33v.46h-5.33z"/><path class="cls-60" d="M322.12 127.36c0 .76-1.2 1.38-2.67 1.38s-2.66-.62-2.66-1.38S318 126 319.45 126s2.67.6 2.67 1.36Z"/><path class="cls-67" d="M321.63 127.25c0 .62-1 1.12-2.18 1.12s-2.18-.5-2.18-1.12 1-1.12 2.18-1.12 2.18.5 2.18 1.12Z"/><path class="cls-67" d="m317.64 122.51-.37 4.74h4.36l-.36-4.74h-3.63z"/><path d="M321.27 122.51c0 .52-.82.94-1.82.94s-1.81-.42-1.81-.94.81-.94 1.81-.94 1.82.43 1.82.94Z" style="fill:#ff618b"/><path class="cls-67" d="M320.69 122.52c0 .35-.56.64-1.24.64s-1.23-.29-1.23-.64.55-.63 1.23-.63 1.24.28 1.24.63Z"/><path class="cls-5" d="m319.21 197.73-20.05 11.49.62.39 20.12-11.52-.69-.36z"/><path class="cls-6" d="m319.9 198.09-20.12 11.52v2.84l20.12-11.52v-2.84z"/><path class="cls-7" d="M299.16 212.09v-2.87l.62.39v2.84l-.62-.36z"/><path class="cls-5" d="m296.82 184.85-20.06 11.49.63.39 20.12-11.51-.69-.37z"/><path class="cls-6" d="m297.51 185.21-20.12 11.52v2.84l20.12-11.52v-2.84z"/><path class="cls-7" d="M276.76 199.21v-2.87l.63.39v2.84l-.63-.36z"/><path class="cls-5" d="m307.69 190.97-20.06 11.5.63.38 20.12-11.51-.69-.37z"/><path class="cls-6" d="m308.38 191.33-20.12 11.52v2.84l20.12-11.52v-2.84z"/><path class="cls-7" d="M287.63 205.33v-2.86l.63.38v2.84l-.63-.36z"/><path class="cls-7" d="m299.78 208.74-23.02-13.18v.92l23.02 13.18v-.92z"/><path class="cls-5" d="m302.19 207.4-2.41 1.34-23.02-13.18 2.4-1.33 23.03 13.17z"/><path class="cls-6" d="m302.19 207.4-2.41 1.34v1.71l2.41-1.39v-1.66z"/><path class="cls-7" d="m304.27 206.12-23.08-13.24v.92l23.08 13.23v-.91z"/><path class="cls-5" d="m306.68 204.78-2.41 1.34-23.08-13.24 2.4-1.33 23.09 13.23z"/><path class="cls-6" d="m306.68 204.78-2.41 1.34v1.71l2.41-1.39v-1.66z"/><path class="cls-7" d="m308.87 203.53-23.14-13.26v.92l23.14 13.26v-.92z"/><path class="cls-5" d="m311.28 202.2-2.41 1.33-23.14-13.26 2.4-1.33 23.15 13.26z"/><path class="cls-6" d="m311.28 202.2-2.41 1.33v1.72l2.41-1.4v-1.65z"/><path class="cls-7" d="m313.36 200.91-23.09-13.17v.91l23.09 13.18v-.92z"/><path class="cls-5" d="m315.77 199.57-2.41 1.34-23.09-13.17 2.4-1.34 23.1 13.17z"/><path class="cls-6" d="m315.77 199.57-2.41 1.34v1.71l2.41-1.39v-1.66z"/><path class="cls-7" d="m317.49 198.61-23.14-13.23v.92l23.14 13.23v-.92z"/><path class="cls-5" d="m319.9 197.27-2.41 1.34-23.14-13.23 2.4-1.34 23.15 13.23z"/><path class="cls-6" d="m319.9 197.27-2.41 1.34v1.71l2.41-1.39v-1.66z"/><path class="cls-8" d="M298.19 195.76v-12.44l10.02-5.74V190l-10.02 5.76z"/><path class="cls-9" d="M298.19 195.76v-12.44l-10.03-5.74V190l10.03 5.76z"/><path class="cls-13" d="m288.16 177.58 10.03 5.74 10.02-5.74-10.02-5.74-10.03 5.74z"/><path class="cls-14" d="m304.48 183.33-2.23 1.29v-3.63l2.23-1.29v3.63z"/><path class="cls-69" d="m304.48 179.7-10.01-5.73-2.23 1.28 10.01 5.75 2.23-1.3z"/><path class="cls-14" d="M299.51 193.98v-.64l3.37-1.93v.65l-3.37 1.92zM299.51 192.84v-.64l3.37-1.94v.65l-3.37 1.93zM305.9 188.18v2.22l1.61-.92v-2.22l-1.61.92zM290.37 187.95v2.31l-1.61-.92v-2.31l1.61.92zM292.56 189.21v2.31l-1.6-.92v-2.31l1.6.92z"/><path class="cls-11" d="M292.07 181.19v3.32l-3.31-1.89v-3.32l3.31 1.89z"/><path class="cls-14" d="M291.66 181.87v-.54l-2.6-1.49v.54l2.6 1.49z"/><path class="cls-8" d="M309.14 201.97v-12.43l10.02-5.75v12.42l-10.02 5.76z"/><path class="cls-9" d="M309.14 201.97v-12.43l-10.02-5.75v12.42l10.02 5.76z"/><path class="cls-13" d="m299.12 183.79 10.02 5.75 10.02-5.75-10.02-5.74-10.02 5.74z"/><path class="cls-14" d="m315.44 189.54-2.24 1.29v-3.63l2.24-1.29v3.63z"/><path class="cls-69" d="m315.44 185.91-10.01-5.73-2.24 1.28 10.01 5.75 2.24-1.3z"/><path class="cls-14" d="M310.47 200.19v-.64l3.36-1.93v.65l-3.36 1.92zM310.47 199.05v-.64l3.36-1.94v.65l-3.36 1.93zM316.85 194.39v2.22l1.61-.92v-2.22l-1.61.92zM301.32 194.16v2.31l-1.6-.92v-2.31l1.6.92zM303.52 195.42v2.31l-1.61-.92v-2.31l1.61.92z"/><path class="cls-11" d="M303.02 187.4v3.33l-3.3-1.9v-3.32l3.3 1.89z"/><path class="cls-14" d="M302.62 188.08v-.54l-2.6-1.48v.53l2.6 1.49z"/><path class="cls-8" d="M287.87 201.93v-12.44l10.02-5.74v12.42l-10.02 5.76z"/><path class="cls-9" d="M287.87 201.93v-12.44l-10.02-5.74v12.42l10.02 5.76z"/><path class="cls-13" d="m277.85 183.75 10.02 5.74 10.02-5.74-10.02-5.74-10.02 5.74z"/><path class="cls-14" d="m294.16 189.5-2.23 1.29v-3.63l2.23-1.29v3.63z"/><path class="cls-69" d="m294.16 185.87-10-5.74-2.24 1.29 10.01 5.74 2.23-1.29z"/><path class="cls-14" d="M289.19 200.15v-.64l3.37-1.94v.65l-3.37 1.93zM289.19 199v-.63l3.37-1.94v.65l-3.37 1.92zM295.58 194.35v2.22l1.61-.93v-2.22l-1.61.93zM280.05 194.12v2.31l-1.61-.92v-2.32l1.61.93zM282.25 195.38v2.31l-1.61-.92v-2.31l1.61.92z"/><path class="cls-11" d="M281.75 187.36v3.32l-3.31-1.89v-3.33l3.31 1.9z"/><path class="cls-14" d="M281.34 188.04v-.54l-2.6-1.49v.53l2.6 1.5z"/><path class="cls-8" d="m298.83 208.14-.01-12.44 10.03-5.74v12.42l-10.02 5.76z"/><path class="cls-9" d="m298.83 208.14-.01-12.44-10.02-5.74v12.42l10.03 5.76z"/><path class="cls-13" d="m288.8 189.96 10.02 5.74 10.03-5.74-10.02-5.74-10.03 5.74z"/><path class="cls-14" d="m305.12 195.71-2.24 1.29v-3.63l2.24-1.29v3.63z"/><path class="cls-69" d="m305.12 192.08-10.01-5.74-2.24 1.29 10.01 5.74 2.24-1.29z"/><path class="cls-14" d="M300.15 206.36v-.64l3.36-1.94v.65l-3.36 1.93zM300.15 205.22v-.64l3.36-1.94v.65l-3.36 1.93zM306.54 200.56v2.22l1.6-.93v-2.22l-1.6.93zM291.01 200.33v2.31l-1.61-.92v-2.31l1.61.92zM293.2 201.59v2.31l-1.61-.92v-2.31l1.61.92z"/><path class="cls-11" d="M292.7 193.57v3.32l-3.3-1.89v-3.33l3.3 1.9z"/><path class="cls-14" d="M292.3 194.25v-.54l-2.6-1.49v.53l2.6 1.5z"/><path class="cls-8" d="M298.19 182.68v-12.43l10.02-5.75v12.42l-10.02 5.76z"/><path class="cls-9" d="M298.19 182.68v-12.43l-10.03-5.75v12.42l10.03 5.76z"/><path class="cls-13" d="m288.16 164.5 10.03 5.75 10.02-5.75-10.02-5.74-10.03 5.74z"/><path class="cls-14" d="m304.48 170.25-2.23 1.29v-3.63l2.23-1.29v3.63z"/><path class="cls-69" d="m304.48 166.62-10.01-5.73-2.23 1.28 10.01 5.75 2.23-1.3z"/><path class="cls-14" d="M299.51 180.9v-.64l3.37-1.93v.65l-3.37 1.92zM299.51 179.76v-.64l3.37-1.93v.64l-3.37 1.93zM305.9 175.1v2.22l1.61-.92v-2.22l-1.61.92zM290.37 174.87v2.31l-1.61-.92v-2.31l1.61.92zM292.56 176.13v2.31l-1.6-.92v-2.31l1.6.92z"/><path class="cls-11" d="M292.07 168.12v3.32l-3.31-1.9v-3.32l3.31 1.9z"/><path class="cls-14" d="M291.66 168.79v-.54l-2.6-1.48v.53l2.6 1.49z"/><path class="cls-8" d="M309.14 188.89v-12.43l10.02-5.75v12.42l-10.02 5.76z"/><path class="cls-9" d="M309.14 188.89v-12.43l-10.02-5.75v12.42l10.02 5.76z"/><path class="cls-13" d="m299.12 170.71 10.02 5.75 10.02-5.75-10.02-5.74-10.02 5.74z"/><path class="cls-14" d="m315.44 176.47-2.24 1.28v-3.63l2.24-1.28v3.63z"/><path class="cls-69" d="m315.44 172.84-10.01-5.74-2.24 1.28 10.01 5.75 2.24-1.29z"/><path class="cls-14" d="M310.47 187.11v-.64l3.36-1.93v.65l-3.36 1.92zM310.47 185.97v-.64l3.36-1.93v.64l-3.36 1.93zM316.85 181.31v2.22l1.61-.92v-2.22l-1.61.92zM301.32 181.08v2.31l-1.6-.92v-2.31l1.6.92zM303.52 182.34v2.32l-1.61-.93v-2.31l1.61.92z"/><path class="cls-11" d="M303.02 174.32v3.33l-3.3-1.9v-3.32l3.3 1.89z"/><path class="cls-14" d="M302.62 175v-.54l-2.6-1.48v.53l2.6 1.49z"/><path class="cls-8" d="M287.87 188.85v-12.44l10.02-5.74v12.42l-10.02 5.76z"/><path class="cls-9" d="M287.87 188.85v-12.44l-10.02-5.74v12.42l10.02 5.76z"/><path class="cls-13" d="m277.85 170.67 10.02 5.74 10.02-5.74-10.02-5.74-10.02 5.74z"/><path class="cls-14" d="m294.16 176.42-2.23 1.29v-3.63l2.23-1.29v3.63z"/><path class="cls-69" d="m294.16 172.79-10-5.73-2.24 1.28 10.01 5.74 2.23-1.29z"/><path class="cls-14" d="M289.19 187.07v-.64l3.37-1.93v.64l-3.37 1.93zM289.19 185.93v-.64l3.37-1.94v.65l-3.37 1.93zM295.58 181.27v2.22l1.61-.93v-2.22l-1.61.93zM280.05 181.04v2.31l-1.61-.92v-2.31l1.61.92zM282.25 182.3v2.31l-1.61-.92v-2.31l1.61.92z"/><path class="cls-11" d="M281.75 174.28v3.32l-3.31-1.89v-3.33l3.31 1.9z"/><path class="cls-14" d="M281.34 174.96v-.54l-2.6-1.49v.54l2.6 1.49z"/><path class="cls-8" d="m298.83 195.06-.01-12.44 10.03-5.74v12.42l-10.02 5.76z"/><path class="cls-9" d="m298.83 195.06-.01-12.44-10.02-5.74v12.42l10.03 5.76z"/><path class="cls-13" d="m288.8 176.88 10.02 5.74 10.03-5.74-10.02-5.74-10.03 5.74z"/><path class="cls-14" d="m305.12 182.63-2.24 1.29v-3.63l2.24-1.29v3.63z"/><path class="cls-69" d="m305.12 179-10.01-5.73-2.24 1.28 10.01 5.74 2.24-1.29z"/><path class="cls-14" d="M300.15 193.28v-.64l3.36-1.93v.64l-3.36 1.93zM300.15 192.14v-.64l3.36-1.94v.65l-3.36 1.93zM306.54 187.48v2.22l1.6-.93v-2.21l-1.6.92zM291.01 187.25v2.31l-1.61-.92v-2.31l1.61.92zM293.2 188.51v2.31l-1.61-.92v-2.31l1.61.92z"/><path class="cls-11" d="M292.7 180.49v3.32l-3.3-1.89v-3.33l3.3 1.9z"/><path class="cls-14" d="M292.3 181.17v-.54l-2.6-1.49v.54l2.6 1.49z"/></g><g id="мешки"><path class="cls-70" d="m238.14 112.91-4-1.1-6.33 3.56-4.78 9.04 1.94 5.88-3.88 5.89-.12 10-1.57 2.46h25.46l4.39-8.08.51-12.73-2.97-13.14-5.29-2.61-3.36.83z"/><path class="cls-71" d="m237.87 112.08-1-3.23a.53.53 0 0 0-.54-.4 9.87 9.87 0 0 0-2.73.34 52.63 52.63 0 0 0 4.27 3.29ZM238.39 112.21l.14-2.22a.43.43 0 0 1 .54-.41l.86.25a.79.79 0 0 1 .15 1.43Z"/><path class="cls-71" d="M237.1 112.27a3.15 3.15 0 0 1 .19-.37.45.45 0 0 1 .4-.26h1.21a.5.5 0 0 1 .39.2l.18.27a.52.52 0 0 1 .09.38v.19a.47.47 0 0 1-.48.42l-1.56-.08a.49.49 0 0 1-.42-.75ZM227.81 115.37l2.53 7a.45.45 0 0 0 .84 0l1-2.4a1 1 0 0 0-.26-1.16ZM225.17 130.58s3.1 4 2.5 4.64-6.19 1-6.19 1ZM249.25 140.56s-11.52 4.06-10.89 5.52 6.5 2.56 6.5 2.56ZM235.56 127l12.29 1.5a.41.41 0 0 1 .09.79l-7 2.76a1.26 1.26 0 0 1-1.35-.28l-4.28-4.12a.38.38 0 0 1 .25-.65ZM236.88 113.54l-2.89.78a.8.8 0 0 0-.44 1.17l.35.57a.53.53 0 0 0 .89.07ZM238.39 113.45l2.89-.54a.66.66 0 0 1 .54.13l1.15.88a.26.26 0 0 1-.19.47Z"/><path class="cls-70" d="m267.76 141.65-.1 2.09-.11 1.94-.33 6.61-4.72 6.76s-3.52 3.1-12.6 3.1c-11.31 0-13-5.16-13-5.16l.13-8.36 4.15-4.92-2.07-4.92 5.11-7.56 6.78-3 4.29.92 3.6-.69 5.67 2.17Z"/><path class="cls-71" d="m255 128.48-1-2.7a.58.58 0 0 0-.58-.33 14.53 14.53 0 0 0-2.92.28c.01.2 4.5 2.75 4.5 2.75ZM255.58 128.6l.15-1.86a.46.46 0 0 1 .58-.35l.92.21a.62.62 0 0 1 .16 1.2Z"/><path class="cls-71" d="m254.19 128.64.21-.31a.52.52 0 0 1 .43-.21h1.3a.55.55 0 0 1 .41.17l.2.22a.39.39 0 0 1 .1.32v.16a.5.5 0 0 1-.53.35l-1.67-.06c-.4-.04-.64-.37-.45-.64ZM244.25 131.24l2.71 5.89a.53.53 0 0 0 .9 0l1.1-2a.72.72 0 0 0-.28-1ZM241.2 143.71s3.12 3.59 2.47 4.12-6.63.81-6.63.81ZM267.21 152.3s-12.34 3.39-11.66 4.61 7 2.14 7 2.14ZM267.66 143.74l-.11 1.94-11.46.91c-.44 0-.66-.45-.28-.65l7.09-3.73a1.78 1.78 0 0 1 1.53 0ZM254 129.7l-3.1.66c-.52.11-.76.61-.47 1l.37.47a.67.67 0 0 0 .95.06ZM255.58 129.63l3.1-.45a.86.86 0 0 1 .57.11l1.24.73c.23.14.07.44-.21.4Z"/><path class="cls-72" d="m229.94 133.82-5.71-.54-3.64 2.86-1.38 5.33 1.71 3.64-3.75-1.56-8.72 9.72-1.59 8.26 2.93 2.07h25.31l3.66-11.91-.12-9.73-8.7-8.14z"/><path class="cls-73" d="M217.17 143.55s3.32 4.32 4 4.48 2.88-.16 2.83-.48a23.34 23.34 0 0 0-3.1-2.44ZM208.45 153.27l4.61 3.43a1.26 1.26 0 0 1 .49 1.25c-.21 1-.59 2.65-.89 2.73s-4.21-7.41-4.21-7.41ZM237.9 152.57s-6.6 3.41-6.85 4 2 5.19 2.94 4.54 3.91-8.54 3.91-8.54Z"/><path class="cls-72" d="M222.06 134.41s-4.73-1.24-5.16-1-2.61 3.19-2.39 3.73 7.55-2.73 7.55-2.73Z"/><path class="cls-74" d="m222.39 131.49-.33 2.92 2-1.78s-.75-1.46-1.67-1.14Z"/><path class="cls-74" d="M222.7 134.63s-.07-.65-.18-.62a3.06 3.06 0 0 0-.84.55c0 .08-.14.69.15.66s.87-.59.87-.59Z"/><path class="cls-73" d="M222.44 135a17.23 17.23 0 0 0-.6 2.76c.11.21 1.58 1.86 1.77 1.78a36 36 0 0 0-1.17-4.54ZM222.66 134.82s.81 2.54 1 2.51a5.32 5.32 0 0 0 1.2-2.19 12.58 12.58 0 0 0-2.2-.32ZM222.78 134.68l.69-.35a.12.12 0 0 1 .1 0l.29.12a.07.07 0 0 1 0 .13ZM222.22 135.05l-.4.39a.14.14 0 0 0 0 .21l.14.1a.08.08 0 0 0 .12-.05Z"/><path class="cls-74" d="M222.13 134.41a24.18 24.18 0 0 0-3.3-.2c-.25.12-1.37 1.15-.92 1.22a38.13 38.13 0 0 0 4.22-1.02Z"/><path class="cls-73" d="M209.8 163.6s10.52-1.57 11.61-1.19 4.83 1.13 4.83 1.13 4.68-1.19 5.16-.91a6.4 6.4 0 0 1 1.15 1Z"/></g></g></svg>