<?xml version="1.0" encoding="utf-8"?>
<!-- Generator: Adobe Illustrator 24.3.0, SVG Export Plug-In . SVG Version: 6.00 Build 0)  -->
<svg version="1.1" xmlns="http://www.w3.org/2000/svg" xmlns:xlink="http://www.w3.org/1999/xlink" x="0px" y="0px"
	 viewBox="0 0 818 503.2" style="enable-background:new 0 0 818 503.2;" xml:space="preserve">
<style type="text/css">
	.st0{fill:#292929;}
	.st1{fill:#454545;}
	.st2{fill:#7EAF1A;}
	.st3{fill:url(#SVGID_1_);}
	.st4{fill:url(#SVGID_2_);}
	.st5{fill:url(#SVGID_3_);}
	.st6{fill:#AD937C;}
	.st7{fill:url(#SVGID_4_);}
	.st8{fill:url(#SVGID_5_);}
	.st9{fill:url(#SVGID_6_);}
	.st10{fill:url(#SVGID_7_);}
	.st11{fill:url(#SVGID_8_);}
	.st12{fill:url(#SVGID_9_);}
	.st13{fill:#F8C48A;}
	.st14{fill:#7BA31A;}
	.st15{fill:url(#SVGID_10_);}
	.st16{fill:url(#SVGID_11_);}
	.st17{fill:url(#SVGID_12_);}
	.st18{fill:url(#SVGID_13_);}
	.st19{fill:url(#SVGID_14_);}
	.st20{fill:url(#SVGID_15_);}
	.st21{fill:#D9CEC3;}
	.st22{fill:url(#SVGID_16_);}
	.st23{fill:url(#SVGID_17_);}
	.st24{fill:url(#SVGID_18_);}
	.st25{fill:#9C8383;}
	.st26{fill:#00892D;}
	.st27{fill:#006B21;}
	.st28{fill:#003D0B;}
	.st29{fill:#86676A;}
	.st30{fill:#B09B9F;}
	.st31{fill:#402317;}
	.st32{fill:#70A442;}
	.st33{fill:#7EC34C;}
	.st34{fill:#91787B;}
	.st35{fill:#00B527;}
	.st36{fill:#006815;}
	.st37{opacity:0.31;fill:#231F20;}
	.st38{enable-background:new    ;}
	.st39{fill:#CCCCCC;}
	.st40{fill:#E2E2E2;}
	.st41{fill:#30515E;}
	.st42{fill:#CAA74A;}
	.st43{clip-path:url(#SVGID_20_);enable-background:new    ;}
	.st44{fill:#EBC256;}
	.st45{fill:#F7E7BB;}
	.st46{clip-path:url(#SVGID_22_);enable-background:new    ;}
	.st47{clip-path:url(#SVGID_24_);}
	.st48{fill:#EBCA53;}
	.st49{clip-path:url(#SVGID_26_);enable-background:new    ;}
	.st50{clip-path:url(#SVGID_28_);enable-background:new    ;}
	.st51{clip-path:url(#SVGID_30_);}
	.st52{fill:url(#SVGID_31_);}
	.st53{fill:url(#SVGID_32_);}
	.st54{fill:url(#SVGID_33_);}
	.st55{fill:url(#SVGID_34_);}
	.st56{fill:url(#SVGID_35_);}
	.st57{fill:url(#SVGID_36_);}
	.st58{fill:url(#SVGID_37_);}
	.st59{fill:url(#SVGID_38_);}
	.st60{fill:url(#SVGID_39_);}
	.st61{fill:url(#SVGID_40_);}
	.st62{fill:url(#SVGID_41_);}
	.st63{fill:#D87923;}
	.st64{fill:#EAB886;}
	.st65{fill-rule:evenodd;clip-rule:evenodd;fill:#01783D;}
	.st66{fill-rule:evenodd;clip-rule:evenodd;fill:#01572C;}
	.st67{fill:#01783D;}
	.st68{fill-rule:evenodd;clip-rule:evenodd;fill:#004724;}
	.st69{fill:#01572C;}
	.st70{fill:#004724;}
	.st71{fill-rule:evenodd;clip-rule:evenodd;fill:#FF6600;}
	.st72{fill-rule:evenodd;clip-rule:evenodd;fill:#CC4700;}
	.st73{fill:#FF6600;}
	.st74{fill-rule:evenodd;clip-rule:evenodd;fill:#BA1C00;}
	.st75{fill:#CC4700;}
	.st76{fill:#BA1C00;}
	.st77{fill:#ED8E2F;}
	.st78{fill:#C96A1C;}
	.st79{fill:#DBA763;}
	.st80{fill:#E8B679;}
	.st81{fill:#CC8C46;}
	.st82{fill:#FFFFFF;}
	.st83{fill:#BF7E3D;}
	.st84{fill:#FFE1C0;}
	.st85{fill:#4D4D4D;}
	.st86{opacity:0.3;enable-background:new    ;}
	.st87{fill:#D7B37F;}
	.st88{fill:#F7E6BB;}
	.st89{fill:#C79D5C;}
	.st90{fill:#AC8854;}
	.st91{fill:#F7DFAF;}
	.st92{fill:#A39C95;}
	.st93{fill:#B5AFA7;}
	.st94{fill:#D8D1C7;}
	.st95{fill:#E6E1DD;}
	.st96{fill:#5D588D;}
	.st97{fill:#7C76AC;}
	.st98{fill:#8A9AD0;}
	.st99{fill:#386819;}
	.st100{fill:#D3D3D3;}
	.st101{fill:#7EB25D;}
</style>
<g id="Слой_1">
	<g id="Слой_2-2">
		<path class="st0" d="M415,471.8L817.1,247l0.9,31.4L415.8,503.2L415,471.8L415,471.8z"/>
		<path class="st1" d="M415,471.8L0,224.7l0.9,31.4l415,247L415,471.8L415,471.8z"/>
		<path class="st2" d="M0,224.7L402.1,0l415,247L415,471.8L0,224.7z"/>
	</g>
	<g>
		<g>
			
				<linearGradient id="SVGID_1_" gradientUnits="userSpaceOnUse" x1="249.1809" y1="506.9828" x2="323.954" y2="477.3987" gradientTransform="matrix(1.0743 4.995060e-02 5.336347e-02 -1.1477 2.9654 624.8235)">
				<stop  offset="0" style="stop-color:#7EB336"/>
				<stop  offset="1" style="stop-color:#4B7117"/>
			</linearGradient>
			<polygon class="st3" points="366.6,64.5 299.9,101.5 300.8,80.8 367.6,43.8 			"/>
			
				<linearGradient id="SVGID_2_" gradientUnits="userSpaceOnUse" x1="239.6112" y1="479.9243" x2="253.1512" y2="479.9243" gradientTransform="matrix(1.0743 4.995060e-02 5.336347e-02 -1.1477 2.9654 624.8235)">
				<stop  offset="2.050000e-02" style="stop-color:#D8DE57"/>
				<stop  offset="1" style="stop-color:#94B533"/>
			</linearGradient>
			<polygon class="st4" points="299.9,101.5 285.7,91.8 286.7,71.1 300.8,80.8 			"/>
			
				<linearGradient id="SVGID_3_" gradientUnits="userSpaceOnUse" x1="1028.9518" y1="539.7151" x2="1134.6991" y2="482.3094" gradientTransform="matrix(-1.0743 -4.995060e-02 5.336347e-02 -1.1477 1471.5111 693.1039)">
				<stop  offset="0" style="stop-color:#E9E873"/>
				<stop  offset="1" style="stop-color:#BFE954"/>
			</linearGradient>
			<polygon class="st5" points="353.5,34.1 286.7,71.1 300.8,80.8 367.6,43.8 			"/>
			<polygon class="st6" points="299.9,101.5 318.7,102.4 382.6,67.1 366.9,57.6 366.6,64.5 			"/>
		</g>
		<g>
			
				<linearGradient id="SVGID_4_" gradientUnits="userSpaceOnUse" x1="178.3422" y1="466.0823" x2="253.1156" y2="436.4981" gradientTransform="matrix(1.0743 4.995060e-02 5.336347e-02 -1.1477 2.9654 624.8235)">
				<stop  offset="0" style="stop-color:#7EB336"/>
				<stop  offset="1" style="stop-color:#4B7117"/>
			</linearGradient>
			<polygon class="st7" points="288.3,107.9 221.6,144.9 222.5,124.2 289.3,87.2 			"/>
			
				<linearGradient id="SVGID_5_" gradientUnits="userSpaceOnUse" x1="168.7812" y1="439.0244" x2="182.3112" y2="439.0244" gradientTransform="matrix(1.0743 4.995060e-02 5.336347e-02 -1.1477 2.9654 624.8235)">
				<stop  offset="2.050000e-02" style="stop-color:#D8DE57"/>
				<stop  offset="1" style="stop-color:#94B533"/>
			</linearGradient>
			<polygon class="st8" points="221.6,144.9 207.4,135.2 208.4,114.5 222.5,124.2 			"/>
			
				<linearGradient id="SVGID_6_" gradientUnits="userSpaceOnUse" x1="1099.791" y1="498.8205" x2="1205.5385" y2="441.4148" gradientTransform="matrix(-1.0743 -4.995060e-02 5.336347e-02 -1.1477 1471.5111 693.1039)">
				<stop  offset="0" style="stop-color:#E9E873"/>
				<stop  offset="1" style="stop-color:#BFE954"/>
			</linearGradient>
			<polygon class="st9" points="275.2,77.5 208.4,114.5 222.5,124.2 289.3,87.2 			"/>
			<polygon class="st6" points="221.6,144.9 240.4,145.8 304.4,110.5 288.7,101 288.3,107.9 			"/>
		</g>
		<g>
			
				<linearGradient id="SVGID_7_" gradientUnits="userSpaceOnUse" x1="107.6412" y1="425.2627" x2="182.4144" y2="395.6786" gradientTransform="matrix(1.0743 4.995060e-02 5.336347e-02 -1.1477 2.9654 624.8235)">
				<stop  offset="0" style="stop-color:#7EB336"/>
				<stop  offset="1" style="stop-color:#4B7117"/>
			</linearGradient>
			<polygon class="st10" points="210.2,151.2 143.4,188.2 144.4,167.5 211.2,130.5 			"/>
			
				<linearGradient id="SVGID_8_" gradientUnits="userSpaceOnUse" x1="98.0812" y1="398.2043" x2="111.6112" y2="398.2043" gradientTransform="matrix(1.0743 4.995060e-02 5.336347e-02 -1.1477 2.9654 624.8235)">
				<stop  offset="2.050000e-02" style="stop-color:#D8DE57"/>
				<stop  offset="1" style="stop-color:#94B533"/>
			</linearGradient>
			<polygon class="st11" points="143.4,188.2 129.3,178.6 130.3,157.9 144.4,167.5 			"/>
			
				<linearGradient id="SVGID_9_" gradientUnits="userSpaceOnUse" x1="1170.4917" y1="458.0002" x2="1276.2389" y2="400.5946" gradientTransform="matrix(-1.0743 -4.995060e-02 5.336347e-02 -1.1477 1471.5111 693.1039)">
				<stop  offset="0" style="stop-color:#E9E873"/>
				<stop  offset="1" style="stop-color:#BFE954"/>
			</linearGradient>
			<polygon class="st12" points="197,120.9 130.3,157.9 144.4,167.5 211.2,130.5 			"/>
			<polygon class="st6" points="143.4,188.2 162.3,189.1 226.2,153.9 210.5,144.3 210.2,151.2 			"/>
		</g>
	</g>
</g>
<g id="песок">
	<g>
		<path class="st13" d="M323.2,133.1c-3.6,3.3-6.6,7-10.8,9.9c-8.7,5.9-21.2,7-31.3,11.3c-18.4,7.8-26.9,26.2-21,41.5
			c5.9,15.4,24.3,27,44.9,30.5c6.3,1.1,13,1.5,18.7,3.9c4.4,1.8,7.8,4.6,11.1,7.5c9.5,8.3,17.8,17.4,24.8,27.1
			c5.2,7.1,9.7,14.6,16.4,20.9c6.6,6.2,15.1,11,22,17c16.2,14.2,22,33.9,37.7,48.4c10.4,9.6,25.5,16.7,41.9,17.6
			c16.3,0.9,33.6-4.9,41.8-15.7c9.8-13,5.4-29.7,12.8-43.5c4.8-8.9,14-15.9,22.2-23.2c14.3-12.8,26-27.2,34.5-42.7
			c6.4-11.7,11.1-24,11.8-36.7c1.3-23.5-11.1-46-23.3-67.7c-6.7-11.8-13.8-24.2-27.2-32.1c-3.2-1.9-6.7-3.5-10.7-4
			c-6.6-0.8-12.9,1.6-18.9,3.9c-15.7,5.9-32,11-48.7,15.3c-15.1,3.9-33.1,6.7-45.8-0.5c-4.4-2.5-7.8-6-12.8-7.6
			c-11.1-3.6-21.1,3.8-31.7,5c-6.1,0.7-12.2-0.4-18.2-0.3c-7,0.2-14.1,1.4-20.5,3.5C335.3,124.7,328.5,128.4,323.2,133.1z"/>
	</g>
</g>
<g id="дерево_2">
	<g>
	</g>
	<g>
		<path class="st14" d="M238.7,273.3c0,10.4-16.1,18.9-36,18.9c-19.9,0-36-8.4-36-18.9c0-10.4,16.1-18.9,36-18.9
			C222.6,254.5,238.7,262.9,238.7,273.3z"/>
	</g>
	<g>
		
			<linearGradient id="SVGID_10_" gradientUnits="userSpaceOnUse" x1="497.2849" y1="285.2683" x2="512.8641" y2="285.2683" gradientTransform="matrix(0.6436 1.251348e-02 2.381646e-02 -1.225 -144.8852 595.9094)">
			<stop  offset="0" style="stop-color:#E97D45"/>
			<stop  offset="1" style="stop-color:#97502B"/>
		</linearGradient>
		<polygon class="st15" points="192.4,233.3 191.6,269.6 191.3,270.4 190.6,271.2 189.7,271.8 188.5,272.2 187.2,272.4 185.9,272.4 
			184.7,272.1 183.5,271.7 182.6,271 182,270.2 181.6,269.4 182.4,233.1 182.7,233.1 183.4,233.2 184.3,233.3 185.4,233.4 
			186.7,233.5 188,233.7 189.3,233.8 189.3,233.8 190.4,233.6 191.4,233.4 192,233.3 		"/>
		<path class="st6" d="M192.4,233.3l-0.7,36.3l-0.4,0.8l-0.7,0.8l-0.9,0.6l-1.1,0.4l-1.3,0.2c-5-2.9-4.5-39.3-4.5-39.3l0.7,0.1
			l0.9,0.1l1.1,0.1l1.3,0.1l1.3,0.1l1.3,0.1l0,0l1.1-0.2l0.9-0.2l0.7-0.1L192.4,233.3z"/>
		<g>
			
				<linearGradient id="SVGID_11_" gradientUnits="userSpaceOnUse" x1="467.9656" y1="340.7805" x2="542.4411" y2="340.7805" gradientTransform="matrix(0.6436 1.251348e-02 2.381646e-02 -1.225 -144.8852 595.9094)">
				<stop  offset="0" style="stop-color:#7EB336"/>
				<stop  offset="1" style="stop-color:#4B7117"/>
			</linearGradient>
			<path class="st16" d="M211.7,216.9l-0.1,0.9c-0.1,2.4-1,4.8-2.4,6.7l-0.9,1.3c-0.9,1.3-2.1,2.3-3.4,3c-1.9,1.1-3.9,2-6,2.7
				c-2,0.7-4.1,1.3-6.3,1.7l-0.4,0.1l-0.3,0.1l-0.7,0.1l-0.9,0.2l-1.1,0.2l-0.1,0l-1.3-0.1l-1.3-0.1l-1.3-0.1l-1.1-0.1l-0.9-0.1
				l-0.7-0.1l-0.3,0c-2.1-0.2-4.1-0.8-6-1.6l-3.9-1.7c-1.2-0.5-2.2-1.2-3.1-2.2l-2.1-2.2c-1.4-1.4-2.4-3.3-3-5.3
				c0-0.1-0.1-0.3-0.1-0.4c-0.2-1-0.3-2-0.3-3c0-1.3,0.2-2.5,0.6-3.7l25-77.1c0,0,0,0,0,0l12.4,43.4l9.5,33.4
				C211.7,214,211.8,215.4,211.7,216.9z"/>
			
				<linearGradient id="SVGID_12_" gradientUnits="userSpaceOnUse" x1="461.1095" y1="353.9003" x2="543.4874" y2="329.6889" gradientTransform="matrix(0.6436 1.251348e-02 2.381646e-02 -1.225 -144.8852 595.9094)">
				<stop  offset="0" style="stop-color:#A9D340"/>
				<stop  offset="0.8441" style="stop-color:#57851A"/>
				<stop  offset="1" style="stop-color:#77A100"/>
			</linearGradient>
			<path class="st17" d="M189.4,135.8c0,0-12.6,72-17.3,81.7c-2,4.1-5.3,4.5-8,2.1c-0.2-1-0.3-2-0.3-3c0-1.3,0.2-2.5,0.6-3.7
				L189.4,135.8L189.4,135.8z"/>
		</g>
	</g>
	<g>
		
			<linearGradient id="SVGID_13_" gradientUnits="userSpaceOnUse" x1="534.4706" y1="247.4591" x2="550.0397" y2="247.4591" gradientTransform="matrix(0.6436 1.251347e-02 1.943880e-02 -0.9998 -143.1061 504.3994)">
			<stop  offset="0" style="stop-color:#E97D45"/>
			<stop  offset="1" style="stop-color:#97502B"/>
		</linearGradient>
		<polygon class="st18" points="216,247.9 215.4,277.5 215.1,278.2 214.4,278.8 213.5,279.3 212.3,279.6 211,279.8 209.7,279.8 
			208.5,279.6 207.3,279.2 206.4,278.6 205.8,278 205.4,277.3 206,247.7 206.4,247.7 207,247.8 208,247.8 209.1,247.9 210.4,248 
			211.7,248.2 212.9,248.3 213,248.3 214.1,248.1 215,248 215.7,247.9 		"/>
		<path class="st6" d="M216,247.9l-0.6,29.6l-0.4,0.7l-0.7,0.6l-0.9,0.5l-1.1,0.3l-1.3,0.2c-5-2.4-4.7-32.1-4.7-32.1l0.7,0.1
			l0.9,0.1l1.1,0.1l1.3,0.1l1.3,0.1l1.3,0.1l0,0l1.1-0.2l0.9-0.1l0.7-0.1L216,247.9z"/>
		<g>
			
				<linearGradient id="SVGID_14_" gradientUnits="userSpaceOnUse" x1="505.1365" y1="302.971" x2="579.6117" y2="302.971" gradientTransform="matrix(0.6436 1.251347e-02 1.943880e-02 -0.9998 -143.1061 504.3994)">
				<stop  offset="0" style="stop-color:#7EB336"/>
				<stop  offset="1" style="stop-color:#4B7117"/>
			</linearGradient>
			<path class="st19" d="M235.3,234.6l-0.1,0.7c-0.1,2-0.9,3.9-2.3,5.4l-0.9,1c-0.9,1-2.1,1.9-3.4,2.5c-1.9,0.9-3.9,1.6-6,2.2
				c-2,0.6-4.1,1-6.3,1.4l-0.4,0.1l-0.3,0L215,248l-0.9,0.1l-1.1,0.2l-0.1,0l-1.3-0.1l-1.3-0.1l-1.3-0.1l-1.1-0.1l-0.9-0.1l-0.7-0.1
				l-0.3,0c-2.1-0.2-4.1-0.6-6-1.3l-4-1.4c-1.2-0.4-2.2-1-3.1-1.8l-2.1-1.8c-1.4-1.2-2.5-2.7-3-4.4c0-0.1-0.1-0.2-0.1-0.4
				c-0.2-0.8-0.3-1.6-0.3-2.5c0-1,0.2-2.1,0.6-3.1l24.7-62.8c0,0,0,0,0,0l12.5,35.5l9.6,27.3C235.2,232.2,235.4,233.4,235.3,234.6z"
				/>
			
				<linearGradient id="SVGID_15_" gradientUnits="userSpaceOnUse" x1="498.3016" y1="316.0793" x2="580.5717" y2="291.8996" gradientTransform="matrix(0.6436 1.251347e-02 1.943880e-02 -0.9998 -143.1061 504.3994)">
				<stop  offset="0" style="stop-color:#A9D340"/>
				<stop  offset="0.8441" style="stop-color:#57851A"/>
				<stop  offset="1" style="stop-color:#77A100"/>
			</linearGradient>
			<path class="st20" d="M212.7,168.3c0,0-12.3,58.7-17,66.6c-2,3.4-5.3,3.7-8,1.7c-0.2-0.8-0.3-1.6-0.3-2.5c0-1,0.2-2.1,0.6-3.1
				L212.7,168.3L212.7,168.3z"/>
		</g>
	</g>
	<path class="st21" d="M200.6,233.9c-0.1,1.3-0.4,2.3-0.7,2.3c-0.3,0-0.5-1.1-0.4-2.3c0.1-1.3,0.4-2.3,0.7-2.3
		C200.5,231.6,200.7,232.6,200.6,233.9z"/>
	<path class="st21" d="M215.1,216.5c-0.1,1.3-0.4,2.3-0.7,2.3c-0.3,0-0.5-1.1-0.4-2.3c0.1-1.3,0.4-2.3,0.7-2.3
		C215,214.2,215.2,215.2,215.1,216.5z"/>
	<path class="st21" d="M215.1,233.1c-0.1,1.3-0.4,2.3-0.7,2.3c-0.3,0-0.5-1.1-0.4-2.3c0.1-1.3,0.4-2.3,0.7-2.3
		C215,230.8,215.2,231.9,215.1,233.1z"/>
	<path class="st21" d="M207.5,226.9c-0.1,1.3-0.5,2.3-1,2.3c-0.4,0-0.7-1.1-0.6-2.3s0.5-2.3,1-2.3
		C207.4,224.6,207.6,225.7,207.5,226.9z"/>
	<path class="st21" d="M206,210.9c-0.1,1.3-0.4,2.3-0.7,2.3c-0.3,0-0.5-1.1-0.4-2.3c0.1-1.3,0.4-2.3,0.7-2.3
		C205.9,208.6,206.1,209.7,206,210.9z"/>
	<path class="st21" d="M215.1,204.5c-0.1,1.3-0.4,2.3-0.7,2.3c-0.3,0-0.5-1.1-0.4-2.3c0.1-1.3,0.4-2.3,0.7-2.3
		C215,202.1,215.2,203.2,215.1,204.5z"/>
	<path class="st21" d="M210.3,184c-0.1,1.3-0.4,2.3-0.7,2.3s-0.5-1.1-0.4-2.3c0.1-1.3,0.4-2.3,0.7-2.3
		C210.2,181.7,210.4,182.7,210.3,184z"/>
	<g>
		
			<linearGradient id="SVGID_16_" gradientUnits="userSpaceOnUse" x1="641.997" y1="228.6028" x2="656.1448" y2="228.6028" gradientTransform="matrix(0.4742 9.218787e-03 1.608718e-02 -0.8274 -112.8609 453.7512)">
			<stop  offset="0" style="stop-color:#E97D45"/>
			<stop  offset="1" style="stop-color:#97502B"/>
		</linearGradient>
		<polygon class="st22" points="202.2,258.6 201.7,280.9 201.5,281.5 201,281.9 200.4,282.3 199.6,282.6 198.8,282.7 197.9,282.7 
			197,282.5 196.3,282.2 195.7,281.8 195.2,281.3 195,280.8 195.5,258.4 195.7,258.4 196.1,258.5 196.8,258.5 197.5,258.6 
			198.4,258.7 199.3,258.8 200.1,258.9 200.1,258.9 200.9,258.8 201.5,258.7 201.9,258.6 		"/>
		<path class="st6" d="M202.2,258.6l-0.5,22.4l-0.2,0.5l-0.5,0.5l-0.6,0.4l-0.8,0.3l-0.9,0.1c-3.3-1.8-3.1-24.2-3.1-24.2l0.4,0
			l0.6,0.1l0.8,0.1l0.8,0.1l0.9,0.1l0.9,0.1l0,0l0.7-0.1l0.6-0.1l0.4-0.1L202.2,258.6z"/>
		<g>
			
				<linearGradient id="SVGID_17_" gradientUnits="userSpaceOnUse" x1="615.3583" y1="279.2523" x2="683.0098" y2="279.2523" gradientTransform="matrix(0.4742 9.218787e-03 1.608718e-02 -0.8274 -112.8609 453.7512)">
				<stop  offset="0" style="stop-color:#7EB336"/>
				<stop  offset="1" style="stop-color:#4B7117"/>
			</linearGradient>
			<path class="st23" d="M215.1,248.5l0,0.6c-0.1,1.5-0.6,2.9-1.6,4.1l-0.6,0.8c-0.6,0.8-1.4,1.4-2.3,1.9c-1.3,0.7-2.6,1.2-4,1.7
				s-2.8,0.8-4.2,1l-0.2,0l-0.2,0l-0.4,0.1l-0.6,0.1l-0.7,0.1l0,0l-0.9-0.1l-0.9-0.1l-0.8-0.1l-0.8-0.1l-0.6-0.1l-0.4,0l-0.2,0
				c-1.4-0.1-2.7-0.5-4-1l-2.6-1.1c-0.8-0.3-1.5-0.8-2.1-1.3l-1.4-1.3c-0.9-0.9-1.6-2-2-3.3c0-0.1,0-0.2-0.1-0.3
				c-0.1-0.6-0.2-1.2-0.2-1.9c0-0.8,0.2-1.6,0.4-2.3l16.6-47.5c0,0,0,0,0,0l8.3,26.8l6.4,20.6C215,246.7,215.2,247.6,215.1,248.5z"
				/>
			
				<linearGradient id="SVGID_18_" gradientUnits="userSpaceOnUse" x1="609.2425" y1="291.1565" x2="683.6813" y2="269.2784" gradientTransform="matrix(0.4742 9.218787e-03 1.608718e-02 -0.8274 -112.8609 453.7512)">
				<stop  offset="0" style="stop-color:#A9D340"/>
				<stop  offset="0.8441" style="stop-color:#57851A"/>
				<stop  offset="1" style="stop-color:#77A100"/>
			</linearGradient>
			<path class="st24" d="M200.1,198.5c0,0-8.4,44.4-11.5,50.3c-1.3,2.5-3.5,2.8-5.4,1.3c-0.1-0.6-0.2-1.2-0.2-1.9
				c0-0.8,0.2-1.6,0.4-2.3L200.1,198.5L200.1,198.5z"/>
		</g>
	</g>
</g>
<g id="ангар">
	<g id="зданния">
		<path class="st25" d="M230.9,325l17.1-1.2l0-10.5L230.9,325z"/>
		<path class="st26" d="M322.3,214.2v41.4l4.9,3.3V232l15,10.1v26.9l10.3,6.9v-26.7l17.3,11.6v26.7l6.1,4.1l53.6,36v-41.4L375.9,223
			L322.3,214.2L322.3,214.2z"/>
		<path class="st27" d="M426.1,325.3l0.4,0.3v-43l-0.4-0.3C426.1,282.4,426.1,325.3,426.1,325.3z M422,322.5l0.4,0.3v-45.1l-0.4-0.3
			V322.5z M418.2,320l0.4,0.3v-47l-0.4-0.3C418.2,273,418.2,320,418.2,320z M413.6,316.9l0.4,0.3v-49.4l-0.4-0.3
			C413.6,267.5,413.6,316.9,413.6,316.9z M409.6,314.2l0.4,0.3v-51.4l-0.4-0.3C409.6,262.8,409.6,314.2,409.6,314.2z M405.5,311.5
			l0.4,0.3v-53.5l-0.4-0.3C405.5,258,405.5,311.5,405.5,311.5z M401.9,309l0.4,0.3V254l-0.4-0.3V309z M398.3,306.6l0.4,0.3v-57.1
			l-0.4-0.3V306.6z M394.1,303.8l0.4,0.3v-59.2l-0.4-0.3V303.8z M390.1,301.1l0.4,0.3v-61.2l-0.4-0.3V301.1z M386.9,299l0.4,0.3
			v-62.9l-0.4-0.3V299z M383.4,296.6l0.4,0.3v-64.7l-0.4-0.3V296.6z M380.2,294.4l0.4,0.3v-66.3l-0.4-0.3V294.4z M376.9,292.2
			l0.4,0.3v-68l-0.4-0.3L376.9,292.2z M373.5,289.9l0.4,0.3v-67.4l-0.4-0.3V289.9z M369.5,221.9l0,38.7v26.7l0.4,0.3v-26.7l0-38.8
			C369.9,222.1,369.5,221.9,369.5,221.9z M366.8,258.7l0.4,0.3v-37.3l-0.4-0.3V258.7z M363.4,256.4l0.4,0.3v-35.6l-0.4-0.3V256.4z
			 M359.8,254l0.4,0.3v-33.8l-0.4-0.3V254z M356.7,251.9l0.4,0.3V220l-0.4-0.3V251.9z M353.2,249.6l0.4,0.3v-30.4l-0.4-0.3V249.6z
			 M350.3,274.4l0.4,0.3V219l-0.4-0.3V274.4z M347.3,272.4l0.4,0.3v-54.2l-0.4-0.3V272.4z M344.1,270.2l0.4,0.3v-52.5l-0.4-0.3
			C344.1,217.7,344.1,270.2,344.1,270.2z M341.1,241.1l0.4,0.3v-23.9l-0.4-0.3V241.1z M337.9,238.9l0.4,0.3v-22.3l-0.4-0.3V238.9z
			 M334.9,236.9l0.4,0.3v-20.8l-0.4-0.3V236.9z M331.1,234.6l0.4,0.3v-19.1l-0.4-0.3V234.6z M328.3,232.5l0.4,0.3v-17.4l-0.4-0.3
			C328.3,215,328.3,232.5,328.3,232.5z M324.9,257.3l0.4,0.3l0-42.8l-0.4-0.3V257.3z"/>
		<path class="st28" d="M333.3,393.8l96.3-66.2v-41.4l-96.3,66.2V393.8z M256.3,342l96.3-66.2v-41.4l-96.3,66.2V342z"/>
		<path class="st28" d="M230.9,325l96.3-66.2v-41.4l-96.3,66.2V325z"/>
		<path class="st26" d="M226.1,280.3l0,41.4l4.9,3.3v-26.9l15,10.1v26.9l10.3,6.9v-26.7l17.3,11.6v26.7l6.2,4.1l53.6,36v-41.4
			l-53.6-63.2L226.1,280.3L226.1,280.3z"/>
		<path class="st27" d="M329.9,391.5l0.4,0.3v-43l-0.4-0.3V391.5z M325.7,388.7l0.4,0.3v-45.1l-0.4-0.3V388.7z M321.9,386.1l0.4,0.3
			v-47l-0.4-0.3V386.1z M317.3,383l0.4,0.3V334l-0.4-0.3V383L317.3,383z M313.3,380.4l0.4,0.3v-51.4l-0.4-0.3L313.3,380.4z
			 M309.2,377.6l0.4,0.3v-53.5l-0.4-0.3V377.6z M305.6,375.2l0.4,0.3v-55.3l-0.4-0.3V375.2z M302,372.7l0.4,0.3v-57.1l-0.4-0.3
			V372.7z M297.8,370l0.4,0.3V311l-0.4-0.3V370z M293.9,367.3l0.4,0.3v-61.2l-0.4-0.3V367.3z M290.6,365.1l0.4,0.3v-62.9l-0.4-0.3
			V365.1z M287.1,362.8l0.4,0.3v-64.7l-0.4-0.3V362.8z M283.9,360.6l0.4,0.3v-66.3l-0.4-0.3V360.6z M280.6,358.4l0.4,0.3v-68
			l-0.4-0.3V358.4z M277.2,356.1l0.4,0.3V289l-0.4-0.3V356.1z M273.3,288l0,38.8v26.7l0.4,0.3v-26.7l0-38.8L273.3,288z M270.5,324.9
			l0.4,0.3v-37.3l-0.4-0.3V324.9z M267.1,322.6l0.4,0.3v-35.6l-0.4-0.3C267.1,287,267.1,322.6,267.1,322.6z M263.5,320.2l0.4,0.3
			v-33.8l-0.4-0.3C263.5,286.4,263.5,320.2,263.5,320.2z M260.4,318.1l0.4,0.3v-32.2l-0.4-0.3C260.4,285.9,260.4,318.1,260.4,318.1z
			 M256.9,315.8l0.4,0.3v-30.4l-0.4-0.3V315.8z M254,340.5l0.4,0.3v-55.7l-0.4-0.3V340.5z M251,338.5l0.4,0.3v-54.2l-0.4-0.3
			C251,284.4,251,338.5,251,338.5z M247.9,336.4l0.4,0.3v-52.5l-0.4-0.3V336.4z M244.8,307.3l0.4,0.3v-23.9l-0.4-0.3
			C244.8,283.3,244.8,307.3,244.8,307.3z M241.6,305.1l0.4,0.3v-22.3l-0.4-0.3C241.6,282.8,241.6,305.1,241.6,305.1z M238.6,303.1
			l0.4,0.3v-20.8l-0.4-0.3V303.1z M234.9,300.8l0.4,0.3V282l-0.4-0.3V300.8z M232,298.6l0.4,0.3v-17.4l-0.4-0.3V298.6z M228.6,323.4
			l0.4,0.3v-42.8l-0.4-0.3V323.4z"/>
		<path class="st29" d="M337.5,367.8l44.5-30.7v-8.9l-44.5,30.6V367.8z"/>
		<path class="st30" d="M352.1,357.2l29.4-26.5v-0.9L349.5,359L352.1,357.2L352.1,357.2z M338,366.7l-0.1,0.3l0.4-0.3l29.5-28
			l-2.6,1.8L338,366.7z"/>
		<path class="st31" d="M337.5,367.8l44.5-30.7v-8.9l-44.5,30.6V367.8z M338,359.1l43.6-30v7.7L338,366.9V359.1z"/>
		<path class="st31" d="M377.7,340.2l0.4-0.3V331l-0.4,0.3V340.2z M373.7,342.9l0.4-0.3v-8.9l-0.4,0.3V342.9z M369.8,345.6l0.4-0.3
			v-8.9l-0.4,0.3V345.6z M365.8,348.3l0.4-0.3v-8.9l-0.4,0.3V348.3z M362.2,350.8l0.4-0.3v-8.9l-0.4,0.3V350.8z M358.2,353.5
			l0.4-0.3v-8.9l-0.4,0.3V353.5z M354.3,356.3l0.4-0.3V347l-0.4,0.3V356.3z M350.3,359l0.4-0.3v-8.9l-0.4,0.3V359z M346.3,361.8
			l0.4-0.3v-8.9l-0.4,0.3V361.8z M342.3,364.5l0.4-0.3v-8.9l-0.4,0.3V364.5z"/>
		<path class="st29" d="M382.1,337.1l44.5-30.7v-8.9l-44.5,30.6V337.1z"/>
		<path class="st30" d="M396.6,326.5l29.4-26.5v-0.9L394,328.3L396.6,326.5L396.6,326.5z M382.5,336l-0.1,0.3l0.4-0.3l29.5-28
			l-2.5,1.8L382.5,336L382.5,336z"/>
		<path class="st31" d="M382.1,337.1l44.5-30.7v-8.9l-44.5,30.6V337.1z M382.5,328.5l43.6-30v7.7l-43.6,30.1V328.5z"/>
		<path class="st31" d="M422.2,309.5l0.4-0.3v-8.9l-0.4,0.3V309.5z M418.3,312.2l0.4-0.3V303l-0.4,0.3V312.2z M414.3,314.9l0.4-0.3
			v-8.9l-0.4,0.3V314.9z M410.3,317.7l0.5-0.3v-8.9l-0.5,0.3V317.7z M406.7,320.2l0.4-0.3v-8.9l-0.4,0.3V320.2z M402.8,322.9
			l0.4-0.3v-8.9l-0.4,0.3V322.9z M398.8,325.6l0.4-0.3v-8.9l-0.4,0.3V325.6z M394.9,328.3l0.4-0.3v-8.9l-0.4,0.3V328.3z
			 M390.8,331.1l0.4-0.3v-8.9l-0.4,0.3V331.1z M386.8,333.8l0.4-0.3v-8.9l-0.4,0.3V333.8z"/>
		<path class="st29" d="M232.7,294.8l11.8,8.1v-2.4l-11.8-8.1C232.7,292.4,232.7,294.8,232.7,294.8z"/>
		<path class="st30" d="M232.8,293l7.8,7l0.7,0.5l-8.5-7.8V293z M237.1,295.6l-0.7-0.5l7.8,7.4l0.1,0.1l0-0.1L237.1,295.6
			L237.1,295.6z"/>
		<path class="st31" d="M232.7,294.8l11.8,8.2v-2.4l-11.8-8.1V294.8z M232.8,292.6l11.6,8v2l-11.6-8L232.8,292.6z"/>
		<path class="st31" d="M235.2,296.5l0.1,0.1v-2.4l-0.1-0.1V296.5z M237.3,297.9l0.1,0.1v-2.4l-0.1-0.1
			C237.3,295.6,237.3,297.9,237.3,297.9z M239.3,299.3l0.1,0.1V297l-0.1-0.1C239.3,296.9,239.3,299.3,239.3,299.3z M241.4,300.8
			l0.1,0.1v-2.4l-0.1-0.1V300.8z"/>
		<path class="st29" d="M232.7,292.4l11.8,8.1v-2.4l-11.8-8.1V292.4z"/>
		<path class="st30" d="M232.8,290.7l7.8,7l0.7,0.5l-8.5-7.8V290.7z M237.1,293.3l-0.7-0.5l7.8,7.4l0.1,0.1l0-0.1L237.1,293.3
			L237.1,293.3z"/>
		<path class="st31" d="M232.7,292.5l11.8,8.2v-2.4l-11.8-8.2V292.5z M232.8,290.3l11.6,8v2.1l-11.6-8V290.3z"/>
		<path class="st31" d="M235.2,294.1l0.1,0.1v-2.4l-0.1-0.1V294.1z M237.3,295.6l0.1,0.1v-2.4l-0.1-0.1V295.6z M239.3,297l0.1,0.1
			v-2.4l-0.1-0.1V297z M241.4,298.4l0.1,0.1v-2.4l-0.1-0.1V298.4z"/>
		<path class="st29" d="M232.7,297.1l11.8,8.1v-2.4l-11.8-8.1V297.1z"/>
		<path class="st30" d="M232.8,295.4l7.8,7l0.7,0.5l-8.5-7.8V295.4z M237.1,298l-0.7-0.5l7.8,7.4l0.1,0.1l0-0.1L237.1,298L237.1,298
			z"/>
		<path class="st31" d="M232.7,297.1l11.8,8.2v-2.4l-11.8-8.2V297.1z M232.8,295l11.6,8v2.1l-11.6-8V295z"/>
		<path class="st31" d="M235.2,298.8l0.1,0.1v-2.4l-0.1-0.1V298.8z M237.3,300.3l0.1,0.1V298l-0.1-0.1V300.3z M239.3,301.7l0.1,0.1
			v-2.4l-0.1-0.1V301.7z M241.4,303.1l0.1,0.1v-2.4l-0.1-0.1V303.1z"/>
		<path class="st29" d="M259.1,313.1l11.8,8.1v-2.4l-11.8-8.1C259.1,310.8,259.1,313.1,259.1,313.1z"/>
		<path class="st30" d="M259.2,311.4l7.8,7l0.7,0.5l-8.5-7.8V311.4z M263.5,314l-0.7-0.5l7.8,7.4l0.1,0.1l0-0.1L263.5,314L263.5,314
			z"/>
		<path class="st31" d="M259.1,313.1l11.8,8.2v-2.4l-11.8-8.2V313.1z M259.2,311l11.6,8v2l-11.6-8V311z"/>
		<path class="st31" d="M261.6,314.9l0.1,0.1v-2.4l-0.1-0.1V314.9z M263.7,316.3l0.1,0.1V314l-0.1-0.1V316.3z M265.7,317.7l0.1,0.1
			v-2.4l-0.1-0.1V317.7z M267.8,319.1l0.1,0.1v-2.4l-0.1-0.1C267.8,316.8,267.8,319.1,267.8,319.1z"/>
		<path class="st29" d="M259.1,310.8l11.8,8.1v-2.4l-11.8-8.1V310.8z"/>
		<path class="st30" d="M259.2,309.1l7.8,7l0.7,0.5l-8.5-7.8V309.1z M263.5,311.7l-0.7-0.5l7.8,7.4l0.1,0.1l0-0.1L263.5,311.7
			L263.5,311.7z"/>
		<path class="st31" d="M259.1,310.8l11.8,8.2v-2.4l-11.8-8.2V310.8z M259.2,308.7l11.6,8v2.1l-11.6-8V308.7z"/>
		<path class="st31" d="M261.6,312.5l0.1,0.1v-2.4l-0.1-0.1C261.6,310.2,261.6,312.5,261.6,312.5z M263.7,314l0.1,0.1v-2.4l-0.1-0.1
			V314z M265.7,315.4l0.1,0.1v-2.4l-0.1-0.1V315.4z M267.8,316.8l0.1,0.1v-2.4l-0.1-0.1V316.8z"/>
		<path class="st29" d="M259.1,315.5l11.8,8.1v-2.4l-11.8-8.1C259.1,313.2,259.1,315.5,259.1,315.5z"/>
		<path class="st30" d="M259.2,313.8l7.8,7l0.7,0.5l-8.5-7.8V313.8z M263.5,316.4l-0.7-0.5l7.8,7.4l0.1,0.1l0-0.1L263.5,316.4
			L263.5,316.4z"/>
		<path class="st31" d="M259.1,315.6l11.8,8.2v-2.4l-11.8-8.2V315.6z M259.2,313.4l11.6,8v2.1l-11.6-8V313.4z"/>
		<path class="st31" d="M261.6,317.2l0.1,0.1v-2.4l-0.1-0.1V317.2z M263.7,318.7l0.1,0.1v-2.4l-0.1-0.1
			C263.7,316.3,263.7,318.7,263.7,318.7z M265.7,320.1l0.1,0.1v-2.4l-0.1-0.1V320.1z M267.8,321.5l0.1,0.1v-2.4l-0.1-0.1V321.5z"/>
		<path class="st32" d="M279.7,289.2l53.6,68l98.4-68.5L375.9,223L279.7,289.2L279.7,289.2z"/>
		<path class="st33" d="M221.7,280.3l58,8.9l96.3-66.2l-56-9.2L221.7,280.3z"/>
		<path class="st34" d="M292.4,291.3l9.6,12.4l84.5-58.5l-9.9-11.6C376.5,233.5,292.4,291.3,292.4,291.3z"/>
		<path class="st31" d="M292.4,291.3l9.6,12.4l84.4-58.5l-9.9-11.6L292.4,291.3z M302.1,302.2l-8.3-10.7l82.5-56.7l8.5,10.1
			L302.1,302.2z"/>
		<path class="st31" d="M306.8,281.6l9.4,12.1l0.4-1.2l-8.9-11.6L306.8,281.6L306.8,281.6z M320.9,272l9.4,12.1l0.4-1.2l-8.9-11.6
			L320.9,272L320.9,272z M335.1,262l9.4,12.1l0.4-1.2l-8.9-11.6L335.1,262L335.1,262z M349.2,252.5l9.4,12.1l0.4-1.2l-8.9-11.6
			L349.2,252.5L349.2,252.5z M363.6,242.7l9.1,11.8l0.4-0.3l0.1-0.5l-8.9-11.6L363.6,242.7z"/>
		<path class="st34" d="M308.7,311.4l9.6,12.4l84.5-58.5l-9.9-11.6C392.8,253.6,308.7,311.4,308.7,311.4z"/>
		<path class="st31" d="M308.7,311.4l9.6,12.3l84.5-58.4l-9.9-11.6L308.7,311.4z M318.4,322.4l-8.3-10.7l82.5-56.7l8.6,10
			L318.4,322.4z"/>
		<path class="st31" d="M323.1,301.7l9.4,12.1l0.4-1.2l-8.9-11.6L323.1,301.7z M337.2,292.1l9.4,12.1l0.4-1.2l-8.9-11.6L337.2,292.1
			z M351.3,282.2l9.4,12.1l0.4-1.2l-8.9-11.6C352.2,281.5,351.3,282.2,351.3,282.2z M365.4,272.6l9.4,12.1l0.4-1.2l-8.9-11.6
			C366.3,272,365.4,272.6,365.4,272.6z M379.8,262.8l9.1,11.8c0.1-0.1,0.3-0.2,0.4-0.3l0.2-0.5l-8.8-11.6L379.8,262.8z"/>
		<path class="st34" d="M266.8,280.1l12.1,1.8l84.1-57.8l-13.7-2.2L266.8,280.1z"/>
		<path class="st31" d="M266.8,280.1l12.1,1.8l84.1-57.8l-13.7-2.2L266.8,280.1z M360.2,224.8l-81.5,56l-9.1-1.4l79.9-56.3
			L360.2,224.8z"/>
		<path class="st31" d="M282.7,270.4l-0.6,0l-1.9,0.7L292,273l-0.2-1.1L282.7,270.4z M297.6,260.1l-0.6,0l-1.9,0.7l11.9,1.8
			l-0.2-1.1L297.6,260.1z M310.5,250.2l-1.9,0.8l11.9,1.8l1.5-0.9l-10.8-1.6L310.5,250.2L310.5,250.2z M325.5,239.9l-1.9,0.7
			l11.9,1.8l1.8-0.8l-11.1-1.7L325.5,239.9z M338.4,230.4l-1.9,0.7l11.9,1.8l1.8-0.8l-11.1-1.7C339,230.4,338.4,230.4,338.4,230.4z"
			/>
		<path class="st34" d="M245.8,276.9l12.1,1.9L342,221l-13.7-2.2L245.8,276.9z"/>
		<path class="st31" d="M245.8,277l12.1,1.9l84.1-57.8l-13.7-2.2L245.8,277z M339.2,221.7l-81.5,56l-9.1-1.4l79.9-56.3L339.2,221.7z
			"/>
		<path class="st31" d="M261.6,267.3l-0.6-0.1L259,268l11.9,1.8l-0.2-1.1L261.6,267.3L261.6,267.3z M276.6,257l-0.6,0l-1.9,0.7
			l11.9,1.8l-0.2-1.1L276.6,257z M289.5,247.1l-1.9,0.8l11.9,1.8l1.5-0.9l-10.8-1.6L289.5,247.1z M304.5,236.8l-1.9,0.7l11.9,1.8
			l1.8-0.8l-11.1-1.7L304.5,236.8L304.5,236.8z M317.3,227.2l-1.9,0.8l11.9,1.8l1.8-0.8l-11.1-1.7
			C318,227.3,317.3,227.2,317.3,227.2z"/>
		<path class="st35" d="M221.7,280.3v2l58,9l53.6,68.5v-2.7l-53.6-68L221.7,280.3L221.7,280.3z"/>
		<path class="st36" d="M333.3,359.9l98.4-69.4v-1.8l-98.4,68.5V359.9z"/>
		<path class="st25" d="M256.2,342l17.1-1.2l0-10.5L256.2,342z"/>
	</g>
	<g id="зданния_1_">
		<path class="st25" d="M536.8,267.2l16.8-1.2l0-10.3L536.8,267.2z"/>
		<path class="st26" d="M626.9,158.2v40.7l4.8,3.2v-26.4l14.8,9.9V212l10.2,6.8v-26.3l17,11.4v26.3l6.1,4.1l52.9,35.4v-40.7
			l-52.9-62.2L626.9,158.2L626.9,158.2z"/>
		<path class="st27" d="M729.2,267.5l0.4,0.3v-42.3l-0.4-0.3C729.2,225.2,729.2,267.5,729.2,267.5z M725.1,264.7l0.4,0.3v-44.4
			l-0.4-0.3V264.7z M721.4,262.2l0.4,0.3v-46.3l-0.4-0.3C721.4,216,721.4,262.2,721.4,262.2z M716.8,259.2l0.4,0.3v-48.5l-0.4-0.3
			C716.8,210.6,716.8,259.2,716.8,259.2z M712.9,256.5l0.4,0.3v-50.5l-0.4-0.3C712.9,206,712.9,256.5,712.9,256.5z M708.9,253.8
			l0.4,0.3v-52.6l-0.4-0.3C708.9,201.3,708.9,253.8,708.9,253.8z M705.3,251.4l0.4,0.3v-54.4l-0.4-0.3V251.4z M701.7,249l0.4,0.3
			v-56.2l-0.4-0.3V249z M697.7,246.3l0.4,0.3v-58.2l-0.4-0.3V246.3z M693.7,243.7l0.4,0.3v-60.2l-0.4-0.3V243.7z M690.5,241.5
			l0.4,0.3V180l-0.4-0.3V241.5z M687.1,239.2l0.4,0.3v-63.6l-0.4-0.3V239.2z M683.9,237.1l0.4,0.3v-65.2l-0.4-0.3V237.1z
			 M680.7,234.9l0.4,0.3v-66.8l-0.4-0.3L680.7,234.9z M677.3,232.7l0.4,0.3v-66.3l-0.4-0.3V232.7z M673.4,165.7l0,38.1v26.3l0.4,0.3
			v-26.2l0-38.1C673.8,166,673.4,165.7,673.4,165.7z M670.7,202l0.4,0.3v-36.7l-0.4-0.3V202z M667.4,199.7l0.4,0.3v-35l-0.4-0.3
			V199.7z M663.8,197.4l0.4,0.3v-33.2l-0.4-0.3V197.4z M660.7,195.3l0.4,0.3v-31.7l-0.4-0.3V195.3z M657.3,193l0.4,0.3v-29.9
			l-0.4-0.3V193z M654.5,217.3l0.4,0.3v-54.7l-0.4-0.3V217.3z M651.5,215.4l0.4,0.3v-53.3l-0.4-0.3V215.4z M648.4,213.3l0.4,0.3
			v-51.7l-0.4-0.3C648.4,161.6,648.4,213.3,648.4,213.3z M645.4,184.6l0.4,0.3v-23.5l-0.4-0.3V184.6z M642.2,182.5l0.4,0.3v-21.9
			l-0.4-0.3V182.5z M639.3,180.5l0.4,0.3v-20.4l-0.4-0.3V180.5z M635.6,178.2l0.4,0.3v-18.8l-0.4-0.3V178.2z M632.8,176.2l0.4,0.3
			v-17.1l-0.4-0.3C632.8,159,632.8,176.2,632.8,176.2z M629.4,200.6l0.4,0.3l0-42.1l-0.4-0.3V200.6z"/>
		<path class="st28" d="M637.7,334.8l94.9-65.1v-40.7l-94.9,65.1V334.8z M561.8,283.9l94.9-65.1v-40.7l-94.9,65.1V283.9z"/>
		<path class="st28" d="M536.8,267.2l94.9-65.1v-40.7l-94.9,65.1V267.2z"/>
		<path class="st26" d="M532,223.2l0,40.7l4.8,3.2v-26.4l14.8,9.9v26.4l10.2,6.8v-26.3l17,11.4v26.2l6.1,4.1l52.8,35.4v-40.7
			l-52.8-62.2L532,223.2L532,223.2z"/>
		<path class="st27" d="M634.3,332.5l0.4,0.3v-42.3l-0.4-0.3V332.5z M630.2,329.8l0.4,0.3v-44.4l-0.4-0.3V329.8z M626.5,327.3
			l0.4,0.3v-46.3l-0.4-0.3V327.3z M621.9,324.2l0.4,0.3V276l-0.4-0.3V324.2L621.9,324.2z M618,321.6l0.4,0.3v-50.6L618,271
			L618,321.6z M614,318.9l0.4,0.3v-52.6l-0.4-0.3V318.9z M610.4,316.5l0.4,0.3v-54.4l-0.4-0.3V316.5z M606.8,314.1l0.4,0.3v-56.2
			l-0.4-0.3V314.1z M602.8,311.4l0.4,0.3v-58.2l-0.4-0.3V311.4z M598.8,308.7l0.4,0.3v-60.2l-0.4-0.3V308.7z M595.6,306.6l0.4,0.3
			V245l-0.4-0.3V306.6z M592.2,304.3l0.4,0.3V241l-0.4-0.3V304.3z M589,302.1l0.4,0.3v-65.2l-0.4-0.3V302.1z M585.8,300l0.4,0.3
			v-66.8l-0.4-0.3V300z M582.4,297.7l0.4,0.3v-66.3l-0.4-0.3V297.7z M578.5,230.8l0,38.1v26.3l0.4,0.3v-26.2l0-38.1L578.5,230.8z
			 M575.8,267l0.4,0.3v-36.7l-0.4-0.3V267z M572.4,264.8l0.4,0.3v-35l-0.4-0.3C572.4,229.8,572.4,264.8,572.4,264.8z M568.9,262.4
			l0.4,0.3v-33.2l-0.4-0.3C568.9,229.2,568.9,262.4,568.9,262.4z M565.8,260.4l0.4,0.3V229l-0.4-0.3
			C565.8,228.7,565.8,260.4,565.8,260.4z M562.4,258.1l0.4,0.3v-29.9l-0.4-0.3V258.1z M559.6,282.4l0.4,0.3v-54.7l-0.4-0.3V282.4z
			 M556.6,280.4l0.4,0.3v-53.3l-0.4-0.3C556.6,227.2,556.6,280.4,556.6,280.4z M553.5,278.3l0.4,0.3v-51.7l-0.4-0.3V278.3z
			 M550.5,249.7l0.4,0.3v-23.5l-0.4-0.3C550.5,226.2,550.5,249.7,550.5,249.7z M547.3,247.6l0.4,0.3v-21.9l-0.4-0.3
			C547.3,225.6,547.3,247.6,547.3,247.6z M544.4,245.6l0.4,0.3v-20.4l-0.4-0.3V245.6z M540.7,243.3l0.4,0.3v-18.7l-0.4-0.3V243.3z
			 M537.9,241.2l0.4,0.3v-17.1l-0.4-0.3V241.2z M534.5,265.6l0.4,0.3v-42.1l-0.4-0.3V265.6z"/>
		<path class="st29" d="M641.9,309.2l43.9-30.2v-8.8l-43.9,30.1V309.2z"/>
		<path class="st30" d="M656.3,298.8l29-26.1v-0.8l-31.6,28.7L656.3,298.8L656.3,298.8z M642.3,308.1l-0.1,0.3l0.4-0.3l29.1-27.6
			l-2.5,1.7L642.3,308.1z"/>
		<path class="st31" d="M641.9,309.2l43.9-30.2v-8.8l-43.9,30.1V309.2z M642.3,300.7l43-29.5v7.6l-43,29.6V300.7z"/>
		<path class="st31" d="M681.5,282.1l0.4-0.3V273l-0.4,0.3V282.1z M677.6,284.7l0.4-0.3v-8.8l-0.4,0.3V284.7z M673.7,287.4l0.4-0.3
			v-8.8l-0.4,0.3V287.4z M669.8,290.1l0.4-0.3V281l-0.4,0.3V290.1z M666.2,292.5l0.4-0.3v-8.8l-0.4,0.3V292.5z M662.3,295.2l0.4-0.3
			v-8.8l-0.4,0.3V295.2z M658.4,297.9l0.4-0.3v-8.8l-0.4,0.3V297.9z M654.5,300.5l0.4-0.3v-8.8l-0.4,0.3V300.5z M650.5,303.3
			l0.4-0.3v-8.8l-0.4,0.3V303.3z M646.6,306l0.4-0.3v-8.8l-0.4,0.3V306z"/>
		<path class="st29" d="M685.8,279.1l43.9-30.2v-8.8l-43.9,30.1V279.1z"/>
		<path class="st30" d="M700.1,268.6l29-26.1v-0.8l-31.6,28.7L700.1,268.6L700.1,268.6z M686.2,277.9l-0.1,0.3l0.4-0.3l29-27.6
			l-2.5,1.7L686.2,277.9L686.2,277.9z"/>
		<path class="st31" d="M685.8,279.1l43.9-30.2v-8.8l-43.9,30.1V279.1z M686.2,270.6l43-29.5v7.6l-43,29.6V270.6z"/>
		<path class="st31" d="M725.3,251.9l0.4-0.3v-8.8l-0.4,0.3V251.9z M721.5,254.6l0.4-0.3v-8.8l-0.4,0.3V254.6z M717.6,257.3l0.4-0.3
			v-8.8l-0.4,0.3V257.3z M713.7,259.9l0.4-0.3v-8.8l-0.4,0.3V259.9z M710.1,262.4l0.4-0.3v-8.8l-0.4,0.3V262.4z M706.2,265.1
			l0.4-0.3V256l-0.4,0.3V265.1z M702.3,267.7l0.4-0.3v-8.8l-0.4,0.3V267.7z M698.4,270.4l0.4-0.3v-8.8l-0.4,0.3V270.4z M694.4,273.1
			l0.4-0.3v-8.8l-0.4,0.3V273.1z M690.5,275.8l0.4-0.3v-8.8l-0.4,0.3V275.8z"/>
		<path class="st29" d="M538.5,237.4l11.7,8v-2.3l-11.7-8C538.5,235.1,538.5,237.4,538.5,237.4z"/>
		<path class="st30" d="M538.7,235.7l7.7,6.9l0.7,0.5l-8.4-7.6V235.7z M542.9,238.3l-0.7-0.5l7.7,7.3l0.1,0.1l0-0.1L542.9,238.3
			L542.9,238.3z"/>
		<path class="st31" d="M538.5,237.4l11.7,8v-2.4l-11.7-7.9V237.4z M538.6,235.3l11.4,7.9v2l-11.4-7.8L538.6,235.3z"/>
		<path class="st31" d="M541,239.1l0.1,0.1v-2.3l-0.1-0.1V239.1z M543.1,240.5l0.1,0.1v-2.3l-0.1-0.1
			C543.1,238.2,543.1,240.5,543.1,240.5z M545.1,241.9l0.1,0.1v-2.3l-0.1-0.1C545.1,239.6,545.1,241.9,545.1,241.9z M547.1,243.3
			l0.1,0.1V241l-0.1-0.1V243.3z"/>
		<path class="st29" d="M538.5,235.1l11.7,8v-2.3l-11.7-8V235.1z"/>
		<path class="st30" d="M538.7,233.4l7.7,6.9l0.7,0.5l-8.4-7.6V233.4z M542.9,236l-0.7-0.5l7.7,7.3l0.1,0.1l0-0.1L542.9,236
			L542.9,236z"/>
		<path class="st31" d="M538.5,235.2l11.7,8v-2.4l-11.7-8V235.2z M538.6,233.1l11.4,7.8v2l-11.4-7.8V233.1z"/>
		<path class="st31" d="M541,236.8l0.1,0.1v-2.3l-0.1-0.1V236.8z M543.1,238.2l0.1,0.1V236l-0.1-0.1V238.2z M545.1,239.6l0.1,0.1
			v-2.3l-0.1-0.1V239.6z M547.1,241l0.1,0.1v-2.3l-0.1-0.1V241z"/>
		<path class="st29" d="M538.5,239.7l11.7,8v-2.3l-11.7-8V239.7z"/>
		<path class="st30" d="M538.7,238.1l7.7,6.9l0.7,0.5l-8.4-7.6V238.1z M542.9,240.6l-0.7-0.5l7.7,7.3l0.1,0.1l0-0.1L542.9,240.6
			L542.9,240.6z"/>
		<path class="st31" d="M538.5,239.7l11.7,8v-2.4l-11.7-8V239.7z M538.6,237.7l11.4,7.8v2l-11.4-7.8V237.7z"/>
		<path class="st31" d="M541,241.4l0.1,0.1v-2.3l-0.1-0.1V241.4z M543.1,242.9l0.1,0.1v-2.3l-0.1-0.1V242.9z M545.1,244.2l0.1,0.1
			V242l-0.1-0.1V244.2z M547.1,245.6l0.1,0.1v-2.3l-0.1-0.1V245.6z"/>
		<path class="st29" d="M564.5,255.5l11.6,8v-2.3l-11.6-8C564.5,253.2,564.5,255.5,564.5,255.5z"/>
		<path class="st30" d="M564.7,253.8l7.7,6.9l0.7,0.5l-8.4-7.6V253.8z M568.9,256.3l-0.7-0.5l7.7,7.3l0.1,0.1l0-0.1L568.9,256.3
			L568.9,256.3z"/>
		<path class="st31" d="M564.5,255.5l11.6,8v-2.4l-11.6-8V255.5z M564.6,253.4l11.4,7.8v2l-11.4-7.9V253.4z"/>
		<path class="st31" d="M567,257.2l0.1,0.1v-2.3l-0.1-0.1V257.2z M569.1,258.6l0.1,0.1v-2.3l-0.1-0.1V258.6z M571.1,260l0.1,0.1
			v-2.3l-0.1-0.1V260z M573.1,261.4l0.1,0.1v-2.3l-0.1-0.1C573.1,259.1,573.1,261.4,573.1,261.4z"/>
		<path class="st29" d="M564.5,253.2l11.6,8v-2.3l-11.6-8V253.2z"/>
		<path class="st30" d="M564.7,251.5l7.7,6.9l0.7,0.5l-8.4-7.6V251.5z M568.9,254l-0.7-0.5l7.7,7.3l0.1,0.1l0-0.1L568.9,254
			L568.9,254z"/>
		<path class="st31" d="M564.5,253.2l11.6,8v-2.4l-11.6-8V253.2z M564.6,251.1l11.4,7.8v2l-11.4-7.8V251.1z"/>
		<path class="st31" d="M567,254.9l0.1,0.1v-2.3l-0.1-0.1C567,252.5,567,254.9,567,254.9z M569.1,256.3l0.1,0.1V254l-0.1-0.1V256.3z
			 M571.1,257.7l0.1,0.1v-2.3l-0.1-0.1V257.7z M573.1,259.1l0.1,0.1v-2.3l-0.1-0.1V259.1z"/>
		<path class="st29" d="M564.5,257.8l11.6,8v-2.3l-11.6-8C564.5,255.5,564.5,257.8,564.5,257.8z"/>
		<path class="st30" d="M564.7,256.1l7.7,6.9l0.7,0.5l-8.4-7.6V256.1z M568.9,258.7l-0.7-0.5l7.7,7.3l0.1,0.1l0-0.1L568.9,258.7
			L568.9,258.7z"/>
		<path class="st31" d="M564.5,257.9l11.6,8v-2.4l-11.6-8V257.9z M564.6,255.8l11.4,7.8v2l-11.4-7.8V255.8z"/>
		<path class="st31" d="M567,259.5l0.1,0.1v-2.3l-0.1-0.1V259.5z M569.1,260.9l0.1,0.1v-2.3l-0.1-0.1
			C569.1,258.6,569.1,260.9,569.1,260.9z M571.1,262.3l0.1,0.1V260l-0.1-0.1V262.3z M573.1,263.7l0.1,0.1v-2.3l-0.1-0.1V263.7z"/>
		<path class="st32" d="M584.8,231.9l52.8,66.8l97-67.4l-55-64.5L584.8,231.9L584.8,231.9z"/>
		<path class="st33" d="M527.7,223.2l57.1,8.7l94.9-65.1l-55.2-9.1L527.7,223.2z"/>
		<path class="st34" d="M597.4,234l9.4,12.2l83.3-57.6l-9.8-11.4C680.3,177.2,597.4,234,597.4,234z"/>
		<path class="st31" d="M597.4,234l9.4,12.2l83.2-57.6l-9.8-11.4L597.4,234z M607,244.7l-8.2-10.5l81.3-55.7l8.4,9.9L607,244.7z"/>
		<path class="st31" d="M611.6,224.4l9.3,11.9l0.3-1.2l-8.8-11.4L611.6,224.4L611.6,224.4z M625.5,215l9.3,11.9l0.3-1.2l-8.8-11.4
			L625.5,215L625.5,215z M639.5,205.2l9.3,11.9l0.4-1.2l-8.8-11.4L639.5,205.2L639.5,205.2z M653.3,195.8l9.3,11.9l0.4-1.1
			l-8.8-11.4L653.3,195.8L653.3,195.8z M667.5,186.2l9,11.6l0.4-0.3l0.1-0.5l-8.7-11.4L667.5,186.2z"/>
		<path class="st34" d="M613.4,253.8l9.4,12.2l83.3-57.6l-9.8-11.4C696.3,196.9,613.4,253.8,613.4,253.8z"/>
		<path class="st31" d="M613.4,253.8l9.4,12.1l83.3-57.5l-9.8-11.4L613.4,253.8z M623,264.5l-8.2-10.5l81.3-55.7l8.4,9.9L623,264.5z
			"/>
		<path class="st31" d="M627.7,244.2l9.3,11.9l0.3-1.1l-8.7-11.4L627.7,244.2z M641.5,234.8l9.3,11.9l0.3-1.2l-8.7-11.4L641.5,234.8
			z M655.5,225l9.3,11.9l0.3-1.2l-8.7-11.4C656.4,224.4,655.5,225,655.5,225z M669.4,215.6l9.3,11.9l0.3-1.2l-8.7-11.4
			C670.2,215,669.4,215.6,669.4,215.6z M683.6,206l9,11.6c0.1-0.1,0.3-0.2,0.4-0.3l0.2-0.5l-8.7-11.4L683.6,206z"/>
		<path class="st34" d="M572.2,223l11.9,1.8L667,168l-13.5-2.1L572.2,223z"/>
		<path class="st31" d="M572.2,223l11.9,1.8L667,168l-13.5-2.1L572.2,223z M664.2,168.6l-80.3,55.1l-9-1.3l78.7-55.3L664.2,168.6z"
			/>
		<path class="st31" d="M587.8,213.5l-0.6,0l-1.9,0.7L597,216l-0.2-1.1L587.8,213.5z M602.6,203.3l-0.6,0L600,204l11.7,1.8l-0.2-1.1
			L602.6,203.3z M615.2,193.6l-1.9,0.7l11.7,1.8l1.5-0.9l-10.7-1.6L615.2,193.6L615.2,193.6z M630,183.4l-1.9,0.7l11.7,1.8l1.7-0.8
			l-10.9-1.7L630,183.4z M642.7,174.1l-1.9,0.7l11.7,1.8l1.7-0.8l-10.9-1.7C643.3,174.1,642.7,174.1,642.7,174.1z"/>
		<path class="st34" d="M551.4,219.9l11.9,1.8l82.9-56.8l-13.5-2.1L551.4,219.9z"/>
		<path class="st31" d="M551.4,219.9l11.9,1.9l82.9-56.8l-13.5-2.1L551.4,219.9z M643.5,165.5l-80.3,55.1l-9-1.3l78.7-55.4
			L643.5,165.5z"/>
		<path class="st31" d="M567.1,210.4l-0.6-0.1l-1.9,0.7l11.7,1.8l-0.2-1.1L567.1,210.4L567.1,210.4z M581.8,200.3l-0.6,0l-1.9,0.7
			l11.7,1.8l-0.2-1.1L581.8,200.3z M594.5,190.5l-1.9,0.7l11.7,1.8l1.5-0.9l-10.7-1.6L594.5,190.5z M609.3,180.4l-1.9,0.7l11.7,1.8
			l1.7-0.8l-10.9-1.7L609.3,180.4L609.3,180.4z M622,171l-1.9,0.7l11.7,1.8l1.7-0.8l-10.9-1.7C622.6,171.1,622,171,622,171z"/>
		<path class="st35" d="M527.7,223.2v1.9l57.1,8.9l52.8,67.4v-2.7l-52.8-66.8L527.7,223.2L527.7,223.2z"/>
		<path class="st36" d="M637.7,301.4l97-68.3v-1.8l-97,67.4V301.4z"/>
		<path class="st25" d="M561.7,283.9l16.8-1.2l0-10.3L561.7,283.9z"/>
	</g>
</g>
<g id="фонарь">
	<g>
		<path class="st37" d="M616.7,324.8c0,1.4-2.7,2.6-6,2.6c-3.3,0-6-1.1-6-2.6c0-1.4,2.7-2.6,6-2.6
			C614,322.2,616.7,323.4,616.7,324.8z"/>
		<g>
			<g>
				<g class="st38">
					<g class="st38">
						<g class="st38">
							<path class="st39" d="M609.7,304.4l0,20.7c0,0.3-0.2,0.5-0.6,0.7c-0.8,0.4-2.1,0.4-2.9,0c-0.4-0.2-0.6-0.5-0.6-0.7l0-20.7
								c0,0.3,0.2,0.5,0.6,0.7c0.8,0.4,2.1,0.4,2.9,0C609.5,304.9,609.7,304.7,609.7,304.4L609.7,304.4z"/>
						</g>
					</g>
					<g>
						<path class="st40" d="M609.1,303.7c0.8,0.4,0.8,1,0,1.4c-0.8,0.4-2.1,0.4-2.9,0c-0.8-0.4-0.8-1,0-1.4
							C607,303.3,608.3,303.3,609.1,303.7z"/>
					</g>
				</g>
			</g>
			<g>
				<g class="st38">
					<g class="st38">
						<g class="st38">
							<path class="st41" d="M610.4,303.6l0,1.1c0,0.3-0.3,0.7-0.8,0.9c-1.1,0.5-2.8,0.5-3.9,0c-0.5-0.3-0.8-0.6-0.8-1l0-1.1
								c0,0.3,0.3,0.7,0.8,1c1.1,0.5,2.8,0.5,3.9,0C610.1,304.3,610.4,303.9,610.4,303.6L610.4,303.6z"/>
						</g>
					</g>
					<g>
						<path class="st40" d="M609.6,302.6c1.1,0.5,1.1,1.4,0,1.9c-1.1,0.5-2.8,0.5-3.9,0c-1.1-0.5-1.1-1.4,0-1.9
							C606.8,302.1,608.5,302.1,609.6,302.6z"/>
					</g>
				</g>
			</g>
			<g>
				<g class="st38">
					<g class="st38">
						<g class="st38">
							<path class="st39" d="M609.7,292.7l0,10.5c0,0.3-0.2,0.5-0.6,0.7c-0.8,0.4-2.1,0.4-2.9,0c-0.4-0.2-0.6-0.5-0.6-0.7l0-10.5
								c0,0.3,0.2,0.5,0.6,0.7c0.8,0.4,2.1,0.4,2.9,0C609.5,293.2,609.7,292.9,609.7,292.7L609.7,292.7z"/>
						</g>
					</g>
					<g>
						<path class="st40" d="M609.1,292c0.8,0.4,0.8,1,0,1.4c-0.8,0.4-2.1,0.4-2.9,0c-0.8-0.4-0.8-1,0-1.4
							C607,291.6,608.3,291.6,609.1,292z"/>
					</g>
				</g>
			</g>
			<g>
				<g class="st38">
					<g>
						<path class="st42" d="M608.8,292c0.6,0.3,0.6,0.8,0,1.1c-0.7,0.3-1.7,0.3-2.3,0c-0.6-0.3-0.6-0.8,0-1.1
							C607.2,291.7,608.2,291.7,608.8,292z"/>
					</g>
					<g class="st38">
						<defs>
							<path id="SVGID_19_" class="st38" d="M601.7,288.5c-1-1.1-0.5-2.5,1.5-3.4c2.5-1.2,6.6-1.2,9,0.1l-3.4,6.8
								c-0.6-0.3-1.7-0.3-2.3,0c-0.5,0.2-0.6,0.6-0.4,0.9C604.7,291.1,603.2,290.3,601.7,288.5z"/>
						</defs>
						<clipPath id="SVGID_20_">
							<use xlink:href="#SVGID_19_"  style="overflow:visible;"/>
						</clipPath>
						<g class="st43">
							<path class="st44" d="M608.8,292l3.4-6.8c-1.6-0.8-3.8-1.1-5.9-0.9l1,7.5C607.8,291.7,608.4,291.8,608.8,292L608.8,292z"/>
							<path class="st45" d="M607.3,291.8l-1-7.5c-0.8,0.1-1.5,0.2-2.2,0.5l2.6,7.2C606.9,291.9,607.1,291.8,607.3,291.8
								L607.3,291.8z"/>
							<path class="st44" d="M606.7,291.9l-2.6-7.2c-0.3,0.1-0.6,0.2-0.9,0.3c-1.9,0.9-2.4,2.3-1.5,3.4l4.4,4.3
								c-0.2-0.3-0.1-0.6,0.4-0.9C606.6,292,606.7,291.9,606.7,291.9L606.7,291.9z"/>
						</g>
					</g>
					<g class="st38">
						<defs>
							<path id="SVGID_21_" class="st38" d="M609.2,292.9c0.2-0.3,0.1-0.6-0.3-0.9l3.4-6.8c1.8,0.9,2.2,2.2,1.3,3.3
								C612.1,290.3,610.6,291.1,609.2,292.9z"/>
						</defs>
						<clipPath id="SVGID_22_">
							<use xlink:href="#SVGID_21_"  style="overflow:visible;"/>
						</clipPath>
						<g class="st46">
							<path class="st44" d="M609.2,292.9l4.4-4.4c0.9-1.1,0.5-2.4-1.3-3.3l-3.4,6.8C609.3,292.3,609.4,292.6,609.2,292.9
								L609.2,292.9z"/>
						</g>
					</g>
					<g class="st38">
						<defs>
							<path id="SVGID_23_" class="st38" d="M606.1,292.9c-1.5-1.7-2.9-2.6-4.4-4.3c0.3,0.4,0.7,0.7,1.3,1c2.4,1.2,6.5,1.3,9,0.1
								c0.7-0.3,1.2-0.7,1.5-1.1c-1.5,1.8-2.9,2.6-4.4,4.4c-0.1,0.1-0.2,0.2-0.4,0.3c-0.7,0.3-1.7,0.3-2.3,0
								C606.3,293.1,606.2,293,606.1,292.9z"/>
						</defs>
						<clipPath id="SVGID_24_">
							<use xlink:href="#SVGID_23_"  style="overflow:visible;"/>
						</clipPath>
						<g class="st47">
							<path class="st48" d="M606.1,292.9l-4.4-4.3c0.3,0.4,0.7,0.7,1.3,1c2.4,1.2,6.5,1.3,9,0.1c0.7-0.3,1.2-0.7,1.5-1.1l-4.4,4.4
								c-0.1,0.1-0.2,0.2-0.4,0.3c-0.7,0.3-1.7,0.3-2.3,0C606.3,293.1,606.2,293,606.1,292.9L606.1,292.9z"/>
						</g>
					</g>
					<g>
						<path class="st42" d="M612.2,285.2c2.4,1.2,2.4,3.2-0.2,4.4c-2.5,1.2-6.6,1.2-9-0.1c-2.4-1.2-2.4-3.2,0.2-4.4
							C605.8,283.9,609.8,283.9,612.2,285.2z"/>
					</g>
				</g>
			</g>
			<g>
				<g class="st38">
					<g class="st38">
						<g class="st38">
							<path class="st41" d="M614.2,287.1l0,0.6c0,0.8-0.6,1.6-1.9,2.2c-2.5,1.2-6.7,1.2-9.3,0c-1.3-0.6-1.9-1.5-1.9-2.3l0-0.6
								c0,0.8,0.6,1.6,1.9,2.3c2.6,1.2,6.7,1.2,9.3,0C613.6,288.7,614.2,287.9,614.2,287.1L614.2,287.1z"/>
						</g>
					</g>
					<g>
						<path class="st40" d="M612.3,284.7c2.6,1.2,2.6,3.3,0,4.5c-2.5,1.2-6.7,1.2-9.3,0c-2.6-1.2-2.6-3.3,0-4.5
							C605.6,283.5,609.7,283.5,612.3,284.7z"/>
					</g>
				</g>
			</g>
		</g>
	</g>
	<g>
		<path class="st37" d="M316.6,387.8c0,1.4-2.7,2.6-6,2.6c-3.3,0-6-1.1-6-2.6c0-1.4,2.7-2.6,6-2.6
			C313.9,385.3,316.6,386.4,316.6,387.8z"/>
		<g>
			<g>
				<g class="st38">
					<g class="st38">
						<g class="st38">
							<path class="st39" d="M309.6,367.4l0,20.7c0,0.3-0.2,0.5-0.6,0.7c-0.8,0.4-2.1,0.4-2.9,0c-0.4-0.2-0.6-0.5-0.6-0.7l0-20.7
								c0,0.3,0.2,0.5,0.6,0.7c0.8,0.4,2.1,0.4,2.9,0C309.4,367.9,309.6,367.7,309.6,367.4L309.6,367.4z"/>
						</g>
					</g>
					<g>
						<path class="st40" d="M309,366.7c0.8,0.4,0.8,1,0,1.4c-0.8,0.4-2.1,0.4-2.9,0c-0.8-0.4-0.8-1,0-1.4
							C306.9,366.3,308.2,366.3,309,366.7z"/>
					</g>
				</g>
			</g>
			<g>
				<g class="st38">
					<g class="st38">
						<g class="st38">
							<path class="st41" d="M310.3,366.6l0,1.1c0,0.3-0.3,0.7-0.8,0.9c-1.1,0.5-2.8,0.5-3.9,0c-0.5-0.3-0.8-0.6-0.8-1l0-1.1
								c0,0.3,0.3,0.7,0.8,1c1.1,0.5,2.8,0.5,3.9,0C310,367.3,310.3,366.9,310.3,366.6L310.3,366.6z"/>
						</g>
					</g>
					<g>
						<path class="st40" d="M309.5,365.6c1.1,0.5,1.1,1.4,0,1.9c-1.1,0.5-2.8,0.5-3.9,0c-1.1-0.5-1.1-1.4,0-1.9
							C306.7,365.1,308.4,365.1,309.5,365.6z"/>
					</g>
				</g>
			</g>
			<g>
				<g class="st38">
					<g class="st38">
						<g class="st38">
							<path class="st39" d="M309.6,355.7l0,10.5c0,0.3-0.2,0.5-0.6,0.7c-0.8,0.4-2.1,0.4-2.9,0c-0.4-0.2-0.6-0.5-0.6-0.7l0-10.5
								c0,0.3,0.2,0.5,0.6,0.7c0.8,0.4,2.1,0.4,2.9,0C309.4,356.2,309.6,355.9,309.6,355.7L309.6,355.7z"/>
						</g>
					</g>
					<g>
						<path class="st40" d="M309,355c0.8,0.4,0.8,1,0,1.4c-0.8,0.4-2.1,0.4-2.9,0c-0.8-0.4-0.8-1,0-1.4
							C306.9,354.6,308.2,354.6,309,355z"/>
					</g>
				</g>
			</g>
			<g>
				<g class="st38">
					<g>
						<path class="st42" d="M308.7,355c0.6,0.3,0.6,0.8,0,1.1c-0.7,0.3-1.7,0.3-2.3,0c-0.6-0.3-0.6-0.8,0-1.1
							C307.1,354.7,308.1,354.7,308.7,355z"/>
					</g>
					<g class="st38">
						<defs>
							<path id="SVGID_25_" class="st38" d="M301.6,351.6c-1-1.1-0.5-2.5,1.5-3.4c2.5-1.2,6.6-1.2,9,0.1l-3.4,6.8
								c-0.6-0.3-1.7-0.3-2.3,0c-0.5,0.2-0.6,0.6-0.4,0.9C304.6,354.2,303.1,353.3,301.6,351.6z"/>
						</defs>
						<clipPath id="SVGID_26_">
							<use xlink:href="#SVGID_25_"  style="overflow:visible;"/>
						</clipPath>
						<g class="st49">
							<path class="st44" d="M308.7,355l3.4-6.8c-1.6-0.8-3.8-1.1-5.9-0.9l1,7.5C307.7,354.8,308.3,354.8,308.7,355L308.7,355z"/>
							<path class="st45" d="M307.2,354.8l-1-7.5c-0.8,0.1-1.5,0.2-2.2,0.5l2.6,7.2C306.8,354.9,307,354.8,307.2,354.8L307.2,354.8z
								"/>
							<path class="st44" d="M306.6,354.9l-2.6-7.2c-0.3,0.1-0.6,0.2-0.9,0.3c-1.9,0.9-2.4,2.3-1.5,3.4l4.4,4.3
								c-0.2-0.3-0.1-0.6,0.4-0.9C306.5,355,306.6,355,306.6,354.9L306.6,354.9z"/>
						</g>
					</g>
					<g class="st38">
						<defs>
							<path id="SVGID_27_" class="st38" d="M309.1,355.9c0.2-0.3,0.1-0.6-0.3-0.9l3.4-6.8c1.8,0.9,2.2,2.2,1.3,3.3
								C312,353.3,310.5,354.1,309.1,355.9z"/>
						</defs>
						<clipPath id="SVGID_28_">
							<use xlink:href="#SVGID_27_"  style="overflow:visible;"/>
						</clipPath>
						<g class="st50">
							<path class="st44" d="M309.1,355.9l4.4-4.4c0.9-1.1,0.5-2.4-1.3-3.3l-3.4,6.8C309.2,355.3,309.3,355.6,309.1,355.9
								L309.1,355.9z"/>
						</g>
					</g>
					<g class="st38">
						<defs>
							<path id="SVGID_29_" class="st38" d="M306,355.9c-1.5-1.7-2.9-2.6-4.4-4.3c0.3,0.4,0.7,0.7,1.3,1c2.4,1.2,6.5,1.3,9,0.1
								c0.7-0.3,1.2-0.7,1.5-1.1c-1.5,1.8-2.9,2.6-4.4,4.4c-0.1,0.1-0.2,0.2-0.4,0.3c-0.7,0.3-1.7,0.3-2.3,0
								C306.2,356.1,306.1,356,306,355.9z"/>
						</defs>
						<clipPath id="SVGID_30_">
							<use xlink:href="#SVGID_29_"  style="overflow:visible;"/>
						</clipPath>
						<g class="st51">
							<path class="st48" d="M306,355.9l-4.4-4.3c0.3,0.4,0.7,0.7,1.3,1c2.4,1.2,6.5,1.3,9,0.1c0.7-0.3,1.2-0.7,1.5-1.1l-4.4,4.4
								c-0.1,0.1-0.2,0.2-0.4,0.3c-0.7,0.3-1.7,0.3-2.3,0C306.2,356.1,306.1,356,306,355.9L306,355.9z"/>
						</g>
					</g>
					<g>
						<path class="st42" d="M312.1,348.2c2.4,1.2,2.4,3.2-0.2,4.4c-2.5,1.2-6.6,1.2-9-0.1c-2.4-1.2-2.4-3.2,0.2-4.4
							C305.7,346.9,309.7,347,312.1,348.2z"/>
					</g>
				</g>
			</g>
			<g>
				<g class="st38">
					<g class="st38">
						<g class="st38">
							<path class="st41" d="M314.1,350.1l0,0.6c0,0.8-0.6,1.6-1.9,2.2c-2.5,1.2-6.7,1.2-9.3,0c-1.3-0.6-1.9-1.5-1.9-2.3l0-0.6
								c0,0.8,0.6,1.6,1.9,2.3c2.6,1.2,6.7,1.2,9.3,0C313.5,351.7,314.1,350.9,314.1,350.1L314.1,350.1z"/>
						</g>
					</g>
					<g>
						<path class="st40" d="M312.2,347.8c2.6,1.2,2.6,3.3,0,4.5c-2.5,1.2-6.7,1.2-9.3,0c-2.6-1.2-2.6-3.3,0-4.5
							C305.5,346.5,309.6,346.5,312.2,347.8z"/>
					</g>
				</g>
			</g>
		</g>
	</g>
</g>
<g id="Дерево">
	<g>
		<path class="st14" d="M456.5,426.6c0,11-16.2,19.9-36.3,19.9c-20,0-36.3-8.9-36.3-19.9c0-11,16.2-19.9,36.3-19.9
			C440.3,406.6,456.5,415.6,456.5,426.6z"/>
	</g>
	<g>
		
			<linearGradient id="SVGID_31_" gradientUnits="userSpaceOnUse" x1="1068.764" y1="57.3846" x2="1082.9568" y2="57.3846" gradientTransform="matrix(0.4742 9.218787e-03 1.608718e-02 -0.8274 -112.8609 453.7512)">
			<stop  offset="0" style="stop-color:#E97D45"/>
			<stop  offset="1" style="stop-color:#97502B"/>
		</linearGradient>
		<polygon class="st52" points="401.8,403.5 401.3,427.1 401.1,427.7 400.6,428.2 400,428.6 399.2,428.9 398.4,429 397.5,429 
			396.6,428.8 395.9,428.5 395.3,428.1 394.8,427.6 394.6,427 395.1,403.3 395.3,403.4 395.7,403.4 396.4,403.5 397.1,403.5 
			398,403.6 398.9,403.7 399.7,403.8 399.8,403.8 400.5,403.7 401.1,403.6 401.6,403.5 		"/>
		<path class="st6" d="M401.8,403.5l-0.5,23.7l-0.2,0.5l-0.5,0.5l-0.6,0.4l-0.8,0.3l-0.9,0.1c-3.3-1.9-3.1-25.6-3.1-25.6l0.4,0
			l0.6,0.1l0.8,0.1l0.9,0.1l0.9,0.1l0.9,0.1l0,0l0.7-0.1l0.6-0.1l0.4-0.1L401.8,403.5z"/>
		<g>
			
				<linearGradient id="SVGID_32_" gradientUnits="userSpaceOnUse" x1="1041.8837" y1="110.9648" x2="1109.9744" y2="110.9648" gradientTransform="matrix(0.4742 9.218787e-03 1.608718e-02 -0.8274 -112.8609 453.7512)">
				<stop  offset="0" style="stop-color:#7EB336"/>
				<stop  offset="1" style="stop-color:#4B7117"/>
			</linearGradient>
			<path class="st53" d="M414.8,392.8l0,0.6c-0.1,1.6-0.6,3.1-1.6,4.4l-0.6,0.8c-0.6,0.8-1.4,1.5-2.3,2c-1.3,0.7-2.6,1.3-4,1.8
				c-1.4,0.5-2.8,0.8-4.2,1.1l-0.2,0l-0.2,0l-0.4,0.1l-0.6,0.1l-0.7,0.1l0,0l-0.9-0.1l-0.9-0.1l-0.9-0.1l-0.8-0.1l-0.6-0.1l-0.4,0
				l-0.2,0c-1.4-0.1-2.8-0.5-4.1-1.1l-2.7-1.1c-0.8-0.3-1.5-0.8-2.1-1.4l-1.4-1.4c-1-0.9-1.7-2.1-2-3.5c0-0.1,0-0.2-0.1-0.3
				c-0.1-0.7-0.2-1.3-0.2-2c0-0.8,0.2-1.7,0.4-2.4l16.7-50.2c0,0,0,0,0,0l8.4,28.3l6.4,21.8C414.8,390.9,414.9,391.9,414.8,392.8z"
				/>
			
				<linearGradient id="SVGID_33_" gradientUnits="userSpaceOnUse" x1="1036.9346" y1="122.8342" x2="1107.7531" y2="102.0202" gradientTransform="matrix(0.4742 9.218787e-03 1.608718e-02 -0.8274 -112.8609 453.7512)">
				<stop  offset="0" style="stop-color:#A9D340"/>
				<stop  offset="0.8441" style="stop-color:#57851A"/>
				<stop  offset="1" style="stop-color:#77A100"/>
			</linearGradient>
			<path class="st54" d="M399.7,339.9c0,0-8.4,46.9-11.6,53.2c-1.4,2.7-3.5,2.9-5.4,1.4c-0.1-0.6-0.2-1.3-0.2-2
				c0-0.8,0.2-1.7,0.4-2.4L399.7,339.9L399.7,339.9z"/>
		</g>
	</g>
	<g>
		
			<linearGradient id="SVGID_34_" gradientUnits="userSpaceOnUse" x1="1358.702" y1="16.1932" x2="1374.3264" y2="16.1932" gradientTransform="matrix(0.4132 8.033035e-03 1.380258e-02 -0.7099 -128.1886 419.6732)">
			<stop  offset="0" style="stop-color:#E97D45"/>
			<stop  offset="1" style="stop-color:#97502B"/>
		</linearGradient>
		<polygon class="st55" points="440.1,407.2 439.7,429.5 439.4,430 439,430.4 438.4,430.8 437.6,431.1 436.8,431.2 436,431.2 
			435.2,431 434.4,430.7 433.8,430.3 433.4,429.9 433.2,429.3 433.6,407.1 433.9,407.1 434.3,407.1 434.9,407.2 435.6,407.3 
			436.4,407.3 437.3,407.4 438.1,407.5 438.1,407.5 438.8,407.4 439.4,407.3 439.9,407.2 		"/>
		<path class="st6" d="M440.1,407.2l-0.4,22.3l-0.2,0.5l-0.4,0.5l-0.6,0.4l-0.7,0.3l-0.8,0.1c-3.2-1.8-3-24.1-3-24.1l0.4,0l0.6,0.1
			l0.7,0.1l0.8,0.1l0.8,0.1l0.8,0.1l0,0l0.7-0.1l0.6-0.1l0.4-0.1L440.1,407.2z"/>
		<g>
			
				<linearGradient id="SVGID_35_" gradientUnits="userSpaceOnUse" x1="1329.1104" y1="74.9172" x2="1404.0692" y2="74.9172" gradientTransform="matrix(0.4132 8.033035e-03 1.380258e-02 -0.7099 -128.1886 419.6732)">
				<stop  offset="0" style="stop-color:#7EB336"/>
				<stop  offset="1" style="stop-color:#4B7117"/>
			</linearGradient>
			<path class="st56" d="M452.6,397.2l0,0.6c-0.1,1.5-0.6,2.9-1.5,4.1l-0.6,0.8c-0.6,0.8-1.4,1.4-2.2,1.9c-1.3,0.7-2.5,1.2-3.9,1.7
				c-1.3,0.4-2.7,0.8-4,1l-0.2,0l-0.2,0l-0.4,0.1l-0.6,0.1l-0.7,0.1l0,0l-0.8-0.1l-0.8-0.1l-0.8-0.1l-0.7-0.1l-0.6-0.1l-0.4,0
				l-0.2,0c-1.3-0.1-2.6-0.5-3.9-1l-2.6-1.1c-0.7-0.3-1.4-0.8-2-1.3l-1.4-1.3c-0.9-0.9-1.6-2-1.9-3.3c0-0.1,0-0.2-0.1-0.3
				c-0.1-0.6-0.2-1.2-0.2-1.9c0-0.8,0.2-1.6,0.4-2.3l16-47.2c0,0,0,0,0,0l8,26.7l6.2,20.5C452.5,395.4,452.6,396.3,452.6,397.2z"/>
			
				<linearGradient id="SVGID_36_" gradientUnits="userSpaceOnUse" x1="1323.5576" y1="87.9898" x2="1401.8455" y2="64.9805" gradientTransform="matrix(0.4132 8.033035e-03 1.380258e-02 -0.7099 -128.1886 419.6732)">
				<stop  offset="0" style="stop-color:#A9D340"/>
				<stop  offset="0.8441" style="stop-color:#57851A"/>
				<stop  offset="1" style="stop-color:#77A100"/>
			</linearGradient>
			<path class="st57" d="M438.1,347.4c0,0-8,44.1-11.1,50.1c-1.3,2.5-3.4,2.8-5.2,1.3c-0.1-0.6-0.2-1.2-0.2-1.9
				c0-0.8,0.2-1.6,0.4-2.3L438.1,347.4L438.1,347.4z"/>
		</g>
	</g>
	<g>
		
			<linearGradient id="SVGID_37_" gradientUnits="userSpaceOnUse" x1="414.6086" y1="83.1941" x2="424.1156" y2="83.1941" gradientTransform="matrix(1 0 0 -1 0 505.5897)">
			<stop  offset="0" style="stop-color:#E97D45"/>
			<stop  offset="1" style="stop-color:#97502B"/>
		</linearGradient>
		<polygon class="st58" points="424.1,409.6 424.1,433.3 423.8,433.8 423.2,434.3 422.3,434.7 421.2,435 420,435.2 418.7,435.2 
			417.5,435 416.4,434.7 415.6,434.3 414.9,433.8 414.6,433.3 414.6,409.6 414.9,409.6 415.6,409.7 416.4,409.7 417.5,409.8 
			418.7,409.9 420,409.9 421.2,410 421.2,410 422.3,409.9 423.2,409.7 423.8,409.7 		"/>
		<path class="st6" d="M424.1,409.6v23.6l-0.3,0.6l-0.6,0.5l-0.9,0.4l-1.1,0.3l-1.2,0.1c-4.8-1.8-5-25.5-5-25.5l0.6,0l0.9,0.1
			l1.1,0.1l1.2,0.1l1.2,0.1l1.2,0.1l0,0l1-0.1l0.9-0.1l0.6-0.1L424.1,409.6z"/>
		<g>
			
				<linearGradient id="SVGID_38_" gradientUnits="userSpaceOnUse" x1="396.6031" y1="127.4697" x2="442.2131" y2="127.4697" gradientTransform="matrix(1 0 0 -1 0 505.5897)">
				<stop  offset="0" style="stop-color:#7EB336"/>
				<stop  offset="1" style="stop-color:#4B7117"/>
			</linearGradient>
			<path class="st59" d="M442.2,398.7l0,0.6c-0.1,1.6-0.8,3.1-2.1,4.4l-0.9,0.8c-0.9,0.8-1.9,1.5-3.2,2c-1.8,0.7-3.7,1.3-5.6,1.8
				c-1.9,0.5-3.9,0.9-5.9,1.2l-0.3,0l-0.3,0l-0.6,0.1l-0.9,0.1l-1,0.1l0,0l-1.2-0.1l-1.2-0.1l-1.2-0.1l-1.1-0.1l-0.9-0.1l-0.6,0
				l-0.3,0c-2-0.1-3.9-0.4-5.8-1l-3.8-1.1c-1.1-0.3-2.1-0.8-3-1.4l-2.1-1.4c-1.4-0.9-2.4-2.1-2.9-3.4c0-0.1-0.1-0.2-0.1-0.3
				c-0.2-0.6-0.3-1.3-0.3-2c0-0.8,0.2-1.7,0.5-2.4l22.3-50.5c0,0,0,0,0,0l12.6,28.1l9.7,21.6C442.1,396.9,442.3,397.8,442.2,398.7z"
				/>
			
				<linearGradient id="SVGID_39_" gradientUnits="userSpaceOnUse" x1="395.6252" y1="135.5231" x2="437.5336" y2="123.206" gradientTransform="matrix(1 0 0 -1 0 505.5897)">
				<stop  offset="0" style="stop-color:#A9D340"/>
				<stop  offset="0.8441" style="stop-color:#57851A"/>
				<stop  offset="1" style="stop-color:#77A100"/>
			</linearGradient>
			<path class="st60" d="M419.4,346.2c0,0-10.6,47-14.9,53.4c-1.8,2.7-4.9,3-7.6,1.5c-0.2-0.6-0.3-1.3-0.3-2c0-0.8,0.2-1.7,0.5-2.4
				L419.4,346.2L419.4,346.2z"/>
		</g>
	</g>
	<g>
		
			<linearGradient id="SVGID_40_" gradientUnits="userSpaceOnUse" x1="401.4046" y1="149.5371" x2="437.169" y2="149.5371" gradientTransform="matrix(1 0 0 -1 0 505.5897)">
			<stop  offset="0" style="stop-color:#7EB336"/>
			<stop  offset="1" style="stop-color:#4B7117"/>
		</linearGradient>
		<path class="st61" d="M437.2,372.2l0,0.5c-0.1,1.2-0.7,2.5-1.7,3.4l-0.7,0.7c-0.7,0.7-1.5,1.2-2.5,1.6c-1.4,0.6-2.9,1-4.4,1.4
			c-1.5,0.4-3.1,0.7-4.6,0.9l-0.3,0l-0.3,0l-0.5,0.1l-0.7,0.1l-0.8,0.1l0,0l-1-0.1l-1-0.1l-0.9-0.1l-0.9-0.1l-0.7,0l-0.5,0l-0.3,0
			c-1.5-0.1-3.1-0.4-4.5-0.8l-3-0.8c-0.9-0.2-1.7-0.6-2.4-1.1L404,377c-1.1-0.7-1.9-1.6-2.3-2.7c0-0.1-0.1-0.1-0.1-0.2
			c-0.2-0.5-0.3-1-0.3-1.5c0-0.6,0.1-1.3,0.4-1.9l17.5-39.6c0,0,0,0,0,0l17.5,39C437.1,370.7,437.2,371.5,437.2,372.2z"/>
		
			<linearGradient id="SVGID_41_" gradientUnits="userSpaceOnUse" x1="400.6421" y1="155.8394" x2="433.4988" y2="146.1826" gradientTransform="matrix(1 0 0 -1 0 505.5897)">
			<stop  offset="0" style="stop-color:#A9D340"/>
			<stop  offset="0.8441" style="stop-color:#57851A"/>
			<stop  offset="1" style="stop-color:#77A100"/>
		</linearGradient>
		<path class="st62" d="M419.3,331.1c0,0-8.3,36.9-11.7,41.8c-1.4,2.1-3.9,2.4-5.9,1.2c-0.2-0.5-0.3-1-0.3-1.5
			c0-0.6,0.1-1.3,0.4-1.9L419.3,331.1L419.3,331.1z"/>
	</g>
	<path class="st21" d="M424,349.5c0.3,1.3,0.3,2.4,0,2.5c-0.3,0-0.8-1-1.1-2.3c-0.3-1.3-0.3-2.4,0-2.5S423.7,348.2,424,349.5z"/>
	
		<ellipse transform="matrix(0.9726 -0.2326 0.2326 0.9726 -73.0702 108.8316)" class="st21" cx="424.9" cy="364.2" rx="0.6" ry="2.5"/>
	<path class="st21" d="M431.6,365c0.3,1.3,0.3,2.4,0,2.5s-0.8-1-1.1-2.3c-0.3-1.3-0.3-2.4,0-2.5C430.8,362.6,431.3,363.6,431.6,365z
		"/>
	<path class="st21" d="M430.2,374.3c0.3,1.3,0.3,2.4,0,2.5s-0.8-1-1.1-2.3c-0.3-1.3-0.3-2.4,0-2.5S429.9,373,430.2,374.3z"/>
	<path class="st21" d="M416.1,367.5c-0.1,1.3-0.4,2.4-0.8,2.4c-0.3,0-0.5-1.1-0.4-2.5s0.4-2.4,0.8-2.4
		C416,365.1,416.2,366.2,416.1,367.5z"/>
	<path class="st21" d="M414.8,386.9c-0.1,1.3-0.4,2.4-0.8,2.4c-0.3,0-0.5-1.1-0.4-2.5c0.1-1.3,0.4-2.4,0.8-2.4
		C414.7,384.5,414.9,385.6,414.8,386.9z"/>
	<path class="st21" d="M417.6,358.5c-0.1,1.3-0.4,2.4-0.8,2.4c-0.3,0-0.5-1.1-0.4-2.5c0.1-1.3,0.4-2.4,0.8-2.4
		C417.5,356,417.7,357.1,417.6,358.5z"/>
	<path class="st21" d="M422.6,391.4c0.1,1.3-0.1,2.4-0.4,2.5s-0.7-1.1-0.8-2.4c-0.1-1.3,0.1-2.4,0.4-2.5
		C422.1,389,422.4,390.1,422.6,391.4z"/>
	<path class="st21" d="M422.4,373.9c0.1,1.3-0.1,2.4-0.4,2.5c-0.3,0-0.7-1.1-0.8-2.4c-0.1-1.3,0.1-2.4,0.4-2.5
		C422,371.4,422.3,372.5,422.4,373.9z"/>
	<path class="st21" d="M412.6,398.4c-0.2,1.3-0.6,2.4-0.9,2.4c-0.3,0-0.4-1.1-0.3-2.5c0.2-1.3,0.6-2.4,0.9-2.4
		C412.7,395.9,412.8,397,412.6,398.4z"/>
	<path class="st21" d="M429.8,401.9c0.2,1.3,0.2,2.4-0.2,2.5c-0.3,0-0.8-1-1-2.3s-0.2-2.4,0.2-2.5
		C429.1,399.5,429.5,400.6,429.8,401.9z"/>
	<path class="st63" d="M413.3,429.4v-5.2l0.9,0.7v5.2L413.3,429.4z"/>
</g>
<g id="канистра">
	<ellipse class="st64" cx="476.8" cy="327.7" rx="39.7" ry="33.7"/>
	<g>
		<g>
			<g>
				<path class="st65" d="M489.9,323.6c1.5-0.6,2.7-2.1,2.7-3.3l0.4-21.4l3.9,1l3-9.1l-7.4-3.4c-0.6-0.3-3.2-1.1-4.3,0.2l-4.1,5
					l-15.2,5.8c-0.8,0.3-1.4,0.8-2,1.5l-4.8,5.5c-0.6,0.7-0.8,1.4-0.9,2.1l-0.5,25.6c0,0.6,0.2,1,0.6,1.2l0,0l0,0
					c0.1,0,0.2,0.1,0.3,0.1l8.2,3.8L489.9,323.6z"/>
				<path class="st66" d="M471.7,338.1l26.6-10.7c1.5-0.6,2.7-2.1,2.7-3.3l0.6-31.6c0-1.5-3.5-2.9-4.6-1.5l-4.3,5.4l-15.4,5.9
					c-0.8,0.3-1.4,0.8-2,1.5l-4.8,5.5c-0.6,0.7-0.8,1.4-0.9,2.1l-0.5,25.6C469.1,338.1,470.3,338.7,471.7,338.1z"/>
				<path class="st67" d="M486.4,305.2l4-1.6c1-0.4,1.9-0.5,2.7-0.4l2-2.8c0.4-0.5,1-0.8,1.4-0.7c0.4,0.1,0.5,0.7,0.1,1.2l-2.2,3
					c0.4,0.4,0.6,1,0.6,1.8l-0.3,13.5c0,0.9-0.4,1.9-1,2.8l2.3,1.5c0.4,0.2,0.3,0.8-0.1,1.3c-0.4,0.5-1.1,0.7-1.4,0.5l-2.3-1.5
					c-0.7,0.6-1.5,1.1-2.3,1.5l-4,1.6l0-1.7l4-1.6c0.7-0.3,1.4-0.8,1.9-1.5c0.5-0.6,0.8-1.3,0.8-2l0.3-13.5c0-0.5-0.2-0.9-0.5-1.2
					l0,0c-0.1,0-0.2-0.1-0.2-0.1l0,0c-0.5-0.2-1.2-0.2-1.9,0.1l-4,1.6L486.4,305.2L486.4,305.2z M482.4,306.8l4-1.6l0,1.7l-4,1.6
					c-0.7,0.3-1.4,0.8-1.9,1.5l0,0c-0.1,0.1-0.1,0.2-0.2,0.3l0,0c-0.4,0.5-0.6,1.1-0.6,1.6l-0.3,13.5c0,0.6,0.3,1.1,0.8,1.3
					c0.5,0.2,1.2,0.2,1.9-0.1l4-1.6l0,1.7l-4,1.6c-0.8,0.3-1.6,0.5-2.3,0.4l-2.4,3.3c-0.4,0.5-1,0.8-1.4,0.7
					c-0.4-0.1-0.5-0.7-0.1-1.2l2.4-3.4c-0.6-0.4-0.9-1.1-0.9-2l0.3-13.5c0-0.7,0.3-1.5,0.7-2.3l-2.1-1.3c-0.4-0.2-0.3-0.8,0.1-1.3
					c0.4-0.5,1.1-0.7,1.4-0.5l1.9,1.2C480.5,307.9,481.4,307.2,482.4,306.8z"/>
				<path class="st68" d="M464.5,303.3c0.5-0.5,1.1-0.9,1.8-1.1l0.8-0.8l2.8,1.5c1.2,0.6,1.2,2.1,0.1,3.3c-1.2,1.2-3.1,1.6-4.3,1
					l-2.8-1.5l0.8-0.8C463.7,304.4,464,303.8,464.5,303.3z"/>
				<path class="st65" d="M462.8,302.4c1.2-1.2,3.1-1.6,4.3-1c1.2,0.6,1.2,2.1,0.1,3.3c-1.2,1.2-3.1,1.6-4.3,1
					C461.6,305,461.6,303.5,462.8,302.4z"/>
				<g>
					<path class="st69" d="M471.7,300.1c-0.1,0-0.3,0-0.4,0c-0.9-0.2-1.5-0.9-1.2-1.5l1.2-3.4c0.1-0.3,0.4-0.6,0.8-0.8l15.3-5.9
						c0.8-0.3,1.9-0.1,2.3,0.5c0.5,0.6,0.1,1.4-0.7,1.7l-14.7,5.6l-1,2.9C473.2,299.7,472.5,300.1,471.7,300.1z"/>
				</g>
				<g>
					<path class="st69" d="M474.1,301.1c-0.1,0-0.3,0-0.4,0c-0.9-0.2-1.5-0.9-1.2-1.5l1.2-3.4c0.1-0.3,0.4-0.6,0.8-0.8l15.3-5.9
						c0.8-0.3,1.9-0.1,2.3,0.5c0.5,0.6,0.1,1.4-0.7,1.7l-14.7,5.6l-1,2.9C475.6,300.7,474.9,301.1,474.1,301.1z"/>
				</g>
				<g>
					<path class="st69" d="M476.5,302.2c-0.1,0-0.3,0-0.4,0c-0.9-0.2-1.5-0.9-1.2-1.5l1.2-3.4c0.1-0.3,0.4-0.6,0.8-0.8l15.3-5.9
						c0.8-0.3,1.9-0.1,2.3,0.5c0.5,0.6,0.1,1.4-0.7,1.7l-14.7,5.6l-1,2.9C478,301.9,477.3,302.2,476.5,302.2z"/>
				</g>
				<path class="st70" d="M486,305l4-1.6c1-0.4,1.9-0.5,2.7-0.4l2-2.8c0.4-0.5,1-0.8,1.4-0.7c0.4,0.1,0.5,0.7,0.1,1.2l-2.2,3
					c0.4,0.4,0.6,1,0.6,1.8l-0.3,13.5c0,0.9-0.4,1.9-1,2.8l2.3,1.5c0.4,0.2,0.3,0.8-0.1,1.3c-0.4,0.5-1.1,0.7-1.4,0.5l-2.3-1.5
					c-0.7,0.6-1.5,1.1-2.3,1.5l-4,1.6l0-1.7l4-1.6c0.7-0.3,1.4-0.8,1.9-1.5c0.5-0.6,0.8-1.3,0.8-2l0.3-13.5c0-0.5-0.2-0.9-0.5-1.2
					l0,0c-0.1,0-0.2-0.1-0.2-0.1l0,0c-0.5-0.2-1.2-0.2-1.9,0.1l-4,1.6L486,305L486,305z M482.1,306.6l4-1.6l0,1.7l-4,1.6
					c-0.7,0.3-1.4,0.8-1.9,1.5l0,0c-0.1,0.1-0.1,0.2-0.2,0.3l0,0c-0.4,0.5-0.6,1.1-0.6,1.6l-0.3,13.5c0,0.6,0.3,1.1,0.8,1.3
					c0.5,0.2,1.2,0.2,1.9-0.1l4-1.6l0,1.7l-4,1.6c-0.8,0.3-1.6,0.5-2.3,0.4L477,332c-0.4,0.5-1,0.8-1.4,0.7
					c-0.4-0.1-0.5-0.7-0.1-1.2l2.4-3.4c-0.6-0.4-0.9-1.1-0.9-2l0.3-13.5c0-0.7,0.3-1.5,0.7-2.3l-2.1-1.3c-0.4-0.2-0.3-0.8,0.1-1.3
					c0.4-0.5,1.1-0.7,1.4-0.5l1.9,1.2C480.1,307.7,481.1,307,482.1,306.6z"/>
				<path class="st66" d="M463.2,302.6c0.9-1,2.5-1.3,3.5-0.8c1,0.5,1,1.7,0.1,2.7s-2.5,1.3-3.5,0.8
					C462.2,304.7,462.2,303.5,463.2,302.6z"/>
				<path class="st65" d="M463.9,303.1c0.8-0.8,2.1-1.1,2.9-0.7c0.5,0.5,0.4,1.4-0.3,2.1c-0.8,0.8-2.1,1.1-2.9,0.7
					C463.1,304.6,463.2,303.8,463.9,303.1z"/>
			</g>
			<g>
				<path class="st71" d="M483,334.8c1-0.4,1.8-1.4,1.8-2.3l0.3-14.6l2.6,0.7l2-6.2l-5-2.3c-0.4-0.2-2.2-0.8-2.9,0.1l-2.8,3.4
					l-10.4,4c-0.5,0.2-1,0.6-1.4,1l-3.3,3.8c-0.4,0.5-0.6,0.9-0.6,1.4l-0.3,17.4c0,0.4,0.2,0.7,0.4,0.8l0,0l0,0
					c0.1,0,0.1,0.1,0.2,0.1l5.6,2.6L483,334.8z"/>
				<path class="st72" d="M470.6,344.7l18.2-7.3c1-0.4,1.8-1.4,1.8-2.3l0.4-21.5c0-1-2.4-2-3.2-1l-3,3.7l-10.5,4
					c-0.5,0.2-1,0.6-1.4,1l-3.3,3.8c-0.4,0.5-0.6,0.9-0.6,1.4l-0.3,17.4C468.8,344.8,469.6,345.1,470.6,344.7z"/>
				<path class="st73" d="M480.5,322.3l2.7-1.1c0.7-0.3,1.3-0.4,1.8-0.2l1.4-1.9c0.3-0.4,0.7-0.6,1-0.5c0.3,0.1,0.3,0.5,0.1,0.8
					l-1.5,2.1c0.3,0.3,0.4,0.7,0.4,1.2l-0.2,9.2c0,0.6-0.3,1.3-0.7,1.9l1.6,1c0.2,0.2,0.2,0.5-0.1,0.9c-0.3,0.3-0.7,0.5-1,0.3
					l-1.6-1c-0.5,0.4-1,0.8-1.6,1l-2.7,1.1l0-1.2l2.7-1.1c0.5-0.2,1-0.6,1.3-1c0.3-0.4,0.6-0.9,0.6-1.3l0.2-9.2
					c0-0.4-0.1-0.6-0.3-0.8l0,0c-0.1,0-0.1-0.1-0.2-0.1l0,0c-0.3-0.2-0.8-0.1-1.3,0.1l-2.7,1.1L480.5,322.3L480.5,322.3z
					 M477.9,323.4l2.7-1.1l0,1.2l-2.7,1.1c-0.5,0.2-1,0.6-1.3,1l0,0c0,0.1-0.1,0.1-0.2,0.2l0,0c-0.2,0.4-0.4,0.7-0.4,1.1l-0.2,9.2
					c0,0.4,0.2,0.8,0.5,0.9c0.3,0.2,0.8,0.1,1.3-0.1l2.7-1.1l0,1.2l-2.7,1.1c-0.6,0.2-1.1,0.3-1.6,0.3l-1.6,2.3
					c-0.3,0.4-0.7,0.6-1,0.5c-0.3-0.1-0.3-0.5-0.1-0.8l1.7-2.3c-0.4-0.3-0.6-0.8-0.6-1.4l0.2-9.2c0-0.5,0.2-1.1,0.5-1.6l-1.4-0.9
					c-0.2-0.2-0.2-0.5,0.1-0.9c0.3-0.3,0.7-0.5,1-0.3l1.3,0.8C476.5,324.1,477.2,323.7,477.9,323.4z"/>
				<path class="st74" d="M465.6,321c0.3-0.3,0.8-0.6,1.2-0.7l0.5-0.5l1.9,1c0.8,0.4,0.8,1.4,0.1,2.2c-0.8,0.8-2.1,1.1-2.9,0.7
					l-1.9-1l0.5-0.5C465.1,321.7,465.3,321.3,465.6,321z"/>
				<path class="st71" d="M464.5,320.4c0.8-0.8,2.1-1.1,2.9-0.7c0.8,0.4,0.8,1.4,0.1,2.2c-0.8,0.8-2.1,1.1-2.9,0.7
					C463.7,322.2,463.7,321.2,464.5,320.4z"/>
				<g>
					<path class="st75" d="M470.6,318.8c-0.1,0-0.2,0-0.3,0c-0.7-0.1-1.1-0.6-0.9-1.1l0.8-2.4c0.1-0.2,0.3-0.4,0.6-0.6l10.5-4
						c0.6-0.2,1.3-0.1,1.7,0.4c0.3,0.4,0.1,1-0.5,1.2l-10,3.8l-0.7,2C471.6,318.6,471.1,318.8,470.6,318.8z"/>
				</g>
				<g>
					<path class="st75" d="M472.2,319.5c-0.1,0-0.2,0-0.3,0c-0.7-0.1-1.1-0.6-0.9-1.1l0.8-2.4c0.1-0.2,0.3-0.4,0.6-0.6l10.5-4
						c0.6-0.2,1.3-0.1,1.7,0.4c0.3,0.4,0.1,1-0.5,1.2l-10,3.8l-0.7,2C473.3,319.3,472.8,319.5,472.2,319.5z"/>
				</g>
				<g>
					<path class="st75" d="M473.8,320.3c-0.1,0-0.2,0-0.3,0c-0.7-0.1-1.1-0.6-0.9-1.1l0.8-2.4c0.1-0.2,0.3-0.4,0.6-0.6l10.5-4
						c0.6-0.2,1.3-0.1,1.7,0.4c0.3,0.4,0.1,1-0.5,1.2l-10,3.8l-0.7,2C474.9,320,474.4,320.3,473.8,320.3z"/>
				</g>
				<path class="st76" d="M480.3,322.2l2.7-1.1c0.7-0.3,1.3-0.4,1.8-0.2l1.4-1.9c0.3-0.4,0.7-0.6,1-0.5c0.3,0.1,0.3,0.5,0.1,0.8
					l-1.5,2.1c0.3,0.3,0.4,0.7,0.4,1.2l-0.2,9.2c0,0.6-0.3,1.3-0.7,1.9l1.6,1c0.2,0.2,0.2,0.5-0.1,0.9c-0.3,0.3-0.7,0.5-1,0.3
					l-1.6-1c-0.5,0.4-1,0.8-1.6,1l-2.7,1.1l0-1.2l2.7-1.1c0.5-0.2,1-0.6,1.3-1c0.3-0.4,0.6-0.9,0.6-1.3l0.2-9.2
					c0-0.4-0.1-0.6-0.3-0.8l0,0c-0.1,0-0.1-0.1-0.2-0.1l0,0c-0.3-0.2-0.8-0.1-1.3,0.1l-2.7,1.1L480.3,322.2L480.3,322.2z
					 M477.7,323.3l2.7-1.1l0,1.2l-2.7,1.1c-0.5,0.2-1,0.6-1.3,1l0,0c0,0.1-0.1,0.1-0.2,0.2l0,0c-0.2,0.4-0.4,0.7-0.4,1.1l-0.2,9.2
					c0,0.4,0.2,0.8,0.5,0.9c0.3,0.2,0.8,0.1,1.3-0.1l2.7-1.1l0,1.2l-2.7,1.1c-0.6,0.2-1.1,0.3-1.6,0.3l-1.6,2.3
					c-0.3,0.4-0.7,0.6-1,0.5c-0.3-0.1-0.3-0.5-0.1-0.8l1.7-2.3c-0.4-0.3-0.6-0.8-0.6-1.4l0.2-9.2c0-0.5,0.2-1.1,0.5-1.6l-1.4-0.9
					c-0.2-0.2-0.2-0.5,0.1-0.9c0.3-0.3,0.7-0.5,1-0.3l1.3,0.8C476.3,324,477,323.5,477.7,323.3z"/>
				<path class="st74" d="M464.7,320.5c0.6-0.7,1.7-0.9,2.4-0.5c0.7,0.4,0.7,1.2,0.1,1.8c-0.6,0.7-1.7,0.9-2.4,0.5
					C464.1,322,464.1,321.2,464.7,320.5z"/>
				<path class="st71" d="M465.3,320.8c0.5-0.5,1.4-0.8,2-0.5c0.3,0.4,0.2,0.9-0.2,1.4c-0.5,0.5-1.4,0.8-2,0.5
					C464.7,321.9,464.8,321.3,465.3,320.8z"/>
			</g>
		</g>
	</g>
</g>
<g id="коробка">
	<path class="st77" d="M469.4,89.7l-36.9,19.9l1.1,0.7l37-19.9L469.4,89.7L469.4,89.7z"/>
	<path class="st78" d="M470.7,90.4l-37,19.9v4.9l37-19.9V90.4z"/>
	<path class="st63" d="M432.5,114.6v-5l1.1,0.7v4.9L432.5,114.6z"/>
	<path class="st77" d="M428.3,67.5l-36.9,19.9l1.1,0.7l37-19.9L428.3,67.5L428.3,67.5z"/>
	<path class="st78" d="M429.5,68.1l-37,19.9v4.9l37-19.9V68.1z"/>
	<path class="st77" d="M448.2,78.1l-36.9,19.9l1.2,0.7l37-19.9L448.2,78.1L448.2,78.1z"/>
	<path class="st78" d="M449.5,78.7l-37,19.9v4.9l37-19.9V78.7L449.5,78.7z"/>
	<path class="st63" d="M411.4,102.9v-5l1.2,0.7v4.9L411.4,102.9L411.4,102.9z"/>
	<path class="st63" d="M433.7,108.8L391.4,86v1.6l42.3,22.8V108.8L433.7,108.8z"/>
	<path class="st77" d="M438.1,106.5l-4.4,2.3L391.4,86l4.4-2.3L438.1,106.5z"/>
	<path class="st78" d="M438.1,106.5l-4.4,2.3v3l4.4-2.4V106.5L438.1,106.5z"/>
	<path class="st63" d="M441.9,104.2l-42.4-22.9V83l42.4,22.9V104.2z"/>
	<path class="st77" d="M446.4,101.9l-4.4,2.3l-42.4-22.9l4.4-2.3L446.4,101.9L446.4,101.9z"/>
	<path class="st78" d="M446.4,101.9l-4.4,2.3v3l4.4-2.4V101.9L446.4,101.9z"/>
	<path class="st63" d="M450.4,99.8l-42.5-22.9v1.6l42.5,22.9V99.8z"/>
	<path class="st77" d="M454.8,97.5l-4.4,2.3l-42.5-22.9l4.4-2.3L454.8,97.5z"/>
	<path class="st78" d="M454.8,97.5l-4.4,2.3v3l4.4-2.4V97.5z"/>
	<path class="st63" d="M458.7,95.2l-42.4-22.8v1.6l42.4,22.8V95.2z"/>
	<path class="st77" d="M463.1,92.9l-4.4,2.3l-42.4-22.8l4.4-2.3L463.1,92.9z"/>
	<path class="st78" d="M463.1,92.9l-4.4,2.3v3l4.4-2.4V92.9z"/>
	<path class="st63" d="M466.3,91.3l-42.5-22.9V70l42.5,22.9V91.3z"/>
	<path class="st77" d="M470.7,89l-4.4,2.3l-42.5-22.9l4.4-2.3L470.7,89z"/>
	<path class="st78" d="M470.7,89l-4.4,2.3v3l4.4-2.4V89z"/>
	<path class="st79" d="M415.2,95.8l0-21.5l18.4-9.9v21.5L415.2,95.8L415.2,95.8z"/>
	<path class="st80" d="M415.2,95.8l0-21.5l-18.4-9.9v21.5L415.2,95.8L415.2,95.8z"/>
	<path class="st81" d="M399.2,84.4V67.9l-0.5-0.3v17.2l14.7,8v-0.7L399.2,84.4z"/>
	<path class="st79" d="M413.3,92.1V75.6l-14.2-7.6v16.5L413.3,92.1z"/>
	<path class="st82" d="M408,87.9l3.9,2.1v-5.5l-3.9-2.1V87.9z"/>
	<path class="st83" d="M431.2,84.4V67.9l0.5-0.3v17.2l-14.7,8v-0.7L431.2,84.4z"/>
	<path class="st81" d="M417,92.1V75.6l14.2-7.6v16.5L417,92.1z"/>
	<path class="st84" d="M396.8,64.4l18.4,9.9l18.4-9.9l-18.4-9.9L396.8,64.4L396.8,64.4z"/>
	<path class="st79" d="M429.8,64.6l0.6-0.3l-15.2-8.2L400,64.3l0.6,0.3l14.6-7.9L429.8,64.6L429.8,64.6z"/>
	<path class="st80" d="M429.8,64.6l-14.6-7.9l-14.6,7.9l14.6,7.9L429.8,64.6z"/>
	<path class="st85" d="M427.4,71.7v5.5l3-1.6v-5.5L427.4,71.7z M422.9,74.1v5.5l3-1.6v-5.5L422.9,74.1z"/>
	<path class="st79" d="M448.8,99V77.5l18.4-9.9V89L448.8,99z"/>
	<path class="st80" d="M448.8,99V77.5l-18.4-9.9V89L448.8,99z"/>
	<path class="st81" d="M432.8,87.6V71.1l-0.5-0.3V88l14.7,8v-0.7L432.8,87.6z"/>
	<path class="st79" d="M447,95.3V78.7l-14.2-7.6v16.5L447,95.3z"/>
	<path class="st82" d="M441.6,91.1l4,2.1v-5.5l-4-2.1V91.1z"/>
	<path class="st83" d="M464.8,87.6V71.1l0.5-0.3V88l-14.7,8v-0.7L464.8,87.6z"/>
	<path class="st81" d="M450.7,95.3V78.7l14.2-7.6v16.5L450.7,95.3z"/>
	<path class="st84" d="M430.4,67.6l18.4,9.9l18.4-9.9l-18.4-9.9L430.4,67.6z"/>
	<path class="st79" d="M463.4,67.8l0.6-0.3l-15.2-8.2l-15.2,8.2l0.6,0.3l14.6-7.9L463.4,67.8z"/>
	<path class="st80" d="M463.4,67.8l-14.6-7.9l-14.6,7.9l14.6,7.9L463.4,67.8z"/>
	<path class="st85" d="M461,74.9v5.5l3-1.6v-5.5L461,74.9z M456.5,77.3v5.5l3-1.6v-5.5L456.5,77.3z"/>
	<path class="st79" d="M428.9,73.1l0-21.5l18.4-9.9v21.5L428.9,73.1L428.9,73.1z"/>
	<path class="st80" d="M428.9,73.1l0-21.5l-18.4-9.9v21.5L428.9,73.1L428.9,73.1z"/>
	<path class="st81" d="M412.9,61.8V45.3l-0.5-0.3v17.2l14.7,8v-0.7L412.9,61.8z"/>
	<path class="st79" d="M427.1,69.4l0-16.5l-14.2-7.6v16.5L427.1,69.4z"/>
	<path class="st82" d="M421.7,65.3l4,2.1v-5.5l-4-2.1V65.3L421.7,65.3z"/>
	<path class="st83" d="M445,61.8V45.3l0.5-0.3v17.2l-14.7,8v-0.7L445,61.8z"/>
	<path class="st81" d="M430.8,69.4l0-16.5l14.2-7.6v16.5L430.8,69.4z"/>
	<path class="st84" d="M410.5,41.7l18.4,9.9l18.4-9.9l-18.4-9.9L410.5,41.7z"/>
	<path class="st79" d="M443.5,41.9l0.6-0.3l-15.2-8.2l-15.2,8.2l0.6,0.3l14.6-7.9L443.5,41.9z"/>
	<path class="st80" d="M443.5,41.9l-14.6-7.9l-14.6,7.9l14.6,7.9L443.5,41.9L443.5,41.9z"/>
	<path class="st85" d="M441.1,49v5.5l3-1.6v-5.5L441.1,49z M436.6,51.4V57l3-1.6v-5.5L436.6,51.4z"/>
</g>
<g id="палет">
	<g>
		<polygon class="st86" points="439.4,261.5 354.8,204.9 441.5,151.6 526.1,208.2 		"/>
		<g>
			<g>
				<polygon class="st87" points="354.8,204.9 354.8,202.3 450.8,155.2 364,211 				"/>
				<polygon class="st88" points="364.1,208.5 354.8,202.3 441.6,149 450.8,155.2 				"/>
				<polygon class="st89" points="364,211 364.1,208.5 450.8,155.2 450.8,157.7 				"/>
			</g>
			<g>
				<polygon class="st90" points="372.1,192.4 371.9,203 363.5,208.2 355.6,192.1 				"/>
				<polygon class="st91" points="363.7,197.6 355.6,192.1 363.9,187 372.1,192.4 				"/>
				<polygon class="st87" points="363.7,197.6 363.5,208.2 355.4,202.7 355.6,192.1 				"/>
			</g>
			<g>
				<polygon class="st90" points="411.3,168.3 411.1,178.9 402.7,184.1 394.8,168 				"/>
				<polygon class="st91" points="402.9,173.5 394.8,168 403.1,162.9 411.3,168.3 				"/>
				<polygon class="st87" points="402.9,173.5 402.7,184.1 394.6,178.6 394.8,168 				"/>
			</g>
			<g>
				<polygon class="st90" points="450.5,144.3 450.3,154.9 441.9,160 434,143.9 				"/>
				<polygon class="st91" points="442.1,149.4 434,143.9 442.3,138.8 450.5,144.3 				"/>
				<polygon class="st87" points="442.1,149.4 441.9,160 433.7,154.5 434,143.9 				"/>
			</g>
		</g>
		<g>
			<g>
				<polygon class="st87" points="392.5,230.1 392.5,227.5 488.5,180.4 401.7,236.3 				"/>
				<polygon class="st88" points="401.8,233.7 392.5,227.5 479.3,174.2 488.5,180.4 				"/>
				<polygon class="st89" points="401.7,236.3 401.8,233.7 488.5,180.4 488.5,183 				"/>
			</g>
			<g>
				<polygon class="st90" points="409.8,217.6 409.6,228.2 401.2,233.4 393.3,217.3 				"/>
				<polygon class="st91" points="401.4,222.8 393.3,217.3 401.6,212.2 409.8,217.6 				"/>
				<polygon class="st87" points="401.4,222.8 401.2,233.4 393.1,227.9 393.3,217.3 				"/>
			</g>
			<g>
				<polygon class="st90" points="449,193.6 448.8,204.2 440.4,209.3 432.5,193.3 				"/>
				<polygon class="st91" points="440.6,198.7 432.5,193.3 440.8,188.1 449,193.6 				"/>
				<polygon class="st87" points="440.6,198.7 440.4,209.3 432.3,203.8 432.5,193.3 				"/>
			</g>
			<g>
				<polygon class="st90" points="488.2,169.5 488,180.1 479.6,185.2 471.7,169.2 				"/>
				<polygon class="st91" points="479.8,174.6 471.7,169.2 480,164 488.2,169.5 				"/>
				<polygon class="st87" points="479.8,174.6 479.6,185.2 471.5,179.8 471.7,169.2 				"/>
			</g>
		</g>
		<g>
			<g>
				<polygon class="st87" points="430.1,255.3 430.2,252.7 526.2,205.6 439.4,261.5 				"/>
				<polygon class="st88" points="439.4,258.9 430.2,252.7 516.9,199.5 526.2,205.6 				"/>
				<polygon class="st89" points="439.4,261.5 439.4,258.9 526.2,205.6 526.1,208.2 				"/>
			</g>
			<g>
				<polygon class="st90" points="447.5,242.9 447.2,253.4 438.9,258.6 430.9,242.5 				"/>
				<polygon class="st91" points="439.1,248 430.9,242.5 439.3,237.4 447.5,242.9 				"/>
				<polygon class="st87" points="439.1,248 438.9,258.6 430.7,253.1 430.9,242.5 				"/>
			</g>
			<g>
				<polygon class="st90" points="486.6,218.8 486.4,229.4 478.1,234.5 470.1,218.4 				"/>
				<polygon class="st91" points="478.3,223.9 470.1,218.4 478.5,213.3 486.6,218.8 				"/>
				<polygon class="st87" points="478.3,223.9 478.1,234.5 469.9,229 470.1,218.4 				"/>
			</g>
			<g>
				<polygon class="st90" points="525.8,194.7 525.6,205.3 517.3,210.4 509.3,194.4 				"/>
				<polygon class="st91" points="517.5,199.8 509.3,194.4 517.7,189.2 525.8,194.7 				"/>
				<polygon class="st87" points="517.5,199.8 517.3,210.4 509.1,205 509.3,194.4 				"/>
			</g>
		</g>
		<g>
			<polygon class="st89" points="449.1,242.5 449.2,240 355.1,189.2 439.6,248.3 			"/>
			<polygon class="st88" points="439.7,245.8 449.2,240 364.5,183.4 355.1,189.2 			"/>
			<polygon class="st87" points="439.6,248.3 439.7,245.8 355.1,189.2 355,191.7 			"/>
		</g>
		<g>
			<polygon class="st89" points="487.7,218.8 487.8,216.3 393.7,165.5 478.3,224.6 			"/>
			<polygon class="st88" points="478.3,222.1 487.8,216.3 403.2,159.6 393.7,165.5 			"/>
			<polygon class="st87" points="478.3,224.6 478.3,222.1 393.7,165.5 393.6,168 			"/>
		</g>
		<g>
			<polygon class="st89" points="526.4,195.1 526.4,192.5 432.3,141.7 516.9,200.9 			"/>
			<polygon class="st88" points="516.9,198.3 526.4,192.5 441.8,135.9 432.3,141.7 			"/>
			<polygon class="st87" points="516.9,200.9 516.9,198.3 432.3,141.7 432.3,144.3 			"/>
		</g>
		<g>
			<polygon class="st87" points="355.1,189.2 355.1,186.7 451.1,139.6 364.3,195.4 			"/>
			<polygon class="st88" points="364.4,192.8 355.1,186.7 441.9,133.4 451.1,139.6 			"/>
			<polygon class="st89" points="364.3,195.4 364.4,192.8 451.1,139.6 451.1,142.1 			"/>
			<g>
				<g>
					<polygon class="st92" points="361.9,185.6 361.9,185.8 361.3,186.2 361.1,185.9 					"/>
					<polygon class="st93" points="361.3,186 361.3,186.2 360.4,186.2 359.8,185.6 					"/>
					<polygon class="st94" points="360.4,186 360.4,186.2 359.8,185.8 359.8,185.6 					"/>
					<polygon class="st95" points="359.8,185 359.8,185.6 360.4,186 361.3,186 361.9,185.6 362,185 361.3,184.6 360.4,184.6 					
						"/>
				</g>
				<g>
					<polygon class="st92" points="367.7,189.5 367.7,189.7 367.1,190.1 366.8,189.7 					"/>
					<polygon class="st93" points="367.1,189.9 367.1,190.1 366.1,190 365.5,189.4 					"/>
					<polygon class="st94" points="366.1,189.8 366.1,190 365.5,189.6 365.5,189.4 					"/>
					<polygon class="st95" points="365.5,188.8 365.5,189.4 366.1,189.8 367.1,189.9 367.7,189.5 367.7,188.9 367.1,188.5 
						366.2,188.4 					"/>
				</g>
			</g>
			<g>
				<g>
					<polygon class="st92" points="401.2,161.5 401.2,161.7 400.6,162.1 400.4,161.7 					"/>
					<polygon class="st93" points="400.6,161.9 400.6,162.1 399.7,162.1 399.1,161.4 					"/>
					<polygon class="st94" points="399.7,161.8 399.7,162.1 399.1,161.6 399.1,161.4 					"/>
					<polygon class="st95" points="399.1,160.8 399.1,161.4 399.7,161.8 400.6,161.9 401.2,161.5 401.2,160.9 400.6,160.5 
						399.7,160.4 					"/>
				</g>
				<g>
					<polygon class="st92" points="407,165.3 407,165.5 406.4,165.9 406.1,165.6 					"/>
					<polygon class="st93" points="406.4,165.7 406.4,165.9 405.4,165.9 404.8,165.3 					"/>
					<polygon class="st94" points="405.4,165.7 405.4,165.9 404.8,165.5 404.8,165.3 					"/>
					<polygon class="st95" points="404.8,164.7 404.8,165.3 405.4,165.7 406.4,165.7 407,165.3 407,164.7 406.4,164.3 405.5,164.3 
											"/>
				</g>
			</g>
			<g>
				<g>
					<polygon class="st92" points="440.7,137.2 440.7,137.4 440.1,137.8 439.9,137.5 					"/>
					<polygon class="st93" points="440.1,137.6 440.1,137.8 439.2,137.8 438.5,137.2 					"/>
					<polygon class="st94" points="439.2,137.6 439.2,137.8 438.5,137.4 438.5,137.2 					"/>
					<polygon class="st95" points="438.6,136.6 438.5,137.2 439.2,137.6 440.1,137.6 440.7,137.2 440.7,136.6 440.1,136.2 
						439.2,136.2 					"/>
				</g>
				<g>
					<polygon class="st92" points="446.5,141.1 446.5,141.3 445.8,141.7 445.6,141.3 					"/>
					<polygon class="st93" points="445.8,141.5 445.8,141.7 444.9,141.7 444.3,141 					"/>
					<polygon class="st94" points="444.9,141.4 444.9,141.7 444.3,141.2 444.3,141 					"/>
					<polygon class="st95" points="444.3,140.4 444.3,141 444.9,141.4 445.8,141.5 446.5,141.1 446.5,140.5 445.9,140.1 445,140 
											"/>
				</g>
			</g>
		</g>
		<g>
			<polygon class="st87" points="367.6,197.6 367.7,195.1 463.7,148 376.9,203.8 			"/>
			<polygon class="st88" points="376.9,201.2 367.7,195.1 454.4,141.8 463.7,148 			"/>
			<polygon class="st89" points="376.9,203.8 376.9,201.2 463.7,148 463.6,150.5 			"/>
			<g>
				<g>
					<polygon class="st92" points="374.5,194 374.5,194.2 373.8,194.6 373.6,194.3 					"/>
					<polygon class="st93" points="373.8,194.4 373.8,194.6 373,194.6 372.3,194 					"/>
					<polygon class="st94" points="373,194.4 373,194.6 372.3,194.2 372.3,194 					"/>
					<polygon class="st95" points="372.3,193.4 372.3,194 373,194.4 373.8,194.4 374.5,194 374.5,193.4 373.9,193 373,193 					"/>
				</g>
				<g>
					<polygon class="st92" points="380.3,197.9 380.3,198.1 379.6,198.5 379.4,198.1 					"/>
					<polygon class="st93" points="379.6,198.3 379.6,198.5 378.7,198.5 378.1,197.8 					"/>
					<polygon class="st94" points="378.7,198.2 378.7,198.5 378.1,198 378.1,197.8 					"/>
					<polygon class="st95" points="378.1,197.2 378.1,197.8 378.7,198.2 379.6,198.3 380.3,197.9 380.3,197.3 379.6,196.9 
						378.7,196.8 					"/>
				</g>
			</g>
			<g>
				<g>
					<polygon class="st92" points="413.8,169.9 413.8,170.1 413.1,170.5 412.9,170.1 					"/>
					<polygon class="st93" points="413.1,170.3 413.1,170.5 412.2,170.5 411.6,169.8 					"/>
					<polygon class="st94" points="412.3,170.2 412.2,170.5 411.6,170 411.6,169.8 					"/>
					<polygon class="st95" points="411.6,169.2 411.6,169.8 412.3,170.2 413.1,170.3 413.8,169.9 413.8,169.3 413.2,168.9 
						412.3,168.8 					"/>
				</g>
				<g>
					<polygon class="st92" points="419.5,173.7 419.5,173.9 418.9,174.3 418.7,174 					"/>
					<polygon class="st93" points="418.9,174.1 418.9,174.3 418,174.3 417.4,173.7 					"/>
					<polygon class="st94" points="418,174.1 418,174.3 417.4,173.9 417.4,173.7 					"/>
					<polygon class="st95" points="417.4,173.1 417.4,173.7 418,174.1 418.9,174.1 419.5,173.7 419.6,173.1 418.9,172.7 418,172.7 
											"/>
				</g>
			</g>
			<g>
				<g>
					<polygon class="st92" points="453.3,145.6 453.3,145.8 452.6,146.2 452.4,145.9 					"/>
					<polygon class="st93" points="452.6,146 452.6,146.2 451.7,146.2 451.1,145.6 					"/>
					<polygon class="st94" points="451.7,146 451.7,146.2 451.1,145.8 451.1,145.6 					"/>
					<polygon class="st95" points="451.1,145 451.1,145.6 451.7,146 452.6,146 453.3,145.6 453.3,145 452.7,144.6 451.8,144.6 					
						"/>
				</g>
				<g>
					<polygon class="st92" points="459,149.5 459,149.7 458.4,150.1 458.2,149.7 					"/>
					<polygon class="st93" points="458.4,149.9 458.4,150.1 457.5,150.1 456.9,149.4 					"/>
					<polygon class="st94" points="457.5,149.8 457.5,150.1 456.9,149.6 456.9,149.4 					"/>
					<polygon class="st95" points="456.9,148.8 456.9,149.4 457.5,149.8 458.4,149.9 459,149.5 459.1,148.9 458.4,148.5 
						457.5,148.4 					"/>
				</g>
			</g>
		</g>
		<g>
			<polygon class="st87" points="380.2,206 380.2,203.5 476.2,156.4 389.4,212.2 			"/>
			<polygon class="st88" points="389.5,209.7 380.2,203.5 467,150.2 476.2,156.4 			"/>
			<polygon class="st89" points="389.4,212.2 389.5,209.7 476.2,156.4 476.2,158.9 			"/>
			<g>
				<g>
					<polygon class="st92" points="387.1,202.4 387.1,202.6 386.4,203 386.2,202.7 					"/>
					<polygon class="st93" points="386.4,202.8 386.4,203 385.5,203 384.9,202.4 					"/>
					<polygon class="st94" points="385.5,202.8 385.5,203 384.9,202.6 384.9,202.4 					"/>
					<polygon class="st95" points="384.9,201.8 384.9,202.4 385.5,202.8 386.4,202.8 387.1,202.4 387.1,201.8 386.4,201.4 
						385.5,201.4 					"/>
				</g>
				<g>
					<polygon class="st92" points="392.8,206.3 392.8,206.5 392.2,206.9 391.9,206.5 					"/>
					<polygon class="st93" points="392.2,206.7 392.2,206.9 391.3,206.9 390.6,206.2 					"/>
					<polygon class="st94" points="391.3,206.6 391.3,206.9 390.6,206.4 390.6,206.2 					"/>
					<polygon class="st95" points="390.7,205.6 390.6,206.2 391.3,206.6 392.2,206.7 392.8,206.3 392.8,205.7 392.2,205.3 
						391.3,205.2 					"/>
				</g>
			</g>
			<g>
				<g>
					<polygon class="st92" points="426.4,178.3 426.4,178.5 425.7,178.9 425.5,178.5 					"/>
					<polygon class="st93" points="425.7,178.7 425.7,178.9 424.8,178.9 424.2,178.2 					"/>
					<polygon class="st94" points="424.8,178.7 424.8,178.9 424.2,178.4 424.2,178.2 					"/>
					<polygon class="st95" points="424.2,177.6 424.2,178.2 424.8,178.7 425.7,178.7 426.4,178.3 426.4,177.7 425.7,177.3 
						424.8,177.3 					"/>
				</g>
				<g>
					<polygon class="st92" points="432.1,182.1 432.1,182.3 431.5,182.7 431.2,182.4 					"/>
					<polygon class="st93" points="431.5,182.5 431.5,182.7 430.6,182.7 429.9,182.1 					"/>
					<polygon class="st94" points="430.6,182.5 430.6,182.7 429.9,182.3 429.9,182.1 					"/>
					<polygon class="st95" points="430,181.5 429.9,182.1 430.6,182.5 431.5,182.5 432.1,182.1 432.1,181.5 431.5,181.1 
						430.6,181.1 					"/>
				</g>
			</g>
			<g>
				<g>
					<polygon class="st92" points="465.9,154 465.8,154.2 465.2,154.6 465,154.3 					"/>
					<polygon class="st93" points="465.2,154.4 465.2,154.6 464.3,154.6 463.7,154 					"/>
					<polygon class="st94" points="464.3,154.4 464.3,154.6 463.7,154.2 463.7,154 					"/>
					<polygon class="st95" points="463.7,153.4 463.7,154 464.3,154.4 465.2,154.4 465.9,154 465.9,153.4 465.2,153 464.3,153 					
						"/>
				</g>
				<g>
					<polygon class="st92" points="471.6,157.9 471.6,158.1 471,158.5 470.7,158.1 					"/>
					<polygon class="st93" points="471,158.3 471,158.5 470.1,158.5 469.4,157.8 					"/>
					<polygon class="st94" points="470.1,158.2 470.1,158.5 469.4,158 469.4,157.8 					"/>
					<polygon class="st95" points="469.4,157.2 469.4,157.8 470.1,158.2 471,158.3 471.6,157.9 471.6,157.3 471,156.9 470.1,156.8 
											"/>
				</g>
			</g>
		</g>
		<g>
			<polygon class="st87" points="392.7,214.4 392.8,211.9 488.8,164.8 402,220.6 			"/>
			<polygon class="st88" points="402,218.1 392.8,211.9 479.5,158.6 488.8,164.8 			"/>
			<polygon class="st89" points="402,220.6 402,218.1 488.8,164.8 488.7,167.3 			"/>
			<g>
				<g>
					<polygon class="st92" points="399.6,210.8 399.6,211 399,211.4 398.8,211.1 					"/>
					<polygon class="st93" points="399,211.2 399,211.4 398.1,211.4 397.4,210.8 					"/>
					<polygon class="st94" points="398.1,211.2 398.1,211.4 397.4,211 397.4,210.8 					"/>
					<polygon class="st95" points="397.4,210.2 397.4,210.8 398.1,211.2 399,211.2 399.6,210.8 399.6,210.2 399,209.8 398.1,209.8 
											"/>
				</g>
				<g>
					<polygon class="st92" points="405.4,214.7 405.4,214.9 404.7,215.3 404.5,214.9 					"/>
					<polygon class="st93" points="404.7,215.1 404.7,215.3 403.8,215.3 403.2,214.6 					"/>
					<polygon class="st94" points="403.8,215 403.8,215.3 403.2,214.8 403.2,214.6 					"/>
					<polygon class="st95" points="403.2,214 403.2,214.6 403.8,215 404.7,215.1 405.4,214.7 405.4,214.1 404.8,213.7 403.9,213.6 
											"/>
				</g>
			</g>
			<g>
				<g>
					<polygon class="st92" points="438.9,186.7 438.9,186.9 438.3,187.3 438.1,186.9 					"/>
					<polygon class="st93" points="438.3,187.1 438.3,187.3 437.4,187.3 436.7,186.6 					"/>
					<polygon class="st94" points="437.4,187.1 437.4,187.3 436.7,186.8 436.7,186.6 					"/>
					<polygon class="st95" points="436.7,186 436.7,186.6 437.4,187.1 438.3,187.1 438.9,186.7 438.9,186.1 438.3,185.7 
						437.4,185.7 					"/>
				</g>
				<g>
					<polygon class="st92" points="444.7,190.5 444.7,190.7 444,191.1 443.8,190.8 					"/>
					<polygon class="st93" points="444,190.9 444,191.1 443.1,191.1 442.5,190.5 					"/>
					<polygon class="st94" points="443.1,190.9 443.1,191.1 442.5,190.7 442.5,190.5 					"/>
					<polygon class="st95" points="442.5,189.9 442.5,190.5 443.1,190.9 444,190.9 444.7,190.5 444.7,189.9 444.1,189.5 
						443.2,189.5 					"/>
				</g>
			</g>
			<g>
				<g>
					<polygon class="st92" points="478.4,162.4 478.4,162.6 477.8,163 477.5,162.7 					"/>
					<polygon class="st93" points="477.8,162.8 477.8,163 476.9,163 476.2,162.4 					"/>
					<polygon class="st94" points="476.9,162.8 476.9,163 476.2,162.6 476.2,162.4 					"/>
					<polygon class="st95" points="476.2,161.8 476.2,162.4 476.9,162.8 477.8,162.8 478.4,162.4 478.4,161.9 477.8,161.4 
						476.9,161.4 					"/>
				</g>
				<g>
					<polygon class="st92" points="484.2,166.3 484.2,166.5 483.5,166.9 483.3,166.5 					"/>
					<polygon class="st93" points="483.5,166.7 483.5,166.9 482.6,166.9 482,166.2 					"/>
					<polygon class="st94" points="482.6,166.6 482.6,166.9 482,166.4 482,166.2 					"/>
					<polygon class="st95" points="482,165.6 482,166.2 482.6,166.6 483.5,166.7 484.2,166.3 484.2,165.7 483.5,165.3 482.6,165.2 
											"/>
				</g>
			</g>
		</g>
		<g>
			<polygon class="st87" points="405.3,222.8 405.3,220.3 501.3,173.2 414.5,229 			"/>
			<polygon class="st88" points="414.6,226.5 405.3,220.3 492.1,167 501.3,173.2 			"/>
			<polygon class="st89" points="414.5,229 414.6,226.5 501.3,173.2 501.3,175.7 			"/>
			<g>
				<g>
					<polygon class="st92" points="412.2,219.2 412.2,219.4 411.5,219.8 411.3,219.5 					"/>
					<polygon class="st93" points="411.5,219.6 411.5,219.8 410.6,219.8 410,219.2 					"/>
					<polygon class="st94" points="410.6,219.6 410.6,219.8 410,219.4 410,219.2 					"/>
					<polygon class="st95" points="410,218.6 410,219.2 410.6,219.6 411.5,219.6 412.2,219.2 412.2,218.6 411.6,218.2 410.7,218.2 
											"/>
				</g>
				<g>
					<polygon class="st92" points="417.9,223.1 417.9,223.3 417.3,223.7 417.1,223.3 					"/>
					<polygon class="st93" points="417.3,223.5 417.3,223.7 416.4,223.7 415.8,223 					"/>
					<polygon class="st94" points="416.4,223.4 416.4,223.7 415.8,223.2 415.8,223 					"/>
					<polygon class="st95" points="415.8,222.4 415.8,223 416.4,223.4 417.3,223.5 417.9,223.1 417.9,222.5 417.3,222.1 416.4,222 
											"/>
				</g>
			</g>
			<g>
				<g>
					<polygon class="st92" points="451.5,195.1 451.5,195.3 450.8,195.7 450.6,195.3 					"/>
					<polygon class="st93" points="450.8,195.5 450.8,195.7 449.9,195.7 449.3,195 					"/>
					<polygon class="st94" points="449.9,195.5 449.9,195.7 449.3,195.2 449.3,195 					"/>
					<polygon class="st95" points="449.3,194.5 449.3,195 449.9,195.5 450.8,195.5 451.5,195.1 451.5,194.5 450.9,194.1 450,194.1 
											"/>
				</g>
				<g>
					<polygon class="st92" points="457.2,198.9 457.2,199.1 456.6,199.5 456.4,199.2 					"/>
					<polygon class="st93" points="456.6,199.3 456.6,199.5 455.7,199.5 455,198.9 					"/>
					<polygon class="st94" points="455.7,199.3 455.7,199.5 455,199.1 455,198.9 					"/>
					<polygon class="st95" points="455.1,198.3 455,198.9 455.7,199.3 456.6,199.3 457.2,198.9 457.2,198.3 456.6,197.9 
						455.7,197.9 					"/>
				</g>
			</g>
			<g>
				<g>
					<polygon class="st92" points="491,170.8 491,171 490.3,171.4 490.1,171.1 					"/>
					<polygon class="st93" points="490.3,171.2 490.3,171.4 489.4,171.4 488.8,170.8 					"/>
					<polygon class="st94" points="489.4,171.2 489.4,171.4 488.8,171 488.8,170.8 					"/>
					<polygon class="st95" points="488.8,170.2 488.8,170.8 489.4,171.2 490.3,171.2 491,170.8 491,170.3 490.4,169.8 489.4,169.8 
											"/>
				</g>
				<g>
					<polygon class="st92" points="496.7,174.7 496.7,174.9 496.1,175.3 495.9,174.9 					"/>
					<polygon class="st93" points="496.1,175.1 496.1,175.3 495.2,175.3 494.5,174.6 					"/>
					<polygon class="st94" points="495.2,175.1 495.2,175.3 494.5,174.8 494.5,174.6 					"/>
					<polygon class="st95" points="494.6,174.1 494.5,174.6 495.2,175.1 496.1,175.1 496.7,174.7 496.7,174.1 496.1,173.7 
						495.2,173.7 					"/>
				</g>
			</g>
		</g>
		<g>
			<polygon class="st87" points="417.9,231.2 417.9,228.7 513.9,181.6 427.1,237.4 			"/>
			<polygon class="st88" points="427.2,234.9 417.9,228.7 504.6,175.4 513.9,181.6 			"/>
			<polygon class="st89" points="427.1,237.4 427.2,234.9 513.9,181.6 513.9,184.1 			"/>
			<g>
				<g>
					<polygon class="st92" points="424.7,227.6 424.7,227.8 424.1,228.2 423.9,227.9 					"/>
					<polygon class="st93" points="424.1,228 424.1,228.2 423.2,228.2 422.6,227.6 					"/>
					<polygon class="st94" points="423.2,228 423.2,228.2 422.6,227.8 422.6,227.6 					"/>
					<polygon class="st95" points="422.6,227 422.6,227.6 423.2,228 424.1,228 424.7,227.6 424.8,227.1 424.1,226.6 423.2,226.6 
											"/>
				</g>
				<g>
					<polygon class="st92" points="430.5,231.5 430.5,231.7 429.8,232.1 429.6,231.7 					"/>
					<polygon class="st93" points="429.8,231.9 429.8,232.1 429,232.1 428.3,231.4 					"/>
					<polygon class="st94" points="429,231.9 429,232.1 428.3,231.6 428.3,231.4 					"/>
					<polygon class="st95" points="428.3,230.9 428.3,231.4 429,231.9 429.8,231.9 430.5,231.5 430.5,230.9 429.9,230.5 429,230.5 
											"/>
				</g>
			</g>
			<g>
				<g>
					<polygon class="st92" points="464,203.5 464,203.7 463.4,204.1 463.2,203.7 					"/>
					<polygon class="st93" points="463.4,203.9 463.4,204.1 462.5,204.1 461.9,203.4 					"/>
					<polygon class="st94" points="462.5,203.9 462.5,204.1 461.9,203.7 461.9,203.4 					"/>
					<polygon class="st95" points="461.9,202.9 461.9,203.4 462.5,203.9 463.4,203.9 464,203.5 464.1,202.9 463.4,202.5 
						462.5,202.5 					"/>
				</g>
				<g>
					<polygon class="st92" points="469.8,207.3 469.8,207.5 469.1,207.9 468.9,207.6 					"/>
					<polygon class="st93" points="469.1,207.7 469.1,207.9 468.2,207.9 467.6,207.3 					"/>
					<polygon class="st94" points="468.2,207.7 468.2,207.9 467.6,207.5 467.6,207.3 					"/>
					<polygon class="st95" points="467.6,206.7 467.6,207.3 468.2,207.7 469.1,207.7 469.8,207.3 469.8,206.8 469.2,206.3 
						468.3,206.3 					"/>
				</g>
			</g>
			<g>
				<g>
					<polygon class="st92" points="503.5,179.2 503.5,179.4 502.9,179.8 502.7,179.5 					"/>
					<polygon class="st93" points="502.9,179.6 502.9,179.8 502,179.8 501.4,179.2 					"/>
					<polygon class="st94" points="502,179.6 502,179.8 501.3,179.4 501.4,179.2 					"/>
					<polygon class="st95" points="501.4,178.6 501.4,179.2 502,179.6 502.9,179.6 503.5,179.2 503.5,178.7 502.9,178.2 502,178.2 
											"/>
				</g>
				<g>
					<polygon class="st92" points="509.3,183.1 509.3,183.3 508.6,183.7 508.4,183.3 					"/>
					<polygon class="st93" points="508.6,183.5 508.6,183.7 507.7,183.7 507.1,183 					"/>
					<polygon class="st94" points="507.7,183.5 507.7,183.7 507.1,183.2 507.1,183 					"/>
					<polygon class="st95" points="507.1,182.5 507.1,183 507.7,183.5 508.6,183.5 509.3,183.1 509.3,182.5 508.7,182.1 
						507.8,182.1 					"/>
				</g>
			</g>
		</g>
		<g>
			<polygon class="st87" points="430.4,239.6 430.5,237.1 526.5,190 439.7,245.8 			"/>
			<polygon class="st88" points="439.7,243.3 430.5,237.1 517.2,183.8 526.5,190 			"/>
			<polygon class="st89" points="439.7,245.8 439.7,243.3 526.5,190 526.4,192.5 			"/>
			<g>
				<g>
					<polygon class="st92" points="437.3,236 437.3,236.2 436.7,236.6 436.4,236.3 					"/>
					<polygon class="st93" points="436.7,236.4 436.7,236.6 435.7,236.6 435.1,236 					"/>
					<polygon class="st94" points="435.7,236.4 435.7,236.6 435.1,236.2 435.1,236 					"/>
					<polygon class="st95" points="435.1,235.4 435.1,236 435.7,236.4 436.7,236.4 437.3,236 437.3,235.5 436.7,235 435.8,235 					
						"/>
				</g>
				<g>
					<polygon class="st92" points="443.1,239.9 443.1,240.1 442.4,240.5 442.2,240.1 					"/>
					<polygon class="st93" points="442.4,240.3 442.4,240.5 441.5,240.5 440.9,239.8 					"/>
					<polygon class="st94" points="441.5,240.3 441.5,240.5 440.9,240 440.9,239.8 					"/>
					<polygon class="st95" points="440.9,239.3 440.9,239.8 441.5,240.3 442.4,240.3 443.1,239.9 443.1,239.3 442.4,238.9 
						441.5,238.9 					"/>
				</g>
			</g>
			<g>
				<g>
					<polygon class="st92" points="476.6,211.9 476.6,212.1 476,212.5 475.7,212.1 					"/>
					<polygon class="st93" points="476,212.3 476,212.5 475,212.5 474.4,211.8 					"/>
					<polygon class="st94" points="475,212.3 475,212.5 474.4,212.1 474.4,211.8 					"/>
					<polygon class="st95" points="474.4,211.3 474.4,211.8 475,212.3 476,212.3 476.6,211.9 476.6,211.3 476,210.9 475.1,210.9 
											"/>
				</g>
				<g>
					<polygon class="st92" points="482.4,215.7 482.4,216 481.7,216.3 481.5,216 					"/>
					<polygon class="st93" points="481.7,216.1 481.7,216.3 480.8,216.3 480.2,215.7 					"/>
					<polygon class="st94" points="480.8,216.1 480.8,216.3 480.2,215.9 480.2,215.7 					"/>
					<polygon class="st95" points="480.2,215.1 480.2,215.7 480.8,216.1 481.7,216.1 482.4,215.7 482.4,215.2 481.7,214.7 
						480.8,214.7 					"/>
				</g>
			</g>
			<g>
				<g>
					<polygon class="st92" points="516.1,187.6 516.1,187.8 515.4,188.2 515.2,187.9 					"/>
					<polygon class="st93" points="515.4,188 515.4,188.2 514.5,188.2 513.9,187.6 					"/>
					<polygon class="st94" points="514.5,188 514.5,188.2 513.9,187.8 513.9,187.6 					"/>
					<polygon class="st95" points="513.9,187 513.9,187.6 514.5,188 515.4,188 516.1,187.6 516.1,187.1 515.5,186.6 514.6,186.6 
											"/>
				</g>
				<g>
					<polygon class="st92" points="521.9,191.5 521.8,191.7 521.2,192.1 521,191.7 					"/>
					<polygon class="st93" points="521.2,191.9 521.2,192.1 520.3,192.1 519.7,191.4 					"/>
					<polygon class="st94" points="520.3,191.9 520.3,192.1 519.7,191.7 519.7,191.4 					"/>
					<polygon class="st95" points="519.7,190.9 519.7,191.4 520.3,191.9 521.2,191.9 521.9,191.5 521.9,190.9 521.2,190.5 
						520.3,190.5 					"/>
				</g>
			</g>
		</g>
	</g>
</g>
<g id="бочки">
	<path class="st96" d="M427.2,143.4v12.8c0,4.2,6.6,7.6,14.7,7.6c8.1,0,14.7-3.4,14.7-7.6v-12.8H427.2z M427.2,169.8v13.9
		c0,4.2,6.6,7.6,14.7,7.6c8.1,0,14.7-3.4,14.7-7.6v-13.9H427.2z"/>
	<path class="st97" d="M456.6,143.4c0,4.2-6.6,7.6-14.7,7.6c-8.1,0-14.7-3.4-14.7-7.6s6.6-7.6,14.7-7.6
		C450,135.8,456.6,139.2,456.6,143.4z M441.9,163.8c-8.1,0-14.7-3.4-14.7-7.6V170c0.1,4.1,6.6,7.5,14.7,7.5s14.6-3.3,14.7-7.5v-13.8
		C456.6,160.3,450,163.8,441.9,163.8L441.9,163.8z"/>
	<path class="st98" d="M454.7,143.4c0,3.4-5.7,6.2-12.8,6.2c-7,0-12.8-2.8-12.8-6.2s5.7-6.2,12.8-6.2
		C449,137.2,454.7,140,454.7,143.4z"/>
	<path class="st96" d="M450.2,141c0,0.5-0.6,0.9-1.5,0.9s-1.5-0.4-1.5-0.9s0.6-0.9,1.5-0.9S450.2,140.5,450.2,141z M401.3,157.5
		v12.8c0,4.2,6.6,7.6,14.7,7.6c8.1,0,14.7-3.4,14.7-7.6v-12.8H401.3z M401.3,184v13.9c0,4.2,6.6,7.6,14.7,7.6
		c8.1,0,14.7-3.4,14.7-7.6V184H401.3z"/>
	<path class="st97" d="M430.7,157.5c0,4.2-6.6,7.6-14.7,7.6c-8.1,0-14.7-3.4-14.7-7.6s6.6-7.6,14.7-7.6
		C424.1,150,430.7,153.4,430.7,157.5z M416,177.9c-8.1,0-14.7-3.4-14.7-7.6v13.8c0.1,4.1,6.6,7.5,14.7,7.5c8,0,14.6-3.3,14.6-7.5
		v-13.8C430.7,174.5,424.1,177.9,416,177.9z"/>
	<path class="st98" d="M428.8,157.5c0,3.4-5.7,6.2-12.7,6.2s-12.8-2.8-12.8-6.2s5.7-6.2,12.8-6.2
		C423.1,151.3,428.8,154.1,428.8,157.5z"/>
	<ellipse class="st96" cx="422.9" cy="155.1" rx="1.5" ry="0.9"/>
	<path class="st99" d="M452.3,162.7v12.8c0,4.2,6.6,7.6,14.7,7.6s14.7-3.4,14.7-7.6v-12.8H452.3z M452.3,189.2v13.9
		c0,4.2,6.6,7.6,14.7,7.6s14.7-3.4,14.7-7.6v-13.9H452.3z"/>
	<ellipse class="st99" cx="467" cy="162.7" rx="14.7" ry="7.6"/>
	<path class="st100" d="M467,183.1c-8.1,0-14.7-3.4-14.7-7.6v13.7c0,4.2,6.6,7.5,14.7,7.5c8.1,0,14.6-3.4,14.7-7.5v-13.7
		C481.7,179.7,475.1,183.1,467,183.1z"/>
	<path class="st101" d="M479.7,162.7c0,3.4-5.7,6.2-12.7,6.2c-7,0-12.8-2.8-12.8-6.2s5.7-6.2,12.8-6.2
		C474,156.5,479.7,159.3,479.7,162.7z"/>
	<path class="st85" d="M475.3,160.3c0,0.5-0.6,0.9-1.5,0.9s-1.5-0.4-1.5-0.9s0.6-0.9,1.5-0.9S475.3,159.8,475.3,160.3z"/>
	<path class="st99" d="M426.7,172.4v12.8c0,4.2,6.6,7.6,14.7,7.6s14.7-3.4,14.7-7.6v-12.8H426.7z M426.7,198.9v13.9
		c0,4.2,6.6,7.6,14.7,7.6s14.7-3.4,14.7-7.6v-13.9L426.7,198.9z"/>
	<ellipse class="st99" cx="441.4" cy="172.4" rx="14.7" ry="7.6"/>
	<path class="st100" d="M441.4,192.8c-8.1,0-14.7-3.4-14.7-7.6v13.7c0,4.2,6.6,7.5,14.7,7.5s14.6-3.4,14.7-7.5v-13.7
		C456.1,189.4,449.5,192.8,441.4,192.8z"/>
	<path class="st101" d="M454.2,172.4c0,3.4-5.7,6.2-12.7,6.2s-12.8-2.8-12.8-6.2s5.7-6.2,12.8-6.2S454.2,169,454.2,172.4z"/>
	<path class="st85" d="M449.7,170c0,0.5-0.6,0.9-1.5,0.9s-1.5-0.4-1.5-0.9c0-0.5,0.6-0.9,1.5-0.9S449.7,169.5,449.7,170z"/>
</g>
</svg>
