<svg xmlns="http://www.w3.org/2000/svg" xmlns:xlink="http://www.w3.org/1999/xlink" viewBox="0 0 817.96 503.22"><defs><linearGradient id="Безымянный_градиент_4" x1="468.08" y1="111.29" x2="478.03" y2="117.03" gradientUnits="userSpaceOnUse"><stop offset=".59" stop-color="#6f6f6f"/><stop offset=".59" stop-color="gray"/><stop offset=".59" stop-color="#8f8f8f"/></linearGradient><linearGradient id="Безымянный_градиент_644" x1="125.09" y1="205.17" x2="120.91" y2="212.41" gradientUnits="userSpaceOnUse"><stop offset=".49" stop-color="#6092a3"/><stop offset=".51" stop-color="#c4e3ff"/></linearGradient><linearGradient id="Безымянный_градиент_2" x1="399.94" y1="66.25" x2="394.37" y2="66.25" gradientUnits="userSpaceOnUse"><stop offset=".56" stop-color="#b22f20"/><stop offset=".57" stop-color="#ce4636"/></linearGradient><linearGradient id="Безымянный_градиент_332" x1="379.1" y1="76.63" x2="381.5" y2="80.78" gradientUnits="userSpaceOnUse"><stop offset="0" stop-color="#3a3a3a"/><stop offset="1" stop-color="#2e2e2f"/></linearGradient><linearGradient id="Безымянный_градиент_350" x1="453.45" y1="83.34" x2="454.68" y2="83.15" gradientUnits="userSpaceOnUse"><stop offset=".52" stop-color="#111214"/><stop offset=".55" stop-color="#1b1e20"/><stop offset=".6" stop-color="#292d2f"/></linearGradient><linearGradient id="Безымянный_градиент_3" x1="444.38" y1="93.35" x2="469.71" y2="91.4" gradientUnits="userSpaceOnUse"><stop offset="0" stop-color="#b22f20"/><stop offset="1" stop-color="#b73526"/></linearGradient><linearGradient id="Безымянный_градиент_18" x1="593.42" y1="261.43" x2="595.98" y2="265.87" gradientUnits="userSpaceOnUse"><stop offset="0" stop-color="#eeeeea"/><stop offset=".42" stop-color="#ecece7"/><stop offset=".75" stop-color="#e4e4dd"/><stop offset="1" stop-color="#dbdad0"/></linearGradient><linearGradient id="Безымянный_градиент_4-2" x1="465.01" y1="97.77" x2="480.12" y2="106.49" xlink:href="#Безымянный_градиент_4"/><linearGradient id="Безымянный_градиент_4-3" x1="471.6" y1="-19.19" x2="473.67" y2="-17.99" gradientTransform="matrix(1 -.58 0 1 0 393.55)" xlink:href="#Безымянный_градиент_4"/><linearGradient id="Безымянный_градиент_2-2" x1="190.12" y1="249.74" x2="184.63" y2="249.74" xlink:href="#Безымянный_градиент_2"/><linearGradient id="Безымянный_градиент_332-2" x1="204.54" y1="278.06" x2="206.7" y2="281.8" xlink:href="#Безымянный_градиент_332"/><style>.cls-1{isolation:isolate}.cls-5{fill:#3c3c3b}.cls-20,.cls-27,.cls-28,.cls-6{fill:#fff}.cls-7{fill:#c6c6c6}.cls-10{fill:#1d1d1b}.cls-20,.cls-66,.cls-98{opacity:.5}.cls-11{fill:#3e312c}.cls-12{fill:#1d1715}.cls-13{fill:#dadada}.cls-14{fill:#ededed}.cls-15{fill:#dad1d1}.cls-16{fill:#575756}.cls-17{fill:#615653}.cls-18{fill:#695d59}.cls-19{fill:#8fd1cf}.cls-21{fill:#514845}.cls-24{fill:#f2b345}.cls-25{fill:#c2481e}.cls-100,.cls-27,.cls-72{opacity:.2}.cls-28,.cls-35{opacity:.1}.cls-29{fill:#ffb}.cls-31{fill:#ffd2a1}.cls-32{fill:#f9b233}.cls-33{fill:#23839a}.cls-35{fill:#21211f}.cls-36{fill:#ffbd49}.cls-37{fill:#dbdad0}.cls-38{fill:#4d4f4a}.cls-39{fill:#2d2c2b}.cls-40{fill:#3d3c3a}.cls-41{fill:#a09a8e}.cls-42{fill:#938d82}.cls-43{fill:#b6b1a5}.cls-44{fill:#d9d4cd}.cls-45,.cls-48,.cls-49{fill:#eeeeea}.cls-48,.cls-97,.cls-98,.cls-99{mix-blend-mode:screen}.cls-48,.cls-49,.cls-69{opacity:.4}.cls-51{fill:#5a5656}.cls-51,.cls-96{opacity:.8}.cls-53{fill:#443f3f}.cls-100,.cls-53,.cls-66,.cls-71,.cls-91{mix-blend-mode:multiply}.cls-53,.cls-71{opacity:.6}.cls-54{fill:#2d2a2a}.cls-55{fill:#3a3a3a}.cls-56{fill:#262626}.cls-57,.cls-63{fill:#bbb}.cls-114,.cls-57,.cls-91,.cls-99{opacity:.3}.cls-58{fill:#a94b17}.cls-59{fill:#d78712}.cls-60{fill:#d3dee2}.cls-61{fill:#a5a5a5}.cls-62{fill:#d5d5d5}.cls-64{fill:#bc6a19}.cls-65{fill:#3f423c}.cls-67,.cls-71,.cls-72{fill:#c9c8bf}.cls-68{fill:#3d3939}.cls-70{fill:#dbdad3}.cls-73{fill:#b2d59c}.cls-75{fill:#d84f3f}.cls-77{fill:#b22f20}.cls-78{fill:#191919}.cls-79{fill:#332e2a}.cls-80{fill:#9b9384}.cls-82{fill:#c46f00}.cls-85{fill:#696969}.cls-91{fill:#a3382c}.cls-93{fill:#2e2e2f}.cls-95{fill:#cae8ea}.cls-96{fill:#6b8a8e}.cls-97{fill:#dcfdff}.cls-98{fill:#aecdd1}.cls-100,.cls-99{fill:#b54033}.cls-102{fill:#e9e5e0}.cls-103{fill:#c93c2b}.cls-105{fill:#cc4333}.cls-109{fill:#9b2323}.cls-110{fill:#d6952d}.cls-111{fill:#bdd5d6}.cls-112{fill:#45968a}.cls-113{fill:#2e3e82}.cls-114{fill:#0089a1}.cls-115{fill:#4f4238}.cls-116{fill:#a48a7b}.cls-118{fill:#b2b2b2}.cls-119{fill:#d42f27}.cls-120{fill:#751a16}</style></defs><g class="cls-1"><g id="Слой_2" data-name="Слой 2"><g id="машины"><path style="fill:#292929" d="M414.98 471.76 817.1 247.02l.86 31.46-402.12 224.74-.86-31.46z"/><path style="fill:#454545" d="M414.98 471.76 0 224.74l.86 31.45 414.98 247.03-.86-31.46z"/><path style="fill:#4f4f4f" d="M0 224.74 402.12 0 817.1 247.03 414.98 471.77 0 224.74z"/><path class="cls-5" d="M529.26 96.11a21.21 21.21 0 0 1-22.56 0l-77-48.66c-7.51-5-21.53-5-29 0l-290 183.18c-6.54 3.93-6.81 9.61 0 13.55L369.35 407.6a30 30 0 0 0 29 0l290-183.18c3-1.9 4.85-4.27 5.37-6.78 5-3.85-91.84-59.94-93.27-62.3-5.79-3.64-5.85-15 0-18.67l13.61-8.59-67.69-42.77Z"/><path class="cls-6" d="m641.93 258.55-3.1 1.96-97.56-61.63 3.1-1.96 97.56 61.63z"/><path class="cls-6" d="m547.75 194.79 3.1 1.96-9.87 6.23-3.1-1.96 9.87-6.23zM577.78 299.07l-3.1 1.96-97.56-61.63 3.1-1.96 97.56 61.63z"/><path class="cls-6" d="m483.61 235.31 3.1 1.96-9.87 6.23-3.1-1.96 9.87-6.23zM513.64 339.59l-3.1 1.96-97.57-61.63 3.1-1.96 97.57 61.63z"/><path class="cls-6" d="m419.46 275.83 3.1 1.96-9.87 6.23-3.1-1.96 9.87-6.23zM449.49 380.11l-3.1 1.96-97.56-61.63 3.1-1.95 97.56 61.62z"/><path class="cls-6" d="m355.31 316.35 3.1 1.96-9.87 6.23-3.1-1.96 9.87-6.23zM157.09 199.33l3.1-1.96L257.76 259l-3.11 1.96-97.56-61.63z"/><path class="cls-6" d="m251.27 263.09-3.1-1.96 9.87-6.23 3.1 1.96-9.87 6.23zM221.24 158.81l3.1-1.96 97.56 61.63-3.1 1.96-97.56-61.63z"/><path class="cls-6" d="m315.42 222.57-3.1-1.96 9.86-6.23 3.11 1.96-9.87 6.23zM285.38 118.29l3.11-1.96 97.56 61.63-3.1 1.96-97.57-61.63z"/><path class="cls-6" d="m379.56 182.05-3.1-1.96 9.87-6.23 3.1 1.96-9.87 6.23zM349.53 77.77l3.1-1.96 97.56 61.63-3.1 1.96-97.56-61.63z"/><path class="cls-6" d="m443.71 141.53-3.1-1.96 9.87-6.23 3.1 1.96-9.87 6.23z"/><path class="cls-7" d="m689.93 227.36-290 183.18a32.78 32.78 0 0 1-32.14 0l-258.7-163.42c-4.06-2.57-6.49-6-7-9.72-.65 5 2 9.33 7 12.55L367.8 413.37a32.71 32.71 0 0 0 32.14 0l290-183.17c5-3.23 7.61-7.52 7-12.56-.52 3.74-2.94 7.16-7.01 9.72ZM619.44 128.62l-17.41 11a6 6 0 0 0-2.46 6.4c0-3.84 17.64-12.47 19.88-14.57ZM600.47 155.34c2.34 2.88 97.1 57.78 93.28 62.3 4.08-14-97.2-58.74-97.35-71.63a9.38 9.38 0 0 0 4.07 9.33Z"/><path class="cls-7" d="m110.65 230.63 290-183.18a27.56 27.56 0 0 1 14.52-3.76C425.48 39.82 497 91.8 506.7 96.11c12.94 9.56 28.7-4 39.67-10.8v-2.84C535 89.41 520 102.75 506.7 93.27l-77-48.65c-7.51-5-21.53-5-29 0l-290 183.18c-4 2.63-6.1 5.75-5.37 9.6.46-2.51 2.31-4.87 5.32-6.77Z"/><path class="cls-6" d="M689.93 205.09 602 149.57a5.67 5.67 0 0 1-2.46-3.56 6 6 0 0 1 2.46-6.4l17.41-11-3.11-2c-7.65 5.58-29.6 13.57-15.86 25.86L688.37 208c7.4 4.44 7.17 12.1 0 16.38l-290 183.18c-7.51 5-21.53 5-29 0L110.65 244.18c-7.12-4.28-7.45-11.93 0-16.38l290-183.18a27.46 27.46 0 0 1 14.52-3.76c10.06-4 82.05 48.2 91.55 52.41 12.94 9.56 28.71-4 39.68-10.8l-3.11-2c-9.83 6-23.51 18.13-35 9.83l-77-48.66c-8.45-5.57-23.7-5.58-32.15 0l-290 183.18c-9.42 5.64-9.3 16.74 0 22.27L367.8 410.54a32.78 32.78 0 0 0 32.14 0l290-183.18c9.25-5.54 9.46-16.62-.01-22.27Z"/><path d="M269.42 191.43c4.3 2.72 4.3 7.13 0 9.84-6.12 5.52-26.58-.77-15.59-9.84a15.91 15.91 0 0 1 15.59 0Z" style="opacity:.5;fill:#1d1d1b"/><path class="cls-10" d="M239.36 159.82c6.11 1.31 84.3 60 89.67 50.29l32.16-19.8c3.2-2 3.2-5.32 0-7.34-6.11-1.31-84.3-60-89.67-50.29l-32.16 19.8c-3.2 2.01-3.2 5.32 0 7.34Z" style="opacity:.5"/><path class="cls-11" d="m272.15 138.56-25.27 15.96v-13.77l25.27-15.96v13.77zM327.2 173.33l-25.26 15.96v-13.77l25.26-15.96v13.77z"/><path class="cls-12" d="m313.12 177.76 12.86 24.38-6.7 4.24L306.41 182l6.71-4.24z"/><path class="cls-12" d="M310.18 184.39c0 6.35 4.08 14.07 9.11 17.24 15 6.77 8.47-19.66 0-23-5.04-3.17-9.11-.63-9.11 5.76Z"/><path class="cls-12" d="M317.51 197.4a12 12 0 0 0-4.87-9.23c-8-3.64-4.54 10.51 0 12.31 2.69 1.7 4.87.32 4.87-3.08Z"/><path class="cls-12" d="M321.74 200.06c1.58-9.75-16.11-29-18.2-11.48-1.54 9.76 16.11 29.05 18.2 11.48Zm-3.5-2.2c-1.28 10.81-12.18-1.07-11.2-7.07 1.29-10.79 12.17 1.06 11.2 7.07Z"/><path class="cls-13" d="M319.09 198.39c0-4.5-2.89-10-6.46-12.21s-6.44-.42-6.44 4.08c-1.11 6.91 11.41 20.57 12.9 8.13Zm-.7-.44c-1.32 11.1-12.5-1.09-11.5-7.25 1.32-11.1 12.5 1.09 11.5 7.3Z"/><path class="cls-14" d="M316.59 196.81c.69-4.23-7-12.61-7.9-5-.69 4.26 6.99 12.63 7.9 5Zm-1.47-.92c-.56 4.79-5.39-.47-5-3.13.61-4.76 5.44.47 5 3.13Z"/><path class="cls-15" d="M315.12 195.89c.44-2.66-4.39-7.93-5-3.13-.39 2.66 4.44 7.92 5 3.13Zm-1.53.23c.33-.21.83.77.5 1s-.83-.81-.5-1Zm-1.16 0c.05-.4.46 0 .42.26-.05.4-.45-.03-.42-.26Zm-1.24-1.51c.32-.22.83.76.5.95s-.83-.76-.5-.95Zm-.08-1.51c.2.07.35.68 0 .52-.19-.07-.34-.62 0-.52Zm.58-.58c-.33.22-.83-.76-.5-1s.81.81.5 1Zm1.16 0c-.05.41-.45 0-.42-.26.05-.4.45.04.42.26Zm.73 2.4c-.21 1.82-2.05-.18-1.88-1.19.21-1.82 2.05.18 1.88 1.19Zm.51-.88c-.32.21-.83-.77-.5-.95s.83.76.5.91Zm.28 1.38c0 .4-.45 0-.41-.27.04-.39.45.04.41.27Z"/><path class="cls-7" d="M315.12 195.89c.44-2.66-4.39-7.93-5-3.13-.39 2.66 4.44 7.92 5 3.13Zm-1.53.23c.33-.21.83.77.5 1s-.83-.81-.5-1Zm-1.16 0c.05-.4.46 0 .42.26-.05.4-.45-.03-.42-.26Zm-1.24-1.51c.32-.22.83.76.5.95s-.83-.76-.5-.95Zm-.08-1.51c.2.07.35.68 0 .52-.19-.07-.34-.62 0-.52Zm.58-.58c-.33.22-.83-.76-.5-1s.81.81.5 1Zm1.16 0c-.05.41-.45 0-.42-.26.05-.4.45.04.42.26Zm.73 2.4c-.21 1.82-2.05-.18-1.88-1.19.21-1.82 2.05.18 1.88 1.19Zm.51-.88c-.32.21-.83-.77-.5-.95s.83.76.5.91Zm.28 1.38c0 .4-.45 0-.41-.27.04-.39.45.04.41.27Z"/><path class="cls-15" d="M318.39 198c1-6.16-10.18-18.35-11.5-7.25-1 6.11 10.18 18.3 11.5 7.25Zm-2.1 1.34c.46-.56 1.46 1.13 1.11 1.5-.46.51-1.46-1.18-1.11-1.55Zm-3.65 0c-3.68-1.46-6.5-12.93 0-10 3.68 1.44 6.5 12.92 0 9.98Zm2.11 1c.49-.15 1.31 1.65.64 1.79-.49.08-1.31-1.72-.64-1.86Zm-2.65-.15c.31-1.86 1.94 1.56.55 1.14a1.48 1.48 0 0 1-.55-1.21Zm-2.35-2.65c.53-.68 1.34.82.94 1.27-.53.61-1.34-.88-.94-1.34Zm-1.58-3.5c.57-.14 1.33 1.38.54 1.54-.57.07-1.33-1.45-.54-1.58Zm-.39-3.4a1.45 1.45 0 0 1 .64 1.09c-.36 1.46-2.26-1.79-.64-1.16Zm1.2-1.22c-.46.57-1.45-1.12-1.1-1.49.46-.64 1.46 1.07 1.12 1.42Zm1.55-1c-.49.15-1.31-1.65-.64-1.79.48-.2 1.31 1.6.64 1.74Zm2.65.16c-.31 1.85-1.94-1.57-.54-1.14a1.45 1.45 0 0 1 .54 1.09Zm2.35 2.65c-.53.68-1.34-.82-.94-1.28.53-.73 1.34.77.94 1.23Zm1.58 3.49c-.57.15-1.33-1.38-.54-1.53.58-.19 1.34 1.33.54 1.48Zm1 3.12c-.15 1-1.38-.24-1.27-.81.16-1.09 1.4.19 1.29.76Z"/><path class="cls-12" d="m257.64 142.56 12.87 24.38-6.7 4.23-12.87-24.38 6.7-4.23z"/><path class="cls-12" d="M254.71 149.18c0 6.36 4.08 14.08 9.11 17.25 15 6.77 8.47-19.66 0-23-5.04-3.18-9.11-.6-9.11 5.75Z"/><path class="cls-12" d="M262 162.2a12.05 12.05 0 0 0-4.87-9.24c-8-3.64-4.54 10.52 0 12.32 2.73 1.72 4.87.32 4.87-3.08Z"/><path class="cls-12" d="M266.27 164.86c1.58-9.76-16.11-29.05-18.2-11.48-1.58 9.76 16.11 29.05 18.2 11.48Zm-3.5-2.21c-1.28 10.82-12.18-1.06-11.2-7.07 1.29-10.81 12.17 1.06 11.2 7.07Z"/><path class="cls-13" d="M263.62 163.18c0-4.5-2.89-10-6.46-12.21s-6.44-.41-6.44 4.08c-1.11 6.95 11.41 20.58 12.9 8.13Zm-.7-.44c-1.32 11.1-12.5-1.09-11.5-7.25 1.32-11.09 12.5 1.09 11.5 7.25Z"/><path class="cls-14" d="M261.12 161.61c.69-4.23-7-12.61-7.9-5-.69 4.25 6.99 12.63 7.9 5Zm-1.47-.93c-.56 4.8-5.39-.47-5-3.13.61-4.79 5.44.45 5 3.13Z"/><path class="cls-15" d="M259.65 160.68c.44-2.66-4.39-7.92-5-3.13-.39 2.66 4.44 7.93 5 3.13Zm-1.53.24c.33-.22.83.76.5 1s-.83-.81-.5-1Zm-1.16 0c.05-.4.46 0 .42.26-.05.4-.45-.04-.38-.26Zm-1.24-1.52c.32-.21.83.77.5 1s-.83-.81-.5-1Zm-.08-1.51c.2.08.35.68 0 .53-.19-.08-.34-.68 0-.53Zm.58-.57c-.33.21-.83-.76-.5-.95s.83.76.5.95Zm1.16 0c-.05.4-.45 0-.42-.26.04-.4.45.04.42.26Zm.73 2.39c-.53 2.71-3.35-2.63-.94-1.78a2.31 2.31 0 0 1 .94 1.78Zm.51-.88c-.32.22-.83-.76-.5-1s.88.82.5 1Zm.28 1.38c0 .4-.45 0-.41-.26.05-.4.45.05.41.26Z"/><path class="cls-7" d="M259.65 160.68c.44-2.66-4.39-7.92-5-3.13-.39 2.66 4.44 7.93 5 3.13Zm-1.53.24c.33-.22.83.76.5 1s-.83-.81-.5-1Zm-1.16 0c.05-.4.46 0 .42.26-.05.4-.45-.04-.38-.26Zm-1.24-1.52c.32-.21.83.77.5 1s-.83-.81-.5-1Zm-.08-1.51c.2.08.35.68 0 .53-.19-.08-.34-.68 0-.53Zm.58-.57c-.33.21-.83-.76-.5-.95s.83.76.5.95Zm1.16 0c-.05.4-.45 0-.42-.26.04-.4.45.04.42.26Zm.73 2.39c-.53 2.71-3.35-2.63-.94-1.78a2.31 2.31 0 0 1 .94 1.78Zm.51-.88c-.32.22-.83-.76-.5-1s.88.82.5 1Zm.28 1.38c0 .4-.45 0-.41-.26.05-.4.45.05.41.26Z"/><path class="cls-15" d="M262.92 162.74c1-6.16-10.18-18.34-11.5-7.25-1 6.16 10.18 18.35 11.5 7.25Zm-2.1 1.35c.46-.56 1.46 1.12 1.11 1.49-.46.57-1.46-1.12-1.11-1.49Zm-3.65 0c-3.68-1.45-6.5-12.93 0-10 3.68 1.49 6.5 12.96 0 10.02Zm2.11 1c.49-.15 1.31 1.64.64 1.79-.49.12-1.31-1.67-.64-1.81Zm-2.65-.16c.31-1.85 1.94 1.57.55 1.15a1.5 1.5 0 0 1-.55-1.17Zm-2.35-2.65c.53-.67 1.34.82.94 1.28-.53.66-1.34-.84-.94-1.3Zm-1.58-3.49c.57-.15 1.33 1.38.54 1.53-.57.13-1.33-1.4-.54-1.55Zm-.38-3.4a1.45 1.45 0 0 1 .63 1.09c-.36 1.52-2.26-1.74-.63-1.11Zm1.19-1.22c-.46.56-1.45-1.13-1.1-1.5.46-.58 1.46 1.11 1.1 1.48Zm1.55-1c-.49.15-1.31-1.65-.64-1.79.49-.15 1.31 1.62.64 1.79Zm2.65.16c-.31 1.85-1.94-1.58-.54-1.15a1.47 1.47 0 0 1 .54 1.15Zm2.35 2.65c-.53.67-1.34-.83-.94-1.29.53-.69 1.34.83.94 1.31Zm1.58 3.49c-.57.14-1.33-1.38-.54-1.54.58-.14 1.34 1.38.54 1.54Zm1 3.11c-.15 1-1.38-.23-1.27-.8.17-1.04 1.4.22 1.29.8Z"/><path class="cls-16" d="M339.56 140.65c.12.23-3 3.68-3.14 3.91l-.82-1.29 3.44-3.35a1 1 0 0 1 .52.73Z"/><path class="cls-17" d="M339.56 136v4.7c.12.23-3 3.68-3.14 3.91v-5.74Z"/><path class="cls-18" d="M336.42 139.92c.23-.76 4.38-3.89 2.62-4.63l-3.44 3.35Z"/><path class="cls-11" d="M363.42 174.75c-1.13 7.9-1.12 8.48-7.84 4.15.05-5.68-1.5-12.69-6.35-15.63-7-4.63-12.38-8.86-12.25 3.89-10-6.3-26.51-16.75-36.45-23 0-5.68-1.51-12.7-6.36-15.64-7-4.63-12.38-8.86-12.24 3.89-1.51-.58-6.29-6.23-8.34-9.25-1.56-2.72-.93-6.06-.6-9.27-1.36-.63-.6-2.54-.38-3.62.42-.66.4-5.61 1.93-4-.56-.57 5.94-9.39 6.13-9.85 1.35-1.86 3.42-1.86 5.73-.44 12.66 7.85 30.56 15.88 41.1 28.1.37.41 9.92 17.4 10.08 16.89 2.48 3.1 23.59 20.23 23.72 24.63.23 1.22 2.28 8.01 2.12 9.15Z"/><path class="cls-11" d="m328.38 196.89 35-22.14c-.38 1.82-.53 4.67-1.33 6.33-6.6 8.14-20 14.82-35.51 22.54Z"/><path class="cls-17" d="M302.54 163.11c15.36-6.91 28.12-14.15 35-22.14 2.75 3.37 23.43 20 23.72 24.64.22 1.2 2.29 8 2.12 9.14-7.6 8.69-20.1 15.81-35 22.14Z"/><path class="cls-18" d="M337.58 141c-7.9 12.15-21 18.87-35 22.14-3.75-4.54-9.44-18.38-14.3-21.7a343.86 343.86 0 0 0-36.89-23.3c-1.7-1.07-3.31-1.28-4.53-.64 3.61-2.26 32.36-20.29 34.55-21.81 1.31-1 3.08-.9 5 .32 12.66 7.85 30.56 15.88 41.1 28.1.34.35 9.92 17.39 10.07 16.89Z"/><path class="cls-19" d="M336.06 141c-7.62 11.14-19.88 17.46-33.1 20.64-1.82-2.76-8.29-14.21-10.1-17.17 12.48-3.95 26.81-12 33.15-20.58 1.89 3.16 8.15 14.25 10.05 17.11Z"/><path class="cls-20" d="M334.84 140.69c-.87-1.51-7.86-13.49-8.92-15.3-3.51 4.38-8.81 8.44-14.66 11.85a43.25 43.25 0 0 1 20.68 7.69 41.61 41.61 0 0 0 3.13-3.89c-.07-.11-.15-.23-.23-.35Z"/><path class="cls-21" d="M328.38 196.88c-1.13 7.89-1.11 8.5-7.84 4.16 0-5.68-1.51-12.7-6.36-15.63-7-4.63-12.38-8.86-12.24 3.88l-36.46-23c0-5.68-1.5-12.69-6.35-15.63-7-4.63-12.39-8.87-12.25 3.89-1.26-.29-5.39-5.63-6.3-6.58-3.76-3.81-3.2-9.84-2.07-14.72.14-.73 1.08-5.23 1.2-5.87.47-.76 6.26-9.64 6.84-9.71 8.63-1.06 32.26 18 41.69 23.77 4.88 3.28 10.56 17.21 14.3 21.7l20.87 19.71c3 2.59 4.27 10.06 4.97 14.03Z"/><path d="M299.21 159.85c-1.46-2.17-7.81-14.22-9.62-15.69a62.56 62.56 0 0 0-9 27.92l18.61 11.75c.78.49 1.42.09 1.42-.9-.41-3.85 1.19-19.93-1.41-23.08Z" style="fill:#617877"/><path d="M288.1 142.87c-1.86-.69-9.52-8.31-10.57-6.16v31.63c-.06 1.87 1.75 3 3.07 3.74a62.56 62.56 0 0 1 9-27.92c-.41-.37-.88-.78-1.5-1.29Z" style="fill:#526665"/><path class="cls-11" d="M321 201.34c6.61 4.39 6.26 2.54 7.36-4.46-5.67-4.38-6.04-.88-7.36 4.46ZM237.56 141.2c-.83 4 7 11.06 7.93 12.43-.35-7.19-.9-13.06-7.76-16.18-.02.55-.17 3.75-.17 3.75ZM237.86 136.41c.43.34 1.12.56 1.25-.15 0-1.59 2.55-7.21.47-8.27Z"/><path class="cls-24" d="m237.56 132.38 1.65 1.46c-.28.61-.19 3.32-1.41 2.06-1.19-.69-.41-2.51-.24-3.52Z"/><path class="cls-25" d="M238.43 128.4c.12-.64.77-.21 1.1 0 1.37.66-.32 4.41-.32 5.42l-1.65-1.46Z"/><path class="cls-17" d="M262 125.65c4.25 3.32 12.3 5.87 14.53 10.55-.66.48 1.42 34.42-1 32.67l-8-5.05a2.3 2.3 0 0 1-.93-1.75c-.37-5.1-3.6-10.86-7.47-13.31-4.74-1.72-3.94-8.51-3.91-12.66 0 0 3.33-12.43 6.78-10.45Z"/><path class="cls-19" d="m251.38 131.53-7.21-4.76c-1.63-2 2.21-4.69 2.92-6.45 1.33-1.76 2.45-1.73 8.14 1.87a1.31 1.31 0 0 1 .53 1.38c-1.35 1.91-2.56 6.78-4.38 7.96Z"/><path class="cls-20" d="M254.84 122.94c-2.48-1.56-4.39-2.66-5.55-2.86a28.67 28.67 0 0 1 .48 9.38l1.67 1.1c.77-2.38 3.24-5.35 3.4-7.62Z"/><path class="cls-19" d="M257.49 135.54 275 147.1c.3.2.55.05.55-.33-.25-.84.62-11.55-.58-11.68-4.55-2.67-8.81-6.3-13.56-8.26-.41-.43-5.54 6.17-3.92 8.71Z"/><path class="cls-20" d="M274.77 136.25v-.29c-3-2.05-6.24-4-9.29-6a43.56 43.56 0 0 1 4.42 12.74l4.89 3.22Z"/><path class="cls-11" d="M240.08 147.34c1.22 1.29 5.16 6.54 6.8 7.18l.18-2.77Z"/><path class="cls-6" d="M257.66 138.87c.13-.07 3.79 2.92 3.67 2.1.52-1.68-2.81-2.77-3.66-3.6-.49-.26-.33 1.4-.01 1.5Z"/><path class="cls-11" d="m265.26 163.25.22 3.01 36.46 23.03.18-2.76-36.86-23.28zM320.32 198l.22 3c1.71.79 5.73 4.62 6.85 1.45Z"/><g style="opacity:.2"><path class="cls-5" d="M327.94 139.34c-5-9.92-14.69 13.59-4 9.3 2.67-1.73 4.78-5.93 4-9.3Zm-4.72 7.91c-5.67 2.23-1.31-9.05 2.06-8.65 3.36 1.4.06 7.4-2.06 8.65Z"/><path class="cls-16" d="M336.06 141c-7.62 11.14-19.88 17.46-33.1 20.64-.42-.49-1.5-2.46-1.85-3 9.4-7 17-12.4 25.42-18.88 2.56-.67 5.2-.66 7.48-2.12.39.66 1.6 2.85 2.05 3.36Z"/></g><path class="cls-21" d="M256.64 112.38c-2.3 1.68 40.7 25.84 40.72 26.86a1.86 1.86 0 0 0 1.8 0c2.29-1.68-40.71-25.84-40.72-26.86a1.86 1.86 0 0 0-1.8 0ZM278.29 98.68C276 100.35 319 124.59 319 125.61a1.86 1.86 0 0 0 1.8 0c2.3-1.67-40.67-25.91-40.68-26.93a1.86 1.86 0 0 0-1.8 0Z"/><path class="cls-27" d="M353.44 170.34c-21.89 19.48-22.17 9.39-41.32-5.29L338.86 148l14.39 18.33a2.51 2.51 0 0 1 .19 4.01Z"/><path class="cls-17" d="M353.09 169c-21.59 19.38-22.28 8.93-41.81-4.61l27.38-17.54 14.24 18.17a2.49 2.49 0 0 1 .19 3.98Z"/><path class="cls-28" d="M276.17 152.34c-1.21.32-34-25.49-34.23-20.73-.52 1.24-.82 3.51.9 3.77 6.45.92 19 9.11 33.33 18.47ZM270.38 103.7c2.94-1 12.16-9.23 15.45-6.78l18.37 9.8c-12.56-6.41-24.2-8.97-33.82-3.02Z"/><path class="cls-29" d="M338.57 190.94c-1.66.58-8.25 5.64-9.8 3.4-.22-1.22-1.58-3.83-.15-4.71a51.43 51.43 0 0 0 8.44-4.06c1.51-1.24 2.94 4.93 1.51 5.37ZM362.36 174.67a30.78 30.78 0 0 1-5.1 4.66c-1.28 1.34-1.39-2.3-1.7-2.9-.14-3.27 4-4.14 5.58-6.78 1.37-1.56 2.26 4.51 1.22 5.02Z"/><path class="cls-28" d="M337.58 142.81a30.24 30.24 0 0 1-4.66 5.68c6.05-1.85 15.32 4.13 20.18 8.69Z"/><path class="cls-21" d="M354.69 181.71c-3.43 2-8.55 7.17-13 7-.15-.22-1.19-4.64-1.29-4.87 3.14-3.52 9.32-5 12.68-8.3a.52.52 0 0 1 .71.36c-.04.94 2.03 5.17.9 5.81Z"/><path class="cls-11" d="M354 181.28a66.47 66.47 0 0 1-12.29 7.47c-.14-.22-1.19-4.64-1.29-4.87 3.14-3.52 9.32-5 12.68-8.3-.02.89 1.96 5.07.9 5.7Z"/><path class="cls-17" d="M299 161c-.08 0-8.7-8.18-8.76-8.22-.4-1.84-16.56-3.73-16.28-1.22.75.9-1.81 35.26 1.64 33.42H299a1.72 1.72 0 0 0 1.64-1.79C300 180 302.17 163 299 161Zm-19 5.7a.33.33 0 0 1-.32.34c-.24-.16-4.38.22-4.22-.46.05-.29-.18-1.2.32-1.17l3.92.11c.44 0 .22.89.3 1.18Zm18.63-2.49-22.81-.55a.76.76 0 0 1-.7-.79c.28-.35-.62-11.65.52-11.21 4.55.63 10.51-.61 13.89 2.09.29.95 12.11 9.6 9.07 10.46Z"/><path class="cls-6" d="m279.67 165.52-3.92-.11c-.49 0-.48 1.49 0 1.51.26-.15 4.39.51 4.24-.22-.07-.29.15-1.18-.32-1.18Z"/><path d="M299.17 163.29c.06-.87-9.05-8.8-9.67-9.54-3.39-2.7-9.34-1.46-13.89-2.09-1.14-.48-.25 10.91-.52 11.21a.76.76 0 0 0 .7.79l22.81.55a.65.65 0 0 0 .57-.92Z" style="fill:#8fd1cf;opacity:.5"/><path class="cls-20" d="M289 154.38c-.57-1-3.26-1.33-4.92-1.39a17.47 17.47 0 0 1 4.35 10.11l9.91.24c.55.22-9.34-8.92-9.34-8.96Z"/><path class="cls-21" d="M300.27 167.92c-3.44 5.26-2.07-1.1-2.33-3.2l2.33-1.78Z"/><path class="cls-18" d="M300.27 162.94c-.47.43-1.49 2.85-2.33 1.78l1.28-1.89Z"/><path class="cls-31" d="M274.49 154.46c-.15.57-1 1.12-1.31 1.62-.51-.68 1.08-2.63 1.71-2.88-.13.42-.27.8-.4 1.26Z"/><path class="cls-31" d="M273.26 155.73c-.37 2.28 4 1.21 3.53-.29.22-.08.52-.53.17-.62.32-.13.31-.69-.1-.52.48-1.11-1.17.12-1.55.22-.84 0-1.8.18-2.05 1.21ZM256.21 165.85c1.52-.15 1.46 1.54 1.33 2.66.29.44.38 1.67-.34 1-.48-.94-.31-1-.87-1.57a9.19 9.19 0 0 1-.12-2.09Z"/><path class="cls-31" d="M254.8 169.54c-.19.43-.11.87.19.89-.07.29.22.73.53.5 1.7.36 1.87-4 1-5.08-1.55-.27-1.46 1.82-1.86 2.89-.27.61 0 .92.14.8Z"/><path class="cls-31" d="M256.21 165.85c1.52-.15 1.46 1.54 1.33 2.66.29.44.38 1.67-.34 1-.48-.94-.31-1-.87-1.57a9.19 9.19 0 0 1-.12-2.09Z"/><path class="cls-31" d="M254.8 169.54c-.19.43-.11.87.19.89-.07.29.22.73.53.5 1.7.36 1.87-4 1-5.08-1.55-.27-1.46 1.82-1.86 2.89-.27.61 0 .92.14.8Z"/><path class="cls-32" d="M255.54 166.17c2.78 1.82 2-1.42 2.83-5.51-.09-2 1.33-3.93-.48-4.38-1-.28-2.23-.33-2.32.44-.16 8.88-.07 8.28-.03 9.45Z"/><path class="cls-32" d="M261.19 148.12c-3.07-1-4.47 6.7-5.6 8.5.21 1.24 2.56 1.26 3.1 1.17 1.31-3.79 5.31-7.56 2.5-9.67Z"/><path class="cls-12" d="M268.64 197.74a.75.75 0 0 1 0 1.37c-1.3.61-4 3.29-5.53 2.13a.76.76 0 0 1 0-1.37c1.48-.72 3.95-3.26 5.53-2.13Z"/><path class="cls-12" d="m262.66 196.28 3.21.8c1.92-.55 3.22.11 3.22 1.31l-6.43 2.12ZM255.79 196.12l.29-4 2.93.6c1.92-.56 3.21.11 3.21 1.31.16.76-3.44 2.44-3.82 2.85-.74.46-2.55.38-2.61-.76Z"/><path class="cls-33" d="M257.38 165.62c0 .28.46 13.75.49 14.59l4.59.06c.05-4.27.12-9.3.17-13.55Z"/><path class="cls-33" d="M255.62 193.57a115.33 115.33 0 0 1 2.84-15.89c2-1.67 3.82.12 4 2.47.11 1-2.34 13.75-2.34 13.75-.4 2.1-4.79 1.9-4.5-.33Z"/><path d="M260 172.47c1.46 2 2 4.85 2.47 7.68l.08-6.68a3.8 3.8 0 0 1-2.55-1Z" style="opacity:.2;fill:#1d1d1b"/><path class="cls-33" d="M261.38 166.46c.25 4.82 1.56 12 2.17 16.81l4.66-.45-1.5-14.14-.09-.91c-.91-.23-4.38-1.18-5.24-1.31Z"/><path class="cls-33" d="M263.54 183.27a2.36 2.36 0 0 1 4.68-.32c.19 1-.75 12.91-1 14.65s-5 3.05-4.84.31a103.38 103.38 0 0 1 1.16-14.64Z"/><path class="cls-25" d="M268.45 153.75c-1.38 5.08 1.05 15.77-5.44 16.43-9.3.94-5.13-11.42-5.42-16.67-.01-9.3 8.8-5.01 10.86.24Z"/><path class="cls-31" d="M263.27 144.28c-.51 2.15.55 5.47 3.09 4.59 1.37-1.81 3.22-7 .46-8.23-2.41-.64-3.49.87-3.55 3.64Z"/><path class="cls-35" d="M265.29 147.52c-.69 1.69 1 2 1.67.62-.74.56-1.06-.09-.93-2-.24.86-.6.47-.74 1.38Z"/><path class="cls-31" d="m262.42 143.81 3.84.67-.79 5.45-3.85-.67.8-5.45z"/><path class="cls-31" d="M262.33 148.35c-3.12 2.21 5.06 3.63 2.72.47a2.8 2.8 0 0 0-2.72-.47Z"/><path class="cls-12" d="M267.32 143.35c-2.65 1.52.42 7.18-5.58 3.6-2.88-12.17 10.58-6.17 5.58-3.6Z"/><path class="cls-31" d="M266.1 144.46c.73.37.36 2-.19 2.41-.75-.11-.58-2.41.19-2.41Z"/><path class="cls-32" d="M261.24 148.86c-.44 2.35 3.44 2.89 4.55 1.37-.09-.3-.16-.6-.22-.9-1.12.4-3.95.65-3.77-1.25a1.84 1.84 0 0 0-.56.78Z"/><path class="cls-35" d="M268.17 156.44c-1.15 5.27.85 13-5.16 13.74 3.18-3.26 2.65-8.81 1.87-15.09l3.25-.05Z"/><path class="cls-36" d="M269.4 161.11c0-.17-.71-6.48-.74-6.64a1.92 1.92 0 1 0-3.78.62c.66 1.5.36 8.27 2.64 8.15a2 2 0 0 0 1.88-2.13Z"/><path class="cls-36" d="m273 155.44-6 4.65c-1.91 1.65.5 5 2.41 3.21.59-1.1 7.65-7.38 3.59-7.86Z"/><g id="_5" data-name="5"><g id="_15" data-name="15"><g id="_4" data-name="4"><path class="cls-37" d="M598 235.75c-.44-.74-2.89 1.46-3.34 1.56-.66.35-.84 2.7-.1 3a.5.5 0 0 1-.07-.08c.23.5 2.86-1.62 3.13-1.65.69-.47.67-2.2.38-2.83Z"/><path class="cls-38" d="M596.61 238.16c-1.19-.6 0 .89-.29 2.15 0 .84-1.32 1.18-1.34 2 .18.38.44.32.49.3 1.53-.61 1.79-3.79 1.14-4.45Z"/><g class="cls-1"><path class="cls-39" d="M513.23 236c-5 2-6.57 3.27-5.06 8.2l8-5ZM566.48 273.16c-1.79 1.1-1.58 4.09-1.57 6l29.55-18.36c0-1.95-.22-4.94 1.56-6Z"/><g class="cls-1"><path class="cls-39" d="M578.74 279c-2.41-5.59-6.67-8.69-11.49-4.28l7.8 14.35c4.4-1.97 5.84-5.07 3.69-10.07Z"/><path class="cls-40" d="M571.17 275.09c-9-4-5.23 11.49 0 13.53 3 1.88 5.52.37 5.53-3.37a13.14 13.14 0 0 0-5.53-10.16Z"/></g><path class="cls-39" d="M571.16 277c-6.47-2.9-3.75 8.24 0 9.71 6.45 2.9 3.73-8.24 0-9.71Z"/><g class="cls-1"><path class="cls-41" d="M574.63 283.91c.55-2.48-4.41-10.34-5.26-4.85-.57 2.39 4.11 8.6 5.26 4.85Z"/><path class="cls-42" d="M573.48 280.56c-2-4-4.05.57-1.23 2.18l-.13-.07c1.49 1.15 2.06-.9 1.36-2.11Z"/><path class="cls-43" d="M574.66 284.61c-3.4 2.26-7.23-6.21-4.13-7.76-7.44-.61 1.29 15.04 4.13 7.76Z"/><path class="cls-44" d="M571.24 277.11c-6.08-2.88-3.7 7.65-.19 9.12 2 1.32 3.74.34 3.79-2.18a8.9 8.9 0 0 0-3.6-6.94Zm-.19 8.85a8.4 8.4 0 0 1-3.39-6.54c.93-6.53 7.65.83 7 4.49-.08 2.38-1.66 3.29-3.61 2.09Z"/><path class="cls-43" d="M572.17 279.48a3.1 3.1 0 0 1 1.25 2.42c-.81 3.6-4.57-3.65-1.25-2.42Z"/></g><g class="cls-1"><path class="cls-39" d="M522.32 244.13c-2.41-5.59-6.67-8.69-11.5-4.28l7.81 14.35c4.37-1.93 5.84-5.06 3.69-10.07Z"/><path class="cls-40" d="M514.75 240.26c-9-4-5.23 11.49 0 13.53 3 1.88 5.52.37 5.53-3.37a13.14 13.14 0 0 0-5.53-10.16Z"/></g><path class="cls-39" d="M514.74 242.17c-6.47-2.9-3.75 8.24 0 9.71 6.45 2.9 3.73-8.24 0-9.71Z"/><g class="cls-1"><path class="cls-41" d="M518.2 249.08c.56-2.48-4.41-10.34-5.25-4.85-.57 2.39 4.1 8.6 5.25 4.85Z"/><path class="cls-42" d="M517.05 245.73c-2-4-4 .57-1.22 2.18l-.13-.07c1.49 1.16 2.06-.9 1.35-2.11Z"/><path class="cls-43" d="M518.24 249.78c-3.4 2.26-7.23-6.21-4.14-7.76-7.44-.61 1.3 15.04 4.14 7.76Z"/><path class="cls-44" d="M514.81 242.28c-6.07-2.88-3.69 7.65-.18 9.12 2 1.32 3.74.34 3.79-2.18a8.88 8.88 0 0 0-3.61-6.94Zm-.18 8.85a8.4 8.4 0 0 1-3.39-6.54c.92-6.53 7.65.83 7 4.49-.08 2.38-1.68 3.29-3.61 2.05Z"/><path class="cls-43" d="M515.74 244.65c1.22.51 2 4.18-.06 3.18-1.22-.51-2.05-4.18.06-3.18Z"/></g><g class="cls-1"><path class="cls-45" d="M533.89 188.18a1.19 1.19 0 0 0-1.27-.14l-27.73 17.2c1.31-1 51.74 31.91 53 32l27.73-17.2Z"/><path d="M596.63 242.7c-.4-.41-10.54-23.55-11.06-22.62l-27.73 17.2c.21.13 9.24 23.77 9.24 23.77 11.38-5.4 21.43-11.42 29.55-18.35Zm-14.89-8.35c2.27-1.51 4.46-3 6.55-4.6l5.71 12.18Z" style="fill:#f2f2ee"/><path d="m579 271.08-11.87-10c-.4-.62-8.33-24.5-9.24-23.77l-51.68-31.9c-4.15-2.36-2.69 29.12-2.27 36.15l4.28 2.64c-.62-14.95 15.1-.12 12.67 7.82l44.07 27.21c-.68-15 15.13.14 12.66 7.81l3.07 1.9c-.54-3.04 1.43-15.94-1.69-17.86Z" style="fill:#c2c1b7"/><path class="cls-48" d="m586.18 220.63-27.73 17.2a3.26 3.26 0 0 1 .52.89l27.73-17.21a3.2 3.2 0 0 0-.52-.88Z"/></g><path class="cls-49" d="M558.45 241.63c-1.9-5.49-9.77-6.94-14.11-10.44-12.5-7.59-26.19-16-38.34-24.09h.06l-.86 1.1.8-1.2c12.66 7.15 26.32 15.68 38.73 23.45 4.27 3.74 12 5.3 13.72 11.18Z"/><path d="M508.17 244.17c-.62-14.95 15.1-.12 12.67 7.82l44.07 27.21c-.07-2.16-.15-5.83 2.31-6.33-25.35-9.36-42.26-33.63-63.88-48.61a161.73 161.73 0 0 0 .55 17.27Z" style="fill:#a32b1d"/><path class="cls-51" d="m595.08 242.76-6.69-13.09-.1.08 5.71 12.18-12.28-7.58a213.48 213.48 0 0 1-18.65 11l5 14.16c10.23-4.51 20.37-10.8 27.01-16.75Z"/><path class="cls-37" d="m580.68 274.7 29.54-18.36-.04 14.21-29.54 18.36.04-14.21z"/><path class="cls-45" d="M567.08 261.05c11.16-5.7 21.23-11.75 29.55-18.35l11.87 10-29.5 18.38Z"/><path d="M609.86 254.65a5.24 5.24 0 0 0-1.36-1.93L579 271.08a5.18 5.18 0 0 1 1.73 3.62l29.54-18.36a4.63 4.63 0 0 0-.41-1.69Z" style="fill:url(#Безымянный_градиент_18)"/><path class="cls-48" d="m609 253.28-29.55 18.35a5.2 5.2 0 0 1 .82 1.38l29.55-18.36a5.72 5.72 0 0 0-.82-1.37Z"/></g><path class="cls-53" d="M588.39 229.67a195.07 195.07 0 0 1-25.3 15.72l5 14.16c10.24-4.58 20.38-10.84 27-16.79Z"/><path class="cls-54" d="M560.24 247.18c-.36-2.27-8.87-6.14-10.35-7.39-1.35-.3-1 8.27-.62 10.67l14.73 9.11c1.16.51-4-12.29-3.76-12.39Z"/><path class="cls-55" d="M612 266.65c.09-.71-1.44-1.53-1.81-1.95v2l-29.52 18.2-3.32-2.07-.57.36V287c1.05.36 3.47 2.94 4.65 2l29.85-18.68c1.14-.57.66-2.67.72-3.67Z"/><path class="cls-56" d="M603.75 268.6v-7.53l-16.49 10.18c.32.46-.81 8.78.83 7.77.15-.36 16.91-9.7 15.66-10.42Z"/><path class="cls-57" d="m603.78 266.46-16.42 10.14v-.4l16.42-10.14Zm0 1.8-16.42 10.14v.39l16.42-10.13Zm0-1.1-16.42 10.14v.4l16.42-10.14Zm0-2.19-16.42 10.13v.4l16.42-10.14Zm0-3.3-16.42 10.14v.4l16.42-10.14Zm0 2.2L587.36 274v.39l16.42-10.13Zm0-1.1-16.42 10.14v.4l16.42-10.14Z"/><path class="cls-55" d="m609.88 262.06-6.02 3.71v-4.84l6.02-3.71v4.84z"/><path class="cls-58" d="m608.78 261.57.83-.52v.76l-.83.52Z"/><path class="cls-59" d="m608.78 258.32.83-.51v2.85l-.83.51Z"/><path class="cls-60" d="m604.32 261.08 4.46-2.76V260l-4.46 2.75Zm0 4 4.46-2.75v-1.8l-4.46 2.75Z"/><g class="cls-1"><path class="cls-61" d="m610.22 262.22-.35-.22v-4.45l.35.21v4.46z"/><path class="cls-62" d="m604.39 265.82-.35-.22 5.83-3.6.35.22-5.83 3.6z"/><path class="cls-61" d="m604.04 266.47-.34-.22-.01-5.31.35.21v5.32z"/><path class="cls-62" d="m604.04 261.15-.35-.21 6.53-4.04.35.22-6.53 4.03z"/><path class="cls-63" d="m604 261.15 6.53-4v5.31l-6.53 4Zm6.18 1.07v-4.46l-5.82 3.6v4.46Z"/></g><g class="cls-1"><path class="cls-61" d="m603.73 269.22-.32-.2-.02-7.5.32.21.02 7.49z"/><path class="cls-62" d="M603.41 269a.68.68 0 0 1-.27.59c-.23 0-15.11 9.62-15.36 9.32.14.05.39.33.55.22l15.13-9.34a.68.68 0 0 0 .27-.59Z"/><g class="cls-1"><g class="cls-1"><path class="cls-61" d="M587.86 279.55c-.29-.17-.62-.33-.61-.77l.33.2a.66.66 0 0 0 .28.57Z"/></g></g><path class="cls-61" d="m587.58 278.98-.33-.2-.02-7.69.33.2.02 7.69z"/><path class="cls-62" d="m587.56 271.29-.33-.2 16.48-10.17.33.2-16.48 10.17z"/><path class="cls-63" d="M587.56 271.29 604 261.12c-.27 1 .64 8.67-.58 9.08l-15.13 9.34c-1.48.96-.43-7.85-.73-8.25Zm16.17-2.07v-7.5l-15.82 9.77c.18.19-.45 8.25.44 7.66l15.13-9.34a.68.68 0 0 0 .27-.59Z"/></g><path class="cls-55" d="m586.9 276.23-6.01 3.72v-4.84l6.01-3.72v4.84z"/><path class="cls-58" d="m581.27 278.54.83-.52v.76l-.83.52Z"/><path class="cls-59" d="m581.27 275.29.83-.51v2.85l-.83.51Z"/><path class="cls-60" d="m582.1 274.78 4.46-2.75v1.67l-4.46 2.75Zm0 4 4.46-2.75v-1.8L582.1 277Z"/><g class="cls-1"><path class="cls-61" d="m587.23 276.4-.35-.22v-4.45l.35.21v4.46z"/><path class="cls-62" d="m581.4 280-.35-.22 5.83-3.6.35.22-5.83 3.6z"/><path class="cls-61" d="m581.05 280.64-.34-.21-.01-5.32.35.22v5.31z"/><path class="cls-62" d="m581.05 275.33-.35-.22 6.54-4.03.34.22-6.53 4.03z"/><path class="cls-63" d="m581.05 275.33 6.53-4v5.31l-6.53 4Zm6.18 1.07v-4.46l-5.83 3.6V280Z"/></g><path class="cls-55" d="m506.11 236.68-2.66-1.68-.08-3.22c-4 1.88-2.73 3.47-2.89 7.3-.26 1.28 4.65 3.35 5.28 4l.37-.21Z"/><path class="cls-64" d="m576.46 276.82-1-.64c-.53-.22-.9-1.59 0-1.17l1 .63c.54.22.9 1.6 0 1.18ZM507 233.94l-1-.64c-.53-.22-.9-1.59 0-1.17l1 .63c.53.24.9 1.6 0 1.18Z"/><path class="cls-37" d="M563.24 257.22c-.44-.74-2.88 1.46-3.33 1.56-.67.36-.85 2.7-.11 3l-.06-.08c.23.51 2.85-1.61 3.13-1.65.7-.46.67-2.19.37-2.83Z"/><path class="cls-65" d="M566.53 260.67c-.16.74-1.7-.57-1.57-1 .15-.67 1.69.6 1.57 1Z"/><path class="cls-38" d="M565.36 260c-1.54 1.41-3.27-.48-3.34-.57-1.68 0 1.28 2 2.19 1.74.69.33 2.89-1.17 1.15-1.17Z"/></g></g><g class="cls-66"><path class="cls-67" d="M547.16 231.79c-.14.07-16.26-10.35-16.33-9.92a255.42 255.42 0 0 0-.12 35.71c.14-.08 16.29 10.39 16.38 9.94a302.24 302.24 0 0 1 .07-35.73Zm-.27 35.55-16-9.9A269.15 269.15 0 0 1 531 222l16 9.89a283 283 0 0 0-.11 35.45ZM565.94 261c-1-1.95-4.31-15.83-6.54-16.54-.26.25-11.16-7.7-11.1-6.27a207.81 207.81 0 0 0 .29 30.43c.14-.09 14.5 9.28 14.59 8.83-.09-.1-.22-5.1 2.76-6.59Zm-3 16.28-14.25-8.8c.1-.55-1.63-16.29 0-30.4 1.55 1.37 12 6.35 12.29 8.72l4.77 14.2v9.78c-2.75 1.42-2.75 5.57-2.75 6.5Z"/></g><path class="cls-68" d="m551.12 257.6-3.12-1.92v-2.4c.77.67 4 1.86 3.88 3.23.04.56.12 1.61-.76 1.09ZM543.33 252.8l3.11 1.92v-2.4c-.49 0-3.81-3.12-3.88-1.57a2.05 2.05 0 0 0 .77 2.05ZM517.88 236.66l12.39 7.64v-1.4l-12.39-7.64c-.78-.37-.49 1.21 0 1.4Z"/><g class="cls-69"><path class="cls-70" d="m544.84 247.86-12.6-7.78c-1.72-2.56-.58-8.24-.29-11.37-.74 1.74-1.36 10.25.12 11.47.78.17 12.49 8.4 13.3 7.71a.56.56 0 0 1-.53-.03Z"/><path class="cls-71" d="m545.09 236.52-12.6-7.78a.46.46 0 0 0-.62.07.51.51 0 0 1 .43.05l12.6 7.77c1.75 2.75.33 8 .36 11.28.53-1.82 1.29-10.18-.17-11.39Z"/></g><g class="cls-69"><path class="cls-70" d="m528.45 237.74-18.79-11.6c-1.72-2.56-.58-8.24-.29-11.37-.74 1.73-1.35 10.25.12 11.48l18.79 11.59a.57.57 0 0 0 .7-.07.56.56 0 0 1-.53-.03Z"/><path class="cls-71" d="m528.7 226.4-18.79-11.6a.47.47 0 0 0-.62.07c.48-.32 18.8 11.59 19.22 11.65 1.75 2.74.33 8 .36 11.27.53-1.79 1.29-10.18-.17-11.39Z"/></g><path class="cls-72" d="M560.41 229.53h-.11c1.2-1.21-41.26-25.51-41.38-26.24a1.4 1.4 0 0 0-1.2 0 1.26 1.26 0 0 1 1.37-.06c.02.77 42.91 25.03 41.32 26.3Zm-3.31 1.24-41.31-25.5a1.26 1.26 0 0 0-1.37.06 1.34 1.34 0 0 1 1.19 0c.13.73 42.59 25 41.38 26.23.42-.09.53-.56.11-.79Zm6.61-4.08-41.31-25.5a1.26 1.26 0 0 0-1.37.06 1.34 1.34 0 0 1 1.19 0c.13.74 42.59 25 41.38 26.24.4-.1.53-.57.11-.8Zm9.92-6.12-41.31-25.51a1.28 1.28 0 0 0-1.37.07 1.34 1.34 0 0 1 1.19 0c.13.74 42.59 25 41.38 26.24.42-.1.53-.57.11-.8Zm3.3-2L535.62 193a1.28 1.28 0 0 0-1.37.07 1.34 1.34 0 0 1 1.19 0c.13.74 42.59 25 41.39 26.24a.44.44 0 0 0 .1-.78Zm-9.93 6.08-41.3-25.51a1.26 1.26 0 0 0-1.36.07 1.34 1.34 0 0 1 1.19 0c.13.74 42.58 25 41.38 26.24a.44.44 0 0 0 .09-.8Zm3.3-2L529 197.1a1.28 1.28 0 0 0-1.37.07 1.34 1.34 0 0 1 1.19 0c.13.74 42.59 25 41.39 26.24a.44.44 0 0 0 .11-.8Z"/></g><g id="_1" data-name="1"><g class="cls-1"><path class="cls-73" d="M405.31 47.35c-3.13 1.17-3.3 5.58-3.08 8.93l1.11-.72c-.13-2.56-.26-7.15 1.97-8.21Z"/><path class="cls-55" d="M418.82 61.94c.2-7.33-7.95-21-15.51-15.62 8.95-3.07 15.57 11.63 14.45 19.77l1.07-.74Z"/><path d="M409.37 47c5.72 3.52 9.14 12.26 8.39 19.12l-1.34-.84c2.54-11.53-15-28.37-14.19-9l-1.32-.83c-.83-6.14 2.02-12.71 8.46-8.45Z" style="fill:#5f7254"/></g><path class="cls-75" d="m400.24 45.3-32.72 20.82c3.07 2.64 7.5 1.16 10.48 4.3-1.34 2.78 43.17 29.37 45.06 30.8l32.72-20.81Z"/><path style="fill:url(#Безымянный_градиент_2)" d="m396.86 50.52 51.57 32.59.89-.56-52.46-33.16-22.98 14.65.89.57 22.09-14.09z"/><path class="cls-55" d="m396.23 71.4 11.49-7.31c2.64-3.36 24.18 13.72 26.78 14.4-3.46 1.33-14.73 12-18.62 8.65l-19.64-12.41c-1.17-.73-1.74-2.23-.01-3.33Z"/><path class="cls-77" d="m369.4 77-1.88-1.19v-9.7l4.13 2.61c-2.36.92-2.39 5.61-2.25 8.28Zm11.92-2.18c2.07 3.51 2.42 7.32 2.26 11.14l40 25.27.9-9.14Z"/><g class="cls-1"><path class="cls-78" d="M380.28 70.14c-6.35-6.92-14.38-2.73-12 7.59Z"/><g class="cls-1"><path class="cls-78" d="M377.28 68.74c-2.18-1-4.59 1.52-6.3 2.43l8.88 16.72 3.44-2.19c3.12-5.27-2.45-13.95-6.02-16.96Z"/><path class="cls-56" d="M375.44 71.65c-10.31-4.69-5.9 13.43 0 15.76 3.46 2.19 6.27.43 6.28-3.92s-2.82-9.65-6.28-11.84Z"/></g><path class="cls-79" d="M375.43 73.88c-2.48-1.57-4.5-.31-4.51 2.81-.79 4.8 7.94 14.31 9 5.68a11.06 11.06 0 0 0-4.49-8.49Z"/><path class="cls-80" d="M375.52 74.06c-7-3.39-4.23 9.07-.22 10.77 2.36 1.55 4.32.4 4.38-2.57a10.62 10.62 0 0 0-4.16-8.2Z"/><path class="cls-43" d="M379.47 82.92c-4 2.65-8.31-7.35-4.77-9.16-8.58-.71 1.48 17.73 4.77 9.16Z"/><path class="cls-44" d="M375.52 74.06c-7-3.39-4.23 9.07-.22 10.77 2.36 1.55 4.32.4 4.38-2.57a10.62 10.62 0 0 0-4.16-8.2Zm-.21 10.46c-3.78-1.6-6.43-13.33.2-10.15 3.77 1.63 6.42 13.33-.2 10.15Z"/><path class="cls-41" d="M375.51 74.37c-1.24-1.08-2.1.33-2.14 2-.67 2.8 4.71 10.15 6.06 5.73a10 10 0 0 0-3.92-7.73Z"/><path class="cls-42" d="M378.1 78.13c-.49-1.65-3.11-3.08-3-.37l1.48 2.87c1.69 1.37 2.32-1.09 1.52-2.5Z"/><path class="cls-43" d="M376.59 76.86c-2.45-1.18-1.47 3.16-.08 3.75 2.49 1.18 1.49-3.16.08-3.75Z"/><path d="M384.88 83.38c.21-7.33-7.94-21-15.5-15.62 8.95-3.06 15.56 11.64 14.44 19.78l1.07-.74Z" style="fill:url(#Безымянный_градиент_332)"/><path class="cls-56" d="M375.44 68.42c5.72 3.52 9.14 12.26 8.38 19.12l-1.33-.85c2.54-11.53-15-28.36-14.19-9l-1.3-.8c-.85-6.13 2-12.7 8.44-8.47Z"/></g><path class="cls-55" d="M380.23 71.17a21.15 21.15 0 0 1 2.93 4.89l3.84-2.44c-3.38-7.64-9.84-13-16.56-6.53 2.91-2 7.56 1.1 9.79 4.08ZM409.25 52.82a21.22 21.22 0 0 1 2.93 4.9l4-2.52c-2.56-5.2-8.37-14.2-16.71-6.46 2.9-1.99 7.58 1.1 9.78 4.08Z"/><path class="cls-56" d="m412.18 57.72-13.26-8.38c4.32-5.29 13.65 4.93 13.26 8.38Z"/><path class="cls-82" d="M388.28 83.17c-.4-.29-1.38-.68-1.35-1.32.07-1.05 2.86 1.62 1.35 1.32Z"/><g class="cls-1"><path class="cls-77" d="M490.14 62a2.57 2.57 0 0 0-2.42 2.33c.25.83-.69 7.85.72 7.91l2.16-9.94Z"/><path class="cls-75" d="M490 62.32c1.76-1.28.56 7.09.89 7.55.22 1.09-2.49 3.55-2.68 1.69.29-2.16-1.16-8.47 1.79-9.24Z"/></g><path class="cls-56" d="M485.61 67.14a.33.33 0 0 1-.15-.6c.28 0 2.36-1.92 2.58-1.31s-2.18 1.77-2.43 1.91Z"/><path class="cls-78" d="M436.45 107c-3.13-2.73-4-2.23-7.06-.19-2.13 4.32-.84 5.53-.77 9.09l10.38-6.63a12.75 12.75 0 0 0-2.55-2.27Z"/><g class="cls-1"><path class="cls-78" d="M444.31 114.21c-2.72-6.44-7.54-10.19-13.11-5l8.91 16.79c5.07-2.31 6.63-6 4.2-11.79Z"/><path class="cls-56" d="M435.68 109.69c-10.34-4.71-5.92 13.46 0 15.8 3.46 2.19 6.29.43 6.3-3.93s-2.83-9.68-6.3-11.87Z"/></g><path class="cls-79" d="M435.67 111.92c-2.49-1.57-4.51-.31-4.52 2.82-.8 4.81 8 14.35 9 5.7a11.07 11.07 0 0 0-4.48-8.52Z"/><g class="cls-1"><path class="cls-43" d="M435.67 112.55c-6.48-3.22-4 8.34-.31 10 6.48 3.17 4-8.39.31-10Z"/><path class="cls-44" d="M438.35 116.57c-1-3.51-6.51-6.57-6.38-.86 2.08-9.18 11.12 9.24 3 6.05 3.66 2.92 5.03-2.22 3.38-5.19Z"/><path class="cls-44" d="M439 116.29c-1.11-3.84-7.3-7.75-7.44-1.33.45-5.95 6-1.93 7.07 1.5 1.62 2.94.7 8.72-3.3 6.05 4.25 3.1 5.5-2.98 3.67-6.22Z"/></g><path d="m487.53 82.07-32.72 20.81c-.07.18.14 27.88-.06 28L487.46 110c.21 0 0-27.77.07-27.93Z" style="fill:#116aa7"/><path class="cls-56" d="m487.9 77.87-8.48-5.36-1.3-2.46-9.44-5.97-35.26 2.49-5.26 5.01 1.52 14.47 14.38 12.21 13.08 5.92L486.63 90l2-11.09-.73-1.04z"/><g style="opacity:.3"><path class="cls-85" d="M475.73 76.82c-4.42.9-9.37 11.39-1.69 9.5 4.42-.9 9.38-11.39 1.69-9.5Zm-.05.83a4.12 4.12 0 0 1 .47-.13l-1.21 4.08-3-.88a8.42 8.42 0 0 1 3.74-3.07Zm3.42 2.52c-.26 5.19-11.4 9.44-7.5 1.09l3.71 1.09 1.47-4.95c1.65-.17 2.66.91 2.32 2.77Z"/><path class="cls-85" d="M485.14 77.31C473 81.77 459.65 91.23 452 99.28l1.13 2.36 6.2 4.61 28.97-19.88c.53-4.66 1.33-6.82-3.16-9.06Z"/><path d="M482.27 78.46c-.92 4-8.23 7.92-14.31 7.76 1.45-2.91 12.04-9.07 14.31-7.76Z" style="fill:#757575"/></g><path class="cls-56" d="m486.29 62.09-1.8.58 2.24 15.28 1.51.96-1.95-16.82z"/><path d="M486.08 62.18 454.75 82.1a1.84 1.84 0 0 1-1 .3 1.86 1.86 0 0 1-1-.3L436 71.54c-2.42-2-.84 11.28-1.28 11.8-.53 2 9.37 6.71 10.31 7.71.1.12 1.21 2.46 1.37 2.51l8.48 5.37c.84 2.79 32.4-19.73 33.57-19.78Z" style="fill:url(#Безымянный_градиент_350);mix-blend-mode:screen;opacity:.5"/><path style="fill:#292d2f;mix-blend-mode:screen;opacity:.5" d="m473.72 88.54 14.76-9.39-2.4-16.97-12.36 7.86v18.5z"/><path class="cls-56" d="m486.46 61.42-.91 1.13 2.37 16.86a1.71 1.71 0 0 0 .95-.9ZM454.07 81.22l-3.37-1.41L453.22 98c.78 2.32 2.66 3.71 3.44 1.61ZM439.16 71.27l-1.63-.33c.53 1.7-1.49 19.35 1.63 19.36Z"/><path class="cls-75" d="M454.52 35.59 421.8 56.4l29.54 18.68 32.72-20.82-29.54-18.67z"/><path d="m488.88 99.74-.5-.32a2.77 2.77 0 0 0 .5-.6V78.54l-.92.56-30.72 19.53c-1.66 1.66-9.15-4.91-10.67-5.36l-1.3-2.46c-11.79-7.81-10.27-3.2-10.2-18.48-.54-2.6 17.26 10.46 17.51 10.07 1.28 2.31 32.67-19.83 34-20.26.52-2.3-1.64-5.91-2.5-7.88l-32.74 20.82L421.8 56.4l-.1 36.75.54.33-.54.34v16.22l6.71 4.24c-.89-17.42 17.82-3.82 15.52 9.81 2.46.77 11.11 9 13.82 6.58l30.35-19.3c1.66-.52.48-10.4.82-11.63Z" style="fill:url(#Безымянный_градиент_3)"/><path d="M486.57 60.62v1.52c-.26.54-31.27 19.88-31.65 20.25a2.15 2.15 0 0 1-1.72.27l-1.85-7.58 32.72-20.82c.45 1.24 2.65 5.01 2.5 6.36Zm2.31 39.12-.5-.32a2.77 2.77 0 0 0 .5-.6V78.54c-1 0-32.51 22-33.52 20.22v32.32c.8 1.95 31.57-19.6 32.71-19.71 1.64-.52.49-10.4.82-11.63Z" style="opacity:.7;fill:#d84f3f"/><path class="cls-91" d="m488.88 99.74-.5-.32c-.21.33-31.37 19.8-31.65 20.06a.78.78 0 0 1-.92-.07l-10.87-10.82c-2.77-3.1-19.14-12.65-22.71-15.11l-.52.34c3.71 2.54 20.11 12.09 22.94 15.25l10.83 10.79a1.25 1.25 0 0 0 1.52.14c.62-.54 31.31-19.64 31.88-20.26Z"/><path d="M465 121.6c-1.43 0-.93-4.72.3-5.1l15.15-9.58c2.19-1.31 1.69 4.42.31 4.9l-15.15 9.58a1.19 1.19 0 0 1-.61.2Z" style="fill:url(#Безымянный_градиент_4)"/><path class="cls-93" d="m480.64 107.22-15.15 9.57c-1.26.67-.87 2.72-.93 3.89-.35 2.49 15.7-9.46 16.08-9.15 1.11-.22 1.56-5.44 0-4.31Z"/><path d="M462 114.32c-1.81.32-.57-8.35-.92-9.2-1.23-2.27 20.33-13.78 21.29-15 3-2.06 1.21 8 1.68 9a3.19 3.19 0 0 1-1.37 2.39l-19.92 12.59a1.49 1.49 0 0 1-.76.25Z" style="fill:url(#Безымянный_градиент_4-2)"/><path class="cls-93" d="M482.5 90.43c-.75 1-22.45 12.89-21.13 14.69.41.57-1.09 10.49 1.22 8.65.75-1 22.45-12.88 21.13-14.68-.41-.58 1.09-10.5-1.22-8.66Z"/><path class="cls-95" d="M488 102.56c-.61.63-5.86 3.09-5.68 4.25.14.38-.43 2.84.6 2.18l5.08-3.21Z"/><path class="cls-96" d="m488 102.56-.76.48v2.27l.76.47Z"/><path class="cls-97" d="M484.88 106.21c-.94-.31 1-2.15.66-.6-.13.33-.43.6-.66.6Zm-.67.24c.3-.93-.64-.64-.83 0-.31.93.62.63.83 0Zm2.48-2.29c-.38-.09-1.09 1.12-.48 1.21.39.09 1.1-1.12.48-1.21Zm-4 2.52a.61.61 0 0 0-.36.19v1c.37-.05.94-1.12.37-1.19Z"/><path class="cls-98" d="M488 102.56c-.61.63-5.86 3.09-5.68 4.25.14.38-.43 2.84.6 2.18l5.08-3.21Z"/><path class="cls-95" d="m463.19 118.26-5.19 3.28v3.22c.6-.63 6-3.16 5.78-4.32-.14-.38.43-2.84-.59-2.18Z"/><path class="cls-96" d="m463.19 118.26-.28.17v2.67l.41.26c.57-.19.88-3.84-.13-3.1Z"/><path class="cls-97" d="M460.66 121.53c-1-.32 1-2.16.65-.61-.13.34-.43.61-.65.61Zm-.68.23c.31-.93-.64-.63-.83 0-.31.93.64.64.85 0Zm2.49-2.29c-.39-.08-1.1 1.12-.48 1.22.38.08 1.09-1.12.48-1.22Zm-4 2.53a.59.59 0 0 0-.36.18v1c.37-.04.89-1.11.36-1.18Z"/><path class="cls-98" d="m463.19 118.26-5.19 3.28v3.22c.6-.63 6-3.16 5.78-4.32-.14-.38.43-2.84-.59-2.18Z"/><path class="cls-95" d="m487.43 109.33-4.7 3c-.57.36-.38-.61-.41-.89-.21-.75 4.75-3.29 5.11-3.68.72-.37.47 1.38 0 1.57Z"/><path class="cls-98" d="m487.43 109.33-4.7 3c-.57.36-.38-.61-.41-.89-.21-.75 4.75-3.29 5.11-3.68.72-.37.47 1.38 0 1.57Z"/><path class="cls-95" d="m463.4 124.51-4.7 3c-.57.35-.37-.61-.4-.9-.22-.74 4.74-3.28 5.1-3.67.73-.36.47 1.39 0 1.57Z"/><path class="cls-98" d="m463.4 124.51-4.7 3c-.57.35-.37-.61-.4-.9-.22-.74 4.74-3.28 5.1-3.67.73-.36.47 1.39 0 1.57Z"/><path class="cls-82" d="M455.81 121.79c-.42.12-.07 2.23-.18 2.62-.08 1 1.78.72 2.5.28v-3.25a3.82 3.82 0 0 1-2.32.35ZM488.88 104.89v-3.21a2.11 2.11 0 0 1-.86.89s0 3.24 0 3.24a2.05 2.05 0 0 0 .86-.92Z"/><g class="cls-1"><path class="cls-75" d="M445.2 121.51c.2-7.33-7.94-21-15.5-15.62 9.08-1.31 14.88 11.34 14.44 19.77l1.07-.74Z"/><path class="cls-77" d="M435.75 106.54c5.72 3.52 9.14 12.26 8.39 19.12l-1.33-.84c2.53-11.53-15-28.37-14.19-9l-1.32-.82c-.83-6.12 2.01-12.69 8.45-8.46Z"/></g><path class="cls-99" d="M432.49 81.94c-10.47-6.58-8.21-3.39-8.27-16.23-.84-.58-.2 10.23-.39 10.36a1.73 1.73 0 0 0 .75 1.29c.37 0 8.09 5.76 8.27 4.69a.7.7 0 0 1-.36-.11Z"/><path class="cls-100" d="M432.16 70.62c-.48-.21-7.39-4.86-7.94-4.92 9.72 7.73 8.38 1.73 8.33 16.26a.63.63 0 0 0 .28.08c-.09-1.14.75-10.92-.67-11.42Z"/><path class="cls-99" d="M432.49 96.46c-10.47-6.58-8.21-3.38-8.27-16.22-.84-.58-.2 10.22-.39 10.36a1.71 1.71 0 0 0 .75 1.28c.37 0 8.09 5.77 8.27 4.7a.73.73 0 0 1-.36-.12Z"/><path class="cls-100" d="M432.16 85.14c-.47-.2-7.39-4.85-7.94-4.91 9.72 7.72 8.38 1.72 8.33 16.25a.83.83 0 0 0 .28.09c-.09-1.15.75-10.93-.67-11.43Z"/><path class="cls-91" d="M438.47 73.48v30.27l-.24-.15V73.33Zm13.82 8.73-.26-.16 2.26 16.56v19.29l.24.23V98.6Z"/><path d="M472.63 100.74c-1.14.49-2 3.6 0 2.65 1.14-.49 1.98-3.59 0-2.65Zm0 2.38c-1.57.76-.91-1.72 0-2.11 1.58-.75.91 1.72 0 2.11Z" style="fill:url(#Безымянный_градиент_4-3)"/><path id="Cube_face_-_left" data-name="Cube face - left" class="cls-43" d="m422.23 111.55-7.45-4.71v-9.71l7.45 4.71v9.71z"/><path id="Cube_face_-_right" data-name="Cube face - right" class="cls-44" d="m423.14 110.97-.91.58v-9.71l.91-.57v9.7z"/><path class="cls-102" d="M421.7 100.37v-3.24l-3.46-2.19-3.46 2.19 7.45 4.71.9-.57-1.43-.9z"/><path class="cls-93" d="M421.08 109.83c-.43-.45-4.35-2.3-4.21-3.13.08-.29-.27-1.75.43-1.31l3.78 2.38c.52.16.75 2.48 0 2.06Z"/><path class="cls-82" d="M448.9 121.49c-.4-.29-1.38-.68-1.34-1.32.1-1.05 2.86 1.61 1.34 1.32Z"/><path class="cls-103" d="M456.31 66.7c-.76-.46-19.65-13.57-20.29-12.12.05-.49.83-.52 1.15-.31.16.37 19.5 11.79 19.14 12.43Zm-4.09 2.06-19-12c-.32-.22-1.1-.18-1.14.31.62-1.45 19.5 11.64 20.29 12.12a.33.33 0 0 0-.15-.43Zm7.87-5-19-12c-.32-.21-1.1-.18-1.14.31.63-1.45 19.5 11.64 20.29 12.12a.32.32 0 0 0-.15-.41ZM455.87 42a1 1 0 0 1 .95 0C457 42.24 476 53.8 476 54.25c.37-.64-19-12.06-19.14-12.43-.33-.21-1.1-.17-1.14.32a.37.37 0 0 1 .15-.14Zm16 14.35-19-12c-.32-.21-1.1-.17-1.14.32.62-1.45 19.5 11.64 20.29 12.11a.33.33 0 0 0-.11-.47Zm-7.88 5-19-12c-.32-.21-1.1-.18-1.14.32.62-1.46 19.5 11.64 20.29 12.11a.33.33 0 0 0-.14-.49ZM468 58.8l-19-12c-.32-.21-1.1-.18-1.14.32.62-1.46 19.5 11.64 20.29 12.11a.33.33 0 0 0-.15-.43Z"/><path class="cls-56" d="M450 89.64c-.29 0-.4-.45-.15-.6s2.36-1.93 2.59-1.31-2.16 1.71-2.44 1.91Z"/><g class="cls-1"><path class="cls-77" d="M450.78 86.84a2.56 2.56 0 0 0-2.41 2.33c.25.82-.7 7.84.71 7.9l2.16-9.94Z"/><path class="cls-75" d="M450.61 87.2c1.76-1.29.56 7.08.88 7.55.22 1.09-2.48 3.55-2.67 1.69.33-2.16-1.13-8.44 1.79-9.24Z"/></g><path class="cls-93" d="M440.48 91.49c.25 0 2.56 2.06 2.57 1.2.31-1-2.07-1.86-2.57-2.34-.67-.35-.41.98 0 1.14Z"/></g><g id="_4-2" data-name="4"><g class="cls-1"><path class="cls-56" d="m123.93 211.35 18.67-10.03 8.83 10.57-4.92 11.64-23.36-8.1.78-4.08z"/><path d="M143 221.35a1.08 1.08 0 0 1-.5-.14l-9.22-5-1.28.79-8.65-4.64 2.87-11.68c.53.67 18.75 9.06 17.59 10.47-.31.61.77 10.68-.78 10.24Z" style="fill:#111214;mix-blend-mode:screen;opacity:.5"/><path class="cls-56" d="m125.62 200.66-2.73 11.08 1.7 1.82 3.24-13.12-2.21.22z"/><path class="cls-75" d="m161.47 178.69-32.93 17.8 29.2 15.97 32.94-18.09-29.21-15.68z"/><path class="cls-56" d="m140.65 206.41-1.64-.28L139 221a2.6 2.6 0 0 0 1.66 1.72Z"/><path class="cls-77" d="m157.74 212.45-29.2-16c-1.81 1.25-3.36 1.35-2.92 4.17.37.54 18.95 9.29 17.88 10.45.07 14.82 1.26 9.93-10.19 4.82l-1.31.69-9.11-4.88v17.63l.68.13-.68.36c.41 1.92-1.15 9.45 1.36 10.3l33.5 18Z"/><path class="cls-105" d="m190.13 226.34.53-.29.02-31.68-32.94 18.09v45.69l32.91-17.82.01-13.71-.53-.28z"/></g><path class="cls-78" d="M140 238.05c-3-2.31-4.25-1.87-7.11-.15-2.13 3.67-.85 4.69-.77 7.77l10.5-5.67a12.4 12.4 0 0 0-2.62-1.95Z"/><g class="cls-1"><path class="cls-78" d="M146.19 243.45c-3-5.64-6.18-7.33-11.43-3.46l9 14.33c6.24-2.38 5.7-5.23 2.43-10.87Z"/><path class="cls-56" d="M139.26 240.4c-10.09-4.12-6.29 11.23 0 13.51 10.05 4.09 6.26-11.23 0-13.51Z"/></g><path class="cls-79" d="M139.26 242.31c-7.24-3-4.52 8.06 0 9.69 7.21 3 4.49-8.06 0-9.69Z"/><g class="cls-1"><path class="cls-43" d="M139.25 242.84c-6.3-2.81-4.24 6.94-.3 8.52 6.31 2.81 4.25-6.94.3-8.52Z"/><path class="cls-44" d="M142 246.28c-1-3-6.53-5.66-6.42-.73 2-7.93 11.18 7.93 3 5.17 3.42 2.41 5.14-1.55 3.42-4.44Z"/><path class="cls-44" d="M142.64 246c-1.16-3.3-7.34-6.64-7.49-1.13.44-5.07 6-1.71 7.12 1.28 1.73 2.85.48 7.39-3.32 5.17 3.99 2.61 5.62-2.13 3.69-5.32Z"/></g><g class="cls-1"><path class="cls-75" d="M148.85 250.5c.06-7.24-8.78-17.89-15.61-13.35 8.11-1.32 15 8.76 14.54 16.91l1.08-.63Z"/><path class="cls-77" d="M139.34 237.71c5.4 2.77 9.24 10.09 8.44 16.35l-1.34-.72c2.56-10-15.18-24.15-14.28-7.67l-1.33-.72c-.83-5.76 2.25-10.69 8.51-7.24Z"/></g><g class="cls-1"><path class="cls-73" d="M231.38 253c-3.07 1-3.34 4.47-3.1 7.63l1.11-.61c-.13-2.35-.23-6.17 1.99-7.02Z"/><path class="cls-55" d="M245 265.43c.06-7.24-8.78-17.9-15.61-13.36 7.95-2.77 15.76 8.95 14.54 16.91l1.08-.63Z"/></g><path class="cls-75" d="m190.59 232.05-32.94 17.8c5.45 3.27 41.1 22.22 46.23 22.83a9.28 9.28 0 0 1 2.86 3.52l6.21 3.34 32.24-18.18Z"/><path style="fill:url(#Безымянный_градиент_2-2)" d="m187.58 236.72 50.3 27 .89-.48-51.19-27.48-23.14 12.52.9.48 22.24-12.04z"/><path class="cls-55" d="M177.29 249.39c2.86-.85 12.49-8.59 15.57-6.26l19.87 10.67a1.85 1.85 0 0 1 0 3.32c-3.42 1.18-11.9 8.43-15.67 5.73l-19.76-10.61c-1.18-.63-1.76-1.91-.01-2.85Z"/><path class="cls-77" d="m195.22 278.32-37.57-20.18v-8.3l39.84 21.39c-2.34.77-2.42 4.64-2.27 7.09Zm12-1.86c2.08 3 2.43 6.18 2.28 9.52l3.25 1.75v-8.31Z"/><g class="cls-1"><path class="cls-78" d="M206.18 272.45c-5.3-5.29-14.63-3.3-12.06 6.48Z"/><g class="cls-1"><path class="cls-78" d="M203.16 271.25c-2.15-.82-4.58 1.26-6.35 2.08l8.94 14.29 3.47-1.87c3.14-4.32-2.44-11.98-6.06-14.5Z"/><path class="cls-56" d="M201.3 273.74c-10.06-4.11-6.27 11.2 0 13.47 10.02 4.11 6.24-11.21 0-13.47Z"/></g><path class="cls-79" d="M201.3 275.64c-7.23-2.95-4.5 8 0 9.67 7.19 2.95 4.47-8.04 0-9.67Z"/><path class="cls-80" d="M201.38 275.8c-6.86-3-4.49 7.55-.22 9.21 2.38 1.33 4.35.34 4.41-2.2a8.72 8.72 0 0 0-4.19-7.01Z"/><path class="cls-43" d="M205.36 283.38c-3.65 2.38-8.51-6.17-4.8-7.84-8.63-.65 1.6 15.27 4.8 7.84Z"/><path class="cls-44" d="M201.38 275.8c-6.86-3-4.49 7.55-.22 9.21 2.38 1.33 4.35.34 4.41-2.2a8.72 8.72 0 0 0-4.19-7.01Zm-.21 8.94c-4-1.56-6.25-11.46.21-8.68 4.02 1.56 6.25 11.47-.21 8.68Z"/><path class="cls-41" d="M201.37 276.06c-4.13-1.23-1.52 6.47 1.18 7.29 1.23.65 2.89.85 2.77-.68a8.23 8.23 0 0 0-3.95-6.61Z"/><path class="cls-42" d="M204 279.28c-.47-1.26-2.88-2.68-3-.55-.19.11 1.45 2.58 1.48 2.69 1.52 1.11 2.36-.78 1.52-2.14Z"/><path class="cls-43" d="M202.46 278.19c-2.39-1-1.56 2.64-.08 3.21 2.39 1.03 1.62-2.63.08-3.21Z"/><path d="M210.81 283.77c.06-7.24-8.78-17.9-15.61-13.36 8-2.77 15.76 8.95 14.54 16.91l1.08-.63Z" style="fill:url(#Безымянный_градиент_332-2)"/><path class="cls-56" d="M201.3 271c5.4 2.77 9.24 10.09 8.44 16.34l-1.34-.72c2.56-10-15.17-24.15-14.28-7.67l-1.33-.71c-.79-5.79 2.21-10.71 8.51-7.24Z"/></g><path class="cls-55" d="M206.13 273.32a17.83 17.83 0 0 1 2.94 4.19l3.88-2.09c-3.53-7-10.49-10.8-16.67-5.59 2.8-1.66 7.5.81 9.85 3.49ZM235.35 257.64a17.56 17.56 0 0 1 2.94 4.18l4-2.15c-2.79-5.07-9-11.82-16.8-5.52 2.8-1.67 7.51.85 9.86 3.49Z"/><path class="cls-56" d="M238.29 261.82 225 254.66c3.59-4.35 13.49 3.5 13.29 7.16Z"/><path class="cls-82" d="M191.94 271.62c-.36-.23-1.37-.55-1.35-1.12.13-.89 2.85 1.34 1.35 1.12Z"/><path class="cls-99" d="M154.81 226.74c-9.42-5.39-8.61-1.93-8.33-13.88-.85-.45-.19 8.67-.39 8.86-.29 1.23 7.77 4.6 8.39 5.2.32.17.59.12.69-.09a.79.79 0 0 1-.36-.09Z"/><path class="cls-100" d="m154.48 217.05-7.64-4.05a.78.78 0 0 0-.35-.11c-.46.33 7.68 4.3 7.63 4.39 1.47.24.48 8.58.75 9.51a.77.77 0 0 0 .28.07c-.07-1.02.74-9.49-.67-9.81Z"/><path class="cls-99" d="M154.81 239.16c-9.42-5.39-8.61-1.93-8.33-13.88-.85-.45-.19 8.67-.39 8.86-.29 1.24 7.77 4.6 8.39 5.2.32.17.59.12.69-.09a.79.79 0 0 1-.36-.09Z"/><path class="cls-100" d="m154.48 229.48-7.64-4.1a.75.75 0 0 0-.35-.1c-.46.32 7.68 4.29 7.63 4.38 1.47.25.48 8.59.75 9.51a.8.8 0 0 0 .28.08c-.07-.99.74-9.46-.67-9.77Z"/><path id="Cube_face_-_left-2" data-name="Cube face - left" class="cls-43" d="m162.71 261.84-7.5-4.02v-8.3l7.5 4.02v8.3z"/><path id="Cube_face_-_right-2" data-name="Cube face - right" class="cls-44" d="m163.63 261.35-.92.49v-8.3l.92-.49v8.3z"/><path class="cls-102" d="m166.2 251.67-5.98-3.21-2.57 1.39-1.5-.84-.94.51 7.5 4.02 3.49-1.87z"/><path class="cls-93" d="M160.24 259.67c-1.16-.94-4.79-1.58-4.24-3.63-.07-.88 4 1.93 4.24 1.87.53.09.76 2.15 0 1.76Z"/><path class="cls-105" d="m245.19 261.36-32.46 18.06.02 8.31 32.45-17.43-.01-8.94z"/><path class="cls-82" d="M129.78 238.25c-.41-.06-2.21-1.39-.92-1.29.41.04 2.21 1.38.92 1.29Z"/><path class="cls-93" d="M135.77 220.37c.31 0 2.86 2.07 2.59.77.06-.65-2.22-1.44-2.59-1.75-.65-.29-.43.83 0 .98Z"/><path class="cls-91" d="m190.13 226.34-32.39 17.39-17.74-9.55v-25.89l-.23-.12v25.88c-4-2.44-11.18-3.42-15.69-4.45v-17.25l2.87-11-.26-.14-2.85 11.05v17.3c-.19-.16-.74.23-.91.31 4.53 1.07 12.37 2.11 16.39 4.52l18.47 9.92 32.92-17.68Z"/><path class="cls-56" d="M122.87 206.69c-1.37-.15 2.5-2.15 2.45-1.63.29.48-2.24 1.47-2.45 1.63Z"/><g class="cls-1"><path class="cls-77" d="M123.63 204.3a2.45 2.45 0 0 0-2.43 2c.24.77-.68 6.79.72 6.76l2.17-8.5Z"/><path d="M123.45 204.61c1.74-1.17.59 5.95.89 6.45.15 1-2.44 3-2.69 1.45v-6c-.02-.95 1.06-1.51 1.8-1.9Z" style="fill:url(#Безымянный_градиент_644)"/></g><path class="cls-103" d="M162.35 204.88c-.84-.43-19.75-11.58-20.42-10.36.07-.45.84-.44 1.15-.27.16.35 19.57 9.99 19.27 10.63Zm-4.12 1.76c-.41.2-20.44-12-20.27-10 .67-1.22 19.57 9.92 20.43 10.35.07-.11.02-.25-.16-.35Zm7.93-4.26c-.42.2-20.44-12-20.27-10 .67-1.22 19.57 9.92 20.43 10.36.07-.12.02-.26-.16-.36Zm-4.25-18.65a1.08 1.08 0 0 1 1 0c.25.27 19.23 10.05 19.3 10.5.31-.63-19.11-10.27-19.27-10.62-.31-.17-1.08-.18-1.15.26a.38.38 0 0 1 .12-.14ZM178.05 196c-.41.19-20.43-12-20.26-10 .66-1.22 19.57 9.93 20.42 10.36.07-.12.02-.26-.16-.36Zm-7.93 4.26c-.41.19-20.44-12-20.26-10 .66-1.22 19.57 9.92 20.42 10.36.07-.13.03-.27-.16-.36Zm4-2.13c-.42.19-20.44-12-20.27-10 .66-1.22 19.58 9.93 20.43 10.36.04-.12-.01-.26-.19-.36Z"/><g id="Axonometric_Cube" data-name="Axonometric Cube"><path id="Cube_face_-_right-3" data-name="Cube face - right" class="cls-56" d="m244.32 270.19-30.57 16.41v-6.08l30.57-16.41v6.08z"/></g><path class="cls-109" d="M238.06 268.19c-.91.2-.64 1.36-.67 2.06s4.52-2.31 4.9-2.33v-2Z"/><path class="cls-110" d="M242.25 267.93c.3-.22 1.45-.57 1.43-1.06 0-1.86.11-1.81-1.43-.93Z"/><path class="cls-111" d="M242.25 267.18v.75c.53-.31 1.69-.63 1.43-1.51Z"/><path class="cls-109" d="M220.14 277.81c1.05-.83.57.82.67 1.34-.06.7-4.4 2.5-4.9 2.93v-2Z"/><path class="cls-110" d="M216 282.06c-1.54.88-1.48.92-1.43-.93 0-.49 1.14-.85 1.43-1.07Z"/><path class="cls-111" d="M216 281.3v.76c-.43.13-1.69 1.28-1.43 0Z"/><g id="Axonometric_Cube-2" data-name="Axonometric Cube"><path id="Cube_face_-_right-4" data-name="Cube face - right" class="cls-37" d="m234.38 273.45-10.46 5.62v-2.19l10.46-5.61v2.18z"/></g><path class="cls-109" d="M242.21 269.15c.85-.35.52 1 0 1.14-.85.35-.53-.95 0-1.14ZM216 283.22c.85-.35.52.95 0 1.14-.85.35-.53-.95 0-1.14Z"/></g><g id="_5-2" data-name="5"><g id="_15-2" data-name="15"><g id="_4-3" data-name="4"><path class="cls-37" d="M531 275.28c-.44-.74-2.88 1.47-3.33 1.57-.67.35-.85 2.69-.11 3 0 0 0-.05-.06-.08.22.51 2.85-1.61 3.13-1.64.65-.48.63-2.21.37-2.85Z"/><path class="cls-38" d="M529.58 277.7c-1.19-.6 0 .89-.29 2.15 0 .84-1.32 1.18-1.33 2 .17.38.44.32.48.29 1.56-.65 1.79-3.78 1.14-4.44Z"/><g class="cls-1"><path class="cls-39" d="M446.2 275.51c-5 2-6.57 3.27-5.05 8.2l8-5ZM499.45 312.7c-1.79 1.1-1.58 4.08-1.56 6l29.54-18.36c0-1.95-.22-4.94 1.56-6Z"/><g class="cls-1"><path class="cls-39" d="M511.71 318.5c-2.41-5.59-6.66-8.69-11.49-4.28l7.78 14.35c4.42-1.93 5.87-5.06 3.71-10.07Z"/><path class="cls-40" d="M504.14 314.63c-9-4.05-5.23 11.49 0 13.53 3 1.88 5.51.37 5.52-3.37a13.14 13.14 0 0 0-5.52-10.16Z"/></g><path class="cls-39" d="M504.14 316.54c-6.48-2.9-3.76 8.24 0 9.71 6.44 2.9 3.73-8.25 0-9.71Z"/><g class="cls-1"><path class="cls-41" d="M507.6 323.45c.55-2.48-4.41-10.34-5.26-4.85-.57 2.4 4.11 8.6 5.26 4.85Z"/><path class="cls-42" d="M506.45 320.1c-2-4-4.05.57-1.23 2.17l-.13-.06c1.5 1.14 2.06-.9 1.36-2.11Z"/><path class="cls-43" d="M507.64 324.15c-3.41 2.26-7.23-6.21-4.14-7.76-7.44-.61 1.3 15.04 4.14 7.76Z"/><path class="cls-44" d="M504.21 316.64c-6.08-2.87-3.69 7.66-.19 9.13 2.05 1.31 3.74.34 3.8-2.18a8.94 8.94 0 0 0-3.61-6.95Zm-.21 8.86a8.38 8.38 0 0 1-3.4-6.54c.93-6.53 7.65.83 7 4.49-.05 2.37-1.6 3.29-3.6 2.05Z"/><path class="cls-43" d="M505.14 319a3.1 3.1 0 0 1 1.25 2.42c-.8 3.58-4.57-3.63-1.25-2.42Z"/></g><g class="cls-1"><path class="cls-39" d="M455.29 283.67c-2.41-5.59-6.67-8.69-11.49-4.28l7.8 14.35c4.4-1.93 5.84-5.06 3.69-10.07Z"/><path class="cls-40" d="M447.72 279.8c-9-4.05-5.23 11.49 0 13.53 3.05 1.88 5.52.37 5.53-3.37a13.13 13.13 0 0 0-5.53-10.16Z"/></g><path class="cls-39" d="M447.71 281.71c-6.47-2.9-3.75 8.24 0 9.71 6.45 2.9 3.73-8.24 0-9.71Z"/><g class="cls-1"><path class="cls-41" d="M451.18 288.62c.55-2.48-4.41-10.34-5.26-4.85-.57 2.39 4.08 8.6 5.26 4.85Z"/><path class="cls-42" d="M450 285.27c-2-4-4 .57-1.23 2.17l-.13-.06c1.52 1.14 2.09-.9 1.36-2.11Z"/><path class="cls-43" d="M451.21 289.32c-3.4 2.26-7.22-6.21-4.13-7.76-7.44-.56 1.29 15.04 4.13 7.76Z"/><path class="cls-44" d="M447.79 281.81c-6.08-2.87-3.7 7.66-.19 9.13 2 1.31 3.74.34 3.79-2.18a8.93 8.93 0 0 0-3.6-6.95Zm-.19 8.86a8.4 8.4 0 0 1-3.39-6.54c.93-6.53 7.65.83 7 4.49-.08 2.38-1.68 3.29-3.61 2.05Z"/><path class="cls-43" d="M448.72 284.19c1.22.51 2 4.18-.07 3.18-1.22-.51-2.05-4.18.07-3.18Z"/></g><g class="cls-1"><path class="cls-112" d="M466.86 227.72a1.19 1.19 0 0 0-1.27-.14l-27.73 17.2c1.32-1 51.74 31.91 52.95 32l27.73-17.2Z"/><path class="cls-112" d="M529.6 282.23c-.4-.4-10.54-23.54-11.06-22.61l-27.73 17.2c.22.13 9.24 23.77 9.24 23.77 11.38-5.4 21.44-11.42 29.55-18.36Zm-14.89-8.34q3.4-2.26 6.56-4.6l5.73 12.18Z"/><path class="cls-112" d="m511.92 310.62-11.87-10c-.39-.63-8.33-24.5-9.24-23.77l-51.68-31.9c-4.15-2.36-2.69 29.12-2.27 36.14l4.29 2.65c-.63-14.95 15.09-.12 12.66 7.82l44.08 27.21c-.69-15 15.13.14 12.66 7.81l3.06 1.89c-.49-3.03 1.48-15.98-1.69-17.85Z"/><path class="cls-48" d="m519.15 260.16-27.73 17.21a3.68 3.68 0 0 1 .53.88l27.73-17.2a3.74 3.74 0 0 0-.53-.89Z"/></g><path class="cls-49" d="M491.42 281.17c-1.9-5.49-9.77-6.94-14.11-10.45-12.49-7.58-26.19-16-38.34-24.08h.03l-.87 1.1.79-1.16c12.66 7.15 26.32 15.67 38.74 23.44 4.34 3.71 12.04 5.27 13.76 11.15Z"/><path class="cls-112" d="M441.15 283.71c-.63-14.95 15.09-.12 12.66 7.82l44.08 27.21c-.08-2.16-.16-5.83 2.3-6.33-25.35-9.37-42.26-33.64-63.88-48.61a161.54 161.54 0 0 0 .55 17.26Z"/><path class="cls-51" d="m528.05 282.3-6.69-13.09-.09.08 5.73 12.18-12.28-7.58a212 212 0 0 1-18.65 11l5 14.16c10.21-4.54 20.34-10.8 26.98-16.75Z"/><path class="cls-112" d="m513.65 314.24 29.54-18.36-.03 14.21-29.55 18.35.04-14.2zM500.05 300.59c11.16-5.7 21.24-11.75 29.55-18.36l11.87 10-29.55 18.36Z"/><path class="cls-112" d="M542.83 294.19a5.13 5.13 0 0 0-1.36-1.93l-29.55 18.36a5.1 5.1 0 0 1 1.73 3.62l29.54-18.36a4.36 4.36 0 0 0-.36-1.69Z"/><path class="cls-48" d="m542 292.82-29.54 18.35a5.44 5.44 0 0 1 .81 1.38l29.55-18.36a5.72 5.72 0 0 0-.82-1.37Z"/></g><path class="cls-53" d="M521.36 269.21a193.72 193.72 0 0 1-25.3 15.72l5 14.16c10.25-4.58 20.38-10.84 27-16.79Z"/><path class="cls-54" d="M493.21 286.71c-.36-2.26-8.87-6.13-10.35-7.38-1.35-.3-1 8.27-.62 10.66l14.76 9.12c1.14.51-4-12.29-3.79-12.4Z"/><path class="cls-55" d="M545 306.19c.09-.71-1.44-1.54-1.82-1.95v2l-29.51 18.2-3.32-2.07-.58.35v3.82c1.05.36 3.47 2.94 4.65 2l29.85-18.68c1.13-.57.65-2.67.73-3.67Z"/><path class="cls-56" d="M536.73 308.14v-7.53l-16.49 10.18c.31.45-.82 8.78.82 7.77.16-.36 16.87-9.7 15.67-10.42Z"/><path class="cls-57" d="m536.75 306-16.42 10.14v-.4l16.42-10.14Zm0 1.8-16.42 10.14v.39l16.42-10.14Zm0-1.1-16.42 10.14v.4l16.42-10.14Zm0-2.19-16.42 10.13v.4l16.42-10.14Zm0-3.3-16.42 10.14v.4l16.42-10.14Zm0 2.2-16.42 10.14v.39l16.42-10.13Zm0-1.1-16.42 10.14v.4l16.42-10.14Z"/><path class="cls-55" d="m542.85 301.6-6.01 3.71v-4.84l6.01-3.71v4.84z"/><path class="cls-58" d="m541.75 301.11.83-.52v.76l-.83.52Z"/><path class="cls-59" d="m541.75 297.86.83-.51v2.85l-.83.51Z"/><path class="cls-60" d="m537.29 300.62 4.46-2.76v1.68l-4.46 2.75Zm0 4 4.46-2.75v-1.81l-4.46 2.76Z"/><g class="cls-1"><path class="cls-61" d="m543.19 301.76-.35-.22v-4.45l.35.21v4.46z"/><path class="cls-62" d="m537.36 305.36-.35-.22 5.83-3.6.35.22-5.83 3.6z"/><path class="cls-61" d="m537.01 306-.34-.21-.01-5.32.35.22V306z"/><path class="cls-62" d="m537.01 300.69-.35-.22 6.53-4.03.35.22-6.53 4.03z"/><path class="cls-63" d="m537 300.69 6.53-4V302l-6.53 4Zm6.18 1.07v-4.46l-5.83 3.6v4.46Z"/></g><g class="cls-1"><path class="cls-61" d="m536.7 308.76-.32-.2-.02-7.5.32.2.02 7.5z"/><path class="cls-62" d="M536.38 308.56a.65.65 0 0 1-.27.58c-.23 0-15.11 9.63-15.36 9.33.15 0 .39.33.55.22l15.14-9.34a.67.67 0 0 0 .26-.59Z"/><g class="cls-1"><g class="cls-1"><path class="cls-61" d="M520.83 319.09c-.28-.17-.62-.33-.6-.77l.32.2a.66.66 0 0 0 .28.57Z"/></g></g><path class="cls-61" d="m520.55 318.52-.32-.2-.02-7.69.32.2.02 7.69z"/><path class="cls-62" d="m520.53 310.83-.32-.2 16.48-10.17.32.2-16.48 10.17z"/><path class="cls-63" d="M520.53 310.83 537 300.66c-.27 1 .64 8.66-.57 9.08l-15.14 9.34c-1.5.92-.46-7.85-.76-8.25Zm16.17-2.07v-7.5L520.86 311c.19.19-.45 8.25.44 7.66l15.14-9.34a.67.67 0 0 0 .26-.59Z"/></g><path class="cls-55" d="m519.88 315.77-6.02 3.72v-4.85l6.02-3.71v4.84z"/><path class="cls-58" d="m514.25 318.07.83-.51v.76l-.83.51Z"/><path class="cls-59" d="m514.25 314.83.83-.51v2.84l-.83.52Z"/><path class="cls-60" d="m515.07 314.32 4.46-2.75v1.67l-4.46 2.76Zm0 4 4.46-2.75v-1.8l-4.46 2.75Z"/><g class="cls-1"><path class="cls-61" d="m520.2 315.94-.34-.22v-4.45l.34.21v4.46z"/><path class="cls-62" d="m514.37 319.53-.34-.21 5.83-3.6.34.22-5.83 3.59z"/><path class="cls-61" d="m514.03 320.18-.35-.21v-5.32l.34.22.01 5.31z"/><path class="cls-62" d="m514.02 314.87-.34-.22 6.53-4.03.34.22-6.53 4.03z"/><path class="cls-63" d="m514 314.87 6.54-4v5.31l-6.53 4Zm6.18 1.07v-4.46l-5.83 3.6v4.45Z"/></g><path class="cls-55" d="m439.09 276.22-2.67-1.64-.07-3.22c-4 1.88-2.74 3.47-2.9 7.29-.25 1.29 4.66 3.36 5.28 4l.37-.21Z"/><path class="cls-64" d="m509.44 316.35-1-.63c-.52-.22-.89-1.6 0-1.17l1 .63c.56.22.89 1.6 0 1.17ZM440 273.48l-1-.64c-.52-.22-.89-1.59 0-1.17l1 .63c.5.22.87 1.6 0 1.18Z"/><path class="cls-37" d="M496.21 296.76c-.44-.74-2.88 1.46-3.33 1.56-.66.36-.85 2.7-.1 3a.27.27 0 0 1-.07-.08c.23.51 2.86-1.61 3.13-1.65.7-.46.67-2.19.37-2.83Z"/><path class="cls-65" d="M499.5 300.21c-.16.74-1.7-.57-1.57-1 .15-.71 1.7.6 1.57 1Z"/><path class="cls-38" d="M498.33 299.54c-1.54 1.4-3.27-.49-3.34-.57-1.68 0 1.28 2 2.19 1.74.7.29 2.89-1.18 1.15-1.17Z"/></g></g><g class="cls-66"><path class="cls-67" d="M480.13 271.33c-.13.07-16.25-10.35-16.33-9.92a256.85 256.85 0 0 0-.11 35.71c.13-.08 16.28 10.39 16.37 9.94a302.24 302.24 0 0 1 .07-35.73Zm-.26 35.55L463.82 297a270.89 270.89 0 0 1 .15-35.4l16 9.89a281.08 281.08 0 0 0-.1 35.39ZM498.91 300.54c-1-2-4.31-15.83-6.54-16.55-.26.25-11.15-7.69-11.09-6.26a206.2 206.2 0 0 0 .29 30.43c.13-.09 14.49 9.28 14.58 8.82-.09-.09-.21-5.09 2.76-6.58Zm-3 16.28L481.7 308c.1-.55-1.63-16.29 0-30.4 1.55 1.37 12 6.35 12.3 8.72l4.75 14.22v9.78c-2.81 1.42-2.83 5.57-2.75 6.5Z"/></g><path class="cls-68" d="m484.09 297.14-3.09-1.92v-2.4c.78.67 4 1.86 3.89 3.23 0 .55.11 1.61-.8 1.09ZM476.31 292.34l3.11 1.92v-2.4c-.5 0-3.82-3.12-3.89-1.57a2 2 0 0 0 .78 2.05ZM450.85 276.2l12.39 7.64v-1.4l-12.39-7.64c-.78-.37-.49 1.2 0 1.4Z"/><g class="cls-69"><path class="cls-70" d="m477.81 287.4-12.6-7.78c-1.71-2.56-.57-8.24-.28-11.37-.75 1.74-1.36 10.25.11 11.47.78.17 12.5 8.4 13.31 7.71a.58.58 0 0 1-.54-.03Z"/><path class="cls-71" d="m478.06 276.06-12.6-7.78a.44.44 0 0 0-.61.07.51.51 0 0 1 .43 0l12.59 7.77c1.75 2.75.33 8 .37 11.28.52-1.77 1.28-10.13-.18-11.34Z"/></g><g class="cls-69"><path class="cls-70" d="m461.42 277.28-18.79-11.6c-1.71-2.56-.57-8.24-.28-11.37-.75 1.73-1.36 10.25.11 11.47l18.79 11.6a.6.6 0 0 0 .71-.07.58.58 0 0 1-.54-.03Z"/><path class="cls-71" d="m461.67 265.94-18.79-11.6a.45.45 0 0 0-.61.07c.47-.32 18.79 11.59 19.21 11.64 1.75 2.75.33 8 .36 11.28.53-1.82 1.29-10.18-.17-11.39Z"/></g><path class="cls-72" d="M493.38 269.07h-.11c1.21-1.21-41.26-25.51-41.38-26.24a1.34 1.34 0 0 0-1.19 0 1.28 1.28 0 0 1 1.37-.07c.02.78 42.93 25.04 41.31 26.31Zm-3.31 1.24-41.31-25.5a1.26 1.26 0 0 0-1.37.06 1.34 1.34 0 0 1 1.19 0c.13.74 42.59 25 41.39 26.24a.44.44 0 0 0 .1-.8Zm6.61-4.08-41.31-25.51a1.28 1.28 0 0 0-1.37.07 1.34 1.34 0 0 1 1.19 0c.13.74 42.59 25 41.39 26.24a.44.44 0 0 0 .1-.8Zm9.92-6.13-41.31-25.5a1.28 1.28 0 0 0-1.37.07 1.34 1.34 0 0 1 1.19 0c.13.74 42.59 25 41.39 26.24a.45.45 0 0 0 .1-.81Zm3.31-2-41.32-25.5a1.26 1.26 0 0 0-1.36.07 1.34 1.34 0 0 1 1.19 0c.13.74 42.59 25 41.38 26.24a.45.45 0 0 0 .11-.85Zm-9.91 6.09-41.31-25.51a1.28 1.28 0 0 0-1.37.07 1.34 1.34 0 0 1 1.19 0c.13.74 42.59 25 41.38 26.24.41-.1.52-.57.11-.8Zm3.31-2L462 236.64a1.28 1.28 0 0 0-1.37.07 1.37 1.37 0 0 1 1.2 0c.13.74 42.58 25 41.38 26.24a.44.44 0 0 0 .09-.8Z"/></g><g id="_5-3" data-name="5"><g id="_15-3" data-name="15"><g id="_4-4" data-name="4"><path class="cls-37" d="M402.58 351.84c-.44-.74-2.89 1.46-3.34 1.56-.66.36-.84 2.7-.1 3a.27.27 0 0 1-.07-.08c.23.51 2.86-1.61 3.13-1.65.7-.47.67-2.2.38-2.83Z"/><path class="cls-38" d="M401.2 354.26c-1.19-.61 0 .88-.29 2.14 0 .84-1.32 1.18-1.34 2 .18.38.44.33.49.3 1.57-.65 1.79-3.79 1.14-4.44Z"/><g class="cls-1"><path class="cls-39" d="M317.82 352.06c-5 2-6.57 3.27-5.06 8.21l8-5ZM371.06 389.25c-1.78 1.1-1.58 4.09-1.56 6l29.55-18.36c0-1.95-.22-4.94 1.56-6Z"/><g class="cls-1"><path class="cls-39" d="M383.33 395.05c-2.41-5.58-6.67-8.68-11.49-4.28l7.8 14.35c4.36-1.93 5.84-5.06 3.69-10.07Z"/><path class="cls-40" d="M375.76 391.18c-9-4-5.23 11.49 0 13.53 3 1.88 5.52.37 5.53-3.37a13.14 13.14 0 0 0-5.53-10.16Z"/></g><path class="cls-39" d="M375.75 393.09c-6.47-2.9-3.75 8.25 0 9.71 6.45 2.9 3.73-8.24 0-9.71Z"/><g class="cls-1"><path class="cls-41" d="M379.22 400c.55-2.49-4.42-10.34-5.26-4.86-.57 2.41 4.11 8.61 5.26 4.86Z"/><path class="cls-42" d="M378.07 396.65c-2-4-4.05.58-1.23 2.18l-.13-.07c1.49 1.15 2.06-.9 1.36-2.11Z"/><path class="cls-43" d="M379.25 400.71c-3.4 2.25-7.23-6.22-4.14-7.77-7.44-.61 1.3 15.06 4.14 7.77Z"/><path class="cls-44" d="M375.82 393.2c-6.07-2.88-3.69 7.66-.18 9.12 2 1.32 3.74.34 3.79-2.18a8.88 8.88 0 0 0-3.61-6.94Zm-.18 8.85a8.38 8.38 0 0 1-3.39-6.54c.93-6.53 7.65.84 7 4.5-.08 2.37-1.68 3.28-3.61 2.04Z"/><path class="cls-43" d="M376.75 395.57A3.08 3.08 0 0 1 378 398c-.8 3.59-4.56-3.66-1.25-2.43Z"/></g><g class="cls-1"><path class="cls-39" d="M326.91 360.22c-2.41-5.58-6.67-8.68-11.5-4.28l7.81 14.35c4.4-1.93 5.84-5.06 3.69-10.07Z"/><path class="cls-40" d="M319.33 356.35c-9-4-5.22 11.49 0 13.53 3 1.88 5.52.37 5.53-3.37a13.13 13.13 0 0 0-5.53-10.16Z"/></g><path class="cls-39" d="M319.33 358.26c-6.47-2.9-3.75 8.25 0 9.71 6.44 2.9 3.73-8.24 0-9.71Z"/><g class="cls-1"><path class="cls-41" d="M322.79 365.18c.56-2.49-4.41-10.34-5.25-4.86-.54 2.4 4.1 8.6 5.25 4.86Z"/><path class="cls-42" d="M321.64 361.82c-2-4-4.05.58-1.22 2.18l-.13-.07c1.49 1.15 2.06-.93 1.35-2.11Z"/><path class="cls-43" d="M322.83 365.88c-3.41 2.25-7.23-6.22-4.14-7.77-7.44-.61 1.31 15.04 4.14 7.77Z"/><path class="cls-44" d="M319.4 358.37c-6.07-2.88-3.69 7.66-.18 9.12 2 1.32 3.74.34 3.79-2.18a8.89 8.89 0 0 0-3.61-6.94Zm-.18 8.85a8.42 8.42 0 0 1-3.4-6.54c.93-6.53 7.65.84 7 4.5-.07 2.37-1.67 3.29-3.6 2.04Z"/><path class="cls-43" d="M320.33 360.74c1.22.51 2.05 4.18-.06 3.18-1.22-.51-2.05-4.18.06-3.18Z"/></g><g class="cls-1"><path class="cls-113" d="M338.48 304.27a1.18 1.18 0 0 0-1.28-.13l-27.72 17.2c1.31-1 51.74 31.9 52.95 32l27.73-17.2Z"/><path class="cls-113" d="M401.22 358.79c-.4-.41-10.54-23.55-11.06-22.62l-27.73 17.2c.21.14 9.24 23.78 9.24 23.78 11.38-5.41 21.43-11.43 29.55-18.36Zm-14.89-8.34c2.27-1.52 4.46-3.05 6.55-4.61l5.73 12.16Z"/><path class="cls-113" d="m383.54 387.17-11.87-10c-.4-.63-8.33-24.51-9.24-23.78l-51.68-31.9c-4.15-2.35-2.69 29.12-2.27 36.15l4.28 2.65c-.62-15 15.09-.13 12.67 7.81l44.07 27.21c-.68-15 15.13.14 12.66 7.82l3.07 1.89c-.49-3.02 1.48-16.02-1.69-17.85Z"/><path class="cls-48" d="M390.76 336.72 363 353.92a3.26 3.26 0 0 1 .52.89l27.73-17.2a3.28 3.28 0 0 0-.49-.89Z"/></g><path class="cls-49" d="M363 357.72c-1.9-5.49-9.77-6.94-14.11-10.44-12.5-7.59-26.19-16-38.34-24.08h.06l-.86 1.11.79-1.17c12.66 7.16 26.32 15.68 38.73 23.45 4.35 3.69 12.05 5.25 13.73 11.13Z"/><path class="cls-113" d="M312.76 360.27c-.62-15 15.09-.13 12.67 7.81l44.07 27.21c-.07-2.15-.15-5.83 2.31-6.33-25.35-9.36-42.26-33.63-63.88-48.61a159.15 159.15 0 0 0 .55 17.27Z"/><path class="cls-51" d="M399.67 358.86 393 345.77l-.1.07 5.71 12.16-12.28-7.58c-5.73 3.82-12 7.49-18.65 11l5 14.15c10.21-4.5 20.32-10.76 26.99-16.71Z"/><path class="cls-113" d="m385.26 390.8 29.55-18.36-.04 14.2L385.23 405l.03-14.2zM371.67 377.15c11.16-5.71 21.23-11.76 29.55-18.36l11.86 10-29.54 18.36ZM414.44 370.74a5.1 5.1 0 0 0-1.36-1.93l-29.54 18.36a5.2 5.2 0 0 1 1.73 3.62l29.54-18.35a4.46 4.46 0 0 0-.37-1.7Z"/><path class="cls-48" d="m413.63 369.37-29.55 18.36a5.72 5.72 0 0 1 .82 1.37l29.54-18.36a5.38 5.38 0 0 0-.81-1.37Z"/></g><path class="cls-53" d="M393 345.77a196.17 196.17 0 0 1-25.3 15.72l5 14.15c10.24-4.57 20.38-10.83 27-16.78Z"/><path class="cls-54" d="M364.83 363.27c-.36-2.27-8.87-6.13-10.35-7.39-1.35-.29-1 8.27-.63 10.67l14.78 9.12c1.12.5-4.02-12.3-3.8-12.4Z"/><path class="cls-55" d="M416.62 382.75c.09-.72-1.44-1.54-1.81-2v2L385.29 401l-3.29-2.09-.57.36v3.81c1.05.36 3.47 2.94 4.65 2l29.85-18.68c1.07-.55.6-2.66.69-3.65Z"/><path class="cls-56" d="M408.34 384.69v-7.53l-16.49 10.18c.32.46-.81 8.78.83 7.78.15-.36 16.87-9.71 15.66-10.43Z"/><path class="cls-57" d="M408.37 382.55 392 392.69v-.4l16.42-10.13Zm0 1.8L392 394.49v.4l16.42-10.14Zm0-1.1L392 393.39v.4l16.42-10.14Zm0-2.19L392 391.2v.39l16.42-10.13Zm0-3.29L392 387.91v.39l16.42-10.14Zm0 2.19L392 390.1v.4l16.42-10.14Zm0-1.1L392 389v.4l16.42-10.14Z"/><path class="cls-55" d="m414.47 378.15-6.02 3.72v-4.85l6.02-3.71v4.84z"/><path class="cls-58" d="m413.37 377.66.83-.51v.76l-.83.51Z"/><path class="cls-59" d="m413.37 374.42.83-.52v2.85l-.83.51Z"/><path class="cls-60" d="m408.91 377.17 4.46-2.75v1.67l-4.46 2.75Zm0 4 4.46-2.75v-1.8l-4.46 2.75Z"/><g class="cls-1"><path class="cls-61" d="m414.81 378.31-.35-.21v-4.46l.34.22.01 4.45z"/><path class="cls-62" d="m408.98 381.91-.35-.22 5.83-3.59.35.21-5.83 3.6z"/><path class="cls-61" d="m408.63 382.56-.35-.22v-5.31l.35.21v5.32z"/><path class="cls-62" d="m408.63 377.24-.35-.21 6.53-4.03.35.21-6.53 4.03z"/><path class="cls-63" d="m408.63 377.24 6.53-4v5.32l-6.53 4Zm6.18 1.07v-4.45l-5.83 3.6v4.45Z"/></g><g class="cls-1"><path class="cls-61" d="m408.32 385.32-.32-.2-.02-7.5.32.2.02 7.5z"/><path class="cls-62" d="M408 385.11a.68.68 0 0 1-.27.59c-.23 0-15.11 9.63-15.37 9.32.15.05.4.33.56.22l15.13-9.34a.67.67 0 0 0 .27-.58Z"/><g class="cls-1"><g class="cls-1"><path class="cls-61" d="M392.45 395.64c-.29-.17-.62-.33-.61-.77l.33.2a.64.64 0 0 0 .28.57Z"/></g></g><path class="cls-61" d="m392.17 395.07-.33-.2-.02-7.69.33.2.02 7.69z"/><path class="cls-62" d="m392.15 387.38-.33-.2 16.48-10.17.33.2-16.48 10.17z"/><path class="cls-63" d="m392.15 387.39 16.48-10.18c-.27 1 .64 8.67-.58 9.09l-15.13 9.34c-1.52.95-.47-7.86-.77-8.25Zm16.17-2.07v-7.5l-15.82 9.77c.18.18-.45 8.25.44 7.65l15.13-9.34a.67.67 0 0 0 .27-.58Z"/></g><path class="cls-55" d="m391.49 392.33-6.01 3.71v-4.84l6.01-3.72v4.85z"/><path class="cls-58" d="m385.86 394.63.83-.51v.75l-.83.52Z"/><path class="cls-59" d="m385.86 391.39.83-.52v2.85l-.83.51Z"/><path class="cls-60" d="m386.69 390.87 4.46-2.75v1.67l-4.46 2.76Zm0 4 4.46-2.76v-1.8l-4.46 2.76Z"/><g class="cls-1"><path class="cls-61" d="m391.82 392.49-.35-.22v-4.45l.35.22v4.45z"/><path class="cls-62" d="m385.99 396.09-.35-.22 5.83-3.6.35.22-5.83 3.6z"/><path class="cls-61" d="m385.64 396.74-.34-.22-.01-5.31.35.21v5.32z"/><path class="cls-62" d="m385.64 391.42-.35-.21 6.53-4.03.35.21-6.53 4.03z"/><path class="cls-63" d="m385.64 391.42 6.53-4v5.32l-6.54 4Zm6.18 1.07V388l-5.82 3.63v4.46Z"/></g><path class="cls-55" d="m310.7 352.78-2.7-1.65-.08-3.22c-4 1.88-2.73 3.47-2.9 7.3-.25 1.28 4.66 3.35 5.29 4l.37-.21Z"/><path class="cls-64" d="m381.05 392.91-1-.63c-.53-.23-.9-1.6 0-1.18l1 .63c.52.27.95 1.6 0 1.18ZM311.59 350l-1-.63c-.53-.22-.9-1.6 0-1.18l1 .64c.52.25.9 1.62 0 1.17Z"/><path class="cls-37" d="M367.83 373.31c-.44-.74-2.88 1.47-3.33 1.56-.67.36-.85 2.7-.11 3l-.06-.08c.23.51 2.85-1.61 3.13-1.64.7-.47.67-2.15.37-2.84Z"/><path class="cls-65" d="M371.12 376.76c-.16.75-1.7-.57-1.58-1 .16-.71 1.7.61 1.58 1Z"/><path class="cls-38" d="M370 376.09c-1.54 1.41-3.27-.48-3.34-.57-1.68 0 1.28 2 2.19 1.74.64.33 2.84-1.17 1.15-1.17Z"/></g></g><g class="cls-66"><path class="cls-67" d="M351.75 347.88c-.14.08-16.26-10.34-16.34-9.92a257 257 0 0 0-.11 35.72c.14-.09 16.29 10.38 16.38 9.93a302.24 302.24 0 0 1 .07-35.73Zm-.27 35.56-16-9.91a269.15 269.15 0 0 1 .15-35.4l16 9.89a281.27 281.27 0 0 0-.15 35.42ZM370.53 377.09c-1-1.94-4.31-15.83-6.54-16.54-.26.25-11.16-7.69-11.1-6.26a207.64 207.64 0 0 0 .29 30.42c.14-.08 14.5 9.29 14.59 8.83-.09-.09-.22-5.1 2.76-6.58Zm-3 16.28-14.25-8.8c.1-.55-1.63-16.28 0-30.39 1.55 1.37 12 6.34 12.29 8.71l4.75 14.22v9.78c-2.76 1.41-2.78 5.55-2.75 6.48Z"/></g><path class="cls-68" d="m355.71 373.7-3.11-1.92v-2.4c.77.67 4 1.86 3.88 3.22.03.56.09 1.62-.77 1.1ZM347.92 368.89l3.11 1.92v-2.4c-.49 0-3.82-3.12-3.88-1.57a2 2 0 0 0 .77 2.05ZM322.47 352.75l12.39 7.65V359l-12.39-7.64c-.78-.36-.47 1.2 0 1.39Z"/><g class="cls-69"><path class="cls-70" d="m349.43 364-12.6-7.78c-1.72-2.56-.58-8.23-.29-11.37-.74 1.74-1.36 10.25.12 11.48.78.16 12.49 8.39 13.3 7.7a.56.56 0 0 1-.53-.03Z"/><path class="cls-71" d="m349.68 352.61-12.6-7.78a.47.47 0 0 0-.62.07.55.55 0 0 1 .43.05l12.6 7.78c1.75 2.74.33 8 .36 11.27.53-1.82 1.29-10.18-.17-11.39Z"/></g><g class="cls-69"><path class="cls-70" d="m333 353.83-18.79-11.59c-1.72-2.57-.58-8.24-.29-11.37-.74 1.73-1.35 10.25.12 11.47l18.79 11.6a.57.57 0 0 0 .7-.08.56.56 0 0 1-.53-.03Z"/><path class="cls-71" d="M333.29 342.49 314.5 330.9a.46.46 0 0 0-.62.06c.48-.31 18.8 11.59 19.22 11.65 1.75 2.74.33 8 .36 11.28.54-1.83 1.28-10.19-.17-11.4Z"/></g><path class="cls-72" d="m365 345.62-.1.05c1.2-1.22-41.26-25.52-41.39-26.24a1.38 1.38 0 0 0-1.19-.05 1.26 1.26 0 0 1 1.37-.06c.01.77 42.94 25.03 41.31 26.3Zm-3.3 1.24-41.31-25.5a1.26 1.26 0 0 0-1.37.06 1.38 1.38 0 0 1 1.19.05c.13.74 42.59 25 41.38 26.24a.45.45 0 0 0 .1-.85Zm6.61-4.08L327 317.28a1.26 1.26 0 0 0-1.37.06 1.38 1.38 0 0 1 1.19.05c.13.73 42.59 25 41.38 26.24a.45.45 0 0 0 .1-.85Zm9.92-6.12-41.31-25.5a1.26 1.26 0 0 0-1.37.06 1.34 1.34 0 0 1 1.19 0c.13.74 42.59 25 41.38 26.24.41-.1.52-.57.1-.8Zm3.3-2-41.31-25.51a1.28 1.28 0 0 0-1.37.07 1.34 1.34 0 0 1 1.19 0c.13.74 42.59 25 41.39 26.24a.44.44 0 0 0 .09-.84Zm-9.91 6.12-41.32-25.5a1.24 1.24 0 0 0-1.36.06 1.35 1.35 0 0 1 1.19.05c.13.73 42.58 25 41.38 26.24a.45.45 0 0 0 .1-.89Zm3.3-2L333.6 313.2a1.26 1.26 0 0 0-1.37.06 1.34 1.34 0 0 1 1.19.05c.13.73 42.59 25 41.39 26.23a.44.44 0 0 0 .1-.84Z"/></g><path class="cls-114" d="M437.61 295.54h-7.8c-1.34-5.37-3.24-12.12-.58-17.37Z"/><path class="cls-115" d="M421.75 338.47c2.39.86 31.62 20.74 33.78 20 1 .13 6.09-.15 3.55 2-3.12 2.29-6.69 3.77-10.48 2.93-2.66 1-31.93-18.84-34.79-20.11v-1.05Z"/><path class="cls-116" d="M421.75 337.42c4.09 1.8 32.57 22.25 36.94 20.26 2.6.86.28 2.88-1.14 3.46-4 2.33-9.57 1.92-13.6-.22l-30.14-18.6Z"/><path class="cls-5" d="M442.37 355.81a1.54 1.54 0 0 0 1.31-2.17c-.92-.53-9.55-26.7-11.75-24.08a1.58 1.58 0 0 0-.72 2c.6.51 9.79 25.55 11.16 24.25Z"/><path class="cls-5" d="M424.47 345.28c.86 1.05 8.75-13.11 9.25-13.45a1.61 1.61 0 0 0-.39-2.14 1.39 1.39 0 0 0-2 .42l-8.05 12.77a1.56 1.56 0 0 0 1.19 2.4Z"/><path class="cls-5" d="M438.88 349a1 1 0 0 0 .33-2c-.72.19-14.93-7.1-14.9-4.81a1 1 0 0 0 .56 1.32c.33.09 13.68 5.57 14.01 5.49Z"/><path class="cls-115" d="M443.2 324.62c2.38.86 31.62 20.75 33.78 20 1 .13 6.09-.15 3.55 2-3.12 2.29-6.7 3.76-10.48 2.93-2.67 1-31.94-18.84-34.79-20.11v-1Z"/><path class="cls-116" d="M443.2 323.57c4.09 1.8 32.57 22.25 36.94 20.26 2.6.86.27 2.88-1.15 3.46-4 2.33-9.57 1.92-13.59-.22l-30.14-18.6Z"/><path class="cls-5" d="M463.81 342a1.55 1.55 0 0 0 1.32-2.17c-.92-.53-9.56-26.7-11.76-24.08a1.59 1.59 0 0 0-.72 2c.61.47 9.77 25.51 11.16 24.25Z"/><path class="cls-5" d="M445.92 331.43c.85 1.05 8.74-13.11 9.24-13.45a1.6 1.6 0 0 0-.39-2.14 1.39 1.39 0 0 0-2 .41l-8 12.78a1.56 1.56 0 0 0 1.15 2.4Z"/><path class="cls-5" d="M460.32 335.17a1 1 0 0 0 .34-2L447 327.76c-1.16-.48-1.85 1.48-.67 1.93.31.06 13.67 5.54 13.99 5.48Z"/><path d="M400.05 338.23c7.36 3.3 4.27-9.38 0-11.05l-28.95-17.9c-2.48-1.53-4.5-.3-4.51 2.75a10.74 10.74 0 0 0 4.48 8.3Z" style="fill:#331d27"/><path class="cls-5" d="M402.75 337.66c2.38-2.68-.7-8-3.16-9.57l-28.95-17.89c-5.75-2.45-2.09 8.18.95 9.22.25-.14 31.85 20.58 31.16 18.24Z"/><path class="cls-10" d="M403.34 336.9c1-3-1.33-7.28-3.75-8.81l-28.95-17.89a3.24 3.24 0 0 0-1.3-.51c-1 3 1.33 7.29 3.75 8.81l29 17.9a3.43 3.43 0 0 0 1.25.5Z"/><path class="cls-5" d="m370.58 308.43-1.94 1.2 5.24 9.71c6.62-2.45.81-10.12-3.3-10.91Z"/><path class="cls-118" d="M367.55 312.19c0-2.53 1.66-3.55 3.71-2.29 3.49 1.37 6.08 11.88 0 9.16a8.89 8.89 0 0 1-3.71-6.87Z"/><path class="cls-10" d="M369 310.37c3.08-.8 6.63 5.77 4.44 8.23-3 .84-6.6-5.84-4.44-8.23Z"/><path class="cls-16" d="M369.43 310.23c2.93.12 5.73 5.3 4.36 8.07-2.93-.11-5.73-5.3-4.36-8.07Z"/><path class="cls-10" d="M371 312.83c1-.26 2.2 1.92 1.47 2.73-1.02.29-2.22-1.94-1.47-2.73Z"/><path class="cls-5" d="m391.17 324.75-1.08.66 2.91 5.39c3.36-.8.9-7.14-1.83-6.05Z"/><path class="cls-118" d="M389.49 326.84c.46-3.87 4.46.37 4.11 2.53-.47 3.87-4.47-.37-4.11-2.53Z"/><path class="cls-10" d="M390.31 325.83c1.71-.45 3.68 3.19 2.46 4.55-1.68.47-3.68-3.23-2.46-4.55Z"/><path class="cls-16" d="M390.53 325.75c1.62.07 3.17 2.94 2.41 4.47-1.62-.06-3.17-2.94-2.41-4.47Z"/><path class="cls-10" d="M391.39 327.19c.57-.15 1.22 1.06.82 1.51-.56.16-1.21-1.07-.82-1.51Z"/><path class="cls-5" d="m385.16 321-1.08.66 2.91 5.38c3.36-.75.91-7.04-1.83-6.04Z"/><path class="cls-118" d="M383.48 323.12c.47-3.86 4.47.38 4.11 2.54-.46 3.87-4.46-.37-4.11-2.54Z"/><path class="cls-10" d="M384.31 322.12c1.7-.45 3.67 3.19 2.46 4.55-1.69.47-3.68-3.23-2.46-4.55Z"/><path class="cls-16" d="M384.52 322c1.62.06 3.18 2.93 2.42 4.47-1.62-.02-3.18-2.9-2.42-4.47Z"/><path class="cls-10" d="M385.39 323.48c.56-.15 1.22 1.06.81 1.51-.56.16-1.2-1.07-.81-1.51Z"/><path class="cls-5" d="m379.15 317.33-1.07.66 2.9 5.38c3.37-.79.91-7.13-1.83-6.04Z"/><path class="cls-118" d="M377.48 319.41c.46-3.87 4.46.37 4.11 2.54-.47 3.87-4.47-.37-4.11-2.54Z"/><path class="cls-10" d="M378.3 318.4c1.71-.44 3.67 3.2 2.46 4.56-1.68.47-3.68-3.23-2.46-4.56Z"/><path class="cls-16" d="M378.52 318.33c1.62.06 3.17 2.93 2.41 4.47-1.62-.06-3.17-2.94-2.41-4.47Z"/><path class="cls-10" d="M379.38 319.77c.57-.15 1.22 1.06.82 1.51-.56.16-1.2-1.08-.82-1.51ZM399.8 326.81l-1.94 1.2 5.25 9.71 1.94-1.19c1.28-2.95-1.05-11.45-5.25-9.72Z"/><path class="cls-118" d="M396.78 330.58c0-2.53 1.66-3.55 3.71-2.29 3.48 1.36 6.07 11.87 0 9.16a8.91 8.91 0 0 1-3.71-6.87Z"/><path class="cls-10" d="M398.27 328.76c3.07-.81 6.62 5.77 4.44 8.22-3.04.85-6.65-5.83-4.44-8.22Z"/><path class="cls-16" d="M398.66 328.62c2.92.12 5.72 5.3 4.35 8.06-2.92-.1-5.73-5.3-4.35-8.06Z"/><path class="cls-10" d="M400.21 331.22c1-.27 2.2 1.91 1.48 2.73-1.01.28-2.21-1.95-1.48-2.73Z"/><path class="cls-16" d="M403.25 338.56c6.58-3.94 12-5.81 5.48-14.38-1.8-1.86-4.37-2.92-6.46-4.36l-7.69-4.75c-4.49-2.76-11.06-6.87-15.52-9.61a4 4 0 0 0-5.55 0c-1.37.87-4.19 2.6-5.57 3.46 1.65-1 3.47.56 4.91 1.4l3.71 2.29 11.81 7.39 9.13 5.63c4.2 1.75 9.71 8.49 5.75 12.93Z"/><path class="cls-10" d="M404.56 335.47a10.75 10.75 0 0 0-4.48-8.3l-28.95-17.9c-7.36-3.3-4.27 9.39 0 11.05l28.95 17.9c2.45 1.53 4.47.3 4.48-2.75Zm-1.81 2.18c.65 2.37-30.88-18.41-31.16-18.24-3-1-6.71-11.67-.95-9.23l28.95 17.9c2.46 1.56 5.52 6.92 3.16 9.57Z"/><path class="cls-10" d="m399.78 327 7.06-4.36-.85-.53-7.06 4.36.85.53z"/><path class="cls-10" d="m404.33 323.66-1.1-.68-2.85 1.76 1.11.68 2.84-1.76zM397.5 325.59l7.06-4.36-.86-.52-7.05 4.35.85.53z"/><path class="cls-10" d="m402 322.28-1.1-.68-2.84 1.76 1.1.68 2.84-1.76zM395.21 324.18l7.06-4.36-.85-.52-7.06 4.35.85.53z"/><path class="cls-10" d="m399.68 320.9-1.11-.68-2.84 1.76 1.1.67 2.85-1.75zM392.93 322.77l7.06-4.35-.85-.53-7.06 4.36.85.52z"/><path class="cls-10" d="m397.35 319.52-1.1-.68-2.84 1.75 1.1.68 2.84-1.75zM390.65 321.36l7.06-4.35-.85-.53-7.06 4.36.85.52z"/><path class="cls-10" d="m395.02 318.14-1.1-.68-2.84 1.75 1.1.68 2.84-1.75zM388.37 319.96l7.06-4.36-.85-.53-7.06 4.36.85.53z"/><path class="cls-10" d="m392.7 316.76-1.1-.68-2.85 1.75 1.11.68 2.84-1.75zM386.09 318.55l7.06-4.36-.86-.53-7.06 4.36.86.53z"/><path class="cls-10" d="m390.37 315.38-1.1-.68-2.84 1.75 1.1.68 2.84-1.75z"/><path class="cls-10" d="m386.09 318.55 7.06-4.35-.85-.53-7.06 4.36.85.52z"/><path class="cls-10" d="m390.55 315.27-1.1-.67-2.84 1.75 1.1.68 2.84-1.76zM383.81 317.15l7.06-4.36-.85-.53-7.06 4.36.85.53z"/><path class="cls-10" d="m388.23 313.89-1.1-.68-2.85 1.76 1.11.68 2.84-1.76zM381.53 315.74l7.05-4.36-.85-.52-7.06 4.35.86.53z"/><path class="cls-10" d="m385.9 312.51-1.1-.68-2.84 1.76 1.1.68 2.84-1.76zM379.25 314.33l7.05-4.35-.85-.53-7.06 4.36.86.52z"/><path class="cls-10" d="m383.58 311.13-1.11-.68-2.84 1.76 1.1.68 2.85-1.76zM377.12 312.99l7.06-4.35-.85-.53-7.06 4.36.85.52z"/><path class="cls-10" d="m381.1 310.01-1.1-.68-2.84 1.76 1.1.68 2.84-1.76zM375.13 311.75l7.06-4.35-.85-.53-7.06 4.36.85.52z"/><path class="cls-10" d="m379.06 308.8-1.1-.68-2.84 1.75 1.1.68 2.84-1.75zM372.85 310.34l7.05-4.35-.84-.53-7.06 4.36.85.52z"/><path class="cls-10" d="m376.74 307.42-1.1-.68-2.84 1.75 1.1.68 2.84-1.75zM370.53 309l7.06-4.36c-.89-1.37-7.41 3.82-8.24 4a3.6 3.6 0 0 1 1.18.36Z"/><path class="cls-10" d="m371.57 307.79 2.84-1.76-.9-.55-2.83 1.76ZM401.67 328.53l7.06-4.35a8.31 8.31 0 0 0-.67-.66l-7.06 4.35a8.22 8.22 0 0 1 .67.66Z"/><path class="cls-10" d="m406.06 325.29-.71-.93-2.85 1.75.72.94 2.84-1.76zM403.14 330.56l7-4.35c-.15-.27-.31-.53-.48-.79l-7.05 4.35a8 8 0 0 1 .53.79Z"/><path class="cls-10" d="m407.6 327.26-.6-1.02-2.84 1.75.6 1.02 2.84-1.75zM404.15 332.9l7-4.35c-.09-.29-.19-.58-.31-.88l-7 4.35a9.18 9.18 0 0 1 .31.88Z"/><path class="cls-10" d="m408.79 329.5-.41-1.13-2.84 1.76.4 1.12 2.85-1.75zM404.56 335.57l7-4.34a6.9 6.9 0 0 0 0-1l-7 4.34a6.9 6.9 0 0 1 0 1Z"/><path class="cls-10" d="m409.44 332.03-.22-1.2-2.84 1.75.22 1.21 2.84-1.76zM403.25 338.56c.83-.68 7.76-4.34 8-5.48-1.03.56-7.58 4.53-8 5.48Z"/><path class="cls-10" d="m409.44 334.58.18-1.17-2.84 1.75-.18 1.18 2.84-1.76z"/><path class="cls-119" d="M370.77 305.34h-.85v-1.3l.85-.1v1.4z"/><path class="cls-119" d="m370.88 307.07 35.51 21.87 6.08-3.75-38.4-23.65c-1.67.99-6.23 3.17-3.19 5.53Z"/><path class="cls-120" d="m370.88 306 35.51 21.87 6.08-3.75-38.4-23.66c-1.67.95-6.23 3.14-3.19 5.54Z"/><g class="cls-1"><path class="cls-10" d="M386.41 275.17 375.47 282a1.51 1.51 0 0 1 1.62.16l10.91-6.82a1.51 1.51 0 0 0-1.59-.17ZM377.3 282.34l10.94-6.86-.21-.14-10.94 6.85c.07.05.14.09.21.15ZM415.94 319.58l10.94-6.85.01-4.04-10.94 6.85-.01 4.04z"/><path class="cls-6" d="m373.89 289.57-.02 10.96 42.06 25.97.02-10.96-.01 4.04-42.05-30.01z"/><path class="cls-5" d="m387.43 281.16 36.43 29.41-7.91 4.97-.01 4.04-42.05-30.01 13.54-8.41z"/><path class="cls-5" d="m385.66 288.46 10.94-6.85-8.36-6.13-10.94 6.86 8.36 6.12z"/><path class="cls-10" d="m388.56 292.81 10.93-6.85-2.89-4.35-10.94 6.85 2.9 4.35z"/><path class="cls-6" d="m415.93 323.61 10.94-6.85.02-8.07-10.94 6.85-.02 8.07z"/><path class="cls-10" d="M377.09 282.19c-3.27-2.17-2.52 6-3.2 7.38l42.05 30v-9.74l-27.41-17-2.9-4.36c-.26-.21-8.2-6.07-8.54-6.28ZM415.95 315.54l10.94-6.85.01-5.71-10.93 6.85-.02 5.71z"/><path class="cls-5" d="m415.97 309.83 10.93-6.85-27.41-17.02-10.93 6.85 27.41 17.02z"/></g><path class="cls-120" d="m439.31 344.52 23.7-14.72-.81-5.45-23.7 14.72.81 5.45z"/><path d="M408 305.5c11.25 8.85 21.33 20.22 30.5 33.57l23.7-14.73C453 311 443 299.62 431.7 290.78c-7.25 4.51-16.39 10.22-23.7 14.72Z" style="fill:#ff463d"/><path class="cls-119" d="m399.22 324.62 29.61 18.28 10.49 1.63c-1.5-13.09-22.68-31.62-31.31-39-2.16 4.65-6.69 14.53-8.79 19.09Z"/><path class="cls-120" d="M438.06 336c-3.55-3.65-2-10.87 3.92-6.23Z"/><path class="cls-13" d="M443 331.7c-1.72-7.37-9.51 6.67-2.58 4.66a5.57 5.57 0 0 0 2.58-4.66Z"/><path class="cls-6" d="M443.59 332c-1.72-7.37-9.51 6.67-2.58 4.66a5.57 5.57 0 0 0 2.58-4.66Z"/><path class="cls-24" d="M440.83 330.87c-2.23.8-3.37 6.72.16 5.28 2.23-.8 3.38-6.72-.16-5.28Z"/><path class="cls-27" d="M440.64 331c-1.27.54-3.29 4.79-.51 3.83 1.22-.54 2.35-3.61.51-3.83Z"/><path class="cls-120" d="M456.45 324.9c-3.55-3.64-2-10.86 3.91-6.22Z"/><path class="cls-13" d="M461.42 320.61c-1.72-7.38-9.51 6.66-2.58 4.65a5.55 5.55 0 0 0 2.58-4.65Z"/><path class="cls-6" d="M462 321c-1.73-7.38-9.52 6.66-2.59 4.65A5.56 5.56 0 0 0 462 321Z"/><path class="cls-24" d="M459.21 319.77c-2.23.81-3.37 6.72.17 5.28 2.22-.8 3.37-6.72-.17-5.28Z"/><path class="cls-27" d="M459 319.88c-1.27.54-3.3 4.79-.52 3.84 1.25-.52 2.38-3.6.52-3.84Z"/><path d="M397 320.53c.48.86 2 1.69 3.07 2.23l2.4-5.24a25.38 25.38 0 0 1 .16-3.34h-4.72c-.05 2.33-.82 3.82-.91 6.35Z"/><path class="cls-6" d="M419 298.68c9.87 7.89 21.38 20.55 30.54 33.54l5-3.11c-8.93-12.8-20.18-25.37-30.16-33.78Z"/><path style="fill:#0089a1;opacity:.2" d="m413.63 310.22 23.98-14.68-8.38-17.37-23.97 14.68 8.37 17.37z"/><path class="cls-114" d="M413.63 310.22h-7.8c-1.33-5.37-3.23-12.11-.57-17.37Z"/></g></g></g></svg>