<svg xmlns="http://www.w3.org/2000/svg" xmlns:xlink="http://www.w3.org/1999/xlink" viewBox="0 0 578.17 366.53"><defs><linearGradient id="Безымянный_градиент_4" x1="353.48" y1="97.87" x2="361.67" y2="102.6" gradientUnits="userSpaceOnUse"><stop offset=".59" stop-color="#6f6f6f"/><stop offset=".59" stop-color="gray"/><stop offset=".59" stop-color="#8f8f8f"/></linearGradient><linearGradient id="Безымянный_градиент_644" x1="75.6" y1="169.16" x2="72.41" y2="174.69" gradientUnits="userSpaceOnUse"><stop offset=".49" stop-color="#6092a3"/><stop offset=".51" stop-color="#c4e3ff"/></linearGradient><linearGradient id="Безымянный_градиент_2" x1="298.35" y1="63.93" x2="293.83" y2="63.93" gradientUnits="userSpaceOnUse"><stop offset=".56" stop-color="#b22f20"/><stop offset=".57" stop-color="#ce4636"/></linearGradient><linearGradient id="Безымянный_градиент_332" x1="281.31" y1="71.82" x2="283.16" y2="75.03" gradientUnits="userSpaceOnUse"><stop offset="0" stop-color="#3a3a3a"/><stop offset="1" stop-color="#2e2e2f"/></linearGradient><linearGradient id="Безымянный_градиент_350" x1="341.66" y1="77.02" x2="342.65" y2="76.87" gradientUnits="userSpaceOnUse"><stop offset=".52" stop-color="#111214"/><stop offset=".55" stop-color="#1b1e20"/><stop offset=".6" stop-color="#292d2f"/></linearGradient><linearGradient id="Безымянный_градиент_3" x1="334.36" y1="84.44" x2="354.84" y2="82.87" gradientUnits="userSpaceOnUse"><stop offset="0" stop-color="#b22f20"/><stop offset="1" stop-color="#b73526"/></linearGradient><linearGradient id="Безымянный_градиент_18" x1="455.34" y1="212.11" x2="456.92" y2="214.84" gradientUnits="userSpaceOnUse"><stop offset="0" stop-color="#eeeeea"/><stop offset=".42" stop-color="#ecece7"/><stop offset=".75" stop-color="#e4e4dd"/><stop offset="1" stop-color="#dbdad0"/></linearGradient><linearGradient id="Безымянный_градиент_4-2" x1="351.01" y1="87.56" x2="363.34" y2="94.67" xlink:href="#Безымянный_градиент_4"/><linearGradient id="Безымянный_градиент_4-3" x1="356.4" y1="106.55" x2="358.07" y2="107.52" gradientTransform="matrix(1 -.58 0 1 0 190.3)" xlink:href="#Безымянный_градиент_4"/><linearGradient id="Безымянный_градиент_2-2" x1="128.38" y1="202.95" x2="123.93" y2="202.95" xlink:href="#Безымянный_градиент_2"/><linearGradient id="Безымянный_градиент_332-2" x1="139.94" y1="224.44" x2="141.62" y2="227.33" xlink:href="#Безымянный_градиент_332"/><style>.cls-1{isolation:isolate}.cls-3{fill:#3c3c3b}.cls-18,.cls-25,.cls-26,.cls-4{fill:#fff}.cls-5{fill:#c6c6c6}.cls-8{fill:#1d1d1b}.cls-18,.cls-64,.cls-96{opacity:.5}.cls-9{fill:#3e312c}.cls-10{fill:#1d1715}.cls-11{fill:#dadada}.cls-12{fill:#ededed}.cls-13{fill:#dad1d1}.cls-14{fill:#575756}.cls-15{fill:#615653}.cls-16{fill:#695d59}.cls-17{fill:#8fd1cf}.cls-19{fill:#514845}.cls-22{fill:#f2b345}.cls-23{fill:#c2481e}.cls-25,.cls-70,.cls-98{opacity:.2}.cls-26,.cls-33{opacity:.1}.cls-27{fill:#ffb}.cls-29{fill:#ffd2a1}.cls-30{fill:#f9b233}.cls-31{fill:#23839a}.cls-33{fill:#21211f}.cls-34{fill:#ffbd49}.cls-35{fill:#dbdad0}.cls-36{fill:#4d4f4a}.cls-37{fill:#2d2c2b}.cls-38{fill:#3d3c3a}.cls-39{fill:#a09a8e}.cls-40{fill:#938d82}.cls-41{fill:#b6b1a5}.cls-42{fill:#d9d4cd}.cls-43,.cls-46,.cls-47{fill:#eeeeea}.cls-46,.cls-95,.cls-96,.cls-97{mix-blend-mode:screen}.cls-46,.cls-47,.cls-67{opacity:.4}.cls-49{fill:#5a5656}.cls-49,.cls-94{opacity:.8}.cls-51{fill:#443f3f}.cls-51,.cls-64,.cls-69,.cls-89,.cls-98{mix-blend-mode:multiply}.cls-51,.cls-69{opacity:.6}.cls-52{fill:#2d2a2a}.cls-53{fill:#3a3a3a}.cls-54{fill:#262626}.cls-55,.cls-61{fill:#bbb}.cls-112,.cls-55,.cls-89,.cls-97{opacity:.3}.cls-56{fill:#a94b17}.cls-57{fill:#d78712}.cls-58{fill:#d3dee2}.cls-59{fill:#a5a5a5}.cls-60{fill:#d5d5d5}.cls-62{fill:#bc6a19}.cls-63{fill:#3f423c}.cls-65,.cls-69,.cls-70{fill:#c9c8bf}.cls-66{fill:#3d3939}.cls-68{fill:#dbdad3}.cls-71{fill:#b2d59c}.cls-73{fill:#d84f3f}.cls-75{fill:#b22f20}.cls-76{fill:#191919}.cls-77{fill:#332e2a}.cls-78{fill:#9b9384}.cls-80{fill:#c46f00}.cls-83{fill:#696969}.cls-89{fill:#a3382c}.cls-91{fill:#2e2e2f}.cls-93{fill:#cae8ea}.cls-94{fill:#6b8a8e}.cls-95{fill:#dcfdff}.cls-96{fill:#aecdd1}.cls-97,.cls-98{fill:#b54033}.cls-100{fill:#e9e5e0}.cls-101{fill:#c93c2b}.cls-103{fill:#cc4333}.cls-107{fill:#9b2323}.cls-108{fill:#d6952d}.cls-109{fill:#bdd5d6}.cls-110{fill:#45968a}.cls-111{fill:#2e3e82}.cls-112{fill:#0089a1}.cls-113{fill:#4f4238}.cls-114{fill:#a48a7b}.cls-116{fill:#b2b2b2}.cls-117{fill:#d42f27}.cls-118{fill:#751a16}</style></defs><g class="cls-1"><g id="Слой_2" data-name="Слой 2"><g id="машины"><path style="fill:#4f4f4f" d="M0 177.85 289.08 0l289.09 177.85L289.08 355.7 0 177.85z"/><path class="cls-3" d="M403.11 86.55a18.21 18.21 0 0 1-18.28 0l-62.4-36.86c-6.08-3.77-17.44-3.77-23.52 0L64 188.47c-5.3 3-5.52 7.28 0 10.26l209.57 123.82a25.77 25.77 0 0 0 23.52 0L532 183.76c2.44-1.43 3.94-3.23 4.35-5.13 4-2.92-74.39-45.41-75.55-47.2-4.69-2.76-4.74-11.38 0-14.15l11-6.51-54.8-32.4Z"/><path class="cls-4" d="m494.38 209.63-2.52 1.48-79.03-46.69 2.51-1.49 79.04 46.7z"/><path class="cls-4" d="m418.08 161.31 2.52 1.49-8 4.72-2.51-1.48 7.99-4.73zM442.41 240.33l-2.51 1.48-79.03-46.69 2.51-1.49 79.03 46.7z"/><path class="cls-4" d="m366.12 192.01 2.51 1.49-7.99 4.72-2.51-1.48 7.99-4.73zM390.45 271.03l-2.51 1.48-79.04-46.69 2.52-1.49 79.03 46.7z"/><path class="cls-4" d="m314.16 222.71 2.51 1.49-7.99 4.72-2.52-1.48 8-4.73zM338.49 301.73l-2.52 1.48-79.03-46.69 2.51-1.49 79.04 46.7z"/><path class="cls-4" d="m262.19 253.41 2.52 1.49-8 4.72-2.51-1.48 7.99-4.73zM101.62 164.76l2.52-1.49 79.03 46.69-2.51 1.49-79.04-46.69z"/><path class="cls-4" d="m177.91 213.07-2.51-1.49 8-4.72 2.51 1.48-8 4.73zM153.59 134.06l2.51-1.49 79.03 46.69-2.51 1.49-79.03-46.69z"/><path class="cls-4" d="m229.88 182.37-2.51-1.49 7.99-4.72 2.51 1.49-7.99 4.72zM205.55 103.36l2.51-1.49 79.03 46.69-2.51 1.49-79.03-46.69z"/><path class="cls-4" d="m281.84 151.67-2.51-1.49 7.99-4.72 2.51 1.48-7.99 4.73zM257.51 72.66l2.51-1.49 79.04 46.69-2.51 1.49-79.04-46.69z"/><path class="cls-4" d="m333.8 120.97-2.51-1.49 8-4.72 2.51 1.49-8 4.72z"/><path class="cls-5" d="M533.26 186 298.35 324.78a28.17 28.17 0 0 1-26 0L62.74 201c-3.29-1.95-5.26-4.53-5.66-7.37-.52 3.81 1.61 7.07 5.66 9.51l209.57 123.78a28.09 28.09 0 0 0 26 0l234.95-138.78c4.06-2.44 6.16-5.69 5.66-9.51-.4 2.84-2.37 5.42-5.66 7.37ZM476.16 111.18l-14.11 8.34a4.38 4.38 0 0 0-2 4.84c0-2.91 14.29-9.45 16.11-11ZM460.79 131.43c1.9 2.18 78.66 43.78 75.56 47.2 3.31-10.59-78.74-44.5-78.85-54.27a6.92 6.92 0 0 0 3.29 7.07Z"/><path class="cls-5" d="M64 188.47 298.91 49.69a23.45 23.45 0 0 1 11.76-2.85C319 43.91 377 83.29 384.83 86.55c10.48 7.25 23.25-3.06 32.13-8.18v-2.15c-9.2 5.26-21.34 15.37-32.14 8.19l-62.4-36.87c-6.08-3.77-17.44-3.77-23.52 0L64 186.32c-3.25 2-4.94 4.37-4.35 7.28.41-1.9 1.91-3.69 4.35-5.13Z"/><path class="cls-4" d="m533.26 169.12-71.21-42.07a4.3 4.3 0 0 1-2-2.69 4.38 4.38 0 0 1 2-4.84l14.11-8.34-2.52-1.48c-6.2 4.22-24 10.27-12.85 19.59L532 171.35c6 3.37 5.81 9.18 0 12.41L297.09 322.55c-6.08 3.76-17.44 3.77-23.52 0L64 198.73c-5.76-3.24-6-9 0-12.41L298.91 47.54a23.55 23.55 0 0 1 11.76-2.85c8.15-3 66.46 36.52 74.16 39.72 10.48 7.24 23.26-3.06 32.14-8.19l-2.52-1.49c-8 4.56-19 13.73-28.36 7.44l-62.4-36.86c-6.84-4.22-19.2-4.23-26 0L62.74 184.09c-7.63 4.28-7.54 12.68 0 16.88l209.57 123.81a28.17 28.17 0 0 0 26 0L533.26 186c7.5-4.2 7.67-12.6 0-16.88Z"/><path d="M192.61 158.77c3.49 2.06 3.49 5.4 0 7.46-5 4.18-21.53-.59-12.62-7.46a13.66 13.66 0 0 1 12.62 0Z" style="opacity:.5;fill:#1d1d1b"/><path class="cls-8" d="M168.26 134.82c5 1 68.3 45.48 72.64 38.1l26.06-15c2.59-1.53 2.59-4 0-5.56-4.95-1-68.3-45.48-72.64-38.1l-26.06 15c-2.59 1.53-2.59 4.03 0 5.56Z" style="opacity:.5"/><path class="cls-9" d="m194.83 118.72-20.47 12.09v-10.44l20.46-12.09.01 10.44zM239.43 145.06l-20.47 12.09v-10.43l20.47-12.09v10.43z"/><path class="cls-10" d="m228.01 148.42 10.43 18.47-5.44 3.21-10.42-18.47 5.43-3.21z"/><path class="cls-10" d="M225.64 153.44c0 4.81 3.3 10.66 7.38 13.06 12.13 5.13 6.86-14.89 0-17.43-4.09-2.4-7.39-.45-7.38 4.37Z"/><path class="cls-10" d="M231.58 163.3a9 9 0 0 0-4-7c-6.5-2.76-3.68 8 0 9.33 2.23 1.29 4 .24 4-2.33Z"/><path class="cls-10" d="M235 165.31c1.28-7.39-13.05-22-14.75-8.69-1.25 7.38 13.06 22 14.75 8.69Zm-2.83-1.67c-1 8.2-9.87-.8-9.08-5.35 1.04-8.2 9.91.8 9.08 5.35Z"/><path class="cls-11" d="M232.85 164a11.84 11.84 0 0 0-5.23-9.25c-2.88-1.7-5.21-.31-5.21 3.09-.91 5.28 9.24 15.63 10.44 6.16Zm-.57-.33c-1.07 8.41-10.12-.82-9.31-5.49 1.03-8.37 10.12.82 9.31 5.53Z"/><path class="cls-12" d="M230.83 162.85c.56-3.21-5.67-9.55-6.4-3.77-.56 3.21 5.66 9.55 6.4 3.77Zm-1.19-.7c-.46 3.63-4.37-.36-4-2.37.44-3.64 4.36.35 4 2.37Z"/><path class="cls-13" d="M229.64 162.15c.35-2-3.56-6-4-2.37-.37 2.01 3.54 6 4 2.37Zm-1.24.18c.26-.16.67.58.41.72s-.68-.58-.41-.72Zm-.94 0c0-.31.37 0 .34.19-.04.31-.37-.02-.34-.19Zm-1-1.15c.26-.16.68.58.41.72s-.68-.58-.42-.72Zm-.06-1.14c.16.05.28.51 0 .39s-.28-.51-.01-.43Zm.47-.44c-.26.16-.68-.58-.41-.72s.66.58.4.72Zm.93 0c0 .31-.36 0-.33-.2s.35.03.32.2Zm.6 1.82c-.17 1.37-1.66-.14-1.53-.91.13-1.38 1.66.14 1.52.91Zm.41-.67c-.26.16-.67-.58-.4-.72s.66.58.39.72Zm.23 1c0 .31-.36 0-.33-.2s.35.07.29.24Z"/><path class="cls-5" d="M229.64 162.15c.35-2-3.56-6-4-2.37-.37 2.01 3.54 6 4 2.37Zm-1.24.18c.26-.16.67.58.41.72s-.68-.58-.41-.72Zm-.94 0c0-.31.37 0 .34.19-.04.31-.37-.02-.34-.19Zm-1-1.15c.26-.16.68.58.41.72s-.68-.58-.42-.72Zm-.06-1.14c.16.05.28.51 0 .39s-.28-.51-.01-.43Zm.47-.44c-.26.16-.68-.58-.41-.72s.66.58.4.72Zm.93 0c0 .31-.36 0-.33-.2s.35.03.32.2Zm.6 1.82c-.17 1.37-1.66-.14-1.53-.91.13-1.38 1.66.14 1.52.91Zm.41-.67c-.26.16-.67-.58-.4-.72s.66.58.39.72Zm.23 1c0 .31-.36 0-.33-.2s.35.07.29.24Z"/><path class="cls-13" d="M232.28 163.71c.81-4.67-8.24-13.9-9.31-5.49-.81 4.67 8.24 13.9 9.31 5.49Zm-1.69 1c.37-.43 1.18.85.89 1.13s-1.18-.84-.89-1.11Zm-3 0c-3-1.1-5.27-9.8 0-7.57 3.02 1.14 5.31 9.86.04 7.61Zm1.71.72c.39-.11 1.06 1.25.52 1.36s-1.02-1.21-.48-1.32Zm-2.15-.12c.25-1.4 1.57 1.19.44.87a1.1 1.1 0 0 1-.4-.83Zm-1.91-2c.43-.52 1.09.62.77 1-.39.52-1.01-.62-.73-.96ZM224 160.7c.47-.11 1.09 1.05.45 1.16-.45.14-1.09-1.04-.45-1.16Zm-.3-2.58a1.11 1.11 0 0 1 .51.83c-.29 1.16-1.83-1.3-.51-.83Zm1-.92c-.38.43-1.18-.86-.89-1.14s1.19.86.86 1.14Zm1.25-.74c-.4.11-1.06-1.25-.52-1.36.36-.1 1.03 1.25.49 1.36Zm2.15.12c-.25 1.4-1.58-1.2-.45-.87a1.1 1.1 0 0 1 .42.87Zm1.9 2c-.43.52-1.08-.62-.76-1 .4-.48 1.06.66.76 1Zm1.28 2.65c-.46.11-1.08-1-.44-1.16.44-.07 1.05 1.04.41 1.16Zm.83 2.36c-.12.78-1.12-.18-1-.61.06-.79 1.05.18.97.61Z"/><path class="cls-10" d="m183.08 121.75 10.42 18.47-5.43 3.2-10.42-18.47 5.43-3.2z"/><path class="cls-10" d="M180.7 126.76c0 4.82 3.31 10.67 7.38 13.07 12.13 5.13 6.86-14.89 0-17.43-4.08-2.4-7.38-.4-7.38 4.36Z"/><path class="cls-10" d="M186.64 136.62a9 9 0 0 0-3.95-7c-6.49-2.76-3.68 8 0 9.33 2.18 1.29 3.95.25 3.95-2.33Z"/><path class="cls-10" d="M190.07 138.64c1.28-7.39-13.06-22-14.75-8.7-1.32 7.4 13.05 22.06 14.75 8.7Zm-2.84-1.64c-1 8.19-9.86-.81-9.07-5.36 1.04-8.22 9.84.78 9.07 5.36Z"/><path class="cls-11" d="M187.92 137.37a11.9 11.9 0 0 0-5.23-9.25c-2.88-1.7-5.22-.32-5.22 3.09-.9 5.24 9.24 15.59 10.45 6.16Zm-.57-.33c-1.07 8.41-10.12-.83-9.31-5.5 1.07-8.4 10.12.83 9.31 5.46Z"/><path class="cls-12" d="M185.89 136.18c.56-3.21-5.66-9.56-6.4-3.77-.55 3.2 5.67 9.59 6.4 3.77Zm-1.18-.7c-.47 3.63-4.38-.36-4-2.37.44-3.64 4.35.35 4 2.37Z"/><path class="cls-13" d="M184.71 135.48c.35-2-3.56-6-4-2.37-.38 2.01 3.53 6 4 2.37Zm-1.25.18c.27-.17.68.58.41.72s-.67-.58-.41-.72Zm-.93 0c0-.3.36 0 .33.2s-.36-.04-.33-.21Zm-1-1.14c.26-.17.67.58.4.72s-.68-.59-.41-.73Zm-.06-1.15c.15.06.27.52 0 .4s-.29-.52-.01-.41Zm.46-.43c-.26.16-.67-.58-.4-.72s.66.56.39.71Zm.94 0c0 .3-.36 0-.33-.2s.35.02.32.19Zm.6 1.81c-.43 2.06-2.72-2-.77-1.35a1.74 1.74 0 0 1 .76 1.34Zm.41-.66c-.26.16-.67-.58-.41-.72s.67.56.4.71Zm.23 1c0 .3-.37 0-.34-.2s.36.11.33.23Z"/><path class="cls-5" d="M184.71 135.48c.35-2-3.56-6-4-2.37-.38 2.01 3.53 6 4 2.37Zm-1.25.18c.27-.17.68.58.41.72s-.67-.58-.41-.72Zm-.93 0c0-.3.36 0 .33.2s-.36-.04-.33-.21Zm-1-1.14c.26-.17.67.58.4.72s-.68-.59-.41-.73Zm-.06-1.15c.15.06.27.52 0 .4s-.29-.52-.01-.41Zm.46-.43c-.26.16-.67-.58-.4-.72s.66.56.39.71Zm.94 0c0 .3-.36 0-.33-.2s.35.02.32.19Zm.6 1.81c-.43 2.06-2.72-2-.77-1.35a1.74 1.74 0 0 1 .76 1.34Zm.41-.66c-.26.16-.67-.58-.41-.72s.67.56.4.71Zm.23 1c0 .3-.37 0-.34-.2s.36.11.33.23Z"/><path class="cls-13" d="M187.35 137c.81-4.67-8.24-13.9-9.31-5.5-.81 4.71 8.24 13.95 9.31 5.5Zm-1.7 1c.38-.43 1.19.85.9 1.13-.38.49-1.18-.79-.9-1.07Zm-3 0c-3-1.11-5.27-9.8 0-7.57 3.03 1.18 5.35 9.87.05 7.65Zm1.71.72c.39-.11 1.05 1.25.51 1.36-.34.19-1.01-1.17-.46-1.28Zm-2.15-.12c.24-1.4 1.57 1.19.44.87a1.11 1.11 0 0 1-.39-.79Zm-1.91-2c.43-.51 1.09.63.76 1-.38.55-1.06-.6-.71-.93Zm-1.23-2.6c.47-.11 1.08 1 .44 1.16-.51.14-1.08-1.02-.44-1.16Zm-.31-2.58a1.12 1.12 0 0 1 .52.83c-.28 1.19-1.83-1.25-.52-.8Zm1-.92c-.37.42-1.18-.86-.89-1.14s1.13.88.86 1.17Zm1.25-.74c-.39.11-1-1.26-.51-1.36s1.02 1.28.5 1.39Zm2.15.11c-.25 1.41-1.57-1.19-.44-.86a1.09 1.09 0 0 1 .41.89Zm1.91 2c-.43.51-1.09-.62-.77-1 .4-.44 1.06.69.7 1.04Zm1.28 2.65c-.47.11-1.08-1.05-.44-1.17.43-.06 1.09 1.09.41 1.21Zm.82 2.36c-.12.78-1.12-.18-1-.61.06-.75 1.06.21.97.65Z"/><path class="cls-14" d="M249.43 120.3a33.42 33.42 0 0 1-2.54 3l-.66-1 2.79-2.54c.26.15.42.35.41.54Z"/><path class="cls-15" d="M249.44 116.74v3.56a33.42 33.42 0 0 1-2.54 3v-4.35Z"/><path class="cls-16" d="M246.89 119.75c.19-.58 3.55-3 2.13-3.51l-2.79 2.54Z"/><path class="cls-9" d="M268.77 146.13c-.92 6-.92 6.43-6.36 3.15 0-4.31-1.21-9.62-5.14-11.84-5.68-3.51-10-6.72-9.92 2.94l-29.53-17.45c0-4.3-1.23-9.62-5.15-11.84-5.68-3.51-10-6.71-9.92 2.94-1.22-.44-5.09-4.72-6.75-7-1.27-2-.76-4.59-.49-7-1.1-.48-.48-1.93-.31-2.74.34-.5.33-4.25 1.56-3-.45-.43 4.82-7.11 5-7.46 1.1-1.41 2.77-1.41 4.64-.34 10.25 6 24.76 12 33.3 21.29.3.31 8 13.19 8.16 12.8 2 2.35 19.11 15.33 19.21 18.66.16.89 1.82 6.03 1.7 6.89Z"/><path class="cls-9" d="m240.38 162.91 28.39-16.78c-.31 1.38-.43 3.55-1.09 4.8-5.34 6.17-16.16 11.23-28.76 17.08Z"/><path class="cls-15" d="M219.44 137.32c12.45-5.24 22.78-10.73 28.39-16.78 2.23 2.56 19 15.18 19.21 18.67.18.91 1.86 6.08 1.73 6.92-6.16 6.59-16.29 12-28.39 16.78Z"/><path class="cls-16" d="M247.83 120.54c-6.39 9.21-17 14.3-28.39 16.77-3-3.44-7.64-13.92-11.58-16.44A283.55 283.55 0 0 0 178 103.22a3.88 3.88 0 0 0-3.67-.48c2.92-1.72 26.21-15.37 28-16.53 1.06-.77 2.49-.68 4.07.24 10.25 6 24.76 12 33.3 21.29.3.26 8.01 13.2 8.13 12.8Z"/><path class="cls-17" d="M246.6 120.6c-6.17 8.44-16.11 13.23-26.81 15.63-1.48-2.09-6.72-10.76-8.19-13 10.12-3 21.72-9.06 26.86-15.58 1.54 2.35 6.6 10.74 8.14 12.95Z"/><path class="cls-18" d="M245.61 120.33c-.71-1.14-6.37-10.22-7.22-11.6-2.84 3.33-7.14 6.4-11.88 9a36.46 36.46 0 0 1 16.75 5.82 32 32 0 0 0 2.54-2.94Z"/><path class="cls-19" d="M240.38 162.9c-.92 6-.9 6.44-6.35 3.15 0-4.3-1.22-9.62-5.15-11.84-5.67-3.51-10-6.71-9.92 2.94l-29.53-17.45c0-4.3-1.22-9.61-5.15-11.84-5.68-3.51-10-6.72-9.92 2.94-1-.21-4.36-4.26-5.1-5-3-2.89-2.6-7.45-1.68-11.15.11-.55.87-4 1-4.45.38-.57 5.07-7.3 5.54-7.35 7-.81 26.14 13.64 33.77 18 3.95 2.49 8.56 13 11.58 16.44l16.91 14.94c2.41 2 3.43 7.66 4 10.67Z"/><path d="M216.75 134.84c-1.18-1.64-6.32-10.77-7.79-11.88a45.15 45.15 0 0 0-7.28 21.15l15.07 8.9c.63.38 1.15.07 1.15-.67-.34-2.93.96-15.12-1.15-17.5Z" style="fill:#617877"/><path d="M207.75 122c-1.51-.52-7.72-6.3-8.56-4.66v24c0 1.42 1.42 2.27 2.5 2.83A45.15 45.15 0 0 1 209 123c-.36-.32-.75-.63-1.25-1Z" style="fill:#526665"/><path class="cls-9" d="M234.42 166.28c5.35 3.32 5.07 1.92 6-3.38-4.65-3.32-4.95-.67-6 3.38ZM166.81 120.71c-.67 3 5.65 8.39 6.42 9.43-.28-5.46-.73-9.9-6.28-12.26-.02.37-.14 2.83-.14 2.83ZM167.05 117.08c.35.27.91.43 1-.1 0-1.21 2.06-5.47.37-6.27Z"/><path class="cls-22" d="m166.81 114 1.33 1.11c-.22.46-.15 2.51-1.14 1.56-1-.49-.33-1.87-.19-2.67Z"/><path class="cls-23" d="M167.51 111c.1-.49.63-.16.89 0 1.11.49-.25 3.33-.26 4.1l-1.33-1.1Z"/><path class="cls-15" d="M186.61 108.93c3.45 2.52 10 4.45 11.78 8-.54.36 1.14 26.08-.82 24.75l-6.48-3.83a1.74 1.74 0 0 1-.76-1.32 13.91 13.91 0 0 0-6.05-10.09c-3.84-1.3-3.19-6.45-3.17-9.59 0 0 2.7-9.42 5.5-7.92Z"/><path class="cls-17" d="m178 113.39-5.84-3.61c-1.31-1.5 1.79-3.55 2.37-4.89 1.07-1.33 2-1.3 6.59 1.42a1 1 0 0 1 .43 1c-1.09 1.5-2.07 5.19-3.55 6.08Z"/><path class="cls-18" d="M180.8 106.88a17 17 0 0 0-4.49-2.16 20.46 20.46 0 0 1 .39 7.1l1.35.84c.63-1.81 2.62-4.06 2.75-5.78Z"/><path class="cls-17" d="m183 116.43 14.19 8.76c.25.15.45 0 .45-.26-.2-.63.5-8.74-.47-8.85-3.69-2-7.14-4.77-11-6.25-.42-.33-4.53 4.67-3.17 6.6Z"/><path class="cls-18" d="M197 117a.64.64 0 0 0 0-.22c-2.45-1.56-5.05-3-7.52-4.55a32 32 0 0 1 3.58 9.66l4 2.44Z"/><path class="cls-9" d="M168.85 125.37c1 1 4.18 4.95 5.51 5.43l.14-2.09Z"/><path class="cls-4" d="M183.09 119c.11-.06 3.07 2.22 3 1.59.42-1.27-2.28-2.09-3-2.73-.39-.25-.26 1.01 0 1.14Z"/><path class="cls-9" d="m189.25 137.42.18 2.28 29.53 17.45.14-2.09-29.85-17.64zM233.85 163.77l.18 2.28c1.38.6 4.64 3.51 5.54 1.1Z"/><g style="opacity:.2"><path class="cls-3" d="M240 119.31c-4.08-7.52-11.9 10.29-3.23 7 2.23-1.31 3.88-4.45 3.23-7Zm-3.82 6c-4.59 1.69-1.06-6.86 1.66-6.55 2.75 1.02.08 5.59-1.64 6.54Z"/><path class="cls-14" d="M246.6 120.6c-6.17 8.44-16.11 13.23-26.81 15.63-.34-.37-1.22-1.86-1.5-2.3 7.62-5.26 13.8-9.39 20.59-14.3 2.07-.5 4.21-.5 6.06-1.6.32.49 1.3 2.15 1.66 2.57Z"/></g><path class="cls-19" d="M182.26 98.88c-1.86 1.27 33 19.58 33 20.35a1.55 1.55 0 0 0 1.45 0c1.87-1.27-33-19.58-33-20.35a1.57 1.57 0 0 0-1.46 0ZM199.8 88.5c-1.86 1.27 32.94 19.63 32.95 20.4a1.57 1.57 0 0 0 1.46 0c1.86-1.26-32.94-19.63-33-20.4a1.57 1.57 0 0 0-1.46 0Z"/><path class="cls-25" d="M260.68 142.8c-17.74 14.75-18 7.11-33.48-4l21.67-12.92 11.65 13.88a1.83 1.83 0 0 1 .16 3.04Z"/><path class="cls-15" d="M260.4 141.8c-17.49 14.68-18 6.77-33.87-3.49L248.7 125l11.54 13.77a1.81 1.81 0 0 1 .16 3.03Z"/><path class="cls-26" d="M198.08 129.15c-1 .25-27.54-19.31-27.73-15.7-.41.94-.66 2.66.74 2.86 5.22.69 15.36 6.9 27 14ZM193.39 92.3c2.39-.79 9.86-7 12.52-5.13l14.88 7.42c-10.17-4.86-19.6-6.79-27.4-2.29Z"/><path class="cls-27" d="M248.63 158.4c-1.34.44-6.68 4.28-7.93 2.58-.19-.93-1.29-2.91-.13-3.57a43.55 43.55 0 0 0 6.84-3.08c1.22-.94 2.37 3.74 1.22 4.07ZM267.9 146.08a23.64 23.64 0 0 1-4.13 3.52c-1 1-1.12-1.74-1.38-2.19-.11-2.48 3.22-3.14 4.53-5.14 1.08-1.18 1.83 3.42.98 3.81Z"/><path class="cls-26" d="M247.83 121.94a23.16 23.16 0 0 1-3.77 4.3c4.9-1.41 12.4 3.13 16.34 6.58Z"/><path class="cls-19" d="M261.69 151.41c-2.78 1.52-6.92 5.43-10.54 5.33-.13-.17-1-3.51-1.05-3.69 2.54-2.67 7.55-3.75 10.27-6.28a.43.43 0 0 1 .58.27c-.02.68 1.66 3.88.74 4.37Z"/><path class="cls-9" d="M261.1 151.08a54.56 54.56 0 0 1-10 5.66c-.12-.17-1-3.51-1.05-3.69 2.54-2.67 7.55-3.75 10.27-6.28.07.67 1.68 3.83.78 4.31Z"/><path class="cls-15" d="M216.57 135.72c-.06 0-7-6.2-7.1-6.23-.32-1.4-13.41-2.82-13.18-.92.6.68-1.47 26.71 1.32 25.32h19a1.35 1.35 0 0 0 1.33-1.36c-.54-2.41 1.21-15.31-1.37-16.81ZM201.16 140a.25.25 0 0 1-.25.26c-.2-.12-3.56.17-3.43-.35.05-.22-.14-.9.26-.88l3.18.08c.38.03.21.71.24.89Zm15.1-1.88-18.48-.42a.59.59 0 0 1-.57-.59c.22-.27-.5-8.83.42-8.5 3.68.48 8.52-.46 11.26 1.58.25.81 9.83 7.31 7.37 7.96Z"/><path class="cls-4" d="m200.92 139.14-3.18-.08c-.39 0-.38 1.12 0 1.14.21-.11 3.55.39 3.43-.17-.05-.21.13-.89-.25-.89Z"/><path d="M216.71 137.45c0-.66-7.32-6.67-7.82-7.23-2.75-2-7.57-1.1-11.26-1.58-.92-.36-.2 8.26-.42 8.5a.59.59 0 0 0 .57.59l18.48.42a.5.5 0 0 0 .45-.7Z" style="fill:#8fd1cf;opacity:.5"/><path class="cls-18" d="M208.45 130.7c-.46-.77-2.65-1-4-1a12.8 12.8 0 0 1 3.52 7.66l8 .18c.52.12-7.51-6.81-7.52-6.84Z"/><path class="cls-19" d="M217.61 141c-2.79 4-1.68-.83-1.89-2.42l1.89-1.35Z"/><path class="cls-16" d="M217.61 137.19c-.38.32-1.21 2.15-1.89 1.35l1-1.44Z"/><path class="cls-29" d="M196.72 130.76c-.12.44-.82.85-1.05 1.23-.42-.52.86-2 1.38-2.18Z"/><path class="cls-29" d="M195.73 131.72c-.3 1.73 3.24.92 2.85-.21.19-.07.43-.4.14-.48.26-.09.25-.51-.08-.39.39-.84-.94.09-1.25.17-.68 0-1.46.19-1.66.91ZM181.92 139.39c1.23-.11 1.18 1.17 1.07 2 .24.33.31 1.27-.27.77-.39-.71-.26-.75-.71-1.19a6.51 6.51 0 0 1-.09-1.58Z"/><path class="cls-29" d="M180.77 142.19c-.15.32-.09.66.15.67 0 .22.18.56.44.38 1.37.27 1.51-3 .83-3.85-1.25-.2-1.18 1.38-1.5 2.19-.25.42-.03.7.08.61Z"/><path class="cls-29" d="M181.92 139.39c1.23-.11 1.18 1.17 1.07 2 .24.33.31 1.27-.27.77-.39-.71-.26-.75-.71-1.19a6.51 6.51 0 0 1-.09-1.58Z"/><path class="cls-29" d="M180.77 142.19c-.15.32-.09.66.15.67 0 .22.18.56.44.38 1.37.27 1.51-3 .83-3.85-1.25-.2-1.18 1.38-1.5 2.19-.25.42-.03.7.08.61Z"/><path class="cls-30" d="M181.38 139.64c2.24 1.37 1.65-1.08 2.28-4.18-.07-1.55 1.09-3-.39-3.32-.81-.21-1.8-.25-1.88.33a66.56 66.56 0 0 0-.01 7.17Z"/><path class="cls-30" d="M186 126c-2.49-.78-3.62 5.07-4.54 6.44.18.93 2.08.95 2.51.88 1.03-2.94 4.22-5.76 2.03-7.32Z"/><path class="cls-10" d="M192 163.56a.55.55 0 0 1 0 1c-1.06.47-3.24 2.49-4.49 1.61a.55.55 0 0 1 0-1c1.19-.55 3.2-2.47 4.49-1.61Z"/><path class="cls-10" d="m187.14 162.44 2.6.61c1.56-.42 2.61.09 2.61 1l-5.21 1.6ZM181.58 162.33l.24-3.05 2.36.45c1.56-.42 2.61.08 2.61 1 .14.57-2.78 1.84-3.09 2.15-.61.37-2.08.31-2.12-.55Z"/><path class="cls-31" d="M182.86 139.21c0 .22.38 10.43.4 11.06h3.72c0-3.24.09-7 .13-10.27Z"/><path class="cls-31" d="M181.44 160.4a81.72 81.72 0 0 1 2.3-12c1.59-1.27 3.09.09 3.24 1.86.09.79-1.9 10.43-1.9 10.43-.32 1.56-3.88 1.39-3.64-.29Z"/><path d="M185 144.41c1.18 1.53 1.59 3.67 2 5.81l.07-5.06a3.21 3.21 0 0 1-2.07-.75Z" style="opacity:.2;fill:#1d1d1b"/><path class="cls-31" d="M186.1 139.85c.21 3.66 1.27 9.1 1.76 12.74l3.78-.34-1.22-10.71-.08-.69c-.73-.18-3.54-.85-4.24-1Z"/><path class="cls-31" d="M187.86 152.59a1.93 1.93 0 0 1 3.79-.24c.15.78-.62 9.78-.81 11.1s-4.09 2.3-3.93.23a72.88 72.88 0 0 1 .95-11.09Z"/><path class="cls-23" d="M191.83 130.22c-1.12 3.86.85 11.95-4.4 12.45-7.54.71-4.16-8.65-4.39-12.63-.04-7.04 7.12-3.8 8.79.18Z"/><path class="cls-29" d="M187.64 123.05c-.42 1.63.44 4.14 2.5 3.48 1.11-1.38 2.6-5.3.37-6.24-1.95-.46-2.83.71-2.87 2.76Z"/><path class="cls-33" d="M189.27 125.5c-.56 1.28.82 1.56 1.35.47-.59.43-.86-.06-.75-1.53-.2.66-.49.38-.6 1.06Z"/><path class="cls-29" d="m186.94 122.7 3.12.5-.64 4.13-3.12-.5.64-4.13z"/><path class="cls-29" d="M186.87 126.13c-2.53 1.68 4.1 2.76 2.21.36a2.43 2.43 0 0 0-2.21-.36Z"/><path class="cls-10" d="M190.91 122.35c-2.14 1.15.35 5.44-4.52 2.73-2.33-9.23 8.61-4.68 4.52-2.73Z"/><path class="cls-29" d="M189.93 123.18c.59.29.29 1.53-.16 1.83-.61-.08-.47-1.83.16-1.83Z"/><path class="cls-30" d="M186 126.52c-.36 1.78 2.78 2.19 3.68 1a5.06 5.06 0 0 1-.17-.67c-.91.3-3.2.49-3.05-.95a1.48 1.48 0 0 0-.46.62Z"/><path class="cls-33" d="M191.6 132.26c-.93 4 .7 9.88-4.17 10.41 2.57-2.47 2.14-6.67 1.51-11.43h2.63Z"/><path class="cls-34" d="M192.6 135.8c0-.13-.58-4.91-.6-5a1.55 1.55 0 0 0-3.06.47c.53 1.13.29 6.27 2.14 6.18a1.58 1.58 0 0 0 1.52-1.65Z"/><path class="cls-34" d="m195.53 131.5-4.86 3.5c-1.55 1.25.4 3.76 2 2.43.38-.8 6.14-5.56 2.86-5.93Z"/><g id="_5" data-name="5"><g id="_15" data-name="15"><g id="_4" data-name="4"><path class="cls-35" d="M458.78 192.35c-.36-.56-2.34 1.1-2.7 1.18-.54.27-.69 2-.09 2.25l-.05-.06c.19.38 2.31-1.22 2.54-1.25.52-.33.52-1.64.3-2.12Z"/><path class="cls-36" d="M457.67 194.18c-1-.46 0 .67-.24 1.63 0 .63-1.07.89-1.08 1.48.14.29.35.25.39.22 1.26-.46 1.45-2.83.93-3.33Z"/><g class="cls-1"><path class="cls-37" d="M390.12 192.52c-4.07 1.54-5.32 2.48-4.1 6.21l6.51-3.8ZM433.25 220.7c-1.44.83-1.28 3.09-1.26 4.57l23.93-13.91c0-1.48-.18-3.74 1.27-4.57Z"/><g class="cls-1"><path class="cls-37" d="M443.19 225.09c-1.95-4.23-5.4-6.58-9.31-3.25l6.32 10.88c3.56-1.47 4.73-3.83 2.99-7.63Z"/><path class="cls-38" d="M437.05 222.15c-7.3-3.06-4.23 8.71 0 10.26 2.46 1.42 4.47.28 4.47-2.55a9.81 9.81 0 0 0-4.47-7.71Z"/></g><path class="cls-37" d="M437.05 223.6c-5.24-2.2-3 6.25 0 7.36 5.22 2.2 3.02-6.25 0-7.36Z"/><g class="cls-1"><path class="cls-39" d="M439.86 228.84c.44-1.88-3.58-7.83-4.26-3.67-.46 1.83 3.32 6.51 4.26 3.67Z"/><path class="cls-40" d="M438.92 226.3c-1.65-3.05-3.27.44-1 1.65h-.1c1.18.82 1.67-.74 1.1-1.65Z"/><path class="cls-41" d="M439.89 229.37c-2.76 1.71-5.86-4.71-3.36-5.88-6.02-.49 1.05 11.39 3.36 5.88Z"/><path class="cls-42" d="M437.11 223.68c-4.92-2.18-3 5.8-.15 6.91 1.65 1 3 .26 3.07-1.64a6.66 6.66 0 0 0-2.92-5.27Zm-.15 6.71a6.24 6.24 0 0 1-2.75-4.95c.75-4.95 6.2.63 5.65 3.4-.04 1.8-1.34 2.49-2.86 1.55Z"/><path class="cls-41" d="M437.86 225.48a2.32 2.32 0 0 1 1 1.84c-.64 2.68-3.68-2.77-1-1.84Z"/></g><g class="cls-1"><path class="cls-37" d="M397.48 198.7c-2-4.23-5.4-6.58-9.31-3.25l6.32 10.88c3.57-1.47 4.74-3.83 2.99-7.63Z"/><path class="cls-38" d="M391.35 195.77c-7.31-3.07-4.24 8.7 0 10.25 2.46 1.42 4.47.28 4.48-2.55a9.83 9.83 0 0 0-4.48-7.7Z"/></g><path class="cls-37" d="M391.34 197.21c-5.24-2.19-3 6.25 0 7.36 5.23 2.2 3.03-6.24 0-7.36Z"/><g class="cls-1"><path class="cls-39" d="M394.15 202.45c.45-1.88-3.57-7.83-4.26-3.67-.46 1.81 3.33 6.51 4.26 3.67Z"/><path class="cls-40" d="M393.22 199.91c-1.65-3-3.28.44-1 1.65l-.1-.05c1.21.87 1.67-.68 1.1-1.6Z"/><path class="cls-41" d="M394.18 203c-2.76 1.71-5.86-4.71-3.35-5.88-6.03-.48 1.05 11.38 3.35 5.88Z"/><path class="cls-42" d="M391.4 197.29c-4.92-2.18-3 5.81-.15 6.92 1.66 1 3 .26 3.07-1.65a6.61 6.61 0 0 0-2.92-5.27Zm-.14 6.71a6.26 6.26 0 0 1-2.76-4.95c.76-5 6.2.63 5.65 3.4-.04 1.8-1.33 2.49-2.89 1.55Z"/><path class="cls-41" d="M392.16 199.09c1 .39 1.66 3.17-.06 2.41-.99-.39-1.66-3.17.06-2.41Z"/></g><g class="cls-1"><path class="cls-43" d="M406.86 156.31a1 1 0 0 0-1-.1l-22.46 13c1.07-.79 41.91 24.17 42.9 24.27l22.46-13Z"/><path d="M457.68 197.61c-.33-.31-8.54-17.84-9-17.13l-22.46 13c.17.1 7.48 18 7.48 18 9.3-4.05 17.41-8.61 23.98-13.87Zm-12.06-6.32c1.83-1.14 3.61-2.3 5.31-3.49l4.64 9.23Z" style="fill:#f2f2ee"/><path d="m443.36 219.12-9.62-7.6c-.32-.47-6.75-18.56-7.48-18l-41.87-24.17c-3.36-1.78-2.18 22.06-1.84 27.39l3.47 2c-.5-11.33 12.23-.09 10.26 5.93l35.72 20.6c-.56-11.39 12.25.1 10.25 5.92l2.49 1.43c-.41-2.27 1.18-12.08-1.38-13.5Z" style="fill:#c2c1b7"/><path class="cls-46" d="m449.21 180.89-22.46 13a2.8 2.8 0 0 1 .43.68l22.46-13a2.94 2.94 0 0 0-.43-.68Z"/></g><path class="cls-47" d="M426.75 196.8c-1.54-4.15-7.91-5.25-11.43-7.91-10.12-5.75-21.22-12.14-31.06-18.24h.05l-.69.83.63-.88c10.26 5.42 21.32 11.88 31.38 17.77 3.49 2.8 9.73 3.98 11.12 8.43Z"/><path d="M386 198.73c-.5-11.33 12.23-.09 10.26 5.93L432 225.27c-.06-1.63-.13-4.42 1.86-4.79-20.53-7.1-34.23-25.49-51.74-36.83a113.35 113.35 0 0 0 .44 13.08Z" style="fill:#a32b1d"/><path class="cls-49" d="m456.42 197.66-5.42-9.91-.08.05 4.64 9.23-9.95-5.74c-4.64 2.9-9.7 5.68-15.11 8.37l4 10.72c8.33-3.47 16.55-8.21 21.92-12.72Z"/><path class="cls-35" d="m444.76 221.86 23.93-13.91-.03 10.77-23.93 13.9.03-10.76z"/><path class="cls-43" d="M433.74 211.52a145.89 145.89 0 0 0 23.94-13.91l9.61 7.6-23.93 13.91Z"/><path d="M468.39 206.67a3.77 3.77 0 0 0-1.1-1.46l-23.93 13.91a3.78 3.78 0 0 1 1.4 2.74L468.69 208a3.26 3.26 0 0 0-.3-1.33Z" style="fill:url(#Безымянный_градиент_18)"/><path class="cls-46" d="m467.73 205.63-23.93 13.91a4 4 0 0 1 .66 1l23.93-13.91a4.07 4.07 0 0 0-.66-1Z"/></g><path class="cls-51" d="M451 187.75a160.76 160.76 0 0 1-20.5 11.91l4 10.72c8.3-3.47 16.52-8.21 21.89-12.72Z"/><path class="cls-52" d="M428.2 201c-.29-1.72-7.18-4.65-8.38-5.6-1.1-.22-.84 6.27-.51 8.08l12 6.91c.88.39-3.31-9.31-3.11-9.39Z"/><path class="cls-53" d="M470.16 215.77c.07-.55-1.17-1.17-1.47-1.48v1.5l-23.91 13.79-2.69-1.58-.47.27v2.89c.85.28 2.82 2.23 3.77 1.51l24.18-14.15c.9-.41.52-2 .59-2.75Z"/><path class="cls-54" d="M463.45 217.24v-5.7l-13.36 7.71c.26.34-.66 6.65.67 5.89.13-.28 13.67-7.35 12.69-7.9Z"/><path class="cls-55" d="m463.47 215.62-13.3 7.68v-.3l13.3-7.68Zm0 1.36-13.3 7.68v.3l13.3-7.68Zm0-.83-13.3 7.68v.3l13.3-7.68Zm0-1.66-13.3 7.68v.3l13.3-7.68Zm0-2.5-13.3 7.68v.3l13.3-7.68Zm0 1.66-13.3 7.69v.3l13.3-7.68Zm0-.83-13.3 7.68v.31l13.3-7.69Z"/><path class="cls-53" d="m468.41 212.28-4.87 2.82v-3.67l4.87-2.81v3.66z"/><path class="cls-56" d="m467.52 211.91.67-.39v.58l-.67.39Z"/><path class="cls-57" d="m467.52 209.45.67-.38v2.15l-.67.39Z"/><path class="cls-58" d="m463.91 211.54 3.61-2.09v1.27l-3.61 2.09Zm0 3 3.61-2.09v-1.37l-3.61 2.09Z"/><g class="cls-1"><path class="cls-59" d="m468.69 212.4-.28-.16-.01-3.37.29.16v3.37z"/><path class="cls-60" d="m463.96 215.13-.28-.16 4.73-2.73.28.16-4.73 2.73z"/><path class="cls-59" d="m463.68 215.62-.28-.16v-4.03l.28.16v4.03z"/><path class="cls-60" d="m463.68 211.59-.28-.16 5.29-3.05.28.16-5.29 3.05z"/><path class="cls-61" d="m463.68 211.6 5.29-3.06v4l-5.29 3.05Zm5 .8V209l-4.68 2.76v3.37Z"/></g><g class="cls-1"><path class="cls-59" d="m463.43 217.71-.26-.15-.02-5.68.27.15.01 5.68z"/><path class="cls-60" d="M463.17 217.56a.48.48 0 0 1-.22.44c-.18 0-12.24 7.3-12.44 7.07.12 0 .32.25.45.16l12.26-7.08a.47.47 0 0 0 .21-.44Z"/><g class="cls-1"><g class="cls-1"><path class="cls-59" d="M450.58 225.53c-.24-.12-.51-.25-.49-.58l.26.15a.46.46 0 0 0 .23.43Z"/></g></g><path class="cls-59" d="m450.35 225.1-.27-.15-.01-5.82.26.15.02 5.82z"/><path class="cls-60" d="m450.33 219.28-.26-.15 13.35-7.71.26.15-13.35 7.71z"/><path class="cls-61" d="m450.33 219.28 13.35-7.71c-.22.74.52 6.57-.46 6.88L451 225.53c-1.27.72-.42-5.95-.67-6.25Zm13.1-1.57V212l-12.82 7.4c.15.14-.36 6.25.36 5.8l12.26-7.08a.47.47 0 0 0 .21-.44Z"/></g><path class="cls-53" d="m449.8 223.02-4.87 2.82v-3.67l4.87-2.82v3.67z"/><path class="cls-56" d="m445.24 224.77.67-.39v.62l-.67.39Z"/><path class="cls-57" d="m445.24 222.31.67-.39v2.16l-.67.39Z"/><path class="cls-58" d="m445.91 221.92 3.61-2.08v1.26l-3.61 2.09Zm0 3 3.61-2.09v-1.33l-3.61 2.08Z"/><g class="cls-1"><path class="cls-59" d="m450.07 223.15-.28-.17-.01-3.37.28.16.01 3.38z"/><path class="cls-60" d="m445.34 225.87-.28-.16 4.73-2.73.28.17-4.73 2.72z"/><path class="cls-59" d="m445.06 226.37-.28-.17v-4.02l.28.16v4.03z"/><path class="cls-60" d="m445.06 222.34-.28-.16 5.29-3.06.28.16-5.29 3.06z"/><path class="cls-61" d="m445.06 222.34 5.29-3.06v4l-5.29 3.05Zm5 .81v-3.38l-4.73 2.73v3.37Z"/></g><path class="cls-53" d="m384.36 193.06-2.16-1.25-.06-2.44c-3.23 1.43-2.22 2.63-2.35 5.53-.21 1 3.77 2.54 4.28 3l.3-.16Z"/><path class="cls-62" d="m441.34 223.46-.83-.48c-.42-.16-.72-1.21 0-.89l.83.48c.43.17.73 1.21 0 .89ZM385.08 191l-.83-.48c-.43-.17-.73-1.21 0-.89l.83.48c.42.15.72 1.19 0 .89Z"/><path class="cls-35" d="M430.63 208.62c-.35-.56-2.33 1.11-2.7 1.18-.54.27-.68 2-.08 2.25l-.06-.06c.19.38 2.32-1.22 2.54-1.25.57-.33.54-1.64.3-2.12Z"/><path class="cls-63" d="M433.29 211.23c-.12.56-1.37-.43-1.27-.73.13-.56 1.38.43 1.27.73Z"/><path class="cls-36" d="M432.35 210.72c-1.25 1.07-2.65-.36-2.71-.43-1.36 0 1 1.5 1.78 1.32.58.25 2.34-.89.93-.89Z"/></g></g><g class="cls-64"><path class="cls-65" d="M417.61 189.35c-.11.06-13.17-7.84-13.24-7.52a184.12 184.12 0 0 0-.09 27.06c.11-.06 13.2 7.87 13.27 7.53a214.61 214.61 0 0 1 .06-27.07Zm-.22 26.94-13-7.51a192.83 192.83 0 0 1 .12-26.82l13 7.5a200.4 200.4 0 0 0-.12 26.83ZM432.82 211.48c-.84-1.47-3.5-12-5.3-12.53-.21.19-9-5.83-9-4.75a146.35 146.35 0 0 0 .24 23.06c.11-.07 11.74 7 11.81 6.68-.07-.07-.17-3.86 2.24-5Zm-2.39 12.33-11.55-6.66c.08-.42-1.32-12.34 0-23 1.26 1 9.7 4.8 10 6.6l3.85 10.78v7.41c-2.32 1.06-2.33 4.17-2.3 4.87Z"/></g><path class="cls-66" d="m420.81 208.91-2.52-1.46v-1.82c.63.51 3.23 1.41 3.15 2.45.02.42.07 1.22-.63.83ZM414.51 205.27l2.52 1.45v-1.82c-.4 0-3.1-2.36-3.15-1.19a1.51 1.51 0 0 0 .63 1.56ZM393.89 193l10 5.79v-1.06l-10-5.79c-.63-.24-.4.95 0 1.06Z"/><g class="cls-67"><path class="cls-68" d="m415.73 201.53-10.21-5.9c-1.39-1.94-.47-6.24-.23-8.61-.61 1.31-1.1 7.76.09 8.69.63.13 10.12 6.36 10.78 5.84a.5.5 0 0 1-.43-.02Z"/><path class="cls-69" d="M415.93 192.93 405.72 187a.39.39 0 0 0-.5.05.43.43 0 0 1 .35 0l10.21 5.95c1.41 2.08.26 6 .29 8.54.43-1.36 1.04-7.69-.14-8.61Z"/></g><g class="cls-67"><path class="cls-68" d="m402.45 193.86-15.22-8.79c-1.39-1.94-.47-6.24-.23-8.61-.61 1.31-1.1 7.76.09 8.69l15.22 8.79a.49.49 0 0 0 .57-.06.5.5 0 0 1-.43-.02Z"/><path class="cls-69" d="m402.65 185.27-15.22-8.79a.39.39 0 0 0-.5.05c.39-.24 15.23 8.78 15.57 8.82 1.42 2.08.26 6.05.29 8.55.43-1.38 1.04-7.72-.14-8.63Z"/></g><path class="cls-70" d="M428.34 187.64h-.09c1-.92-33.43-19.33-33.52-19.88a1.17 1.17 0 0 0-1 0 1.08 1.08 0 0 1 1.11 0c.05.54 34.82 18.91 33.5 19.88Zm-2.68.94-33.47-19.32a1.06 1.06 0 0 0-1.11.05 1.17 1.17 0 0 1 1 0c.1.56 34.5 18.95 33.52 19.88.31-.08.4-.43.06-.61Zm5.35-3.09-33.46-19.33a1.1 1.1 0 0 0-1.11.05 1.15 1.15 0 0 1 1 0c.11.55 34.5 18.95 33.53 19.88.3-.09.38-.43.03-.6Zm8-4.64-33.47-19.33a1.1 1.1 0 0 0-1.11 0 1.17 1.17 0 0 1 1 0c.1.56 34.5 18.95 33.52 19.88.35-.02.44-.4.1-.55Zm2.68-1.55L408.26 160a1.08 1.08 0 0 0-1.11.05 1.17 1.17 0 0 1 1 0c.1.56 34.49 18.95 33.52 19.88.33-.09.39-.45.06-.63Zm-8 4.64-33.46-19.32a1.08 1.08 0 0 0-1.11 0 1.15 1.15 0 0 1 1 0c.11.56 34.5 19 33.53 19.88.29-.03.35-.38.04-.56Zm2.68-1.55-33.47-19.32a1.1 1.1 0 0 0-1.11.05 1.17 1.17 0 0 1 1 0c.11.56 34.5 19 33.52 19.88.31-.07.4-.43.06-.61Z"/></g><g id="_1" data-name="1"><g class="cls-1"><path class="cls-71" d="M302.7 49.61c-2.54.89-2.67 4.23-2.49 6.77l.89-.55c-.1-1.93-.21-5.41 1.6-6.22Z"/><path class="cls-53" d="M313.64 60.66c.17-5.55-6.44-15.93-12.56-11.83 7.25-2.33 12.61 8.81 11.7 15l.87-.56Z"/><path d="M306 49.33c4.63 2.66 7.4 9.29 6.79 14.48l-1.08-.64c2.06-8.73-12.13-21.49-11.49-6.79l-1.07-.63c-.69-4.65 1.62-9.63 6.85-6.42Z" style="fill:#5f7254"/></g><path class="cls-73" d="m298.59 48.06-26.51 15.77c2.49 2 6.08.88 8.49 3.26-1.08 2.1 35 22.25 36.51 23.34l26.51-15.77Z"/><path style="fill:url(#Безымянный_градиент_2)" d="m295.86 52.01 41.77 24.7.72-.43-42.49-25.12-18.63 11.1.72.42 17.91-10.67z"/><path class="cls-53" d="m295.35 67.84 9.3-5.55c2.13-2.54 19.59 10.4 21.69 10.92-2.8 1-11.93 9.06-15.08 6.55l-15.91-9.41c-.95-.55-1.41-1.68 0-2.51Z"/><path class="cls-75" d="m273.61 72.08-1.53-.9v-7.35l3.35 2c-1.91.67-1.94 4.22-1.82 6.25Zm9.65-1.65a14.1 14.1 0 0 1 1.84 8.44L317.48 98l.73-6.93Z"/><g class="cls-1"><path class="cls-76" d="M282.42 66.88c-5.14-5.24-11.65-2.07-9.7 5.75Z"/><g class="cls-1"><path class="cls-76" d="M280 65.82c-1.76-.73-3.71 1.15-5.1 1.84l7.19 12.67 2.79-1.67c2.52-3.99-1.99-10.56-4.88-12.84Z"/><path class="cls-54" d="M278.5 68c-8.35-3.55-4.78 10.18 0 11.94 2.8 1.66 5.08.33 5.09-3A11.49 11.49 0 0 0 278.5 68Z"/></g><path class="cls-77" d="M278.49 69.71c-2-1.19-3.64-.23-3.65 2.13-.64 3.64 6.43 10.85 7.29 4.31a8.24 8.24 0 0 0-3.64-6.44Z"/><path class="cls-78" d="M278.56 69.85c-5.7-2.57-3.42 6.87-.17 8.16 1.91 1.18 3.49.3 3.54-2a7.87 7.87 0 0 0-3.37-6.16Z"/><path class="cls-41" d="M281.76 76.56c-3.22 2-6.73-5.57-3.86-6.94-6.9-.54 1.2 13.44 3.86 6.94Z"/><path class="cls-42" d="M278.56 69.85c-5.7-2.57-3.42 6.87-.17 8.16 1.91 1.18 3.49.3 3.54-2a7.87 7.87 0 0 0-3.37-6.16Zm-.17 7.92c-3.05-1.21-5.2-10.1.17-7.69 3.05 1.22 5.2 10.1-.17 7.69Z"/><path class="cls-39" d="M278.56 70.09c-1-.83-1.7.24-1.74 1.51-.54 2.12 3.82 7.69 4.91 4.34a7.37 7.37 0 0 0-3.17-5.85Z"/><path class="cls-40" d="M280.66 72.93c-.41-1.25-2.53-2.33-2.46-.28l1.19 2.18c1.41 1.02 1.92-.83 1.27-1.9Z"/><path class="cls-41" d="M279.43 72c-2-.89-1.19 2.4-.06 2.84 1.99.87 1.19-2.42.06-2.84Z"/><path d="M286.15 76.91c.17-5.55-6.43-15.93-12.56-11.83 7.25-2.33 12.61 8.81 11.7 15l.87-.56Z" style="fill:url(#Безымянный_градиент_332)"/><path class="cls-54" d="M278.5 65.58c4.63 2.66 7.4 9.28 6.79 14.48l-1.08-.64c2.06-8.73-12.13-21.49-11.49-6.79l-1.07-.63c-.65-4.65 1.63-9.63 6.85-6.42Z"/></g><path class="cls-53" d="M282.38 67.66a15.27 15.27 0 0 1 2.37 3.7l3.12-1.84c-2.74-5.79-8-9.83-13.41-5 2.35-1.47 6.14.88 7.92 3.14ZM305.89 53.76a15.33 15.33 0 0 1 2.37 3.71l3.23-1.91c-2.06-3.91-6.76-10.74-13.52-4.89 2.35-1.51 6.14.83 7.92 3.09Z"/><path class="cls-54" d="m308.26 57.47-10.74-6.35c3.48-4.01 11.06 3.73 10.74 6.35Z"/><path class="cls-80" d="M288.9 76.75c-.32-.22-1.11-.51-1.09-1 .08-.75 2.32 1.25 1.09 1Z"/><g class="cls-1"><path class="cls-75" d="M371.41 60.68a2 2 0 0 0-2 1.77c.2.62-.57 5.94.57 6l1.76-7.53Z"/><path class="cls-73" d="M371.27 61c1.43-1 .46 5.36.72 5.72.18.82-2 2.69-2.17 1.28.27-1.68-.91-6.47 1.45-7Z"/></g><path class="cls-54" d="M367.75 64.61a.25.25 0 0 1-.12-.46c.22 0 1.9-1.46 2.09-1s-1.72 1.31-1.97 1.46Z"/><path class="cls-76" d="M327.92 94.77c-2.53-2.07-3.27-1.7-5.72-.14-1.72 3.27-.68 4.18-.62 6.88l8.42-5a9.77 9.77 0 0 0-2.08-1.74Z"/><g class="cls-1"><path class="cls-76" d="M334.29 100.26c-2.2-4.87-6.11-7.71-10.62-3.78l7.21 12.7c4.12-1.73 5.38-4.53 3.41-8.92Z"/><path class="cls-54" d="M327.3 96.84c-8.38-3.56-4.79 10.2 0 12 2.81 1.66 5.1.33 5.11-3a11.5 11.5 0 0 0-5.11-9Z"/></g><path class="cls-77" d="M327.29 98.53c-2-1.19-3.66-.23-3.66 2.14-.65 3.64 6.44 10.87 7.3 4.31a8.23 8.23 0 0 0-3.64-6.45Z"/><g class="cls-1"><path class="cls-41" d="M327.29 99c-5.25-2.44-3.24 6.32-.25 7.54 5.25 2.46 3.24-6.31.25-7.54Z"/><path class="cls-42" d="M329.46 102.06c-.81-2.67-5.27-5-5.16-.66 1.68-7 9 7 2.45 4.59 2.94 2.21 4.05-1.68 2.71-3.93Z"/><path class="cls-42" d="M330 101.84c-.89-2.91-5.91-5.87-6-1 .36-4.51 4.89-1.47 5.72 1.14 1.31 2.22.57 6.6-2.67 4.57 3.41 2.35 4.42-2.25 2.95-4.71Z"/></g><path d="m369.3 75.91-26.5 15.78c-.06.13.11 21.11-.06 21.19l26.51-15.77c.17-.11 0-21.11.05-21.2Z" style="fill:#116aa7"/><path class="cls-54" d="m369.6 72.74-6.87-4.07-1.05-1.86-7.64-4.52-28.57 1.88-4.26 3.8 1.23 10.96 11.64 9.25 10.6 4.49 23.9-10.74 1.61-8.41-.59-.78z"/><g style="opacity:.3"><path class="cls-83" d="M359.75 71.94c-3.59.68-7.6 8.63-1.38 7.2 3.63-.69 7.63-8.63 1.38-7.2Zm-.05.63a3.61 3.61 0 0 1 .38-.1l-1 3.09-2.43-.67a6.72 6.72 0 0 1 3.05-2.32Zm2.78 1.91c-.22 3.93-9.24 7.15-6.08.82l3 .83 1.19-3.75a1.61 1.61 0 0 1 1.89 2.1Z"/><path class="cls-83" d="M367.37 72.31A78.65 78.65 0 0 0 340.54 89l.92 1.78 5 3.5 23.45-15.07c.44-3.57 1.09-5.21-2.54-6.9Z"/><path d="M365 73.18c-.74 3-6.66 6-11.59 5.88 1.22-2.2 9.8-6.87 11.59-5.88Z" style="fill:#757575"/></g><path class="cls-54" d="m368.3 60.78-1.46.44 1.81 11.58 1.23.72-1.58-12.74z"/><path d="m368.13 60.85-25.38 15.09a1.58 1.58 0 0 1-1.64 0l-13.54-8c-1.95-1.49-.68 8.55-1 8.94-.43 1.5 7.59 5.08 8.35 5.84.08.09 1 1.86 1.11 1.91l6.87 4.06c.68 2.11 26.25-15 27.2-15Z" style="fill:url(#Безымянный_градиент_350);mix-blend-mode:screen;opacity:.5"/><path style="fill:#292d2f;mix-blend-mode:screen;opacity:.5" d="m358.11 80.82 11.96-7.11-1.94-12.86-10.02 5.95v14.02z"/><path class="cls-54" d="m368.44 60.27-.74.86 1.92 12.77a1.39 1.39 0 0 0 .77-.68ZM342.19 75.27l-2.72-1.07 2 13.75c.63 1.75 2.15 2.81 2.79 1.21ZM330.12 67.74l-1.32-.25c.42 1.28-1.21 14.66 1.32 14.67Z"/><path class="cls-73" d="m342.56 40.7-26.51 15.77 23.94 14.15 26.5-15.77-23.93-14.15z"/><path d="m370.39 89.3-.4-.24a1.68 1.68 0 0 0 .4-.46V73.24l-.75.43-24.87 14.79c-1.35 1.26-7.42-3.72-8.65-4.06l-1.05-1.86c-9.55-5.93-8.35-2.43-8.26-14-.44-2 14 7.92 14.18 7.62 1 1.76 26.46-15 27.53-15.34.42-1.75-1.33-4.48-2-6L340 70.62l-23.95-14.15-.05 27.84.43.25-.43.26v12.29l5.43 3.21c-.72-13.2 14.44-2.9 12.57 7.43 2 .59 9 6.8 11.2 5l24.58-14.63c1.34-.39.39-7.87.66-8.81Z" style="fill:url(#Безымянный_градиент_3)"/><path d="M368.53 59.67v1.15c-.21.41-25.33 15.06-25.64 15.34a1.82 1.82 0 0 1-1.4.2L340 70.62l26.5-15.77c.36.93 2.14 3.79 2.03 4.82Zm1.86 29.63-.4-.24a1.68 1.68 0 0 0 .4-.46V73.24c-.8 0-26.34 16.65-27.15 15.33v24.48c.64 1.48 25.56-14.85 26.49-14.94 1.33-.39.4-7.87.66-8.81Z" style="opacity:.7;fill:#d84f3f"/><path class="cls-89" d="m370.39 89.3-.4-.24c-.17.25-25.41 15-25.64 15.2a.65.65 0 0 1-.75-.06l-8.8-8.2c-2.24-2.35-15.5-9.58-18.4-11.44l-.42.25c3 1.92 16.29 9.16 18.58 11.55l8.78 8.18a1.07 1.07 0 0 0 1.22.08c.51-.37 25.37-14.85 25.83-15.32Z"/><path d="M351.07 105.86c-1.15 0-.75-3.57.25-3.86l12.27-7.25c1.77-1 1.37 3.35.25 3.71l-12.27 7.25a1 1 0 0 1-.5.15Z" style="fill:url(#Безымянный_градиент_4)"/><path class="cls-91" d="m363.72 95-12.27 7.25c-1 .51-.71 2.07-.75 3-.29 1.89 12.72-7.17 13-6.93.92-.25 1.3-4.21.02-3.32Z"/><path d="M348.61 100.35c-1.47.24-.47-6.33-.75-7-1-1.72 16.46-10.44 17.24-11.35 2.45-1.56 1 6 1.36 6.78a2.32 2.32 0 0 1-1.11 1.81l-16.13 9.54a1.27 1.27 0 0 1-.61.19Z" style="fill:url(#Безымянный_градиент_4-2)"/><path class="cls-91" d="M365.23 82.25C364.62 83 347 92 348.11 93.38c.33.43-.88 8 1 6.56.61-.74 18.18-9.77 17.11-11.13-.34-.43.88-7.95-.99-6.56Z"/><path class="cls-93" d="M369.7 91.44c-.49.48-4.75 2.34-4.6 3.22.11.29-.35 2.15.48 1.65l4.12-2.43Z"/><path class="cls-94" d="m369.7 91.44-.61.36v1.72l.61.36Z"/><path class="cls-95" d="M367.16 94.21c-.77-.24.84-1.64.53-.46a.73.73 0 0 1-.53.46Zm-.55.18c.25-.71-.52-.48-.67 0-.25.7.51.48.67 0Zm2-1.74c-.31-.06-.88.85-.38.92.32.07.89-.84.39-.92Zm-3.23 1.92a.47.47 0 0 0-.29.13v.76c.3-.03.76-.84.3-.89Z"/><path class="cls-96" d="M369.7 91.44c-.49.48-4.75 2.34-4.6 3.22.11.29-.35 2.15.48 1.65l4.12-2.43Z"/><path class="cls-93" d="m349.58 103.34-4.2 2.48v2.44c.49-.47 4.83-2.39 4.69-3.27-.07-.29.34-2.15-.49-1.65Z"/><path class="cls-94" d="m349.58 103.34-.22.13v2l.33.19c.46-.12.71-2.89-.11-2.32Z"/><path class="cls-95" d="M347.53 105.81c-.76-.24.84-1.63.53-.46a.7.7 0 0 1-.53.46Zm-.53.19c.25-.71-.51-.48-.67 0-.27.69.5.47.67 0Zm2-1.73c-.32-.07-.89.84-.39.91.31.06.89-.85.39-.92Zm-3.24 1.91a.5.5 0 0 0-.29.13v.76c.3-.07.75-.85.29-.9Z"/><path class="cls-96" d="m349.58 103.34-4.2 2.48v2.44c.49-.47 4.83-2.39 4.69-3.27-.07-.29.34-2.15-.49-1.65Z"/><path class="cls-93" d="m369.22 96.57-3.81 2.25c-.46.26-.3-.47-.33-.68-.17-.57 3.85-2.49 4.14-2.79.59-.25.38 1.08 0 1.22Z"/><path class="cls-96" d="m369.22 96.57-3.81 2.25c-.46.26-.3-.47-.33-.68-.17-.57 3.85-2.49 4.14-2.79.59-.25.38 1.08 0 1.22Z"/><path class="cls-93" d="m349.76 108.07-3.76 2.25c-.46.27-.3-.46-.33-.68-.17-.56 3.84-2.48 4.14-2.78.53-.25.33 1.07-.05 1.21Z"/><path class="cls-96" d="m349.76 108.07-3.76 2.25c-.46.27-.3-.46-.33-.68-.17-.56 3.84-2.48 4.14-2.78.53-.25.33 1.07-.05 1.21Z"/><path class="cls-80" d="M343.61 106c-.35.09-.06 1.69-.15 2-.07.74 1.44.55 2 .22v-2.47a3.25 3.25 0 0 1-1.85.25ZM370.39 93.21v-2.44a1.56 1.56 0 0 1-.69.68s0 2.45 0 2.45a1.53 1.53 0 0 0 .69-.69Z"/><g class="cls-1"><path class="cls-73" d="M335 105.8c.17-5.56-6.43-15.94-12.56-11.84 7.36-1 12.06 8.6 11.7 15l.87-.56Z"/><path class="cls-75" d="M327.36 94.46c4.63 2.67 7.4 9.29 6.79 14.48l-1.08-.64c2.06-8.73-12.13-21.49-11.49-6.79l-1.07-.63c-.68-4.65 1.63-9.63 6.85-6.42Z"/></g><path class="cls-97" d="M324.72 75.82c-8.49-5-6.65-2.57-6.7-12.3-.69-.44-.16 7.75-.32 7.85a1.31 1.31 0 0 0 .6 1c.31 0 6.56 4.36 6.71 3.55a.58.58 0 0 1-.29-.1Z"/><path class="cls-98" d="M324.45 67.24c-.39-.16-6-3.68-6.43-3.72 7.87 5.85 6.78 1.3 6.75 12.31a.7.7 0 0 0 .22.07c-.07-.9.61-8.28-.54-8.66Z"/><path class="cls-97" d="M324.72 86.82c-8.49-5-6.65-2.56-6.7-12.29-.69-.44-.16 7.75-.32 7.85a1.27 1.27 0 0 0 .6 1c.31 0 6.56 4.37 6.71 3.56a.6.6 0 0 1-.29-.12Z"/><path class="cls-98" d="M324.45 78.24c-.39-.15-6-3.67-6.43-3.72 7.87 5.85 6.78 1.31 6.75 12.32a.66.66 0 0 0 .22.06c-.07-.9.61-8.28-.54-8.66Z"/><path class="cls-89" d="M329.56 69.41v22.93l-.19-.11V69.3ZM340.75 76l-.21-.13 1.84 12.55v14.61l.19.18V88.44Z"/><path d="M357.23 90.07c-.92.37-1.6 2.72 0 2 .93-.37 1.61-2.72 0-2Zm0 1.8c-1.27.57-.73-1.31 0-1.6 1.28-.57.77 1.3 0 1.6Z" style="fill:url(#Безымянный_градиент_4-3)"/><path id="Cube_face_-_left" data-name="Cube face - left" class="cls-41" d="m316.4 98.25-6.03-3.57v-7.35l6.03 3.57v7.35z"/><path id="Cube_face_-_right" data-name="Cube face - right" class="cls-42" d="m317.14 97.81-.74.44V90.9l.74-.44v7.35z"/><path class="cls-100" d="M315.97 89.78v-2.46l-2.8-1.65-2.8 1.66 6.03 3.57.73-.43-1.16-.69z"/><path class="cls-91" d="M315.47 97c-.35-.34-3.52-1.74-3.41-2.38.07-.21-.21-1.32.35-1l3.06 1.81c.42.08.61 1.83 0 1.57Z"/><path class="cls-80" d="M338 105.78c-.32-.22-1.12-.51-1.09-1 .09-.78 2.33 1.22 1.09 1Z"/><path class="cls-101" d="M344 64.27c-.62-.35-15.91-10.28-16.43-9.18 0-.37.66-.4.92-.24s15.81 8.94 15.51 9.42Zm-3.31 1.56-15.39-9.09c-.26-.16-.89-.13-.92.24.5-1.1 15.8 8.82 16.43 9.18a.25.25 0 0 0-.11-.33Zm6.38-3.77L331.69 53c-.26-.16-.89-.14-.92.24.51-1.1 15.8 8.81 16.43 9.17.06-.14.02-.26-.12-.35Zm-3.42-16.53a.81.81 0 0 1 .77 0c.15.21 15.56 9 15.54 9.31.29-.48-15.39-9.14-15.51-9.42s-.9-.13-.93.24a.32.32 0 0 1 .14-.13Zm13 10.87-15.39-9.09c-.26-.16-.89-.13-.92.24.51-1.1 15.8 8.82 16.44 9.18a.26.26 0 0 0-.13-.33Zm-6.38 3.78-15.39-9.1c-.26-.16-.89-.13-.92.24.5-1.1 15.8 8.82 16.43 9.18a.23.23 0 0 0-.12-.32Zm3.19-1.89-15.39-9.09c-.26-.17-.89-.14-.92.23.5-1.1 15.8 8.82 16.43 9.18.06-.11.02-.23-.12-.32Z"/><path class="cls-54" d="M338.92 81.65a.25.25 0 0 1-.12-.46c.23 0 1.91-1.46 2.09-1s-1.77 1.31-1.97 1.46Z"/><g class="cls-1"><path class="cls-75" d="M339.53 79.53a2 2 0 0 0-1.95 1.76c.2.63-.57 5.95.57 6l1.76-7.53Z"/><path class="cls-73" d="M339.39 79.8c1.43-1 .46 5.37.72 5.72.18.83-2 2.69-2.17 1.28.27-1.64-.94-6.42 1.45-7Z"/></g><path class="cls-91" d="M331.19 83.06c.2 0 2.07 1.55 2.08.9.25-.79-1.67-1.41-2.08-1.77s-.34.74 0 .87Z"/></g><g id="_4-2" data-name="4"><g class="cls-1"><path class="cls-54" d="m74.76 173.86 15.13-7.59 7.15 8.01-3.99 8.81-18.92-6.14.63-3.09z"/><path d="M90.24 181.44a.94.94 0 0 1-.42-.11l-7.46-3.75-1.07.53-7-3.51 2.32-8.85c.43.51 15.19 6.87 14.25 7.93-.25.47.62 8.09-.62 7.76Z" style="fill:#111214;mix-blend-mode:screen;opacity:.5"/><path class="cls-54" d="m76.13 165.76-2.21 8.4 1.38 1.38 2.62-9.94-1.79.16z"/><path class="cls-73" d="M105.17 149.12 78.49 162.6l23.66 12.1 26.68-13.7-23.66-11.88z"/><path class="cls-54" d="m88.3 170.12-1.3-.21v11.23a2.07 2.07 0 0 0 1.34 1.31Z"/><path class="cls-75" d="m102.15 174.7-23.66-12.1c-1.47 1-2.71 1-2.36 3.16.3.41 15.35 7.05 14.48 7.92.06 11.23 1 7.52-8.25 3.65l-1.07.53-7.37-3.7v13.35l.55.1-.55.28c.33 1.45-.93 7.16 1.1 7.8l27.14 13.63Z"/><path class="cls-103" d="m128.38 185.22.43-.22.02-24-26.68 13.7v34.62l26.66-13.5v-10.38l-.43-.22z"/></g><path class="cls-76" d="M87.81 194.1c-2.42-1.75-3.44-1.42-5.76-.12-1.72 2.78-.69 3.55-.63 5.88l8.48-4.26a10 10 0 0 0-2.09-1.5Z"/><g class="cls-1"><path class="cls-76" d="M92.79 198.19c-2.46-4.28-5-5.56-9.26-2.63l7.26 10.86c5.06-1.8 4.65-3.96 2-8.23Z"/><path class="cls-54" d="M87.18 195.87c-8.17-3.12-5.09 8.51 0 10.24 8.14 3.12 5.07-8.51 0-10.24Z"/></g><path class="cls-77" d="M87.18 197.32c-5.87-2.24-3.66 6.11 0 7.34 5.82 2.24 3.63-6.1 0-7.34Z"/><g class="cls-1"><path class="cls-41" d="M87.17 197.72c-5.1-2.13-3.44 5.26-.24 6.46 5.07 2.13 3.44-5.26.24-6.46Z"/><path class="cls-42" d="M89.36 200.33c-.84-2.26-5.28-4.29-5.2-.56 1.65-6 9.06 6 2.47 3.92 2.76 1.83 4.16-1.17 2.73-3.36Z"/><path class="cls-42" d="M89.91 200.15c-.93-2.5-5.94-5-6.06-.86.35-3.84 4.88-1.29 5.77 1 1.4 2.16.39 5.6-2.69 3.92 3.23 1.91 4.55-1.68 2.98-4.06Z"/></g><g class="cls-1"><path class="cls-73" d="M95 203.53c0-5.53-7.17-13.53-12.7-10.12 6.57-1 12.19 6.64 11.78 12.81l.88-.48Z"/><path class="cls-75" d="M87.24 193.84c4.38 2.1 7.49 7.64 6.84 12.38l-1.08-.55c2.08-7.56-12.29-18.29-11.57-5.81l-1.07-.54c-.68-4.32 1.81-8.1 6.88-5.48Z"/></g><g class="cls-1"><path class="cls-71" d="M161.8 205.39c-2.49.77-2.71 3.39-2.51 5.78l.9-.46c-.11-1.71-.19-4.64 1.61-5.32Z"/><path class="cls-53" d="M172.81 214.84c.05-5.49-7.11-13.56-12.64-10.12 6.43-2.11 12.76 6.78 11.78 12.81l.87-.48Z"/></g><path class="cls-73" d="M128.76 189.55 102.08 203c4.41 2.48 33.29 16.84 37.44 17.3a7.08 7.08 0 0 1 2.32 2.67l5 2.52L173 211.76Z"/><path style="fill:url(#Безымянный_градиент_2-2)" d="m126.32 193.09 40.74 20.45.73-.36-41.47-20.82-18.74 9.49.72.36 18.02-9.12z"/><path class="cls-53" d="M118 202.69c2.31-.65 10.11-6.52 12.6-4.75l16.1 8.06a1.36 1.36 0 0 1 0 2.51c-2.77.9-9.64 6.39-12.69 4.35l-16-8c-1.01-.5-1.44-1.46-.01-2.17Z"/><path class="cls-75" d="m132.51 224.6-30.43-15.28V203l32.27 16.2c-1.9.63-1.96 3.55-1.84 5.4Zm9.72-1.41a10.59 10.59 0 0 1 1.85 7.22l2.63 1.32v-6.3Z"/><g class="cls-1"><path class="cls-76" d="M141.39 220.15c-4.3-4-11.85-2.5-9.77 4.92Z"/><g class="cls-1"><path class="cls-76" d="M138.94 219.24c-1.74-.61-3.71 1-5.14 1.58l7.2 10.83 2.81-1.42c2.59-3.23-1.93-9.07-4.87-10.99Z"/><path class="cls-54" d="M137.44 221.13c-8.16-3.11-5.09 8.49 0 10.21 8.11 3.12 5.05-8.49 0-10.21Z"/></g><path class="cls-77" d="M137.43 222.57c-5.85-2.23-3.64 6.1 0 7.33 5.83 2.23 3.63-6.09 0-7.33Z"/><path class="cls-78" d="M137.5 222.69c-5.55-2.24-3.64 5.72-.17 7 1.92 1 3.51.26 3.56-1.67a6.55 6.55 0 0 0-3.39-5.33Z"/><path class="cls-41" d="M140.72 228.43c-2.95 1.81-6.89-4.67-3.89-5.94-6.99-.49 1.3 11.58 3.89 5.94Z"/><path class="cls-42" d="M137.5 222.69c-5.55-2.24-3.64 5.72-.17 7 1.92 1 3.51.26 3.56-1.67a6.55 6.55 0 0 0-3.39-5.33Zm-.17 6.78c-3.26-1.19-5.07-8.69.17-6.58 3.26 1.19 5.06 8.69-.17 6.58Z"/><path class="cls-39" d="M137.5 222.89c-3.36-.93-1.24 4.9.94 5.52 1 .5 2.35.64 2.25-.51a6.17 6.17 0 0 0-3.19-5.01Z"/><path class="cls-40" d="M139.61 225.33c-.39-1-2.34-2-2.48-.41-.15.07 1.18 2 1.2 2 1.32.88 1.98-.56 1.28-1.59Z"/><path class="cls-41" d="M138.37 224.51c-1.93-.78-1.26 2-.06 2.43 1.94.78 1.27-2 .06-2.43Z"/><path d="M145.14 228.73c0-5.48-7.11-13.56-12.64-10.12 6.43-2.1 12.76 6.78 11.77 12.81l.88-.47Z" style="fill:url(#Безымянный_градиент_332-2)"/><path class="cls-54" d="M137.44 219c4.37 2.1 7.48 7.65 6.83 12.38l-1.08-.54c2.07-7.56-12.3-18.3-11.57-5.81l-1.08-.54c-.67-4.33 1.82-8.06 6.9-5.49Z"/></g><path class="cls-53" d="M141.35 220.82a13.3 13.3 0 0 1 2.38 3.17l3.14-1.58c-2.86-5.32-8.49-8.19-13.5-4.24 2.27-1.26 6.07.61 7.98 2.65ZM165 208.93a13.54 13.54 0 0 1 2.39 3.17l3.25-1.63c-2.27-3.84-7.3-9-13.61-4.18 2.27-1.29 6.08.61 7.97 2.64Z"/><path class="cls-54" d="m167.4 212.1-10.81-5.42c2.95-3.3 10.97 2.65 10.81 5.42Z"/><path class="cls-80" d="M129.86 219.53c-.3-.18-1.12-.42-1.1-.85.11-.68 2.31 1.02 1.1.85Z"/><path class="cls-97" d="M99.78 185.52c-7.64-4.08-7-1.46-6.75-10.51-.69-.34-.16 6.57-.32 6.71-.24.94 6.3 3.48 6.79 3.94.27.13.48.09.57-.07a.68.68 0 0 1-.29-.07Z"/><path class="cls-98" d="m99.5 178.19-6.18-3.11A.71.71 0 0 0 93 175c-.37.25 6.22 3.26 6.19 3.33 1.18.18.39 6.5.61 7.2a.49.49 0 0 0 .22.06c-.02-.75.63-7.17-.52-7.4Z"/><path class="cls-97" d="M99.78 194.93c-7.64-4.08-7-1.46-6.75-10.51-.69-.34-.16 6.57-.32 6.71-.24.94 6.3 3.49 6.79 3.94.27.13.48.09.57-.07a.56.56 0 0 1-.29-.07Z"/><path class="cls-98" d="m99.5 187.6-6.18-3.11a.68.68 0 0 0-.29-.07c-.37.24 6.22 3.25 6.19 3.32 1.18.18.39 6.5.61 7.2a.49.49 0 0 0 .22.06c-.05-.75.6-7.17-.55-7.4Z"/><path id="Cube_face_-_left-2" data-name="Cube face - left" class="cls-41" d="m106.17 212.12-6.07-3.05v-6.29l6.07 3.05v6.29z"/><path id="Cube_face_-_right-2" data-name="Cube face - right" class="cls-42" d="m106.92 211.75-.75.37v-6.29l.75-.37v6.29z"/><path class="cls-100" d="m109 204.41-4.85-2.43-2.07 1.05-1.22-.63-.76.38 6.07 3.05 2.83-1.42z"/><path class="cls-91" d="M104.17 210.47c-.93-.71-3.88-1.19-3.43-2.74-.06-.67 3.25 1.46 3.43 1.41.44.1.6 1.63 0 1.33Z"/><path class="cls-103" d="m172.99 211.76-26.3 13.67.02 6.3 26.29-13.2-.01-6.77z"/><path class="cls-80" d="M79.5 194.24c-.33 0-1.79-1.05-.75-1 .33.07 1.79 1.08.75 1Z"/><path class="cls-91" d="M84.35 180.7c.25 0 2.32 1.57 2.1.58 0-.49-1.8-1.09-2.1-1.33-.53-.21-.35.63 0 .75Z"/><path class="cls-89" d="m128.38 185.22-26.23 13.17-14.41-7.23v-19.61l-.19-.1v19.61c-3.25-1.84-9.06-2.59-12.71-3.37v-13.07l2.33-8.34-.21-.1-2.31 8.36v13.11c-.16-.12-.61.18-.74.24 3.66.81 10 1.6 13.28 3.43l15 7.51 26.66-13.39Z"/><path class="cls-54" d="M73.9 170.34c-1.11-.12 2-1.63 2-1.24.22.37-1.83 1.12-2 1.24Z"/><g class="cls-1"><path class="cls-75" d="M74.52 168.52c-.74-.1-2 .69-2 1.51.19.58-.55 5.14.58 5.12l1.76-6.44Z"/><path d="M74.37 168.76c1.41-.89.48 4.51.73 4.89.12.78-2 2.26-2.19 1.09v-4.52c-.01-.74.86-1.22 1.46-1.46Z" style="fill:url(#Безымянный_градиент_644)"/></g><path class="cls-101" d="M105.88 169c-.67-.32-16-8.77-16.54-7.85.06-.34.68-.33.93-.2s15.86 7.53 15.61 8.05Zm-3.34 1.34c-.33.15-16.55-9.08-16.41-7.58.53-.92 15.85 7.52 16.54 7.85.06-.13.02-.24-.13-.31Zm6.43-3.23c-.34.15-16.56-9.08-16.42-7.57.54-.92 15.85 7.52 16.55 7.85.05-.14.02-.24-.1-.32Zm-3.44-14.14a1 1 0 0 1 .77 0c.2.22 15.58 7.62 15.64 8 .25-.48-15.48-7.79-15.61-8.06-.26-.12-.87-.13-.93.21a.31.31 0 0 1 .13-.19Zm13.07 9.3c-.33.15-16.55-9.08-16.42-7.57.54-.92 15.86 7.52 16.55 7.85.06-.14.02-.24-.13-.32Zm-6.42 3.23c-.34.15-16.56-9.08-16.42-7.57.54-.93 15.86 7.51 16.55 7.84.06-.13.02-.24-.13-.31Zm3.21-1.61c-.33.14-16.56-9.08-16.42-7.58.54-.92 15.86 7.52 16.55 7.85.06-.16.02-.24-.13-.31Z"/><g id="Axonometric_Cube" data-name="Axonometric Cube"><path id="Cube_face_-_right-3" data-name="Cube face - right" class="cls-54" d="m172.28 218.44-24.76 12.44v-4.61l24.76-12.43v4.6z"/></g><path class="cls-107" d="M167.22 216.93c-.75.15-.53 1-.55 1.56s3.67-1.75 4-1.77v-1.51Z"/><path class="cls-108" d="M170.61 216.73c.24-.17 1.17-.43 1.16-.8 0-1.41.08-1.37-1.16-.71Z"/><path class="cls-109" d="M170.61 216.16v.57c.42-.24 1.37-.48 1.16-1.15Z"/><path class="cls-107" d="M152.69 224.22c.86-.63.47.62.55 1s-3.57 1.9-4 2.22v-1.51Z"/><path class="cls-108" d="M149.3 227.44c-1.25.66-1.2.7-1.16-.71 0-.37.92-.64 1.16-.81Z"/><path class="cls-109" d="M149.3 226.86v.58c-.35.1-1.37 1-1.16 0Z"/><g id="Axonometric_Cube-2" data-name="Axonometric Cube"><path id="Cube_face_-_right-4" data-name="Cube face - right" class="cls-35" d="m164.23 220.92-8.47 4.25v-1.65l8.47-4.26v1.66z"/></g><path class="cls-107" d="M170.57 217.65c.69-.26.43.73 0 .87-.69.26-.42-.72 0-.87ZM149.34 228.32c.69-.27.42.72 0 .86-.69.26-.43-.72 0-.86Z"/></g><g id="_5-2" data-name="5"><g id="_15-2" data-name="15"><g id="_4-3" data-name="4"><path class="cls-35" d="M404.48 222.3c-.35-.56-2.33 1.11-2.7 1.19-.54.27-.68 2-.08 2.25l-.06-.06c.19.38 2.32-1.23 2.54-1.25.57-.33.54-1.65.3-2.13Z"/><path class="cls-36" d="M403.37 224.14c-1-.46 0 .66-.24 1.62 0 .64-1.07.89-1.08 1.49.14.28.36.24.39.22 1.28-.47 1.45-2.84.93-3.33Z"/><g class="cls-1"><path class="cls-37" d="M335.82 222.47c-4.07 1.55-5.32 2.48-4.09 6.22l6.51-3.8ZM379 250.65c-1.45.83-1.28 3.09-1.27 4.58l23.93-13.91c0-1.48-.17-3.75 1.27-4.58Z"/><g class="cls-1"><path class="cls-37" d="M388.89 255c-1.95-4.23-5.4-6.58-9.31-3.24l6.32 10.87c3.57-1.42 4.74-3.79 2.99-7.63Z"/><path class="cls-38" d="M382.76 252.11c-7.31-3.06-4.24 8.71 0 10.25 2.46 1.43 4.47.28 4.48-2.55a9.83 9.83 0 0 0-4.48-7.7Z"/></g><path class="cls-37" d="M382.75 253.56c-5.24-2.2-3 6.25 0 7.35 5.25 2.2 3.03-6.24 0-7.35Z"/><g class="cls-1"><path class="cls-39" d="M385.56 258.8c.45-1.88-3.57-7.84-4.26-3.68-.46 1.81 3.33 6.52 4.26 3.68Z"/><path class="cls-40" d="M384.63 256.25c-1.65-3.05-3.28.44-1 1.65h-.1c1.21.82 1.67-.73 1.1-1.65Z"/><path class="cls-41" d="M385.59 259.33c-2.76 1.71-5.86-4.71-3.35-5.89-6.03-.44 1.05 11.4 3.35 5.89Z"/><path class="cls-42" d="M382.81 253.64c-4.92-2.18-3 5.8-.15 6.91 1.66 1 3 .26 3.07-1.65a6.59 6.59 0 0 0-2.92-5.26Zm-.14 6.71a6.25 6.25 0 0 1-2.76-5c.76-4.94 6.2.64 5.65 3.41-.04 1.83-1.34 2.53-2.89 1.59Z"/><path class="cls-41" d="M383.57 255.44a2.31 2.31 0 0 1 1 1.83c-.64 2.73-3.69-2.76-1-1.83Z"/></g><g class="cls-1"><path class="cls-37" d="M343.18 228.65c-1.95-4.23-5.4-6.57-9.31-3.24l6.33 10.88c3.56-1.47 4.73-3.84 2.98-7.64Z"/><path class="cls-38" d="M337.05 225.72c-7.31-3.06-4.23 8.71 0 10.25 2.47 1.43 4.47.29 4.48-2.55a9.79 9.79 0 0 0-4.48-7.7Z"/></g><path class="cls-37" d="M337.05 227.17c-5.25-2.2-3 6.25 0 7.36 5.22 2.19 3.02-6.25 0-7.36Z"/><g class="cls-1"><path class="cls-39" d="M339.85 232.41c.45-1.88-3.57-7.84-4.26-3.68-.46 1.81 3.33 6.52 4.26 3.68Z"/><path class="cls-40" d="M338.92 229.87c-1.65-3.05-3.28.43-1 1.65l-.11-.05c1.19.86 1.68-.69 1.11-1.6Z"/><path class="cls-41" d="M339.88 232.94c-2.76 1.71-5.85-4.71-3.35-5.88-6.03-.46 1.05 11.39 3.35 5.88Z"/><path class="cls-42" d="M337.11 227.25c-4.92-2.18-3 5.8-.15 6.91 1.65 1 3 .26 3.07-1.65a6.65 6.65 0 0 0-2.92-5.26ZM337 234a6.24 6.24 0 0 1-2.75-5c.75-4.94 6.2.64 5.64 3.41-.08 1.8-1.37 2.49-2.89 1.59Z"/><path class="cls-41" d="M337.86 229.05c1 .39 1.66 3.17-.05 2.41-.99-.39-1.67-3.17.05-2.41Z"/></g><g class="cls-1"><path class="cls-110" d="M352.56 186.26a1 1 0 0 0-1-.1l-22.47 13c1.07-.79 41.92 24.18 42.9 24.28l22.46-13Z"/><path class="cls-110" d="M403.38 227.57c-.32-.31-8.53-17.84-9-17.14l-22.46 13c.17.1 7.49 18 7.49 18 9.25-4.05 17.4-8.61 23.97-13.86Zm-12.06-6.32q2.76-1.73 5.31-3.49l4.64 9.23Z"/><path class="cls-110" d="m389.06 249.07-9.61-7.59c-.33-.48-6.75-18.57-7.49-18L330.1 199.3c-3.37-1.79-2.18 22.06-1.85 27.38l3.48 2c-.51-11.33 12.22-.1 10.26 5.92l35.7 20.62c-.55-11.39 12.26.1 10.26 5.92l2.48 1.43c-.43-2.27 1.2-12.08-1.37-13.5Z"/><path class="cls-46" d="m394.91 210.85-22.46 13a2.56 2.56 0 0 1 .43.67l22.46-13a2.56 2.56 0 0 0-.43-.67Z"/></g><path class="cls-47" d="M372.45 226.76c-1.53-4.16-7.91-5.25-11.42-7.91-10.13-5.75-21.22-12.14-31.03-18.25l-.7.84.64-.88c10.25 5.42 21.32 11.87 31.38 17.76 3.51 2.8 9.74 3.99 11.13 8.44Z"/><path class="cls-110" d="M331.73 228.69c-.51-11.33 12.22-.1 10.26 5.92l35.7 20.62c-.06-1.64-.12-4.42 1.87-4.8-20.56-7.09-34.24-25.43-51.75-36.83a117.86 117.86 0 0 0 .44 13.08Z"/><path class="cls-49" d="m402.13 227.62-5.42-9.92-.08.06 4.64 9.23-9.95-5.74c-4.64 2.9-9.69 5.68-15.11 8.36l4 10.73c8.33-3.47 16.54-8.21 21.92-12.72Z"/><path class="cls-110" d="m390.46 251.82 23.93-13.91-.03 10.76-23.93 13.91.03-10.76zM379.45 241.48a146.79 146.79 0 0 0 23.93-13.91l9.62 7.6-23.94 13.9Z"/><path class="cls-110" d="M414.1 236.63a3.89 3.89 0 0 0-1.1-1.46l-23.94 13.9a3.8 3.8 0 0 1 1.4 2.75l23.93-13.91a3.17 3.17 0 0 0-.29-1.28Z"/><path class="cls-46" d="m413.44 235.59-23.94 13.9a4 4 0 0 1 .66 1l23.94-13.91a4.28 4.28 0 0 0-.66-.99Z"/></g><path class="cls-51" d="M396.71 217.7a159.59 159.59 0 0 1-20.5 11.91l4 10.73c8.3-3.47 16.51-8.21 21.89-12.72Z"/><path class="cls-52" d="M373.9 231c-.29-1.71-7.18-4.64-8.38-5.59-1.09-.23-.84 6.26-.51 8.08l12 6.91c.88.34-3.28-9.4-3.11-9.4Z"/><path class="cls-53" d="M415.86 245.72c.07-.54-1.17-1.16-1.47-1.48v1.51l-23.91 13.79-2.69-1.54-.46.27v2.89c.85.27 2.81 2.23 3.76 1.51l24.19-14.16c.9-.44.51-2.04.58-2.79Z"/><path class="cls-54" d="M409.15 247.19v-5.7l-13.35 7.71c.25.35-.66 6.65.66 5.89.13-.27 13.67-7.35 12.69-7.9Z"/><path class="cls-55" d="m409.18 245.57-13.31 7.69V253l13.31-7.68Zm0 1.37-13.31 7.68v.3l13.31-7.68Zm0-.84-13.31 7.69v.3l13.31-7.68Zm0-1.66-13.31 7.68v.3l13.31-7.68Zm0-2.49-13.31 7.68v.3l13.31-7.68Zm0 1.66-13.31 7.68v.3l13.31-7.68Zm0-.83-13.31 7.68v.3l13.31-7.68Z"/><path class="cls-53" d="m414.12 242.24-4.88 2.82v-3.67l4.88-2.82v3.67z"/><path class="cls-56" d="m413.22 241.87.68-.39v.57l-.68.39Z"/><path class="cls-57" d="m413.22 239.41.68-.39v2.16l-.68.39Z"/><path class="cls-58" d="m409.61 241.5 3.61-2.09v1.27l-3.61 2.08Zm0 3 3.61-2.08v-1.37l-3.61 2.09Z"/><g class="cls-1"><path class="cls-59" d="m414.39 242.36-.28-.16v-3.38l.28.17v3.37z"/><path class="cls-60" d="m409.67 245.09-.28-.17 4.72-2.72.28.16-4.72 2.73z"/><path class="cls-59" d="m409.39 245.58-.28-.17-.01-4.02.28.16.01 4.03z"/><path class="cls-60" d="m409.38 241.55-.28-.16 5.29-3.06.29.17-5.3 3.05z"/><path class="cls-61" d="m409.38 241.55 5.29-3.05v4l-5.29 3.06Zm5 .81V239l-4.72 2.72v3.38Z"/></g><g class="cls-1"><path class="cls-59" d="m409.14 247.67-.27-.16-.01-5.68.26.16.02 5.68z"/><path class="cls-60" d="M408.87 247.51a.49.49 0 0 1-.21.45c-.19 0-12.25 7.29-12.45 7.06.12 0 .32.25.45.17l12.26-7.08a.48.48 0 0 0 .22-.44Z"/><g class="cls-1"><g class="cls-1"><path class="cls-59" d="M396.28 255.49c-.23-.13-.5-.25-.49-.58l.26.15a.49.49 0 0 0 .23.43Z"/></g></g><path class="cls-59" d="m396.05 255.06-.26-.15-.02-5.83.26.16.02 5.82z"/><path class="cls-60" d="m396.03 249.24-.26-.16 13.35-7.7.26.15-13.35 7.71z"/><path class="cls-61" d="m396 249.24 13.35-7.71c-.21.74.52 6.56-.46 6.88l-12.26 7.08c-1.2.72-.35-5.96-.63-6.25Zm13.11-1.57v-5.68l-12.82 7.4c.15.14-.36 6.25.36 5.8l12.26-7.08a.48.48 0 0 0 .22-.44Z"/></g><path class="cls-53" d="m395.5 252.98-4.87 2.81v-3.67l4.87-2.81v3.67z"/><path class="cls-56" d="m390.94 254.72.68-.39v.58l-.68.39Z"/><path class="cls-57" d="m390.94 252.27.68-.39V254l-.68.39Z"/><path class="cls-58" d="m391.61 251.88 3.62-2.09v1.27l-3.62 2.09Zm0 3 3.62-2.08v-1.37l-3.62 2.09Z"/><g class="cls-1"><path class="cls-59" d="m395.77 253.1-.28-.16v-3.38l.28.17v3.37z"/><path class="cls-60" d="m391.05 255.83-.28-.17 4.72-2.72.28.16-4.72 2.73z"/><path class="cls-59" d="m390.77 256.32-.28-.16-.01-4.03.28.16.01 4.03z"/><path class="cls-60" d="m390.76 252.29-.28-.16 5.29-3.05.28.16-5.29 3.05z"/><path class="cls-61" d="m390.76 252.29 5.29-3v4l-5.29 3Zm5 .81v-3.37l-4.72 2.72v3.38Z"/></g><path class="cls-53" d="m330.06 223-2.16-1.25-.06-2.44c-3.22 1.42-2.21 2.63-2.35 5.53-.2 1 3.78 2.54 4.28 3l.3-.16Z"/><path class="cls-62" d="m387.05 253.42-.83-.48c-.43-.17-.73-1.21 0-.89l.83.48c.42.17.72 1.21 0 .89ZM330.78 220.93l-.83-.48c-.42-.16-.72-1.21 0-.89l.83.48c.42.17.72 1.21 0 .89Z"/><path class="cls-35" d="M376.34 238.57c-.36-.56-2.34 1.11-2.7 1.19-.54.27-.69 2-.09 2.25l-.05-.06c.18.38 2.31-1.23 2.53-1.25.57-.33.55-1.64.31-2.13Z"/><path class="cls-63" d="M379 241.19c-.13.56-1.38-.44-1.28-.74.13-.56 1.38.44 1.28.74Z"/><path class="cls-36" d="M378.05 240.68c-1.25 1.06-2.65-.37-2.71-.43-1.35 0 1.05 1.5 1.78 1.32.56.24 2.34-.9.93-.89Z"/></g></g><g class="cls-64"><path class="cls-65" d="M363.31 219.3c-.11.06-13.17-7.83-13.23-7.51a181.39 181.39 0 0 0-.09 27.06c.11-.07 13.19 7.87 13.26 7.52a214.61 214.61 0 0 1 .06-27.07Zm-.22 26.94-13-7.5a189.78 189.78 0 0 1 .12-26.82l13 7.49a200.41 200.41 0 0 0-.12 26.83ZM378.52 241.44c-.84-1.48-3.49-12-5.29-12.54-.22.19-9-5.83-9-4.74a145.5 145.5 0 0 0 .23 23.05c.11-.06 11.74 7 11.82 6.69-.08-.07-.18-3.86 2.23-5Zm-2.39 12.33-11.55-6.67c.08-.41-1.32-12.33 0-23 1.26 1 9.7 4.8 10 6.6l3.85 10.77v7.41c-2.32 1.04-2.33 4.19-2.3 4.89Z"/></g><path class="cls-66" d="m366.52 238.86-2.52-1.45v-1.82c.62.51 3.22 1.41 3.14 2.45.02.42.07 1.22-.62.82ZM360.21 235.22l2.52 1.46v-1.82c-.4 0-3.09-2.36-3.15-1.19a1.49 1.49 0 0 0 .63 1.55ZM339.59 223l10 5.79v-1.06l-10-5.8c-.59-.27-.4.92 0 1.07Z"/><g class="cls-67"><path class="cls-68" d="m361.43 231.48-10.21-5.89c-1.39-1.94-.46-6.24-.23-8.62-.6 1.32-1.1 7.77.1 8.7.62.12 10.12 6.36 10.77 5.83a.47.47 0 0 1-.43-.02Z"/><path class="cls-69" d="m361.63 222.89-10.2-5.89a.38.38 0 0 0-.5.05.45.45 0 0 1 .34 0l10.21 5.9c1.42 2.07.27 6 .29 8.54.43-1.35 1.04-7.68-.14-8.6Z"/></g><g class="cls-67"><path class="cls-68" d="M348.15 223.82 332.93 215c-1.39-1.94-.47-6.24-.23-8.62-.6 1.31-1.1 7.77.1 8.7l15.2 8.81a.48.48 0 0 0 .56 0 .5.5 0 0 1-.41-.07Z"/><path class="cls-69" d="m348.35 215.22-15.22-8.78c-.16-.09-.39-.11-.49.05.38-.24 15.22 8.78 15.56 8.82 1.42 2.08.27 6.05.29 8.54.43-1.38 1.04-7.71-.14-8.63Z"/></g><path class="cls-70" d="M374 217.59h-.09c1-.92-33.42-19.33-33.52-19.88a1.21 1.21 0 0 0-1 0 1.1 1.1 0 0 1 1.11 0c.09.54 34.86 18.92 33.5 19.88Zm-2.68.94-33.42-19.32a1.1 1.1 0 0 0-1.11 0 1.19 1.19 0 0 1 1 0c.11.56 34.5 19 33.53 19.88.29-.02.38-.38.04-.56Zm5.36-3.09-33.47-19.32a1.08 1.08 0 0 0-1.11 0 1.17 1.17 0 0 1 1 0c.1.56 34.5 19 33.52 19.88.38 0 .44-.38.1-.56Zm8-4.64-33.47-19.32a1.08 1.08 0 0 0-1.1.05 1.15 1.15 0 0 1 1 0c.11.56 34.5 19 33.52 19.88.37-.07.46-.41.12-.61Zm2.68-1.54L354 189.93a1.1 1.1 0 0 0-1.11 0 1.17 1.17 0 0 1 1 0c.1.56 34.5 18.95 33.52 19.88.27-.02.36-.37.02-.55Zm-8 4.63-33.47-19.32a1.1 1.1 0 0 0-1.11.05 1.17 1.17 0 0 1 1 0c.1.55 34.49 19 33.52 19.88.35-.07.43-.43.1-.61Zm2.67-1.54L348.61 193a1.08 1.08 0 0 0-1.11.05 1.15 1.15 0 0 1 1 0c.11.56 34.5 18.95 33.53 19.88.3-.05.38-.4.04-.58Z"/></g><g id="_5-3" data-name="5"><g id="_15-3" data-name="15"><g id="_4-4" data-name="4"><path class="cls-35" d="M300.48 280.3c-.35-.56-2.33 1.11-2.7 1.19-.54.27-.68 2-.08 2.25l-.06-.06c.19.38 2.32-1.23 2.54-1.25.57-.33.54-1.65.3-2.13Z"/><path class="cls-36" d="M299.37 282.14c-1-.46 0 .66-.24 1.62 0 .64-1.07.89-1.08 1.49.14.28.36.24.39.22 1.28-.47 1.45-2.84.93-3.33Z"/><g class="cls-1"><path class="cls-37" d="M231.82 280.47c-4.07 1.55-5.32 2.48-4.09 6.22l6.51-3.8ZM275 308.65c-1.45.83-1.28 3.09-1.27 4.58l23.93-13.91c0-1.48-.17-3.75 1.27-4.58Z"/><g class="cls-1"><path class="cls-37" d="M284.89 313c-1.95-4.23-5.4-6.58-9.31-3.24l6.32 10.87c3.57-1.42 4.74-3.79 2.99-7.63Z"/><path class="cls-38" d="M278.76 310.11c-7.31-3.06-4.24 8.71 0 10.25 2.46 1.43 4.47.28 4.48-2.55a9.83 9.83 0 0 0-4.48-7.7Z"/></g><path class="cls-37" d="M278.75 311.56c-5.24-2.2-3 6.25 0 7.35 5.25 2.2 3.03-6.24 0-7.35Z"/><g class="cls-1"><path class="cls-39" d="M281.56 316.8c.45-1.88-3.57-7.84-4.26-3.68-.46 1.81 3.33 6.52 4.26 3.68Z"/><path class="cls-40" d="M280.63 314.25c-1.65-3.05-3.28.44-1 1.65h-.1c1.21.82 1.67-.73 1.1-1.65Z"/><path class="cls-41" d="M281.59 317.33c-2.76 1.71-5.86-4.71-3.35-5.89-6.03-.44 1.05 11.4 3.35 5.89Z"/><path class="cls-42" d="M278.81 311.64c-4.92-2.18-3 5.8-.15 6.91 1.66 1 3 .26 3.07-1.65a6.59 6.59 0 0 0-2.92-5.26Zm-.14 6.71a6.25 6.25 0 0 1-2.76-5c.76-4.94 6.2.64 5.65 3.41-.04 1.83-1.34 2.53-2.89 1.59Z"/><path class="cls-41" d="M279.57 313.44a2.31 2.31 0 0 1 1 1.83c-.64 2.73-3.69-2.76-1-1.83Z"/></g><g class="cls-1"><path class="cls-37" d="M239.18 286.65c-2-4.23-5.4-6.57-9.31-3.24l6.33 10.88c3.56-1.47 4.73-3.84 2.98-7.64Z"/><path class="cls-38" d="M233.05 283.72c-7.31-3.06-4.23 8.71 0 10.25 2.47 1.43 4.47.29 4.48-2.55a9.79 9.79 0 0 0-4.48-7.7Z"/></g><path class="cls-37" d="M233.05 285.17c-5.25-2.2-3 6.25 0 7.36 5.22 2.19 3.02-6.25 0-7.36Z"/><g class="cls-1"><path class="cls-39" d="M235.85 290.41c.45-1.88-3.57-7.84-4.26-3.68-.46 1.81 3.33 6.52 4.26 3.68Z"/><path class="cls-40" d="M234.92 287.87c-1.65-3.05-3.28.43-1 1.65h-.11c1.19.81 1.68-.74 1.11-1.65Z"/><path class="cls-41" d="M235.88 290.94c-2.76 1.71-5.85-4.71-3.35-5.88-6.03-.46 1.05 11.39 3.35 5.88Z"/><path class="cls-42" d="M233.11 285.25c-4.92-2.18-3 5.8-.15 6.91 1.65 1 3 .26 3.07-1.65a6.65 6.65 0 0 0-2.92-5.26ZM233 292a6.24 6.24 0 0 1-2.75-5c.75-4.94 6.2.64 5.64 3.41-.08 1.8-1.37 2.49-2.89 1.59Z"/><path class="cls-41" d="M233.86 287.05c1 .39 1.66 3.17-.05 2.41-.99-.39-1.67-3.17.05-2.41Z"/></g><g class="cls-1"><path class="cls-111" d="M248.56 244.26a1 1 0 0 0-1-.1l-22.47 13c1.07-.79 41.92 24.18 42.9 24.28l22.46-13Z"/><path class="cls-111" d="M299.38 285.57c-.32-.31-8.53-17.84-9-17.14l-22.46 13c.17.1 7.49 18 7.49 18 9.25-4.05 17.4-8.61 23.97-13.86Zm-12.06-6.32q2.76-1.72 5.31-3.49l4.64 9.23Z"/><path class="cls-111" d="m285.06 307.07-9.61-7.59c-.33-.48-6.75-18.57-7.49-18L226.1 257.3c-3.37-1.79-2.18 22.06-1.85 27.38l3.48 2c-.51-11.33 12.22-.1 10.26 5.92l35.7 20.62c-.55-11.39 12.26.1 10.26 5.92l2.48 1.43c-.43-2.27 1.2-12.08-1.37-13.5Z"/><path class="cls-46" d="m290.91 268.85-22.46 13a2.56 2.56 0 0 1 .43.67l22.46-13a2.56 2.56 0 0 0-.43-.67Z"/></g><path class="cls-47" d="M268.45 284.76c-1.53-4.16-7.91-5.25-11.42-7.91-10.13-5.75-21.22-12.14-31.03-18.25l-.7.84.64-.88c10.25 5.42 21.32 11.87 31.38 17.76 3.51 2.8 9.74 3.99 11.13 8.44Z"/><path class="cls-111" d="M227.73 286.69c-.51-11.33 12.22-.1 10.26 5.92l35.7 20.62c-.06-1.64-.12-4.42 1.87-4.8-20.56-7.09-34.24-25.43-51.75-36.83a117.86 117.86 0 0 0 .44 13.08Z"/><path class="cls-49" d="m298.13 285.62-5.42-9.92-.08.06 4.64 9.23-9.95-5.74c-4.64 2.9-9.69 5.68-15.11 8.36l4 10.73c8.33-3.47 16.54-8.21 21.92-12.72Z"/><path class="cls-111" d="m286.46 309.82 23.93-13.91-.03 10.76-23.93 13.91.03-10.76zM275.45 299.48a146.79 146.79 0 0 0 23.93-13.91l9.62 7.6-23.94 13.9Z"/><path class="cls-111" d="M310.1 294.63a3.89 3.89 0 0 0-1.1-1.46l-23.94 13.9a3.8 3.8 0 0 1 1.4 2.75l23.93-13.91a3.17 3.17 0 0 0-.29-1.28Z"/><path class="cls-46" d="m309.44 293.59-23.94 13.9a4 4 0 0 1 .66 1.05l23.94-13.91a4.28 4.28 0 0 0-.66-1.04Z"/></g><path class="cls-51" d="M292.71 275.7a159.59 159.59 0 0 1-20.5 11.91l4 10.73c8.3-3.47 16.51-8.21 21.89-12.72Z"/><path class="cls-52" d="M269.9 289c-.29-1.71-7.18-4.64-8.38-5.59-1.09-.23-.84 6.26-.51 8.08l12 6.91c.88.34-3.28-9.4-3.11-9.4Z"/><path class="cls-53" d="M311.86 303.72c.07-.54-1.17-1.16-1.47-1.48v1.51l-23.91 13.79-2.69-1.54-.46.27v2.89c.85.27 2.81 2.23 3.76 1.51l24.19-14.16c.9-.44.51-2.04.58-2.79Z"/><path class="cls-54" d="M305.15 305.19v-5.7l-13.35 7.71c.25.35-.66 6.65.66 5.89.13-.27 13.67-7.35 12.69-7.9Z"/><path class="cls-55" d="m305.18 303.57-13.31 7.69V311l13.31-7.68Zm0 1.37-13.31 7.68v.3l13.31-7.68Zm0-.84-13.31 7.69v.3l13.31-7.68Zm0-1.66-13.31 7.68v.3l13.31-7.68Zm0-2.49-13.31 7.68v.3l13.31-7.68Zm0 1.66-13.31 7.68v.3l13.31-7.68Zm0-.83-13.31 7.68v.3l13.31-7.68Z"/><path class="cls-53" d="m310.12 300.24-4.88 2.82v-3.67l4.88-2.82v3.67z"/><path class="cls-56" d="m309.22 299.87.68-.39v.57l-.68.39Z"/><path class="cls-57" d="m309.22 297.41.68-.39v2.16l-.68.39Z"/><path class="cls-58" d="m305.61 299.5 3.61-2.09v1.27l-3.61 2.08Zm0 3 3.61-2.08v-1.37l-3.61 2.09Z"/><g class="cls-1"><path class="cls-59" d="m310.39 300.36-.28-.16v-3.38l.28.17v3.37z"/><path class="cls-60" d="m305.67 303.09-.28-.17 4.72-2.72.28.16-4.72 2.73z"/><path class="cls-59" d="m305.39 303.58-.28-.16-.01-4.03.28.16.01 4.03z"/><path class="cls-60" d="m305.38 299.55-.28-.16 5.29-3.06.29.17-5.3 3.05z"/><path class="cls-61" d="m305.38 299.55 5.29-3.05v4l-5.29 3.06Zm5 .81V297l-4.72 2.72v3.38Z"/></g><g class="cls-1"><path class="cls-59" d="m305.14 305.67-.27-.16-.01-5.68.26.16.02 5.68z"/><path class="cls-60" d="M304.87 305.51a.49.49 0 0 1-.21.45c-.19 0-12.25 7.29-12.45 7.06.12 0 .32.25.45.17l12.26-7.08a.48.48 0 0 0 .22-.44Z"/><g class="cls-1"><g class="cls-1"><path class="cls-59" d="M292.28 313.49c-.23-.13-.5-.25-.49-.58l.26.15a.49.49 0 0 0 .23.43Z"/></g></g><path class="cls-59" d="m292.05 313.06-.26-.15-.02-5.83.26.16.02 5.82z"/><path class="cls-60" d="m292.03 307.24-.26-.16 13.35-7.7.26.15-13.35 7.71z"/><path class="cls-61" d="m292 307.24 13.35-7.71c-.21.74.52 6.56-.46 6.88l-12.26 7.08c-1.2.72-.35-5.96-.63-6.25Zm13.11-1.57v-5.68l-12.82 7.4c.15.14-.36 6.25.36 5.8l12.26-7.08a.48.48 0 0 0 .22-.44Z"/></g><path class="cls-53" d="m291.5 310.98-4.87 2.81v-3.67l4.87-2.81v3.67z"/><path class="cls-56" d="m286.94 312.72.68-.39v.58l-.68.39Z"/><path class="cls-57" d="m286.94 310.27.68-.39V312l-.68.39Z"/><path class="cls-58" d="m287.61 309.88 3.62-2.09v1.27l-3.62 2.09Zm0 3 3.62-2.08v-1.37l-3.62 2.09Z"/><g class="cls-1"><path class="cls-59" d="m291.77 311.1-.28-.16v-3.38l.28.17v3.37z"/><path class="cls-60" d="m287.05 313.83-.28-.16 4.72-2.73.28.16-4.72 2.73z"/><path class="cls-59" d="m286.77 314.32-.28-.16-.01-4.03.28.16.01 4.03z"/><path class="cls-60" d="m286.76 310.29-.28-.16 5.29-3.05.28.16-5.29 3.05z"/><path class="cls-61" d="m286.76 310.29 5.29-3.05v4l-5.29 3.05Zm5 .81v-3.37l-4.72 2.72v3.38Z"/></g><path class="cls-53" d="m226.06 281-2.16-1.25-.06-2.44c-3.22 1.42-2.21 2.63-2.35 5.53-.2 1 3.78 2.54 4.28 3l.3-.16Z"/><path class="cls-62" d="m283.05 311.42-.83-.48c-.43-.17-.73-1.21 0-.89l.83.48c.42.17.72 1.21 0 .89ZM226.78 278.93l-.83-.48c-.42-.16-.72-1.21 0-.89l.83.48c.42.17.72 1.21 0 .89Z"/><path class="cls-35" d="M272.34 296.57c-.36-.56-2.34 1.11-2.7 1.19-.54.27-.69 2-.09 2.25l-.05-.06c.18.38 2.31-1.23 2.53-1.25.57-.33.55-1.64.31-2.13Z"/><path class="cls-63" d="M275 299.19c-.13.56-1.38-.44-1.28-.74.13-.56 1.38.44 1.28.74Z"/><path class="cls-36" d="M274.05 298.68c-1.25 1.06-2.65-.37-2.71-.43-1.35 0 1.05 1.5 1.78 1.32.56.24 2.34-.9.93-.89Z"/></g></g><g class="cls-64"><path class="cls-65" d="M259.31 277.3c-.11.06-13.17-7.83-13.23-7.51a181.39 181.39 0 0 0-.09 27.06c.11-.07 13.19 7.87 13.26 7.52a214.61 214.61 0 0 1 .06-27.07Zm-.22 26.94-13-7.5a189.78 189.78 0 0 1 .12-26.82l13 7.49a200.41 200.41 0 0 0-.12 26.83ZM274.52 299.44c-.84-1.48-3.49-12-5.29-12.54-.22.19-9-5.83-9-4.74a145.5 145.5 0 0 0 .23 23c.11-.06 11.74 7 11.82 6.69-.08-.07-.18-3.86 2.23-5Zm-2.39 12.33-11.55-6.67c.08-.41-1.32-12.33 0-23 1.26 1 9.7 4.8 10 6.6l3.85 10.77v7.41c-2.32 1.04-2.33 4.19-2.3 4.89Z"/></g><path class="cls-66" d="m262.52 296.86-2.52-1.45v-1.82c.62.51 3.22 1.41 3.14 2.45.02.42.07 1.22-.62.82ZM256.21 293.22l2.52 1.46v-1.82c-.4 0-3.09-2.36-3.15-1.19a1.49 1.49 0 0 0 .63 1.55ZM235.59 281l10 5.79v-1.06l-10-5.8c-.59-.27-.4.92 0 1.07Z"/><g class="cls-67"><path class="cls-68" d="m257.43 289.48-10.21-5.89c-1.39-1.94-.46-6.24-.23-8.62-.6 1.32-1.1 7.77.1 8.7.62.12 10.12 6.36 10.77 5.83a.47.47 0 0 1-.43-.02Z"/><path class="cls-69" d="m257.63 280.89-10.2-5.89a.38.38 0 0 0-.5.05.45.45 0 0 1 .34 0l10.21 5.9c1.42 2.07.27 6 .29 8.54.43-1.35 1.04-7.68-.14-8.6Z"/></g><g class="cls-67"><path class="cls-68" d="M244.15 281.82 228.93 273c-1.39-1.94-.47-6.24-.23-8.62-.6 1.31-1.1 7.77.1 8.7l15.2 8.81a.48.48 0 0 0 .56-.05.5.5 0 0 1-.41-.02Z"/><path class="cls-69" d="m244.35 273.22-15.22-8.78c-.16-.09-.39-.11-.49.05.38-.24 15.22 8.78 15.56 8.82 1.42 2.08.27 6.05.29 8.54.43-1.38 1.04-7.71-.14-8.63Z"/></g><path class="cls-70" d="M270 275.59h-.09c1-.92-33.42-19.33-33.52-19.88a1.21 1.21 0 0 0-1 0 1.1 1.1 0 0 1 1.11 0c.09.54 34.86 18.92 33.5 19.88Zm-2.68.94-33.42-19.32a1.1 1.1 0 0 0-1.11.05 1.19 1.19 0 0 1 1 0c.11.56 34.5 19 33.53 19.88.29-.07.38-.43.04-.61Zm5.36-3.09-33.47-19.32a1.08 1.08 0 0 0-1.11 0 1.17 1.17 0 0 1 1 0c.1.56 34.5 18.95 33.52 19.88.38 0 .44-.38.1-.56Zm8-4.64-33.47-19.32a1.08 1.08 0 0 0-1.1.05 1.15 1.15 0 0 1 1 0c.11.56 34.5 19 33.52 19.88.37-.07.46-.41.12-.61Zm2.68-1.54L250 247.93a1.1 1.1 0 0 0-1.11 0 1.17 1.17 0 0 1 1 0c.1.56 34.5 19 33.52 19.88.27-.02.36-.37.02-.55Zm-8 4.63-33.47-19.32a1.1 1.1 0 0 0-1.11.05 1.17 1.17 0 0 1 1 0c.1.55 34.49 19 33.52 19.88.35-.07.43-.43.1-.61Zm2.67-1.54L244.61 251a1.08 1.08 0 0 0-1.11.05 1.15 1.15 0 0 1 1 0c.11.56 34.5 18.95 33.53 19.88.3-.05.38-.4.04-.58Z"/></g><path class="cls-112" d="M328.86 237.65h-6.32c-1.08-4.07-2.62-9.18-.46-13.16Z"/><path class="cls-113" d="M316 270.17c1.93.66 25.61 15.72 27.36 15.19.79.1 4.93-.11 2.88 1.54-2.53 1.74-5.43 2.86-8.49 2.22-2.16.78-25.87-14.27-28.18-15.23v-.8Z"/><path class="cls-114" d="M316 269.38c3.31 1.36 26.38 16.85 29.92 15.35 2.11.65.22 2.18-.92 2.62-3.26 1.77-7.76 1.45-11-.16l-24.41-14.1Z"/><path class="cls-3" d="M332.72 283.31a1.17 1.17 0 0 0 1.06-1.64c-.74-.4-7.74-20.23-9.52-18.24a1.15 1.15 0 0 0-.58 1.54c.49.35 7.91 19.33 9.04 18.34Z"/><path class="cls-3" d="M318.22 275.33c.69.8 7.09-9.93 7.49-10.19a1.17 1.17 0 0 0-1.94-1.3l-6.52 9.67a1.18 1.18 0 0 0 .97 1.82Z"/><path class="cls-3" d="M329.89 278.17a.78.78 0 0 0 .27-1.51c-.58.14-12.1-5.38-12.07-3.65a.77.77 0 0 0 .45 1c.27.05 11.09 4.21 11.35 4.16Z"/><path class="cls-113" d="M333.39 259.68c1.93.65 25.61 15.72 27.36 15.18.79.1 4.94-.11 2.88 1.55-2.53 1.73-5.42 2.85-8.49 2.22-2.16.78-25.87-14.27-28.18-15.24v-.79Z"/><path class="cls-114" d="M333.39 258.88c3.31 1.37 26.38 16.86 29.92 15.36 2.11.65.23 2.18-.92 2.62-3.26 1.76-7.76 1.45-11-.17L327 262.6Z"/><path class="cls-3" d="M350.09 272.82a1.17 1.17 0 0 0 1.06-1.65c-.74-.39-7.74-20.22-9.52-18.24a1.17 1.17 0 0 0-.58 1.55c.49.35 7.95 19.33 9.04 18.34Z"/><path class="cls-3" d="M335.59 264.84c.7.79 7.09-9.93 7.49-10.19a1.17 1.17 0 0 0-1.94-1.31l-6.51 9.66a1.17 1.17 0 0 0 .96 1.84Z"/><path class="cls-3" d="M347.26 267.67a.78.78 0 0 0 .27-1.51l-11.07-4.1a.78.78 0 0 0-.54 1.46c.26.05 11.08 4.2 11.34 4.15Z"/><path d="M298.44 270c6 2.5 3.46-7.1 0-8.37L275 248.06c-2-1.16-3.64-.23-3.65 2.08a8 8 0 0 0 3.63 6.29Z" style="fill:#331d27"/><path class="cls-3" d="M300.63 269.56c1.92-2-.57-6.07-2.56-7.25l-23.45-13.56c-4.67-1.85-1.7 6.21.76 7 .21-.11 25.8 15.59 25.25 13.81Z"/><path class="cls-8" d="M301.1 269c.8-2.27-1.08-5.52-3-6.68l-23.45-13.56a3 3 0 0 0-1.06-.38c-.8 2.27 1.08 5.52 3 6.67l23.46 13.57a2.92 2.92 0 0 0 1.05.38Z"/><path class="cls-3" d="m274.56 247.42-1.57.9 4.25 7.36c5.36-1.85.65-7.68-2.68-8.26Z"/><path class="cls-116" d="M272.11 250.27c0-1.92 1.35-2.7 3-1.74 2.82 1 4.92 9 0 6.94a6.67 6.67 0 0 1-3-5.2Z"/><path class="cls-8" d="M273.32 248.89c2.49-.61 5.37 4.37 3.59 6.23-2.46.64-5.38-4.42-3.59-6.23Z"/><path class="cls-14" d="M273.63 248.78c2.37.09 4.64 4 3.53 6.11-2.37-.08-4.64-4.01-3.53-6.11Z"/><path class="cls-8" d="M274.89 250.75c.83-.2 1.79 1.45 1.2 2.07-.82.18-1.79-1.47-1.2-2.07Z"/><path class="cls-3" d="m291.24 259.78-.87.5 2.35 4.08c2.73-.6.74-5.36-1.48-4.58Z"/><path class="cls-116" d="M289.88 261.36c.38-2.93 3.62.28 3.33 1.92-.38 2.93-3.62-.28-3.33-1.92Z"/><path class="cls-8" d="M290.55 260.6c1.38-.34 3 2.42 2 3.45-1.37.35-2.99-2.45-2-3.45Z"/><path class="cls-14" d="M290.73 260.54c1.31 0 2.56 2.22 1.95 3.38-1.31-.04-2.57-2.22-1.95-3.38Z"/><path class="cls-8" d="M291.42 261.63c.46-.11 1 .8.67 1.15-.46.11-1-.78-.67-1.15Z"/><path class="cls-3" d="m286.37 257-.87.5 2.36 4.08c2.72-.58.73-5.44-1.49-4.58Z"/><path class="cls-116" d="M285 258.55c.37-2.93 3.61.28 3.32 1.92-.32 2.93-3.59-.28-3.32-1.92Z"/><path class="cls-8" d="M285.68 257.78c1.39-.33 3 2.43 2 3.46-1.37.35-2.99-2.45-2-3.46Z"/><path class="cls-14" d="M285.86 257.73c1.31 0 2.57 2.22 1.95 3.38-1.31-.04-2.57-2.22-1.95-3.38Z"/><path class="cls-8" d="M286.56 258.82c.46-.12 1 .8.66 1.14-.45.12-.99-.81-.66-1.14Z"/><path class="cls-3" d="m281.51 254.16-.87.5 2.35 4.08c2.72-.61.74-5.41-1.48-4.58Z"/><path class="cls-116" d="M280.15 255.74c.38-2.93 3.62.28 3.33 1.92-.38 2.93-3.62-.28-3.33-1.92Z"/><path class="cls-8" d="M280.82 255c1.38-.33 3 2.42 2 3.45-1.37.33-2.99-2.45-2-3.45Z"/><path class="cls-14" d="M281 254.91c1.32.05 2.57 2.23 2 3.39-1.36-.04-2.62-2.23-2-3.39Z"/><path class="cls-8" d="M281.69 256c.46-.11 1 .81.66 1.15-.45.12-.99-.81-.66-1.15ZM298.24 261.34l-1.57.91 4.24 7.36 1.58-.91c1.03-2.23-.84-8.7-4.25-7.36Z"/><path class="cls-116" d="M295.79 264.2c0-1.92 1.34-2.7 3-1.74 2.82 1 4.92 9 0 6.94a6.64 6.64 0 0 1-3-5.2Z"/><path class="cls-8" d="M297 262.82c2.5-.61 5.37 4.37 3.6 6.23-2.47.64-5.4-4.42-3.6-6.23Z"/><path class="cls-14" d="M297.31 262.71c2.37.09 4.64 4 3.53 6.11-2.37-.08-4.64-4.02-3.53-6.11Z"/><path class="cls-8" d="M298.57 264.68c.83-.2 1.78 1.45 1.19 2.07-.76.25-1.76-1.47-1.19-2.07Z"/><path class="cls-14" d="M301 270.25c5.33-3 9.73-4.41 4.43-10.9-1.45-1.41-3.53-2.22-5.22-3.3l-6.24-3.6c-3.63-2.1-9-5.21-12.57-7.29a3.39 3.39 0 0 0-4.49 0c-1.12.66-3.4 2-4.51 2.63 1.34-.76 2.81.41 4 1.05l3 1.74c2.24 1.3 7.37 4.29 9.57 5.55l7.39 4.27c3.41 1.37 7.88 6.48 4.64 9.85Z"/><path class="cls-8" d="M302.09 267.9a8 8 0 0 0-3.63-6.29L275 248.05c-6-2.5-3.46 7.11 0 8.37L298.43 270c2.02 1.15 3.65.21 3.66-2.1Zm-1.47 1.65c.53 1.8-25-14-25.24-13.82-2.47-.78-5.43-8.84-.77-7l23.45 13.56c2 1.2 4.48 5.23 2.56 7.26Z"/><path class="cls-8" d="m298.22 261.48 5.72-3.3-.69-.4-5.72 3.3.69.4z"/><path class="cls-8" d="m301.9 258.96-.89-.52-2.3 1.33.89.52 2.3-1.33zM296.37 260.42l5.72-3.3-.69-.4-5.72 3.3.69.4z"/><path class="cls-8" d="m300.02 257.91-.89-.52-2.31 1.33.9.52 2.3-1.33zM294.52 259.35l5.72-3.3-.69-.4-5.72 3.3.69.4z"/><path class="cls-8" d="m298.13 256.86-.89-.51-2.3 1.33.89.51 2.3-1.33zM292.67 258.28l5.72-3.3-.69-.4-5.72 3.3.69.4z"/><path class="cls-8" d="m296.25 255.82-.89-.52-2.3 1.33.89.52 2.3-1.33zM290.82 257.21l5.72-3.3-.69-.4-5.72 3.31.69.39z"/><path class="cls-8" d="m294.37 254.77-.9-.51-2.3 1.33.89.51 2.31-1.33zM288.98 256.15l5.71-3.3-.69-.4-5.71 3.3.69.4z"/><path class="cls-8" d="m292.48 253.72-.89-.51-2.3 1.33.89.51 2.3-1.33zM287.13 255.08l5.72-3.3-.7-.4-5.72 3.3.7.4z"/><path class="cls-8" d="m290.6 252.68-.9-.52-2.3 1.33.9.52 2.3-1.33z"/><path class="cls-8" d="m287.13 255.09 5.72-3.3-.7-.4-5.71 3.3.69.4z"/><path class="cls-8" d="m290.74 252.6-.89-.51-2.3 1.33.89.51 2.3-1.33zM285.28 254.02l5.72-3.3-.69-.4-5.72 3.3.69.4z"/><path class="cls-8" d="m288.86 251.56-.89-.52-2.3 1.33.89.51 2.3-1.32zM283.43 252.95l5.72-3.3-.69-.4-5.72 3.31.69.39z"/><path class="cls-8" d="m286.98 250.51-.9-.52-2.3 1.33.89.52 2.31-1.33zM281.58 251.89l5.72-3.3-.69-.4-5.72 3.3.69.4z"/><path class="cls-8" d="m285.09 249.46-.89-.51-2.3 1.33.89.51 2.3-1.33zM279.86 250.87l5.72-3.3-.69-.4-5.72 3.31.69.39z"/><path class="cls-8" d="m283.09 248.62-.9-.52-2.3 1.33.89.51 2.31-1.32zM278.25 249.93l5.72-3.3-.69-.4-5.72 3.3.69.4z"/><path class="cls-8" d="m281.44 247.69-.9-.51-2.3 1.33.89.51 2.31-1.33zM276.4 248.86l5.72-3.3-.69-.4-5.72 3.31.69.39z"/><path class="cls-8" d="m279.55 246.65-.89-.52-2.3 1.33.89.52 2.3-1.33zM274.52 247.82l5.72-3.3c-.72-1-6 2.89-6.67 3a3 3 0 0 1 .95.3Z"/><path class="cls-8" d="m275.37 246.93 2.3-1.33-.73-.42-2.3 1.34ZM299.75 262.64l5.71-3.29a6.17 6.17 0 0 0-.53-.5l-5.71 3.3c.18.15.36.32.53.49Z"/><path class="cls-8" d="m303.3 260.19-.57-.71-2.3 1.33.57.71 2.3-1.33zM300.94 264.18l5.7-3.29a6.17 6.17 0 0 0-.39-.6l-5.7 3.3a6 6 0 0 1 .39.59Z"/><path class="cls-8" d="m304.56 261.68-.49-.77-2.31 1.33.49.77 2.31-1.33zM301.76 266l5.7-3.29a5.92 5.92 0 0 0-.25-.66l-5.7 3.29c.09.16.18.39.25.66Z"/><path class="cls-8" d="m305.51 263.38-.32-.86-2.31 1.33.33.86 2.3-1.33zM302.09 268l5.69-3.29a3.88 3.88 0 0 0 0-.76l-5.69 3.28a5 5 0 0 1 0 .77Z"/><path class="cls-8" d="m306.05 265.3-.18-.91-2.31 1.33.19.91 2.3-1.33zM301 270.25c.67-.52 6.29-3.29 6.45-4.16-.77.43-6.08 3.43-6.45 4.16Z"/><path class="cls-8" d="m306.05 267.23.14-.89-2.3 1.33-.14.89 2.3-1.33z"/><path class="cls-117" d="M274.72 245.08h-.69v-.99l.69-.07v1.06z"/><path class="cls-117" d="M274.81 246.38 303.57 263l4.93-2.85-31.11-17.92c-1.39.71-5.05 2.37-2.58 4.15Z"/><path class="cls-118" d="m274.81 245.54 28.76 16.57 4.93-2.84-31.11-17.92c-1.39.75-5.05 2.41-2.58 4.19Z"/><g class="cls-1"><path class="cls-8" d="m287.39 222.22-8.86 5.19a1.3 1.3 0 0 1 1.31.13l8.86-5.2a1.29 1.29 0 0 0-1.31-.12Z"/><path class="cls-8" d="m280 227.65 8.86-5.2-.17-.11-8.86 5.2ZM311.31 255.86l8.86-5.19.01-3.06-8.86 5.19-.01 3.06z"/><path class="cls-4" d="m277.24 233.13-.01 8.3 34.07 19.68.02-8.31-.01 3.06-34.07-22.73z"/><path class="cls-3" d="m288.21 226.75 29.51 22.29-6.4 3.76-.01 3.06-34.07-22.73 10.97-6.38z"/><path class="cls-3" d="m286.78 232.29 8.86-5.2-6.77-4.64-8.86 5.2 6.77 4.64z"/><path class="cls-8" d="m289.13 235.59 8.86-5.2-2.35-3.3-8.86 5.2 2.35 3.3z"/><path class="cls-4" d="m311.3 258.92 8.86-5.2.02-6.11-8.86 5.19-.02 6.12z"/><path class="cls-8" d="M279.84 227.54c-2.65-1.65-2 4.53-2.6 5.59l34.07 22.73v-7.38l-22.2-12.89-2.35-3.3c-.22-.15-6.65-4.6-6.92-4.75ZM311.32 252.8l8.86-5.19.01-4.32-8.86 5.19-.01 4.32z"/><path class="cls-3" d="m311.33 248.48 8.86-5.19-22.2-12.9-8.86 5.2 22.2 12.89z"/></g><path class="cls-118" d="m330.24 274.76 19.2-11.15-.65-4.13-19.2 11.15.65 4.13z"/><path d="M304.88 245.2a117.12 117.12 0 0 1 24.7 25.43l19.2-11.16c-7.42-10.11-15.59-18.73-24.71-25.42Z" style="fill:#ff463d"/><path class="cls-117" d="m297.77 259.68 24 13.85 8.5 1.24c-1.22-9.92-18.38-24-25.37-29.57Z"/><path class="cls-118" d="M329.23 268.3c-2.87-2.76-1.6-8.23 3.17-4.71Z"/><path class="cls-11" d="M333.26 265.05c-1.4-5.59-7.71 5.05-2.09 3.52a4.14 4.14 0 0 0 2.09-3.52Z"/><path class="cls-4" d="M333.71 265.31c-1.4-5.59-7.71 5.05-2.09 3.52a4.16 4.16 0 0 0 2.09-3.52Z"/><path class="cls-22" d="M331.47 264.42c-1.81.6-2.73 5.09.13 4 1.8-.61 2.74-5.1-.13-4Z"/><path class="cls-25" d="M331.32 264.5c-1 .41-2.67 3.63-.42 2.91.99-.41 1.91-2.73.42-2.91Z"/><path class="cls-118" d="M344.12 259.9c-2.87-2.77-1.6-8.24 3.18-4.72Z"/><path class="cls-11" d="M348.15 256.64c-1.39-5.59-7.7 5.05-2.09 3.53a4.17 4.17 0 0 0 2.09-3.53Z"/><path class="cls-4" d="M348.6 256.9c-1.4-5.59-7.71 5.05-2.09 3.52a4.14 4.14 0 0 0 2.09-3.52Z"/><path class="cls-22" d="M346.36 256c-1.8.61-2.73 5.09.13 4 1.81-.6 2.74-5.08-.13-4Z"/><path class="cls-25" d="M346.21 256.09c-1 .41-2.67 3.63-.42 2.91.99-.4 1.91-2.73.42-2.91Z"/><path d="M296 256.58a6.71 6.71 0 0 0 2.48 1.69l2-4a19.67 19.67 0 0 1 .12-2.52h-3.82c-.12 1.79-.78 2.89-.78 4.83Z"/><path class="cls-4" d="M313.78 240c8 6 17.31 15.57 24.73 25.41l4.06-2.36a144.2 144.2 0 0 0-24.43-25.59Z"/><path style="fill:#0089a1;opacity:.2" d="m309.44 248.77 19.42-11.12-6.78-13.16-19.42 11.12 6.78 13.16z"/><path class="cls-112" d="M309.44 248.77h-6.32c-1.08-4.07-2.62-9.18-.46-13.16Z"/><path style="fill:#292929" d="M288.74 344.29 577.9 177.02l-.04 22.23L288.7 366.53l.04-22.24z"/><path style="fill:#454545" d="M288.74 344.29.14 177.98.1 200.22l288.6 166.31.04-22.24z"/></g></g></g></svg>