<svg xmlns="http://www.w3.org/2000/svg" xmlns:xlink="http://www.w3.org/1999/xlink" viewBox="0 0 817.96 511.37"><defs><linearGradient id="Безымянный_градиент_50" x1="164.28" y1="244.36" x2="174.38" y2="244.36" gradientTransform="rotate(49.54 258.964 234.146)" gradientUnits="userSpaceOnUse"><stop offset=".16" stop-color="#a9c3cf"/><stop offset=".16" stop-color="#cbd8e2"/><stop offset=".56" stop-color="#cbd8e2"/><stop offset=".56" stop-color="#dfecf6"/><stop offset=".87" stop-color="#dfecf6"/><stop offset=".87" stop-color="#fcfffe"/></linearGradient><linearGradient id="Безымянный_градиент_50-2" x1="164.28" y1="280.94" x2="174.41" y2="280.94" xlink:href="#Безымянный_градиент_50"/><linearGradient id="Безымянный_градиент_50-3" x1="218.92" y1="215.35" x2="227.29" y2="215.35" gradientTransform="rotate(54.7 300.66 207.43)" xlink:href="#Безымянный_градиент_50"/><linearGradient id="Безымянный_градиент_50-4" x1="219.29" y1="243.73" x2="229.54" y2="243.73" gradientTransform="rotate(54.7 300.66 207.43)" xlink:href="#Безымянный_градиент_50"/><style>.cls-5{fill:#3e312c}.cls-6{fill:#695d59}.cls-7{fill:#1d1715}.cls-8{fill:#dadada}.cls-9{fill:#ededed}.cls-10{fill:#dad1d1}.cls-11{fill:#c6c6c6}.cls-12{fill:#514845}.cls-13{fill:#3f76ab}.cls-14{fill:#305a82}.cls-17{fill:#61a8ed}.cls-18{fill:#4c8fcf}.cls-20{fill:#f39200}.cls-21{fill:#ffb60a}.cls-22{fill:#8fd1cf}.cls-23,.cls-28{fill:#fff}.cls-23{opacity:.5}.cls-25{fill:#3c3c3b}.cls-26{fill:#575756}.cls-27{fill:#ffc734}.cls-30{fill:#5fdced}.cls-32{isolation:isolate}.cls-33{fill:#f6f6f6}.cls-34{fill:#d04158}.cls-36{fill:#539be0}.cls-37{fill:#a62338}.cls-38{fill:#ff4756}.cls-39{fill:#706f6f}.cls-40{fill:#ccc}.cls-41,.cls-46{opacity:.15}.cls-43,.cls-45,.cls-46{fill:#1d1d1b}.cls-43{opacity:.1}.cls-47{fill:#ffbb7d}.cls-53{fill:#cccbd7}.cls-54{fill:#b6b6c6}.cls-58{fill:#f0f0f0}.cls-59{fill:#787878}.cls-60{fill:#adadad}.cls-61{fill:#b5b5b5}.cls-64{fill:#878787}</style></defs><g id="Слой_2" data-name="Слой 2"><g id="основа"><path style="fill:#292929" d="M414.98 479.92 817.1 255.17l.86 31.46-402.12 224.74-.86-31.45z"/><path style="fill:#454545" d="M414.98 479.92 0 232.89l.86 31.45 414.98 247.03-.86-31.45z"/><path style="fill:#4f4f4f" d="M0 232.89 402.12 8.15 817.1 255.18 414.98 479.92 0 232.89z"/></g><g id="Слой_1-2" data-name="Слой 1"><path style="fill:#755f6b" d="M423.93 153.45 151.2 320.61l75.55 46.36L515.2 190.2l-75.07-46.23-16.2 9.48z"/><path class="cls-5" d="m437.67 372.41 72.32-45.21v7.74l-67.72 42.33-4.6-4.86zM413.33 396.16l6.51 4.07 3.31-18.92-9.82-1.59v16.44z"/><path class="cls-6" d="m421.14 400.2 23.59-14.8a4.06 4.06 0 0 0 1.65-3.11v-10.81c0-1.14-.74-1.61-1.65-1l-23.59 14.8a4 4 0 0 0-1.66 3.11v10.8c0 1.12.74 1.59 1.66 1.01Z"/><path class="cls-5" d="m529.34 313.83 3.99 6.6 8.55 5.34 1.01-8.78-13.55-3.16z"/><path class="cls-7" d="m530.06 315.33-13.2 24.75 6.88 4.29 13.19-24.74-6.87-4.3z"/><path class="cls-7" d="M533.07 322.05c0 6.45-4.19 14.29-9.35 17.5s-9.33.6-9.32-5.85 4.18-14.28 9.34-17.5 9.33-.6 9.33 5.85Z"/><path class="cls-7" d="M525.55 335.26a12.17 12.17 0 0 1 5-9.37c2.76-1.73 5-.33 5 3.12a12.2 12.2 0 0 1-5 9.38c-2.77 1.72-5 .32-5-3.13Z"/><path class="cls-7" d="M530.54 343.81c5.15-3.21 9.33-11.05 9.34-17.5s-4.17-9.06-9.33-5.85-9.34 11.05-9.34 17.5 4.17 9.04 9.33 5.85Zm0-18.86c3.17-2 5.74-.37 5.74 3.6s-2.58 8.8-5.75 10.78-5.75.36-5.74-3.61 2.59-8.79 5.76-10.72Z"/><path class="cls-8" d="M530.54 340.41c3.65-2.28 6.61-7.83 6.61-12.4s-2.95-6.42-6.6-4.14-6.61 7.83-6.62 12.39 2.96 6.43 6.61 4.15Zm0-15.65c3.26-2 5.89-.37 5.89 3.7s-2.65 9-5.9 11.05-5.89.38-5.89-3.69 2.65-9.02 5.91-11.06Z"/><path class="cls-9" d="M530.54 337.21a9.91 9.91 0 0 0 4.06-7.6c0-2.8-1.81-3.94-4.05-2.54a9.88 9.88 0 0 0-4.06 7.6c0 2.8 1.81 3.93 4.05 2.54Zm0-8.26c1.4-.88 2.54-.16 2.54 1.6a6.19 6.19 0 0 1-2.55 4.77c-1.41.88-2.55.17-2.54-1.59a6.21 6.21 0 0 1 2.56-4.73Z"/><path class="cls-10" d="M530.54 335.32a6.19 6.19 0 0 0 2.55-4.77c0-1.76-1.14-2.48-2.54-1.6a6.21 6.21 0 0 0-2.55 4.78c0 1.76 1.13 2.47 2.54 1.59Zm-1-.71c-.14.27-.38.41-.52.32s-.14-.38 0-.64.38-.41.52-.33.17.38.03.65Zm1-.25c-.12.07-.21 0-.21-.13a.5.5 0 0 1 .21-.4c.12-.07.21 0 .21.13a.5.5 0 0 1-.21.4Zm1.49-1.29c-.14.27-.37.41-.51.32s-.14-.38 0-.64.37-.41.51-.32.14.37-.03.64Zm.29-2a.52.52 0 0 1-.21.4c-.12.07-.21 0-.21-.14a.53.53 0 0 1 .21-.4c.12-.11.21-.05.21.07Zm-.8-1.36c.14-.27.37-.41.52-.33s.14.38 0 .65-.38.41-.52.32-.14-.42 0-.68Zm-1 .24c.11-.07.21 0 .21.14a.57.57 0 0 1-.21.4c-.12.07-.22 0-.22-.14a.53.53 0 0 1 .25-.44Zm0 1c.54-.34 1-.06 1 .6a2.35 2.35 0 0 1-1 1.82c-.53.33-1 .06-1-.61a2.35 2.35 0 0 1 1.02-1.83Zm-1.49.28c.15-.27.38-.42.52-.33s.14.38 0 .65-.37.41-.52.32-.12-.4.02-.66Zm-.07 1.64c.12-.07.21 0 .21.13a.5.5 0 0 1-.21.4c-.12.07-.21 0-.21-.13a.5.5 0 0 1 .25-.42Z"/><path class="cls-11" d="M530.54 335.32a6.19 6.19 0 0 0 2.55-4.77c0-1.76-1.14-2.48-2.54-1.6a6.21 6.21 0 0 0-2.55 4.78c0 1.76 1.13 2.47 2.54 1.59Zm-1-.71c-.14.27-.38.41-.52.32s-.14-.38 0-.64.38-.41.52-.33.17.38.03.65Zm1-.25c-.12.07-.21 0-.21-.13a.5.5 0 0 1 .21-.4c.12-.07.21 0 .21.13a.5.5 0 0 1-.21.4Zm1.49-1.29c-.14.27-.37.41-.51.32s-.14-.38 0-.64.37-.41.51-.32.14.37-.03.64Zm.29-2a.52.52 0 0 1-.21.4c-.12.07-.21 0-.21-.14a.53.53 0 0 1 .21-.4c.12-.11.21-.05.21.07Zm-.8-1.36c.14-.27.37-.41.52-.33s.14.38 0 .65-.38.41-.52.32-.14-.42 0-.68Zm-1 .24c.11-.07.21 0 .21.14a.57.57 0 0 1-.21.4c-.12.07-.22 0-.22-.14a.53.53 0 0 1 .25-.44Zm0 1c.54-.34 1-.06 1 .6a2.35 2.35 0 0 1-1 1.82c-.53.33-1 .06-1-.61a2.35 2.35 0 0 1 1.02-1.83Zm-1.49.28c.15-.27.38-.42.52-.33s.14.38 0 .65-.37.41-.52.32-.12-.4.02-.66Zm-.07 1.64c.12-.07.21 0 .21.13a.5.5 0 0 1-.21.4c-.12.07-.21 0-.21-.13a.5.5 0 0 1 .25-.42Z"/><path class="cls-10" d="M530.54 339.51c3.25-2 5.9-7 5.9-11.05s-2.63-5.73-5.89-3.7-5.9 7-5.9 11.06 2.63 5.72 5.89 3.69Zm-4-1.14c-.31.42-.69.57-.84.33s0-.77.28-1.19.69-.56.85-.33a1.28 1.28 0 0 1-.32 1.19Zm0-3.7a9.88 9.88 0 0 1 4.06-7.6c2.24-1.4 4.05-.26 4.05 2.54a9.91 9.91 0 0 1-4.06 7.6c-2.29 1.39-4.1.26-4.1-2.54Zm2 4.46c-.18.5-.54.89-.81.86s-.33-.45-.15-.95.54-.89.81-.86.32.45.14.95Zm2 .05c-.31.19-.56 0-.56-.47a1.48 1.48 0 0 1 .56-1.16c.31-.19.56 0 .56.47a1.48 1.48 0 0 1-.56 1.16Zm2.82-2.7c-.27.36-.63.42-.81.15a1.12 1.12 0 0 1 .15-1.15c.27-.36.63-.43.81-.15a1.13 1.13 0 0 1-.15 1.15Zm2.06-3.86c-.16.43-.53.75-.85.72s-.44-.4-.28-.84.53-.75.84-.72.44.41.29.84Zm.76-4a1.49 1.49 0 0 1-.66 1.11c-.36.22-.65.09-.65-.29a1.48 1.48 0 0 1 .65-1.11c.36-.22.66-.09.66.29Zm-1.6-2.72c.31-.42.69-.56.84-.33s0 .77-.28 1.19-.69.57-.85.33a1.28 1.28 0 0 1 .29-1.19Zm-2-.76c.18-.5.54-.89.8-.86s.34.46.16 1-.54.89-.81.86-.35-.5-.17-1Zm-2 0c.31-.2.56 0 .56.46a1.51 1.51 0 0 1-.56 1.16c-.31.2-.56 0-.56-.46a1.48 1.48 0 0 1 .53-1.2Zm-2.82 2.7c.27-.36.63-.43.81-.15a1.11 1.11 0 0 1-.16 1.15c-.26.36-.63.43-.8.15a1.1 1.1 0 0 1 .12-1.19Zm-2.06 3.86c.15-.43.53-.75.84-.72s.44.4.29.83-.53.75-.84.72-.47-.44-.32-.87Zm-.1 2.89c.35-.23.65-.1.65.29a1.49 1.49 0 0 1-.65 1.1c-.36.23-.66.1-.66-.29a1.46 1.46 0 0 1 .63-1.14Z"/><path class="cls-5" d="m508.38 326.93 3.99 6.59 8.55 5.35 1.01-8.78-13.55-3.16z"/><path class="cls-7" d="m508.58 329.03-13.19 24.75 6.87 4.3 13.2-24.75-6.88-4.3z"/><path class="cls-7" d="M511.59 335.75c0 6.45-4.19 14.29-9.34 17.51s-9.33.59-9.33-5.86 4.19-14.28 9.34-17.49 9.34-.6 9.33 5.84Z"/><path class="cls-7" d="M504.07 349a12.18 12.18 0 0 1 5-9.37c2.76-1.73 5-.33 5 3.12a12.2 12.2 0 0 1-5 9.38c-2.76 1.69-5 .29-5-3.13Z"/><path class="cls-7" d="M509.06 357.52c5.16-3.22 9.34-11.06 9.34-17.51s-4.17-9.06-9.32-5.85-9.34 11.06-9.35 17.5 4.17 9.07 9.33 5.86Zm0-18.87c3.18-2 5.75-.36 5.74 3.6s-2.57 8.8-5.75 10.78-5.74.37-5.74-3.6 2.59-8.8 5.76-10.78Z"/><path class="cls-8" d="M509.06 354.11c3.65-2.28 6.62-7.83 6.62-12.4s-2.95-6.42-6.61-4.14-6.61 7.83-6.61 12.4 2.95 6.42 6.6 4.14Zm0-15.64c3.26-2 5.9-.38 5.89 3.69s-2.64 9-5.9 11.06-5.89.37-5.89-3.7 2.66-9.02 5.91-11.05Z"/><path class="cls-9" d="M509.06 350.91a9.88 9.88 0 0 0 4.06-7.6c0-2.8-1.81-3.94-4.05-2.54a9.87 9.87 0 0 0-4.05 7.6c-.02 2.8 1.81 3.94 4.04 2.54Zm0-8.26c1.41-.87 2.55-.16 2.55 1.6a6.27 6.27 0 0 1-2.55 4.78c-1.41.87-2.55.16-2.55-1.6a6.21 6.21 0 0 1 2.56-4.78Z"/><path class="cls-10" d="M509.07 349a6.27 6.27 0 0 0 2.55-4.78c0-1.76-1.14-2.47-2.55-1.6a6.21 6.21 0 0 0-2.55 4.78c0 1.79 1.14 2.5 2.55 1.6Zm-1-.72c-.14.27-.37.41-.51.32s-.14-.37 0-.64.37-.41.51-.32.16.41.02.67Zm1-.25c-.12.08-.22 0-.22-.13a.53.53 0 0 1 .22-.4c.11-.07.21 0 .21.14a.53.53 0 0 1-.21.42Zm1.49-1.29c-.15.27-.38.41-.52.33s-.14-.38 0-.65.38-.41.52-.32.14.41 0 .67Zm.29-2a.51.51 0 0 1-.22.4c-.11.07-.21 0-.21-.13a.53.53 0 0 1 .21-.4c.12-.09.22-.03.22.12Zm-.81-1.36c.15-.27.38-.41.52-.32s.14.37 0 .64-.37.41-.52.32-.14-.39-.04-.65Zm-1 .25c.12-.08.21 0 .21.13a.5.5 0 0 1-.21.4c-.12.07-.21 0-.21-.14a.5.5 0 0 1 .24-.4Zm0 1c.53-.33 1-.06 1 .61a2.4 2.4 0 0 1-1 1.81c-.54.33-1 .06-1-.61a2.37 2.37 0 0 1 1.03-1.81Zm-1.49.28c.14-.27.37-.42.51-.32s.15.37 0 .64-.37.41-.51.32-.11-.38.03-.64Zm-.08 1.64c.12-.07.22 0 .22.13a.51.51 0 0 1-.22.4c-.12.08-.21 0-.21-.13a.53.53 0 0 1 .24-.4Z"/><path class="cls-11" d="M509.07 349a6.27 6.27 0 0 0 2.55-4.78c0-1.76-1.14-2.47-2.55-1.6a6.21 6.21 0 0 0-2.55 4.78c0 1.79 1.14 2.5 2.55 1.6Zm-1-.72c-.14.27-.37.41-.51.32s-.14-.37 0-.64.37-.41.51-.32.16.41.02.67Zm1-.25c-.12.08-.22 0-.22-.13a.53.53 0 0 1 .22-.4c.11-.07.21 0 .21.14a.53.53 0 0 1-.21.42Zm1.49-1.29c-.15.27-.38.41-.52.33s-.14-.38 0-.65.38-.41.52-.32.14.41 0 .67Zm.29-2a.51.51 0 0 1-.22.4c-.11.07-.21 0-.21-.13a.53.53 0 0 1 .21-.4c.12-.09.22-.03.22.12Zm-.81-1.36c.15-.27.38-.41.52-.32s.14.37 0 .64-.37.41-.52.32-.14-.39-.04-.65Zm-1 .25c.12-.08.21 0 .21.13a.5.5 0 0 1-.21.4c-.12.07-.21 0-.21-.14a.5.5 0 0 1 .24-.4Zm0 1c.53-.33 1-.06 1 .61a2.4 2.4 0 0 1-1 1.81c-.54.33-1 .06-1-.61a2.37 2.37 0 0 1 1.03-1.81Zm-1.49.28c.14-.27.37-.42.51-.32s.15.37 0 .64-.37.41-.51.32-.11-.38.03-.64Zm-.08 1.64c.12-.07.22 0 .22.13a.51.51 0 0 1-.22.4c-.12.08-.21 0-.21-.13a.53.53 0 0 1 .24-.4Z"/><path class="cls-10" d="M509.06 353.22c3.26-2 5.9-7 5.9-11.06s-2.63-5.73-5.89-3.69-5.89 7-5.9 11 2.64 5.78 5.89 3.75Zm-4-1.15c-.31.42-.69.57-.84.33a1.24 1.24 0 0 1 .29-1.18c.31-.42.69-.57.84-.33s-.01.76-.35 1.18Zm0-3.7a9.87 9.87 0 0 1 4.05-7.6c2.24-1.4 4.05-.26 4.05 2.54a9.88 9.88 0 0 1-4.06 7.6c-2.27 1.4-4.1.26-4.1-2.54Zm2 4.46c-.18.51-.54.89-.81.87s-.34-.46-.16-1 .54-.89.81-.86.34.49.16.99Zm2 .05c-.3.19-.55 0-.55-.46a1.52 1.52 0 0 1 .55-1.17c.31-.19.56 0 .56.47a1.48 1.48 0 0 1-.56 1.16Zm2.82-2.7c-.27.36-.63.43-.81.15a1.11 1.11 0 0 1 .16-1.15c.27-.36.63-.43.81-.15a1.11 1.11 0 0 1-.16 1.15Zm2.06-3.86c-.15.43-.53.75-.84.72s-.44-.4-.29-.83.54-.76.85-.72.44.4.28.83Zm.76-4a1.46 1.46 0 0 1-.65 1.11c-.36.22-.66.09-.66-.29a1.49 1.49 0 0 1 .66-1.1c.36-.23.65-.1.65.28Zm-1.6-2.71c.32-.42.69-.57.85-.33s0 .77-.29 1.19-.69.56-.84.32-.03-.79.28-1.18Zm-2-.76c.18-.51.54-.89.81-.87s.33.46.15 1-.54.89-.8.86-.36-.49-.18-.99Zm-2-.05c.31-.19.56 0 .56.46a1.52 1.52 0 0 1-.56 1.17c-.31.19-.56 0-.56-.47a1.51 1.51 0 0 1 .53-1.16Zm-2.81 2.7c.26-.36.63-.43.81-.15a1.13 1.13 0 0 1-.16 1.15c-.27.36-.63.43-.81.15a1.11 1.11 0 0 1 .13-1.15Zm-2.07 3.86c.16-.43.54-.75.85-.72s.44.4.28.83-.53.76-.84.73-.51-.41-.32-.84Zm-.1 2.89c.36-.22.65-.1.65.29a1.45 1.45 0 0 1-.65 1.1c-.36.23-.65.1-.65-.29a1.48 1.48 0 0 1 .62-1.1Z"/><path class="cls-5" d="m514.11 331.38 1.31-.83a4.53 4.53 0 0 1 1.59-.63c1.49-.24 2.63.68 2.92 2.55l.65 4.22v.09l1.83 1.15q.35-2.3.84-4.38c2.56-10.53 8.58-17.39 18.56-20.08l-8.7-5.47c-8.41 2.24-14.78 8-18 19.19a47.67 47.67 0 0 0-1 4.19Z"/><path class="cls-12" d="m522.43 337.93 2.88-1.8.34-2.6.59-4.54v-.36a13.09 13.09 0 0 1 3.21-6.51 9.05 9.05 0 0 1 1.68-1.41l5.2-3.25a4.32 4.32 0 0 1 1.59-.64c1.49-.24 2.63.68 2.92 2.56l.65 4.21.34 2.18 2.89-1.81-.39-2.51v-.23l-.65-4.21a5.77 5.77 0 0 0-1.26-3c-1.35-1.54-3.58-1.67-6-.12l-5.2 3.25a17.81 17.81 0 0 0-6.26 7.82 18.73 18.73 0 0 0-1.46 5l-.64 5Z"/><path class="cls-5" d="M512.15 321.12c-9.67 2.58-22.86 6.41-25.46 21.16l14.78 8.72c1.86-13 8.09-21.41 19.39-24.46Z"/><path class="cls-12" d="m501.47 351 2.88-1.81.34-2.59.59-4.54c0-.14 0-.25.05-.36a13.08 13.08 0 0 1 3.21-6.52 8.61 8.61 0 0 1 1.68-1.4l3.89-2.43 1.31-.83a4.53 4.53 0 0 1 1.59-.63c1.49-.24 2.63.68 2.92 2.55l.65 4.22v.09l.33 2.09 1.5-.94 1.39-.87-.39-2.51v-.23l-.12-.77-.53-3.45a5.68 5.68 0 0 0-1.25-3c-1.36-1.54-3.59-1.67-6.06-.12l-.31.2-4.89 3a17.84 17.84 0 0 0-6.26 7.83 18.89 18.89 0 0 0-1.46 5l-.64 5Z"/><path class="cls-12" d="m391.84 402.03 148.76-93.41v2.63l-148.76 93.41-55.04-34.45 2.1-1.31 52.94 33.13z"/><path class="cls-6" d="m540.6 308.62-148.76 93.41-52.94-33.13-2.1-1.32 148.73-93.39 55.07 34.43z"/><ellipse class="cls-13" cx="527.1" cy="268.42" rx="24.03" ry="43.5" transform="rotate(-26.33 527.02 268.4)"/><path class="cls-13" d="m372.97 313.56 132.81-83.03 40.93 76.77-132.81 83.03-40.93-76.77z"/><ellipse class="cls-14" cx="393.45" cy="351.97" rx="24.03" ry="43.5" transform="rotate(-26.33 393.396 351.948)"/><path class="cls-14" d="m390.93 302.33 7.17-4.48v.08c5.23-3.27 12.44-2.81 20.43 2.18s15.23 13.55 20.46 23.36 8.46 20.89 8.46 30.87-3.24 17-8.47 20.25l-7.28 4.58a15.91 15.91 0 0 0 8.44-2.41 17.77 17.77 0 0 0 6.15-6.71c2.26-4.11 3.46-9.46 3.46-15.71 0-10.1-3.11-21.5-8.77-32.11S427.81 303 419.74 298c-5.05-3.16-10-4.72-14.46-4.59a15.74 15.74 0 0 0-8.28 2.4 17.45 17.45 0 0 0-6.07 6.52Z"/><path class="cls-14" d="m398.65 297.5 7.17-4.48v.09c5.24-3.27 12.45-2.82 20.44 2.17s15.23 13.56 20.46 23.37 8.46 20.88 8.46 30.87-3.25 17-8.47 20.24l-7.29 4.59a15.92 15.92 0 0 0 8.45-2.41 17.74 17.74 0 0 0 6.14-6.71c2.26-4.11 3.47-9.46 3.47-15.72 0-10.09-3.11-21.49-8.77-32.1s-13.22-19.23-21.3-24.28c-5-3.16-10-4.72-14.45-4.6a15.89 15.89 0 0 0-8.29 2.4 17.58 17.58 0 0 0-6.02 6.57ZM466.14 255.31l7.17-4.48.05.09c5.23-3.28 12.44-2.82 20.43 2.17s15.23 13.55 20.46 23.37 8.46 20.88 8.46 30.86-3.24 17-8.47 20.25l-7.28 4.58a15.91 15.91 0 0 0 8.44-2.41 17.69 17.69 0 0 0 6.15-6.71c2.26-4.11 3.46-9.45 3.46-15.71 0-10.1-3.11-21.5-8.77-32.11S503 256 495 250.93c-5.05-3.15-10-4.71-14.46-4.59a15.74 15.74 0 0 0-8.28 2.4 17.53 17.53 0 0 0-6.12 6.57Z"/><path class="cls-14" d="M473.86 250.49 481 246v.08c5.24-3.27 12.45-2.81 20.44 2.18s15.23 13.55 20.46 23.36 8.46 20.88 8.46 30.87-3.25 17-8.47 20.25l-7.29 4.58a15.86 15.86 0 0 0 8.44-2.41 17.69 17.69 0 0 0 6.15-6.71c2.26-4.11 3.47-9.46 3.47-15.71 0-10.1-3.11-21.5-8.77-32.11s-13.22-19.23-21.3-24.28c-5-3.16-10-4.72-14.45-4.59a15.88 15.88 0 0 0-8.29 2.39 17.61 17.61 0 0 0-5.99 6.59Z"/><path style="fill:#f59d00" d="M450.12 270.73h28.3v4.97h-28.3z"/><path class="cls-14" d="M454.26 269.45c-5.52 3.45-5.52 9.05 0 12.51s14.49 3.45 20 0 5.53-9.06 0-12.51-14.47-3.45-20 0Z"/><path d="M454.26 264.48c-5.52 3.45-5.52 9 0 12.51s14.49 3.45 20 0 5.53-9.06 0-12.51-14.47-3.48-20 0Z" style="fill:#f9bf57"/><path class="cls-17" d="M447.12 265.97h34.3v3.9h-34.3z"/><path class="cls-17" d="M452.14 262.28c-6.7 4.19-6.7 11 0 15.17s17.56 4.19 24.26 0 6.7-11 0-15.17-17.56-4.18-24.26 0Z"/><path class="cls-18" d="M452.14 257.86c-6.7 4.19-6.7 11 0 15.17s17.56 4.19 24.26 0 6.7-11 0-15.17-17.56-4.18-24.26 0Z"/><path class="cls-18" d="M447.15 266.37a6.08 6.08 0 0 1 0-.61c.13-6.73 7.92-12.11 17.39-12s17 5.62 16.91 12.36v.26Z"/><path class="cls-5" d="m403.77 392.22 3.99 6.59 8.55 5.34 1.01-8.77-13.55-3.16z"/><path class="cls-7" d="m404.42 393.93-13.2 24.75 6.88 4.3 13.2-24.75-6.88-4.3z"/><path class="cls-7" d="M407.43 400.66c0 6.45-4.19 14.28-9.34 17.5s-9.33.6-9.33-5.85 4.24-14.31 9.34-17.5 9.33-.6 9.33 5.85Z"/><path class="cls-7" d="M399.91 413.87a12.21 12.21 0 0 1 5-9.38c2.76-1.72 5-.32 5 3.13a12.17 12.17 0 0 1-5 9.37c-2.76 1.73-5 .33-5-3.12Z"/><path class="cls-7" d="M404.9 422.42c5.15-3.22 9.34-11.05 9.34-17.5s-4.17-9.07-9.33-5.85-9.33 11.05-9.34 17.5 4.17 9.07 9.33 5.85Zm0-18.86c3.18-2 5.75-.37 5.74 3.6s-2.57 8.79-5.75 10.77-5.74.37-5.74-3.6 2.59-8.8 5.76-10.77Z"/><path class="cls-8" d="M404.9 419c3.65-2.28 6.61-7.82 6.62-12.39s-3-6.43-6.61-4.15-6.61 7.83-6.61 12.4 2.95 6.43 6.6 4.14Zm0-15.64c3.26-2 5.89-.38 5.89 3.69s-2.64 9-5.9 11.06-5.89.37-5.89-3.7 2.66-9.01 5.91-11.04Z"/><path class="cls-9" d="M404.9 415.81a9.86 9.86 0 0 0 4.06-7.59c0-2.81-1.81-3.94-4-2.55a9.87 9.87 0 0 0-4.05 7.6c-.06 2.8 1.76 3.94 3.99 2.54Zm0-8.25c1.41-.88 2.54-.16 2.54 1.59a6.21 6.21 0 0 1-2.55 4.78c-1.4.88-2.54.16-2.54-1.6a6.17 6.17 0 0 1 2.56-4.77Z"/><path class="cls-10" d="M404.9 413.93a6.21 6.21 0 0 0 2.55-4.78c0-1.75-1.13-2.47-2.54-1.59a6.17 6.17 0 0 0-2.55 4.77c0 1.76 1.14 2.48 2.54 1.6Zm-1-.71c-.14.26-.37.41-.51.32s-.15-.38 0-.65.37-.41.51-.32.17.43.03.65Zm1-.25c-.12.07-.22 0-.22-.14a.51.51 0 0 1 .22-.39c.11-.08.21 0 .21.13a.55.55 0 0 1-.2.43Zm1.49-1.29c-.15.26-.38.41-.52.32s-.14-.38 0-.65.37-.41.52-.32.15.38.01.65Zm.28-2.05a.5.5 0 0 1-.21.4c-.11.07-.21 0-.21-.13a.53.53 0 0 1 .21-.4c.13-.07.22-.01.22.13Zm-.8-1.36c.15-.27.38-.41.52-.32s.14.38 0 .64-.37.41-.52.33-.13-.38.01-.65Zm-1 .25c.11-.07.21 0 .21.13a.53.53 0 0 1-.21.4c-.12.08-.21 0-.21-.13a.5.5 0 0 1 .25-.4Zm0 1c.53-.33 1-.06 1 .61a2.35 2.35 0 0 1-1 1.81c-.54.34-1 .07-1-.6a2.36 2.36 0 0 1 1.04-1.81Zm-1.49.28c.14-.27.37-.41.51-.32s.15.38 0 .64-.37.41-.51.32-.1-.36.04-.63Zm-.08 1.65c.12-.08.21 0 .21.13a.53.53 0 0 1-.21.4c-.12.07-.21 0-.21-.14a.5.5 0 0 1 .25-.38Z"/><path class="cls-11" d="M404.9 413.93a6.21 6.21 0 0 0 2.55-4.78c0-1.75-1.13-2.47-2.54-1.59a6.17 6.17 0 0 0-2.55 4.77c0 1.76 1.14 2.48 2.54 1.6Zm-1-.71c-.14.26-.37.41-.51.32s-.15-.38 0-.65.37-.41.51-.32.17.43.03.65Zm1-.25c-.12.07-.22 0-.22-.14a.51.51 0 0 1 .22-.39c.11-.08.21 0 .21.13a.55.55 0 0 1-.2.43Zm1.49-1.29c-.15.26-.38.41-.52.32s-.14-.38 0-.65.37-.41.52-.32.15.38.01.65Zm.28-2.05a.5.5 0 0 1-.21.4c-.11.07-.21 0-.21-.13a.53.53 0 0 1 .21-.4c.13-.07.22-.01.22.13Zm-.8-1.36c.15-.27.38-.41.52-.32s.14.38 0 .64-.37.41-.52.33-.13-.38.01-.65Zm-1 .25c.11-.07.21 0 .21.13a.53.53 0 0 1-.21.4c-.12.08-.21 0-.21-.13a.5.5 0 0 1 .25-.4Zm0 1c.53-.33 1-.06 1 .61a2.35 2.35 0 0 1-1 1.81c-.54.34-1 .07-1-.6a2.36 2.36 0 0 1 1.04-1.81Zm-1.49.28c.14-.27.37-.41.51-.32s.15.38 0 .64-.37.41-.51.32-.1-.36.04-.63Zm-.08 1.65c.12-.08.21 0 .21.13a.53.53 0 0 1-.21.4c-.12.07-.21 0-.21-.14a.5.5 0 0 1 .25-.38Z"/><path class="cls-10" d="M404.9 418.12c3.26-2 5.9-7 5.9-11.06s-2.63-5.72-5.89-3.69-5.9 7-5.9 11.05 2.64 5.73 5.89 3.7Zm-4-1.14c-.31.42-.69.56-.84.33a1.27 1.27 0 0 1 .28-1.19c.32-.42.69-.57.85-.33a1.28 1.28 0 0 1-.32 1.21Zm0-3.71a9.87 9.87 0 0 1 4.05-7.6c2.24-1.39 4-.26 4 2.55a9.86 9.86 0 0 1-4.06 7.59c-2.22 1.4-4.04.26-4.03-2.54Zm2 4.47c-.18.5-.54.88-.81.86s-.34-.46-.16-1 .54-.88.81-.86.34.5.16 1Zm2 .05c-.31.19-.55 0-.55-.47a1.5 1.5 0 0 1 .55-1.16c.31-.2.56 0 .56.46a1.52 1.52 0 0 1-.56 1.17Zm2.82-2.71c-.27.36-.63.43-.81.15a1.11 1.11 0 0 1 .16-1.15c.26-.36.62-.42.8-.15a1.12 1.12 0 0 1-.15 1.15Zm2.06-3.86c-.15.43-.53.75-.84.72s-.44-.4-.29-.83.54-.75.85-.72.43.4.28.83Zm.76-4a1.49 1.49 0 0 1-.65 1.1c-.36.23-.66.1-.66-.29a1.48 1.48 0 0 1 .66-1.1c.36-.21.65-.09.65.3Zm-1.6-2.72c.31-.42.69-.57.85-.33a1.28 1.28 0 0 1-.29 1.19c-.31.42-.69.56-.84.33s-.03-.76.28-1.18Zm-2-.76c.18-.5.54-.89.81-.86s.33.45.15.95-.54.89-.81.87-.35-.45-.17-.95Zm-2-.05c.31-.19.56 0 .56.47a1.48 1.48 0 0 1-.56 1.16c-.31.19-.56 0-.56-.47a1.48 1.48 0 0 1 .53-1.15Zm-2.81 2.7c.26-.36.63-.43.81-.15a1.17 1.17 0 0 1-.16 1.16c-.27.36-.63.42-.81.14a1.11 1.11 0 0 1 .13-1.14Zm-2.13 3.88c.16-.43.53-.76.85-.73s.44.41.28.83-.53.76-.84.73-.41-.41-.29-.83Zm-.1 2.88c.36-.22.65-.09.65.29a1.48 1.48 0 0 1-.65 1.11c-.36.22-.65.09-.65-.29a1.48 1.48 0 0 1 .68-1.11Z"/><path style="fill:#e75c5b" d="m333.59 393.47-.65 1.22 1.77 1.11.65-1.23-1.77-1.1z"/><path class="cls-6" d="m333.75 388.52 16-10v-.22a19.27 19.27 0 0 1 1.46-5 17.74 17.74 0 0 1 6.27-7.83l5.19-3.25c2.48-1.54 4.7-1.41 6 .13a5.61 5.61 0 0 1 1.26 3l.65 4.2v.24l.39 2.51-1.14 2.9-1.75-1.09-.34-2.18-.65-4.22c-.29-1.87-1.43-2.8-2.92-2.55a4.28 4.28 0 0 0-1.58.64l-5.2 3.25a8.38 8.38 0 0 0-1.69 1.4 13.09 13.09 0 0 0-3.21 6.51c0 .11 0 .23-.05.37l-.59 4.54-.34 2.59-2.88 1.8-12.12 7.58c-2 1.26-4.08 1.62-4.08 0v-3.08a2.89 2.89 0 0 1 1.32-2.24Z"/><path class="cls-6" d="m335.5 389.62 16-10v-.22a19.11 19.11 0 0 1 1.46-5 17.76 17.76 0 0 1 6.27-7.82l5.19-3.25c2.48-1.55 4.7-1.42 6 .12a5.61 5.61 0 0 1 1.26 3l.65 4.21v.23l.39 2.51-2.72 1.79-.34-2.18-.65-4.22c-.29-1.87-1.43-2.79-2.92-2.55a4.38 4.38 0 0 0-1.59.64l-5.19 3.25a8.79 8.79 0 0 0-1.69 1.41 13 13 0 0 0-3.21 6.51c0 .11 0 .22-.05.36l-.59 4.54-.34 2.59-2.88 1.81-12.12 7.57c-2 1.26-4.08 1.62-4.08 0v-3.07a2.86 2.86 0 0 1 1.15-2.23Z"/><path class="cls-20" d="m336.06 374.93 1 21.11 44.77 27.99-1-21.11-44.77-27.99z"/><path class="cls-21" d="m414.86 346.15-44.66-27.92a2.54 2.54 0 0 0-2.69.29l-23 14.4a9.53 9.53 0 0 0-3.92 7.36v1.4l44.78 28Z"/><path class="cls-21" d="m386.34 370.3-21.8-14.74-24-13.86a9.49 9.49 0 0 0-.59 2.11l-.28 2 44.77 28Z"/><path class="cls-21" d="M380.81 419.1v-14.38a79 79 0 0 1 .82-10.94l3.13-22a9.4 9.4 0 0 1 3.77-6.25l23.69-14.81c2.13-1.33 3.85-3.17 3.85-.51v.23l-7.33 4.56v41l-4.36 2.73c-2.84 1.78-5.28 5.86-5.78 9.67l-1 7.33-13 8.13c-2.12 1.33-3.85.25-3.85-2.42Z"/><path class="cls-20" d="M408.74 394.52v-39.48l7.34-4.58v44.06h-7.34zM389.26 360.91l23-14.4c2.09-1.31 3.79-.25 3.79 2.37v1.57l-30.74 19.22v-1.4a9.58 9.58 0 0 1 3.95-7.36Z"/><path class="cls-22" d="m336.05 374.93 44.78 28 3.75-2.34a2.87 2.87 0 0 0 1.17-2.2v-23.94c0-.81-.53-1.14-1.18-.73h-.08l-44.78-28c-1.35 6.05-3.65 20.69-3.66 29.21Z"/><path class="cls-23" d="m338.21 374.57-.78-.49c.13-7.74 1.92-19.66 3.2-26l21.24 13.28a26.61 26.61 0 0 0-23.66 13.21Z"/><path class="cls-20" d="M397.36 403.43a6.44 6.44 0 0 1-2.35 3l-4.75 3c-1.21.76-2.19.14-2.19-1.37v-33.34a6.33 6.33 0 0 1 2.58-4.85l11.35-7.09c1.43-.89 2.58-.17 2.58 1.62v26.76a8.43 8.43 0 0 1-2.65 5.77 17.66 17.66 0 0 0-4.57 6.5Z"/><path class="cls-22" d="m390.77 390.05 10.38-8.84a7.81 7.81 0 0 0 2.58-5.47v-10.82c0-1.19-.77-1.68-1.73-1.08l-11.35 7.09a4.23 4.23 0 0 0-1.73 3.26v15.09c0 1.22.89 1.6 1.85.77Z"/><path class="cls-23" d="M390.28 374.19a2.75 2.75 0 0 1 1.05-2l6.89-4.3c-2.94 4.68-3.83 10.75-3.57 17l-4.37 3.73Z"/><path class="cls-7" d="M399.85 384.4c0 .35.23.49.51.31l1.85-1.15a1.24 1.24 0 0 0 .5-.95c0-.34-.22-.48-.5-.31l-1.85 1.16a1.21 1.21 0 0 0-.51.94ZM410.82 356.21c0 .31.21.44.46.28l3.07-1.92a1.1 1.1 0 0 0 .46-.86c0-.31-.2-.44-.46-.28l-3.07 1.92a1.13 1.13 0 0 0-.46.86ZM410.82 358.33c0 .31.21.44.46.28l3.07-1.92a1.1 1.1 0 0 0 .46-.86c0-.32-.2-.45-.46-.29l-3.07 1.93a1.11 1.11 0 0 0-.46.86ZM410.82 360.44c0 .32.21.45.46.29l3.07-1.92a1.11 1.11 0 0 0 .46-.86c0-.32-.2-.45-.46-.29l-3.07 1.92a1.14 1.14 0 0 0-.46.86ZM410.82 362.56c0 .32.21.45.46.29l3.07-1.92a1.11 1.11 0 0 0 .46-.86c0-.32-.2-.45-.46-.29l-3.07 1.92a1.13 1.13 0 0 0-.46.86ZM410.82 364.68c0 .32.21.44.46.29l3.07-1.93a1.1 1.1 0 0 0 .46-.86c0-.31-.2-.44-.46-.28l-3.07 1.92a1.13 1.13 0 0 0-.46.86ZM410.82 366.8c0 .31.21.44.46.28l3.07-1.92a1.1 1.1 0 0 0 .46-.86c0-.32-.2-.44-.46-.29l-3.07 1.93a1.11 1.11 0 0 0-.46.86ZM410.82 368.91c0 .32.21.45.46.29l3.07-1.92a1.1 1.1 0 0 0 .46-.86c0-.32-.2-.45-.46-.29l-3.07 1.92a1.14 1.14 0 0 0-.46.86Z"/><path class="cls-6" d="m379.93 422.44-.65 1.22 1.77 1.11.65-1.23-1.77-1.1z"/><path class="cls-6" d="M378.91 419.7v3.08c0 1 .73 1.24 1.75 1a7.48 7.48 0 0 0 2.33-1l12.12-7.58 2.88-1.8.34-2.59.59-4.54c0-.14 0-.26.05-.37a13 13 0 0 1 1.37-3.93 12.9 12.9 0 0 1 1.84-2.58 9.05 9.05 0 0 1 1.68-1.41l5.2-3.25a4.35 4.35 0 0 1 1.59-.63 2.24 2.24 0 0 1 2.4 1.06c1.17.09 2 1 2.26 2.58L416 402l.34 2.17 1.14-2.89-.39-2.51v-.23l-.65-4.22a5.68 5.68 0 0 0-1.25-3c-1.36-1.54-3.59-1.67-6.06-.13l-5.2 3.25a17.81 17.81 0 0 0-6.26 7.82 19.18 19.18 0 0 0-1.46 5v.21l-16 10a2.85 2.85 0 0 0-1.3 2.23Z"/><path class="cls-12" d="M380.66 420.79v3.09c0 1.63 2.07 1.27 4.07 0l12.13-7.57 2.88-1.8.34-2.6.59-4.54c0-.14 0-.25.05-.36a13.13 13.13 0 0 1 3.21-6.52 8.68 8.68 0 0 1 1.68-1.4l5.2-3.25a4.38 4.38 0 0 1 1.59-.64 2.42 2.42 0 0 1 .65 0c1.17.09 2 1 2.26 2.58L416 402l.34 2.17 2.89-1.8-.39-2.51v-.23l-.65-4.21a5.69 5.69 0 0 0-1.26-3 3.4 3.4 0 0 0-1.74-1.09 5.52 5.52 0 0 0-4.31 1l-5.2 3.25a17 17 0 0 0-5.51 6.28c-.27.5-.52 1-.75 1.54a18.63 18.63 0 0 0-1.46 5v.21l-16 10a2.85 2.85 0 0 0-1.3 2.18Z"/><path class="cls-6" d="M336.22 389.17c-2.93-.91-3 2.34-3.12 5.62l46.18 28.87 1.53-6.62Z"/><g style="opacity:.2"><path class="cls-25" d="M348.51 371.19a9.14 9.14 0 0 0 3.81 7.14 3.54 3.54 0 0 0 1.89.61c1.48 0 2.49-1.25 2.58-3.13a2.53 2.53 0 0 0 0-.28 9.15 9.15 0 0 0-3.81-7.14 3.53 3.53 0 0 0-1.88-.61 2.54 2.54 0 0 0-2.44 2.12 4.75 4.75 0 0 0-.15 1.29Zm1.35 0a3.47 3.47 0 0 1 .1-.9c.14-.54.45-1.06 1.15-1.06a2.44 2.44 0 0 1 1.21.42 7.81 7.81 0 0 1 3.1 5.29 4 4 0 0 1 0 .59c0 .59-.13 2-1.25 2a2.35 2.35 0 0 1-1.22-.42 7.76 7.76 0 0 1-3.09-5.92Z"/><path class="cls-26" d="m336.06 374.93 44.77 28 3.75-2.34a2.87 2.87 0 0 0 1.17-2.2v-3.2c-9.16-6.71-28.93-19-29-19-1.22-3.47-7.87-6.69-10.59-4.67a19.74 19.74 0 0 0-4.39-.35s-5.46 3.42-5.71 3.76Z"/></g><path class="cls-20" d="M373.34 395.28c0 1 .56 1.43 1.32 1a.78.78 0 0 0 .36-.62l.25-7.92c0-.23-.13-.34-.31-.24l-.1.06a3.19 3.19 0 0 0-1.38 2.42Z"/><path class="cls-20" d="m375.16 387.48-1.28 8.95 2.97 1.85 1.4-8.86-3.09-1.94z"/><path class="cls-21" d="M376.41 397.19c0 1 .55 1.43 1.32 1a.81.81 0 0 0 .36-.61l.24-7.93c0-.23-.13-.33-.31-.23l-.09.05a3.15 3.15 0 0 0-1.38 2.42Z"/><path class="cls-20" d="m383.69 369.46-4 2.47a10.47 10.47 0 0 0-3.51 4.07 9.68 9.68 0 0 0-1.06 5l.2 7.43 1.51.94.34-1.84v-7.3c.12-1.94 1-4.16 2.46-5.1l3.24-2.33 2.25-2.38Z"/><path class="cls-21" d="m385.19 370.4-4 2.47a10.63 10.63 0 0 0-3.51 4.07 9.78 9.78 0 0 0-1.06 5l.21 7.43.63-.39.23-7.85a8.08 8.08 0 0 1 3-5.48l3.66-1.91Z"/><path class="cls-20" d="M330.21 368.15c0 1 .55 1.43 1.31 1a.83.83 0 0 0 .37-.62l.24-7.92c0-.23-.13-.34-.31-.24l-.09.05a3.17 3.17 0 0 0-1.38 2.43Z"/><path class="cls-20" d="m332.02 360.35-1.27 8.95 2.96 1.85 1.41-8.86-3.1-1.94z"/><path class="cls-21" d="M333.27 370.06c0 1 .55 1.43 1.32 1a.79.79 0 0 0 .36-.61l.24-7.93c0-.23-.13-.34-.31-.23h-.09a3.18 3.18 0 0 0-1.38 2.42Z"/><path class="cls-20" d="m340.55 342.33-4 2.47a10.55 10.55 0 0 0-3.51 4.07 9.78 9.78 0 0 0-1.06 5l.2 7.43 1.51.94.35-1.84v-7.3c.12-1.94 1-4.16 2.45-5.1l3.24-2.33 2.25-2.38Z"/><path class="cls-21" d="m342.05 343.27-3.95 2.47a10.47 10.47 0 0 0-3.51 4.07 9.7 9.7 0 0 0-1.07 5l.21 7.43.64-.4.23-7.84a8.11 8.11 0 0 1 3-5.49l3.67-1.9Z"/><path class="cls-27" d="m344.94 388.74-6.34-4a1.28 1.28 0 0 1-.52-1v-4.51c0-.36.24-.51.52-.33l6.34 4a1.25 1.25 0 0 1 .52 1v4.51c0 .36-.23.51-.52.33Z"/><path class="cls-28" d="M345.17 389.12a.7.7 0 0 1-.37-.12l-6.34-4a1.57 1.57 0 0 1-.66-1.24v-4.51c0-.57.48-.88.94-.59l6.34 4a1.57 1.57 0 0 1 .66 1.24v4.51c0 .42-.23.71-.57.71Zm0-.61Zm-6.8-9.32v4.61a1 1 0 0 0 .37.71l6.34 4h.09a.58.58 0 0 0 0-.1v-4.51a1 1 0 0 0-.38-.71l-6.34-4a.16.16 0 0 0-.08 0Z"/><path class="cls-27" d="m378.07 409.41-6.35-4a1.27 1.27 0 0 1-.51-1V400c0-.36.23-.51.51-.33l6.35 4a1.26 1.26 0 0 1 .52 1v4.51c0 .26-.24.4-.52.23Z"/><path class="cls-28" d="M378.3 409.79a.68.68 0 0 1-.37-.12l-6.35-4a1.59 1.59 0 0 1-.66-1.24V400c0-.57.48-.89.95-.59l6.34 4a1.59 1.59 0 0 1 .66 1.24v4.51c0 .34-.24.63-.57.63Zm0-.61Zm-6.8-9.32a.58.58 0 0 0 0 .1v4.51a1 1 0 0 0 .38.71l6.34 4a.54.54 0 0 0 .08 0 .58.58 0 0 0 0-.1v-4.51a1 1 0 0 0-.37-.71l-6.35-4ZM342.14 390.91l-3.54-2.17a1.28 1.28 0 0 1-.52-1v-1.45c0-.36.24-.51.52-.33l3.54 2.17a1.29 1.29 0 0 1 .51 1v1.46c0 .41-.23.5-.51.32ZM378.07 413.34l-3.54-2.17a1.28 1.28 0 0 1-.52-1v-1.45c0-.36.24-.51.52-.33l3.54 2.17a1.3 1.3 0 0 1 .52 1V413c0 .38-.24.52-.52.34Z"/><path class="cls-7" d="M365.42 396.57c0 .29-.19.4-.42.26l-14.51-9.09a1 1 0 0 1-.42-.79c0-.29.18-.41.42-.26l14.51 9.09a1 1 0 0 1 .42.79ZM365.42 398.36c0 .29-.19.41-.42.26l-14.51-9.09a1 1 0 0 1-.42-.79c0-.29.18-.41.42-.26l14.51 9.09a1 1 0 0 1 .42.79ZM365.42 400.15c0 .29-.19.41-.42.26l-14.51-9.09a1 1 0 0 1-.42-.79c0-.29.18-.4.42-.26l14.51 9.09a1 1 0 0 1 .42.79ZM365.42 401.94c0 .29-.19.41-.42.27l-14.51-9.09a1 1 0 0 1-.42-.79c0-.29.18-.41.42-.27l14.51 9.09a1 1 0 0 1 .42.79ZM365.42 403.73c0 .29-.19.41-.42.27l-14.51-9.09a1 1 0 0 1-.42-.79c0-.29.18-.41.42-.26l14.51 9.08a1 1 0 0 1 .42.79Z"/><path d="m382.22 330-12.1-7.63a2.42 2.42 0 0 0-2.55 0l-26.05 15.46c15.18-7.93 29.06-11.56 40.7-7.83Z" style="opacity:.25;fill:#fff"/><path class="cls-28" d="M501.37 316.61c0 8.78-5.68 19.44-12.7 23.83s-12.67.83-12.67-7.94 5.69-19.45 12.71-23.83 12.66-.83 12.66 7.94Z"/><path class="cls-30" d="M489.44 312s-6 13.34-6 20.44c0 4.6 2.69 5.83 6 3.75a13.94 13.94 0 0 0 6-11.26c0-7.13-6-12.93-6-12.93Z"/><path d="M489.9 312.45a23.93 23.93 0 0 1 3.36 11.36c0 5.26-2.69 10.26-6 12.33a6 6 0 0 1-1.8.78c1.06.45 2.45.2 4-.76a13.94 13.94 0 0 0 6-11.26c-.02-5.9-4.17-10.9-5.56-12.45Z" style="opacity:.05"/><path class="cls-28" d="M486.63 330.62c0 1.44-.52 2.94-1.17 3.34s-1.18-.43-1.18-1.87.53-2.94 1.18-3.34 1.17.43 1.17 1.87Z"/><g class="cls-32"><path class="cls-25" d="M602.33 218.77v2.92a6.15 6.15 0 0 0 3.16 5 15.28 15.28 0 0 0 15.4 0c2.14-1.4 3.22-3.23 3.21-5.06v-2.93c0 1.83-1.06 3.66-3.21 5.06-4.26 2.77-11.16 2.78-15.39 0-2.11-1.38-3.16-3.18-3.17-4.99Z"/><path class="cls-28" d="M605.55 213.71c-4.27 2.78-4.29 7.28 0 10s11.13 2.77 15.39 0 4.29-7.27.05-10a15.29 15.29 0 0 0-15.44 0Z"/></g><path class="cls-33" d="M622.42 206.17c0 5.73-4.09 10.38-9.17 10.4S604 212 604 206.23s4.09-10.37 9.17-10.39 9.23 4.61 9.25 10.33Z"/><g class="cls-32"><path class="cls-11" d="M604 206.23v11.23a5.16 5.16 0 0 0 2.67 4.21 12.91 12.91 0 0 0 13 0 5.21 5.21 0 0 0 2.71-4.27v-11.23a5.23 5.23 0 0 1-2.72 4.28 12.93 12.93 0 0 1-13 0 5.18 5.18 0 0 1-2.66-4.22Z"/></g><path class="cls-34" d="M604 208.07a5.16 5.16 0 0 0 2.67 4.25 12.93 12.93 0 0 0 13 0 5.23 5.23 0 0 0 2.71-4.25v1.12a5.23 5.23 0 0 1-2.71 4.25 12.93 12.93 0 0 1-13 0 5.16 5.16 0 0 1-2.67-4.25Z"/><path class="cls-26" d="m569.01 270.48 83.77 54.49 104.42-67.93v-7.74l-83.76-46.75-104.43 60.19v7.74z"/><path class="cls-33" d="m569.01 262.74 83.77 54.49L757.2 249.3l-83.76-54.49-104.43 67.93z"/><path class="cls-25" d="m648.62 215.06 2.8 1.82 74.66 48.56 22.01-14.32 2.8-1.82-77.45-50.39-24.82 16.15zM575.33 262.74l2.79 1.82 74.66 48.56 22.02-14.32 2.79-1.82-77.45-50.38-24.81 16.14zM657.51 280.08l2.8 1.82 20.23 13.16 39.79-25.88 2.8-1.82-23.03-14.98-42.59 27.7zM603.09 244.68l2.79 1.82 20.24 13.16 39.79-25.89 2.8-1.82-23.04-14.98-42.58 27.71zM629.59 261.92l2.8 1.82 21.65 14.08 39.79-25.88 2.8-1.82-24.45-15.9-42.59 27.7z"/><path class="cls-13" d="m651.42 216.88 74.66 48.56 22.01-14.32-74.65-48.57-22.02 14.33z"/><path style="fill:#48c8d9" d="m578.12 264.56 74.66 48.56 22.02-14.32-74.66-48.57-22.02 14.33z"/><path class="cls-36" d="m660.31 281.9 20.23 13.16 39.79-25.88-20.23-13.16-39.79 25.88zM605.88 246.5l20.24 13.16 39.79-25.89-20.24-13.16-39.79 25.89z"/><path class="cls-13" d="m632.39 263.74 21.65 14.08 39.79-25.88-21.65-14.09-39.79 25.89z"/><g class="cls-32"><path class="cls-8" d="m638.04 235.4.08 18.99 27.55 18.04-.07-18.99-27.56-18.04z"/><path class="cls-26" d="m665.6 253.44.07 18.99 22.5-14.63-.07-19-22.5 14.64z"/><path class="cls-33" d="m638.04 235.4 27.56 18.04 22.5-14.64-27.56-18.04-22.5 14.64z"/></g><path class="cls-36" d="M658.71 255.2V262.1l-16.81-10.92v-6.9l1.79 1.16 8.64 5.63 1.82 1.19.33.21.47.31Z"/><path class="cls-25" d="m658.68 259.75-.01 2.35-16.77-10.92 1.8-1.18 14.98 9.75z"/><path class="cls-25" d="m643.73 245.44-.03 4.56-1.8 1.18.03-6.9 1.8 1.16z"/><path class="cls-37" d="M629.88 233.24c-.76.44-.76 1.14 0 1.57a3.09 3.09 0 0 0 2.75 0c.77-.43.77-1.13 0-1.57a3.09 3.09 0 0 0-2.75 0Z"/><path class="cls-28" d="M629.88 233.24c-.76.44-.76 1.14 0 1.57a3.09 3.09 0 0 0 2.75 0c.77-.43.77-1.13 0-1.57a3.09 3.09 0 0 0-2.75 0Z"/><g class="cls-32"><path class="cls-28" d="m622.74 213.15-.58-.38a1.26 1.26 0 0 0-1.39.16 5 5 0 0 0-2 3.85 1.65 1.65 0 0 0 .58 1.45l.58.37a1.64 1.64 0 0 1-.59-1.45 5.05 5.05 0 0 1 2-3.85 1.26 1.26 0 0 1 1.4-.15Z"/><path class="cls-25" d="M623.32 214.6c0-1.42-.88-2-2-1.3a5.05 5.05 0 0 0-2 3.85c0 1.42.89 2 2 1.3a5 5 0 0 0 2-3.85Z"/></g><path class="cls-37" d="M622.63 214.93c0-1-.49-1.31-1.2-.79a4 4 0 0 0-1.38 2.68c0 1 .49 1.32 1.2.8a4 4 0 0 0 1.38-2.69Z"/><path class="cls-28" d="M622.63 214.93c0-1-.49-1.31-1.2-.79a4 4 0 0 0-1.38 2.68c0 1 .49 1.32 1.2.8a4 4 0 0 0 1.38-2.69Z"/><path class="cls-28" d="M629.31 234h3.89v-6c0-3.88-2.34-8.44-5.32-10.38l-5.57-3.62-1.95 3.79 5.58 3.63a9 9 0 0 1 3.37 6.58Z"/><path class="cls-37" d="M629.31 230.2a1.11 1.11 0 0 0 .56.9 2.76 2.76 0 0 0 2.75 0 1.09 1.09 0 0 0 .58-.9v1.32a1.08 1.08 0 0 1-.58.89 2.71 2.71 0 0 1-2.75 0 1.09 1.09 0 0 1-.56-.89Z"/><path class="cls-37" d="M629.31 228.17a1.09 1.09 0 0 0 .56.89 2.71 2.71 0 0 0 2.75 0 1.08 1.08 0 0 0 .58-.89v1.31a1.09 1.09 0 0 1-.58.9 2.71 2.71 0 0 1-2.75 0 1.11 1.11 0 0 1-.56-.9ZM625.32 215.93a.89.89 0 0 0-1 .11 3.51 3.51 0 0 0-1.37 2.68 1.14 1.14 0 0 0 .4 1l-1-.66a1.14 1.14 0 0 1-.4-1 3.51 3.51 0 0 1 1.37-2.68.86.86 0 0 1 1-.1Z"/><path class="cls-37" d="M626.88 217a.88.88 0 0 0-1 .1 3.55 3.55 0 0 0-1.38 2.69 1.17 1.17 0 0 0 .41 1l-1-.66a1.17 1.17 0 0 1-.4-1 3.52 3.52 0 0 1 1.38-2.68.87.87 0 0 1 1-.11Z"/><path class="cls-8" d="M689.36 269.19c-.74.41-.74 1.09 0 1.51a2.94 2.94 0 0 0 2.65 0c.74-.42.75-1.09 0-1.51a2.94 2.94 0 0 0-2.65 0Z"/><g class="cls-32"><path class="cls-8" d="m682.45 249.78-.55-.36a1.21 1.21 0 0 0-1.34.15 4.85 4.85 0 0 0-1.91 3.72 1.62 1.62 0 0 0 .56 1.4l.56.36a1.59 1.59 0 0 1-.56-1.4 4.87 4.87 0 0 1 1.9-3.72 1.21 1.21 0 0 1 1.34-.15Z"/><path class="cls-28" d="M683 251.18c0-1.37-.85-1.93-1.91-1.25a4.87 4.87 0 0 0-1.9 3.72c0 1.37.85 1.93 1.9 1.25a4.85 4.85 0 0 0 1.91-3.72Z"/></g><path class="cls-8" d="M682.35 251.5c0-.92-.47-1.27-1.16-.76a3.83 3.83 0 0 0-1.33 2.59c0 .93.48 1.27 1.16.77a3.84 3.84 0 0 0 1.33-2.6Z"/><path class="cls-8" d="M688.8 269.94h3.76v-5.83c0-3.75-2.26-8.15-5.14-10l-5.38-3.5-1.88 3.67 5.38 3.5a8.63 8.63 0 0 1 3.26 6.36Z"/><path class="cls-38" d="M688.8 266.25a1.07 1.07 0 0 0 .55.87 2.62 2.62 0 0 0 2.65 0 1.08 1.08 0 0 0 .56-.87v1.27a1.08 1.08 0 0 1-.56.87 2.62 2.62 0 0 1-2.65 0 1.07 1.07 0 0 1-.55-.87Z"/><path class="cls-38" d="M688.8 264.28a1.05 1.05 0 0 0 .55.87 2.62 2.62 0 0 0 2.65 0 1.07 1.07 0 0 0 .56-.87v1.28a1.06 1.06 0 0 1-.56.86 2.62 2.62 0 0 1-2.65 0 1.05 1.05 0 0 1-.55-.86ZM685 252.47a.84.84 0 0 0-.94.1 3.4 3.4 0 0 0-1.33 2.59 1.13 1.13 0 0 0 .39 1l-1-.64a1.11 1.11 0 0 1-.39-1 3.4 3.4 0 0 1 1.33-2.59.84.84 0 0 1 .94-.1Z"/><path class="cls-38" d="M686.46 253.45a.87.87 0 0 0-.94.1 3.4 3.4 0 0 0-1.33 2.6 1.12 1.12 0 0 0 .39 1l-1-.64a1.1 1.1 0 0 1-.39-1 3.4 3.4 0 0 1 1.33-2.59.84.84 0 0 1 .94-.1Z"/><path class="cls-8" d="M684.45 272.41c-.73.42-.74 1.09 0 1.51a3 3 0 0 0 2.66 0c.74-.42.74-1.09 0-1.51a3 3 0 0 0-2.66 0Z"/><g class="cls-32"><path class="cls-8" d="m677.55 253-.56-.36a1.21 1.21 0 0 0-1.34.15 4.87 4.87 0 0 0-1.9 3.72 1.59 1.59 0 0 0 .56 1.4l.56.36a1.6 1.6 0 0 1-.57-1.4 4.88 4.88 0 0 1 1.91-3.72 1.21 1.21 0 0 1 1.34-.15Z"/><path class="cls-28" d="M678.12 254.4c0-1.37-.86-1.93-1.91-1.25a4.88 4.88 0 0 0-1.91 3.72c0 1.37.86 1.93 1.91 1.25a4.88 4.88 0 0 0 1.91-3.72Z"/></g><path class="cls-8" d="M677.45 254.73c0-.93-.48-1.27-1.16-.77a3.85 3.85 0 0 0-1.33 2.59c-.05.93.47 1.27 1.16.77a3.88 3.88 0 0 0 1.33-2.59Z"/><path class="cls-8" d="M683.9 273.17h3.76v-5.84c0-3.75-2.26-8.15-5.14-10l-5.38-3.5-1.88 3.67 5.38 3.5a8.63 8.63 0 0 1 3.26 6.36Z"/><path class="cls-38" d="M683.9 269.47a1.08 1.08 0 0 0 .54.87 2.64 2.64 0 0 0 2.66 0 1.1 1.1 0 0 0 .56-.87v1.27a1.09 1.09 0 0 1-.56.87 2.64 2.64 0 0 1-2.66 0 1.06 1.06 0 0 1-.54-.87Z"/><path class="cls-38" d="M683.9 267.51a1.06 1.06 0 0 0 .54.86 2.64 2.64 0 0 0 2.66 0 1.09 1.09 0 0 0 .56-.86v1.27a1.09 1.09 0 0 1-.56.86 2.64 2.64 0 0 1-2.66 0 1.06 1.06 0 0 1-.54-.86ZM680 255.69a.85.85 0 0 0-.94.1 3.42 3.42 0 0 0-1.32 2.59 1.13 1.13 0 0 0 .38 1l-1-.64a1.1 1.1 0 0 1-.39-1 3.37 3.37 0 0 1 1.33-2.59.84.84 0 0 1 .94-.1Z"/><path class="cls-38" d="M681.55 256.68a.85.85 0 0 0-.94.09 3.43 3.43 0 0 0-1.32 2.6 1.08 1.08 0 0 0 .39 1l-1-.63a1.13 1.13 0 0 1-.39-1 3.37 3.37 0 0 1 1.33-2.59.84.84 0 0 1 .94-.1Z"/><g class="cls-32"><path class="cls-26" d="m654.42 235.79 6.63-4.34.02-2.34v-2.24l-6.63 4.34v2.16l-.02 2.42z"/><path class="cls-39" d="M649.02 227.69v4.59l5.4 3.51.02-2.42v-2.16l-5.42-3.52z"/><path class="cls-40" d="m661.06 226.87-6.63 4.34-5.4-3.52 6.62-4.34 5.41 3.52z"/></g><path class="cls-41" d="M649 227.78v2.14l5.42 3.53c.06.05 6.63-4.25 6.63-4.25V227l-6.63 4.34Z"/><path class="cls-26" d="M662.2 224.95v2.44l-7.89 5.17v-2.44l7.89-5.17z"/><path class="cls-39" d="M654.31 230.12v2.44l-6.44-4.19v-2.44l6.44 4.19z"/><path class="cls-8" d="m647.87 225.93 6.44 4.19 7.89-5.17-1.34-.88-5.1-3.31-4.56 2.99-3.33 2.18z"/><g class="cls-32"><path class="cls-26" d="m669.02 245.83 6.63-4.34.02-2.34v-2.25l-6.63 4.34v2.16l-.02 2.43z"/><path class="cls-39" d="M663.62 237.73v4.59l5.4 3.51.02-2.43v-2.16l-5.42-3.51z"/><path class="cls-40" d="m675.66 236.91-6.63 4.33-5.4-3.51 6.62-4.34 5.41 3.52z"/></g><path class="cls-41" d="M663.62 237.81V240l5.42 3.54c.06 0 6.63-4.26 6.63-4.26V237l-6.67 4.33Z"/><path class="cls-26" d="M676.8 234.99v2.44l-7.89 5.16v-2.44l7.89-5.16z"/><path class="cls-39" d="M668.91 240.15v2.44l-6.44-4.18v-2.45l6.44 4.19z"/><path class="cls-8" d="m662.47 235.96 6.44 4.19 7.89-5.16-1.35-.88-5.09-3.31-4.56 2.98-3.33 2.18z"/><g class="cls-32"><path class="cls-25" d="M727.37 225.65v1.45a3.07 3.07 0 0 0 1.57 2.49 7.62 7.62 0 0 0 7.67 0 3.07 3.07 0 0 0 1.6-2.52v-1.46a3.08 3.08 0 0 1-1.6 2.52 7.62 7.62 0 0 1-7.67 0 3 3 0 0 1-1.57-2.48Z"/><path class="cls-28" d="M729 223.13c-2.13 1.38-2.14 3.62 0 5a7.62 7.62 0 0 0 7.67 0c2.12-1.38 2.14-3.62 0-5a7.58 7.58 0 0 0-7.67 0Z"/></g><path class="cls-8" d="M712.61 236.59h5.51V232c0-3.08 2.07-7.13 4.44-8.68l5.78-3.75c.86-.56 1.31-.5 1.37-.46s.33.44.33 1.56v4.59h5.5v-4.59c0-3.14-1.12-5.66-3.08-6.94s-4.46-1.1-6.87.46l-5.78 3.76c-4 2.63-7.2 8.8-7.2 14.05Z"/><path class="cls-8" d="M730.85 224a1.4 1.4 0 0 0 0 2.54 3.87 3.87 0 0 0 3.89 0 1.4 1.4 0 0 0 0-2.54 3.87 3.87 0 0 0-3.89 0ZM713.42 235.32a1.4 1.4 0 0 0 0 2.54 3.87 3.87 0 0 0 3.89 0 1.4 1.4 0 0 0 0-2.54 3.82 3.82 0 0 0-3.89 0Z"/><g class="cls-32"><path class="cls-25" d="M704.51 209.85v1.45a3.07 3.07 0 0 0 1.57 2.49 7.62 7.62 0 0 0 7.67 0 3.09 3.09 0 0 0 1.6-2.52v-1.46a3.08 3.08 0 0 1-1.6 2.52 7.6 7.6 0 0 1-7.67 0 3.06 3.06 0 0 1-1.57-2.48Z"/><path class="cls-28" d="M706.11 207.33c-2.12 1.38-2.13 3.62 0 5a7.6 7.6 0 0 0 7.67 0c2.12-1.38 2.13-3.62 0-5a7.62 7.62 0 0 0-7.67 0Z"/></g><path class="cls-8" d="M689.76 220.79h5.5v-4.59c0-3.09 2.08-7.14 4.45-8.68l5.78-3.76c.86-.56 1.31-.5 1.37-.46s.32.45.32 1.56v4.59h5.51v-4.59c0-3.13-1.12-5.66-3.08-6.94s-4.47-1.1-6.87.46l-5.74 3.76c-4 2.63-7.2 8.8-7.2 14.06Z"/><path class="cls-8" d="M708 208.17a1.4 1.4 0 0 0 0 2.54 3.88 3.88 0 0 0 3.9 0 1.4 1.4 0 0 0 0-2.54 3.87 3.87 0 0 0-3.9 0ZM690.57 219.52a1.4 1.4 0 0 0 0 2.54 3.87 3.87 0 0 0 3.89 0 1.4 1.4 0 0 0 0-2.54 3.87 3.87 0 0 0-3.89 0Z"/><g class="cls-32"><path class="cls-25" d="M575.5 288.49v2a4.17 4.17 0 0 0 2.14 3.37 10.34 10.34 0 0 0 10.4 0 4.17 4.17 0 0 0 2.17-3.42v-2a4.17 4.17 0 0 1-2.17 3.41 10.29 10.29 0 0 1-10.4 0 4.12 4.12 0 0 1-2.14-3.36Z"/><path class="cls-28" d="M577.67 285.08c-2.88 1.87-2.9 4.91 0 6.78a10.29 10.29 0 0 0 10.4 0c2.88-1.87 2.89-4.91 0-6.78a10.29 10.29 0 0 0-10.4 0Z"/></g><path class="cls-26" d="M579.12 288h7.47v-6.2c0-4.18 2.82-9.68 6-11.78l7.84-5.09c1.16-.76 1.77-.67 1.85-.63s.44.61.44 2.12v6.23h7.47v-6.23c0-4.25-1.52-7.68-4.18-9.41s-6-1.5-9.32.63l-7.84 5.1c-5.47 3.56-9.77 11.93-9.77 19.06Z"/><path class="cls-26" d="M603.87 270.91a1.91 1.91 0 0 0 0 3.45 5.25 5.25 0 0 0 5.28 0 1.91 1.91 0 0 0 0-3.45 5.25 5.25 0 0 0-5.28 0ZM580.23 286.31a1.9 1.9 0 0 0 0 3.44 5.22 5.22 0 0 0 5.28 0 1.9 1.9 0 0 0 0-3.44 5.2 5.2 0 0 0-5.28 0Z"/><g class="cls-32"><path class="cls-26" d="M609.51 197.11v1a2 2 0 0 0 1 1.64 5 5 0 0 0 5.07 0 2 2 0 0 0 1.06-1.66v-1a2 2 0 0 1-1.06 1.67 5 5 0 0 1-5.08 0 2 2 0 0 1-.99-1.65Z"/><path class="cls-8" d="M610.57 195.44a1.83 1.83 0 0 0 0 3.31 5 5 0 0 0 5.08 0 1.83 1.83 0 0 0 0-3.31 5 5 0 0 0-5.08 0Z"/></g><path class="cls-26" d="M611.35 196.09c-1 .56-1 1.46 0 2a4 4 0 0 0 3.54 0c1-.56 1-1.46 0-2a4 4 0 0 0-3.54 0Z"/><path class="cls-26" d="M611.35 196.09c-1 .56-1 1.46 0 2a4 4 0 0 0 3.54 0c1-.56 1-1.46 0-2a4 4 0 0 0-3.54 0Z"/><g class="cls-32"><path class="cls-39" d="m606.34 173-6-3.84a1.61 1.61 0 0 0-1.79.19 6.51 6.51 0 0 0-2.53 5 2.09 2.09 0 0 0 .75 1.86l6 3.85a2.12 2.12 0 0 1-.76-1.87 6.49 6.49 0 0 1 2.54-5 1.62 1.62 0 0 1 1.79-.19Z"/><path class="cls-8" d="M607.09 174.9c0-1.83-1.14-2.58-2.54-1.67a6.49 6.49 0 0 0-2.54 5c0 1.83 1.14 2.58 2.54 1.67a6.5 6.5 0 0 0 2.54-5Z"/></g><path class="cls-37" d="M606.2 175.33c.06-1.24-.63-1.69-1.54-1a5.1 5.1 0 0 0-1.77 3.45c-.06 1.23.63 1.69 1.54 1a5.1 5.1 0 0 0 1.77-3.45Z"/><path class="cls-26" d="M606.2 175.33c.06-1.24-.63-1.69-1.54-1a5.1 5.1 0 0 0-1.77 3.45c-.06 1.23.63 1.69 1.54 1a5.1 5.1 0 0 0 1.77-3.45Z"/><path class="cls-26" d="M610.61 197.1h5v-7.77c0-5-3-10.85-6.84-13.34l-3-1.89-2.5 4.88 3 1.89c2.31 1.5 4.34 5.45 4.34 8.46Z"/><path d="M610.61 192.18a1.43 1.43 0 0 0 .72 1.16 3.55 3.55 0 0 0 3.54 0 1.43 1.43 0 0 0 .74-1.16v1.69a1.43 1.43 0 0 1-.74 1.16 3.5 3.5 0 0 1-3.54 0 1.43 1.43 0 0 1-.72-1.16Z" style="fill:#7befff"/><path class="cls-9" d="M504.58 86.7c-5.84-.75-11.12-1.57-14.35-1.6h-.6l-5-8.38a22.91 22.91 0 0 1 8.29.55l8.43 3.23-1.11-5.4h3.5a10.16 10.16 0 0 1 2.41 3 27.84 27.84 0 0 1 1.91 4.15c.51 2.19-.6 4.45-3.48 4.45Z"/><path class="cls-43" d="M504.58 86.7c-5.84-.75-11.12-1.57-14.35-1.6l.78-3.35c3.36 2.68 8.52 4 14.51 3.57 2.3-1.12 1.73-4 .67-7.24a27.84 27.84 0 0 1 1.91 4.15c.47 2.21-.64 4.47-3.52 4.47Z"/><path d="m475.73 91-2.13 65.12c4.47-7 11-8.8 19.29-5.91l1.69-34.64-2.16-10.46-.7-12.76Z" style="fill:#9d9d9c"/><path class="cls-45" d="M473.05 73.67s-6 5.66-2.53 13.12 8.08-6.5 8.08-6.5ZM483.47 165.05c-.41.93-.2 2.12 0 3.77.41 1.06 1.43 2.06 3.43 2.64 2.32 1.51 3.24 4.09 6.17 4.84 3.36.86 5.39-.27 5.12-2-.46-3-4.36-4.28-6.21-7.7l-1.68-3.42h-6Z"/><path class="cls-14" d="m479.11 123.16 4.1 18.77c-1.22 4.25.79 14.95-.73 23.7.28 3.76 9.63 3.92 9.77 1-.39-9 .64-16.84 1.55-24.1 2.75-7.14 2-22.9-3.28-36.11l-10.78 4.79Z"/><path class="cls-45" d="M468.9 171c-.94 1.13-1.07 4.67-.57 5.31 2.4 2.28 5.69 6.85 12.26 6.53 2.66-.43 3.4-1.54 2.4-3.28s-4.35-3.56-5.79-6.86l-1.66-2.89Z"/><path class="cls-13" d="M491.72 109.66a24.36 24.36 0 0 1-2.25 7.77c-1.74 3.55-4.3 6.23-7.3 6.57-.34 10.78.65 21.84-2.81 25.81-2 8.66-3 17-1.5 23.67-1.59 2.22-7.57 2-9.35-.6a2.7 2.7 0 0 1-.42-.93c-.55-11.54-2.57-20.54 2-26.85l-2.95-20.49c-1.59-7.25-.2-11 4.18-14.49q.79-.63 1.71-1.26l18.18-.63Z"/><path class="cls-20" d="M496.73 97.21c0 2.23-2.47 4.26-5.53 3.91 0 2.14-.77 5.14 0 7.11-1.25 2.57-2.91 4.55-6.21 5.28s-9.9.11-13.68-3.39c.63-4-.94-9.08-2.57-13.36-1.26-3.3-2.56-6.12-2.92-7.54a47.82 47.82 0 0 1 10.53-8.29c3.87-2.32 5.66-5.26 10.08-3.84s4.93 9 6.55 12 3.74 5.02 3.75 8.12Z"/><path class="cls-46" d="M475.42 123.67c-2.63 8.36-3 14.09-.42 23.43-5.48 6.36-5.66 14.42-5.48 26.06l-1-.28a2.7 2.7 0 0 1-.42-.93c-.55-11.54-2.57-20.54 2-26.85l-2.95-20.49c-1.59-7.25-.2-11 4.18-14.49.63-4-.94-9.08-2.57-13.36l4-.88 4.34 6c3.37 4.9 12.14 3.93 12.51-1.07l1.6.39c0 2.09-.77 5.09 0 7.06l.52 1.43a24.36 24.36 0 0 1-2.25 7.77c-2.64 6.04-7.09 8.54-14.06 6.21Z"/><path class="cls-9" d="M481.9 158.82a32.46 32.46 0 0 1-10.66-2.06c-3.94-1.62-6.55-4.16-7.17-7.64 2.64-8.74 2.24-19.44 1.75-31.07-.57-8.9 5.83-12.84 2.5-23.18a32.79 32.79 0 0 0-2.5-5.65c1.87-2.36 6.41-5.7 10-9.42-1.76 4.82.89 11.29 5.49 17.2a37.58 37.58 0 0 1 2.93 8.06l.07.29c.23 1 .43 1.94.59 2.93 2.58 15.47-2.08 33.38-3 50.54Z"/><path class="cls-9" d="M498 145.47c-1.1 4.21-1.67 8.26-6.32 9.16-2.19-17.59.8-28.82 1-41.77V106.81l-.06-.91c-.09-1.2-.22-2.42-.38-3.67 0-.36-.09-.72-.15-1.07a77.34 77.34 0 0 0-2-9.67 43.3 43.3 0 0 0-9.65-13.38c3.43-2.73 8.54-1.62 11.1 1.4-.77 8.52 4 10.77 5.39 16.62a3.82 3.82 0 0 1-1 3.61 4.67 4.67 0 0 1-1.83 1.09h-.07l-.08 6.5c1.55 3.21 2.06 7.65 2.3 12.76.22 7.64.02 16.65 1.75 25.38Z"/><path class="cls-47" d="M505.52 77.33a.85.85 0 0 1-.09.38c.11.46-.06.65-.58.5a2.63 2.63 0 0 1-1.17-.72L502 75.66l-3-1.46a3.44 3.44 0 0 1 3.91-.69 4.25 4.25 0 0 1 1.48 1.28c.49.77 1 1.44.88 1.93a1.09 1.09 0 0 1 .21.59Z"/><path class="cls-46" d="M505.52 77.33a.85.85 0 0 1-.09.38c.11.46-.06.65-.58.5a2.63 2.63 0 0 1-1.17-.72L502 75.66l-3-1.46a1.8 1.8 0 0 1 2.64-.38c.41-.38 1.3-.19 1.46-.22.15.32.34 2.25.54 2.56a3.5 3.5 0 0 0 .87 1c.38.25.7.44 1 .2Z"/><path class="cls-47" d="m499.81 72.24-1.41 1.19-.4 1.68c0 .64.93.58 1.25 0l.52-1 1.15-.7.77.29-.17.92-.94.92c-.34.42.21.83.64.57l1.67-1 .21-2.1c-.62-.6-1.96-.68-3.29-.77Z"/><path class="cls-43" d="m485 108.23-.34-1c-3.76-.47-7.26-.36-10.13 1.15-5.78 3.43-6.08 12.45-5.1 19-2.05 11.29-2.37 22.49 1.8 29.42-3.94-1.62-6.55-4.16-7.17-7.64 2.64-8.74 2.24-19.44 1.75-31.07-.57-8.9 5.83-12.84 2.5-23.18l1.95-2.2c4.27 5.58 6.33 13.36 13.93 12.39l.07.29Z"/><path class="cls-9" d="M465.8 89.25a39.26 39.26 0 0 0-6.34 18.39c-1 5 .08 14 2.7 18.75.65-.68 1.81-1 3.64-.81.42-6.63.94-13.07 0-16.51l5.82-10.94c4-7.5-2.55-12.45-5.82-8.88Z"/><path class="cls-47" d="M472.87 130.74a1.18 1.18 0 0 1-1.23-.14c-1-.87-2-1.56-3.31-1.17a1.83 1.83 0 0 0-.11 1.43v.12a20 20 0 0 0 2.31 4.43.44.44 0 0 1-.13.59.92.92 0 0 1-.91 0c.06.45-.62.62-1.07.21l-.67-.64c-.08.52-.79.38-1 0l-1.27-1.36a10.51 10.51 0 0 1-2.21-2.57c-.08-.14-.17-.28-.25-.43a13.31 13.31 0 0 1-.89-4.84c.44-1.34 1.84-1.53 3.64-.81l2.16 1c2 .85 3 2.06 5.19 3.57.19.18.05.46-.25.61Z"/><path class="cls-41" d="M470.44 136a.92.92 0 0 1-.91 0c.06.45-.62.62-1.07.21l-.67-.64c-.08.52-.79.38-1 0l-1.27-1.36a10.51 10.51 0 0 1-2.21-2.57 4.32 4.32 0 0 0 3.23-.38c.91 1.88 2.58 4.4 3.9 4.74ZM472.87 130.74a1.18 1.18 0 0 1-1.23-.14c-1-.87-2-1.56-3.31-1.17a1.83 1.83 0 0 0-.11 1.43l-.54-2c2.39-.46 4.06 1.49 5.19 1.88Z"/><path class="cls-43" d="M494 100.83a7.65 7.65 0 0 0 1.83-1.09 4.67 4.67 0 0 1-1.83 1.09ZM496.12 120.12c-.85-3.19-1.85-6-3.43-7.26V106.81l-.06-.91c-.09-1.24-.21-2.46-.38-3.67 0-.36-.09-.72-.15-1.07a4.33 4.33 0 0 0 1.94-.3l-.08 6.5c1.41 3.21 1.92 7.64 2.16 12.76Z"/><path class="cls-8" d="M479.87 78.26a50.47 50.47 0 0 1 11.55 19.62l-1.62-13.41-2.39.48 1.2-1.54-7.61-5.66Z"/><path class="cls-47" d="M476.85 76.08c-.58 1.73-1.1 4.13-1.84 5.91-.44 2 3.94 6.09 6.87 5.91 2.06-.35 2-3.81 2.32-5.91Z"/><path class="cls-8" d="M475.78 79.8c-2.9 1.91-3.17 6-2.22 11h2.56l-2.1 1.9c3.88 1.9 7 6.74 10.07 11.93-1.43-10.83-10.6-19.48-8.31-24.83Z"/><path class="cls-43" d="M477.27 76.07c0 5.9 3.21 14.35 7.4 12.91 3-1 0-5.34 0-9.39Z"/><path class="cls-47" d="M477.53 78.84c2.07 2.22 4.3 4.12 8 3.67 1.35-.17 2.6-1.9 2.5-8.85a10.83 10.83 0 0 0-2.76-6.41 8.61 8.61 0 0 0-7.76-2c-4.13.81-6.13 3.55-5.64 7 .9 4.75 3.25 6.44 5.66 6.59Z"/><path class="cls-25" d="M476.17 78.41a3.23 3.23 0 0 0 1.75-1.28 7.7 7.7 0 0 0 1.1-3.84c3.77-.33 7.76-2.7 7.76-3.8-.17-1.5-1.24-2.88-4.46-4a8.87 8.87 0 0 0-9.32 2c-4 3.73-.38 10.31 3 11.5Z"/><path class="cls-45" d="M488.5 72.53c-.34-.76-1.07.34-2 1.16a1 1 0 0 0-.31.55 1.42 1.42 0 0 0-.78.51c-.09-.14-.51 0-.67 0-1.28.67-2.92.92-2.92 1.86 0 2.21 4.4 1.45 3.72-1.61v-.07a1.07 1.07 0 0 1 .64-.41.22.22 0 0 0 0 .08c.25 1.61 1.45 1.3 2.16.27a2.74 2.74 0 0 0 .16-2.34Zm-3.43 4.25a2.1 2.1 0 0 1-1.23.87 1.68 1.68 0 0 1-1.45-.16 1 1 0 0 1-.42-.86c0-.46.59-.73 1.55-1.11.42-.16.84-.37 1.26-.55s.48 0 .53.15a2.12 2.12 0 0 1-.24 1.66Zm3.12-2.07a1.9 1.9 0 0 1-1 .85c-.62.17-.91-.53-.92-1.15a.81.81 0 0 1 .26-.58c.26-.21.5-.44.74-.66s.55-.59.79-.65c.07 0 .16 0 .22.12a2.49 2.49 0 0 1-.09 2.07Z"/><path class="cls-45" d="m481.91 76.73-5.79.12-.14-.24 6.02-.31-.09.43z"/><path class="cls-47" d="M477 77.53a4.1 4.1 0 0 0-.91-1 2 2 0 0 0-1.32-.4.9.9 0 0 0-.36.08.74.74 0 0 0-.41.63 1.46 1.46 0 0 0 .21.72 3.26 3.26 0 0 0 .93 1.17 2.53 2.53 0 0 0 1.49.54 1 1 0 0 0 .61-.16.57.57 0 0 0 .22-.37 1.68 1.68 0 0 0-.46-1.21Z"/><path d="M503.42 83.78a7.71 7.71 0 0 1-6.07 0c-1.07-.53-1.46-1.27-1.17-2a2.46 2.46 0 0 1 1.17-1.06 7.71 7.71 0 0 1 6.07 0 2.49 2.49 0 0 1 1.11.94 1 1 0 0 1 .09.21c.23.7-.17 1.4-1.2 1.91Z" style="fill:#9d9d9c;opacity:.2"/><path d="M503.42 83.78a7.71 7.71 0 0 1-6.07 0c-1.07-.53-1.46-1.27-1.17-2l3-6.74v-2.6c.23-.74 2.18-.81 2.35 0v2.64l3 6.62.09.21c.23.66-.17 1.36-1.2 1.87Z" style="opacity:.5;fill:#dadada"/><path d="m504.39 82-1.55-3.48h-4.91l-1.5 3.34v.08c-.25.6.15 1.23 1.07 1.68a7.38 7.38 0 0 0 5.83 0c.86-.46 1.26-1.05 1.06-1.62Z" style="fill:#3480a7"/><path class="cls-11" d="M501.28 71.93a2.32 2.32 0 0 0-1.79 0 .6.6 0 0 0-.4.51.44.44 0 0 0 .12.29.79.79 0 0 0 .28.21 2.32 2.32 0 0 0 1.79 0 .89.89 0 0 0 .28-.21.44.44 0 0 0 .12-.29.6.6 0 0 0-.4-.51Zm-.9 1a1.82 1.82 0 0 1-.77-.16c-.18-.09-.28-.21-.28-.32s.1-.24.28-.33a2 2 0 0 1 1.55 0c.18.09.28.21.28.33s-.1.23-.28.32a1.84 1.84 0 0 1-.78.15Z"/><path d="M502.14 79.56a4.37 4.37 0 0 1-3.51 0c-.62-.3-.85-.73-.68-1.13a1.42 1.42 0 0 1 .68-.61 4.46 4.46 0 0 1 3.51 0 1.42 1.42 0 0 1 .64.54.5.5 0 0 1 .05.13c.17.38-.1.78-.69 1.07Z" style="fill:#48b6ec"/><path class="cls-23" d="M499.63 73.15v2l-3 6.74v.08c-.22.53.14 1.08 1 1.5l.2.09 2.4-8.27v-2a1.22 1.22 0 0 1-.6-.14Z"/><path class="cls-47" d="M501.56 72.73v.82l.17.12-.17.92-.94.92c-.34.42.21.83.64.57l1.67-1 .21-2.1c-.28-.23-1.09-.14-1.58-.25Z"/><path d="m144.63 235.37 2.54 66.76 186.38-114.28-2.55-67.26Z" style="fill:#e1dee6"/><path class="cls-53" d="m70.42 263.13 76.75 39-2.54-66.76-76.78-39.52 2.57 67.28z"/><path class="cls-54" d="m138.17 232.04 2.55 66.81 1.71.87-2.55-66.79-1.71-.89zM150.4 231.82l2.55 66.77-1.66.8-2.54-66.56 1.65-1.01zM326.11 123.88l2.55 66.77-1.64 1.2-2.56-66.96 1.65-1.01zM71.26 197.61l2.56 67.12 1.72.87-2.56-67.11-1.72-.88z"/><path style="fill:#f3f1f3" d="M254.24 81.81 67.85 195.85l76.78 39.52 186.35-114.78-76.74-38.78z"/><path class="cls-53" d="m265.19 151.64 43.07-26.37a4.42 4.42 0 0 0-.32-7.78L265.3 95.94a22.33 22.33 0 0 0-21.58.86L91.93 189.17a5.39 5.39 0 0 0 .34 9.47l42.75 22 .27.13 110.6-67.3a22.27 22.27 0 0 1 19.3-1.83Z"/><path class="cls-54" d="m153.56 220 111.63-68.32a22.27 22.27 0 0 0-19.3 1.83l-110.6 67.3a19 19 0 0 0 18.27-.81Z"/><path d="m187.8 170.44 5.76-4.91 6.56 7.69-5.83 5a2.5 2.5 0 0 1-2.09-.06 5.47 5.47 0 0 1-1-.51 9 9 0 0 1-2.74-2.82 7.4 7.4 0 0 1-.91-2.16c0-.19-.07-.37-.08-.54a2.71 2.71 0 0 1 .12-1.17 1.83 1.83 0 0 1 .21-.52Z" style="fill:url(#Безымянный_градиент_50)"/><path d="M144.34 218.87a5.47 5.47 0 0 1-1-.51 6.91 6.91 0 0 1-.94-.72l-.47-.44c-.16-.16-.31-.34-.46-.51s-.17-.2-.24-.3a.76.76 0 0 1-.11-.14s0 0 0-.05-.09-.14-.14-.2l-.15-.22a1.07 1.07 0 0 1-.15-.22c-.06-.1-.13-.21-.18-.31a.64.64 0 0 1-.08-.14s0 0 0-.05a.73.73 0 0 0 0-.09l-.15-.31c0-.1-.09-.21-.12-.31a6 6 0 0 1-.3-.94v-.5a1.34 1.34 0 0 1 0-.2 1.47 1.47 0 0 1 0-.21 3 3 0 0 1 .1-.64v-.14a1.74 1.74 0 0 1 .46-.67l.14-.11 45.35-38.68a1.74 1.74 0 0 0-.44.69 2.72 2.72 0 0 0-.11 1.17 3.4 3.4 0 0 0 .08.53 6.9 6.9 0 0 0 .9 2.16 9 9 0 0 0 2.75 2.83 6 6 0 0 0 1 .5 2.57 2.57 0 0 0 2.1.06l-45 38.43a2.13 2.13 0 0 1-2.84.24Z" style="fill:url(#Безымянный_градиент_50-2)"/><path class="cls-58" d="M196 165.34a8.45 8.45 0 0 1 4.63 5.48c.48 2.22-.82 3.36-2.9 2.55a8.48 8.48 0 0 1-4.64-5.49c-.51-2.22.78-3.36 2.91-2.54Z"/><path class="cls-59" d="M200.28 170.65a7.77 7.77 0 0 0-4.18-4.86c-1.87-.75-3 .21-2.59 2.14a7.75 7.75 0 0 0 4.19 4.86c1.86.75 3.02-.21 2.58-2.14Z"/><path class="cls-60" d="M196.1 165.79a7.81 7.81 0 0 1 4 4.39l-6.2-1.18a5.65 5.65 0 0 1-.39-1.08c-.44-1.92.72-2.92 2.59-2.13Z"/><path class="cls-61" transform="rotate(-40.46 186.714 171.271)" d="M185.36 171.28h2.73v.01h-2.73z"/><path d="m246.64 145.87 4.65-3.61 4.37 6.83-4.66 3.61a1.75 1.75 0 0 1-1.57-.21 5 5 0 0 1-.7-.49 7.38 7.38 0 0 1-1.85-2.53 6 6 0 0 1-.53-1.84 3.64 3.64 0 0 1 0-.45 2.46 2.46 0 0 1 .17-1 1.68 1.68 0 0 1 .12-.31Z" style="fill:url(#Безымянный_градиент_50-3)"/><path d="M210.83 182.45a4.86 4.86 0 0 1-.7-.48 5.14 5.14 0 0 1-.66-.66c-.1-.13-.22-.26-.32-.4l-.31-.45-.16-.27a.75.75 0 0 1-.07-.12l-.08-.18-.11-.19a.82.82 0 0 1-.09-.19l-.12-.27v-.2c0-.03-.07-.18-.09-.26a2.76 2.76 0 0 1-.08-.27 4.57 4.57 0 0 1-.15-.79v-.75a3.08 3.08 0 0 1 .12-.52v-.11a1.4 1.4 0 0 1 .39-.52l.11-.08 36.49-28.6a1.32 1.32 0 0 0-.38.53 2.36 2.36 0 0 0-.16 1 3.31 3.31 0 0 0 0 .44 5.87 5.87 0 0 0 .53 1.85 7.18 7.18 0 0 0 1.86 2.53 4 4 0 0 0 .7.49 1.78 1.78 0 0 0 1.57.21l-36.32 28.23c-.44.42-1.13.5-1.97.03Z" style="fill:url(#Безымянный_градиент_50-4)"/><path class="cls-58" d="M253.09 142.29a7 7 0 0 1 3.09 4.87c.2 1.86-.85 2.7-2.35 1.87a7 7 0 0 1-3.09-4.86c-.2-1.86.85-2.7 2.35-1.88Z"/><path class="cls-59" d="M256 147a6.43 6.43 0 0 0-2.8-4.32c-1.34-.76-2.27 0-2.08 1.57a6.41 6.41 0 0 0 2.8 4.32c1.3.75 2.23.05 2.08-1.57Z"/><path class="cls-60" d="M253.16 142.67a6.43 6.43 0 0 1 2.72 3.93l-4.58-1.44a5.33 5.33 0 0 1-.22-.92c-.19-1.62.74-2.33 2.08-1.57Z"/><path class="cls-61" transform="rotate(-37.86 245.755 146.478)" d="M244.72 146.49h2.12v.01h-2.12z"/><path class="cls-61" d="m249.09 154.15 1.91-1.45h.06l-1.56 1.22a1 1 0 0 1-.41.23Z"/><g class="cls-32"><path class="cls-26" d="M443 76.7v2.53c0 1.57-1 3.13-2.94 4.33a15.14 15.14 0 0 1-14.32 0c-2-1.21-3-2.8-3-4.39v-2.53c0 1.59 1 3.17 3 4.38a15.07 15.07 0 0 0 14.31 0C442 79.83 443 78.27 443 76.7Z"/><path class="cls-28" d="M440 72.32c4 2.4 4 6.3 0 8.7a15.07 15.07 0 0 1-14.31 0c-4-2.4-4-6.3-.05-8.7a15.09 15.09 0 0 1 14.36 0Z"/></g><path class="cls-11" d="M437.84 74c2.76 1.46 2.78 3.84 0 5.3a11.82 11.82 0 0 1-10 0c-2.77-1.46-2.78-3.83 0-5.3a11.89 11.89 0 0 1 10 0Z"/><path class="cls-11" d="M425.84 76.68h14.08v-22c0-8.38-3.18-15.12-8.72-18.48s-12.69-2.88-19.6 1.31L385 53.67l7 12.81 26.63-16.15c2.83-1.71 4.74-1.78 5.51-1.31s1.69 2.24 1.69 5.67Z"/><path class="cls-26" d="M439.92 63.47a3.68 3.68 0 0 1-2.05 3 10.55 10.55 0 0 1-10 0 3.72 3.72 0 0 1-2.08-3v4.45a3.69 3.69 0 0 0 2.08 3 10.49 10.49 0 0 0 10 0 3.65 3.65 0 0 0 2.05-3Z"/><path class="cls-34" d="M439.92 56.6a3.68 3.68 0 0 1-2.05 3 10.49 10.49 0 0 1-10 0 3.72 3.72 0 0 1-2.08-3V61a3.72 3.72 0 0 0 2.08 3 10.55 10.55 0 0 0 10 0 3.68 3.68 0 0 0 2.05-3Z"/><g class="cls-32"><path class="cls-26" d="m421.49 99.65-.21 15.15c0 7.46-4.33 14.9-12.94 20.59-17.33 11.44-45.54 11.44-63 0-8.78-5.76-13.17-13.32-13.15-20.88l.21-15.15c0 7.56 4.36 15.12 13.14 20.88 17.45 11.45 45.66 11.45 63 0 8.62-5.69 12.93-13.13 12.95-20.59Z"/><ellipse class="cls-28" cx="376.95" cy="99.51" rx="29.32" ry="44.54" transform="rotate(-89.78 376.966 99.5)"/></g><g class="cls-32"><path class="cls-26" d="M416.1 26.79v15.83L416 65l-.09 33.79c0 6.55-3.81 13.1-11.38 18.1-15.25 10.06-40.05 10.06-55.39 0-7.72-5.07-11.57-11.72-11.56-18.36l.09-33.63.05-22.26v-16.1c0 6.62 3.86 13.25 11.56 18.31 15.35 10.07 40.15 10.07 55.39 0 7.62-4.96 11.41-11.5 11.43-18.06Z"/><path class="cls-64" d="M343.27 64.73a22.09 22.09 0 0 1-5.54-8.61l-.05 8.82a20 20 0 0 0 2.11 4.45 24.55 24.55 0 0 0 3.48 4.26ZM405.26 69c-12.33 8-30.75 9.63-45.67 5v8.91c14.92 4.63 33.32 3 45.64-5 5.66-3.68 9.26-8.18 10.78-12.9l.05-9c-1.5 4.8-5.06 9.33-10.8 12.99Z"/><ellipse class="cls-8" cx="376.93" cy="26.66" rx="25.78" ry="39.17" transform="rotate(-89.78 376.946 26.649)"/><path class="cls-26" d="M411.88 26.73a12.19 12.19 0 0 1-.46 3.28c-1.09 3.9-4.13 7.63-8.83 10.73-6.73 4.45-15.8 6.9-25.52 6.9s-18.84-2.45-25.63-6.91c-4.79-3.13-7.88-6.92-9-10.89a11.65 11.65 0 0 1-.46-3.25c0-5.08 3.29-10.06 9.28-14 6.73-4.45 15.8-6.9 25.53-6.9s18.84 2.46 25.63 6.91c6.09 3.98 9.46 9 9.46 14.13Z"/><path class="cls-30" d="M411.42 30c-1.09 3.9-4.13 7.63-8.83 10.73-6.73 4.45-15.8 6.9-25.52 6.9s-18.84-2.45-25.63-6.91c-4.79-3.13-7.88-6.92-9-10.89 1.1-3.9 4.14-7.63 8.82-10.72 6.73-4.45 15.8-6.9 25.53-6.9s18.84 2.46 25.63 6.91c4.79 3.15 7.89 6.88 9 10.88Z"/></g><path class="cls-28" d="M348 67.2a.13.13 0 0 1-.12-.14V43.8a3.63 3.63 0 0 1 1.39-2.73 1 1 0 0 1 1.09-.13 1.25 1.25 0 0 1 .45 1.1v1.39a.12.12 0 1 1-.24 0V42a1 1 0 0 0-.33-.87.74.74 0 0 0-.82.11 3.31 3.31 0 0 0-1.3 2.52v23.3a.13.13 0 0 1-.12.14ZM350.86 69.1a.12.12 0 0 1-.12-.13V45.71a3.65 3.65 0 0 1 1.39-2.71 1 1 0 0 1 1.09-.12 1.25 1.25 0 0 1 .45 1.1v1.39a.13.13 0 0 1-.12.13.12.12 0 0 1-.12-.13V44a1 1 0 0 0-.33-.87.74.74 0 0 0-.82.11 3.31 3.31 0 0 0-1.3 2.52V69a.12.12 0 0 1-.12.1Z"/><path class="cls-28" d="M350.86 67.17c-.06 0-2.95-1.91-2.95-1.91a.15.15 0 0 1-.05-.19.11.11 0 0 1 .16 0l2.9 1.9a.15.15 0 0 1 0 .18.11.11 0 0 1-.06.02ZM350.86 65.05c-.06 0-2.95-1.92-2.95-1.92a.14.14 0 0 1-.05-.18.12.12 0 0 1 .16-.05l2.9 1.9a.15.15 0 0 1 0 .18.12.12 0 0 1-.06.07ZM350.86 62.92c-.06 0-3-1.91-3-1.91a.16.16 0 0 1 0-.19.11.11 0 0 1 .16 0l2.89 1.89a.15.15 0 0 1 0 .19.11.11 0 0 1-.05.02ZM350.85 60.8c-.05 0-3-1.92-3-1.92a.15.15 0 0 1 0-.18.11.11 0 0 1 .16-.05l2.89 1.9a.14.14 0 0 1 0 .18.15.15 0 0 1-.05.07ZM350.85 58.67c-.06 0-3-1.91-3-1.91a.14.14 0 0 1 0-.19.11.11 0 0 1 .16 0l2.89 1.89a.14.14 0 0 1 0 .19.11.11 0 0 1-.05.02ZM350.85 56.55c-.06 0-3-1.92-3-1.92a.14.14 0 0 1 0-.18c0-.07.11-.09.16-.05l2.9 1.9a.14.14 0 0 1 0 .18.12.12 0 0 1-.06.07ZM350.85 54.42c-.06 0-3-1.92-3-1.92a.14.14 0 0 1 0-.18.12.12 0 0 1 .16 0l2.9 1.9a.16.16 0 0 1 0 .19.11.11 0 0 1-.06.01ZM350.85 52.3c-.06 0-3-1.92-3-1.92a.15.15 0 0 1 0-.18.11.11 0 0 1 .16-.05l2.9 1.9a.15.15 0 0 1 0 .18.12.12 0 0 1-.06.07ZM350.84 50.17l-2.95-1.92a.15.15 0 0 1 0-.18.12.12 0 0 1 .16 0l2.89 1.9a.14.14 0 0 1 .05.18.12.12 0 0 1-.15.02ZM350.84 48.05c-.06 0-2.95-1.92-2.95-1.92a.14.14 0 0 1 0-.18.1.1 0 0 1 .16-.05l2.89 1.9a.13.13 0 0 1 0 .18.12.12 0 0 1-.1.07ZM350.84 45.92c-.06 0-2.95-1.92-2.95-1.92a.13.13 0 0 1 0-.18.12.12 0 0 1 .16 0l2.89 1.9a.14.14 0 0 1 0 .18.1.1 0 0 1-.1.02ZM350.86 49.06a.11.11 0 0 1-.1-.06.15.15 0 0 1 0-.18l1.38-.91a.12.12 0 0 1 .16.05.14.14 0 0 1 0 .18l-1.37.91Z"/><path class="cls-28" d="M348 47.12a.1.1 0 0 1-.1-.07.15.15 0 0 1 0-.18l1.38-.9a.1.1 0 0 1 .16.05.15.15 0 0 1 0 .18l-1.38.9ZM350.86 57.53a.11.11 0 0 1-.1-.06.15.15 0 0 1 0-.18l1.38-.91a.12.12 0 0 1 .16 0 .14.14 0 0 1 0 .18l-1.37.91ZM348 55.59a.1.1 0 0 1-.1-.07.15.15 0 0 1 0-.18l1.38-.9a.1.1 0 0 1 .16.05.15.15 0 0 1 0 .18l-1.38.9ZM350.86 66a.11.11 0 0 1-.1-.06.15.15 0 0 1 0-.18l1.38-.91a.12.12 0 0 1 .16.05.14.14 0 0 1 0 .18l-1.37.91ZM348 64.06a.1.1 0 0 1-.1-.07.15.15 0 0 1 0-.18l1.38-.9a.1.1 0 0 1 .16.05.15.15 0 0 1 0 .18L348 64Z"/><path class="cls-28" d="M347.83 61.42V84a.12.12 0 0 0 .12.13.12.12 0 0 0 .12-.13V61.42ZM350.74 63.12v22.79a.12.12 0 1 0 .24 0V63.12Z"/><path class="cls-28" d="M350.86 84.11c-.06 0-2.95-1.92-2.95-1.92a.14.14 0 0 1-.05-.18.12.12 0 0 1 .14-.01l2.9 1.9a.15.15 0 0 1 0 .18.1.1 0 0 1-.04.03ZM350.86 82c-.06 0-2.95-1.92-2.95-1.92a.14.14 0 0 1-.05-.18.11.11 0 0 1 .16 0l2.9 1.9a.15.15 0 0 1 0 .18.12.12 0 0 1-.06.02ZM350.86 79.86c-.06 0-3-1.92-3-1.92a.15.15 0 0 1 0-.18.12.12 0 0 1 .16-.05l2.89 1.9a.14.14 0 0 1 0 .18.1.1 0 0 1-.05.07ZM350.85 77.73c-.05 0-3-1.91-3-1.91a.15.15 0 0 1 0-.18.1.1 0 0 1 .16 0l2.89 1.9a.14.14 0 0 1 0 .18.14.14 0 0 1-.05.01ZM350.85 75.61c-.06 0-3-1.92-3-1.92a.13.13 0 0 1 0-.18.12.12 0 0 1 .16-.05l2.89 1.9a.13.13 0 0 1 0 .18.1.1 0 0 1-.05.07ZM350.85 73.48c-.06 0-3-1.91-3-1.91a.14.14 0 0 1 0-.18c0-.07.11-.09.16 0l2.9 1.9a.13.13 0 0 1 0 .18.11.11 0 0 1-.06.01ZM350.85 71.36c-.06 0-3-1.92-3-1.92a.14.14 0 0 1 0-.18.12.12 0 0 1 .16-.05l2.9 1.9a.15.15 0 0 1 0 .18.12.12 0 0 1-.06.07ZM350.85 69.23c-.06 0-3-1.91-3-1.91a.15.15 0 0 1 0-.18.11.11 0 0 1 .16 0l2.9 1.89a.16.16 0 0 1 0 .19.11.11 0 0 1-.06.01ZM350.84 67.11l-2.95-1.92a.15.15 0 0 1 0-.18.11.11 0 0 1 .11-.01l2.89 1.9a.14.14 0 0 1 .11.1.14.14 0 0 1-.16.11ZM350.84 65c-.06 0-2.95-1.91-2.95-1.91a.15.15 0 0 1 0-.19.11.11 0 0 1 .16 0l2.89 1.89a.14.14 0 0 1 0 .19.11.11 0 0 1-.1.02ZM350.86 66a.11.11 0 0 1-.1-.06.16.16 0 0 1 0-.19l1.38-.9c.05 0 .12 0 .16.05a.14.14 0 0 1 0 .18l-1.37.9a.07.07 0 0 1-.07.02Z"/><path class="cls-28" d="M348 64.06a.12.12 0 0 1-.1-.07.15.15 0 0 1 0-.18l1.38-.9a.11.11 0 0 1 .16 0 .16.16 0 0 1 0 .19L348 64ZM350.86 74.47a.11.11 0 0 1-.1-.06.16.16 0 0 1 0-.19l1.38-.9c.05 0 .12 0 .16.05a.14.14 0 0 1 0 .18l-1.37.9a.07.07 0 0 1-.07.02ZM348 72.53a.12.12 0 0 1-.1-.07.15.15 0 0 1 0-.18l1.38-.9a.11.11 0 0 1 .16 0 .16.16 0 0 1 0 .19l-1.38.9ZM350.86 82.94a.11.11 0 0 1-.1-.06.16.16 0 0 1 0-.19l1.38-.9h.16a.14.14 0 0 1 0 .18l-1.37.9a.07.07 0 0 1-.07.07ZM348 81a.12.12 0 0 1-.1-.07.15.15 0 0 1 0-.18l1.38-.9a.11.11 0 0 1 .16 0 .16.16 0 0 1 0 .19L348 81Z"/><path class="cls-28" d="M347.83 78.36v22.58a.13.13 0 0 0 .12.14.13.13 0 0 0 .12-.14V78.36ZM350.74 80.06v22.79a.12.12 0 1 0 .24 0V80.06Z"/><path class="cls-28" d="M350.86 101.05c-.06 0-2.95-1.91-2.95-1.91a.14.14 0 0 1-.05-.18c0-.07.11-.09.16 0l2.9 1.9a.15.15 0 0 1 0 .18.11.11 0 0 1-.06.01ZM350.86 98.93c-.06 0-2.95-1.92-2.95-1.92a.14.14 0 0 1-.05-.18.12.12 0 0 1 .16 0l2.9 1.9a.15.15 0 0 1 0 .18.12.12 0 0 1-.06.02ZM350.86 96.8c-.06 0-3-1.91-3-1.91a.16.16 0 0 1 0-.19.11.11 0 0 1 .16 0l2.89 1.89a.15.15 0 0 1 0 .19.11.11 0 0 1-.05.02ZM350.85 94.68c-.05 0-3-1.92-3-1.92a.15.15 0 0 1 0-.18.11.11 0 0 1 .16 0l2.89 1.9a.14.14 0 0 1 0 .18.15.15 0 0 1-.05.02ZM350.85 92.55c-.06 0-3-1.91-3-1.91a.14.14 0 0 1 0-.19.11.11 0 0 1 .16 0l2.89 1.89a.14.14 0 0 1 0 .19.11.11 0 0 1-.05.02ZM350.85 90.43c-.06 0-3-1.92-3-1.92a.14.14 0 0 1 0-.18c0-.06.11-.09.16 0l2.9 1.9a.14.14 0 0 1 0 .18.12.12 0 0 1-.06.02ZM350.85 88.3c-.06 0-3-1.91-3-1.91a.15.15 0 0 1 0-.19.12.12 0 0 1 .16 0l2.9 1.9a.16.16 0 0 1 0 .19.11.11 0 0 1-.06.01ZM350.85 86.18c-.06 0-3-1.92-3-1.92a.15.15 0 0 1 0-.18.11.11 0 0 1 .16 0l2.9 1.9a.15.15 0 0 1 0 .18.12.12 0 0 1-.06.02ZM350.84 84.05l-2.95-1.92a.15.15 0 0 1 0-.18.12.12 0 0 1 .16 0l2.89 1.9a.14.14 0 0 1 .06.15.12.12 0 0 1-.16.05ZM350.84 81.93c-.06 0-2.95-1.92-2.95-1.92a.14.14 0 0 1 0-.18.1.1 0 0 1 .16 0l2.89 1.9a.13.13 0 0 1 0 .18.12.12 0 0 1-.1.02ZM350.86 82.94a.11.11 0 0 1-.1-.06.15.15 0 0 1 0-.18l1.38-.91a.12.12 0 0 1 .16 0 .14.14 0 0 1 0 .18l-1.37.91Z"/><path class="cls-28" d="M348 81a.1.1 0 0 1-.1-.07.15.15 0 0 1 0-.18l1.38-.9a.1.1 0 0 1 .16.05.15.15 0 0 1 0 .18L348 81ZM350.86 91.41a.11.11 0 0 1-.1-.06.15.15 0 0 1 0-.18l1.38-.91a.12.12 0 0 1 .16 0 .14.14 0 0 1 0 .18l-1.37.91ZM348 89.47a.1.1 0 0 1-.1-.07.15.15 0 0 1 0-.18l1.38-.9a.1.1 0 0 1 .16.05.15.15 0 0 1 0 .18l-1.38.9ZM350.86 99.88a.11.11 0 0 1-.1-.06.15.15 0 0 1 0-.18l1.38-.91a.12.12 0 0 1 .16 0 .14.14 0 0 1 0 .18l-1.37.91ZM348 97.94a.1.1 0 0 1-.1-.07.15.15 0 0 1 0-.18l1.38-.9a.1.1 0 0 1 .16 0 .15.15 0 0 1 0 .18l-1.38.9Z"/><path class="cls-28" d="M347.83 95.31v22.58a.13.13 0 0 0 .12.13.12.12 0 0 0 .12-.13V95.31ZM350.74 97v22.79a.12.12 0 1 0 .24 0V97Z"/><path class="cls-28" d="M350.86 118c-.06 0-2.95-1.92-2.95-1.92a.14.14 0 0 1-.05-.18c0-.07.11-.09.16-.05l2.9 1.9a.15.15 0 0 1 0 .18.12.12 0 0 1-.06.07ZM350.86 115.87c-.06 0-2.95-1.91-2.95-1.91a.15.15 0 0 1-.05-.19.12.12 0 0 1 .16 0l2.9 1.9a.15.15 0 0 1 0 .18.1.1 0 0 1-.06.02ZM350.86 113.75c-.06 0-3-1.92-3-1.92a.15.15 0 0 1 0-.18.11.11 0 0 1 .16-.05l2.89 1.9a.14.14 0 0 1 0 .18.12.12 0 0 1-.05.07ZM350.85 111.62c-.05 0-3-1.92-3-1.92a.15.15 0 0 1 0-.18.12.12 0 0 1 .16 0l2.89 1.9a.14.14 0 0 1 0 .18.13.13 0 0 1-.05.02ZM350.85 109.49c-.06 0-3-1.91-3-1.91a.13.13 0 0 1 0-.18.1.1 0 0 1 .16-.05l2.89 1.9a.13.13 0 0 1 0 .18.11.11 0 0 1-.05.06ZM350.85 107.37c-.06 0-3-1.92-3-1.92a.14.14 0 0 1 0-.18.12.12 0 0 1 .16 0l2.9 1.9a.14.14 0 0 1 0 .18.1.1 0 0 1-.06.02ZM350.85 105.24c-.06 0-3-1.91-3-1.91a.14.14 0 0 1 0-.18c0-.07.11-.09.16-.05l2.9 1.9a.15.15 0 0 1 0 .18.11.11 0 0 1-.06.06ZM350.85 103.12c-.06 0-3-1.92-3-1.92a.15.15 0 0 1 0-.18.12.12 0 0 1 .16 0l2.9 1.9a.15.15 0 0 1 0 .18.12.12 0 0 1-.06.02ZM350.84 101l-2.95-1.91a.15.15 0 0 1 0-.18.1.1 0 0 1 .16-.05l2.89 1.9a.14.14 0 0 1 .05.18.13.13 0 0 1-.15.06ZM350.84 98.87c-.06 0-2.95-1.92-2.95-1.92a.14.14 0 0 1 0-.18.11.11 0 0 1 .16 0l2.89 1.9a.13.13 0 0 1 0 .18.12.12 0 0 1-.1.02ZM350.86 99.89a.12.12 0 0 1-.1-.07.15.15 0 0 1 0-.18l1.38-.9a.11.11 0 0 1 .16 0 .15.15 0 0 1 0 .19l-1.37.9Z"/><path class="cls-28" d="M348 97.94a.11.11 0 0 1-.1-.06.16.16 0 0 1 0-.19l1.38-.9a.11.11 0 0 1 .16 0 .15.15 0 0 1 0 .18l-1.38.9a.07.07 0 0 1-.06.07ZM350.86 108.36a.12.12 0 0 1-.1-.07.15.15 0 0 1 0-.18l1.38-.9a.11.11 0 0 1 .16 0 .15.15 0 0 1 0 .19l-1.37.9ZM348 106.41a.11.11 0 0 1-.1-.06.16.16 0 0 1 0-.19l1.38-.9a.12.12 0 0 1 .16 0 .15.15 0 0 1 0 .18l-1.38.9a.07.07 0 0 1-.06.07ZM350.86 116.83a.12.12 0 0 1-.1-.07.15.15 0 0 1 0-.18l1.38-.9a.11.11 0 0 1 .16 0 .15.15 0 0 1 0 .19l-1.37.9ZM348 114.88a.11.11 0 0 1-.1-.06.16.16 0 0 1 0-.19l1.38-.9a.12.12 0 0 1 .16 0 .15.15 0 0 1 0 .18l-1.38.9a.07.07 0 0 1-.06.07Z"/><path class="cls-25" d="M377 49.48a52.33 52.33 0 0 1-20.56-4 .16.16 0 0 1-.08-.19.13.13 0 0 1 .17-.08C371.25 51.55 391 50.23 403.4 42c7-4.61 10.81-10.72 10.8-17.22s-3.91-12.7-11-17.34c-14.6-9.57-38.26-9.57-52.76 0-6.59 4.36-10.42 10.13-10.77 16.26-.33 5.59 2.29 11.13 7.38 15.6a.14.14 0 0 1 0 .2.12.12 0 0 1-.17 0c-5.16-4.53-7.82-10.16-7.49-15.85.37-6.23 4.24-12.08 10.9-16.49 14.57-9.61 38.35-9.62 53 0 7.15 4.69 11.1 10.94 11.1 17.59s-3.87 12.81-10.92 17.47-16.78 7.26-26.47 7.26Z"/><path class="cls-25" d="M347 41.56a.13.13 0 0 1-.12-.14v-2a.13.13 0 0 1 .12-.14.13.13 0 0 1 .13.14v2a.13.13 0 0 1-.13.14ZM340.27 31.73a.14.14 0 0 1-.12-.15v-2a.14.14 0 0 1 .12-.15.14.14 0 0 1 .13.15v2a.14.14 0 0 1-.13.15ZM340.27 21.89a.13.13 0 0 1-.12-.14v-2a.13.13 0 0 1 .12-.14.13.13 0 0 1 .13.14v2a.13.13 0 0 1-.13.14ZM345 14a.13.13 0 0 1-.12-.14v-2a.13.13 0 0 1 .12-.14.13.13 0 0 1 .13.14v2a.13.13 0 0 1-.13.14ZM353.79 7.64a.14.14 0 0 1-.13-.15v-2a.14.14 0 0 1 .13-.15.14.14 0 0 1 .12.15v2a.14.14 0 0 1-.12.15ZM365.66 3.5a.13.13 0 0 1-.12-.14v-2a.13.13 0 0 1 .12-.14.13.13 0 0 1 .13.14v2a.13.13 0 0 1-.13.14ZM380.11 2.51a.14.14 0 0 1-.13-.15v-2a.13.13 0 0 1 .13-.14.13.13 0 0 1 .12.14v2a.14.14 0 0 1-.12.15ZM393.09 4.71a.13.13 0 0 1-.13-.14v-2a.13.13 0 1 1 .26 0v2a.13.13 0 0 1-.13.14ZM402.59 9.15a.13.13 0 0 1-.12-.14V7a.13.13 0 0 1 .12-.14.13.13 0 0 1 .13.14v2a.13.13 0 0 1-.13.15ZM411 16.87a.14.14 0 0 1-.13-.15v-2a.14.14 0 0 1 .13-.15.14.14 0 0 1 .12.15v2a.14.14 0 0 1-.12.15ZM414.33 27.91a.13.13 0 0 1-.13-.14v-2a.13.13 0 0 1 .13-.14.13.13 0 0 1 .12.14v2a.13.13 0 0 1-.12.14ZM410.13 38.44a.14.14 0 0 1-.13-.15v-2a.13.13 0 1 1 .26 0v2a.14.14 0 0 1-.13.15ZM399.35 46.68a.14.14 0 0 1-.12-.15v-2a.13.13 0 0 1 .12-.14.13.13 0 0 1 .13.14v2a.14.14 0 0 1-.13.15ZM384.15 51.27a.14.14 0 0 1-.12-.15v-2a.14.14 0 0 1 .12-.15.14.14 0 0 1 .13.15v2a.14.14 0 0 1-.13.15ZM369.62 50.91a.14.14 0 0 1-.13-.15v-2a.13.13 0 1 1 .26 0v2a.14.14 0 0 1-.13.15ZM356.48 47.26a.13.13 0 0 1-.13-.14v-2a.13.13 0 1 1 .26 0v2a.13.13 0 0 1-.13.14Z"/><g class="cls-32"><path class="cls-26" d="M420.35 137.1v1.61a3.38 3.38 0 0 0 1.73 2.76 8.3 8.3 0 0 0 8.42 0 3.46 3.46 0 0 0 1.76-2.8v-1.61a3.39 3.39 0 0 1-1.75 2.79 8.29 8.29 0 0 1-8.43 0 3.38 3.38 0 0 1-1.73-2.75Z"/><path class="cls-28" d="M422.11 134.31c-2.33 1.53-2.35 4 0 5.54a8.29 8.29 0 0 0 8.43 0c2.33-1.53 2.34-4 0-5.54a8.3 8.3 0 0 0-8.43 0Z"/></g><path class="cls-37" d="M423.4 135.4c-1.63.93-1.64 2.45 0 3.38a6.52 6.52 0 0 0 5.87 0c1.62-.94 1.63-2.45 0-3.38a6.5 6.5 0 0 0-5.87 0Z"/><path class="cls-11" d="M423.4 135.4c-1.63.93-1.64 2.45 0 3.38a6.52 6.52 0 0 0 5.87 0c1.62-.94 1.63-2.45 0-3.38a6.5 6.5 0 0 0-5.87 0Z"/><g class="cls-32"><path class="cls-11" d="m408.15 92.16-1.23-.8a2.67 2.67 0 0 0-3 .32 10.93 10.93 0 0 0-4.21 8.29 3.58 3.58 0 0 0 1.29 3.13l1.23.8a3.56 3.56 0 0 1-1.25-3.12 10.9 10.9 0 0 1 4.21-8.29 2.65 2.65 0 0 1 2.96-.33Z"/><path class="cls-26" d="M409.4 95.29c0-3.07-1.89-4.32-4.22-2.8a10.9 10.9 0 0 0-4.21 8.29c0 3.06 1.89 4.31 4.21 2.79a10.87 10.87 0 0 0 4.22-8.28Z"/></g><path class="cls-37" d="M407.92 96c.1-2.06-1.05-2.82-2.56-1.7a8.62 8.62 0 0 0-2.94 5.77c-.1 2.07 1.05 2.83 2.56 1.71a8.58 8.58 0 0 0 2.94-5.78Z"/><path class="cls-11" d="M407.92 96c.1-2.06-1.05-2.82-2.56-1.7a8.62 8.62 0 0 0-2.94 5.77c-.1 2.07 1.05 2.83 2.56 1.71a8.58 8.58 0 0 0 2.94-5.78Z"/><path class="cls-11" d="M422.17 137.09h8.3v-13c0-8.35-5-18.16-11.35-22.33L407.23 94l-4.15 8.16 11.92 7.76c3.84 2.51 7.2 9.13 7.2 14.16Z"/><path class="cls-34" d="M422.17 128.86a2.36 2.36 0 0 0 1.21 1.93 5.77 5.77 0 0 0 5.87 0 2.37 2.37 0 0 0 1.22-1.93v2.83a2.37 2.37 0 0 1-1.22 1.93 5.77 5.77 0 0 1-5.87 0 2.36 2.36 0 0 1-1.21-1.93Z"/><path class="cls-34" d="M422.17 124.48a2.36 2.36 0 0 0 1.21 1.93 5.77 5.77 0 0 0 5.87 0 2.37 2.37 0 0 0 1.22-1.93v2.83a2.37 2.37 0 0 1-1.22 1.93 5.77 5.77 0 0 1-5.87 0 2.36 2.36 0 0 1-1.21-1.93ZM413.65 98.16a1.84 1.84 0 0 0-2.07.22 7.61 7.61 0 0 0-2.94 5.78 2.5 2.5 0 0 0 .86 2.17l-2.15-1.42a2.49 2.49 0 0 1-.86-2.17 7.58 7.58 0 0 1 2.93-5.74 1.86 1.86 0 0 1 2.08-.23Z"/><path class="cls-34" d="M417 100.35a1.84 1.84 0 0 0-2.07.22 7.58 7.58 0 0 0-2.94 5.78 2.51 2.51 0 0 0 .86 2.17l-2.16-1.42a2.49 2.49 0 0 1-.86-2.17 7.62 7.62 0 0 1 2.94-5.78 1.86 1.86 0 0 1 2.07-.22Z"/></g></g></svg>