<svg xmlns="http://www.w3.org/2000/svg" xmlns:xlink="http://www.w3.org/1999/xlink" viewBox="0 0 607.35 398.25"><defs><linearGradient id="Безымянный_градиент_50" x1="109.08" y1="165.87" x2="119.18" y2="165.87" gradientTransform="rotate(49.54 179.306 178.152)" gradientUnits="userSpaceOnUse"><stop offset=".16" stop-color="#a9c3cf"/><stop offset=".16" stop-color="#cbd8e2"/><stop offset=".56" stop-color="#cbd8e2"/><stop offset=".56" stop-color="#dfecf6"/><stop offset=".87" stop-color="#dfecf6"/><stop offset=".87" stop-color="#fcfffe"/></linearGradient><linearGradient id="Безымянный_градиент_50-2" x1="109.08" y1="202.45" x2="119.21" y2="202.45" xlink:href="#Безымянный_градиент_50"/><linearGradient id="Безымянный_градиент_50-3" x1="158.67" y1="159.61" x2="167.04" y2="159.61" gradientTransform="rotate(54.7 221.307 151.61)" xlink:href="#Безымянный_градиент_50"/><linearGradient id="Безымянный_градиент_50-4" x1="159.04" y1="187.99" x2="169.3" y2="187.99" gradientTransform="rotate(54.7 221.307 151.61)" xlink:href="#Безымянный_градиент_50"/><style>.cls-5{fill:#3e312c}.cls-6{fill:#695d59}.cls-7{fill:#1d1715}.cls-8{fill:#dadada}.cls-9{fill:#ededed}.cls-10{fill:#dad1d1}.cls-11{fill:#c6c6c6}.cls-12{fill:#514845}.cls-13{fill:#3f76ab}.cls-14{fill:#305a82}.cls-17{fill:#61a8ed}.cls-18{fill:#4c8fcf}.cls-20{fill:#f39200}.cls-21{fill:#ffb60a}.cls-22{fill:#8fd1cf}.cls-23,.cls-28{fill:#fff}.cls-23{opacity:.5}.cls-25{fill:#3c3c3b}.cls-26{fill:#575756}.cls-27{fill:#ffc734}.cls-30{fill:#5fdced}.cls-32{isolation:isolate}.cls-33{fill:#f6f6f6}.cls-34{fill:#d04158}.cls-36{fill:#539be0}.cls-37{fill:#a62338}.cls-38{fill:#ff4756}.cls-39{fill:#706f6f}.cls-40{fill:#ccc}.cls-41,.cls-46{opacity:.15}.cls-43,.cls-45,.cls-46{fill:#1d1d1b}.cls-43{opacity:.1}.cls-47{fill:#ffbb7d}.cls-53{fill:#cccbd7}.cls-54{fill:#b6b6c6}.cls-58{fill:#f0f0f0}.cls-59{fill:#787878}.cls-60{fill:#adadad}.cls-61{fill:#b5b5b5}.cls-64{fill:#878787}</style></defs><g id="Слой_2" data-name="Слой 2"><g id="Слой_1-2" data-name="Слой 1"><path style="fill:#292929" d="M303.67 373.34 607.35 186.5v24.91L303.66 398.25l.01-24.91z"/><path style="fill:#454545" d="M303.67 373.34 0 186.54v24.91l303.66 186.8.01-24.91z"/><path style="fill:#4f4f4f" d="M0 186.84 303.69 0l303.66 186.81-303.68 186.84L0 186.84z"/><path style="fill:#755f6b" d="M371.27 61.47 98.55 228.63l75.55 46.36L462.55 98.22l-75.08-46.23-16.2 9.48z"/><path class="cls-5" d="m314.36 266.17 55.72-31.68v5.42l-52.18 29.66-3.54-3.4zM295.6 282.81l5.02 2.85 2.55-13.26-7.57-1.11v11.52z"/><path class="cls-6" d="m301.62 285.64 18.17-10.37a2.77 2.77 0 0 0 1.28-2.18v-7.57c0-.81-.57-1.13-1.28-.73l-18.17 10.37a2.77 2.77 0 0 0-1.28 2.18v7.57c0 .8.57 1.09 1.28.73Z"/><path class="cls-5" d="m384.99 225.13 3.07 4.62 6.59 3.74.78-6.15-10.44-2.21z"/><path class="cls-7" d="m385.55 226.18-10.17 17.33 5.29 3.02 10.17-17.34-5.29-3.01z"/><path class="cls-7" d="M387.86 230.89a15.58 15.58 0 0 1-7.2 12.26c-4 2.25-7.19.42-7.18-4.1a15.57 15.57 0 0 1 7.2-12.26c3.97-2.26 7.19-.42 7.18 4.1Z"/><path class="cls-7" d="M382.07 240.14a8.35 8.35 0 0 1 3.85-6.57c2.13-1.21 3.85-.23 3.85 2.19a8.35 8.35 0 0 1-3.85 6.57c-2.13 1.21-3.85.23-3.85-2.19Z"/><path class="cls-7" d="M385.91 246.13a15.57 15.57 0 0 0 7.2-12.26c0-4.52-3.21-6.35-7.18-4.1a15.6 15.6 0 0 0-7.2 12.26c-.01 4.52 3.21 6.36 7.18 4.1Zm0-13.21c2.45-1.39 4.43-.26 4.43 2.52a9.62 9.62 0 0 1-4.43 7.55c-2.45 1.39-4.43.26-4.43-2.53a9.59 9.59 0 0 1 4.44-7.54Z"/><path class="cls-8" d="M385.91 243.75a11 11 0 0 0 5.1-8.69c0-3.2-2.27-4.5-5.09-2.9a11 11 0 0 0-5.09 8.68c-.01 3.16 2.27 4.5 5.08 2.91Zm0-11c2.51-1.43 4.54-.27 4.54 2.58a9.88 9.88 0 0 1-4.54 7.75c-2.51 1.42-4.55.26-4.54-2.59a9.83 9.83 0 0 1 4.55-7.7Z"/><path class="cls-9" d="M385.92 241.5a6.76 6.76 0 0 0 3.12-5.32c0-2-1.39-2.76-3.12-1.78a6.78 6.78 0 0 0-3.12 5.32c0 1.97 1.39 2.76 3.12 1.78Zm0-5.78c1.09-.62 2-.11 2 1.12a4.25 4.25 0 0 1-2 3.34c-1.09.62-2 .12-2-1.11a4.25 4.25 0 0 1 2-3.35Z"/><path class="cls-10" d="M385.92 240.18a4.25 4.25 0 0 0 2-3.34c0-1.23-.87-1.74-2-1.12a4.25 4.25 0 0 0-2 3.35c.08 1.23.91 1.73 2 1.11Zm-.75-.5c-.11.19-.29.29-.4.23s-.11-.27 0-.45.29-.29.4-.23.11.27 0 .45Zm.75-.17c-.09.05-.16 0-.16-.09a.34.34 0 0 1 .16-.28c.09 0 .16 0 .16.09a.36.36 0 0 1-.16.28Zm1.15-.9c-.11.18-.29.28-.4.22s-.11-.26 0-.45.29-.29.4-.22.11.26 0 .45Zm.22-1.43a.34.34 0 0 1-.16.27c-.09.05-.17 0-.17-.09a.37.37 0 0 1 .17-.28c.09-.08.16-.01.16.1Zm-.62-1c.11-.19.29-.29.4-.22s.11.26 0 .45-.29.28-.4.22-.11-.22 0-.41Zm-.75.17c.09 0 .16 0 .16.1a.36.36 0 0 1-.16.28c-.09 0-.16 0-.16-.1a.36.36 0 0 1 .16-.24Zm0 .71c.41-.23.75 0 .75.43a1.64 1.64 0 0 1-.75 1.27c-.41.23-.75 0-.75-.42a1.65 1.65 0 0 1 .75-1.24Zm-1.15.2c.11-.19.29-.29.4-.23s.11.27 0 .45-.29.29-.4.23-.11-.23 0-.41Zm-.06 1.15c.09 0 .17 0 .17.09a.35.35 0 0 1-.17.28c-.09.05-.16 0-.16-.09a.36.36 0 0 1 .16-.24Z"/><path class="cls-11" d="M385.92 240.18a4.25 4.25 0 0 0 2-3.34c0-1.23-.87-1.74-2-1.12a4.25 4.25 0 0 0-2 3.35c.08 1.23.91 1.73 2 1.11Zm-.75-.5c-.11.19-.29.29-.4.23s-.11-.27 0-.45.29-.29.4-.23.11.27 0 .45Zm.75-.17c-.09.05-.16 0-.16-.09a.34.34 0 0 1 .16-.28c.09 0 .16 0 .16.09a.36.36 0 0 1-.16.28Zm1.15-.9c-.11.18-.29.28-.4.22s-.11-.26 0-.45.29-.29.4-.22.11.26 0 .45Zm.22-1.43a.34.34 0 0 1-.16.27c-.09.05-.17 0-.17-.09a.37.37 0 0 1 .17-.28c.09-.08.16-.01.16.1Zm-.62-1c.11-.19.29-.29.4-.22s.11.26 0 .45-.29.28-.4.22-.11-.22 0-.41Zm-.75.17c.09 0 .16 0 .16.1a.36.36 0 0 1-.16.28c-.09 0-.16 0-.16-.1a.36.36 0 0 1 .16-.24Zm0 .71c.41-.23.75 0 .75.43a1.64 1.64 0 0 1-.75 1.27c-.41.23-.75 0-.75-.42a1.65 1.65 0 0 1 .75-1.24Zm-1.15.2c.11-.19.29-.29.4-.23s.11.27 0 .45-.29.29-.4.23-.11-.23 0-.41Zm-.06 1.15c.09 0 .17 0 .17.09a.35.35 0 0 1-.17.28c-.09.05-.16 0-.16-.09a.36.36 0 0 1 .16-.24Z"/><path class="cls-10" d="M385.92 243.12a9.88 9.88 0 0 0 4.54-7.75c0-2.85-2-4-4.54-2.58a9.83 9.83 0 0 0-4.54 7.74c-.01 2.85 2.03 4.01 4.54 2.59Zm-3.11-.8c-.24.29-.53.4-.65.23s0-.54.22-.83.53-.4.65-.23.02.51-.22.83Zm0-2.6a6.78 6.78 0 0 1 3.12-5.32c1.73-1 3.12-.18 3.12 1.78a6.76 6.76 0 0 1-3.12 5.32c-1.74.98-3.13.19-3.13-1.78Zm1.57 3.13c-.14.35-.42.62-.62.61s-.26-.32-.12-.67.41-.62.62-.61.25.32.11.67Zm1.55 0c-.24.13-.43 0-.43-.33a1 1 0 0 1 .43-.82c.23-.13.43 0 .43.33a1 1 0 0 1-.44.86Zm2.17-1.9c-.21.26-.49.3-.63.11a.76.76 0 0 1 .12-.81c.21-.25.49-.3.63-.1a.72.72 0 0 1-.13.85Zm1.58-2.7a.72.72 0 0 1-.64.5c-.24 0-.34-.28-.22-.58a.74.74 0 0 1 .65-.51c.23.07.32.34.2.63Zm.59-2.8a1 1 0 0 1-.5.77c-.28.16-.51.07-.51-.2a1 1 0 0 1 .51-.77c.23-.12.49-.03.49.24Zm-1.27-1.87c.24-.29.53-.39.65-.23s0 .54-.22.84-.53.39-.65.23.01-.54.22-.84Zm-1.56-.53c.14-.35.42-.62.62-.6s.26.32.12.67-.42.62-.62.6-.23-.32-.09-.67Zm-1.55 0c.24-.14.43 0 .43.33a1 1 0 0 1-.43.81c-.23.13-.43 0-.43-.33a1 1 0 0 1 .46-.86Zm-2.17 1.89c.21-.25.49-.3.63-.1a.72.72 0 0 1-.12.8c-.21.26-.49.3-.63.11a.74.74 0 0 1 .15-.84Zm-1.59 2.71a.75.75 0 0 1 .65-.51c.24 0 .34.28.22.58a.75.75 0 0 1-.65.51c-.21-.05-.3-.31-.19-.61Zm-.08 2c.28-.16.51-.07.51.2a1 1 0 0 1-.51.78c-.27.15-.5.06-.5-.21a1 1 0 0 1 .53-.78Z"/><path class="cls-5" d="m368.84 234.31 3.08 4.61 6.58 3.75.78-6.15-10.44-2.21z"/><path class="cls-7" d="m369 235.78-10.17 17.33 5.3 3.01 10.16-17.33-5.29-3.01z"/><path class="cls-7" d="M371.32 240.49a15.65 15.65 0 0 1-7.2 12.26c-4 2.25-7.19.42-7.19-4.1a15.59 15.59 0 0 1 7.2-12.26c3.97-2.26 7.19-.39 7.19 4.1Z"/><path class="cls-7" d="M365.52 249.74a8.35 8.35 0 0 1 3.85-6.57c2.13-1.21 3.85-.23 3.85 2.19a8.35 8.35 0 0 1-3.85 6.57c-2.13 1.21-3.85.23-3.85-2.19Z"/><path class="cls-7" d="M369.37 255.73a15.62 15.62 0 0 0 7.2-12.26c0-4.52-3.22-6.35-7.19-4.1a15.62 15.62 0 0 0-7.2 12.26c0 4.52 3.21 6.37 7.19 4.1Zm0-13.21c2.44-1.39 4.42-.26 4.42 2.52a9.62 9.62 0 0 1-4.43 7.55c-2.45 1.39-4.43.26-4.43-2.53a9.6 9.6 0 0 1 4.45-7.54Z"/><path class="cls-8" d="M369.37 253.35a11.1 11.1 0 0 0 5.1-8.69c0-3.2-2.28-4.5-5.09-2.9a11 11 0 0 0-5.1 8.68c-.01 3.2 2.27 4.5 5.09 2.91Zm0-11c2.51-1.43 4.54-.27 4.54 2.58a9.89 9.89 0 0 1-4.55 7.75c-2.51 1.42-4.54.26-4.54-2.59a9.84 9.84 0 0 1 4.56-7.7Z"/><path class="cls-9" d="M369.37 251.1a6.76 6.76 0 0 0 3.12-5.32c0-2-1.39-2.76-3.12-1.78a6.78 6.78 0 0 0-3.12 5.32c0 1.97 1.39 2.76 3.12 1.78Zm0-5.78c1.09-.62 2-.11 2 1.12a4.25 4.25 0 0 1-2 3.34c-1.08.62-2 .12-2-1.11a4.25 4.25 0 0 1 2-3.35Z"/><path class="cls-10" d="M369.37 249.78a4.25 4.25 0 0 0 2-3.34c0-1.23-.87-1.74-2-1.12a4.25 4.25 0 0 0-2 3.35c.04 1.23.92 1.73 2 1.11Zm-.75-.5c-.11.19-.29.29-.4.23s-.11-.27 0-.45.29-.29.4-.23.11.27 0 .45Zm.75-.17c-.09 0-.16 0-.16-.09a.34.34 0 0 1 .16-.28c.09-.05.16 0 .16.09a.36.36 0 0 1-.16.28Zm1.15-.9c-.11.18-.29.28-.4.22s-.11-.26 0-.45.29-.29.4-.22.11.24 0 .45Zm.22-1.44a.34.34 0 0 1-.16.28c-.09 0-.17 0-.17-.09a.37.37 0 0 1 .17-.28c.09-.05.16-.01.16.09Zm-.62-1c.11-.19.29-.29.4-.23s.11.27 0 .46-.29.28-.4.22-.12-.22 0-.4Zm-.75.17a.11.11 0 0 1 .17.1.37.37 0 0 1-.17.28c-.09 0-.16 0-.16-.1a.36.36 0 0 1 .16-.22Zm0 .71c.41-.23.75 0 .75.43a1.62 1.62 0 0 1-.75 1.27c-.41.23-.75 0-.74-.42a1.64 1.64 0 0 1 .74-1.23Zm-1.15.2c.11-.19.29-.29.4-.23s.11.27 0 .45-.29.29-.4.23-.1-.22 0-.4Zm-.05 1.15c.09-.05.16 0 .16.09a.34.34 0 0 1-.16.28c-.1.05-.17 0-.17-.09a.37.37 0 0 1 .17-.23Z"/><path class="cls-11" d="M369.37 249.78a4.25 4.25 0 0 0 2-3.34c0-1.23-.87-1.74-2-1.12a4.25 4.25 0 0 0-2 3.35c.04 1.23.92 1.73 2 1.11Zm-.75-.5c-.11.19-.29.29-.4.23s-.11-.27 0-.45.29-.29.4-.23.11.27 0 .45Zm.75-.17c-.09 0-.16 0-.16-.09a.34.34 0 0 1 .16-.28c.09-.05.16 0 .16.09a.36.36 0 0 1-.16.28Zm1.15-.9c-.11.18-.29.28-.4.22s-.11-.26 0-.45.29-.29.4-.22.11.24 0 .45Zm.22-1.44a.34.34 0 0 1-.16.28c-.09 0-.17 0-.17-.09a.37.37 0 0 1 .17-.28c.09-.05.16-.01.16.09Zm-.62-1c.11-.19.29-.29.4-.23s.11.27 0 .46-.29.28-.4.22-.12-.22 0-.4Zm-.75.17a.11.11 0 0 1 .17.1.37.37 0 0 1-.17.28c-.09 0-.16 0-.16-.1a.36.36 0 0 1 .16-.22Zm0 .71c.41-.23.75 0 .75.43a1.62 1.62 0 0 1-.75 1.27c-.41.23-.75 0-.74-.42a1.64 1.64 0 0 1 .74-1.23Zm-1.15.2c.11-.19.29-.29.4-.23s.11.27 0 .45-.29.29-.4.23-.1-.22 0-.4Zm-.05 1.15c.09-.05.16 0 .16.09a.34.34 0 0 1-.16.28c-.1.05-.17 0-.17-.09a.37.37 0 0 1 .17-.23Z"/><path class="cls-10" d="M369.37 252.72a9.89 9.89 0 0 0 4.55-7.75c0-2.85-2-4-4.54-2.58a9.84 9.84 0 0 0-4.55 7.74c0 2.87 2.03 4.01 4.54 2.59Zm-3.11-.8c-.24.29-.53.4-.65.23s0-.54.22-.83.53-.4.65-.23.02.54-.22.83Zm0-2.6a6.78 6.78 0 0 1 3.12-5.32c1.73-1 3.13-.18 3.12 1.78a6.76 6.76 0 0 1-3.12 5.32c-1.74.98-3.13.19-3.13-1.78Zm1.57 3.13c-.14.35-.41.62-.62.61s-.26-.32-.12-.67.42-.63.62-.61.29.32.11.67Zm1.55 0c-.24.13-.43 0-.43-.33a1 1 0 0 1 .43-.82c.24-.13.43 0 .43.33a1 1 0 0 1-.44.86Zm2.17-1.9c-.21.26-.49.3-.62.11a.72.72 0 0 1 .12-.81c.2-.25.48-.3.62-.1a.72.72 0 0 1-.13.84Zm1.59-2.7a.74.74 0 0 1-.65.5c-.24 0-.34-.28-.22-.58a.75.75 0 0 1 .65-.51c.23.07.33.33.21.63Zm.58-2.8a1 1 0 0 1-.5.77c-.28.16-.5.07-.5-.2a1 1 0 0 1 .5-.77c.27-.12.49-.03.49.24Zm-1.23-1.91c.24-.29.53-.39.65-.23s0 .54-.22.84-.53.39-.65.23-.03-.5.21-.8Zm-1.56-.53c.14-.35.42-.62.62-.6s.26.32.12.67-.41.62-.62.6-.27-.28-.13-.63Zm-1.54 0c.23-.14.42 0 .42.32a1 1 0 0 1-.43.82c-.23.13-.42 0-.42-.33a1 1 0 0 1 .42-.8Zm-2.17 1.89c.2-.25.48-.3.62-.1a.72.72 0 0 1-.12.8c-.21.26-.49.3-.63.11a.74.74 0 0 1 .12-.8Zm-1.6 2.71a.77.77 0 0 1 .66-.51c.24 0 .33.28.22.58a.75.75 0 0 1-.65.51c-.25-.01-.35-.27-.24-.57Zm-.07 2c.27-.16.5-.07.5.2a1.05 1.05 0 0 1-.5.78c-.28.15-.51.06-.51-.21a1 1 0 0 1 .5-.74Z"/><path class="cls-5" d="m373.25 237.42 1-.58a3.48 3.48 0 0 1 1.22-.44 1.9 1.9 0 0 1 2.25 1.79l.5 2.95v.06l1.41.81c.18-1.07.39-2.09.65-3.07 2-7.38 6.61-12.18 14.3-14.07l-6.71-3.81c-6.48 1.57-11.39 5.61-13.87 13.44a28.82 28.82 0 0 0-.75 2.92Z"/><path class="cls-12" d="m379.67 242 2.22-1.26.26-1.82.45-3.18v-.26a8.87 8.87 0 0 1 2.47-4.56 6.52 6.52 0 0 1 1.3-1l4-2.28a3.73 3.73 0 0 1 1.22-.45 1.91 1.91 0 0 1 2.25 1.79l.5 3 .26 1.52 2.23-1.27-.3-1.76v-.15l-.5-3a3.82 3.82 0 0 0-1-2.08c-1-1.08-2.76-1.17-4.66-.09l-4 2.28a12.73 12.73 0 0 0-4.82 5.48 12.07 12.07 0 0 0-1.13 3.49l-.49 3.48Z"/><path class="cls-5" d="M371.75 230.23c-7.45 1.81-17.62 4.5-19.62 14.83l11.39 6.12c1.43-9.12 6.23-15 14.94-17.13Z"/><path class="cls-12" d="m363.52 251.19 2.22-1.27.26-1.81.45-3.19v-.25a8.77 8.77 0 0 1 2.48-4.56 6.25 6.25 0 0 1 1.29-1l3-1.7 1-.58a3.48 3.48 0 0 1 1.22-.44 1.9 1.9 0 0 1 2.25 1.79l.5 2.95v.06l.25 1.47 1.16-.66 1.07-.61-.3-1.76v-.16l-.09-.54-.41-2.41a3.85 3.85 0 0 0-1-2.09c-1-1.08-2.76-1.17-4.66-.08l-.24.14-3.77 2.13a12.87 12.87 0 0 0-4.83 5.48 12.41 12.41 0 0 0-1.12 3.5l-.49 3.47Z"/><path class="cls-12" d="m279.04 286.92 114.63-65.45v1.85l-114.63 65.44-42.41-24.13 1.62-.93 40.79 23.22z"/><path class="cls-6" d="m393.67 221.47-114.63 65.45-40.79-23.22-1.62-.91 114.61-65.44 42.43 24.12z"/><ellipse class="cls-13" cx="383.27" cy="193.31" rx="18.12" ry="31.14" transform="rotate(-30.79 383.21 193.31)"/><path class="cls-13" d="m264.5 224.94 102.33-58.17 31.55 53.78-102.34 58.17-31.54-53.78z"/><ellipse class="cls-14" cx="280.28" cy="251.85" rx="18.12" ry="31.14" transform="rotate(-30.79 280.243 251.83)"/><path class="cls-14" d="m278.34 217.07 5.53-3.14v.06c4-2.29 9.59-2 15.75 1.52s11.73 9.5 15.76 16.37 6.52 14.63 6.52 21.63-2.5 11.89-6.53 14.18l-5.61 3.21a13.23 13.23 0 0 0 6.51-1.68 12.94 12.94 0 0 0 4.73-4.71 21.17 21.17 0 0 0 2.67-11c0-7.08-2.4-15.07-6.75-22.5s-10.19-13.47-16.41-17a21.89 21.89 0 0 0-11.14-3.22 13.15 13.15 0 0 0-6.39 1.68 12.89 12.89 0 0 0-4.64 4.6Z"/><path class="cls-14" d="m284.29 213.69 5.52-3.14v.06c4-2.29 9.59-2 15.74 1.52s11.74 9.5 15.77 16.37 6.52 14.63 6.52 21.63-2.5 11.89-6.53 14.18l-5.61 3.21a13.16 13.16 0 0 0 6.5-1.68 12.9 12.9 0 0 0 4.74-4.71 21.17 21.17 0 0 0 2.67-11c0-7.08-2.4-15.07-6.76-22.5s-10.18-13.47-16.41-17a21.86 21.86 0 0 0-11.13-3.22 13.09 13.09 0 0 0-6.39 1.68 12.81 12.81 0 0 0-4.63 4.6ZM336.3 184.13l5.52-3.14v.06c4-2.29 9.6-2 15.75 1.52s11.74 9.5 15.77 16.37 6.51 14.63 6.51 21.63-2.5 11.89-6.52 14.18l-5.62 3.21a13.23 13.23 0 0 0 6.51-1.68 13 13 0 0 0 4.74-4.71 21.19 21.19 0 0 0 2.67-11c0-7.07-2.4-15.06-6.76-22.49s-10.19-13.47-16.41-17a21.89 21.89 0 0 0-11.14-3.22 13.08 13.08 0 0 0-6.38 1.68 12.81 12.81 0 0 0-4.64 4.59Z"/><path class="cls-14" d="m342.24 180.75 5.53-3.14v.06c4-2.29 9.59-2 15.75 1.52s11.73 9.5 15.76 16.37 6.52 14.63 6.52 21.63-2.5 11.89-6.53 14.18l-5.61 3.21a13.23 13.23 0 0 0 6.51-1.68 12.94 12.94 0 0 0 4.73-4.71 21.17 21.17 0 0 0 2.67-11c0-7.08-2.4-15.07-6.75-22.5s-10.19-13.47-16.41-17a21.89 21.89 0 0 0-11.14-3.22 13.15 13.15 0 0 0-6.39 1.68 12.89 12.89 0 0 0-4.64 4.6Z"/><path style="fill:#f59d00" d="M323.95 194.93h21.81v3.48h-21.81z"/><path class="cls-14" d="M327.14 194c-4.26 2.42-4.26 6.34 0 8.76a17.28 17.28 0 0 0 15.42 0c4.26-2.42 4.26-6.34 0-8.76a17.28 17.28 0 0 0-15.42 0Z"/><path d="M327.14 190.55c-4.26 2.42-4.26 6.34 0 8.76a17.28 17.28 0 0 0 15.42 0c4.26-2.42 4.26-6.34 0-8.76a17.28 17.28 0 0 0-15.42 0Z" style="fill:#f9bf57"/><path class="cls-17" d="M321.64 191.59h26.43v2.73h-26.43z"/><path class="cls-17" d="M325.51 189c-5.17 2.94-5.17 7.69 0 10.63s13.53 2.93 18.69 0 5.16-7.69 0-10.63-13.53-2.92-18.69 0Z"/><path class="cls-18" d="M325.51 185.92c-5.17 2.93-5.17 7.69 0 10.62s13.53 2.93 18.69 0 5.16-7.69 0-10.62-13.53-2.92-18.69 0Z"/><path class="cls-18" d="M321.66 191.87a3 3 0 0 1 0-.42c.1-4.72 6.1-8.49 13.4-8.42s13.13 3.94 13 8.66v.18Z"/><path class="cls-5" d="m288.23 280.05 3.08 4.61 6.58 3.75.79-6.15-10.45-2.21z"/><path class="cls-7" d="m288.73 281.25-10.16 17.33 5.29 3.02 10.17-17.34-5.3-3.01z"/><path class="cls-7" d="M291.05 286a15.57 15.57 0 0 1-7.2 12.26c-4 2.25-7.19.42-7.18-4.1a15.58 15.58 0 0 1 7.19-12.26c3.98-2.29 7.2-.46 7.19 4.1Z"/><path class="cls-7" d="M285.26 295.21a8.35 8.35 0 0 1 3.85-6.57c2.13-1.21 3.85-.22 3.85 2.19a8.35 8.35 0 0 1-3.85 6.57c-2.11 1.21-3.85.23-3.85-2.19Z"/><path class="cls-7" d="M289.1 301.2a15.57 15.57 0 0 0 7.2-12.26c0-4.52-3.21-6.35-7.19-4.1a15.61 15.61 0 0 0-7.19 12.26c-.01 4.52 3.21 6.36 7.18 4.1Zm0-13.21c2.45-1.39 4.43-.26 4.43 2.52a9.61 9.61 0 0 1-4.44 7.55c-2.44 1.39-4.42.26-4.42-2.52a9.59 9.59 0 0 1 4.44-7.54Z"/><path class="cls-8" d="M289.1 298.82a11 11 0 0 0 5.1-8.69c0-3.2-2.27-4.5-5.09-2.9a11.08 11.08 0 0 0-5.1 8.68c-.01 3.2 2.28 4.5 5.09 2.91Zm0-11c2.51-1.43 4.54-.27 4.54 2.58a9.85 9.85 0 0 1-4.55 7.75c-2.5 1.42-4.54.26-4.53-2.59a9.83 9.83 0 0 1 4.55-7.7Z"/><path class="cls-9" d="M289.11 296.57a6.76 6.76 0 0 0 3.12-5.32c0-2-1.39-2.76-3.12-1.78a6.78 6.78 0 0 0-3.11 5.33c0 1.96 1.38 2.75 3.11 1.77Zm0-5.78c1.08-.61 2-.11 2 1.12a4.25 4.25 0 0 1-2 3.34c-1.09.62-2 .12-2-1.11a4.27 4.27 0 0 1 2-3.35Z"/><path class="cls-10" d="M289.11 295.25a4.25 4.25 0 0 0 2-3.34c0-1.23-.88-1.73-2-1.12a4.27 4.27 0 0 0-2 3.35c.03 1.23.89 1.73 2 1.11Zm-.75-.49c-.11.18-.29.28-.4.22s-.11-.26 0-.45.29-.29.4-.23.11.27 0 .46Zm.75-.18c-.09.05-.17 0-.17-.09a.37.37 0 0 1 .17-.28c.09 0 .16 0 .16.09a.34.34 0 0 1-.16.28Zm1.15-.9c-.11.19-.29.28-.4.22s-.11-.26 0-.45.29-.29.4-.22.11.26 0 .45Zm.22-1.43a.38.38 0 0 1-.17.28c-.08.05-.16 0-.16-.1a.37.37 0 0 1 .17-.28c.08-.05.16-.01.16.1Zm-.62-1c.11-.19.29-.29.4-.22s.11.26 0 .45-.29.28-.4.22-.11-.22 0-.41Zm-.75.17c.09 0 .16 0 .16.1a.36.36 0 0 1-.16.28c-.09.05-.16 0-.16-.1a.37.37 0 0 1 .16-.24Zm0 .72c.41-.24.74-.05.74.42a1.6 1.6 0 0 1-.74 1.27c-.41.24-.75.05-.75-.42a1.62 1.62 0 0 1 .75-1.23Zm-1.15.19c.11-.19.29-.29.4-.23s.11.27 0 .46-.29.28-.4.22-.11-.22.04-.41Zm-.06 1.15c.09 0 .17 0 .17.09a.35.35 0 0 1-.17.28c-.09.05-.16 0-.16-.09a.36.36 0 0 1 .16-.24Z"/><path class="cls-11" d="M289.11 295.25a4.25 4.25 0 0 0 2-3.34c0-1.23-.88-1.73-2-1.12a4.27 4.27 0 0 0-2 3.35c.03 1.23.89 1.73 2 1.11Zm-.75-.49c-.11.18-.29.28-.4.22s-.11-.26 0-.45.29-.29.4-.23.11.27 0 .46Zm.75-.18c-.09.05-.17 0-.17-.09a.37.37 0 0 1 .17-.28c.09 0 .16 0 .16.09a.34.34 0 0 1-.16.28Zm1.15-.9c-.11.19-.29.28-.4.22s-.11-.26 0-.45.29-.29.4-.22.11.26 0 .45Zm.22-1.43a.38.38 0 0 1-.17.28c-.08.05-.16 0-.16-.1a.37.37 0 0 1 .17-.28c.08-.05.16-.01.16.1Zm-.62-1c.11-.19.29-.29.4-.22s.11.26 0 .45-.29.28-.4.22-.11-.22 0-.41Zm-.75.17c.09 0 .16 0 .16.1a.36.36 0 0 1-.16.28c-.09.05-.16 0-.16-.1a.37.37 0 0 1 .16-.24Zm0 .72c.41-.24.74-.05.74.42a1.6 1.6 0 0 1-.74 1.27c-.41.24-.75.05-.75-.42a1.62 1.62 0 0 1 .75-1.23Zm-1.15.19c.11-.19.29-.29.4-.23s.11.27 0 .46-.29.28-.4.22-.11-.22.04-.41Zm-.06 1.15c.09 0 .17 0 .17.09a.35.35 0 0 1-.17.28c-.09.05-.16 0-.16-.09a.36.36 0 0 1 .16-.24Z"/><path class="cls-10" d="M289.1 298.19a9.85 9.85 0 0 0 4.55-7.75c0-2.85-2-4-4.54-2.58a9.83 9.83 0 0 0-4.54 7.74c-.01 2.85 2.03 4.01 4.53 2.59Zm-3.1-.8c-.24.29-.53.4-.65.23s0-.54.22-.83.53-.4.65-.23.02.54-.22.83Zm0-2.59a6.78 6.78 0 0 1 3.12-5.33c1.73-1 3.12-.18 3.12 1.78a6.76 6.76 0 0 1-3.12 5.32c-1.74.98-3.12.19-3.12-1.77Zm1.57 3.12c-.14.35-.42.62-.62.61s-.26-.32-.12-.67.41-.62.62-.61.25.32.11.67Zm1.54 0c-.23.13-.42 0-.42-.33a1 1 0 0 1 .43-.81c.23-.14.42 0 .42.32a1 1 0 0 1-.44.9Zm2.18-1.9c-.21.26-.49.3-.63.11a.74.74 0 0 1 .12-.81c.21-.25.49-.3.63-.1a.74.74 0 0 1-.13.84Zm1.58-2.7a.74.74 0 0 1-.65.51c-.24 0-.33-.29-.21-.59a.72.72 0 0 1 .65-.5c.23.06.34.32.2.62Zm.59-2.8a1 1 0 0 1-.5.77c-.28.16-.51.07-.51-.2a1 1 0 0 1 .51-.77c.26-.12.49-.03.49.24Zm-1.23-1.9c.24-.3.53-.4.65-.24s0 .54-.22.84-.53.39-.65.23-.01-.45.21-.79Zm-1.56-.54c.14-.35.42-.62.62-.6s.26.32.12.67-.42.62-.62.6-.27-.28-.13-.63Zm-1.55 0c.24-.13.43 0 .43.33a1 1 0 0 1-.43.81c-.24.14-.43 0-.43-.33a1 1 0 0 1 .42-.8Zm-2.18 1.92c.21-.25.49-.3.63-.1a.74.74 0 0 1-.13.81c-.2.25-.48.29-.62.1a.74.74 0 0 1 .12-.81Zm-1.59 2.71a.75.75 0 0 1 .65-.51c.24 0 .34.28.22.59a.74.74 0 0 1-.65.5c-.24-.04-.34-.29-.22-.6Zm-.08 2c.28-.16.5-.07.5.21a1 1 0 0 1-.5.77c-.27.16-.5.06-.5-.2a1 1 0 0 1 .5-.78Z"/><path style="fill:#e75c5b" d="m234.16 280.92-.51.86 1.37.77.5-.86-1.36-.77z"/><path class="cls-6" d="m234.28 277.46 12.35-7v-.16a12.39 12.39 0 0 1 1.12-3.48 12.77 12.77 0 0 1 4.83-5.49l4-2.27c1.9-1.09 3.61-1 4.66.08a3.89 3.89 0 0 1 1 2.09l.5 3v.16l.31 1.76-.88 2-1.35-.76-.26-1.53-.5-2.95a1.91 1.91 0 0 0-2.25-1.79 3.45 3.45 0 0 0-1.22.45l-4 2.27a7 7 0 0 0-1.3 1 8.83 8.83 0 0 0-2.47 4.56v.26l-.45 3.18-.26 1.81-2.23 1.27-9.34 5.3c-1.55.88-3.14 1.14-3.14 0V279a2 2 0 0 1 .88-1.54Z"/><path class="cls-6" d="m235.63 278.22 12.35-7v-.15a12.35 12.35 0 0 1 1.12-3.49 12.75 12.75 0 0 1 4.83-5.48l4-2.28c1.91-1.08 3.62-1 4.66.09a3.82 3.82 0 0 1 1 2.09l.51 2.94v.17l.31 1.76-2.23 1.26-.26-1.52-.51-3a1.91 1.91 0 0 0-2.24-1.79 3.7 3.7 0 0 0-1.23.45l-4 2.28a6.31 6.31 0 0 0-1.3 1 8.76 8.76 0 0 0-2.47 4.56 1.45 1.45 0 0 0 0 .25l-.46 3.18-.26 1.82-2.22 1.26-9.34 5.31c-1.55.88-3.14 1.13-3.14 0v-2.16a2 2 0 0 1 .88-1.55Z"/><path class="cls-20" d="m236.06 267.93.76 14.8 34.51 19.6-.77-14.79-34.5-19.61z"/><path class="cls-21" d="m296.78 247.77-34.42-19.56a2.09 2.09 0 0 0-2.06.2l-17.74 10.09a6.53 6.53 0 0 0-3 5.16v1L274 264.25Z"/><path class="cls-21" d="M274.8 264.69 258 254.36l-18.47-9.71a6.15 6.15 0 0 0-.45 1.48l-.22 1.38 34.5 19.61Z"/><path class="cls-21" d="M270.54 298.88V288.8a48.91 48.91 0 0 1 .63-7.66l2.41-15.4a6.53 6.53 0 0 1 2.91-4.38L294.75 251c1.64-.94 3-2.22 3-.36v.16l-5.68 3.2v28.66l-3.36 1.91a10 10 0 0 0-4.46 6.78l-.73 5.13-10 5.7c-1.64.93-3 .17-3-1.7Z"/><path class="cls-20" d="M292.07 281.65V254l5.65-3.21v30.86h-5.65zM277.06 258.11 294.8 248c1.61-.91 2.92-.17 2.92 1.66v1.11L274 264.25v-1a6.57 6.57 0 0 1 3.06-5.14Z"/><path class="cls-22" d="m236.05 267.93 34.51 19.61 2.88-1.64a2 2 0 0 0 .91-1.54V267.6c0-.57-.41-.8-.91-.52h-.06l-34.51-19.61c-1.04 4.23-2.81 14.53-2.82 20.46Z"/><path class="cls-23" d="m237.71 267.68-.6-.34a112.46 112.46 0 0 1 2.47-18.23l16.37 9.3a21 21 0 0 0-18.24 9.27Z"/><path class="cls-20" d="M283.29 287.9a4.66 4.66 0 0 1-1.81 2.12l-3.66 2.08c-.93.53-1.68.1-1.68-1v-23.32a4.3 4.3 0 0 1 2-3.39l8.74-5c1.1-.62 2-.12 2 1.13v18.76a5.68 5.68 0 0 1-2 4 12.47 12.47 0 0 0-3.59 4.62Z"/><path class="cls-22" d="m278.22 278.53 8-6.19a5.34 5.34 0 0 0 2-3.84v-7.58c0-.84-.6-1.18-1.34-.76l-8.74 5a2.9 2.9 0 0 0-1.34 2.28V278c-.01.84.67 1.1 1.42.53Z"/><path class="cls-23" d="M277.84 267.41a1.86 1.86 0 0 1 .81-1.38l5.31-3c-2.27 3.28-2.95 7.53-2.75 11.89l-3.37 2.61Z"/><path class="cls-7" d="M285.22 274.57c0 .24.17.34.38.22l1.4-.79a.87.87 0 0 0 .39-.66c0-.25-.18-.35-.39-.22l-1.43.81a.83.83 0 0 0-.38.66ZM293.67 254.82c0 .22.15.31.35.2l2.37-1.35a.77.77 0 0 0 .35-.6c0-.22-.16-.31-.35-.2l-2.39 1.34a.75.75 0 0 0-.35.61ZM293.67 256.3c0 .22.15.31.35.2l2.37-1.35a.77.77 0 0 0 .35-.6c0-.22-.16-.31-.35-.2L294 255.7a.75.75 0 0 0-.35.6ZM293.67 257.78c0 .22.15.31.35.2l2.37-1.34a.78.78 0 0 0 .35-.61c0-.22-.16-.31-.35-.2l-2.39 1.35a.75.75 0 0 0-.35.6ZM293.67 259.27c0 .22.15.31.35.2l2.37-1.35a.77.77 0 0 0 .35-.6c0-.22-.16-.31-.35-.2l-2.39 1.34a.77.77 0 0 0-.35.61ZM293.67 260.75c0 .22.15.31.35.2l2.37-1.35a.77.77 0 0 0 .35-.6c0-.22-.16-.31-.35-.2l-2.39 1.35a.75.75 0 0 0-.35.6ZM293.67 262.23c0 .23.15.32.35.2l2.37-1.34a.77.77 0 0 0 .35-.6c0-.23-.16-.32-.35-.21l-2.39 1.35a.75.75 0 0 0-.35.6ZM293.67 263.72c0 .22.15.31.35.2l2.37-1.35a.77.77 0 0 0 .35-.6c0-.22-.16-.31-.35-.2l-2.39 1.35a.75.75 0 0 0-.35.6Z"/><path class="cls-6" d="m269.87 301.21-.51.86 1.36.78.51-.86-1.36-.78z"/><path class="cls-6" d="M269.08 299.3v2.15c0 .69.56.88 1.34.73a6.09 6.09 0 0 0 1.8-.71l9.34-5.31 2.22-1.26.26-1.82.46-3.18a1.45 1.45 0 0 1 0-.25 8.37 8.37 0 0 1 1-2.76 9 9 0 0 1 1.42-1.81 6.34 6.34 0 0 1 1.3-1l4-2.28a3.55 3.55 0 0 1 1.22-.44 1.81 1.81 0 0 1 1.86.74 1.94 1.94 0 0 1 1.74 1.81l.5 2.95.26 1.53.89-2-.31-1.76v-.16l-.51-3a3.88 3.88 0 0 0-1-2.08c-1.05-1.08-2.76-1.17-4.67-.09l-4 2.28a13.53 13.53 0 0 0-6 9v.15l-12.35 7a2 2 0 0 0-.77 1.57Z"/><path class="cls-12" d="M270.42 300.06v2.16c0 1.15 1.6.9 3.14 0l9.35-5.3 2.22-1.26.26-1.82.45-3.18v-.26a8.88 8.88 0 0 1 2.48-4.56 6.62 6.62 0 0 1 1.29-1l4-2.27a3.73 3.73 0 0 1 1.22-.45 2.22 2.22 0 0 1 .51 0 1.94 1.94 0 0 1 1.74 1.81l.5 2.95.26 1.53 2.23-1.27-.3-1.76v-.16l-.5-3a3.82 3.82 0 0 0-1-2.08 2.64 2.64 0 0 0-1.34-.77 4.6 4.6 0 0 0-3.32.68l-4 2.28a12.4 12.4 0 0 0-4.25 4.4c-.21.35-.4.71-.57 1.07a12.54 12.54 0 0 0-1.13 3.5v.15l-12.35 7a2 2 0 0 0-.89 1.61Z"/><path class="cls-6" d="M236.18 277.91c-2.25-.64-2.34 1.64-2.4 3.94l35.58 20.23 1.18-4.64Z"/><g style="opacity:.2"><path class="cls-25" d="M245.65 265.31a6.29 6.29 0 0 0 2.94 5 3 3 0 0 0 1.45.42 2 2 0 0 0 2-2.19 1.34 1.34 0 0 0 0-.2 6.28 6.28 0 0 0-2.94-5 2.94 2.94 0 0 0-1.45-.43 1.92 1.92 0 0 0-1.88 1.49 3.16 3.16 0 0 0-.12.91Zm1 0a2.21 2.21 0 0 1 .08-.63.9.9 0 0 1 .88-.74 2 2 0 0 1 .94.29 5.45 5.45 0 0 1 2.39 3.71 2.93 2.93 0 0 1 0 .41c0 .42-.1 1.37-1 1.37a1.91 1.91 0 0 1-.94-.29 5.31 5.31 0 0 1-2.31-4.12Z"/><path class="cls-26" d="m236.06 267.93 34.5 19.61 2.88-1.64a2 2 0 0 0 .91-1.54v-2.24c-7.06-4.7-22.29-13.3-22.33-13.32-.94-2.43-6.07-4.69-8.16-3.27a17.32 17.32 0 0 0-3.39-.25s-4.22 2.41-4.41 2.65Z"/></g><path class="cls-20" d="M264.79 282.19c0 .69.42 1 1 .7a.53.53 0 0 0 .28-.43l.19-5.55c0-.17-.1-.24-.24-.17h-.07a2.15 2.15 0 0 0-1.06 1.69Z"/><path class="cls-20" d="m266.19 276.73-.99 6.26 2.29 1.3 1.08-6.21-2.38-1.35z"/><path class="cls-21" d="M267.15 283.53c0 .69.42 1 1 .7a.53.53 0 0 0 .28-.43l.19-5.55c0-.16-.1-.24-.24-.17h-.07a2.17 2.17 0 0 0-1.06 1.7Z"/><path class="cls-20" d="m272.76 264.1-3.05 1.73a7.7 7.7 0 0 0-2.71 2.85 6.42 6.42 0 0 0-.82 3.49l.16 5.21 1.16.66.27-1.3v-5.11a4.53 4.53 0 0 1 1.9-3.57l2.49-1.64 1.74-1.66Z"/><path class="cls-21" d="m273.92 264.76-3.05 1.73a7.7 7.7 0 0 0-2.71 2.85 6.42 6.42 0 0 0-.82 3.49l.16 5.21.49-.28.18-5.5a5.54 5.54 0 0 1 2.35-3.84l2.82-1.34Z"/><path class="cls-20" d="M231.55 263.18c0 .69.42 1 1 .7a.53.53 0 0 0 .28-.43l.19-5.55c0-.16-.1-.24-.24-.17h-.07a2.18 2.18 0 0 0-1.06 1.7Z"/><path class="cls-20" d="m232.95 257.72-.99 6.27 2.29 1.3 1.08-6.22-2.38-1.35z"/><path class="cls-21" d="M233.91 264.52c0 .69.42 1 1 .7a.53.53 0 0 0 .28-.43l.19-5.55c0-.16-.1-.24-.24-.17h-.07a2.18 2.18 0 0 0-1.06 1.7Z"/><path class="cls-20" d="m239.52 245.09-3.05 1.74a7.62 7.62 0 0 0-2.71 2.85 6.38 6.38 0 0 0-.82 3.49l.16 5.2 1.16.66.27-1.29v-5.12a4.55 4.55 0 0 1 1.9-3.57l2.49-1.63 1.74-1.67Z"/><path class="cls-21" d="m240.68 245.75-3.05 1.73a7.7 7.7 0 0 0-2.71 2.85 6.42 6.42 0 0 0-.82 3.49l.16 5.21.49-.28.18-5.5a5.56 5.56 0 0 1 2.35-3.84l2.82-1.33Z"/><path class="cls-27" d="m242.9 277.61-4.9-2.78a.88.88 0 0 1-.4-.68V271c0-.26.18-.36.4-.23l4.88 2.78a.86.86 0 0 1 .4.68v3.16c.02.24-.16.34-.38.22Z"/><path class="cls-28" d="M243.08 277.87a.55.55 0 0 1-.29-.08l-4.88-2.79a1.05 1.05 0 0 1-.51-.86V271a.47.47 0 0 1 .73-.42l4.88 2.78a1.07 1.07 0 0 1 .51.87v3.16a.45.45 0 0 1-.44.48Zm0-.42Zm-5.24-6.53a.24.24 0 0 0 0 .07v3.16a.63.63 0 0 0 .3.49l4.88 2.78h.07a.35.35 0 0 0 0-.07v-3.16a.65.65 0 0 0-.3-.5l-4.88-2.78Z"/><path class="cls-27" d="m268.43 292.09-4.89-2.78a.88.88 0 0 1-.4-.68v-3.16c0-.26.18-.36.4-.23l4.89 2.78a.86.86 0 0 1 .4.68v3.16c0 .25-.18.35-.4.23Z"/><path class="cls-28" d="M268.61 292.35a.51.51 0 0 1-.29-.08l-4.89-2.78a1.05 1.05 0 0 1-.51-.86v-3.16a.47.47 0 0 1 .73-.42l4.89 2.78a1.08 1.08 0 0 1 .5.87v3.16a.44.44 0 0 1-.43.49Zm0-.42Zm-5.24-6.53a.24.24 0 0 0 0 .07v3.16a.65.65 0 0 0 .29.49l4.89 2.78h.06a.35.35 0 0 0 0-.07v-3.13a.67.67 0 0 0-.29-.5l-4.89-2.78ZM240.74 279.13l-2.74-1.52a.88.88 0 0 1-.4-.68v-1c0-.25.18-.35.4-.23l2.72 1.52a.88.88 0 0 1 .4.68v1c.02.26-.12.36-.38.23ZM268.43 294.85l-2.73-1.53a.86.86 0 0 1-.4-.68v-1c0-.25.18-.35.4-.22l2.73 1.52a.86.86 0 0 1 .4.68v1c0 .25-.18.38-.4.23Z"/><path class="cls-7" d="M258.68 283.09c0 .2-.14.29-.32.18l-11.18-6.36a.71.71 0 0 1-.33-.56c0-.2.15-.28.33-.18l11.18 6.37a.69.69 0 0 1 .32.55ZM258.68 284.35c0 .2-.14.28-.32.18l-11.18-6.37a.7.7 0 0 1-.33-.55c0-.2.15-.29.33-.18l11.18 6.36a.7.7 0 0 1 .32.56ZM258.68 285.6c0 .21-.14.29-.32.19l-11.18-6.37a.7.7 0 0 1-.33-.55c0-.21.15-.29.33-.19l11.18 6.37a.69.69 0 0 1 .32.55ZM258.68 286.86c0 .2-.14.28-.32.18l-11.18-6.37a.7.7 0 0 1-.33-.55c0-.2.15-.29.33-.18l11.18 6.36a.71.71 0 0 1 .32.56ZM258.68 288.11c0 .21-.14.29-.32.19l-11.18-6.37a.7.7 0 0 1-.33-.55c0-.21.15-.29.33-.19l11.18 6.37a.69.69 0 0 1 .32.55Z"/><path d="m271.63 236.44-9.33-5.34a2 2 0 0 0-2 0l-20.07 10.84c11.77-5.56 22.43-8.1 31.4-5.5Z" style="opacity:.25;fill:#fff"/><path class="cls-28" d="M363.44 227.07c0 6.15-4.38 13.63-9.79 16.7s-9.79.58-9.79-5.57 4.38-13.62 9.79-16.69 9.79-.58 9.79 5.56Z"/><path class="cls-30" d="M354.25 223.82s-4.63 9.35-4.63 14.32c0 3.23 2.07 4.08 4.63 2.63a9.57 9.57 0 0 0 4.62-7.89c0-4.97-4.62-9.06-4.62-9.06Z"/><path d="M354.6 224.16a15.7 15.7 0 0 1 2.59 8 10.3 10.3 0 0 1-4.62 8.64 5 5 0 0 1-1.39.54 3.66 3.66 0 0 0 3.07-.53 9.57 9.57 0 0 0 4.62-7.89c0-4.17-3.19-7.69-4.27-8.76Z" style="opacity:.05"/><path class="cls-28" d="M352.08 236.89a3 3 0 0 1-.9 2.34c-.5.28-.91-.3-.91-1.31a3 3 0 0 1 .91-2.34c.5-.29.9.3.9 1.31Z"/><g class="cls-32"><path class="cls-25" d="M444.33 167.78v2a4.25 4.25 0 0 0 2.35 3.48 12 12 0 0 0 11.45 0 4.26 4.26 0 0 0 2.39-3.53v-2a4.3 4.3 0 0 1-2.39 3.53 12 12 0 0 1-11.45 0 4.27 4.27 0 0 1-2.35-3.48Z"/><path class="cls-28" d="M446.72 164.24c-3.17 1.94-3.18 5.08 0 7a12 12 0 0 0 11.45 0c3.17-1.94 3.19-5.08 0-7a12 12 0 0 0-11.45 0Z"/></g><path class="cls-33" d="M459.27 159a6.85 6.85 0 1 1-6.86-7.22 7.06 7.06 0 0 1 6.86 7.22Z"/><g class="cls-32"><path class="cls-11" d="M445.59 159v7.85a3.62 3.62 0 0 0 2 2.94 10.14 10.14 0 0 0 9.68 0 3.63 3.63 0 0 0 2-3V159a3.62 3.62 0 0 1-2 3 10.12 10.12 0 0 1-9.67 0 3.58 3.58 0 0 1-2.01-3Z"/></g><path class="cls-34" d="M445.59 160.3a3.59 3.59 0 0 0 2 3 10.14 10.14 0 0 0 9.68 0 3.63 3.63 0 0 0 2-3v.78a3.66 3.66 0 0 1-2 3 10.16 10.16 0 0 1-9.68 0 3.62 3.62 0 0 1-2-3Z"/><path class="cls-26" d="m419.55 203.91 62.31 38.08 77.69-47.47v-5.41l-62.32-32.67-77.68 42.06v5.41z"/><path class="cls-33" d="m419.55 198.5 62.31 38.08 77.69-47.47-62.32-38.08-77.68 47.47z"/><path class="cls-25" d="m478.76 165.18 2.09 1.27 55.54 33.94 16.38-10.01 2.08-1.27-57.62-35.21-18.47 11.28zM424.24 198.5l2.08 1.27 55.54 33.94 16.38-10.01 2.08-1.27-57.62-35.21-18.46 11.28zM485.38 210.62l2.08 1.27 15.05 9.2 29.6-18.09 2.09-1.27-17.13-10.47-31.69 19.36zM444.89 185.88l2.09 1.27 15.05 9.2 29.6-18.09 2.08-1.27-17.14-10.47-31.68 19.36zM464.61 197.93l2.08 1.27 16.11 9.84 29.6-18.09 2.08-1.27-18.18-11.11-31.69 19.36z"/><path class="cls-13" d="m480.85 166.45 55.54 33.94 16.38-10.01-55.54-33.94-16.38 10.01z"/><path style="fill:#48c8d9" d="m426.32 199.77 55.54 33.94 16.38-10.01-55.54-33.94-16.38 10.01z"/><path class="cls-36" d="m487.46 211.89 15.05 9.2 29.6-18.09-15.04-9.19-29.61 18.08zM446.98 187.15l15.05 9.2 29.6-18.09-15.06-9.2-29.59 18.09z"/><path class="cls-13" d="m466.69 199.2 16.11 9.84 29.6-18.09-16.1-9.84-29.61 18.09z"/><g class="cls-32"><path class="cls-8" d="m470.9 179.39.05 13.28 20.5 12.6-.05-13.27-20.5-12.61z"/><path class="cls-26" d="m491.4 192 .05 13.27 16.74-10.22-.05-13.28L491.4 192z"/><path class="cls-33" d="M470.9 179.39 491.4 192l16.74-10.23-20.5-12.61-16.74 10.23z"/></g><path class="cls-36" d="M486.27 193.23v4.82l-12.47-7.63v-4.82l1.33.81 6.42 3.93 1.36.84.25.15.35.21Z"/><path class="cls-25" d="M486.25 196.41v1.64l-12.48-7.62 1.34-.83 11.14 6.81z"/><path class="cls-25" d="m475.13 186.41-.02 3.19-1.34.83.02-4.83 1.34.81z"/><path class="cls-37" d="M464.83 177.89c-.57.3-.57.79 0 1.09a2.38 2.38 0 0 0 2.05 0c.56-.3.57-.79 0-1.09a2.42 2.42 0 0 0-2.05 0Z"/><path class="cls-28" d="M464.83 177.89c-.57.3-.57.79 0 1.09a2.38 2.38 0 0 0 2.05 0c.56-.3.57-.79 0-1.09a2.42 2.42 0 0 0-2.05 0Z"/><g class="cls-32"><path class="cls-28" d="m459.51 163.84-.43-.26a1 1 0 0 0-1 .11 3.47 3.47 0 0 0-1.47 2.69 1.14 1.14 0 0 0 .44 1l.42.26a1.16 1.16 0 0 1-.43-1 3.47 3.47 0 0 1 1.47-2.69 1 1 0 0 1 1-.11Z"/><path class="cls-25" d="M460 164.86c0-1-.66-1.4-1.47-.91a3.47 3.47 0 0 0-1.47 2.69c0 1 .66 1.4 1.47.91a3.47 3.47 0 0 0 1.47-2.69Z"/></g><path class="cls-37" d="M459.43 165.09c0-.67-.36-.92-.89-.55a2.68 2.68 0 0 0-1 1.87c0 .68.36.92.89.56a2.73 2.73 0 0 0 1-1.88Z"/><path class="cls-28" d="M459.43 165.09c0-.67-.36-.92-.89-.55a2.68 2.68 0 0 0-1 1.87c0 .68.36.92.89.56a2.73 2.73 0 0 0 1-1.88Z"/><path class="cls-28" d="M464.4 178.44h2.9v-4.23a9.23 9.23 0 0 0-4-7.25l-4.15-2.54-1.45 2.66 4.15 2.53a6.14 6.14 0 0 1 2.51 4.6Z"/><path class="cls-37" d="M464.4 175.76a.76.76 0 0 0 .42.63 2.13 2.13 0 0 0 2.05 0 .8.8 0 0 0 .43-.63v.92a.8.8 0 0 1-.43.63 2.13 2.13 0 0 1-2.05 0 .76.76 0 0 1-.42-.63Z"/><path class="cls-37" d="M464.4 174.34a.76.76 0 0 0 .42.63 2.19 2.19 0 0 0 2.05 0 .8.8 0 0 0 .43-.63v.92a.81.81 0 0 1-.43.63 2.19 2.19 0 0 1-2.05 0 .77.77 0 0 1-.42-.63ZM461.43 165.79a.69.69 0 0 0-.72.07 2.43 2.43 0 0 0-1 1.88.81.81 0 0 0 .3.71l-.75-.46a.81.81 0 0 1-.3-.71 2.43 2.43 0 0 1 1-1.88.69.69 0 0 1 .72-.07Z"/><path class="cls-37" d="M462.59 166.5a.67.67 0 0 0-.72.08 2.42 2.42 0 0 0-1 1.87.79.79 0 0 0 .3.71l-.75-.46a.79.79 0 0 1-.3-.71 2.39 2.39 0 0 1 1-1.87.67.67 0 0 1 .72-.08Z"/><path class="cls-8" d="M509.07 203c-.54.29-.55.76 0 1.06a2.34 2.34 0 0 0 2 0c.55-.3.55-.77 0-1.06a2.33 2.33 0 0 0-2 0Z"/><g class="cls-32"><path class="cls-8" d="m503.94 189.44-.42-.25a.94.94 0 0 0-1 .11 3.31 3.31 0 0 0-1.42 2.59 1.1 1.1 0 0 0 .42 1l.41.25a1.09 1.09 0 0 1-.42-1 3.35 3.35 0 0 1 1.42-2.6 1 1 0 0 1 1.01-.1Z"/><path class="cls-28" d="M504.36 190.42c0-1-.64-1.35-1.42-.87a3.35 3.35 0 0 0-1.42 2.6c0 1 .64 1.35 1.42.87a3.34 3.34 0 0 0 1.42-2.6Z"/></g><path class="cls-8" d="M503.86 190.65c0-.65-.35-.89-.86-.53a2.62 2.62 0 0 0-1 1.81c0 .64.35.88.86.53a2.62 2.62 0 0 0 1-1.81Z"/><path class="cls-8" d="M508.66 203.54h2.8v-4.08a8.93 8.93 0 0 0-3.83-7l-4-2.45-1.4 2.57 4 2.44a5.94 5.94 0 0 1 2.42 4.45Z"/><path class="cls-38" d="M508.66 201a.73.73 0 0 0 .41.61 2 2 0 0 0 2 0 .77.77 0 0 0 .42-.61v.89a.77.77 0 0 1-.42.61 2.08 2.08 0 0 1-2 0 .73.73 0 0 1-.41-.61Z"/><path class="cls-38" d="M508.66 199.58a.73.73 0 0 0 .41.61 2.08 2.08 0 0 0 2 0 .77.77 0 0 0 .42-.61v.89a.77.77 0 0 1-.42.61 2.08 2.08 0 0 1-2 0 .73.73 0 0 1-.41-.61ZM505.79 191.33a.65.65 0 0 0-.7.07 2.34 2.34 0 0 0-1 1.81.78.78 0 0 0 .28.68l-.72-.45a.75.75 0 0 1-.29-.68 2.32 2.32 0 0 1 1-1.81.68.68 0 0 1 .7-.07Z"/><path class="cls-38" d="M506.92 192a.68.68 0 0 0-.7.07 2.32 2.32 0 0 0-1 1.81.75.75 0 0 0 .29.68l-.73-.44a.76.76 0 0 1-.29-.68 2.32 2.32 0 0 1 1-1.81.65.65 0 0 1 .7-.07Z"/><path class="cls-8" d="M505.42 205.26c-.54.29-.55.76 0 1.06a2.34 2.34 0 0 0 2 0c.55-.3.56-.77 0-1.06a2.36 2.36 0 0 0-2 0Z"/><g class="cls-32"><path class="cls-8" d="m500.29 191.7-.41-.26a1 1 0 0 0-1 .11 3.33 3.33 0 0 0-1.42 2.6 1.09 1.09 0 0 0 .42 1l.41.25a1.09 1.09 0 0 1-.42-1 3.35 3.35 0 0 1 1.42-2.6.93.93 0 0 1 1-.1Z"/><path class="cls-28" d="M500.71 192.68c0-1-.64-1.36-1.42-.88a3.35 3.35 0 0 0-1.42 2.6c0 1 .64 1.35 1.42.88a3.37 3.37 0 0 0 1.42-2.6Z"/></g><path class="cls-8" d="M500.21 192.9c0-.65-.35-.89-.86-.53a2.65 2.65 0 0 0-1 1.81c0 .65.35.89.86.53a2.58 2.58 0 0 0 1-1.81Z"/><path class="cls-8" d="M505 205.79h2.8v-4.08a9 9 0 0 0-3.82-7l-4-2.44-1.4 2.56 4 2.44a5.94 5.94 0 0 1 2.42 4.45Z"/><path class="cls-38" d="M505 203.21a.74.74 0 0 0 .41.6 2 2 0 0 0 2 0 .73.73 0 0 0 .42-.6v.88a.75.75 0 0 1-.42.61 2.08 2.08 0 0 1-2 0 .75.75 0 0 1-.41-.61Z"/><path class="cls-38" d="M505 201.83a.75.75 0 0 0 .41.61 2.08 2.08 0 0 0 2 0 .75.75 0 0 0 .42-.61v.89a.75.75 0 0 1-.42.61 2.08 2.08 0 0 1-2 0 .75.75 0 0 1-.41-.61ZM502.14 193.58a.64.64 0 0 0-.69.07 2.32 2.32 0 0 0-1 1.81.76.76 0 0 0 .29.68l-.73-.44a.78.78 0 0 1-.29-.69 2.33 2.33 0 0 1 1-1.81.68.68 0 0 1 .7-.07Z"/><path class="cls-38" d="M503.27 194.26a.68.68 0 0 0-.7.07 2.33 2.33 0 0 0-1 1.81.77.77 0 0 0 .29.69l-.73-.45a.75.75 0 0 1-.29-.68 2.35 2.35 0 0 1 1-1.81.65.65 0 0 1 .7-.07Z"/><g class="cls-32"><path class="cls-26" d="m483.08 179.67 4.93-3.03.02-1.64v-1.57l-4.93 3.04v1.51l-.02 1.69z"/><path class="cls-39" d="M479.06 174.01v3.21l4.02 2.45.02-1.69v-1.51l-4.04-2.46z"/><path class="cls-40" d="m488.02 173.44-4.93 3.03-4.02-2.46 4.93-3.03 4.02 2.46z"/></g><path class="cls-41" d="M479.06 174.07v1.49l4 2.47 4.93-3v-1.57l-4.93 3Z"/><path class="cls-26" d="M488.87 172.09v1.71l-5.87 3.61v-1.71l5.87-3.61z"/><path class="cls-39" d="M483 175.7v1.71l-4.79-2.93v-1.71l4.79 2.93z"/><path class="cls-8" d="m478.21 172.78 4.79 2.92 5.87-3.61-1-.61-3.79-2.32-3.39 2.09-2.48 1.53z"/><g class="cls-32"><path class="cls-26" d="m493.94 186.68 4.93-3.03.02-1.64v-1.57l-4.93 3.04v1.51l-.02 1.69z"/><path class="cls-39" d="M489.93 181.02v3.21l4.01 2.45.02-1.69v-1.51l-4.03-2.46z"/><path class="cls-40" d="m498.88 180.45-4.93 3.03-4.02-2.46 4.93-3.03 4.02 2.46z"/></g><path class="cls-41" d="M489.92 181.08v1.5l4 2.47 4.93-3v-1.55l-4.93 3Z"/><path class="cls-26" d="M499.73 179.11v1.7l-5.87 3.61v-1.7l5.87-3.61z"/><path class="cls-39" d="M493.86 182.72v1.7l-4.79-2.92v-1.71l4.79 2.93z"/><path class="cls-8" d="m489.07 179.79 4.79 2.93 5.87-3.61-1-.62-3.79-2.31-3.39 2.09-2.48 1.52z"/><g class="cls-32"><path class="cls-25" d="M537.35 172.58v1a2.12 2.12 0 0 0 1.17 1.73 6 6 0 0 0 5.71 0 2.14 2.14 0 0 0 1.19-1.76v-1a2.16 2.16 0 0 1-1.2 1.76 6 6 0 0 1-5.7 0 2.12 2.12 0 0 1-1.17-1.73Z"/><path class="cls-28" d="M538.54 170.82c-1.58 1-1.59 2.53 0 3.5a6 6 0 0 0 5.7 0c1.59-1 1.59-2.53 0-3.5a6 6 0 0 0-5.7 0Z"/></g><path class="cls-8" d="M526.37 180.23h4.1V177a8.08 8.08 0 0 1 3.31-6.07l4.29-2.63c.64-.39 1-.34 1-.32a1.63 1.63 0 0 1 .25 1.09v3.21h4.09v-3.21a5.42 5.42 0 0 0-2.29-4.84 4.8 4.8 0 0 0-5.11.32l-4.3 2.62a12.52 12.52 0 0 0-5.36 9.83Z"/><path class="cls-8" d="M539.94 171.41a1 1 0 0 0 0 1.77 3 3 0 0 0 2.9 0 1 1 0 0 0 0-1.77 3 3 0 0 0-2.9 0ZM527 179.34a1 1 0 0 0 0 1.77 3 3 0 0 0 2.89 0 1 1 0 0 0 0-1.77 3 3 0 0 0-2.89 0Z"/><g class="cls-32"><path class="cls-25" d="M520.35 161.54v1a2.12 2.12 0 0 0 1.17 1.73 6 6 0 0 0 5.71 0 2.14 2.14 0 0 0 1.19-1.76v-1a2.16 2.16 0 0 1-1.2 1.76 6 6 0 0 1-5.7 0 2.12 2.12 0 0 1-1.17-1.73Z"/><path class="cls-28" d="M521.54 159.78c-1.58 1-1.59 2.53 0 3.5a6 6 0 0 0 5.7 0c1.59-1 1.59-2.53 0-3.5a6 6 0 0 0-5.7 0Z"/></g><path class="cls-8" d="M509.37 169.19h4.1V166a8.08 8.08 0 0 1 3.31-6.07l4.29-2.63c.64-.39 1-.34 1-.32a1.63 1.63 0 0 1 .25 1.09v3.21h4.09v-3.21a5.42 5.42 0 0 0-2.29-4.84 4.8 4.8 0 0 0-5.11.32l-4.3 2.62a12.52 12.52 0 0 0-5.36 9.83Z"/><path class="cls-8" d="M522.94 160.37a1 1 0 0 0 0 1.77 3 3 0 0 0 2.9 0 1 1 0 0 0 0-1.77 3 3 0 0 0-2.9 0ZM510 168.3a1 1 0 0 0 0 1.77 3 3 0 0 0 2.89 0 1 1 0 0 0 0-1.77 3 3 0 0 0-2.89 0Z"/><g class="cls-32"><path class="cls-25" d="M424.37 216.5v1.38a2.87 2.87 0 0 0 1.58 2.35 8.11 8.11 0 0 0 7.74 0 2.91 2.91 0 0 0 1.62-2.38v-1.38a2.88 2.88 0 0 1-1.61 2.39 8.14 8.14 0 0 1-7.74 0 2.89 2.89 0 0 1-1.59-2.36Z"/><path class="cls-28" d="M426 214.11c-2.15 1.31-2.16 3.44 0 4.75a8.14 8.14 0 0 0 7.74 0c2.14-1.32 2.15-3.44 0-4.75a8.09 8.09 0 0 0-7.74 0Z"/></g><path class="cls-26" d="M427.07 216.18h5.55v-4.36a11 11 0 0 1 4.49-8.23l5.83-3.56c.87-.53 1.33-.47 1.38-.44s.33.43.33 1.48v4.36h5.56v-4.36c0-3-1.13-5.36-3.11-6.57s-4.5-1.05-6.93.44l-5.84 3.56c-4.07 2.49-7.26 8.34-7.26 13.32Z"/><path class="cls-26" d="M445.47 204.21a1.3 1.3 0 0 0 0 2.41 4.09 4.09 0 0 0 3.93 0 1.3 1.3 0 0 0 0-2.41 4.15 4.15 0 0 0-3.93 0ZM427.89 215a1.3 1.3 0 0 0 0 2.41 4.12 4.12 0 0 0 3.93 0 1.3 1.3 0 0 0 0-2.41 4.15 4.15 0 0 0-3.93 0Z"/><g class="cls-32"><path class="cls-26" d="M449.67 152.64v.67a1.43 1.43 0 0 0 .78 1.15 4 4 0 0 0 3.78 0 1.41 1.41 0 0 0 .78-1.17v-.67a1.41 1.41 0 0 1-.79 1.16 3.94 3.94 0 0 1-3.77 0 1.39 1.39 0 0 1-.78-1.14Z"/><path class="cls-8" d="M450.46 151.47a1.25 1.25 0 0 0 0 2.31 3.94 3.94 0 0 0 3.77 0 1.24 1.24 0 0 0 0-2.31 4 4 0 0 0-3.77 0Z"/></g><path class="cls-26" d="M451 151.93c-.73.39-.73 1 0 1.4a3.1 3.1 0 0 0 2.63 0c.73-.38.73-1 0-1.4a3.1 3.1 0 0 0-2.63 0Z"/><path class="cls-26" d="M451 151.93c-.73.39-.73 1 0 1.4a3.1 3.1 0 0 0 2.63 0c.73-.38.73-1 0-1.4a3.1 3.1 0 0 0-2.63 0Z"/><g class="cls-32"><path class="cls-39" d="m447.31 135.81-4.48-2.68a1.27 1.27 0 0 0-1.33.13 4.46 4.46 0 0 0-1.89 3.46 1.44 1.44 0 0 0 .56 1.31l4.48 2.68a1.45 1.45 0 0 1-.55-1.3A4.45 4.45 0 0 1 446 136a1.25 1.25 0 0 1 1.31-.19Z"/><path class="cls-8" d="M447.87 137.11c0-1.27-.84-1.8-1.89-1.16a4.45 4.45 0 0 0-1.88 3.46c0 1.28.84 1.8 1.88 1.17a4.47 4.47 0 0 0 1.89-3.47Z"/></g><path class="cls-37" d="M447.21 137.42c.05-.87-.47-1.19-1.15-.72a3.49 3.49 0 0 0-1.31 2.41c-.05.87.46 1.19 1.14.72a3.54 3.54 0 0 0 1.32-2.41Z"/><path class="cls-26" d="M447.21 137.42c.05-.87-.47-1.19-1.15-.72a3.49 3.49 0 0 0-1.31 2.41c-.05.87.46 1.19 1.14.72a3.54 3.54 0 0 0 1.32-2.41Z"/><path class="cls-26" d="M450.49 152.63h3.72v-5.43a11.88 11.88 0 0 0-5.09-9.32l-2.22-1.32L445 140l2.22 1.32a7.89 7.89 0 0 1 3.23 5.91Z"/><path d="M450.49 149.19a1 1 0 0 0 .54.81 2.73 2.73 0 0 0 2.63 0 1 1 0 0 0 .55-.81v1.19a1 1 0 0 1-.55.8 2.73 2.73 0 0 1-2.63 0 1 1 0 0 1-.54-.8Z" style="fill:#7befff"/><path class="cls-9" d="M405.92 29.72c-5.84-.75-11.12-1.57-14.35-1.6h-.6l-5-8.38a22.94 22.94 0 0 1 8.29.55l8.42 3.23-1.11-5.4h3.51a10.31 10.31 0 0 1 2.4 3 26.87 26.87 0 0 1 1.91 4.15c.52 2.19-.59 4.45-3.47 4.45Z"/><path class="cls-43" d="M405.92 29.72c-5.84-.75-11.12-1.57-14.35-1.6l.78-3.35c3.36 2.68 8.52 4 14.51 3.57 2.3-1.12 1.73-4 .67-7.24a26.87 26.87 0 0 1 1.91 4.15c.47 2.21-.64 4.47-3.52 4.47Z"/><path d="m377.07 34-2.13 65.12c4.48-7 11-8.8 19.29-5.91l1.69-34.64-2.16-10.46-.69-12.76Z" style="fill:#9d9d9c"/><path class="cls-45" d="M374.39 16.69s-6 5.66-2.53 13.12 8.08-6.5 8.08-6.5ZM384.81 108.07c-.41.93-.2 2.12 0 3.77a4.78 4.78 0 0 0 3.44 2.64c2.31 1.51 3.24 4.09 6.17 4.84 3.35.85 5.38-.27 5.12-2-.46-3-4.36-4.28-6.22-7.7l-1.68-3.42h-6Z"/><path class="cls-14" d="m380.45 66.18 4.1 18.82c-1.22 4.25.79 15-.73 23.7.29 3.76 9.64 3.92 9.77 1-.39-9 .64-16.84 1.56-24.1 2.74-7.15 2-22.9-3.29-36.11l-10.78 4.79Z"/><path class="cls-45" d="M370.25 114c-.95 1.13-1.08 4.67-.58 5.31 2.4 2.28 5.69 6.85 12.26 6.53 2.66-.43 3.4-1.54 2.4-3.28s-4.35-3.56-5.79-6.86l-1.66-2.89Z"/><path class="cls-13" d="M393.07 52.68a24.64 24.64 0 0 1-2.26 7.77c-1.74 3.55-4.3 6.23-7.29 6.57-.34 10.78.64 21.84-2.82 25.81-2 8.66-3 17-1.5 23.67-1.59 2.22-7.57 2-9.35-.6a2.7 2.7 0 0 1-.42-.93c-.55-11.54-2.57-20.54 2-26.85l-2.95-20.49c-1.59-7.25-.2-11 4.18-14.49q.8-.63 1.71-1.26l18.18-.63Z"/><path class="cls-20" d="M398.07 40.23c0 2.23-2.47 4.26-5.53 3.91 0 2.14-.77 5.14 0 7.11-1.24 2.57-2.91 4.55-6.21 5.28s-9.9.11-13.68-3.39c.63-4-.94-9.08-2.57-13.36-1.26-3.3-2.56-6.12-2.91-7.54A47.59 47.59 0 0 1 377.7 24c3.87-2.32 5.65-5.26 10.07-3.84s4.93 9 6.56 12 3.73 4.97 3.74 8.07Z"/><path class="cls-46" d="M376.76 66.69c-2.63 8.36-3 14.09-.42 23.43-5.48 6.36-5.66 14.42-5.48 26.06l-1-.28a2.7 2.7 0 0 1-.42-.93c-.55-11.54-2.57-20.54 2-26.85l-2.95-20.49c-1.59-7.25-.2-11 4.18-14.49.63-4-.94-9.08-2.57-13.36l4-.88 4.34 6c3.38 4.9 12.15 3.93 12.51-1.07l1.6.39c0 2.09-.77 5.09 0 7.06l.53 1.43a24.64 24.64 0 0 1-2.26 7.77c-2.64 6.04-7.09 8.58-14.06 6.21Z"/><path class="cls-9" d="M383.24 101.84a32.4 32.4 0 0 1-10.65-2.06c-3.94-1.62-6.56-4.16-7.18-7.64 2.64-8.74 2.25-19.44 1.75-31.07-.57-8.9 5.84-12.84 2.5-23.18a32.79 32.79 0 0 0-2.5-5.65c1.87-2.36 6.41-5.7 10-9.42-1.75 4.82.89 11.29 5.5 17.2a38.69 38.69 0 0 1 2.93 8.06l.07.29c.22 1 .42 1.94.59 2.93 2.57 15.47-2.09 33.38-3.01 50.54Z"/><path class="cls-9" d="M399.39 88.49c-1.11 4.21-1.68 8.26-6.32 9.16-2.19-17.59.8-28.82 1-41.77V49.83l-.06-.91c-.09-1.2-.22-2.42-.37-3.67l-.15-1.07a79.17 79.17 0 0 0-2-9.67 43.63 43.63 0 0 0-9.65-13.38c3.42-2.73 8.53-1.62 11.1 1.4-.78 8.52 4 10.77 5.38 16.62a3.79 3.79 0 0 1-1 3.61 4.67 4.67 0 0 1-1.83 1.09h-.06l-.09 6.51c1.55 3.21 2.06 7.65 2.3 12.76.18 7.63-.03 16.64 1.75 25.37Z"/><path class="cls-47" d="M406.86 20.35a.85.85 0 0 1-.09.38c.11.46-.06.65-.58.5a2.68 2.68 0 0 1-1.17-.72l-1.69-1.83-2.95-1.46a3.44 3.44 0 0 1 3.91-.69 4.25 4.25 0 0 1 1.48 1.28c.49.77 1 1.44.88 1.93a1 1 0 0 1 .21.59Z"/><path class="cls-46" d="M406.86 20.35a.85.85 0 0 1-.09.38c.11.46-.06.65-.58.5a2.68 2.68 0 0 1-1.17-.72l-1.69-1.83-2.95-1.46a1.8 1.8 0 0 1 2.64-.38c.42-.38 1.3-.19 1.46-.22.15.32.34 2.25.54 2.56a3.5 3.5 0 0 0 .87.95c.38.25.7.44 1 .2Z"/><path class="cls-47" d="m401.15 15.26-1.41 1.19-.36 1.68c0 .64.94.58 1.26 0l.51-1 1.15-.7.77.29-.17.92-.94.92c-.34.42.21.83.64.57l1.67-1 .21-2.1c-.65-.6-2-.68-3.33-.77Z"/><path class="cls-43" d="m386.36 51.25-.34-1c-3.76-.47-7.27-.36-10.14 1.15-5.77 3.43-6.07 12.45-5.09 19-2.06 11.29-2.37 22.49 1.8 29.42-3.94-1.62-6.56-4.16-7.18-7.64 2.64-8.74 2.25-19.44 1.75-31.07-.57-8.9 5.84-12.84 2.5-23.18l2-2.2c4.27 5.58 6.32 13.36 13.93 12.39l.07.29Z"/><path class="cls-9" d="M367.14 32.27a39.25 39.25 0 0 0-6.33 18.39c-1 5 .07 14 2.69 18.75.65-.68 1.81-1 3.64-.81.43-6.63.94-13.07 0-16.51L373 41.15c4-7.5-2.59-12.45-5.86-8.88Z"/><path class="cls-47" d="M374.22 73.76a1.2 1.2 0 0 1-1.24-.14c-1-.87-2-1.56-3.31-1.17a1.83 1.83 0 0 0-.11 1.43V74a20.42 20.42 0 0 0 2.31 4.43.44.44 0 0 1-.13.59.9.9 0 0 1-.9 0c.05.45-.63.62-1.08.21l-.67-.64c-.08.52-.79.38-1 0l-1.28-1.36a10.51 10.51 0 0 1-2.21-2.57c-.08-.14-.17-.28-.25-.43a13.09 13.09 0 0 1-.88-4.84c.44-1.34 1.83-1.53 3.64-.81l2.15 1c2 .85 3 2.06 5.19 3.57.21.18.06.46-.23.61Z"/><path class="cls-41" d="M371.78 79a.9.9 0 0 1-.9 0c.05.45-.63.62-1.08.21l-.67-.64c-.08.52-.79.38-1 0l-1.28-1.36a10.51 10.51 0 0 1-2.21-2.57 4.31 4.31 0 0 0 3.23-.38c.92 1.9 2.6 4.41 3.91 4.74ZM374.21 73.76a1.18 1.18 0 0 1-1.23-.14c-1-.87-2-1.56-3.31-1.17a1.83 1.83 0 0 0-.11 1.43l-.54-2c2.4-.46 4.06 1.49 5.19 1.88Z"/><path class="cls-43" d="M395.31 43.85a8 8 0 0 0 1.83-1.09 4.67 4.67 0 0 1-1.83 1.09ZM397.46 63.14c-.85-3.19-1.85-6-3.42-7.26V49.83c0-.19 0-.61-.06-.91-.09-1.24-.21-2.46-.37-3.67l-.15-1.07a4.39 4.39 0 0 0 1.94-.31l-.09 6.51c1.4 3.21 1.91 7.62 2.15 12.76Z"/><path class="cls-8" d="M381.22 21.28a50.61 50.61 0 0 1 11.54 19.61l-1.61-13.4-2.4.48 1.2-1.54-7.65-5.67Z"/><path class="cls-47" d="M378.19 19.1c-.58 1.73-1.09 4.13-1.84 5.91-.44 2 3.95 6.09 6.87 5.91 2.07-.35 2-3.81 2.33-5.91Z"/><path class="cls-8" d="M377.12 22.82c-2.9 1.91-3.16 5.94-2.21 11h2.56l-2.1 1.9c3.88 1.9 7 6.74 10.06 11.93-1.43-10.83-10.59-19.48-8.31-24.83Z"/><path class="cls-43" d="M378.61 19.09c0 5.9 3.22 14.35 7.41 12.91 3-1 0-5.34 0-9.39Z"/><path class="cls-47" d="M378.88 21.86c2.06 2.22 4.3 4.12 7.95 3.67 1.35-.17 2.6-1.9 2.5-8.85a10.83 10.83 0 0 0-2.76-6.41c-1.78-1.86-4.84-2.56-7.76-2-4.13.81-6.13 3.55-5.64 7 .94 4.73 3.29 6.44 5.71 6.59Z"/><path class="cls-25" d="M377.51 21.43a3.23 3.23 0 0 0 1.75-1.28 7.7 7.7 0 0 0 1.1-3.84c3.77-.33 7.77-2.7 7.77-3.8-.18-1.5-1.25-2.88-4.47-4a8.87 8.87 0 0 0-9.32 2c-4 3.73-.38 10.31 3 11.5Z"/><path class="cls-45" d="M389.84 15.55c-.34-.76-1.07.34-2 1.16a1 1 0 0 0-.31.55 1.44 1.44 0 0 0-.79.51c-.09-.14-.51 0-.66.05-1.29.67-2.92.92-2.93 1.86 0 2.21 4.4 1.45 3.72-1.61V18a1 1 0 0 1 .63-.41v.08c.25 1.61 1.45 1.3 2.16.27a2.71 2.71 0 0 0 .18-2.39Zm-3.43 4.25a2.1 2.1 0 0 1-1.23.87 1.69 1.69 0 0 1-1.45-.16 1 1 0 0 1-.42-.86c0-.46.59-.73 1.56-1.11.41-.16.83-.37 1.25-.55s.48 0 .53.15a2.13 2.13 0 0 1-.24 1.66Zm3.12-2.07a1.86 1.86 0 0 1-1 .85c-.62.17-.9-.53-.92-1.15a.81.81 0 0 1 .26-.58c.26-.21.51-.44.74-.66.38-.36.56-.59.79-.65.08 0 .16 0 .22.12a2.46 2.46 0 0 1-.09 2.07Z"/><path class="cls-45" d="m383.25 19.75-5.79.12-.13-.24 6.01-.31-.09.43z"/><path class="cls-47" d="M378.36 20.55a3.86 3.86 0 0 0-.9-.95 2.13 2.13 0 0 0-1.32-.41 1.12 1.12 0 0 0-.37.09.71.71 0 0 0-.4.63 1.45 1.45 0 0 0 .2.72 3.37 3.37 0 0 0 .93 1.17 2.53 2.53 0 0 0 1.49.54 1 1 0 0 0 .61-.16.59.59 0 0 0 .23-.37 1.65 1.65 0 0 0-.47-1.26Z"/><path d="M404.77 26.8a7.73 7.73 0 0 1-6.08 0c-1.07-.53-1.46-1.27-1.17-2a2.46 2.46 0 0 1 1.17-1.06 7.73 7.73 0 0 1 6.08 0 2.51 2.51 0 0 1 1.1.94 1 1 0 0 1 .09.21c.23.7-.17 1.4-1.19 1.91Z" style="fill:#9d9d9c;opacity:.2"/><path d="M404.77 26.8a7.73 7.73 0 0 1-6.08 0c-1.07-.53-1.46-1.27-1.17-2l3-6.74v-2.61c.23-.73 2.18-.8 2.35 0v2.65l3 6.62.09.21c.23.66-.17 1.36-1.19 1.87Z" style="opacity:.5;fill:#dadada"/><path d="m405.74 25-1.56-3.48h-4.91l-1.5 3.34v.07c-.24.61.15 1.24 1.07 1.69a7.41 7.41 0 0 0 5.84 0c.85-.44 1.25-1.03 1.06-1.62Z" style="fill:#3480a7"/><path class="cls-11" d="M402.62 15a2.32 2.32 0 0 0-1.79 0 .6.6 0 0 0-.4.5.44.44 0 0 0 .12.3.89.89 0 0 0 .28.21 2.32 2.32 0 0 0 1.79 0 .79.79 0 0 0 .28-.21.44.44 0 0 0 .12-.3.6.6 0 0 0-.4-.5Zm-.89 1a1.84 1.84 0 0 1-.78-.16c-.18-.09-.28-.21-.28-.33s.1-.23.28-.32a2 2 0 0 1 1.55 0c.18.09.28.21.28.32s-.1.24-.28.33a1.82 1.82 0 0 1-.77.1Z"/><path d="M403.48 22.58a4.37 4.37 0 0 1-3.51 0c-.62-.3-.84-.73-.67-1.13a1.44 1.44 0 0 1 .67-.61 4.46 4.46 0 0 1 3.51 0 1.42 1.42 0 0 1 .64.54l.06.13c.13.38-.1.78-.7 1.07Z" style="fill:#48b6ec"/><path class="cls-23" d="M401 16.17v2l-3 6.74a.34.34 0 0 1 0 .08c-.21.53.14 1.08 1 1.5l.21.09 2.4-8.27v-2a1.24 1.24 0 0 1-.61-.14Z"/><path class="cls-47" d="M402.9 15.75v.82l.16.12-.17.92-.94.92c-.34.42.21.83.64.57l1.67-1 .21-2.1c-.27-.23-1.08-.14-1.57-.25Z"/><path d="m99.44 178.71 1.91 50.15 137.93-85.76-1.93-50.52Z" style="fill:#e1dee6"/><path class="cls-53" d="m44.51 199.53 56.84 29.33-1.91-50.15L42.58 149l1.93 50.53z"/><path class="cls-54" d="m94.66 176.21 1.91 50.18 1.27.66-1.91-50.18-1.27-.66zM103.71 176.05l1.91 50.15-1.22.6-1.91-49.99 1.22-.76zM233.75 95.05l1.91 50.15-1.21.9-1.92-50.29 1.22-.76zM45.11 150.32l1.92 50.42 1.28.64-1.93-50.39-1.27-.67z"/><path style="fill:#f3f1f3" d="M180.52 63.42 42.58 149l56.86 29.71 137.91-86.13-56.83-29.16z"/><path class="cls-53" d="m188.66 115.87 31.87-19.78a3.35 3.35 0 0 0-.23-5.85L188.72 74a16.32 16.32 0 0 0-16 .63L60.41 144a4.07 4.07 0 0 0 .25 7.11l31.66 16.55.2.09 81.85-50.5a16.32 16.32 0 0 1 14.29-1.38Z"/><path class="cls-54" d="m106.05 167.14 82.61-51.27a16.32 16.32 0 0 0-14.29 1.37l-81.85 50.5a13.88 13.88 0 0 0 13.53-.6Z"/><path d="m141.14 118.46 5.76-4.91 6.56 7.69-5.83 5a2.54 2.54 0 0 1-2.09-.06 5.39 5.39 0 0 1-1-.51 8.93 8.93 0 0 1-2.75-2.82 7.1 7.1 0 0 1-.9-2.16 3.59 3.59 0 0 1 0-1.71 1.83 1.83 0 0 1 .25-.52Z" style="fill:url(#Безымянный_градиент_50)"/><path d="M97.68 166.89a5.39 5.39 0 0 1-1-.51 6.42 6.42 0 0 1-1-.72l-.47-.44-.46-.51c-.08-.1-.17-.2-.24-.3a1.71 1.71 0 0 1-.11-.14v-.05l-.13-.2-.16-.22a1.07 1.07 0 0 1-.15-.22l-.18-.31s0-.09-.08-.14v-.09a2.89 2.89 0 0 1-.15-.31 2 2 0 0 1-.13-.31 5.05 5.05 0 0 1-.29-.94 1.16 1.16 0 0 1 0-.18v-.23a.28.28 0 0 1 0-.09 1.36 1.36 0 0 1 0-.2v-.21a3 3 0 0 1 .1-.64v-.14a1.66 1.66 0 0 1 .47-.67l.13-.11L139 120.19a1.66 1.66 0 0 0-.45.69 2.72 2.72 0 0 0-.11 1.17 3.4 3.4 0 0 0 .08.53 6.9 6.9 0 0 0 .9 2.16 9 9 0 0 0 2.75 2.83 6.48 6.48 0 0 0 1 .5 2.59 2.59 0 0 0 2.11.06l-45.06 38.43a2.13 2.13 0 0 1-2.54.33Z" style="fill:url(#Безымянный_градиент_50-2)"/><path class="cls-58" d="M149.3 113.36a8.45 8.45 0 0 1 4.63 5.48c.48 2.22-.82 3.36-2.9 2.55a8.44 8.44 0 0 1-4.63-5.49c-.48-2.22.82-3.36 2.9-2.54Z"/><path class="cls-59" d="M153.62 118.67a7.74 7.74 0 0 0-4.18-4.86c-1.87-.75-3 .21-2.59 2.14a7.75 7.75 0 0 0 4.19 4.86c1.87.75 3.02-.21 2.58-2.14Z"/><path class="cls-60" d="M149.44 113.81a7.86 7.86 0 0 1 4 4.39l-6.2-1.2a6 6 0 0 1-.39-1.07c-.44-1.93.72-2.87 2.59-2.12Z"/><path class="cls-61" transform="rotate(-40.46 140.065 119.3)" d="M138.71 119.3h2.73v.01h-2.73z"/><path d="m178 105.89 4.64-3.61 4.37 6.83-4.69 3.64a1.75 1.75 0 0 1-1.57-.21 4.37 4.37 0 0 1-.75-.54 7.27 7.27 0 0 1-1.86-2.53 6 6 0 0 1-.53-1.84 3.64 3.64 0 0 1 0-.45 2.46 2.46 0 0 1 .17-1 1.71 1.71 0 0 1 .22-.29Z" style="fill:url(#Безымянный_градиент_50-3)"/><path d="M142.18 142.47a4 4 0 0 1-.7-.48 4.52 4.52 0 0 1-.65-.66c-.11-.13-.22-.26-.32-.4a4.5 4.5 0 0 1-.31-.45c-.06-.09-.12-.18-.17-.27a.75.75 0 0 0-.07-.12c0-.06-.05-.13-.08-.18a3215679346895.61 3215679346895.61 0 0 0-.2-.38l-.12-.27a.61.61 0 0 0-.05-.12s0 0 0-.05a.31.31 0 0 0 0-.08l-.09-.26a2.76 2.76 0 0 1-.08-.27 5.76 5.76 0 0 1-.15-.79 758982750042.55 758982750042.55 0 0 0 0-.3.22.22 0 0 1 0-.08.85.85 0 0 1 0-.16 1 1 0 0 1 0-.18 2.37 2.37 0 0 1 .11-.52l.05-.11a1.4 1.4 0 0 1 .39-.52l.11-.08 36.55-28.41a1.32 1.32 0 0 0-.38.53 2.54 2.54 0 0 0-.16 1 3.31 3.31 0 0 0 0 .44 6.15 6.15 0 0 0 .53 1.85 7.18 7.18 0 0 0 1.86 2.53 4.44 4.44 0 0 0 .7.49 1.78 1.78 0 0 0 1.57.21L144.2 142.6c-.5.26-1.2.34-2.02-.13Z" style="fill:url(#Безымянный_градиент_50-4)"/><path class="cls-58" d="M184.43 102.31a7 7 0 0 1 3.09 4.87c.21 1.86-.84 2.7-2.34 1.87a7 7 0 0 1-3.09-4.86c-.21-1.86.84-2.71 2.34-1.88Z"/><path class="cls-59" d="M187.3 107a6.43 6.43 0 0 0-2.8-4.32c-1.34-.76-2.27 0-2.08 1.57a6.41 6.41 0 0 0 2.8 4.32c1.35.77 2.28.07 2.08-1.57Z"/><path class="cls-60" d="M184.5 102.69a6.43 6.43 0 0 1 2.72 3.93l-4.58-1.44a5.33 5.33 0 0 1-.22-.92c-.19-1.62.74-2.33 2.08-1.57Z"/><path class="cls-61" transform="rotate(-37.86 177.113 106.512)" d="M176.07 106.51h2.12v.01h-2.12z"/><path class="cls-61" d="m180.43 114.17 1.86-1.45h.06l-1.56 1.22a1 1 0 0 1-.36.23Z"/><g class="cls-32"><path class="cls-26" d="M350.55 56.07v1.65a3.44 3.44 0 0 1-2.07 2.83 11.37 11.37 0 0 1-10.08 0 3.49 3.49 0 0 1-2.1-2.87V56a3.44 3.44 0 0 0 2.1 2.86 11.34 11.34 0 0 0 10.08 0 3.48 3.48 0 0 0 2.07-2.79Z"/><path class="cls-28" d="M348.44 53.21c2.79 1.57 2.81 4.11 0 5.68a11.34 11.34 0 0 1-10.08 0c-2.79-1.57-2.81-4.11 0-5.68a11.35 11.35 0 0 1 10.08 0Z"/></g><path class="cls-11" d="M346.9 54.33c2 1 2 2.5 0 3.46a9 9 0 0 1-7 0c-2-1-2-2.51 0-3.46a8.92 8.92 0 0 1 7 0Z"/><path class="cls-11" d="M338.45 56.06h9.92V41.7c0-5.47-2.24-9.87-6.14-12.07s-8.93-1.88-13.8.86L309.69 41l4.95 8.37 18.75-10.55c2-1.12 3.33-1.16 3.88-.85s1.18 1.46 1.18 3.7Z"/><path class="cls-26" d="M348.37 47.43a2.42 2.42 0 0 1-1.44 2 7.94 7.94 0 0 1-7 0 2.43 2.43 0 0 1-1.47-2v2.91a2.41 2.41 0 0 0 1.47 2 7.94 7.94 0 0 0 7 0 2.41 2.41 0 0 0 1.44-2Z"/><path class="cls-34" d="M348.37 42.94a2.42 2.42 0 0 1-1.44 2 7.94 7.94 0 0 1-7 0 2.43 2.43 0 0 1-1.47-2v2.91a2.43 2.43 0 0 0 1.47 2 7.94 7.94 0 0 0 7 0 2.41 2.41 0 0 0 1.44-2Z"/><g class="cls-32"><path class="cls-26" d="m335.39 71.06-.14 9.94c0 4.87-3.05 9.72-9.11 13.44-12.2 7.47-32.06 7.47-44.34 0-6.18-3.76-9.27-8.7-9.25-13.63l.14-9.89c0 4.93 3.07 9.87 9.25 13.63 12.29 7.47 32.14 7.47 44.34 0 6.07-3.77 9.1-8.63 9.11-13.49Z"/><ellipse class="cls-28" cx="304.04" cy="70.96" rx="19.14" ry="31.35" transform="rotate(-89.82 304.04 70.965)"/></g><g class="cls-32"><path class="cls-26" d="M331.6 23.49v47.03c0 4.28-2.69 8.55-8 11.81-10.73 6.58-28.19 6.58-39 0-5.43-3.3-8.14-7.65-8.13-12l.06-21.95V23.33c0 4.32 2.72 8.65 8.14 11.95 10.8 6.57 28.26 6.57 39 0 5.25-3.28 7.92-7.52 7.93-11.79Z"/><path class="cls-64" d="M280.33 48.25a14.52 14.52 0 0 1-3.9-5.62v5.77a12.63 12.63 0 0 0 1.48 2.9 16.45 16.45 0 0 0 2.45 2.78ZM324 51.06c-8.68 5.22-21.64 6.29-32.15 3.26v5.82c10.5 3 23.46 1.94 32.13-3.26 4-2.4 6.51-5.34 7.58-8.42v-5.87c-1.04 3.11-3.56 6.06-7.56 8.47Z"/><ellipse class="cls-8" cx="304.03" cy="23.4" rx="16.83" ry="27.57" transform="rotate(-89.82 304.03 23.405)"/><path class="cls-26" d="M328.63 23.45a7.38 7.38 0 0 1-.32 2.13c-.77 2.55-2.91 5-6.22 7-4.73 2.91-11.12 4.51-18 4.51s-13.25-1.6-18-4.51c-3.37-2.05-5.55-4.53-6.33-7.11a7.05 7.05 0 0 1-.32-2.13c0-3.31 2.31-6.56 6.53-9.14 4.74-2.91 11.12-4.51 18-4.51s13.26 1.61 18 4.51c4.29 2.62 6.66 5.9 6.66 9.25Z"/><path class="cls-30" d="M328.31 25.58c-.77 2.55-2.91 5-6.22 7-4.73 2.91-11.12 4.51-18 4.51s-13.25-1.6-18-4.51c-3.37-2.05-5.55-4.53-6.33-7.11.77-2.55 2.91-5 6.21-7 4.74-2.91 11.12-4.51 18-4.51s13.26 1.61 18 4.52c3.38 2.05 5.56 4.52 6.34 7.1Z"/></g><path class="cls-28" d="M283.63 49.87a.09.09 0 0 1-.08-.09V34.59a2.28 2.28 0 0 1 1-1.78.7.7 0 0 1 .76-.08.78.78 0 0 1 .32.71v.91a.09.09 0 0 1-.09.09.09.09 0 0 1-.08-.09v-.91a.62.62 0 0 0-.23-.56.55.55 0 0 0-.58.06 2.13 2.13 0 0 0-.92 1.65v15.19a.08.08 0 0 1-.1.09ZM285.68 51.11a.08.08 0 0 1-.08-.09V35.84a2.3 2.3 0 0 1 1-1.79.74.74 0 0 1 .77-.08.8.8 0 0 1 .31.72v.91a.08.08 0 0 1-.16 0v-.91a.61.61 0 0 0-.24-.57.55.55 0 0 0-.58.07 2.13 2.13 0 0 0-.91 1.65V51a.09.09 0 0 1-.11.11Z"/><path class="cls-28" d="m285.68 49.85-2.08-1.25a.09.09 0 0 1 0-.12.07.07 0 0 1 .11 0l2 1.24a.09.09 0 0 1 0 .12.1.1 0 0 1-.03.01ZM285.68 48.46l-2.08-1.25a.09.09 0 0 1 0-.12.08.08 0 0 1 .11 0l2 1.24a.09.09 0 0 1 0 .12.08.08 0 0 1-.03.01ZM285.68 47.08c-.05 0-2.08-1.26-2.08-1.26a.08.08 0 0 1 0-.12.08.08 0 0 1 .11 0l2 1.24a.1.1 0 0 1 0 .12.1.1 0 0 1-.03.02ZM285.67 45.69l-2.07-1.25a.09.09 0 0 1 0-.12.07.07 0 0 1 .11 0l2 1.24a.09.09 0 0 1 0 .11.1.1 0 0 1-.04.02ZM285.67 44.3l-2.08-1.25a.1.1 0 0 1 0-.12.09.09 0 0 1 .12 0l2 1.24a.08.08 0 0 1 0 .12.08.08 0 0 1-.04.01ZM285.67 42.91l-2.08-1.25a.09.09 0 0 1 0-.12.1.1 0 0 1 .12 0l2 1.24a.08.08 0 0 1 0 .12.07.07 0 0 1-.04.01ZM285.67 41.52l-2.08-1.25a.09.09 0 0 1 0-.12.08.08 0 0 1 .11 0l2 1.24a.1.1 0 0 1 0 .12.07.07 0 0 1-.03.01ZM285.67 40.14l-2.08-1.25a.1.1 0 0 1 0-.12.07.07 0 0 1 .11 0l2 1.23a.1.1 0 0 1 0 .12s0 .02-.03.02ZM285.67 38.75l-2.08-1.25a.1.1 0 0 1 0-.12.07.07 0 0 1 .11 0l2 1.24a.09.09 0 0 1 0 .12.1.1 0 0 1-.03.01ZM285.67 37.36c-.05 0-2.08-1.25-2.08-1.25a.08.08 0 0 1 0-.12.08.08 0 0 1 .11 0l2 1.24a.09.09 0 0 1 0 .12.09.09 0 0 1-.03.01ZM285.66 36l-2.07-1.25a.08.08 0 0 1 0-.12.08.08 0 0 1 .11 0l2 1.24a.1.1 0 0 1 0 .12.09.09 0 0 1-.04.01ZM285.68 38a.08.08 0 0 1-.07-.05.09.09 0 0 1 0-.12l1-.58h.11a.1.1 0 0 1 0 .12l-1 .59Z"/><path class="cls-28" d="M283.64 36.76a.08.08 0 0 1-.07 0 .09.09 0 0 1 0-.12l1-.58a.07.07 0 0 1 .11 0 .1.1 0 0 1 0 .12l-1 .59ZM285.68 43.56a.08.08 0 0 1-.07-.05.09.09 0 0 1 0-.12l1-.58h.11a.1.1 0 0 1 0 .12l-1 .59ZM283.64 42.29a.08.08 0 0 1-.07 0 .09.09 0 0 1 0-.12l1-.58a.07.07 0 0 1 .11 0 .1.1 0 0 1 0 .12l-1 .59ZM285.68 49.09a.08.08 0 0 1-.07-.05.09.09 0 0 1 0-.12l1-.58h.11a.1.1 0 0 1 0 .12l-1 .59ZM283.64 47.82a.08.08 0 0 1-.07 0 .07.07 0 0 1 0-.11l1-.59a.07.07 0 0 1 .11 0 .1.1 0 0 1 0 .12l-1 .59Z"/><path class="cls-28" d="M283.55 46.09v14.75a.08.08 0 0 0 .08.08.07.07 0 0 0 .08-.08V46.09ZM285.6 47.2v14.88a.08.08 0 0 0 .08.09.09.09 0 0 0 .08-.09V47.2Z"/><path class="cls-28" d="m285.68 60.91-2.08-1.25a.1.1 0 0 1 0-.12.07.07 0 0 1 .11 0l2 1.24a.09.09 0 0 1 0 .12.1.1 0 0 1-.03.01ZM285.68 59.52l-2.08-1.25a.09.09 0 0 1 0-.12.08.08 0 0 1 .11 0l2 1.24a.09.09 0 0 1 0 .12.08.08 0 0 1-.03.01ZM285.68 58.13c-.05 0-2.08-1.25-2.08-1.25a.08.08 0 0 1 0-.12.08.08 0 0 1 .11 0l2 1.24a.1.1 0 0 1 0 .12.09.09 0 0 1-.03.01ZM285.67 56.75l-2.07-1.26a.07.07 0 0 1 0-.11.08.08 0 0 1 .11 0l2 1.24a.11.11 0 0 1 0 .12.1.1 0 0 1-.04.01ZM285.67 55.36l-2.08-1.25a.1.1 0 0 1 0-.12.09.09 0 0 1 .12 0l2 1.24a.07.07 0 0 1 0 .11.08.08 0 0 1-.04.02ZM285.67 54l-2.08-1.25a.09.09 0 0 1 0-.12.1.1 0 0 1 .12 0l2 1.24a.09.09 0 0 1 0 .16ZM285.67 52.58l-2.08-1.25a.09.09 0 0 1 0-.12.08.08 0 0 1 .11 0l2 1.24a.09.09 0 0 1 0 .12.07.07 0 0 1-.03.01ZM285.67 51.2l-2.08-1.26a.08.08 0 0 1 0-.11.08.08 0 0 1 .11 0l2 1.24a.1.1 0 0 1 0 .12s0 .01-.03.01ZM285.67 49.81l-2.08-1.25a.1.1 0 0 1 0-.12.07.07 0 0 1 .11 0l2 1.24a.08.08 0 0 1 0 .11s0 .02-.03.02ZM285.67 48.42c-.05 0-2.08-1.25-2.08-1.25a.08.08 0 0 1 0-.12.07.07 0 0 1 .11 0l2 1.24a.09.09 0 0 1 0 .12.13.13 0 0 1-.03.01ZM285.68 49.09a.08.08 0 0 1-.07-.05.09.09 0 0 1 0-.12l1-.59a.09.09 0 0 1 .08.15l-1 .59Z"/><path class="cls-28" d="M283.64 47.82a.08.08 0 0 1-.07 0 .09.09 0 0 1 0-.12l1-.59a.08.08 0 0 1 .11 0 .08.08 0 0 1 0 .11l-1 .59ZM285.68 54.62a.08.08 0 0 1-.07 0 .09.09 0 0 1 0-.12l1-.59a.09.09 0 0 1 .08.15l-1 .59ZM283.64 53.35a.08.08 0 0 1-.07-.05.09.09 0 0 1 0-.12l1-.59a.08.08 0 0 1 .11 0 .08.08 0 0 1 0 .11l-1 .59ZM285.68 60.15a.08.08 0 0 1-.07 0 .09.09 0 0 1 0-.12l1-.59a.09.09 0 0 1 .08.15l-1 .59ZM283.64 58.88a.08.08 0 0 1-.07-.05.09.09 0 0 1 0-.12l1-.59a.08.08 0 0 1 .11 0 .08.08 0 0 1 0 .11l-1 .59Z"/><path class="cls-28" d="M283.55 57.16V71.9a.09.09 0 0 0 .08.09.08.08 0 0 0 .08-.09V57.16ZM285.6 58.26v14.88a.08.08 0 0 0 .08.09.09.09 0 0 0 .08-.09V58.26Z"/><path class="cls-28" d="m285.68 72-2.08-1.25a.09.09 0 0 1 0-.12.08.08 0 0 1 .11 0l2 1.24a.09.09 0 0 1 0 .12.08.08 0 0 1-.03.01ZM285.68 70.58l-2.08-1.25a.09.09 0 0 1 0-.12.08.08 0 0 1 .11 0l2 1.24a.09.09 0 0 1 0 .12.08.08 0 0 1-.03.01ZM285.68 69.2c-.05 0-2.08-1.26-2.08-1.26a.07.07 0 0 1 0-.11.08.08 0 0 1 .11 0l2 1.24a.1.1 0 0 1 0 .12.1.1 0 0 1-.03.01ZM285.67 67.81l-2.07-1.25a.09.09 0 0 1 0-.12.07.07 0 0 1 .11 0l2 1.24a.09.09 0 0 1 0 .11.1.1 0 0 1-.04.02ZM285.67 66.42l-2.08-1.25a.09.09 0 0 1 0-.12.1.1 0 0 1 .12 0l2 1.24a.09.09 0 0 1 0 .16ZM285.67 65l-2.08-1.25a.09.09 0 0 1 0-.12.1.1 0 0 1 .12 0l2 1.24a.08.08 0 0 1 0 .12.07.07 0 0 1-.04.01ZM285.67 63.65l-2.08-1.26a.09.09 0 0 1 0-.12.08.08 0 0 1 .11 0l2 1.24a.1.1 0 0 1 0 .12.08.08 0 0 1-.03.02ZM285.67 62.26 283.59 61a.1.1 0 0 1 0-.12.07.07 0 0 1 .11 0l2 1.24a.08.08 0 0 1 0 .11s0 .03-.03.03ZM285.67 60.87l-2.08-1.25a.1.1 0 0 1 0-.12.07.07 0 0 1 .11 0l2 1.24a.09.09 0 0 1 0 .12.1.1 0 0 1-.03.01ZM285.67 59.48c-.05 0-2.08-1.25-2.08-1.25a.08.08 0 0 1 0-.12.08.08 0 0 1 .11 0l2 1.24a.09.09 0 0 1 0 .12.09.09 0 0 1-.03.01ZM285.68 60.15a.08.08 0 0 1-.07 0 .07.07 0 0 1 0-.11l1-.59h.11a.1.1 0 0 1 0 .12l-1 .59Z"/><path class="cls-28" d="M283.64 58.88a.08.08 0 0 1-.07-.05.07.07 0 0 1 0-.11l1-.59a.07.07 0 0 1 .11 0 .1.1 0 0 1 0 .12l-1 .59ZM285.68 65.68a.08.08 0 0 1-.07-.05.07.07 0 0 1 0-.11l1-.59h.11a.1.1 0 0 1 0 .12l-1 .59ZM283.64 64.41a.08.08 0 0 1-.07 0 .07.07 0 0 1 0-.11l1-.59a.07.07 0 0 1 .11 0 .1.1 0 0 1 0 .12l-1 .59ZM285.68 71.21a.08.08 0 0 1-.07 0 .07.07 0 0 1 0-.11l1-.59h.11a.1.1 0 0 1 0 .12l-1 .59ZM283.64 69.94a.08.08 0 0 1-.07 0 .07.07 0 0 1 0-.11l1-.59a.07.07 0 0 1 .11 0 .1.1 0 0 1 0 .12l-1 .59Z"/><path class="cls-28" d="M283.55 68.22V83a.09.09 0 0 0 .08.09.08.08 0 0 0 .08-.09V68.22ZM285.6 69.33v14.88a.08.08 0 0 0 .08.08.09.09 0 0 0 .08-.08V69.33Z"/><path class="cls-28" d="m285.68 83-2.08-1.25a.09.09 0 0 1 0-.12.08.08 0 0 1 .11 0l2 1.24a.09.09 0 0 1 0 .12.08.08 0 0 1-.03.01ZM285.68 81.64l-2.08-1.25a.08.08 0 0 1 0-.11.08.08 0 0 1 .11 0l2 1.24a.1.1 0 0 1 0 .12.08.08 0 0 1-.03 0ZM285.68 80.26c-.05 0-2.08-1.25-2.08-1.25a.09.09 0 0 1 0-.12.07.07 0 0 1 .11 0l2 1.24a.08.08 0 0 1 0 .11.1.1 0 0 1-.03.02ZM285.67 78.87l-2.07-1.25a.09.09 0 0 1 0-.12.07.07 0 0 1 .11 0l2 1.24a.11.11 0 0 1 0 .12.12.12 0 0 1-.04.01ZM285.67 77.48l-2.08-1.25a.09.09 0 0 1 0-.12.1.1 0 0 1 .12 0l2 1.24a.08.08 0 0 1 0 .12.07.07 0 0 1-.04.01ZM285.67 76.09l-2.08-1.25a.09.09 0 0 1 0-.12.1.1 0 0 1 .12 0l2 1.24a.09.09 0 0 1 0 .12.07.07 0 0 1-.04.01ZM285.67 74.71l-2.08-1.25a.1.1 0 0 1 0-.12.07.07 0 0 1 .11 0l2 1.23a.1.1 0 0 1 0 .12.08.08 0 0 1-.03.02ZM285.67 73.32l-2.08-1.25a.1.1 0 0 1 0-.12.07.07 0 0 1 .11 0l2 1.24a.09.09 0 0 1 0 .12.1.1 0 0 1-.03.01ZM285.67 71.93l-2.08-1.25a.09.09 0 0 1 0-.12.08.08 0 0 1 .11 0l2 1.24a.09.09 0 0 1 0 .12.08.08 0 0 1-.03.01ZM285.67 70.54c-.05 0-2.08-1.25-2.08-1.25a.08.08 0 0 1 0-.12.08.08 0 0 1 .11 0l2 1.24a.1.1 0 0 1 0 .12.09.09 0 0 1-.03.01ZM285.68 71.21a.08.08 0 0 1-.07 0 .08.08 0 0 1 0-.12l1-.59h.11a.1.1 0 0 1 0 .12l-1 .59Z"/><path class="cls-28" d="M283.64 69.94a.08.08 0 0 1-.07 0 .08.08 0 0 1 0-.12l1-.59a.07.07 0 0 1 .11 0 .1.1 0 0 1 0 .12l-1 .59ZM285.68 76.74a.08.08 0 0 1-.07 0 .08.08 0 0 1 0-.12l1-.59h.11a.1.1 0 0 1 0 .12l-1 .59ZM283.64 75.47a.08.08 0 0 1-.07 0 .08.08 0 0 1 0-.12l1-.59a.07.07 0 0 1 .11 0 .1.1 0 0 1 0 .12l-1 .59ZM285.68 82.27a.08.08 0 0 1-.07 0 .08.08 0 0 1 0-.12l1-.59h.11a.1.1 0 0 1 0 .12l-1 .59ZM283.64 81a.08.08 0 0 1-.07 0 .08.08 0 0 1 0-.12l1-.59a.07.07 0 0 1 .11 0 .1.1 0 0 1 0 .12l-1 .59Z"/><path class="cls-25" d="M304.07 38.3a39.31 39.31 0 0 1-14.47-2.64.09.09 0 0 1-.05-.12.09.09 0 0 1 .11-.06c10.37 4.17 24.25 3.31 33-2 4.91-3 7.61-7 7.6-11.24s-2.75-8.3-7.72-11.32c-10.27-6.25-26.93-6.25-37.14 0-4.64 2.84-7.33 6.61-7.58 10.61-.23 3.65 1.62 7.27 5.2 10.18a.11.11 0 0 1 0 .14.08.08 0 0 1-.12 0c-3.63-2.95-5.5-6.63-5.27-10.34.26-4.07 3-7.89 7.68-10.77 10.25-6.28 27-6.28 37.31 0 5 3.07 7.81 7.14 7.81 11.49s-2.72 8.36-7.69 11.4-11.84 4.67-18.67 4.67Z"/><path class="cls-25" d="M283 33.13a.09.09 0 0 1-.09-.1v-1.29a.09.09 0 1 1 .18 0V33a.09.09 0 0 1-.09.13ZM278.23 26.71a.1.1 0 0 1-.09-.1v-1.29a.09.09 0 1 1 .18 0v1.29a.1.1 0 0 1-.09.1ZM278.23 20.29a.1.1 0 0 1-.09-.1v-1.3a.09.09 0 1 1 .18 0v1.3a.1.1 0 0 1-.09.1ZM281.57 15.12a.1.1 0 0 1-.09-.1v-1.29a.09.09 0 1 1 .18 0V15a.1.1 0 0 1-.09.12ZM287.74 11a.09.09 0 0 1-.09-.09V9.59a.09.09 0 1 1 .18 0v1.3a.09.09 0 0 1-.09.11ZM296.1 8.28a.09.09 0 0 1-.09-.1V6.89a.09.09 0 1 1 .18 0v1.29a.09.09 0 0 1-.09.1ZM306.27 7.63a.09.09 0 0 1-.09-.09v-1.3a.09.09 0 0 1 .09-.09.09.09 0 0 1 .08.09v1.3a.09.09 0 0 1-.08.09ZM315.41 9.07a.09.09 0 0 1-.09-.09v-1.3a.09.09 0 0 1 .09-.09.09.09 0 0 1 .08.09V9a.09.09 0 0 1-.08.07ZM322.09 12a.09.09 0 0 1-.09-.1v-1.32a.09.09 0 1 1 .18 0v1.29a.09.09 0 0 1-.09.13ZM328 17a.1.1 0 0 1-.09-.1v-1.28a.09.09 0 1 1 .18 0v1.29a.1.1 0 0 1-.09.09ZM330.35 24.22a.1.1 0 0 1-.09-.1v-1.29a.09.09 0 1 1 .18 0v1.29a.1.1 0 0 1-.09.1ZM327.4 31.09a.09.09 0 0 1-.09-.1V29.7a.09.09 0 0 1 .18 0V31a.09.09 0 0 1-.09.09ZM319.81 36.47a.09.09 0 0 1-.09-.09v-1.3a.09.09 0 1 1 .18 0v1.3a.09.09 0 0 1-.09.09ZM309.11 39.47a.1.1 0 0 1-.09-.1v-1.29a.09.09 0 1 1 .18 0v1.29a.1.1 0 0 1-.09.1ZM298.88 39.23a.09.09 0 0 1-.09-.09v-1.3a.09.09 0 1 1 .18 0v1.3a.09.09 0 0 1-.09.09ZM289.63 36.85a.09.09 0 0 1-.09-.09v-1.3a.09.09 0 1 1 .18 0v1.3a.09.09 0 0 1-.09.09Z"/><g class="cls-32"><path class="cls-26" d="M334.59 95.51v1a2.19 2.19 0 0 0 1.21 1.8 6.26 6.26 0 0 0 5.93 0 2.23 2.23 0 0 0 1.27-1.78v-1a2.21 2.21 0 0 1-1.24 1.82 6.24 6.24 0 0 1-5.93 0 2.2 2.2 0 0 1-1.24-1.84Z"/><path class="cls-28" d="M335.83 93.68c-1.64 1-1.65 2.62 0 3.62a6.24 6.24 0 0 0 5.93 0c1.64-1 1.65-2.62 0-3.62a6.24 6.24 0 0 0-5.93 0Z"/></g><path class="cls-37" d="M336.74 94.4c-1.15.61-1.15 1.59 0 2.2a4.89 4.89 0 0 0 4.13 0c1.15-.61 1.16-1.59 0-2.2a4.89 4.89 0 0 0-4.13 0Z"/><path class="cls-11" d="M336.74 94.4c-1.15.61-1.15 1.59 0 2.2a4.89 4.89 0 0 0 4.13 0c1.15-.61 1.16-1.59 0-2.2a4.89 4.89 0 0 0-4.13 0Z"/><g class="cls-32"><path class="cls-11" d="m326 66.16-.86-.52a2 2 0 0 0-2.09.21 7 7 0 0 0-3 5.42 2.27 2.27 0 0 0 .87 2l.87.52a2.26 2.26 0 0 1-.88-2 7 7 0 0 1 3-5.41 2 2 0 0 1 2.09-.22Z"/><path class="cls-26" d="M326.88 68.2c0-2-1.33-2.81-3-1.82a7 7 0 0 0-3 5.41c0 2 1.33 2.82 3 1.83a7 7 0 0 0 3-5.42Z"/></g><path class="cls-37" d="M325.84 68.67c.08-1.34-.73-1.84-1.8-1.11a5.51 5.51 0 0 0-2.04 3.77c-.07 1.35.74 1.85 1.81 1.12a5.5 5.5 0 0 0 2.03-3.78Z"/><path class="cls-11" d="M325.84 68.67c.08-1.34-.73-1.84-1.8-1.11a5.51 5.51 0 0 0-2.04 3.77c-.07 1.35.74 1.85 1.81 1.12a5.5 5.5 0 0 0 2.03-3.78Z"/><path class="cls-11" d="M335.87 95.5h5.85V87c0-5.46-3.51-11.86-8-14.59l-8.37-5.09-2.92 5.33 8.37 5.1c2.7 1.64 5.06 6 5.06 9.25Z"/><path class="cls-34" d="M335.87 90.12a1.54 1.54 0 0 0 .85 1.27 4.38 4.38 0 0 0 4.13 0 1.57 1.57 0 0 0 .87-1.27V92a1.54 1.54 0 0 1-.87 1.26 4.32 4.32 0 0 1-4.13 0 1.51 1.51 0 0 1-.85-1.26Z"/><path class="cls-34" d="M335.87 87.27a1.54 1.54 0 0 0 .85 1.26 4.38 4.38 0 0 0 4.13 0 1.57 1.57 0 0 0 .87-1.26v1.84a1.57 1.57 0 0 1-.87 1.27 4.38 4.38 0 0 1-4.13 0 1.54 1.54 0 0 1-.85-1.27ZM329.88 70.08a1.38 1.38 0 0 0-1.46.15 4.85 4.85 0 0 0-2.07 3.77 1.56 1.56 0 0 0 .61 1.41l-1.52-.92a1.59 1.59 0 0 1-.61-1.42 4.86 4.86 0 0 1 2.07-3.77 1.39 1.39 0 0 1 1.46-.14Z"/><path class="cls-34" d="M332.23 71.51a1.39 1.39 0 0 0-1.46.14 4.87 4.87 0 0 0-2.07 3.78 1.56 1.56 0 0 0 .61 1.41l-1.52-.92a1.57 1.57 0 0 1-.61-1.42 4.86 4.86 0 0 1 2.07-3.77 1.39 1.39 0 0 1 1.46-.14Z"/></g></g></svg>