<svg xmlns="http://www.w3.org/2000/svg" viewBox="0 0 817.96 503.22"><defs><style>.cls-4{fill:#e1e2ef}.cls-5{fill:#758dc6}.cls-6{fill:#6275af}.cls-7{fill:#cbd8ec}.cls-8{fill:#7788bd}.cls-9{fill:#8798c9}.cls-10{fill:#9baade}.cls-12{fill:#bfceff}.cls-13{fill:#006170}.cls-14{fill:#00abae}.cls-15,.cls-28{fill:#fff}.cls-16{fill:#3c94a3}.cls-17{fill:#97b2e3}.cls-19{fill:#2b6c81}.cls-20{fill:#315659}.cls-22{fill:#d4e0ec}.cls-23{fill:#274c4f}.cls-24{fill:#009ea2}.cls-25{fill:#bfcfda}.cls-27{fill:#eff9ff}.cls-28{opacity:.38}.cls-30{fill:#007179}.cls-31{fill:#a7b5e1}.cls-32{fill:#0c6775}.cls-33{fill:#f2c900}.cls-36{fill:#dde9f2}.cls-37{fill:#80b3be}.cls-38{fill:#13bfad}.cls-39{fill:#c1cfe8}.cls-40{fill:#ffd5b4}.cls-41{fill:#f2bc97}.cls-43{fill:#000107}.cls-44{isolation:isolate}.cls-46{fill:#768ac6}.cls-47{fill:#c8e0ff}.cls-50{fill:#099889}.cls-52{fill:#f9da02}.cls-56{fill:#ffd410}.cls-57{fill:#ffdd23}.cls-58{fill:#ffe53e}.cls-59{fill:#005765}.cls-60{fill:#36b6c3}.cls-61{fill:#cbddf6}.cls-69{fill:#ffd025}</style></defs><g id="Слой_2" data-name="Слой 2"><g id="Слой_1-2" data-name="Слой 1"><path style="fill:#292929" d="M414.98 471.76 817.1 247.02l.86 31.46-402.12 224.74-.86-31.46z"/><path style="fill:#454545" d="M414.98 471.76 0 224.74l.86 31.45 414.98 247.03-.86-31.46z"/><path style="fill:#4f4f4f" d="M0 224.74 402.12 0 817.1 247.03 414.98 471.77 0 224.74z"/><path id="Axo_base" data-name="Axo base" class="cls-4" d="m193.9 181.85-75.64 52.97-18.58-11.01 75.64-52.97 18.58 11.01z"/><path id="Axo_base-2" data-name="Axo base" class="cls-4" d="m209.49 189.65-91.16 63.07-18.59-11.01 91.16-63.06 18.59 11z"/><g id="Axo_Projection" data-name="Axo Projection"><g id="Axo_Surface_" data-name="Axo Surface*"><path id="Axo_panel" data-name="Axo panel" class="cls-5" d="m180.1 110.53 25.94 15.36 2.24 65.98-25.94-15.37-2.24-65.97z"/><path id="Axo_panel-2" data-name="Axo panel" class="cls-6" d="m206.04 125.89 3.12-2.14 2.25 65.97-3.13 2.15-2.24-65.98z"/></g><path id="Axo_base-3" data-name="Axo base" class="cls-7" d="m180.1 110.53 3.12-2.15 25.94 15.37-3.12 2.14-25.94-15.36z"/></g><g id="Axo_Compound_Projection" data-name="Axo Compound Projection"><g id="Axo_Compound_Extrusion" data-name="Axo Compound Extrusion"><g id="Axo_Extrusion" data-name="Axo Extrusion"><path id="Axo_panel-3" data-name="Axo panel" class="cls-6" d="M192.46 181.82a4.62 4.62 0 0 0-2.56-3.68 11.92 11.92 0 0 0-11.76.4 4.59 4.59 0 0 0-2.3 3.84l.09 2.59a4.61 4.61 0 0 1 2.3-3.84 11.92 11.92 0 0 1 11.76-.4 4.64 4.64 0 0 1 2.56 3.68Z"/><path id="Axo_panel-4" data-name="Axo panel" class="cls-8" d="m184.62 193.74 17.67-12.16.09 2.59-17.67 12.16-.09-2.59z"/></g><path id="Axo_Compound" data-name="Axo Compound" class="cls-7" d="m202.29 181.58-18.68-11.07-17.67 12.16 18.68 11.07Zm-23.89 4.48c-3.31-2-3.43-5.33-.26-7.52a11.92 11.92 0 0 1 11.76-.4c3.31 2 3.43 5.33.25 7.52a11.9 11.9 0 0 1-11.75.4Z"/></g><g id="Axo_Compound_Extrusion-2" data-name="Axo Compound Extrusion"><g id="Axo_Extrusion-2" data-name="Axo Extrusion"><path id="Axo_panel-5" data-name="Axo panel" class="cls-6" d="M174.86 193.93a4.61 4.61 0 0 0-2.56-3.67 11.87 11.87 0 0 0-11.76.4 4.59 4.59 0 0 0-2.3 3.84l.08 2.59a4.61 4.61 0 0 1 2.31-3.84 11.85 11.85 0 0 1 11.75-.4 4.6 4.6 0 0 1 2.57 3.67Z"/><path id="Axo_panel-6" data-name="Axo panel" class="cls-8" d="m166.91 205.93 17.71-12.19.09 2.59L167 208.52l-.09-2.59z"/></g><path id="Axo_Compound-2" data-name="Axo Compound" class="cls-7" d="m184.62 193.74-18.68-11.07-17.71 12.19 18.68 11.07Zm-23.82 4.43c-3.32-2-3.43-5.33-.26-7.51a11.87 11.87 0 0 1 11.76-.4c3.31 2 3.43 5.33.25 7.51a11.87 11.87 0 0 1-11.75.4Z"/></g><g id="Axo_Compound_Extrusion-3" data-name="Axo Compound Extrusion"><g id="Axo_Extrusion-3" data-name="Axo Extrusion"><path id="Axo_panel-7" data-name="Axo panel" class="cls-6" d="M157.25 206.05a4.58 4.58 0 0 0-2.56-3.68 11.9 11.9 0 0 0-11.75.4 4.61 4.61 0 0 0-2.31 3.84l.09 2.59a4.61 4.61 0 0 1 2.31-3.84 11.9 11.9 0 0 1 11.75-.4 4.58 4.58 0 0 1 2.56 3.68Z"/><path id="Axo_panel-8" data-name="Axo panel" class="cls-8" d="m149.2 218.11 17.71-12.18.09 2.59-17.71 12.18-.09-2.59z"/></g><path id="Axo_Compound-3" data-name="Axo Compound" class="cls-7" d="m148.23 194.86-17.71 12.19 18.68 11.06 17.71-12.18Zm-5 15.42c-3.32-2-3.43-5.32-.26-7.51a11.9 11.9 0 0 1 11.75-.4c3.32 2 3.43 5.33.26 7.52a11.87 11.87 0 0 1-11.78.39Z"/></g><g id="Axo_Compound_Extrusion-4" data-name="Axo Compound Extrusion"><g id="Axo_Extrusion-4" data-name="Axo Extrusion"><path id="Axo_panel-9" data-name="Axo panel" class="cls-6" d="M139.65 218.16a4.57 4.57 0 0 0-2.56-3.67 11.87 11.87 0 0 0-11.75.39 4.62 4.62 0 0 0-2.31 3.84l.09 2.59a4.57 4.57 0 0 1 2.31-3.83 11.85 11.85 0 0 1 11.75-.4 4.59 4.59 0 0 1 2.56 3.67Z"/><path id="Axo_panel-10" data-name="Axo panel" class="cls-8" d="m131.49 230.3 17.71-12.19.09 2.59-17.71 12.19-.09-2.59z"/></g><path id="Axo_Compound-4" data-name="Axo Compound" class="cls-7" d="m112.81 219.23 18.68 11.07 17.71-12.19-18.68-11.06Zm24.28-4.74c3.32 2 3.43 5.32.26 7.51a11.92 11.92 0 0 1-11.76.4c-3.31-2-3.43-5.33-.25-7.52a11.87 11.87 0 0 1 11.75-.39Z"/></g><g id="Axo_Compound_Extrusion-5" data-name="Axo Compound Extrusion"><g id="Axo_Extrusion-5" data-name="Axo Extrusion"><path id="Axo_panel-11" data-name="Axo panel" class="cls-6" d="M122.05 230.27a4.59 4.59 0 0 0-2.56-3.67 11.89 11.89 0 0 0-11.76.4 4.59 4.59 0 0 0-2.3 3.84l.09 2.59a4.59 4.59 0 0 1 2.3-3.84 11.92 11.92 0 0 1 11.76-.4 4.63 4.63 0 0 1 2.56 3.68Z"/><g id="Axo_Surface_2" data-name="Axo Surface*"><path id="Axo_panel-12" data-name="Axo panel" class="cls-7" d="m94.6 231.76 18.68 11.07.09 2.59-18.68-11.07-.09-2.59z"/><path id="Axo_panel-13" data-name="Axo panel" class="cls-8" d="m113.28 242.83 18.21-12.53.09 2.59-18.21 12.53-.09-2.59z"/></g></g><path id="Axo_Compound-5" data-name="Axo Compound" class="cls-7" d="m94.6 231.76 18.68 11.07 18.21-12.53-18.68-11.07Zm24.89-5.16c3.31 2 3.43 5.33.25 7.51a11.85 11.85 0 0 1-11.75.4c-3.32-2-3.43-5.33-.26-7.51a11.89 11.89 0 0 1 11.76-.4Z"/></g></g><g id="Axo_Compound_Extrusion-6" data-name="Axo Compound Extrusion"><path id="Axo_panel-14" data-name="Axo panel" class="cls-6" d="M194 150.2a4.57 4.57 0 0 0-2.56-3.67 11.85 11.85 0 0 0-11.75.4 4.58 4.58 0 0 0-2.31 3.84l.09 2.59a4.59 4.59 0 0 1 2.3-3.84 11.87 11.87 0 0 1 11.76-.4 4.59 4.59 0 0 1 2.56 3.67Z"/><path class="cls-7" d="M179.68 146.93a11.85 11.85 0 0 1 11.75-.4c2.29 1.35 3 3.38 2.26 5.22l9.74-1.52-18.68-11.07-18.2 12.53 11.39.87c-1.13-1.84-.57-4.05 1.74-5.63Z"/><path class="cls-9" d="M193.88 179c.14 4.2-2.86 6.57-6.65 6.7s-6.95-2-7.1-6.23 2.82-7.72 6.62-7.85 6.99 3.2 7.13 7.38Z"/><g id="Axo_Projection-2" data-name="Axo Projection"><g id="Axo_Surface_3" data-name="Axo Surface*"><path class="cls-10" d="m192.17 128.61 1.7 50.09c.08 2.43-2.93 4.5-6.72 4.63-3.51.12-6.46-1.46-7-3.62a3.33 3.33 0 0 1-.07-.54l-1.7-50.09c.08 2.43 3.23 4.29 7 4.16s6.87-2.24 6.79-4.63Z"/><path class="cls-9" d="m192.17 128.61 1.7 50.09c.08 2.43-2.93 4.5-6.72 4.63-3.51.12-6.46-1.46-7-3.62a7.68 7.68 0 0 0 .86.7c2.21 1.51 5.3-.18 7-7.7s.78-36.22.78-36.22l-6.07-1.38a7.28 7.28 0 0 1-4.28-2.66l-.11-3.37c.08 2.43 3.23 4.29 7 4.16s6.92-2.24 6.84-4.63Z"/></g><path d="M179 129.2c-.08-2.43 2.31-4.62 6.1-4.75s6.39 2.12 6.47 4.55c0 1.42.16 5.3.16 5.3s-.62 2.73-6.19 2.92c-5.17.18-6.14-2.5-6.14-2.5s-.31-4.22-.4-5.52Z" style="fill:#19b4bf"/><path class="cls-12" d="M185.49 134.51c-4.5.15-8.11-2.21-8.22-5.39s3.33-5.78 7.83-5.93 8.1 2.21 8.21 5.39-3.31 5.78-7.82 5.93Zm-.3-8.79c-3.28.11-5.67 1.85-5.62 3.32s2.55 3 5.83 2.93 5.67-1.84 5.62-3.32-2.55-3.04-5.83-2.93Z"/><ellipse class="cls-13" cx="185.2" cy="125.95" rx="8.02" ry="5.67" transform="rotate(-1.95 184.77 125.693)"/><ellipse class="cls-14" cx="185.15" cy="124.56" rx="8.02" ry="5.67" transform="rotate(-1.95 184.794 124.224)"/></g><path class="cls-15" d="m180.38 136.41.69 20.4s.33 7 1.26 6.09.54-6.89.54-6.89l-.64-18.72a2.13 2.13 0 0 1-1.85-.88Z"/><g id="Axo_Surface_4" data-name="Axo Surface*"><path id="Axo_panel-15" data-name="Axo panel" class="cls-7" d="m166.55 151.69 18.68 11.07.08 2.59-18.68-11.07-.08-2.59z"/><path id="Axo_panel-16" data-name="Axo panel" class="cls-8" d="m185.23 162.76 18.2-12.53.09 2.59-18.21 12.53-.08-2.59z"/></g><path class="cls-7" d="M193.69 151.75a5.47 5.47 0 0 1-2 2.29 11.89 11.89 0 0 1-11.76.4 5.58 5.58 0 0 1-2-1.88l-11.39-.87 18.68 11.07 18.2-12.53Z"/></g><g id="Axo_Compound_Extrusion-7" data-name="Axo Compound Extrusion"><path id="Axo_panel-17" data-name="Axo panel" class="cls-6" d="M175.75 162.76a4.57 4.57 0 0 0-2.56-3.68 11.87 11.87 0 0 0-11.75.4 4.61 4.61 0 0 0-2.31 3.84l.09 2.59a4.58 4.58 0 0 1 2.31-3.84 11.9 11.9 0 0 1 11.75-.4 4.6 4.6 0 0 1 2.56 3.68Z"/><path class="cls-7" d="M161.44 159.48a11.87 11.87 0 0 1 11.75-.4c2.29 1.36 3.05 3.38 2.26 5.22l9.74-1.52-18.68-11.07-18.2 12.53 11.39.87c-1.13-1.84-.57-4.05 1.74-5.63Z"/><g id="Axo_Surface_5" data-name="Axo Surface*"><path id="Axo_panel-18" data-name="Axo panel" class="cls-7" d="m148.31 164.24 18.68 11.07.09 2.59-18.68-11.06-.09-2.6z"/><path id="Axo_panel-19" data-name="Axo panel" class="cls-8" d="m166.99 175.31 18.2-12.53.09 2.59-18.2 12.53-.09-2.59z"/></g><path class="cls-7" d="M175.45 164.3a5.47 5.47 0 0 1-2 2.29 11.87 11.87 0 0 1-11.76.4 5.58 5.58 0 0 1-2-1.88l-11.39-.87 18.7 11.07 18.2-12.53Z"/></g><g id="Axo_Compound_Extrusion-8" data-name="Axo Compound Extrusion"><path id="Axo_panel-20" data-name="Axo panel" class="cls-6" d="M157.51 175.31a4.58 4.58 0 0 0-2.56-3.68 11.9 11.9 0 0 0-11.75.4 4.61 4.61 0 0 0-2.31 3.84l.09 2.59a4.58 4.58 0 0 1 2.31-3.84 11.9 11.9 0 0 1 11.75-.4 4.58 4.58 0 0 1 2.56 3.68Z"/><path class="cls-7" d="M143.2 172a11.9 11.9 0 0 1 11.75-.4c2.29 1.36 3.05 3.38 2.26 5.23l9.74-1.53-18.68-11.06-18.2 12.53 11.39.86c-1.13-1.81-.56-4.01 1.74-5.63Z"/><path class="cls-10" d="m156.5 177.56.2 12.3c.09 2.43-2.52 11.6-7.46 12.51a4.72 4.72 0 0 1-5.76-3.81 2 2 0 0 1-.06-.54l-.68-20c.08 2.43 3.24 4.29 7 4.16s6.84-2.18 6.76-4.62Z"/><path class="cls-16" d="M142.74 178c-.08-2.42 2.94-4.5 6.74-4.62s6.94 1.73 7 4.16-2.93 4.49-6.73 4.62-6.93-1.71-7.01-4.16Z"/><g id="Axo_Surface_6" data-name="Axo Surface*"><path id="Axo_panel-21" data-name="Axo panel" class="cls-7" d="m130.07 176.8 18.68 11.06.09 2.59-18.68-11.06-.09-2.59z"/><path id="Axo_panel-22" data-name="Axo panel" class="cls-8" d="m148.75 187.86 18.2-12.53.09 2.59-18.2 12.53-.09-2.59z"/></g><path class="cls-7" d="M157.21 176.86a5.59 5.59 0 0 1-2 2.29 11.92 11.92 0 0 1-11.76.4 5.6 5.6 0 0 1-2-1.89l-11.39-.86 18.68 11.06L167 175.33Z"/></g><g id="Axo_Compound_Extrusion-9" data-name="Axo Compound Extrusion"><path id="Axo_panel-23" data-name="Axo panel" class="cls-6" d="M139.27 187.86a4.59 4.59 0 0 0-2.56-3.68 11.9 11.9 0 0 0-11.75.4 4.62 4.62 0 0 0-2.31 3.84l.09 2.59a4.62 4.62 0 0 1 2.31-3.84 11.9 11.9 0 0 1 11.75-.4 4.59 4.59 0 0 1 2.56 3.68Z"/><path class="cls-7" d="M125 184.58a11.9 11.9 0 0 1 11.75-.4c2.29 1.36 3 3.39 2.26 5.23l9.75-1.52L130 176.82l-18.2 12.53 11.39.86c-1.1-1.84-.53-4.04 1.81-5.63Z"/><g id="Axo_Surface_7" data-name="Axo Surface*"><path id="Axo_panel-24" data-name="Axo panel" class="cls-7" d="m111.83 189.35 18.68 11.06.09 2.6-18.68-11.07-.09-2.59z"/><path id="Axo_panel-25" data-name="Axo panel" class="cls-8" d="m130.51 200.41 18.21-12.52.08 2.59-18.2 12.53-.09-2.6z"/></g><path class="cls-7" d="M139 189.41a5.51 5.51 0 0 1-2 2.29 11.92 11.92 0 0 1-11.76.4 5.6 5.6 0 0 1-2-1.89l-11.39-.86 18.68 11.07 18.21-12.53Z"/></g><g id="Axo_Compound_Extrusion-10" data-name="Axo Compound Extrusion"><path id="Axo_panel-26" data-name="Axo panel" class="cls-6" d="M121 200.41a4.57 4.57 0 0 0-2.56-3.67 11.85 11.85 0 0 0-11.75.4 4.59 4.59 0 0 0-2.31 3.83l.09 2.6a4.61 4.61 0 0 1 2.31-3.84 11.85 11.85 0 0 1 11.75-.4 4.57 4.57 0 0 1 2.56 3.67Z"/><path class="cls-7" d="M106.72 197.14a11.85 11.85 0 0 1 11.75-.4c2.29 1.35 3 3.38 2.26 5.22l9.75-1.52-18.69-11.07-18.2 12.53 11.39.87c-1.13-1.84-.56-4.05 1.74-5.63Z"/><path class="cls-9" d="M120.92 229.23c.15 4.2-2.86 6.57-6.65 6.69s-7-2-7.09-6.22 2.81-7.72 6.61-7.85 6.99 3.15 7.13 7.38Z"/><g id="Axo_Projection-3" data-name="Axo Projection"><g id="Axo_Surface_8" data-name="Axo Surface*"><path class="cls-10" d="m119.21 178.82 1.7 50.09c.08 2.43-2.93 4.5-6.72 4.63-3.51.11-6.46-1.46-7-3.62a2.52 2.52 0 0 1-.08-.54l-1.7-50.09c.09 2.43 3.23 4.29 7 4.16s6.88-2.2 6.8-4.63Z"/><path class="cls-9" d="m119.21 178.82 1.7 50.09c.08 2.43-2.93 4.5-6.72 4.63-3.51.11-6.46-1.46-7-3.62a6.21 6.21 0 0 0 .86.7c2.2 1.51 5.29-.18 7.05-7.7s.77-36.22.77-36.22l-6.07-1.39a7.19 7.19 0 0 1-4.27-2.65l-.12-3.37c.09 2.43 3.23 4.29 7 4.16s6.88-2.2 6.8-4.63Z"/></g><path class="cls-9" d="M105.46 179.29c-.08-2.43 2.93-4.5 6.73-4.63s6.94 1.74 7 4.16-2.93 4.5-6.72 4.63-6.92-1.73-7.01-4.16Z"/><path class="cls-12" d="M112.53 184.72c-4.5.15-8.1-2.22-8.21-5.39s3.33-5.78 7.82-5.94 8.11 2.22 8.22 5.39-3.36 5.79-7.83 5.94Zm-.3-8.79c-3.28.11-5.67 1.85-5.62 3.32s2.55 3 5.83 2.93 5.67-1.84 5.62-3.32-2.55-3.04-5.83-2.93Z"/></g><path class="cls-15" d="m107.42 186.61.69 20.41s.34 7 1.26 6.09.54-6.9.54-6.9l-.64-18.71a2.15 2.15 0 0 1-1.85-.89Z"/><g id="Axo_Surface_9" data-name="Axo Surface*"><path id="Axo_panel-27" data-name="Axo panel" class="cls-7" d="m93.59 201.9 18.68 11.07.09 2.59-18.68-11.07-.09-2.59z"/><path id="Axo_panel-28" data-name="Axo panel" class="cls-8" d="m112.27 212.97 18.21-12.53.08 2.59-18.2 12.53-.09-2.59z"/></g><path class="cls-7" d="M120.73 202a5.45 5.45 0 0 1-2 2.29 11.9 11.9 0 0 1-11.75.4 5.7 5.7 0 0 1-2-1.88l-11.39-.87L112.27 213l18.21-12.53Z"/></g><g id="Axo_Projection-4" data-name="Axo Projection"><g id="Axo_Surface_10" data-name="Axo Surface*"><path id="Axo_panel-29" data-name="Axo panel" class="cls-5" d="m88.19 173.78 25.94 15.37 2.25 65.97-25.95-15.37-2.24-65.97z"/><path id="Axo_panel-30" data-name="Axo panel" class="cls-6" d="m114.13 189.15 3.13-2.15 2.24 65.97-3.12 2.15-2.25-65.97z"/></g><path id="Axo_base-4" data-name="Axo base" class="cls-7" d="m88.19 173.78 3.12-2.15L117.26 187l-3.13 2.15-25.94-15.37z"/></g><path class="cls-5" d="m143.03 179.17 13.45-1.15 14.57-19.88-45.69.02 17.67 21.01z"/><ellipse id="Axo_base-5" data-name="Axo base" class="cls-15" cx="148.65" cy="149.03" rx="26.94" ry="17.22" transform="translate(-4.98 5.14)"/><g id="Axo_Projection-5" data-name="Axo Projection"><path class="cls-17" d="M174 148.17c.21 6.22-5.09 11.8-13 14.8a35.43 35.43 0 0 1-5.63 1.58 39.1 39.1 0 0 1-6.14.69c-14 .47-25.61-6.4-25.91-15.35s10.8-16.6 24.81-17.07c7.39-.25 14.11 1.54 18.85 4.61 3.51 2.26 5.93 5.22 6.75 8.56a10.61 10.61 0 0 1 .27 2.18Z"/><path d="M173.7 146c-3.33 4.87-8.26 11.31-12.73 17a35.43 35.43 0 0 1-5.63 1.58L167 137.43c3.46 2.26 5.88 5.22 6.7 8.57Z" style="fill:#a8c9f6"/></g><g id="Axo_Projection-6" data-name="Axo Projection"><path id="Axo_panel-31" data-name="Axo panel" class="cls-17" d="M161.55 163.54c0 .83 1.1 1.47 2.4 1.43s7.53-3.8 7.5-4.63v1.25c0 .83-6.2 4.58-7.5 4.63s-2.37-.6-2.4-1.43Z"/><path id="Axo_base-6" data-name="Axo base" class="cls-5" d="M161.55 163.54c0-.83 6.2-4.58 7.5-4.63s2.37.6 2.4 1.43-6.2 4.58-7.5 4.63-2.38-.6-2.4-1.43Z"/></g><path class="cls-19" d="M689.14 210.48v-4.25a1.13 1.13 0 0 0-.38-.63 6.3 6.3 0 0 1 .87-.59c3.26-1.87 8.79-1.55 11.27.73a1 1 0 0 0-.08.37v4.26c-.07-.79-.07-2.43-.07-2.43a.28.28 0 0 0 0-.09 1 1 0 0 0-.33-.63l-.09-.08a1.93 1.93 0 0 0-.53-.33 2.61 2.61 0 0 0-.42-.16l-.31-.08H698a4 4 0 0 0-1.44.32.59.59 0 0 0-.14.06 1.68 1.68 0 0 0-.45.3 1.29 1.29 0 0 0-.31.39.93.93 0 0 0 0 .13.72.72 0 0 0-.05.28v3h-1v-3.1a1.08 1.08 0 0 0-.28-.58.93.93 0 0 0-.15-.13 2.07 2.07 0 0 0-.6-.37h-.12a2.68 2.68 0 0 0-.7-.19l-.33-.05h-.11a4.5 4.5 0 0 0-1.35.12l-.25.07-.23.09-.22.11-.21.11-.08.06-.19.16-.07.07a1.21 1.21 0 0 0-.2.3.92.92 0 0 0-.09.39v2.46Z"/><path class="cls-15" d="M694.57 208.06a1.21 1.21 0 0 1-.64 1 4 4 0 0 1-3.9 0 1.39 1.39 0 0 1-.55-.58 1 1 0 0 1 0-.79 1.21 1.21 0 0 1 .2-.3l.07-.07.19-.16.08-.06.21-.11.22-.11.23-.09.25-.07a4.53 4.53 0 0 1 1.28-.12h.44a4.07 4.07 0 0 1 .77.2h.12l.38.2a2.11 2.11 0 0 1 .22.17.49.49 0 0 1 .13.12 1.19 1.19 0 0 1 .3.59s0 .12 0 .18Z"/><path class="cls-19" d="M689.48 208.47a1.39 1.39 0 0 0 .55.58 4 4 0 0 0 3.9 0 1.21 1.21 0 0 0 .64-1v3h-1.46l-.8-.06-.67-.06-.6-.07-.91-.13-.61-.11h-.14v-2.46a.92.92 0 0 1 .09-.39 1 1 0 0 0 .01.7Z"/><path class="cls-19" d="M713.44 201.14v.51a7.21 7.21 0 0 1-1.71 4.26A13 13 0 0 1 708 209c-6.29 3.57-15.76 4.06-22.91 1.6a16.17 16.17 0 0 1-7.35-4.69 7.2 7.2 0 0 1-1.7-4.18v-.55a2.64 2.64 0 0 1 0-.28 5.58 5.58 0 0 1 .08-.57 7.13 7.13 0 0 1 1.18-2.76 2.83 2.83 0 0 1 .2-.28 12.5 12.5 0 0 1 3.72-3.23l.27-.16q.52-.3 1.08-.57l.73-.34.39-.16c.44-.18.88-.36 1.34-.52l.22-.07a30 30 0 0 1 4.32-1.06l.72-.11 1-.13 1.16-.1c.85-.05 1.69-.07 2.54-.07h1.53c.58 0 1.15.08 1.72.14.1 0 .88.1 1.16.15l.74.11c.2 0 1.11.21 1.21.24l.91.2.3.08.3.08.58.17.58.17.84.29.82.32.49.21c.45.19.89.41 1.32.63l.39.22.14.08.39.23.44.29c.18.11.31.2.43.29.28.2.56.41.82.62l.37.33c.25.22.49.45.71.68l.32.36c.15.17.29.35.43.53a8 8 0 0 1 .77 1.24l.08.15c.08.18.16.36.23.54l.09.26a10.78 10.78 0 0 1 .16.57 1.74 1.74 0 0 1 .05.22 2 2 0 0 1 0 .24V200.88c.12.12.12.19.13.26Zm-10.63 8.69c.27-.08.51-.16.74-.25l.55-.2a19.21 19.21 0 0 0 2.49-1.17c6.53-3.74 6.56-9.8 0-13.54s-17.19-3.73-23.74 0-6.55 9.8 0 13.54a18.12 18.12 0 0 0 2 1l.56.22.24.09.33.12.48.16.69.21.6.17c.35.09.7.18 1.06.25h.35l.24.05h.28l.47.08.91.13 1.27.13.8.06H696.35l1.1-.08 1-.11h.35l.51-.08.56-.1c.31-.05.61-.11.91-.18l.41-.09.61-.15.61-.17Z"/><path class="cls-19" d="M685.45 202.58a.39.39 0 0 0-.1-.08l-.12-.09a1 1 0 0 0-.23-.12l-.16-.08-.16-.06-.16-.05h-.36a3.89 3.89 0 0 0-2.79.4l-.15.1a1.32 1.32 0 0 0-.24.23 2.72 2.72 0 0 1-.46-1.28v-1.58a.87.87 0 0 1 .07-.31.89.89 0 0 0-.05.45 1.35 1.35 0 0 0 .64.85 4 4 0 0 0 2.63.43 2.68 2.68 0 0 0 1.66-.81 1 1 0 0 0 .23-.62v3a.22.22 0 0 0-.05-.08 1 1 0 0 0-.2-.3ZM708.67 203.62a1.14 1.14 0 0 0 .23-.65v1.61a1.13 1.13 0 0 1-.15.47 8.39 8.39 0 0 1-2.78 2.36v-1.31a.87.87 0 0 0-.11-.41v-.1a1.24 1.24 0 0 0-.35-.37l-.08-.06a2.38 2.38 0 0 0-.55-.28h-.1a4 4 0 0 0-.52-.13H703.8a15.63 15.63 0 0 1 0-1.63.94.94 0 0 1 .1-.39 1 1 0 0 0-.09.53 1.36 1.36 0 0 0 .65.85 4 4 0 0 0 2.62.43 2.73 2.73 0 0 0 1.59-.92Z"/><path class="cls-15" d="M703.61 204.63h.59l.51.13h.1a2.63 2.63 0 0 1 .41.19 1 1 0 0 1 .17.1l.08.06a1.22 1.22 0 0 1 .17.15 1.44 1.44 0 0 1 .23.32 1 1 0 0 1 .07.68c-.3 1.06-2.78 1.69-4.39.78a1.28 1.28 0 0 1-.75-1 1 1 0 0 1 .18-.58.61.61 0 0 1 .12-.16l.1-.1.12-.1.15-.1.11-.06a3.11 3.11 0 0 1 .69-.28h1.34Z"/><path class="cls-20" d="M719.74 202.51a.22.22 0 0 0 0 .08c0 .08 0 .17-.05.25a1.7 1.7 0 0 1 0 .22c0 .13-.06.27-.09.41V203.77a4.28 4.28 0 0 1-.14.43s0 .08 0 .12a1.34 1.34 0 0 1-.07.18c0 .1-.08.21-.13.31s-.11.27-.17.4l-.15.29a.54.54 0 0 1-.07.13 1.62 1.62 0 0 1-.1.18c-.08.14-.16.29-.25.43l-.11.18-.37.53-.18.25a14.7 14.7 0 0 1-1.82 1.93 19.19 19.19 0 0 1-2.42 1.83V200.49a2 2 0 0 0 0-.24 1.74 1.74 0 0 0-.05-.22 2.86 2.86 0 0 0-.07-.28c0-.11-.06-.2-.09-.29l-.09-.26c-.07-.18-.15-.36-.23-.54l-.08-.15a8.83 8.83 0 0 0-.77-1.24c-.07-.09-.13-.18-.2-.26l-.23-.27-.32-.36c-.22-.23-.46-.46-.71-.68l-.37-.33c-.26-.21-.53-.42-.82-.62-.13-.09-.25-.19-.39-.27s-.31-.2-.45-.29l-.42-.25-.14-.08-.39-.22q-.64-.33-1.32-.63l-.49-.21-.82-.32-.84-.29-.58-.17-1.18-.33-.57-.13a3.46 3.46 0 0 0-.34-.07l-.3-.07-.31-.06-.6-.11-.74-.11c-.28-.05-.57-.08-.86-.12h-.3c-.57-.06-1.14-.11-1.72-.14H695c-.85 0-1.69 0-2.54.07l-.82.07h-.34l-1 .13-.43.06-.29.05a28.7 28.7 0 0 0-4.32 1.06l-.22.07c-.46.16-.9.34-1.34.52l-.39.16-.73.34q-.56.27-1.08.57l-.27.16a12.64 12.64 0 0 0-3.53 2.86l-.23.3a2.83 2.83 0 0 0-.2.28 7.12 7.12 0 0 0-1.18 2.76 5.58 5.58 0 0 0-.08.57 2.64 2.64 0 0 0 0 .28V211a18.5 18.5 0 0 1-2.38-1.79c-.36-.32-.7-.64-1-1l-.22-.25-.22-.24-.2-.24s-.24-.3-.26-.34-.25-.33-.32-.43l-.1-.15-.14-.21-.22-.35-.21-.39c-.08-.13-.14-.26-.2-.38s-.11-.23-.16-.35v-.08c-.09-.19-.16-.39-.23-.58l-.06-.17-.11-.38-.06-.24c0-.12-.06-.23-.08-.35a1.7 1.7 0 0 1 0-.22v-.34c.51-3.94 3.75-7 7.26-9 11.6-6.63 31.29-5.25 39.55 3a10.63 10.63 0 0 1 3.09 5.99Z"/><path class="cls-19" d="M684 206.67c.26.92 2.34 1.66 4.13.89a1.69 1.69 0 0 0 .85-.65 1 1 0 0 0 .16-.61v4.18H688.79c-.36-.07-.71-.16-1.06-.25h-.08l-.52-.15-.58-.17h-.09a14.78 14.78 0 0 1-1.55-.7c-.17-.08-1-.5-1-.68v-2a1 1 0 0 1 0-.29v-.08a.94.94 0 0 0 .09.51ZM693.89 198.55a3 3 0 0 1-1.36 2.7c-1.71.88-3.81-1.41-3.83-3.62V195a1.21 1.21 0 0 0 .63.91 4.06 4.06 0 0 0 3.9 0 1.22 1.22 0 0 0 .65-1c.01 1.23.01 2.44.01 3.64Z"/><path class="cls-15" d="m704.16 202.17.1-.07a2.42 2.42 0 0 1 .62-.33l.17-.05a4.26 4.26 0 0 1 .66-.15h.93a4 4 0 0 1 1 .2 2.3 2.3 0 0 1 .49.2l.12.07.18.13a2.28 2.28 0 0 1 .22.22 1.16 1.16 0 0 1 .25.54 1.19 1.19 0 0 1-.23.72 2.73 2.73 0 0 1-1.67.81 4 4 0 0 1-2.62-.43 1.36 1.36 0 0 1-.65-.85 1 1 0 0 1 .09-.53v-.08a1.16 1.16 0 0 1 .15-.21l.06-.07ZM685.3 202.46a.82.82 0 0 1 .15.12 1.42 1.42 0 0 1 .26.29.41.41 0 0 1 0 .09 1 1 0 0 1 .12.59 1.39 1.39 0 0 1-.65.85c-1.23.82-3.6.54-4.29-.38a1.07 1.07 0 0 1-.22-.75 1.14 1.14 0 0 1 .13-.35v-.06l.05-.07a2.26 2.26 0 0 1 .28-.27l.1-.07a3.45 3.45 0 0 1 1.31-.47 4.68 4.68 0 0 1 1.53 0h.36l.16.05.16.06.14.07a1.91 1.91 0 0 1 .25.13ZM689.13 206.3a1 1 0 0 1-.16.61 1.69 1.69 0 0 1-.85.65c-1.79.77-3.87 0-4.13-.89a.94.94 0 0 1 0-.64.81.81 0 0 1 .06-.13 1.51 1.51 0 0 1 .53-.5l.08-.05a3.48 3.48 0 0 1 1.18-.38h.18a3.47 3.47 0 0 1 .72 0h.26a4 4 0 0 1 1.39.43l.06.05a1.41 1.41 0 0 1 .62.77.56.56 0 0 0 .06.08ZM700.73 208a1.19 1.19 0 0 1-.65 1 4 4 0 0 1-3.9 0 1.42 1.42 0 0 1-.55-.59 1.06 1.06 0 0 1 0-.66 1 1 0 0 1 .22-.38l.09-.11a2.51 2.51 0 0 1 .28-.21l.21-.12a.84.84 0 0 1 .14-.06l.2-.08a4.25 4.25 0 0 1 1.24-.24 4.64 4.64 0 0 1 .53 0h.53l.29.07.44.17a1.93 1.93 0 0 1 .53.33l.09.08a1.17 1.17 0 0 1 .33.63.28.28 0 0 1 0 .09ZM694.86 194.85a1.11 1.11 0 0 1 .29-.7.23.23 0 0 1 .07-.07l.06-.06.22-.16.13-.08.12-.06.15-.07.14-.06c.14-.05.3-.09.46-.13h.56a4.87 4.87 0 0 1 .55 0 4.37 4.37 0 0 1 1.17.21l.13.05h.09a3 3 0 0 1 .4.21.88.88 0 0 1 .17.12.7.7 0 0 1 .15.14 1.39 1.39 0 0 1 .27.41 1 1 0 0 1 0 .69 1.36 1.36 0 0 1-.55.59 4 4 0 0 1-3.9 0 1.29 1.29 0 0 1-.65-.91Z"/><path d="M711.73 205.91a7.21 7.21 0 0 0 1.71-4.26V211l-.4.25-.55.33-.92.5h-.08l-.49.24-.92.43-1 .41-.28.11a36.09 36.09 0 0 1-6.15 1.74c-1 .19-2 .35-3 .46l-1.07.11-.94.08-1.77.08a43.22 43.22 0 0 1-8.92-.66l-1.09-.22A31 31 0 0 1 676 211v-9.52.26a7.2 7.2 0 0 0 1.7 4.18 16.17 16.17 0 0 0 7.3 4.68c7.15 2.46 16.62 2 22.91-1.6a13 13 0 0 0 3.82-3.09Z" style="fill:#0c3231"/><path class="cls-15" d="M705.46 196.34a1.12 1.12 0 0 1-.14.67 1.47 1.47 0 0 1-.6.53c-1.73.93-4.1.24-4.38-.78a.89.89 0 0 1 0-.58.14.14 0 0 1 0-.07 1.21 1.21 0 0 1 .2-.3 1.79 1.79 0 0 1 .49-.37l.1-.05.12-.06.19-.07.19-.07h.46a4.34 4.34 0 0 1 2.07.14h.09a2.54 2.54 0 0 1 .78.45.13.13 0 0 1 .07.06 1.34 1.34 0 0 1 .3.5s.06-.02.06 0ZM688.7 195v-.11a1.27 1.27 0 0 1 .25-.57l.07-.06.16-.16.28-.18a3.5 3.5 0 0 1 1.22-.39h.32a4.24 4.24 0 0 1 1.56.18l.2.08h.1l.12.06.25.13a1.83 1.83 0 0 1 .38.34v.06a.93.93 0 0 1 .11.19.3.3 0 0 1 0 .08.45.45 0 0 1 0 .11v.2a1.22 1.22 0 0 1-.65 1 4.06 4.06 0 0 1-3.9 0 1.21 1.21 0 0 1-.63-.91ZM708.71 199.63a1.31 1.31 0 0 1-.65.84c-1.23.82-3.6.56-4.29-.36a1.15 1.15 0 0 1-.23-.66 1.18 1.18 0 0 1 .22-.56.71.71 0 0 1 .11-.12 2.08 2.08 0 0 1 .32-.27l.1-.06a2.67 2.67 0 0 1 .46-.2 4 4 0 0 1 1-.22 4.34 4.34 0 0 1 1.38.12l.27.08.2.07.11.05a2.43 2.43 0 0 1 .48.28l.09.08.07.07a1.83 1.83 0 0 1 .13.16 1.1 1.1 0 0 1 .23.7Z"/><path class="cls-19" d="M700.08 208.93a1.19 1.19 0 0 0 .65-1v2.42c-.3.07-.6.13-.91.18l-.56.1-.86.12c-.32 0-.64.09-1 .11l-1.28.09h-.6v-3a.72.72 0 0 1 .05-.28 1.06 1.06 0 0 0 0 .66 1.42 1.42 0 0 0 .55.59 4 4 0 0 0 3.96.01Z"/><path class="cls-15" d="m687.67 195.63.2.11a2.9 2.9 0 0 1 .29.19l.11.1.06.06.09.11a1 1 0 0 1 .21.59 1.09 1.09 0 0 1-.53.89 4 4 0 0 1-3.89.16 1.49 1.49 0 0 1-.6-.54 1 1 0 0 1-.12-.78c0-.13.07-.16.08-.19l.1-.15.05-.06a1.72 1.72 0 0 1 .28-.25l.15-.09.16-.09a3.23 3.23 0 0 1 .76-.27c.11 0 .21 0 .32-.06h.54a3.58 3.58 0 0 1 .65 0h.35l.3.08Z"/><path class="cls-19" d="M705.32 197a1.13 1.13 0 0 0 .14-.67.77.77 0 0 1 0 .15v1.56a3.1 3.1 0 0 0-1.19.39l-.1.06a1.18 1.18 0 0 0-.32.27 1.06 1.06 0 0 0-.32.58v2.67c-1.8 1.44-3.24.73-3.24-1.13v-4.38a.73.73 0 0 1 .08-.33.89.89 0 0 0 0 .58c.28 1 2.65 1.71 4.38.78a1.47 1.47 0 0 0 .57-.53Z"/><path class="cls-5" d="m732 180.73 4.19-2.4c2.19-1.36 4.06-3.81 4.88-7.65 1.06-4.94.09-10.54-1.59-15.28a45.32 45.32 0 0 0-8.55-14.59c-3.33-3.79-7.77-7.41-12.63-8.95-3.76-1.19-6.81-.83-9.07.37l-.28.15-.1.06c-1.27.75-2.55 1.49-3.84 2.2l-.14.08a10 10 0 0 0-1.63 1.24l-.28.27-.25.27-.27.31-.24.3a9.53 9.53 0 0 0-.57.84l-.1.15-.21.36-.27.53a1.51 1.51 0 0 0-.09.18l-.05.1c-.06.13-.12.27-.17.4s-.11.26-.16.4-.11.28-.15.4v.11l-.09.26c0 .18-.11.35-.16.53s-.15.58-.22.88-.19.9-.25 1.36c0 .3-.08.61-.12.91s0 .31 0 .46v3.22a3 3 0 0 0 0 .31 1.21 1.21 0 0 0 0 .19v.56a37.92 37.92 0 0 0 2.53 10.09c0 .08.78 1.83.85 2s.09.21.15.31a1.76 1.76 0 0 0 .09.2c.21.44.43.88.65 1.32l.36.68a44.64 44.64 0 0 0 8.4 11.12c.44.42.88.82 1.33 1.2a23.46 23.46 0 0 0 10.81 5.61l.42.07.45.06H726.91a4.51 4.51 0 0 0 .52 0h1.04c.23 0 .46-.06.68-.11l.57-.12.21-.06.24-.07.25-.08.24-.09.2-.07.39-.17a8.36 8.36 0 0 0 .75-.42Zm17.9-41.92s0 64.48.06 64.54l-55-31.3-.06-64.54Z"/><path class="cls-19" d="M683.45 196.79a.88.88 0 0 1 .06-.33 1 1 0 0 0 .1.84 1.49 1.49 0 0 0 .6.54 4 4 0 0 0 3.89-.16 1.11 1.11 0 0 0 .53-.85v4.43a2 2 0 0 1-.53 1.47c-.67.6-1.67.23-2.4-.28v-2.57a.57.57 0 0 0 0-.13.92.92 0 0 0-.17-.4.43.43 0 0 1 0-.07 1.42 1.42 0 0 0-.22-.21.13.13 0 0 0-.07-.06l-.15-.11a3.05 3.05 0 0 0-1.26-.44h-.31l-.07-1.67Z"/><path class="cls-15" d="M722 201.42v.24a10.59 10.59 0 0 1-2.49 6.29 18.83 18.83 0 0 1-5.52 4.51c-13.48 7.67-36.22 5.37-44.15-4.5a10.4 10.4 0 0 1-2.49-6.12v-.35a1.85 1.85 0 0 1 0-.25v-.39a1.48 1.48 0 0 1 0-.21v-.2a9.92 9.92 0 0 1 1.34-3.9 4.66 4.66 0 0 1 .25-.4l.21-.34a1.43 1.43 0 0 0 .14-.2 18.23 18.23 0 0 1 5.37-4.79l.63-.37c.29-.17.59-.33.89-.49a34.94 34.94 0 0 1 8.07-2.93l1.33-.28a46.68 46.68 0 0 1 13.72-.65l.74.08.86.1a41.32 41.32 0 0 1 7.68 1.77 24.69 24.69 0 0 1 10.3 6.21l.26.29c.29.34.57.69.82 1.05l.15.22.16.24.06.09.15.24a1.59 1.59 0 0 0 .13.22l.18.33.16.31.05.1c0 .11.09.22.14.32l.14.33a1.8 1.8 0 0 0 .08.21c.08.22.16.45.22.68 0 0 0 .1.05.15s0 .21.08.33.05.2.07.31v.11c0 .17.05.28.06.38s0 .28 0 .42v.37c.16.2.16.33.16.47Zm-52.42.07v.99a.17.17 0 0 0 0 .07v.34a1.7 1.7 0 0 0 0 .22c0 .12.05.23.08.35l.06.24.11.38.06.17c.07.19.14.38.23.58v.08l.15.33.2.39.2.36.22.36.16.24.1.15.52.69.06.08.2.24.22.24.22.25c3.06 3.19 7.86 5.42 13.33 6.62l.42.09.26.05H686.79a47.29 47.29 0 0 0 8.92.66h.64l1.13-.06 1.52-.14.49-.05a38.53 38.53 0 0 0 9.11-2.2l.67-.27.58-.25.92-.43.17-.08.32-.16h.08l.87-.48.6-.35.4-.25a16.77 16.77 0 0 0 4.06-3.54l.18-.22.18-.25.37-.53.11-.18c.09-.14.17-.29.25-.43a1.62 1.62 0 0 0 .1-.18.54.54 0 0 0 .07-.13l.15-.29.17-.38.13-.33a1.34 1.34 0 0 0 .07-.18s0-.08 0-.12.1-.29.14-.43 0-.12 0-.17v-.13c0-.14.07-.28.09-.41a1.7 1.7 0 0 0 0-.22c0-.08 0-.17.05-.25a.22.22 0 0 1 0-.08v-.59a2 2 0 0 0 0-.21v-.19a2 2 0 0 0 0-.25v-.16a9.64 9.64 0 0 0-2.28-5.65c-7.39-9.19-28.35-11.06-40.56-4.12a17.39 17.39 0 0 0-5.05 4.13 9.57 9.57 0 0 0-2.29 6Z"/><path class="cls-5" d="M667.39 201.84a10.47 10.47 0 0 0 2.49 6.12c7.93 9.87 30.67 12.17 44.15 4.5a18.83 18.83 0 0 0 5.52-4.51 10.59 10.59 0 0 0 2.49-6.29v1.82c0 2.68-1.15 5.7-4.29 8.51-3.84 3.43-9.3 5.44-14.36 6.41a47.18 47.18 0 0 1-17.29 0c-5.07-.95-10.54-2.95-14.39-6.36-3-2.65-4.22-5.49-4.33-8.08v-2.45c0 .12.01.22.01.33Z"/><path class="cls-19" d="M703.54 204.46v-5a1.13 1.13 0 0 0 .23.61c.69.92 3.06 1.18 4.29.36a1.31 1.31 0 0 0 .65-.84 1.08 1.08 0 0 0-.16-.67 1 1 0 0 1 .17.52v1.61a2.43 2.43 0 0 1-.29 1l-.28-.19a3.65 3.65 0 0 0-1.51-.41h-1.02a3.37 3.37 0 0 0-.57.14h-.12a2.21 2.21 0 0 0-.67.34l-.1.07-.09.09-.06.07-.06.06-.06.09a.81.81 0 0 0-.07.14.94.94 0 0 0-.1.39v1.63h-.11a.18.18 0 0 1-.07-.01Z"/><path class="cls-22" d="M677 193.51c-3.51 2-6.75 5.1-7.26 9a.17.17 0 0 1 0-.07 2 2 0 0 1 0-.24v-.75a9.59 9.59 0 0 1 2.29-6 17.39 17.39 0 0 1 5.05-4.13c12.21-6.94 33.17-5.07 40.56 4.12a9.64 9.64 0 0 1 2.28 5.65v.16a.76.76 0 0 1 0 .15V201.69a.76.76 0 0 1 0 .15v.65a10.63 10.63 0 0 0-3.23-6c-8.44-8.23-28.13-9.61-39.69-2.98Z"/><path class="cls-23" d="M694.87 198.35c0 2.29 1.83 3.9 3.66 2.44a4.27 4.27 0 0 0 1.43-2.42 3.68 3.68 0 0 0 .09-.82v-2.72a.81.81 0 0 0-.06-.31v-.1a1.17 1.17 0 0 0-.33-.41 2.16 2.16 0 0 0-.62-.37h-.09a3.84 3.84 0 0 0-1.28-.26 5.24 5.24 0 0 0-.57 0h-.54a4.63 4.63 0 0 0-.48.14h-.09l-.2.09h-.08l-.17.11-.22.16-.06.06a.23.23 0 0 0-.07.07 1 1 0 0 0-.29.75Zm-6.23 2.91v-4.43a1 1 0 0 0-.21-.63l-.09-.11-.06-.06-.06-.06a2.92 2.92 0 0 0-.34-.23l-.2-.11-.44-.16-.3-.08h-.35a3.58 3.58 0 0 0-.65 0h-.54l-.32.06a4 4 0 0 0-.76.27l-.16.09-.15.09a1.72 1.72 0 0 0-.28.25l-.05.06-.1.15-.05.09a1 1 0 0 0-.07.37v1.63h-.21a4.2 4.2 0 0 0-.81.05c-.17 0-.36.08-.55.13a2.93 2.93 0 0 0-.7.31l-.1.07a1.32 1.32 0 0 0-.32.3 1.74 1.74 0 0 0-.11.18v.08a.82.82 0 0 0-.09.36v1.58a2.72 2.72 0 0 0 .46 1.28.45.45 0 0 0-.09.11v.06a.79.79 0 0 0-.13.35.76.76 0 0 0 0 .14V205c0 .58 1 1.45 1.52 1.8a13.75 13.75 0 0 0 1.72 1.07v.53c0 .18.79.6 1 .68a16.48 16.48 0 0 0 1.53.69l-.37-.12-.2-.07-.48-.18-.56-.22a18.12 18.12 0 0 1-2-1c-6.56-3.74-6.56-9.8 0-13.54s17.18-3.76 23.74 0 6.54 9.8 0 13.54a18.11 18.11 0 0 1-2.43 1.15c-.46.17-.88.32-1.3.45a18.55 18.55 0 0 0 2.37-1.12c.15-.09.75-.46.75-.64v-.64a8.39 8.39 0 0 0 2.78-2.36 1.13 1.13 0 0 0 .15-.47v-1.56a1 1 0 0 0-.25-.66l-.07-.07-.15-.15a2.43 2.43 0 0 0 .29-1v-1.61a1 1 0 0 0-.17-.52l-.06-.09a1.29 1.29 0 0 0-.16-.17l-.09-.08a2.24 2.24 0 0 0-.48-.28h-.08l-.23-.08-.27-.08a4.37 4.37 0 0 0-1.33-.12 3.25 3.25 0 0 0-.37 0v-1.56a.77.77 0 0 0 0-.15v-.07a1.16 1.16 0 0 0-.3-.5.13.13 0 0 0-.07-.06 2 2 0 0 0-.78-.45h-.09a4.36 4.36 0 0 0-2-.15h-.5l-.19.07-.19.07-.12.06-.1.05a1.51 1.51 0 0 0-.63.54l-.06.13a.14.14 0 0 0 0 .07.73.73 0 0 0-.08.33v4.38c0 1.86 1.44 2.57 3.24 1.13v2.61H702.49a3.72 3.72 0 0 0-.72.29.6.6 0 0 0-.11.06l-.15.1-.12.1-.1.1a.61.61 0 0 0-.12.16.62.62 0 0 0-.11.17c-2.48-2.28-8-2.6-11.27-.73a6.3 6.3 0 0 0-.87.59 1.46 1.46 0 0 0-.24-.17l-.06-.05a3.26 3.26 0 0 0-1.62-.2h-.25a3.47 3.47 0 0 0-.72 0h-.18v-1.6a.94.94 0 0 0-.1-.39l-.08-.14v-.42c.73.51 1.73.88 2.4.28a2 2 0 0 0 .57-1.47Zm.06-3.78v.15c.07 2.21 2.12 4.5 3.83 3.62a3 3 0 0 0 1.36-2.7v-3.81a.31.31 0 0 0 0-.08.38.38 0 0 0-.05-.11l-.11-.19v-.06a1.78 1.78 0 0 0-.38-.34l-.18-.1-.19-.09h-.1l-.2-.08a4.42 4.42 0 0 0-1.56-.18H690.78a3.24 3.24 0 0 0-1.22.39.41.41 0 0 0-.11.07l-.12.08-.17.14-.11.11a1.15 1.15 0 0 0-.25.57v.08s-.08 1.7-.1 2.53Z"/><path class="cls-19" d="M737.53 167.14a18.45 18.45 0 0 1-1.72 9.53 10 10 0 0 1-3.48 3.87l-.31.18a8.81 8.81 0 0 1-.81.41l-.34.15-.25.09-.24.09-.25.08-.45.13-.57.12c-.22.05-.45.08-.68.11h-1.04a4.51 4.51 0 0 1-.52 0 1.08 1.08 0 0 1-.18 0h-1.1l-.45-.06-.42-.07a18.91 18.91 0 0 1-4.92-1.66 29.32 29.32 0 0 1-5.89-4c-.45-.38-.89-.78-1.33-1.2a44 44 0 0 1-8.4-11.12l-.36-.68c-.22-.44-.44-.88-.65-1.32l-.09-.2-.36-.79c-.08-.17-.61-1.42-.64-1.5a38.69 38.69 0 0 1-2.53-10.09v-.56a1.21 1.21 0 0 1 0-.19v-3.99c0-.16.07-.61.12-.91.07-.46.15-.91.25-1.36s.14-.59.22-.88.11-.35.16-.53l.13-.37a3.62 3.62 0 0 1 .13-.35c.07-.19.12-.32.18-.45s.11-.27.17-.4l.05-.1.09-.18c.08-.18.18-.35.27-.53l.21-.36.1-.15q.27-.44.57-.84l.24-.3.23-.27.29-.31.28-.27a5.92 5.92 0 0 1 .59-.52 8 8 0 0 1 1-.72l.26-.15a10.71 10.71 0 0 1 6.72-1c4.09.59 8.06 3 11.21 5.65 7.98 6.76 13.98 18.02 14.51 27.97Zm-5.27 4.15c3.62-9-4-25.54-14.75-30.83-7.66-3.77-13.67.08-13.65 8.89 0 9.62 7.17 21.38 15.65 25.56 5.35 2.64 10.59 1.77 12.75-3.62Z"/><path class="cls-22" d="m750 203.35.08.05-47.95 27.41a19.69 19.69 0 0 1-8.15 2.52l-51.3-29.21a3.57 3.57 0 0 1 .62-1.44.35.35 0 0 1 0-.08l.15-.2.1-.12.09-.12.19-.22.12-.13.14-.14.21-.21.05-.05.27-.25.14-.12.56-.45.6-.43.2-.14.25-.15.32-.21L695 172.05ZM717.76 212c3.14-2.81 4.32-5.83 4.29-8.51v-3.32c0-.14 0-.21-.05-.32s0-.14 0-.17 0-.21-.07-.31-.06-.22-.08-.33a1.31 1.31 0 0 0-.05-.15c-.06-.23-.14-.46-.22-.68l-.08-.21-.14-.33c-.05-.1-.17-.38-.19-.42l-.16-.31v-.09c-.05-.08-.09-.16-.13-.24s-.09-.14-.13-.22l-.15-.24-.06-.09-.16-.24a2.17 2.17 0 0 0-.15-.22c-.25-.36-.53-.71-.82-1.05l-.26-.29c-3.91-4.31-10.62-7-18-8l-.86-.1-.74-.08a47.65 47.65 0 0 0-13.72.65l-1.33.28a34 34 0 0 0-8.07 2.93c-.3.16-.6.32-.89.49l-.63.37a18.41 18.41 0 0 0-4.87 4.13c-.18.22-.34.44-.5.66 0 .07-.09.14-.14.2l-.21.34a3 3 0 0 0-.24.38 10.23 10.23 0 0 0-1.35 3.92v.2a1.48 1.48 0 0 0 0 .21V203.97c.11 2.59 1.35 5.43 4.33 8.08 3.85 3.41 9.32 5.41 14.39 6.36a47.18 47.18 0 0 0 17.29 0c4.85-.98 10.31-2.99 14.15-6.41Z"/><path class="cls-24" d="m670.44 237.09-7.72 10.67-23.08-13.14 7.66-10.71 23.14 13.18z"/><path class="cls-15" d="m663.75 252.45-29.33-16.7 11.84-16.53L675.67 236Zm-18.9-19 16.84 9.58 3.52-4.86-16.86-9.6Z"/><path class="cls-25" d="m753.74 138.05.09.06.22.15.15.14a2.39 2.39 0 0 1 .23.26l.08.12v.06a.25.25 0 0 1 0 .07l.06.1.1.21a3.52 3.52 0 0 1 .16.49v.37a.77.77 0 0 0 0 .15v.19a.57.57 0 0 0 0 .13v.32l.05 54.55a9.55 9.55 0 0 1-2.63 6.09 7.18 7.18 0 0 1-1.75 1.41c-.5 0-.05-64.55-.05-64.55l-55-31.3a3.57 3.57 0 0 1 2.33-.55 2.13 2.13 0 0 1 .76.25c18.57 10.43 36.97 20.7 55.2 31.28Z"/><path class="cls-7" d="m695.7 107.07 55 31.3s-.45 64.55.05 64.55l-.76.43c-.06-.06-.06-64.54-.06-64.54l-55-31.3Z"/><path class="cls-25" d="m750.04 203.4.04 40.23-80.22 45.86-.01-14.55 32.24-44.13 47.95-27.41z"/><path class="cls-20" d="m719.82 265.28-.2.07a3.18 3.18 0 0 0-.37.14l-.55.23a.59.59 0 0 0-.14.06c-.18.08-.36.16-.55.26l-.79.4c-.06 0-.76.39-.85.44-1 .54-2.12 1.19-3.39 1.92-5.53 3.15-13.8 7.88-17.93 11.48s-4.13 6.08-4.81 7.71-2 2.43-6.14 4.75l-1.7.95-.46.24-.7.34-.48.22a13.56 13.56 0 0 1-2 .72l-.5.13a7.79 7.79 0 0 1-1.78.21H674.93l-.15-.05a.45.45 0 0 1-.11 0h-.07l-.29-.11h-.21l-.1-.39-.18-.09-.12-.06-.21-.13-.2-.13-.16-.11-.15-.11a10.3 10.3 0 0 1-3.1-4.88l80.22-45.86q0 13.41-11.37 19.91c-1.41.81-2.68 1.49-3.83 2.07l-1 .47-.9.42-.84.37-.41.16-.76.31-.72.26-.34.11a10.58 10.58 0 0 1-3.6.66h-.16a3.24 3.24 0 0 1-.46-.05h-.65l-.15-.06h-.07l-.1-.05a1.6 1.6 0 0 1-.3-.17.91.91 0 0 1-.16-.11l-.12-.09a14.19 14.19 0 0 1-1.52-2 1.63 1.63 0 0 0-.46-.37 1.34 1.34 0 0 0-.27-.13h-.28a3.78 3.78 0 0 0-1.75.2Z"/><path class="cls-16" d="m708.85 132.44.1-.06.28-.15c2.26-1.2 5.31-1.56 9.07-.37 4.86 1.54 9.3 5.16 12.63 8.95a45.32 45.32 0 0 1 8.55 14.59c1.68 4.74 2.65 10.34 1.59 15.28-.82 3.84-2.69 6.29-4.88 7.65l-.25.15-3.94 2.24.31-.18a10 10 0 0 0 3.48-3.87 18.45 18.45 0 0 0 1.72-9.53c-.55-9.95-6.54-21.21-14.47-28-3.15-2.67-7.12-5.06-11.21-5.65a10.57 10.57 0 0 0-6.72 1l-.12.07c1.3-.65 2.59-1.37 3.86-2.12Z"/><path class="cls-20" d="M717.51 140.46c10.74 5.29 18.37 21.8 14.75 30.83-2.16 5.39-7.4 6.26-12.75 3.62-8.48-4.18-15.64-15.94-15.65-25.56-.02-8.81 5.99-12.66 13.65-8.89Zm6.49 16.25a3.26 3.26 0 0 0-1.59-3.1c-.84-.45-1.52-.05-1.52.92a3.51 3.51 0 0 0 1.21 2.47 1.44 1.44 0 0 0 1.37.39.86.86 0 0 0 .53-.68Z"/><path d="m724.18 267.64.12.09a.91.91 0 0 0 .16.11l.07.05-4.63-2.64a3.65 3.65 0 0 1 1.75-.2h.28a1.34 1.34 0 0 1 .27.13 1.63 1.63 0 0 1 .46.37 14.19 14.19 0 0 0 1.52 2.09Z" style="fill:#08232c"/><path class="cls-9" d="M722.39 153.61a3.26 3.26 0 0 1 1.59 3.1.86.86 0 0 1-.51.67 1.44 1.44 0 0 1-1.37-.39 3.51 3.51 0 0 1-1.23-2.46c0-.97.68-1.37 1.52-.92Z"/><path class="cls-19" d="M706 207.41v.64c0 .18-.6.55-.75.64a18.55 18.55 0 0 1-2.37 1.12l-.5.16-.61.17-.61.15-.34.08v-4.26a1.32 1.32 0 0 0 .76 1c1.61.91 4.09.28 4.39-.78a1 1 0 0 0-.07-.68.87.87 0 0 1 .11.41Z"/><path class="cls-22" d="m702.09 230.81-32.24 44.13a11.07 11.07 0 0 0-.8-3.93 30.44 30.44 0 0 1-1.72-7.22l21.6-29.56a21.66 21.66 0 0 1 5-.9 19.69 19.69 0 0 0 8.16-2.52Z"/><path class="cls-19" d="M700.05 194.83v2.72a3.68 3.68 0 0 1-.09.82 4.27 4.27 0 0 1-1.43 2.42c-1.83 1.46-3.66-.15-3.66-2.44v-3.45a1.29 1.29 0 0 0 .65.91 4 4 0 0 0 3.9 0 1.36 1.36 0 0 0 .55-.59 1 1 0 0 0 0-.69.81.81 0 0 1 .08.3Z"/><path class="cls-22" d="m642.64 204.12 51.3 29.21a21.66 21.66 0 0 0-5 .9l-46.29-26.36a14.71 14.71 0 0 1-.01-3.75Z"/><path class="cls-27" d="m639.64 234.62 23.08 13.14 7.76-10.63-23.18-13.21-7.72 10.67Zm49.29-.39-21.6 29.56L621 237.44l21.6-29.57Z"/><path class="cls-19" d="M680.71 203.41a.71.71 0 0 1 0-.14 1.07 1.07 0 0 0 .22.75c.69.92 3.06 1.2 4.29.38a1.39 1.39 0 0 0 .65-.85 1 1 0 0 0-.09-.54.94.94 0 0 1 .1.39v1.6a3.27 3.27 0 0 0-1.18.38l-.08.05a1.36 1.36 0 0 0-.52.49.45.45 0 0 0-.06.12v.1a1 1 0 0 0 0 .29v1.48a13.75 13.75 0 0 1-1.72-1.07c-.47-.35-1.52-1.22-1.52-1.8Z"/><path class="cls-15" d="M685.7 199.75a.57.57 0 0 1 0 .13 1 1 0 0 1-.23.62 2.68 2.68 0 0 1-1.66.81 4 4 0 0 1-2.63-.43 1.35 1.35 0 0 1-.64-.85.79.79 0 0 1 .05-.45.54.54 0 0 1 .06-.13 1.61 1.61 0 0 1 .31-.38l.12-.1.1-.07a3.39 3.39 0 0 1 .7-.31l.26-.06a4.52 4.52 0 0 1 1.1-.12h.52a3.49 3.49 0 0 1 1.29.45l.15.11.07.06a1.26 1.26 0 0 1 .2.2l.06.08a1.17 1.17 0 0 1 .16.36Z"/><path class="cls-6" d="M618.5 263.42a2.29 2.29 0 0 1-.29-.18l-.14-.1-.13-.09c-.09-.08-.19-.15-.28-.24l-.14-.12-.13-.12-.14-.13-.13-.15-.16-.17c-.12-.14-.24-.29-.35-.44a9.61 9.61 0 0 1-.63-.94l-.21-.39c-.09-.15-.16-.3-.24-.46s-.07-.15-.11-.23a14.57 14.57 0 0 1-.61-1.52l55.05 31.35a10.3 10.3 0 0 0 3.1 4.88l.15.11.13.09.22.14.13.08c-18.29-10.41-55.06-31.34-55.09-31.37Z"/><path class="cls-5" d="M669.85 274.94v14.55l-55.05-31.35V243.6a5.37 5.37 0 0 1 .79-3l53.46 30.4a11.07 11.07 0 0 1 .8 3.94Z"/><path class="cls-7" d="m669.05 271-53.47-30.45.12-.16a2.82 2.82 0 0 1 .3-.39 13 13 0 0 1 5-2.6l46.29 26.35a30.44 30.44 0 0 0 1.76 7.25Z"/><path class="cls-22" d="m645.38 200.55.55-.39-.6.43ZM645.3 200.61l-.53.43c.17-.15.35-.29.53-.43ZM644.63 201.16l-.22.21a.34.34 0 0 1 .06-.06l.13-.12ZM615.64 240.48l27.62-37.8a3.57 3.57 0 0 0-.62 1.44 14.71 14.71 0 0 0 0 3.75L621 237.44a13 13 0 0 0-5 2.6 2.82 2.82 0 0 0-.33.36Z"/><path class="cls-15" d="M737.53 167.14c-.08-.66-.13-1.33-.24-2s-.21-1.33-.35-2-.28-1.31-.46-1.95-.35-1.29-.56-1.93a47.27 47.27 0 0 0-3.11-7.38 49.47 49.47 0 0 0-4.31-6.78l-1.25-1.58-1.33-1.52-1.4-1.46-1.46-1.4a36.9 36.9 0 0 1 5.68 5.77 43.35 43.35 0 0 1 4.42 6.78 41.2 41.2 0 0 1 3.05 7.48 31.93 31.93 0 0 1 1.32 7.97Z"/><path class="cls-24" d="M649.46 217.73c-.63 1.09-2.66 1.11-4.54 0s-2.87-2.81-2.24-3.9 2.67-1.1 4.54 0 2.88 2.81 2.24 3.9Z"/><path class="cls-28" d="M647.38 216.84a4.66 4.66 0 0 1-2.21-.66c-1.52-.86-2.13-2.11-1.87-2.55a1.13 1.13 0 0 1 1-.34 4.62 4.62 0 0 1 2.2.66 4.57 4.57 0 0 1 1.7 1.57 1.1 1.1 0 0 1 .18 1 1.13 1.13 0 0 1-1 .32Z"/><path class="cls-20" d="M660.74 224.56c-.63 1.09-2.67 1.11-4.54 0s-2.87-2.81-2.24-3.9 2.67-1.1 4.54 0 2.88 2.82 2.24 3.9Z"/><path class="cls-28" d="M658.65 223.67a4.66 4.66 0 0 1-2.2-.66c-1.52-.86-2.13-2.11-1.87-2.55a1.13 1.13 0 0 1 1-.34 4.62 4.62 0 0 1 2.2.66 4.54 4.54 0 0 1 1.69 1.57 1.08 1.08 0 0 1 .19 1 1.15 1.15 0 0 1-1.01.32Z"/><path d="M672.41 231.21c-.64 1.08-2.67 1.1-4.54 0s-2.88-2.81-2.24-3.9 2.67-1.11 4.54 0 2.83 2.81 2.24 3.9Z" style="fill:#ffe100"/><path class="cls-28" d="M670.32 230.31a4.72 4.72 0 0 1-2.2-.65c-1.52-.87-2.14-2.12-1.88-2.56.12-.21.5-.33 1-.34a4.66 4.66 0 0 1 2.2.66 4.55 4.55 0 0 1 1.69 1.58 1.09 1.09 0 0 1 .18 1 1.16 1.16 0 0 1-.99.31Z"/><path class="cls-24" d="M684.07 237.85c-.63 1.09-2.66 1.11-4.53 0s-2.88-2.81-2.24-3.9 2.66-1.11 4.53 0 2.88 2.81 2.24 3.9Z"/><path class="cls-28" d="M682 237a4.67 4.67 0 0 1-2.21-.65c-1.52-.87-2.13-2.11-1.87-2.56a1.16 1.16 0 0 1 1-.33 4.79 4.79 0 0 1 2.21.65 4.63 4.63 0 0 1 1.69 1.58 1.1 1.1 0 0 1 .18 1c-.16.14-.53.31-1 .31Z"/><path class="cls-5" d="M631.07 237.41c-1 1.42-2.75 1.92-3.9 1.12s-1.28-2.59-.28-4a2.94 2.94 0 0 1 3.91-1.13 2.86 2.86 0 0 1 .27 4.01Z"/><path class="cls-28" d="M628.18 237.19a1.13 1.13 0 0 1-.69-.21 1.34 1.34 0 0 1-.53-1 2.61 2.61 0 0 1 .5-1.61 2.38 2.38 0 0 1 1.83-1.08 1.24 1.24 0 0 1 .69.2c.69.48.7 1.69 0 2.65a2.4 2.4 0 0 1-1.8 1.05Z"/><path class="cls-5" d="M638.91 241.73c-1 1.41-2.75 1.92-3.91 1.12a2.85 2.85 0 0 1-.28-4c1-1.42 2.76-1.93 3.91-1.13s1.28 2.59.28 4.01Z"/><path class="cls-28" d="M636 241.5a1.17 1.17 0 0 1-.69-.2 1.32 1.32 0 0 1-.52-1 2.54 2.54 0 0 1 .49-1.61 2.35 2.35 0 0 1 1.83-1.08 1.19 1.19 0 0 1 .69.2 1.93 1.93 0 0 1 0 2.64 2.35 2.35 0 0 1-1.8 1.05Z"/><path class="cls-5" d="M646.74 246a2.94 2.94 0 0 1-3.91 1.13 2.86 2.86 0 0 1-.27-4c1-1.41 2.75-1.92 3.91-1.12a2.85 2.85 0 0 1 .27 3.99Z"/><path class="cls-28" d="M643.84 245.82a1.19 1.19 0 0 1-.68-.2 1.35 1.35 0 0 1-.53-1 2.52 2.52 0 0 1 .49-1.61 2.39 2.39 0 0 1 1.88-1.11 1.24 1.24 0 0 1 .69.2 1.94 1.94 0 0 1 0 2.64 2.37 2.37 0 0 1-1.85 1.08ZM643.28 233.44s3.27-6.4 4.68-6.32 19 10.43 19 10.43-16.71-8.87-18.57-8.26-5.11 4.15-5.11 4.15Z"/><path class="cls-30" d="M506.67 335.8s4.83 4.06 5.67 4.43 6.51 3.74 6 5.66-9.5.45-10.8-.91-5.82-2.37-6.47-2.92 0-5.84 0-5.84ZM486.44 345s-.37 7.49 1.48 9.4.93 6.48 0 6.85-4.53-1-6.1-3.46-1.58-5.94-1.58-6.94a26.24 26.24 0 0 1 1.84-5.84Z"/><path class="cls-23" d="M507.3 283a69.34 69.34 0 0 1 2.57 30.71c-1.11 8.37-2.47 22.54-2.47 22.54a5.35 5.35 0 0 1-4.16 1.47c-2.49-.28-3-1.37-3-1.37s-3.15-14.42-1-18.53-4.36-23.64-2.7-29.48S507.3 283 507.3 283Z"/><path class="cls-20" d="M502.74 292.5c.18.63-1.45 33.83-5.42 37.09s-10.42 16.68-10.42 16.68-.25 2.38-3.69 1.92a2.38 2.38 0 0 1-2-2.36c.17-.65 1.63-14.62 3.85-16.72a34.5 34.5 0 0 0 4.06-4.38c.09-.28-3.54-27.75-2.34-33.5a60.2 60.2 0 0 1 2.85-9.77l11.27.81Z"/><path class="cls-7" d="M505.69 254.1a4 4 0 0 1 4.53-1.37c2.71 1.06 5.93 7.8 7.58 10.44s5.76 5.73 5.76 5.73l8.21 4.24s.82 6.47-2 6.4-9.1-3.48-12-6.06-8.91-7.44-11.45-11.36-1.32-6.78-.63-8.02Z"/><path class="cls-16" d="M499.19 252.25s8.31.05 9.51 2.82 1.33 15.28.87 20.55-.46 11.52-.46 11.52-9.23 9.07-14.41 6.44a15.73 15.73 0 0 1-7-6.42s1.35-8.62 0-12.27-2.48-12.74-1.37-15.41 9.47-7.23 12.86-7.23Z"/><path class="cls-31" d="M501.49 251.56a17.6 17.6 0 0 1 3.11 2.92c1.1 1.46-.47 9.17-1.87 12.09s-2 4.29-2 4.29l-1.1 44a39.25 39.25 0 0 0 8.43-2.62c3.33-1.67 3.33-3 3.33-3s-1.12-23.19-1.61-26.74 1.3-12.32 1.57-14.42 1.28-14.06-3.06-15.88-6.8-.64-6.8-.64Z"/><path class="cls-31" d="M495.84 252.92a4.38 4.38 0 0 0-1 5.35c1.34 2.47 8.3 7.74 8.3 7.74v47.95s-2.75 4-9.58 2.91-6.84-2.36-6.84-2.36-1.56-21.71 0-29.12-1.86-16.34-1.86-18.53-2.94-11.77 10.98-13.94Z"/><path class="cls-32" d="M524.89 276.27A8.27 8.27 0 0 1 525 274c.23-.58.66-1.46.83-2s0-2.22.69-2 .67 1.05.74 1.73a11.85 11.85 0 0 1 0 1.87 12.45 12.45 0 0 0 3-1.54c.69-.68 3.27-2.78 3.73-2.6s.93.5.33.77a23.24 23.24 0 0 0-2.72 2.38s4.8-2.61 5.07-2.38.7.78 0 1.23-4.25 3-4.25 3 4.44-2.86 4.91-2.59a.8.8 0 0 1 .46.81 53.53 53.53 0 0 1-4.68 3s4.07-1.29 4.25-.87.51.85-1.25 1.23a9.91 9.91 0 0 0-4 2.15c-.32.36-3.58 1.73-5.5 1.1s-1.72-3.02-1.72-3.02Z"/><path class="cls-7" d="M484.62 260.56c.71-.72 1.92-2 4.05-.55s12.85 14.49 12.85 14.49l14.6 4.93s1.67 2.74 0 4.66-12.76-.45-18.25-3.18-10.2-7.46-12-11.13c-1.87-4.05-3.01-7.42-1.25-9.22Z"/><path class="cls-33" d="M497.5 252.5a2.63 2.63 0 0 0-2.69 1.72c-.92 2.65 8.35 11.79 8.35 11.79s-8.62-3.31-8.9-3.58.23-2 .23-2-2.68-.77-3-1.64 2.21-7.19 4.19-8 1.82 1.71 1.82 1.71Z"/><path class="cls-33" d="M499.15 251.37s3.75 1.92 4.58 3.13-.57 11.51-.57 11.51 4.12-6.9 4.12-7.07a9.87 9.87 0 0 0-1.64-1.18s1.82-2 1.64-2.24-1.62-4.28-4.9-4.65-3.23.5-3.23.5Z"/><path d="M503.22 250.05s.32 5.3-.26 7.24-3.35 1.31-5.73 0-2.8-2.41-2.14-4.56c.75-2.43.25-3.29.25-3.29Z" style="fill:#8e5025"/><path d="M503.08 240.31v-1.24s2.15-2.2-4-2.56-7.82 3.51-7.2 6.73 4.53 5.9 4.53 5.9Z"/><path d="M503.08 239.07a11.16 11.16 0 0 1 1.66 2.83 7.75 7.75 0 0 0 .34 1.85 3.9 3.9 0 0 1 .74 1.95c.16 1.28.27 5.29-.05 6a3.32 3.32 0 0 1-2.9 1.23 16.94 16.94 0 0 1-4.28-.6 13.07 13.07 0 0 1-2.47-2.41 1.27 1.27 0 0 1-1.16 0c-.62-.31-2.47-2.22-2.47-2.92s1-1 1.69-.7a12.13 12.13 0 0 1 1.26.63 5.9 5.9 0 0 0 .47-3.31c-.25-1.43-.7-2.31.2-2.56s3.45 0 4.89-.7a7.55 7.55 0 0 0 2.08-1.29Z" style="fill:#ad693b"/><path id="Axo_panel-32" data-name="Axo panel" class="cls-8" d="M550.79 242.69c0 1.86-1.81 4.28-3.66 5.33a10.61 10.61 0 0 1-9.51 0 3.31 3.31 0 0 1-2-2.71v1.18a3.31 3.31 0 0 0 2 2.71 10.61 10.61 0 0 0 9.51 0c1.85-1 3.66-3.47 3.66-5.33Z"/><g id="Axo_Projection-7" data-name="Axo Projection"><g id="Axo_Surface_11" data-name="Axo Surface*"><path id="Axo_panel-33" data-name="Axo panel" class="cls-5" d="m538.92 248.5-1.21.53a22.59 22.59 0 0 0-4.4 2.51l-.92.69v1.18l.92-.69a22.59 22.59 0 0 1 4.4-2.51l1.21-.53Z"/><path id="Axo_panel-34" data-name="Axo panel" class="cls-36" d="m532.39 252.23-2.12-1.21v1.18l2.12 1.21v-1.18z"/></g><path id="Axo_base-7" data-name="Axo base" class="cls-36" d="m538.92 248.5-2.13-1.21a41.61 41.61 0 0 1-6.52 3.73l2.12 1.21.92-.69a22.59 22.59 0 0 1 4.4-2.51Z"/></g><g id="Axo_Extrusion-6" data-name="Axo Extrusion"><path id="Axo_panel-35" data-name="Axo panel" class="cls-10" d="M532.52 255.68a2.92 2.92 0 0 1-1.74 2.4 9.41 9.41 0 0 1-8.42 0 2.93 2.93 0 0 1-1.74-2.4v22.85c0 .86 4 11.22 4.65 13a1.49 1.49 0 0 0 2.68 0c.58-1.19 4.57-12.12 4.57-13Z"/><path id="Axo_base-8" data-name="Axo base" class="cls-6" d="M532.52 255.68a2.93 2.93 0 0 0-1.75-2.4 9.39 9.39 0 0 0-8.41 0 2.53 2.53 0 0 0 0 4.8 9.41 9.41 0 0 0 8.42 0 2.92 2.92 0 0 0 1.74-2.4Z"/></g><g id="Axo_Compound_Projection-2" data-name="Axo Compound Projection"><g id="Axo_Extrusion-7" data-name="Axo Extrusion"><path id="Axo_panel-36" data-name="Axo panel" class="cls-5" d="M521 254.2a2.74 2.74 0 0 1 1.64-2.27 8.9 8.9 0 0 1 7.95 0 2.75 2.75 0 0 1 1.64 2.26v1.45a2.76 2.76 0 0 0-1.65-2.26 8.86 8.86 0 0 0-7.95 0 2.74 2.74 0 0 0-1.64 2.27Z"/><path id="Axo_panel-37" data-name="Axo panel" class="cls-5" d="M533.29 254.19a3.3 3.3 0 0 1-2 2.72 10.61 10.61 0 0 1-9.51 0 3.31 3.31 0 0 1-2-2.71v1.46a3.31 3.31 0 0 0 2 2.71 10.64 10.64 0 0 0 9.51 0 3.29 3.29 0 0 0 2-2.71Z"/></g><path id="Axo_Compound-6" data-name="Axo Compound" class="cls-36" d="M521.81 256.91a10.61 10.61 0 0 0 9.51 0c2.63-1.51 2.63-3.93 0-5.43a10.61 10.61 0 0 0-9.51 0c-2.63 1.52-2.62 3.94 0 5.43Zm.78-.44c-2.19-1.25-2.19-3.28 0-4.54a8.9 8.9 0 0 1 7.95 0c2.19 1.25 2.19 3.28 0 4.53a8.9 8.9 0 0 1-7.95.01Z"/><path id="Axo_Compound-7" data-name="Axo Compound" class="cls-27" d="M537.62 248a10.61 10.61 0 0 0 9.51 0c2.63-1.5 5.18-5.75 2.55-7.24s-9.44.32-12.06 1.82-2.62 3.95 0 5.42Z"/></g><g id="Axo_Compound_Extrusion-11" data-name="Axo Compound Extrusion"><g id="Axo_Extrusion-8" data-name="Axo Extrusion"><path id="Axo_panel-38" data-name="Axo panel" class="cls-6" d="M539.2 241.69a1.52 1.52 0 0 1 .92-1.28 5 5 0 0 1 4.49 0 1.59 1.59 0 0 1 .94 1.28v3.63a1.56 1.56 0 0 0-.93-1.28 5 5 0 0 0-4.49 0 1.57 1.57 0 0 0-.93 1.29Z"/><path id="Axo_panel-39" data-name="Axo panel" class="cls-7" d="M547.58 241.68a2.58 2.58 0 0 1-1.53 2.11 8.22 8.22 0 0 1-7.36 0 2.55 2.55 0 0 1-1.52-2.09v3.62a2.56 2.56 0 0 0 1.53 2.1 8.22 8.22 0 0 0 7.36 0 2.56 2.56 0 0 0 1.52-2.1Z"/></g><path id="Axo_Compound-8" data-name="Axo Compound" class="cls-27" d="M538.69 243.79a8.22 8.22 0 0 0 7.36 0c2-1.16 2-3 0-4.2a8.22 8.22 0 0 0-7.36 0c-2.03 1.17-2.03 3.04 0 4.2Zm1.43-3.38a5 5 0 0 1 4.49 0c1.25.71 1.25 1.86 0 2.57a5 5 0 0 1-4.49 0c-1.23-.72-1.24-1.86 0-2.57Z"/></g><path class="cls-32" d="M515.2 280.71a6.24 6.24 0 0 1 1.49-1.6l2.31-1.31a8.53 8.53 0 0 0 2.36-1.25c.46-.55.8-1.14 1-.84a1.29 1.29 0 0 1 0 1.34 15.62 15.62 0 0 1-2.45 2.33l3.31.65s3.85 0 4 .37.42.92-.52 1-5.29.13-5.29.13 5.79.79 5.65 1.24-.06.92-2.27.72-4.4-.25-4.4-.25 4.64 1.1 4.71 1.5.33.88-.92.74-4-.65-4-.65 2.94 1.13 3 1.52-.33.53-1.19.47a53.32 53.32 0 0 1-6-2.36s-1.68-.86-.79-3.75Z"/><path class="cls-37" d="m339.16 54.73 4.92 2.36-.14-.84-4.92-2.1.14.58z"/><path class="cls-38" d="M338.91 58s3.19-4.11 2.9-5.52-1.73-2.12-2.24-2.42-2.31-3.74-6.47-3c-.73.13-5.07-.15-6.76 3.86s1 6.16 1 7.2-3 2.9-2.43 5.12a15.43 15.43 0 0 0 2.68 4.76Z"/><path class="cls-39" d="M361.75 38.6a1.51 1.51 0 0 1 1.69.73 1.76 1.76 0 0 1 .16.4l13.21 54.69a10 10 0 0 0 2.24 4.26l9.71 11.93a3.48 3.48 0 0 1 .77 2.3 4.86 4.86 0 0 1-.07.55 3.4 3.4 0 0 1-1.62 2.27 3.32 3.32 0 0 1-3.26.07l-15-8a1.54 1.54 0 0 1-.64-2.08 1.26 1.26 0 0 1 .38-.47 1.5 1.5 0 0 1 1.68-.18l15 7.95a.33.33 0 0 0 .31 0 .3.3 0 0 0 .16-.27.34.34 0 0 0-.07-.22c-.12-.13-9.65-11.85-9.65-11.85a13 13 0 0 1-2.9-5.58l-13.22-54.64A1.51 1.51 0 0 1 361 39a1.43 1.43 0 0 1 .75-.4Z"/><path class="cls-17" d="m371 105.12 15 7.95a.33.33 0 0 0 .31 0 .3.3 0 0 0 .16-.27.34.34 0 0 0-.07-.22c1.18 1.45.4 1.52-.14 1.65s-15-7.87-16.59-8.75a1.67 1.67 0 0 0-.37-.17 1.5 1.5 0 0 1 1.7-.19ZM361.75 38.6a1.51 1.51 0 0 1 1.69.73 1.76 1.76 0 0 1 .16.4l13.21 54.69a10 10 0 0 0 2.24 4.26l9.71 11.93a3.48 3.48 0 0 1 .77 2.3 3.31 3.31 0 0 1-.07.55 5.57 5.57 0 0 0-.3-.77c-1.31-2.76-11.4-13.9-12.55-16s-12.55-54.64-13.7-56.39c-.82-1.2-1.55-1.3-1.91-1.3a1.43 1.43 0 0 1 .75-.4Z"/><path class="cls-15" d="M370.25 107s14 8.49 16.8 8.22a.5.5 0 0 0 .4-.17c1.26-1.61-10.67-16.22-11.44-17.47s-12-48.35-12-48.35S373.29 95 376 98.06s12.67 16.22 11.11 16.73-16.86-7.79-16.86-7.79Z"/><path class="cls-40" d="M338.39 62.62s1.55 9.44 4.93 10.48 8.37 3.64 11.46 3.34 6.23-7.55 7.64-10.32.95-2.28 1.91-3.47 1.47-.79.53-5.08c-.3-1.39 2-1.32 2-1.32a5 5 0 0 0 2.32-1.25c.74-.89-1.84.08-2.36-.07s-1.9-.78-1.9-.78-2.25 1.46-2.62 2.43a29.51 29.51 0 0 0-.83 3.39c-2.2 3-1.37 2.62-2.88 4.25-2 2.14-6.16 5.77-6.16 5.77a16.91 16.91 0 0 1-3.75-.89c-2.13-.74-2.87-2.37-5.36-4.82a5.56 5.56 0 0 0-4.08-1.78 3.24 3.24 0 0 0-.85.12Z"/><path class="cls-7" d="M336.94 64.11a2.39 2.39 0 0 1 2.18-1.91c2-.29 4.29 1.43 5.31 2.4s3.68 3.91 4.84 4.16 2.73.71 2.73.71 6.84-6 7.55-7.3.74-2.17 1.47-1.29a9.55 9.55 0 0 1 2.09 5.58c.07 2.61-6 11-8.18 11.57s-11.52-3.86-13.9-5.86-4.57-6.34-4.09-8.06Z"/><path class="cls-40" d="M369.93 56.68s.09-1.23-.66-1.14-1.76.22-1.87.55.52 1.12 1 1.23 1.53-.64 1.53-.64Z"/><path class="cls-40" d="M369.85 57.68s.07-1-.53-.92-1.43.18-1.52.45.43.9.81 1 1.24-.53 1.24-.53Z"/><path class="cls-40" d="M369.67 59s.34-.93-.25-1-1.42-.24-1.58 0 .15 1 .49 1.18 1.34-.18 1.34-.18Z"/><path class="cls-40" d="M369.26 60.32s.5-.7 0-.94-1.2-.57-1.4-.41-.07.87.19 1.12 1.21.23 1.21.23Z"/><path class="cls-41" d="M345.13 91.59s5.17 5 3.84 19.23-5.14 16.33-5.29 20-2.35 16.34-2.35 18.41 4 6.83 5.73 7.58 4 3.26 4.12 4.45-2.79.74-5.29.3-2.21-3.12-5.59-3.71-4.41-1.19-5-2.68 1-4.15 1-6.68-2.93-12.62-1.91-15.74 2.36-6.68 2.36-6.68L335 98.49Z"/><path class="cls-40" d="M302.83 177.19c0 3.27.29 2.82 3.08 4.75s4.27 5.05 4.71 2.67-.79-6.65-1.33-8.9.44-6.09.44-6.09 4.85-8.47 7.65-13.22 8.52-10.09 10.87-11.28 2.5-4.46 3.38-8.47 8.38-35 8.38-35l-3.82-3.56-9.85-1.34s-4.41 8.76-3.53 14.41.59 26.13.59 26.13-6.32 3.56-8.52 7.27-7.79 20.35-9.41 21.68c-1.07.89-3.07 2.52-3.23 3.86-.15 1.15.59 3.82.59 7.09Z"/><path class="cls-31" d="M345.89 83.2s2.35-2.38 2.05-4.75-4.36-10.22-5.25-12.89-5.22-4.71-9.24-3-9.92 5.35-11.19 7.24.83 12 2.48 16.26-2.37 20.44-2.37 20.44 10.25-5.35 13.95-6.46 9.09-7.24 9.09-7.24c-.15-3.28-.22-1.17.48-9.6Z"/><path class="cls-9" d="M333.1 64.41a12.19 12.19 0 0 1 4.3 1.28c1.6 1 1.33 1.25 2 5.16a50.43 50.43 0 0 1 .62 7.24s-7.36-6.7-10.19-7.94c-3.41-1.5.07-5.34.29-6.46s6.32-.67 6.32-.67Z"/><path d="M331.23 63.59s-3 .9-1.18 4.45c1 2 9.38 8.69 9.38 8.69s-.87-6-1.45-9.21-5.21-5-5.21-5a2.81 2.81 0 0 1 3.26-.76c2.26.71 4.41 4.56 4.41 4.56l-1.23 2.26 2.66.83-1.87 8.68-9.77-4.61 1.37-1.85-4-.69s-2.1.28-.24-3.9 3.87-3.45 3.87-3.45Z" style="fill:#ffd023"/><path class="cls-41" d="m330.21 61-.87-1a16.88 16.88 0 0 1 0 3.07c-.16 1.22-.62 1.61-.13 3.18a4.6 4.6 0 0 0 2.28 3.08c.93.35 3.56.75 5-.21s1.72-3.91 1.51-4.12-7.79-4-7.79-4Z"/><path class="cls-40" d="M341.55 58c0 .74-.22.45-.18 1.34s.4 1.33-.11 2.19-.88 4.23-1.51 4.79-1.43 1.11-3.45.4-6.06-4-6.47-5.19l-.4-1.19s-.08 1.45-1.22.11-2.46-3.38-.88-4.64 3 1.89 3 1.89a18.35 18.35 0 0 0 .51 2.3c.11 0 5.26-.66 6.73-3.3a32.32 32.32 0 0 0 2.35-5.49 55.51 55.51 0 0 1 1.63 6.79ZM327.22 76.56s-6.61 13.36-7.71 16a76.87 76.87 0 0 0-4.19 12.44c-1.65 6.46-.33 8.47-.33 8.47s1.71 4.06 1.71 3.5a19.15 19.15 0 0 1 .66 2.84c.05.34.44 3.07-.11 2.73-.81-.49-.88.31-1.1-2.67l-1.55-1.45-1.54 3 .05 4.34s.56 1.34.11 1.28-1.37-1.89-1.65-2-1 0-1.05-.66v-.67a2.37 2.37 0 0 1-.77-1.45l-.06-.84a1.61 1.61 0 0 1-.44-1.17c0-.77 2-4.39 2-6.73s-1.33-11-.06-15.93a31.34 31.34 0 0 1 3.25-7.74c0-.28 2.1-7 2.76-11.3s4.63-9.74 6-9.63 4.24 4.13 4.02 7.64Z"/><path class="cls-7" d="M324.8 68.76a7.87 7.87 0 0 0-6.62 2.52c-3.12 3.16-5 18.54-5.24 18.84s-3.22 6.92-3.38 11.19a75.1 75.1 0 0 0 .77 10.69s2.41 3.35 5.54 1.77 1.78-1.38 1.78-1.38 2.09-18.25 3.46-21.62 7.44-14.26 6.62-17.5-1.28-4.68-2.93-4.51Z"/><path class="cls-43" d="M347.06 156.85s2 1 .44 1.67-6.39-1.9-9.25-4-2.43-2.45-2.43-2.45a5.11 5.11 0 0 0-1 3.34 18.4 18.4 0 0 0 1.43 4.34l2.21.67.55-1.67s3.08-.11 3.52.67 1.33 3.45 3.86 4.23 8.71.33 8.71-1.56-1.65-1.11-4-3.12a7.73 7.73 0 0 0-4.04-2.12ZM302.83 177.19c0 3.27.88 4.9 3.67 6.83s7 2 5.51.07-1.68-4.33-2.29-6.75c0 0 .93 3-.9 2.67s-4.08-4.34-4.3-7.68c-.18-2.69-.22-4.51-.22-5.12-.78.7-1.94 1.82-2.06 2.85-.15 1.19.59 3.86.59 7.13Z"/><path class="cls-43" d="m300.66 172.88 1.79-3.5.41 3.61-1 1.56s-1.2-.89-1.2-1.67Z"/><path class="cls-14" d="m329 101.21-3.29 1.14s-2.42 1.75-3.86 11-2.13 24.27-2.13 24.27a13.91 13.91 0 0 0 14.34 4.58c9.09-2.4 16.64-10 16.64-10s2.14-29.75-5.59-36.43-16.11 5.44-16.11 5.44Z"/><path class="cls-31" d="m329 97.08-3.29 1.13s-2.42 1.76-3.86 11-2.13 24.28-2.13 24.28a13.89 13.89 0 0 0 14.36 4.51c9.09-2.39 16.64-10 16.64-10s2.14-29.74-5.59-36.42-16.13 5.5-16.13 5.5Z"/><g class="cls-44"><path class="cls-38" d="M423.59 126.9c7.14-4.05 18.55-3.93 25.49.26s6.78 10.87-.36 14.92-18.55 3.93-25.49-.26-6.78-10.82.36-14.92Z"/><path class="cls-38" d="M404.62 122.81c-7.65-8.13-5.44-18.54 6.47-25.3l12.5 29.39c-5.95 3.38-7 8.58-3.23 12.65ZM451.92 139.64c3.77-4 2.84-9-2.84-12.48-6.94-4.19-18.35-4.31-25.49-.26l-12.5-29.39c14.28-8.09 37.1-7.86 51 .53 11.36 6.85 13.21 17 5.68 25Z"/><path class="cls-13" d="m411.9 125-3.07-3.13c-7.05-7.17-5.21-16.47 5.37-22.47l2.46 5.66c-9.39 5.31-11.01 13.56-4.76 19.94ZM463.55 122c-1 1-2.05 2.07-3.08 3.11 6.15-6.19 4.8-14.27-4.16-19.68-10.79-6.52-28.54-6.7-39.65-.4l-2.46-5.66c12.51-7.09 32.51-6.88 44.67.46C469 106 470.49 115.05 463.55 122Z"/><path d="m416.66 105.05 19.55 11.73-19.55-11.73c11.11-6.3 28.86-6.12 39.65.4s10.54 16.91-.56 23.2-28.86 6.12-39.65-.4-10.54-16.91.56-23.2Z" style="fill:#1c7680"/><path class="cls-38" d="M408.83 121.86a24.16 24.16 0 0 0 4.73 3.68c12.17 7.34 32.17 7.54 44.68.45a24.1 24.1 0 0 0 5.31-4c-1 1-2.05 2.07-3.08 3.11a22.14 22.14 0 0 1-4.72 3.52c-11.11 6.3-28.86 6.12-39.65-.4a21.58 21.58 0 0 1-4.2-3.26Z"/><path class="cls-13" d="m420.36 139.55-15.74-16.74a27.19 27.19 0 0 0 5.74 4.54c13.88 8.38 36.71 8.62 51 .52a27.5 27.5 0 0 0 6.4-4.87l-15.83 16.64a13.66 13.66 0 0 1-3.2 2.44c-7.14 4-18.55 3.93-25.49-.26a13.63 13.63 0 0 1-2.88-2.27Z"/><path class="cls-38" d="M411.09 97.51c14.28-8.09 37.1-7.86 51 .53s13.56 21.74-.72 29.83-37.11 7.86-51-.52-13.56-21.74.72-29.84Zm50.26 30.36c-14.28 8.1-37.11 7.86-51-.52s-13.55-21.74.73-29.84ZM414.2 99.39c-12.51 7.1-12.8 18.8-.64 26.15s32.17 7.54 44.68.45 12.79-18.79.63-26.14-32.16-7.55-44.67-.46Z"/></g><g class="cls-44"><path class="cls-46" d="M464.14 111.05c0-4.11-2.63-8.24-7.92-11.44-10.75-6.49-28.44-6.67-39.5-.4v-5.53c11.06-6.28 28.76-6.1 39.52.4 5.29 3.19 7.91 7.32 7.9 11.44-.01 1.66 0 3.87 0 5.53Z"/><path class="cls-46" d="M408.25 110.9c0-4.26 2.84-8.5 8.47-11.69a6.78 6.78 0 0 0 2.93 5.28c-9.39 5.32-9.6 14.1-.47 19.61s24.13 5.67 33.52.34 9.6-14.1.47-19.61-24.13-5.67-33.52-.34a6.78 6.78 0 0 1-2.93-5.28c11.06-6.27 28.75-6.09 39.5.4 5.29 3.2 7.93 7.33 7.92 11.44 0 .47-.06 1.08-.11 1.54 0 .3-.1.69-.16 1s-.17.76-.28 1.08a17 17 0 0 1-.75 1.95 14.83 14.83 0 0 1-1.68 2.73 17.23 17.23 0 0 1-2.24 2.41c-.43.37-1 .86-1.47 1.21s-.89.64-1.28.89a26.71 26.71 0 0 1-3.23 1.8 31.21 31.21 0 0 1-3.52 1.42c-.56.18-1.3.43-1.86.58-1.13.28-2.64.65-3.79.85-2.13.37-4 .5-4 .5-1.2.07-2.8.12-4 .14-.61 0-1.41 0-2-.07a43 43 0 0 1-7.9-1.18 34 34 0 0 1-3.78-1.16 27.38 27.38 0 0 1-3.6-1.59c-.46-.25-1.07-.57-1.51-.84-.61-.38-1.41-.91-2-1.34a20.69 20.69 0 0 1-3-2.73 15.43 15.43 0 0 1-2.84-4.51 14.54 14.54 0 0 1-.72-2.49 12.45 12.45 0 0 1-.17-2.34Z"/><path class="cls-17" d="M461.9 105.51V111c0-3.79-2.41-7.59-7.28-10.53-9.9-6-26.17-6.14-36.35-.37v-5.48c10.18-5.78 26.47-5.61 36.37.37 4.86 2.94 7.27 6.73 7.26 10.52Z"/><path class="cls-47" d="M459.23 98.8a18.18 18.18 0 0 0-4.59-3.8 31.55 31.55 0 0 0-9.64-3.68v5.47a31.42 31.42 0 0 1 9.61 3.66 18.56 18.56 0 0 1 4.61 3.83Z"/><path class="cls-46" d="M408.25 105.36c0-4.25 2.84-8.5 8.47-11.68v5.53c-5.63 3.19-8.46 7.43-8.47 11.69 0-1.67-.01-3.9 0-5.54Z"/><path class="cls-17" d="M410.48 110.83v-5.46c0-3.92 2.62-7.82 7.79-10.75v5.46c-5.17 2.92-7.78 6.84-7.79 10.75Z"/><path class="cls-46" d="M419.65 104.49c9.39-5.33 24.4-5.17 33.52.34s8.91 14.29-.47 19.61-24.4 5.17-33.52-.34-8.92-14.29.47-19.61Z"/><path class="cls-16" d="M419.86 102.94c9.27-5.26 24.1-5.11 33.11.34s8.8 14.11-.47 19.37-24.1 5.11-33.11-.34-8.8-14.12.47-19.37Z"/><path class="cls-9" d="M437.32 104a.64.64 0 0 0-.49-.91c-1.81-.52-13.39 7.63-13.57 9-.43 3.28 16.29 2.85 16.91 3s14.18 4.83 14.18 4.83l1.06-1.29s-11.07-4.6-14.68-5.24c-3.87-.7-15.16-.14-15-1s11.59-8.39 11.59-8.39Z"/><path class="cls-23" d="M418.22 122.41a18.33 18.33 0 0 1-5.72-5.21 12.14 12.14 0 0 1-1.49-3 10.13 10.13 0 0 1-.53-3.34c0-3.91 2.62-7.82 7.79-10.75a3.7 3.7 0 0 0 1.59 2.86c-9.27 5.25-9.48 13.93-.47 19.37s23.84 5.6 33.11.34 9.48-13.93.47-19.37-23.84-5.6-33.11-.34a3.7 3.7 0 0 1-1.59-2.86c10.18-5.77 26.45-5.61 36.35.37 4.87 2.94 7.37 6.74 7.28 10.53a7.5 7.5 0 0 1 0 .82c-.06.5-.15 1.15-.26 1.64a11.93 11.93 0 0 1-.75 2.11 14 14 0 0 1-3 4.1c-.42.4-1 .92-1.45 1.27s-.78.59-1.13.82-1.15.76-1.67 1a28 28 0 0 1-3.21 1.55 33.32 33.32 0 0 1-3.43 1.18c-1.06.28-2.48.62-3.55.81-1.66.29-3 .41-3.79.48a42.23 42.23 0 0 1-7.6-.07c-.76-.09-2.05-.23-3.71-.55a33.81 33.81 0 0 1-3.58-.9 30.11 30.11 0 0 1-3.4-1.24 25.44 25.44 0 0 1-3.15-1.62Z"/><path class="cls-46" d="M410.48 110.83c0 .5 0 1.15.12 1.64s.18.88.27 1.25a12 12 0 0 0 .82 2.11 13.9 13.9 0 0 0 1.44 2.23c.41.5 1 1.13 1.44 1.59.28.28.67.62 1 .87s.73.59 1.06.83 1.12.76 1.62 1.06a27.71 27.71 0 0 0 3.13 1.62 30.43 30.43 0 0 0 3.4 1.24c1 .29 2.44.65 3.5.88.57.13 1.34.24 1.91.33 1 .16 3.11.36 3.77.38s1.33.06 1.9.06h1.9c.57 0 1.32-.07 1.89-.11 0 0 1.7-.11 3.72-.47a35.81 35.81 0 0 0 3.58-.8 29.72 29.72 0 0 0 6.71-2.74 23.51 23.51 0 0 0 2.8-1.86 18.27 18.27 0 0 0 2.26-2.12 13 13 0 0 0 2.47-4 11.91 11.91 0 0 0 .52-1.74c0-.25.11-.57.13-.82s.08-.9.09-1.28c0 3.91-2.62 7.81-7.8 10.75-10.18 5.77-26.45 5.6-36.35-.37-4.9-2.94-7.31-6.74-7.3-10.53Z"/><path class="cls-16" d="M417 124.29a24.08 24.08 0 0 1-3.64-2.7 17.92 17.92 0 0 1-2.85-3.31 14.56 14.56 0 0 1-1.69-3.53 11.4 11.4 0 0 1-.38-1.53 12.26 12.26 0 0 1-.2-2.32c0 4.11 2.61 8.24 7.9 11.43 10.75 6.5 28.44 6.68 39.51.41 5.62-3.19 8.46-7.43 8.48-11.69 0 .3 0 .7-.05 1-.08.59-.19 1.38-.32 2a13.06 13.06 0 0 1-.88 2.49 14.44 14.44 0 0 1-1.15 2 16.58 16.58 0 0 1-2.26 2.68 23.41 23.41 0 0 1-4.7 3.48 29.71 29.71 0 0 1-3.47 1.67 35.19 35.19 0 0 1-3.68 1.26 41.62 41.62 0 0 1-7.79 1.37c-1.31.1-2.67.15-4 .14-2.12 0-3.82-.2-4-.22-.88-.1-2.21-.25-3.93-.59a37.18 37.18 0 0 1-3.82-.95 34.07 34.07 0 0 1-3.64-1.33 31.3 31.3 0 0 1-3.44-1.76Z"/><path class="cls-46" d="M410.48 105.37c0 3.78 2.42 7.58 7.28 10.52 9.9 6 26.18 6.14 36.36.37 5.17-2.93 7.77-6.84 7.78-10.75V111c0 3.91-2.62 7.81-7.8 10.75-10.18 5.77-26.45 5.6-36.35-.37-4.87-2.94-7.28-6.74-7.27-10.53.01-1.66 0-3.85 0-5.48Z"/><path d="M416.72 93.68c11.06-6.28 28.76-6.1 39.52.4s10.5 16.85-.56 23.12-28.76 6.09-39.52-.4-10.51-16.8.56-23.12Zm1.55.94c-10.18 5.77-10.4 15.29-.51 21.27s26.18 6.14 36.36.37 10.41-15.3.52-21.27-26.19-6.15-36.37-.37Z" style="fill:#e5f0ff"/><path class="cls-39" d="M408.25 110.9v-5.54c0 4.12 2.62 8.24 7.91 11.44 10.76 6.49 28.45 6.68 39.52.4 5.62-3.19 8.44-7.43 8.46-11.68v5.53c0 4.26-2.86 8.5-8.48 11.69-11.07 6.27-28.76 6.09-39.51-.41-5.29-3.19-7.91-7.33-7.9-11.43Z"/><path class="cls-8" d="M431.45 121.54a37.37 37.37 0 0 1-15.29-4.74 21.42 21.42 0 0 1-4.07-3.14v5.55a21 21 0 0 0 4.06 3.12 37.27 37.27 0 0 0 15.3 4.75Z"/></g><path class="cls-39" d="M487.05 123.16a1.24 1.24 0 0 1-1.19.91 1.33 1.33 0 0 1-.34 0L442 111.51a8 8 0 0 0-3.88-.12l-12.24 2.15a2.73 2.73 0 0 1-1.91-.38 2.42 2.42 0 0 1-.36-.27 2.79 2.79 0 0 1-.94-2.06 2.73 2.73 0 0 1 1.26-2.35l11.59-7.54a1.24 1.24 0 0 1 1.71.38 1.3 1.3 0 0 1 .18.46 1.27 1.27 0 0 1-.55 1.27l-11.59 7.54a.24.24 0 0 0-.12.22.23.23 0 0 0 .13.22.22.22 0 0 0 .18 0l12.16-2.13a10.32 10.32 0 0 1 5.06.16l43.55 12.51a1.23 1.23 0 0 1 .85.85 1.28 1.28 0 0 1-.03.74Z"/><path class="cls-17" d="m436.83 103.05-11.59 7.54a.24.24 0 0 0-.12.22.23.23 0 0 0 .13.22.22.22 0 0 0 .18 0c-1.48.26-1.22-.32-1.1-.76s11.54-7.58 12.78-8.34a1.57 1.57 0 0 0 .27-.19 1.27 1.27 0 0 1-.55 1.31ZM487.05 123.16a1.24 1.24 0 0 1-1.19.91 1.33 1.33 0 0 1-.34 0L442 111.51a8 8 0 0 0-3.88-.12l-12.24 2.15a2.73 2.73 0 0 1-1.91-.38 2.42 2.42 0 0 1-.36-.27 3.52 3.52 0 0 0 .65.1c2.46.17 14.3-2.56 16.19-2.56s43.26 13 44.95 12.85c1.2-.09 1.57-.56 1.68-.82a1.28 1.28 0 0 1-.03.7Z"/><path class="cls-15" d="M435.81 101.78s-11.56 6.6-12.49 8.7a.41.41 0 0 0 0 .35c.62 1.54 15.63-1.11 16.81-1.16s38.64 10.81 38.64 10.81-35.74-11.71-39-11-16.43 2.54-16.16 1.22 12.2-8.92 12.2-8.92Z"/><path class="cls-38" d="M361.48 163c16.25-9.21 42.22-8.94 58 .59s15.42 24.74-.83 34-42.21 8.94-58-.59-15.41-24.75.83-34Zm2.77 1.67c-14.67 8.32-15 22-.74 30.66s37.71 8.85 52.39.54 15-22 .74-30.66-37.72-8.81-52.39-.5Z"/><path d="M369.61 162.29c11.62-6.59 30.19-6.4 41.48.42s11 17.69-.59 24.27-30.19 6.4-41.48-.42-11.02-17.69.59-24.27Z" style="fill:#006676"/><path class="cls-38" d="M369.46 161.72c11.72-6.65 30.46-6.46 41.86.42s11.13 17.85-.6 24.5-30.46 6.46-41.86-.43-11.13-17.85.6-24.49Zm2.76 1.67c-10.15 5.75-10.38 15.25-.51 21.21s26.1 6.13 36.25.37 10.38-15.25.51-21.21-26.09-6.13-36.25-.37Z"/><path class="cls-50" d="m411 161.92 5.69 3.33c14.26 8.61 13.93 22.34-.74 30.66s-38.13 8.07-52.39-.54-13.93-22.34.74-30.66l5.21-3c-11.73 6.64-12 17.61-.6 24.49s30.14 7.08 41.86.43 12-17.61.6-24.5Z"/><path d="M369.46 161.72a20.2 20.2 0 0 0-6.87 6.22 11.56 11.56 0 0 0-1.76 4.28 9.9 9.9 0 0 0 .22 4.59 15 15 0 0 0 5.32 7.4 24.6 24.6 0 0 0 3.9 2.5c.35.18.68.38 1 .55l2.12.94c.36.15.73.26 1.09.4a48.84 48.84 0 0 0 27.5 1.32 36.38 36.38 0 0 0 8.71-3.28 40.72 40.72 0 0 1-17.9 5 50.5 50.5 0 0 1-9.36-.35 41.69 41.69 0 0 1-9.12-2.2c-.36-.14-.74-.26-1.1-.41l-2.15-1c-.35-.17-.69-.37-1-.56a25.49 25.49 0 0 1-4-2.56 18 18 0 0 1-3.31-3.39 12.8 12.8 0 0 1-2.1-4.27 10.59 10.59 0 0 1-.16-4.75 11.76 11.76 0 0 1 1.87-4.36 20.1 20.1 0 0 1 7.1-6.07Z" style="fill:#00abac"/><path class="cls-50" d="M419 163.33c1.86 1.08 6 3.49 6.19 3.62 18.85 11.38 18.41 29.52-1 40.51s-50.39 10.68-69.23-.71-18.41-29.52 1-40.51l5.55-3.2c-16.24 9.21-16.61 24.41-.82 34s41.76 9.8 58 .59 16.62-24.41.83-34Z"/><path class="cls-24" d="M361.48 163a28.28 28.28 0 0 0-9.56 8.6 16.31 16.31 0 0 0-2.45 5.94 14.22 14.22 0 0 0 .29 6.39 17.66 17.66 0 0 0 2.88 5.73 24.15 24.15 0 0 0 4.52 4.57 33.07 33.07 0 0 0 5.41 3.49c.48.25.94.52 1.43.76l2.94 1.3c.5.21 1 .37 1.52.56a67.41 67.41 0 0 0 38.14 1.78 49.89 49.89 0 0 0 12.06-4.58 49.41 49.41 0 0 1-12 4.82 63.54 63.54 0 0 1-12.8 2 71 71 0 0 1-13-.5 57 57 0 0 1-12.61-3.05c-.51-.19-1-.36-1.53-.57l-3-1.33c-.49-.23-1-.52-1.44-.77a33.69 33.69 0 0 1-5.47-3.55 24.71 24.71 0 0 1-4.51-4.59 17.93 17.93 0 0 1-2.91-5.89 14.64 14.64 0 0 1-.23-6.55 16.5 16.5 0 0 1 2.56-6 28.26 28.26 0 0 1 9.76-8.56Z"/><path class="cls-16" d="M413.37 165.46v5.29c0-2.63-1.31-5.28-3.93-7.57a17.63 17.63 0 0 0-2.67-1.93 26 26 0 0 0-6.12-2.65c-8.64-2.61-19.46-1.85-26.8 2.31v-5.31c7.33-4.16 18.17-4.92 26.8-2.32a26.78 26.78 0 0 1 6.14 2.65 18.69 18.69 0 0 1 3.12 2.35 9.93 9.93 0 0 1 3.46 7.18Z"/><path class="cls-47" d="m409.91 158.28-.47 4.9a17.63 17.63 0 0 0-2.67-1.93 26 26 0 0 0-6.12-2.65v-5.32a26.78 26.78 0 0 1 6.14 2.65 18.69 18.69 0 0 1 3.12 2.35Z"/><path class="cls-16" d="M366.8 170.65v-5.32c0-3.54 2.37-7.08 7.05-9.73v5.31c-4.68 2.65-7.04 6.19-7.05 9.74ZM375.66 164.15c8.19-4.64 21.28-4.5 29.24.3s7.77 12.47-.42 17.11-21.28 4.51-29.24-.3-7.77-12.46.42-17.11Z"/><path class="cls-33" d="M378.07 165s-1.86.75-1.68 1.75-.93 1.76-.37 2.89 3.41 1.48 4.9 1.11 4.78 1.71 6.64.14a17 17 0 0 1 2.83-2.13c.27-.16.1-1.41-.58-2.56a3.47 3.47 0 0 0-3.6-1.89c-3.49.56-4.73.22-5.6-.05s-2.54.74-2.54.74Z"/><path class="cls-52" d="M379.23 165.54s1.28-.76 1.95-.57a7.07 7.07 0 0 0 2.86.2c.42 0 .9-.09 1.45-.17a2.72 2.72 0 0 1 2.78 1.44 4.08 4.08 0 0 1 .46 1c.15.53.14 1 0 1.05a14 14 0 0 0-2.16 1.62c-1.42 1.18-3.91-.37-5.06-.09s-3.35 0-3.8-.87.37-1.45.23-2.23 1.26-1.36 1.29-1.38Z"/><path d="M380.39 166.08a2.62 2.62 0 0 1 1.36-.41 5.38 5.38 0 0 0 2 .13c.3 0 .63-.06 1-.12a2 2 0 0 1 2 1 2.58 2.58 0 0 1 .37.77c.09.39.06.71-.09.79a10.93 10.93 0 0 0-1.48 1.1c-1 .8-2.68-.22-3.48 0s-2.35 0-2.69-.62.18-1 .09-1.58.86-1.02.92-1.06Z" style="fill:#ffdd4d"/><path d="M381.55 166.62a1.58 1.58 0 0 1 .77-.24 4.53 4.53 0 0 0 1.15 0h.59a1.29 1.29 0 0 1 1.14.55 1.19 1.19 0 0 1 .28.53c0 .25 0 .46-.14.54a6 6 0 0 0-.81.58c-.53.42-1.44-.08-1.91 0a1.87 1.87 0 0 1-1.58-.37c-.23-.33 0-.59-.05-.93s.47-.61.56-.66Z" style="fill:#ffe578"/><path d="M383.86 167.44a.38.38 0 0 1-.2.29 1 1 0 0 1-.47.11 1 1 0 0 1-.48-.11.36.36 0 0 1-.19-.29.33.33 0 0 1 .19-.28 1 1 0 0 1 .48-.12 1 1 0 0 1 .47.12.35.35 0 0 1 .2.28Z" style="fill:#fff3c0"/><path class="cls-33" d="M397.3 167.38c-.42.4-1.8 2.7-.37 3s2.74-.38 2.76 1.09a2.76 2.76 0 0 0 3.31 2.7c2.17-.22 1.62.16 3.73-.22s2.17-1.38 1.73-2.69 0-3-2-3.89a4.4 4.4 0 0 0-4.1.47c-.47.23-3.82-1.65-5.06-.46Z"/><path class="cls-52" d="M402.66 168.34a3.57 3.57 0 0 1 3.2-.32c1.59.68 1.3 2 1.63 3s.24 1.82-1.39 2.13a21.53 21.53 0 0 1-2.93.19 2.22 2.22 0 0 1-2.65-2.07c-.06-1.13-1.07-.64-2.14-.91s0-2 .34-2.35c.98-.89 3.54.5 3.94.33Z"/><path class="cls-56" d="M403 168.84a2.76 2.76 0 0 1 2.32-.18c1.13.48 1 1.41 1.2 2.15s.12 1.33-1 1.56a12.37 12.37 0 0 1-2.14.17 1.69 1.69 0 0 1-2-1.44c-.09-.78-.8-.5-1.51-.73s0-1.43.31-1.68c.68-.64 2.46.31 2.82.15Z"/><path class="cls-57" d="M403.32 169.33a2.07 2.07 0 0 1 1.43 0c.68.3.67.83.78 1.29s0 .83-.69 1a5.33 5.33 0 0 1-1.35.14 1.19 1.19 0 0 1-1.32-.8c-.12-.44-.51-.36-.87-.55s.06-.84.27-1c.43-.41 1.43-.02 1.75-.08Z"/><path class="cls-58" d="M404.55 170.36c0 .29-.4.53-.89.53s-.9-.24-.9-.53.4-.54.9-.54.89.24.89.54Z"/><path class="cls-33" d="M380.74 179a7.14 7.14 0 0 1 3.47-3.22c2.36-.91 3.83 1.08 4.55.37s3.33-2.43 4.26-1a7.8 7.8 0 0 0 4 3.23 1.85 1.85 0 0 1 .06 3.42c-1.49.82-4.47 1.27-5.4 1.83s-7.19.8-7.07-1.83-3.87-1.16-3.87-2.8Z"/><path class="cls-52" d="M385.33 176.66c1.82-.72 3 .76 3.6.22s2.64-1.8 3.38-.68a6.71 6.71 0 0 0 3.06 2.53 1.47 1.47 0 0 1 0 2.68c-1.17.64-3.47 1-4.24 1.41s-5.53.59-5.49-1.41-3-1-3-2.23a5.35 5.35 0 0 1 2.69-2.52Z"/><path class="cls-56" d="M386.45 177.5c1.28-.52 2.15.44 2.65.09s1.95-1.19 2.51-.4a5.64 5.64 0 0 0 2.14 1.84 1.08 1.08 0 0 1-.13 1.93 32 32 0 0 1-3.07 1c-.61.28-3.88.37-3.91-1s-2.08-.74-2.08-1.63a3.64 3.64 0 0 1 1.89-1.83Z"/><path class="cls-57" d="M387.57 178.34c.74-.32 1.3.13 1.71-.05s1.25-.56 1.62-.11a6.5 6.5 0 0 0 1.23 1.15c.39.25.3.9-.22 1.19a10.61 10.61 0 0 1-1.91.59c-.45.14-2.22.15-2.33-.59s-1.2-.51-1.2-1a2 2 0 0 1 1.1-1.18Z"/><path class="cls-58" d="M390.51 179.62a.54.54 0 0 1-.31.45 1.44 1.44 0 0 1-.75.19 1.41 1.41 0 0 1-.75-.19.47.47 0 0 1 0-.89 1.41 1.41 0 0 1 .75-.19 1.44 1.44 0 0 1 .75.19.54.54 0 0 1 .31.44Z"/><path class="cls-23" d="M373.91 181.38a19.65 19.65 0 0 1-3-2.23 14.09 14.09 0 0 1-2.22-2.54 11.68 11.68 0 0 1-1.39-2.82 10.22 10.22 0 0 1-.31-1.21 9.44 9.44 0 0 1-.18-1.93c0-3.55 2.37-7.09 7.05-9.74a4.17 4.17 0 0 0 1.81 3.24c-8.19 4.65-8.38 12.31-.42 17.11s21.05 5 29.24.3 8.38-12.3.42-17.11-21-4.94-29.24-.3a4.17 4.17 0 0 1-1.81-3.24c9.23-5.23 24-5.08 32.92.34 4.41 2.66 6.67 6.1 6.59 9.53a6.61 6.61 0 0 1 0 .77c-.06.47-.15 1.09-.25 1.54a10.56 10.56 0 0 1-.69 2 13.08 13.08 0 0 1-2.75 3.79c-3.45 3.4-8.43 4.93-9.88 5.32a34.61 34.61 0 0 1-6.58 1.16 38.33 38.33 0 0 1-6.82-.07c-.69-.08-1.85-.2-3.33-.5a29.79 29.79 0 0 1-3.22-.8 28.53 28.53 0 0 1-3.06-1.12 25.05 25.05 0 0 1-2.88-1.49Z"/><path class="cls-16" d="M372.54 183.61a18.82 18.82 0 0 1-6-5.53 12.27 12.27 0 0 1-2.12-6.88c0 3.78 2.39 7.56 7.25 10.5 9.87 6 26.1 6.12 36.25.37 5.16-2.93 7.77-6.82 7.78-10.73 0 .28 0 .65-.05.93-.06.55-.17 1.28-.29 1.82a12.18 12.18 0 0 1-.82 2.32 13.37 13.37 0 0 1-1.07 1.89 15.47 15.47 0 0 1-2.08 2.48 21.25 21.25 0 0 1-4.33 3.2 28.92 28.92 0 0 1-6.41 2.64 37.14 37.14 0 0 1-7.26 1.3 40.05 40.05 0 0 1-7.34-.08c-.69-.07-2-.21-3.6-.53a32.91 32.91 0 0 1-3.48-.87 32.45 32.45 0 0 1-3.33-1.22 25.57 25.57 0 0 1-3.1-1.61Z"/><path class="cls-39" d="M372.22 154.61c10.15-5.76 26.39-5.59 36.26.37s9.63 15.46-.52 21.21-26.38 5.59-36.25-.37-9.64-15.46.51-21.21Zm1.63 1c-9.22 5.23-9.42 13.85-.46 19.27s23.71 5.56 32.93.33 9.43-13.85.47-19.27-23.71-5.57-32.94-.34Z"/><path class="cls-39" d="M415.72 165.47v5.87c0 3.91-2.61 7.8-7.78 10.73-7.76 4.39-19.07 5.34-28.38 2.87a30.41 30.41 0 0 1-7.87-3.24 20.78 20.78 0 0 1-3.4-2.55 10.93 10.93 0 0 1-3.85-8v-5.85a11 11 0 0 0 3.85 7.91 20.05 20.05 0 0 0 3.42 2.56 29.68 29.68 0 0 0 7.59 3.23c9.36 2.56 20.82 1.64 28.66-2.8 5.16-2.93 7.75-6.83 7.76-10.73Z"/><path class="cls-8" d="M379.56 184.94a30.41 30.41 0 0 1-7.87-3.24 20.78 20.78 0 0 1-3.4-2.55v-5.89a20.05 20.05 0 0 0 3.42 2.56 29.68 29.68 0 0 0 7.59 3.18c.1 2 .19 4.05.26 5.94Z"/><path class="cls-15" d="M406.32 175.2a16 16 0 0 0 5.43-4.87 9.32 9.32 0 0 0 1.41-3.38 8 8 0 0 0-.16-3.64 11.78 11.78 0 0 0-4.21-5.86 19.41 19.41 0 0 0-3.08-2c-.27-.14-.53-.3-.81-.43l-1.67-.74c-.28-.12-.58-.21-.86-.32a37 37 0 0 0-14.37-2.04 36.16 36.16 0 0 0-7.24 1.07 28.38 28.38 0 0 0-6.86 2.61 31.92 31.92 0 0 1 14.1-3.85 36.12 36.12 0 0 1 14.5 2c.29.1.58.2.87.32l1.68.76c.28.13.55.29.82.43a20.35 20.35 0 0 1 3.1 2 11.92 11.92 0 0 1 4.24 6 8.17 8.17 0 0 1 .14 3.71 9.26 9.26 0 0 1-1.45 3.42 15.86 15.86 0 0 1-5.58 4.81ZM364.45 165.33a10.17 10.17 0 0 0 2.14 5.92 16.84 16.84 0 0 0 4.72 4.22 26.85 26.85 0 0 0 5.74 2.7l.75.26c.25.09.51.15.77.22l1.52.43 2.33.5 2.36.37 1.58.16c1.05.13 2.11.15 3.17.18a39.66 39.66 0 0 0 6.34-.36 35.81 35.81 0 0 0 12.13-3.74 31 31 0 0 1-5.85 2.54 38.76 38.76 0 0 1-6.22 1.36 41.14 41.14 0 0 1-6.37.41 30.8 30.8 0 0 1-3.18-.17l-1.59-.15-2.37-.36-2.42-.52-2.3-.66-.75-.28a26.56 26.56 0 0 1-5.77-2.75 16.69 16.69 0 0 1-4.73-4.29 10.14 10.14 0 0 1-2-5.99Z"/><g id="Axo_base-9" data-name="Axo base"><path class="cls-4" d="M336 63.25c-.37-.21-.53-.9-.27-2.31.21-1.12 2.87-2.35 3.54-2 .27.15.05.65-.31 2-.27 1.06-2.09 2.8-2.96 2.31Z"/><path class="cls-37" d="M336.37 63.55a.86.86 0 0 1-.43-.11c-.51-.3-.63-1.15-.37-2.54.15-.81 1.25-1.46 1.71-1.7a3.16 3.16 0 0 1 2.12-.49c.37.21.25.62 0 1.51-.06.2-.13.43-.2.7a4.62 4.62 0 0 1-2.27 2.5 1.37 1.37 0 0 1-.56.13Zm-.23-.48a.73.73 0 0 0 .63 0 4.26 4.26 0 0 0 2-2.22c.07-.27.14-.51.2-.71a3 3 0 0 0 .21-1 3 3 0 0 0-1.74.49c-.84.44-1.41 1-1.49 1.41-.28 1.56.05 1.96.19 2.03Z"/></g><g id="Axo_base-10" data-name="Axo base"><path class="cls-4" d="M341 60.09a.62.62 0 0 1-.24-.27c-.37-.93-.59-1.15-.3-1.62.6-1 2.82-2.59 3.4-2.25a.3.3 0 0 1 .13.18c.8 3.16-1.99 4.5-2.99 3.96Z"/><path class="cls-37" d="M341.53 60.41a1.2 1.2 0 0 1-.61-.14.74.74 0 0 1-.32-.38c-.08-.18-.14-.34-.2-.48-.25-.55-.38-.85-.09-1.32.59-1 2.92-2.75 3.69-2.32a.48.48 0 0 1 .22.31 3.42 3.42 0 0 1-1.14 3.75 2.65 2.65 0 0 1-1.55.58Zm-.4-.5a1.81 1.81 0 0 0 1.7-.41 3 3 0 0 0 1-3.32c-.41-.27-2.53 1.12-3.15 2.13-.17.28-.13.39.11.93.06.14.13.31.2.5a.4.4 0 0 0 .14.17Z"/></g><path class="cls-4" d="M339.4 59a1.76 1.76 0 0 1 .42-.41.49.49 0 0 1 .53-.06Z"/><path class="cls-37" d="m339.57 59.12-.34-.23a1.94 1.94 0 0 1 .46-.47.71.71 0 0 1 .77-.07l-.21.36a.31.31 0 0 0-.31 0 1.59 1.59 0 0 0-.37.41ZM330.72 59.73l4.92 2.37-.14-.84-4.92-2.11.14.58z"/><path class="cls-41" d="m383.11 271.47-.85-3.41a44.81 44.81 0 0 1-.31-4.51 36 36 0 0 0 2.05-3c.28-.58.48-.07.52.73a8.62 8.62 0 0 1-.89 2.62l.51 2.72s1.72-.76 2.2-.94 1.44-1.53 1.78-1.67.72-2.07.72-2.07a7.54 7.54 0 0 1-1.44-.73c-.41-.33-.93-.62-.93-1.09s-.27-1.35.17-1.2.79.73 1.58.76 1.89 0 2.09.55a25.56 25.56 0 0 1 .21 3.7s.79-3.34 1.44-3 .86.8.86 2.15-.59 2.18-.38 2.69.72.62.34 1.56-.51 1-.44 1.31.09.39-.66 1.3a11.77 11.77 0 0 1-1.92 2c-.89.73-2.7 2.59-2.7 2.59Z"/><path class="cls-59" d="M344 355.39s-5.49 4.36-7 5.52-6.58 3.71-3.83 7c1.74 2.07 8.09 1.16 9.18-1.16s3.16-3 5.08-3.57a7.35 7.35 0 0 0 3.7-2.32c.55-.73-1-6.62-1-6.62Z"/><path class="cls-60" d="M344.41 352.7s-4.11 5.38-7.41 7.12c-1.66.88-5.75 5.09-3.83 7s8.09 1.16 9.18-1.16a8.1 8.1 0 0 1 5.08-4.22 7.35 7.35 0 0 0 3.7-2.33c.55-.72-1-6-1-6Z"/><path class="cls-59" d="M337 297s-1.09 16.72.55 24.42 2.88 12.8 3.43 15.41 1.24 18.61 1.24 18.61 3.83 1.89 5.89 1a10.5 10.5 0 0 0 3.29-2.18s-.13-9.45.28-12.94-1.79-10.18-1.79-10.18l-1.37-28.63ZM365.66 369.85s-1 4.51-2.46 6.11-4.12 5.23-2.47 6.39a6.47 6.47 0 0 0 6.85-.14c2.2-1.46 3-4.51 3.84-5.82s2.06-3.92 1-6.1-.41-1.89-1.09-2.18-5.67 1.74-5.67 1.74Z"/><path class="cls-60" d="M365.66 368.54s-1 4.51-2.46 6.11-4.12 5.23-2.47 6.39a6.47 6.47 0 0 0 6.85-.14c2.2-1.45 2.47-4.94 3.29-6.25s2.61-3.49 1.51-5.67-.41-1.89-1.09-2.18-5.63 1.74-5.63 1.74Z"/><path class="cls-59" d="M343.86 312.29c1.62 5.86 6.31 18.6 8.91 22.53s8.09 12.94 8.92 17.73 2.47 17.74 2.47 17.74 5.75 2.61 7 .58 1.64-2.62 1.64-2.62-1-20.2-2.74-23-4.13-7.9-4.8-7.85c-.41 0-3.15-28.63-4.25-33.14a33.65 33.65 0 0 0-4.25-9.16l-15.63 4.36s1.87 9.68 2.73 12.83Z"/><path class="cls-61" d="M342.17 260.59c-.42 0-5.08.59-6.86 3.49s-2.2 18.17-2.33 19.77-.28 2.62-.28 2.62l-17.5 16.37s-.82 4.5 3.7 4.36 21.35-15.5 21.35-15.5 3.42-20.2 3.29-20.93-1.37-10.18-1.37-10.18Z"/><path class="cls-41" d="M304.4 307v.82l2 .82s0 .45.15.57a3.5 3.5 0 0 0 .73.33l.16.86s1.31 1.88 2.86 1.84 3.79-1.76 4.29-2.21a21 21 0 0 0 1.7-3.81l-3.63-1.93-5 2.42s-3.3.08-3.26.29Z"/><path style="fill:#0032ff" d="m328.35 308.04-13.28 7.69-16.24-14.07.02-.77 29.54 6.43-.04.72z"/><path style="fill:#7f86cb" d="m328.43 307.28-13.28 7.69-16.23-14.08 13.28-7.68 16.23 14.07z"/><path class="cls-15" d="m299.52 300.95 12.64-7.31 15.67 13.58-12.64 7.32-15.67-13.59z"/><path style="fill:#ffcd00" d="m304.74 299.09 4.75-2.92-.47-1.26-6.08 3.66 1.8.52z"/><path class="cls-41" d="m304.17 306.67-.08-1s1.05-1 1.51-1.06.62.08.89 0a.57.57 0 0 1 .7.61 1.54 1.54 0 0 1-.93 1 1.25 1.25 0 0 0-.62.36v.95s-.89.78-1.28.37a1.5 1.5 0 0 1-.19-1.23Z"/><path class="cls-41" d="m304.81 307.33-.09-1.22s1.3-1.23 1.88-1.28.77.1 1.11 0a.7.7 0 0 1 .86.73 1.78 1.78 0 0 1-1.15 1.22 1.61 1.61 0 0 0-.77.44v1.13s-1.11.93-1.6.44a1.7 1.7 0 0 1-.24-1.46Z"/><path class="cls-41" d="m305.74 308.27-.09-1.22s1.3-1.22 1.87-1.27.78.09 1.11 0a.7.7 0 0 1 .87.73 1.81 1.81 0 0 1-1.16 1.22 1.61 1.61 0 0 0-.77.44v1.13s-1.11.93-1.59.44a1.7 1.7 0 0 1-.24-1.47Z"/><path class="cls-41" d="m307 309.13-.07-1s1-1 1.46-1.05.6.08.86 0a.56.56 0 0 1 .67.61 1.45 1.45 0 0 1-.9 1 1.24 1.24 0 0 0-.6.36v.94s-.86.76-1.23.36a1.45 1.45 0 0 1-.19-1.22Z"/><path d="M346.69 258.7s-6.72 2.19-7 3.06-4.11 8.51-1.87 16.66c1.92 7-.83 11.92-1.24 14.1s-1.4 37.05-1.4 37.05 8.92 7.42 17.69 7.42a27.22 27.22 0 0 0 14.85-4.44s-6.32-38.58-1.84-50.73c1.64-4.47 2.33-19 .82-20.5s-13.7-2.91-13.7-2.91Z" style="fill:#9fb1e8"/><path class="cls-61" d="M361.53 270.53c-1 15.1 11.21 20 13.13 19.72s4.8-1.89 4.26-4.51-6.31-12.79-6.45-14.39-2.47-9.3-5.76-10-4.98 6.26-5.18 9.18Z"/><path class="cls-61" d="M372.88 281.38c1-1.38 3.43-2 5.49-3.78a26.86 26.86 0 0 0 3.84-5c.48-.72.82-1.21 1-1.21.41 0 4 2 4.11 3.35s-6.72 11.19-9.32 13.66-9.65-.7-5.12-7.02Z"/><path d="M345.87 251.22a57.55 57.55 0 0 1-.55 8.94c-.62 3 2.18 13.64 2.18 13.64l8.15-14.86-1.28-3.65Z" style="fill:#00788b"/><path class="cls-41" d="M345.87 251.22a57.55 57.55 0 0 1-.55 8.94c-.62 3 2.43 4.94 4.59 4.87 4.24-.13 5.74-6.09 5.74-6.09l-1.28-3.65Z"/><path class="cls-59" d="m355.36 248.09 1.51.18a22.56 22.56 0 0 0-.14-6.06c-.54-2.55-4.28-5.13-7.16-4.58s-4.49 2.76-5.28 5.48a8.61 8.61 0 0 0 .51 5.71c.21.36 5.22 1.49 5.22 1.49Z"/><path d="M356.36 248.86s.82-3.13 1.3-2.73-.24 3.56-.41 4a15.85 15.85 0 0 1-.82 1.49Z" style="fill:#ffce72"/><path class="cls-40" d="M355.58 242.69a.36.36 0 0 1 .62.19 16.57 16.57 0 0 1 .57 3.69c0 2 .38 3.89 0 4.9s-.89 3.89-1.33 4.51-1.55 2.62-2.78 2.83-3.84-1.7-4.59-2.54-2.23-3.31-2.54-3.67a1.22 1.22 0 0 1-.14-1 5.64 5.64 0 0 1-.79.14 7.05 7.05 0 0 1-1.61-3.63c0-1.35 0-1.82.48-1.64a14.57 14.57 0 0 1 1.82 1.2s.27 1.28.75 1 1-2 1.17-2.94.51-3.2 1.71-3.24 3.6 1.89 4.94 1.31a5.68 5.68 0 0 0 1.72-1.11Z"/><path class="cls-58" d="M345.54 258.37s-1.8.49-2.26 1.69-1.65 4.64-1.65 4.64l2.21-.88-1.59 3.18s2.31 2.45 2.88 3.27 2.31 3.44 2.31 3.44-1.28-5.83-1.69-9.16a28.16 28.16 0 0 1-.21-6.18ZM355.21 257.39a5.54 5.54 0 0 1-1.17 4.28 72 72 0 0 0-4.59 6.62 41.74 41.74 0 0 0-2 5.56l7.45-6.85-.62-1.42 3.5-1.26s-.1-4-.67-5.12a9.68 9.68 0 0 0-1.9-1.81Z"/><path d="M386.85 263.49a1.63 1.63 0 0 1-.14.66 1.38 1.38 0 0 1-1.24.8 1.42 1.42 0 0 1-1.38-1.46v-13l2.76.07Z" style="fill:#969cde"/><path class="cls-47" d="M386.73 263.41a1.61 1.61 0 0 1-.21.75c-.76 0-.9-.62-.91-1.43a.45.45 0 0 0 0-.1v-12.08h1.13Z"/><path class="cls-69" d="M386.85 250.54c0 .46-.62.84-1.38.84s-1.37-.38-1.37-.84v-1.67h2.75Z"/><path class="cls-69" d="M386.85 248.87c0 .46-.62.84-1.38.84s-1.37-.38-1.37-.84.61-.84 1.37-.84 1.38.37 1.38.84Z"/><path d="M384.09 263.39Z" style="fill:#4dcb95"/><path class="cls-15" d="M384.47 251.46v11.79s-.1.51.17.51.2-.57.2-.57v-11.63a.5.5 0 0 1-.37-.1Z"/><path class="cls-40" d="M389.7 264.84a5.31 5.31 0 0 0 2.26-1.42c.82-1 .82-1.41.72-1.65s-.33-1-1-.85-1.35 2.21-1.92 2.74-1.16 1.24-.06 1.18ZM392.35 265.7c-.07-.05-2-.71-2.09-.51s-2.26 2.45-2 2.94 1 .13 1.29-.13.77-1.05 1.68-.87 1.18.82 1.49.51.82-1.13-.37-1.94Z"/><path class="cls-40" d="M391.92 268.2s-1.49-.59-1.65-.64-1.44.74-1.95.93-.64.54-.14.78 1.95-.33 2.11-.18.82 1.09 1.42 1 1.03-1.28.21-1.89Z"/></g></g></svg>