<svg xmlns="http://www.w3.org/2000/svg" viewBox="0 0 578.17 366.53"><defs><style>.cls-4{fill:#e1e2ef}.cls-5{fill:#758dc6}.cls-6{fill:#6275af}.cls-7{fill:#cbd8ec}.cls-8{fill:#7788bd}.cls-9{fill:#8798c9}.cls-10{fill:#9baade}.cls-12{fill:#bfceff}.cls-13{fill:#006170}.cls-14{fill:#00abae}.cls-15,.cls-28{fill:#fff}.cls-16{fill:#3c94a3}.cls-17{fill:#97b2e3}.cls-19{fill:#2b6c81}.cls-20{fill:#315659}.cls-22{fill:#d4e0ec}.cls-23{fill:#274c4f}.cls-24{fill:#009ea2}.cls-25{fill:#bfcfda}.cls-27{fill:#eff9ff}.cls-28{opacity:.38}.cls-30{fill:#007179}.cls-31{fill:#a7b5e1}.cls-32{fill:#0c6775}.cls-33{fill:#f2c900}.cls-36{fill:#dde9f2}.cls-37{fill:#80b3be}.cls-38{fill:#13bfad}.cls-39{fill:#c1cfe8}.cls-40{fill:#ffd5b4}.cls-41{fill:#f2bc97}.cls-43{fill:#000107}.cls-44{isolation:isolate}.cls-46{fill:#768ac6}.cls-47{fill:#c8e0ff}.cls-50{fill:#099889}.cls-52{fill:#f9da02}.cls-56{fill:#ffd410}.cls-57{fill:#ffdd23}.cls-58{fill:#ffe53e}.cls-59{fill:#005765}.cls-60{fill:#36b6c3}.cls-61{fill:#cbddf6}.cls-69{fill:#ffd025}</style></defs><g id="Слой_2" data-name="Слой 2"><g id="Слой_1-2" data-name="Слой 1"><path style="fill:#4f4f4f" d="M0 177.85 289.08 0l289.09 177.85L289.08 355.7 0 177.85z"/><path style="fill:#292929" d="M288.74 344.29 577.9 177.02l-.04 22.23L288.7 366.53l.04-22.24z"/><path style="fill:#454545" d="M288.74 344.29.14 177.98.1 200.22l288.6 166.31.04-22.24z"/><path id="Axo_base" data-name="Axo base" class="cls-4" d="m160.01 134.51-75.64 52.97-18.59-11.01 75.64-52.97 18.59 11.01z"/><path id="Axo_base-2" data-name="Axo base" class="cls-4" d="m175.59 142.31-91.16 63.06-18.59-11.01L157 131.3l18.59 11.01z"/><g id="Axo_Projection" data-name="Axo Projection"><g id="Axo_Surface_" data-name="Axo Surface*"><path id="Axo_panel" data-name="Axo panel" class="cls-5" d="m146.2 63.18 25.95 15.37 2.24 65.97-25.95-15.37-2.24-65.97z"/><path id="Axo_panel-2" data-name="Axo panel" class="cls-6" d="m172.15 78.55 3.12-2.15 2.24 65.97-3.12 2.15-2.24-65.97z"/></g><path id="Axo_base-3" data-name="Axo base" class="cls-7" d="m146.2 63.18 3.12-2.15 25.95 15.37-3.12 2.15-25.95-15.37z"/></g><g id="Axo_Compound_Projection" data-name="Axo Compound Projection"><g id="Axo_Compound_Extrusion" data-name="Axo Compound Extrusion"><g id="Axo_Extrusion" data-name="Axo Extrusion"><path id="Axo_panel-3" data-name="Axo panel" class="cls-6" d="M158.56 134.47a4.57 4.57 0 0 0-2.56-3.67 11.85 11.85 0 0 0-11.75.4 4.61 4.61 0 0 0-2.31 3.84l.09 2.59a4.58 4.58 0 0 1 2.31-3.84 11.87 11.87 0 0 1 11.75-.4 4.57 4.57 0 0 1 2.56 3.67Z"/><path id="Axo_panel-4" data-name="Axo panel" class="cls-8" d="m150.72 146.39 17.68-12.16.08 2.59-17.67 12.17-.09-2.6z"/></g><path id="Axo_Compound" data-name="Axo Compound" class="cls-7" d="m168.4 134.23-18.69-11.07L132 135.33l18.68 11.06Zm-23.9 4.48c-3.31-2-3.43-5.33-.25-7.51a11.85 11.85 0 0 1 11.75-.4c3.32 2 3.43 5.33.26 7.51a11.87 11.87 0 0 1-11.76.4Z"/></g><g id="Axo_Compound_Extrusion-2" data-name="Axo Compound Extrusion"><g id="Axo_Extrusion-2" data-name="Axo Extrusion"><path id="Axo_panel-5" data-name="Axo panel" class="cls-6" d="M141 146.59a4.58 4.58 0 0 0-2.56-3.68 11.9 11.9 0 0 0-11.75.4 4.58 4.58 0 0 0-2.31 3.84l.09 2.59a4.59 4.59 0 0 1 2.3-3.84 11.92 11.92 0 0 1 11.76-.4 4.62 4.62 0 0 1 2.56 3.68Z"/><path id="Axo_panel-6" data-name="Axo panel" class="cls-8" d="m133.01 158.58 17.71-12.19.09 2.6-17.71 12.18-.09-2.59z"/></g><path id="Axo_Compound-2" data-name="Axo Compound" class="cls-7" d="M150.72 146.39 132 135.33l-17.71 12.18L133 158.58Zm-23.82 4.44c-3.31-2-3.43-5.33-.25-7.52a11.9 11.9 0 0 1 11.75-.4c3.32 2 3.43 5.33.26 7.52a11.92 11.92 0 0 1-11.76.4Z"/></g><g id="Axo_Compound_Extrusion-3" data-name="Axo Compound Extrusion"><g id="Axo_Extrusion-3" data-name="Axo Extrusion"><path id="Axo_panel-7" data-name="Axo panel" class="cls-6" d="M123.36 158.7a4.59 4.59 0 0 0-2.56-3.7 11.87 11.87 0 0 0-11.76.4 4.58 4.58 0 0 0-2.3 3.83l.09 2.6a4.59 4.59 0 0 1 2.3-3.84 11.87 11.87 0 0 1 11.76-.4 4.61 4.61 0 0 1 2.56 3.67Z"/><path id="Axo_panel-8" data-name="Axo panel" class="cls-8" d="m115.3 170.77 17.71-12.19.09 2.59-17.71 12.19-.09-2.59z"/></g><path id="Axo_Compound-3" data-name="Axo Compound" class="cls-7" d="M114.33 147.51 96.62 159.7l18.68 11.07 17.7-12.19Zm-5 15.43c-3.32-2-3.43-5.33-.26-7.51a11.87 11.87 0 0 1 11.76-.4c3.31 2 3.43 5.33.25 7.51a11.9 11.9 0 0 1-11.78.4Z"/></g><g id="Axo_Compound_Extrusion-4" data-name="Axo Compound Extrusion"><g id="Axo_Extrusion-4" data-name="Axo Extrusion"><path id="Axo_panel-9" data-name="Axo panel" class="cls-6" d="M105.76 170.82a4.62 4.62 0 0 0-2.57-3.68 11.9 11.9 0 0 0-11.75.4 4.57 4.57 0 0 0-2.3 3.84l.08 2.59a4.61 4.61 0 0 1 2.31-3.84 11.9 11.9 0 0 1 11.75-.4 4.58 4.58 0 0 1 2.56 3.68Z"/><path id="Axo_panel-10" data-name="Axo panel" class="cls-8" d="m97.59 182.96 17.71-12.19.09 2.59-17.71 12.19-.09-2.59z"/></g><path id="Axo_Compound-4" data-name="Axo Compound" class="cls-7" d="M78.91 171.89 97.59 183l17.71-12.19-18.68-11.11Zm24.28-4.75c3.32 2 3.43 5.33.26 7.51a11.85 11.85 0 0 1-11.75.4c-3.32-2-3.43-5.33-.26-7.51a11.9 11.9 0 0 1 11.75-.4Z"/></g><g id="Axo_Compound_Extrusion-5" data-name="Axo Compound Extrusion"><g id="Axo_Extrusion-5" data-name="Axo Extrusion"><path id="Axo_panel-11" data-name="Axo panel" class="cls-6" d="M88.15 182.93a4.59 4.59 0 0 0-2.56-3.68 11.9 11.9 0 0 0-11.75.4 4.62 4.62 0 0 0-2.31 3.84l.09 2.59a4.6 4.6 0 0 1 2.31-3.84 11.87 11.87 0 0 1 11.75-.39 4.57 4.57 0 0 1 2.56 3.67Z"/><g id="Axo_Surface_2" data-name="Axo Surface*"><path id="Axo_panel-12" data-name="Axo panel" class="cls-7" d="m60.71 184.42 18.68 11.07.09 2.59-18.68-11.07-.09-2.59z"/><path id="Axo_panel-13" data-name="Axo panel" class="cls-8" d="m79.39 195.49 18.2-12.53.09 2.59-18.2 12.53-.09-2.59z"/></g></g><path id="Axo_Compound-5" data-name="Axo Compound" class="cls-7" d="m60.71 184.42 18.68 11.07L97.59 183l-18.68-11.11Zm24.88-5.17c3.32 2 3.43 5.33.26 7.52a11.92 11.92 0 0 1-11.76.4c-3.31-2-3.43-5.33-.25-7.52a11.9 11.9 0 0 1 11.75-.4Z"/></g></g><g id="Axo_Compound_Extrusion-6" data-name="Axo Compound Extrusion"><path id="Axo_panel-14" data-name="Axo panel" class="cls-6" d="M160.1 102.86a4.63 4.63 0 0 0-2.57-3.68 11.9 11.9 0 0 0-11.75.4 4.57 4.57 0 0 0-2.3 3.84l.08 2.59a4.61 4.61 0 0 1 2.31-3.84 11.9 11.9 0 0 1 11.75-.4 4.59 4.59 0 0 1 2.56 3.68Z"/><path class="cls-7" d="M145.78 99.58a11.9 11.9 0 0 1 11.75-.4c2.29 1.36 3.06 3.38 2.26 5.23l9.75-1.53-18.68-11.06-18.21 12.53 11.39.86c-1.12-1.84-.56-4.04 1.74-5.63Z"/><path class="cls-9" d="M160 131.67c.15 4.21-2.85 6.57-6.65 6.7s-7-2-7.09-6.23 2.82-7.71 6.61-7.84 6.97 3.17 7.13 7.37Z"/><g id="Axo_Projection-2" data-name="Axo Projection"><g id="Axo_Surface_3" data-name="Axo Surface*"><path class="cls-10" d="m158.27 81.27 1.7 50.08c.09 2.43-2.92 4.5-6.72 4.63-3.51.12-6.46-1.46-6.95-3.61a2.51 2.51 0 0 1-.07-.55l-1.71-50.08c.09 2.42 3.23 4.29 7 4.16s6.83-2.2 6.75-4.63Z"/><path class="cls-9" d="m158.27 81.27 1.7 50.08c.09 2.43-2.92 4.5-6.72 4.63-3.51.12-6.46-1.46-6.95-3.61a6.83 6.83 0 0 0 .86.69c2.2 1.52 5.3-.18 7.05-7.7s.77-36.22.77-36.22l-6.06-1.38a7.25 7.25 0 0 1-4.28-2.66l-.12-3.36c.09 2.42 3.23 4.29 7 4.16s6.83-2.2 6.75-4.63Z"/></g><path d="M145.15 81.85c-.09-2.42 2.3-4.61 6.1-4.74s6.38 2.12 6.46 4.54c0 1.43.17 5.3.17 5.3s-.63 2.74-6.2 2.93c-5.17.17-6.14-2.51-6.14-2.51s-.35-4.21-.39-5.52Z" style="fill:#19b4bf"/><path class="cls-12" d="M151.59 87.17c-4.5.15-8.1-2.22-8.21-5.39s3.33-5.79 7.82-5.94 8.11 2.22 8.22 5.39-3.33 5.77-7.83 5.94Zm-.3-8.79c-3.28.11-5.67 1.84-5.62 3.32s2.56 3 5.83 2.93 5.68-1.85 5.63-3.32-2.56-3.04-5.84-2.93Z"/><ellipse class="cls-13" cx="151.3" cy="78.61" rx="8.02" ry="5.67" transform="rotate(-1.95 150.896 78.39)"/><ellipse class="cls-14" cx="151.25" cy="77.22" rx="8.02" ry="5.67" transform="rotate(-1.95 150.916 77.214)"/></g><path class="cls-15" d="m146.48 89.06.7 20.4s.33 7 1.25 6.1.54-6.9.54-6.9L148.34 90a2.17 2.17 0 0 1-1.86-.94Z"/><g id="Axo_Surface_4" data-name="Axo Surface*"><path id="Axo_panel-15" data-name="Axo panel" class="cls-7" d="m132.65 104.35 18.68 11.06.09 2.59-18.68-11.06-.09-2.59z"/><path id="Axo_panel-16" data-name="Axo panel" class="cls-8" d="m151.33 115.41 18.21-12.53.09 2.59L151.42 118l-.09-2.59z"/></g><path class="cls-7" d="M159.79 104.41a5.51 5.51 0 0 1-2 2.29 11.9 11.9 0 0 1-11.75.4 5.72 5.72 0 0 1-2-1.89l-11.39-.86 18.68 11.06 18.21-12.53Z"/></g><g id="Axo_Compound_Extrusion-7" data-name="Axo Compound Extrusion"><path id="Axo_panel-17" data-name="Axo panel" class="cls-6" d="M141.86 115.41a4.61 4.61 0 0 0-2.56-3.67 11.89 11.89 0 0 0-11.76.39 4.61 4.61 0 0 0-2.3 3.84l.08 2.59a4.59 4.59 0 0 1 2.31-3.83 11.85 11.85 0 0 1 11.75-.4 4.57 4.57 0 0 1 2.56 3.67Z"/><path class="cls-7" d="M127.54 112.13a11.89 11.89 0 0 1 11.76-.39c2.29 1.35 3 3.38 2.25 5.22l9.75-1.52-18.68-11.07-18.21 12.53 11.39.87c-1.12-1.85-.56-4.05 1.74-5.64Z"/><g id="Axo_Surface_5" data-name="Axo Surface*"><path id="Axo_panel-18" data-name="Axo panel" class="cls-7" d="m114.41 116.9 18.68 11.07.09 2.59-18.68-11.07-.09-2.59z"/><path id="Axo_panel-19" data-name="Axo panel" class="cls-8" d="m133.09 127.97 18.21-12.53.09 2.59-18.21 12.53-.09-2.59z"/></g><path class="cls-7" d="M141.55 117a5.51 5.51 0 0 1-2 2.29 11.9 11.9 0 0 1-11.75.4 5.79 5.79 0 0 1-2-1.88l-11.39-.87L133.09 128l18.21-12.53Z"/></g><g id="Axo_Compound_Extrusion-8" data-name="Axo Compound Extrusion"><path id="Axo_panel-20" data-name="Axo panel" class="cls-6" d="M123.62 128a4.61 4.61 0 0 0-2.56-3.67 11.87 11.87 0 0 0-11.76.4 4.59 4.59 0 0 0-2.3 3.84l.08 2.59a4.61 4.61 0 0 1 2.31-3.84 11.85 11.85 0 0 1 11.75-.4 4.6 4.6 0 0 1 2.57 3.67Z"/><path class="cls-7" d="M109.3 124.69a11.87 11.87 0 0 1 11.76-.4c2.29 1.35 3 3.38 2.25 5.22l9.75-1.52-18.68-11.07-18.21 12.53 11.39.87c-1.12-1.84-.56-4.05 1.74-5.63Z"/><path class="cls-10" d="m122.6 130.21.21 12.31c.08 2.42-2.53 11.59-7.46 12.51a4.73 4.73 0 0 1-5.77-3.82 3.08 3.08 0 0 1-.06-.54l-.68-20c.08 2.42 3.24 4.29 7 4.16s6.84-2.19 6.76-4.62Z"/><path class="cls-16" d="M108.84 130.68c-.08-2.43 2.94-4.5 6.74-4.63s6.94 1.73 7 4.16-2.93 4.5-6.72 4.63-6.94-1.73-7.02-4.16Z"/><g id="Axo_Surface_6" data-name="Axo Surface*"><path id="Axo_panel-21" data-name="Axo panel" class="cls-7" d="m96.17 129.45 18.68 11.07.09 2.59-18.68-11.07-.09-2.59z"/><path id="Axo_panel-22" data-name="Axo panel" class="cls-8" d="m114.85 140.52 18.21-12.53.09 2.59-18.21 12.53-.09-2.59z"/></g><path class="cls-7" d="M123.31 129.51a5.4 5.4 0 0 1-2 2.29 11.87 11.87 0 0 1-11.75.4 5.79 5.79 0 0 1-2-1.88l-11.39-.87 18.68 11.07L133.06 128Z"/></g><g id="Axo_Compound_Extrusion-9" data-name="Axo Compound Extrusion"><path id="Axo_panel-23" data-name="Axo panel" class="cls-6" d="M105.38 140.51a4.61 4.61 0 0 0-2.56-3.67 11.89 11.89 0 0 0-11.76.4 4.59 4.59 0 0 0-2.3 3.84l.09 2.59a4.57 4.57 0 0 1 2.3-3.84 11.9 11.9 0 0 1 11.75-.4 4.62 4.62 0 0 1 2.57 3.68Z"/><path class="cls-7" d="M91.06 137.24a11.89 11.89 0 0 1 11.76-.4c2.29 1.36 3.05 3.38 2.25 5.22l9.75-1.52-18.68-11.07L77.93 142l11.39.87c-1.12-1.87-.56-4.05 1.74-5.63Z"/><g id="Axo_Surface_7" data-name="Axo Surface*"><path id="Axo_panel-24" data-name="Axo panel" class="cls-7" d="m77.93 142 18.68 11.07.09 2.59-18.68-11.07-.09-2.59z"/><path id="Axo_panel-25" data-name="Axo panel" class="cls-8" d="m96.61 153.07 18.21-12.53.09 2.59-18.21 12.53-.09-2.59z"/></g><path class="cls-7" d="M105.07 142.06a5.4 5.4 0 0 1-2 2.29 11.85 11.85 0 0 1-11.75.4 5.7 5.7 0 0 1-2-1.88L77.93 142l18.68 11.07 18.21-12.53Z"/></g><g id="Axo_Compound_Extrusion-10" data-name="Axo Compound Extrusion"><path id="Axo_panel-26" data-name="Axo panel" class="cls-6" d="M87.14 153.07a4.6 4.6 0 0 0-2.56-3.68 11.92 11.92 0 0 0-11.76.4 4.59 4.59 0 0 0-2.3 3.84l.09 2.59a4.59 4.59 0 0 1 2.3-3.84 11.92 11.92 0 0 1 11.76-.4 4.63 4.63 0 0 1 2.56 3.68Z"/><path class="cls-7" d="M72.82 149.79a11.92 11.92 0 0 1 11.76-.4c2.29 1.36 3 3.38 2.25 5.23l9.75-1.53L77.9 142l-18.21 12.56 11.39.86c-1.08-1.84-.56-4.04 1.74-5.63Z"/><path class="cls-9" d="M87 181.88c.14 4.21-2.86 6.57-6.66 6.7s-7-2-7.09-6.23 2.82-7.71 6.61-7.84 7.02 3.17 7.14 7.37Z"/><g id="Axo_Projection-3" data-name="Axo Projection"><g id="Axo_Surface_8" data-name="Axo Surface*"><path class="cls-10" d="M85.31 131.48 87 181.56c.08 2.43-2.93 4.5-6.73 4.63-3.51.12-6.46-1.46-7-3.62a3.06 3.06 0 0 1-.07-.54L71.57 132c.08 2.42 3.22 4.28 7 4.16s6.83-2.26 6.74-4.68Z"/><path class="cls-9" d="M85.31 131.48 87 181.56c.08 2.43-2.93 4.5-6.73 4.63-3.51.12-6.46-1.46-7-3.62a6.87 6.87 0 0 0 .86.7c2.2 1.51 5.3-.18 7-7.7s.78-36.22.78-36.22L76 138a7.28 7.28 0 0 1-4.28-2.66l-.15-3.34c.08 2.42 3.22 4.28 7 4.16s6.83-2.26 6.74-4.68Z"/></g><path class="cls-9" d="M71.57 132c-.09-2.43 2.92-4.5 6.72-4.63s6.94 1.73 7 4.16-2.92 4.5-6.72 4.63-6.92-1.79-7-4.16Z"/><path class="cls-12" d="M78.63 137.37c-4.49.16-8.1-2.21-8.21-5.39s3.33-5.78 7.83-5.93 8.1 2.21 8.21 5.39-3.33 5.78-7.83 5.93Zm-.3-8.78c-3.27.11-5.67 1.84-5.62 3.32s2.56 3 5.84 2.93 5.67-1.85 5.62-3.32-2.56-3.04-5.84-2.93Z"/></g><path class="cls-15" d="m73.52 139.27.7 20.4s.33 7 1.26 6.1.53-6.9.53-6.9l-.63-18.71a2.17 2.17 0 0 1-1.86-.89Z"/><g id="Axo_Surface_9" data-name="Axo Surface*"><path id="Axo_panel-27" data-name="Axo panel" class="cls-7" d="m59.69 154.56 18.68 11.06.09 2.59-18.68-11.06-.09-2.59z"/><path id="Axo_panel-28" data-name="Axo panel" class="cls-8" d="m78.37 165.62 18.21-12.53.09 2.59-18.21 12.53-.09-2.59z"/></g><path class="cls-7" d="M86.83 154.62a5.51 5.51 0 0 1-2 2.29 11.87 11.87 0 0 1-11.75.39 5.61 5.61 0 0 1-2-1.88l-11.39-.86 18.68 11.06 18.21-12.53Z"/></g><g id="Axo_Projection-4" data-name="Axo Projection"><g id="Axo_Surface_10" data-name="Axo Surface*"><path id="Axo_panel-29" data-name="Axo panel" class="cls-5" d="m54.29 126.43 25.95 15.37 2.24 65.97-25.95-15.37-2.24-65.97z"/><path id="Axo_panel-30" data-name="Axo panel" class="cls-6" d="m80.24 141.8 3.12-2.15 2.24 65.97-3.12 2.15-2.24-65.97z"/></g><path id="Axo_base-4" data-name="Axo base" class="cls-7" d="m54.29 126.43 3.12-2.15 25.95 15.37-3.12 2.15-25.95-15.37z"/></g><path class="cls-5" d="m109.14 131.83 13.44-1.16 14.58-19.87-45.7.01 17.68 21.02z"/><ellipse id="Axo_base-5" data-name="Axo base" class="cls-15" cx="114.75" cy="101.68" rx="26.94" ry="17.22" transform="translate(-3.39 3.96)"/><g id="Axo_Projection-5" data-name="Axo Projection"><path class="cls-17" d="M140.11 100.82c.21 6.22-5.08 11.81-13 14.8a34.13 34.13 0 0 1-5.63 1.58 39.1 39.1 0 0 1-6.14.69c-14 .48-25.61-6.39-25.91-15.35S100.2 86 114.2 85.47c7.39-.25 14.11 1.55 18.86 4.62 3.5 2.26 5.92 5.21 6.75 8.55a10.6 10.6 0 0 1 .3 2.18Z"/><path d="M139.81 98.64c-3.34 4.88-8.27 11.31-12.74 17a34.13 34.13 0 0 1-5.63 1.58l11.62-27.11c3.5 2.24 5.94 5.19 6.75 8.53Z" style="fill:#a8c9f6"/></g><g id="Axo_Projection-6" data-name="Axo Projection"><path id="Axo_panel-31" data-name="Axo panel" class="cls-17" d="M127.65 116.2c0 .83 1.11 1.47 2.41 1.42s7.52-3.8 7.5-4.63v1.25c0 .84-6.2 4.59-7.5 4.63s-2.38-.59-2.41-1.42Z"/><path id="Axo_base-6" data-name="Axo base" class="cls-5" d="M127.65 116.2c0-.84 6.2-4.59 7.5-4.63s2.38.59 2.41 1.42-6.2 4.59-7.5 4.63-2.38-.62-2.41-1.42Z"/></g><path class="cls-19" d="M474.24 146.13v-4.08a.28.28 0 0 0 0-.09v-.08a1.12 1.12 0 0 0-.38-.62 5.68 5.68 0 0 1 .86-.6c3.26-1.86 8.79-1.54 11.28.74a.8.8 0 0 0-.08.37V146c-.06-.79-.06-2.42-.06-2.42v-.09a1.07 1.07 0 0 0-.34-.63l-.08-.09-.21-.15-.32-.17a2.23 2.23 0 0 0-.43-.16 2 2 0 0 0-.31-.08.45.45 0 0 0-.16 0h-.37a4.64 4.64 0 0 0-.53 0 4 4 0 0 0-1.44.31l-.14.06a2 2 0 0 0-.45.3 1.26 1.26 0 0 0-.3.4.69.69 0 0 0-.05.13.86.86 0 0 0-.05.27v3h-1v-3a.28.28 0 0 0 0-.09 1 1 0 0 0-.28-.58l-.14-.14a2.09 2.09 0 0 0-.61-.36h-.11a3.22 3.22 0 0 0-.71-.19h-.44a4.23 4.23 0 0 0-1.35.12l-.24.07-.24.09-.22.1a1.32 1.32 0 0 0-.2.12l-.09.06a1.35 1.35 0 0 0-.19.16l-.06.06a1.06 1.06 0 0 0-.21.31.92.92 0 0 0-.09.38v2.46Z"/><path class="cls-15" d="M479.67 143.71a1.21 1.21 0 0 1-.64 1 4 4 0 0 1-3.9 0 1.37 1.37 0 0 1-.55-.57 1 1 0 0 1 0-.79 1 1 0 0 1 .21-.31l.06-.06a1 1 0 0 1 .19-.16l.09-.06.2-.12.22-.1.24-.09.24-.07a4.22 4.22 0 0 1 1.28-.12h.45a5 5 0 0 1 .77.2h.11a1.79 1.79 0 0 1 .39.2l.22.16.13.13a1.22 1.22 0 0 1 .29.59.28.28 0 0 1 0 .17Z"/><path class="cls-19" d="M474.58 144.13a1.37 1.37 0 0 0 .55.57 4 4 0 0 0 3.9 0 1.21 1.21 0 0 0 .64-1v3h-2.25l-.67-.07-.61-.06-.9-.13-.62-.11h-.13v-2.46a.92.92 0 0 1 .09-.38 1 1 0 0 0 0 .64Z"/><path class="cls-19" d="M498.54 136.8v.29a1.7 1.7 0 0 1 0 .22 7.24 7.24 0 0 1-1.7 4.25 13.12 13.12 0 0 1-3.78 3.09c-6.3 3.58-15.76 4.06-22.92 1.61a16.34 16.34 0 0 1-7.35-4.69 7.36 7.36 0 0 1-1.7-4.18V136.55c0-.1.05-.37.08-.56a7.17 7.17 0 0 1 1.18-2.77l.2-.28a12.87 12.87 0 0 1 3.72-3.22l.28-.16c.35-.2.7-.39 1.07-.57l.74-.34.38-.17c.44-.18.89-.35 1.34-.51l.23-.08a28.39 28.39 0 0 1 4.32-1l.71-.11 1-.13 1.16-.1c.85-.06 1.7-.08 2.55-.08H481.58c.57 0 1.15.08 1.72.14l1.16.15c.24 0 .49.07.73.12l1.22.23.91.21.29.08.3.07.59.17.57.18.85.29.82.32.48.2c.45.2.9.41 1.32.64l.39.22.14.07.39.24.45.28.43.3a9.65 9.65 0 0 1 .81.62l.38.32a9.13 9.13 0 0 1 .7.69c.11.11.22.24.32.35s.3.35.43.53a8.56 8.56 0 0 1 .78 1.24c0 .06.05.11.07.16s.16.35.23.54a2 2 0 0 1 .09.26l.09.26c0 .12.06.21.08.3s0 .15 0 .22a2.21 2.21 0 0 1 .05.25v.2a2.28 2.28 0 0 1 0 .27 1.49 1.49 0 0 1 .17.21Zm-10.62 8.69.73-.25.56-.21a17.25 17.25 0 0 0 2.48-1.17c6.53-3.73 6.57-9.79 0-13.54s-17.19-3.72-23.74 0-6.55 9.81 0 13.54a16.54 16.54 0 0 0 2 1l.56.22.24.09.32.12.49.16.69.21.6.16c.34.09.69.18 1.05.25h.35l.25.05h.27l.48.09.9.13 1.28.13H479.68a5.23 5.23 0 0 0 .56 0h1.21l1.09-.08 1-.11.35-.05.52-.07.56-.1.91-.18.4-.1c.21 0 .41-.1.62-.15l.6-.17Z"/><path class="cls-19" d="m470.56 138.23-.1-.08-.13-.08-.22-.13a1 1 0 0 0-.17-.07l-.16-.06-.16-.05h-.36a4 4 0 0 0-2.79.4l-.15.11a1.26 1.26 0 0 0-.24.22 2.6 2.6 0 0 1-.45-1.27v-1.59a.8.8 0 0 1 .06-.3 1 1 0 0 0-.05.45 1.39 1.39 0 0 0 .65.85 4 4 0 0 0 2.62.43 2.76 2.76 0 0 0 1.67-.81 1.18 1.18 0 0 0 .23-.62v3l-.06-.09a2 2 0 0 0-.19-.31ZM493.77 139.27a1.1 1.1 0 0 0 .24-.65v1.62a1 1 0 0 1-.15.47 8.41 8.41 0 0 1-2.78 2.36v-1.32a.87.87 0 0 0-.11-.41l-.05-.1a1.37 1.37 0 0 0-.35-.37l-.07-.05a2.7 2.7 0 0 0-.56-.29h-.1l-.52-.14H488.86a15.74 15.74 0 0 1 0-1.63 1 1 0 0 1 .1-.4 1.12 1.12 0 0 0-.09.54 1.34 1.34 0 0 0 .65.84 4.07 4.07 0 0 0 2.63.44 2.69 2.69 0 0 0 1.62-.91Z"/><path class="cls-15" d="M488.72 140.29H489.31a2.62 2.62 0 0 1 .5.13h.11c.15.07.28.12.4.19l.18.11.07.05.18.16a1.1 1.1 0 0 1 .22.31 1 1 0 0 1 .07.68c-.3 1.07-2.78 1.69-4.38.79a1.31 1.31 0 0 1-.76-1 1 1 0 0 1 .18-.58l.12-.15a.57.57 0 0 1 .11-.11l.12-.1.15-.1.11-.06a2.92 2.92 0 0 1 .69-.27l.19-.05h1.15Z"/><path class="cls-20" d="M504.84 138.17a.17.17 0 0 0 0 .07v.26a1.55 1.55 0 0 0 0 .21l-.09.41a.93.93 0 0 0 0 .13 1.21 1.21 0 0 1-.05.18c0 .14-.08.28-.13.42l-.05.12-.06.18c0 .11-.09.21-.13.32s-.12.27-.18.39-.09.2-.14.3-.05.08-.07.13l-.1.17c-.08.15-.17.29-.26.44a1 1 0 0 1-.11.17l-.37.54-.18.24a14.64 14.64 0 0 1-1.81 1.94 19.87 19.87 0 0 1-2.42 1.82v-10a2.28 2.28 0 0 0 0-.27v-.2a2.21 2.21 0 0 0-.05-.25v-.22a2.76 2.76 0 0 0-.08-.27c0-.11-.06-.2-.09-.29a2 2 0 0 0-.09-.26 4.38 4.38 0 0 0-.23-.54c0-.06-.05-.11-.07-.16a9.52 9.52 0 0 0-.78-1.24l-.2-.26-.23-.27c-.1-.11-.21-.24-.32-.35s-.46-.46-.7-.69l-.38-.32a9.65 9.65 0 0 0-.81-.62 3.51 3.51 0 0 0-.4-.27c-.17-.12-.31-.21-.45-.29l-.42-.26-.14-.07-.39-.22c-.42-.23-.87-.44-1.32-.64l-.48-.2-.82-.32-.85-.29-.57-.18-1.18-.32-.58-.14-.33-.07-.31-.06-.3-.06-.61-.11c-.24 0-.49-.08-.73-.12l-.86-.11h-.3c-.57-.06-1.15-.11-1.72-.14H480.37c-.85 0-1.7 0-2.55.08l-.81.07h-.35l-1 .13-.42.06h-.29a28.39 28.39 0 0 0-4.32 1l-.23.08c-.45.16-.9.33-1.34.51l-.38.17-.74.34c-.37.18-.72.37-1.07.57l-.28.16a12.44 12.44 0 0 0-3.49 2.92l-.23.3-.2.28a7.31 7.31 0 0 0-1.18 2.77 5 5 0 0 0-.08.56 2.83 2.83 0 0 1 0 .29v9.8a19.33 19.33 0 0 1-2.39-1.79 13.06 13.06 0 0 1-1-1l-.22-.24-.21-.24-.21-.25-.26-.33-.32-.44-.1-.14-.14-.22c-.08-.13-.15-.23-.21-.34s-.16-.28-.22-.39-.14-.26-.19-.38a2.6 2.6 0 0 1-.16-.35v-.09c-.08-.19-.16-.38-.22-.57l-.06-.18c0-.12-.08-.25-.11-.37a1.82 1.82 0 0 1-.07-.25c0-.11-.05-.23-.08-.34s0-.15 0-.23 0-.22-.05-.33c.52-4 3.75-7 7.27-9.05 11.59-6.62 31.28-5.25 39.54 3a10.65 10.65 0 0 1 2.84 6.07Z"/><path class="cls-19" d="M469.09 142.32c.26.93 2.34 1.67 4.14.9a1.73 1.73 0 0 0 .85-.65 1 1 0 0 0 .15-.61.28.28 0 0 1 0 .09v4.08H473.88c-.36-.07-.71-.16-1.05-.25h-.08l-.52-.14-.58-.18h-.1a14.77 14.77 0 0 1-1.55-.69c-.16-.08-.95-.5-1-.69v-2a.75.75 0 0 1 .06-.29v-.08a1.05 1.05 0 0 0 .03.51ZM479 134.2a3 3 0 0 1-1.35 2.71c-1.72.87-3.82-1.41-3.84-3.63v-2.62a1.26 1.26 0 0 0 .64.9 4 4 0 0 0 3.9 0 1.22 1.22 0 0 0 .65-1Z"/><path class="cls-15" d="m489.27 137.83.1-.08a2.39 2.39 0 0 1 .62-.32l.16-.06a4.39 4.39 0 0 1 .67-.15h.92a4.63 4.63 0 0 1 1 .2 4 4 0 0 1 .48.2l.12.08.18.13a1.52 1.52 0 0 1 .22.22 1.16 1.16 0 0 1 .25.54 1.08 1.08 0 0 1-.23.71 2.69 2.69 0 0 1-1.66.82 4.07 4.07 0 0 1-2.63-.44 1.34 1.34 0 0 1-.65-.84 1.12 1.12 0 0 1 .09-.54v-.07a1.55 1.55 0 0 1 .15-.22l.06-.07ZM470.41 138.12l.15.11a1.87 1.87 0 0 1 .26.3s0 .06.05.08a1 1 0 0 1 .11.59 1.31 1.31 0 0 1-.64.85c-1.24.82-3.61.55-4.29-.37a1.1 1.1 0 0 1-.23-.75 1.14 1.14 0 0 1 .13-.35v-.07l.06-.07a1.29 1.29 0 0 1 .27-.26l.11-.08a3.41 3.41 0 0 1 1.3-.47 4.68 4.68 0 0 1 1.53 0h.36l.16.05.16.06.15.06.24.14ZM474.23 142a1 1 0 0 1-.15.61 1.73 1.73 0 0 1-.85.65c-1.8.77-3.88 0-4.14-.9a1.05 1.05 0 0 1 .05-.63.53.53 0 0 1 .06-.13 1.49 1.49 0 0 1 .54-.51h.07a3.27 3.27 0 0 1 1.19-.39h.17a4.33 4.33 0 0 1 .72 0h.25a4 4 0 0 1 1.39.44h.07a1.47 1.47 0 0 1 .61.77.89.89 0 0 1 .02.09ZM485.84 143.61a1.27 1.27 0 0 1-.65 1 4 4 0 0 1-3.9 0 1.36 1.36 0 0 1-.55-.59 1 1 0 0 1 0-.66 1.5 1.5 0 0 1 .22-.39l.09-.1.29-.22.2-.12.14-.06.2-.08a4.29 4.29 0 0 1 1.24-.23 4.64 4.64 0 0 1 .53 0h.53l.29.07a2.85 2.85 0 0 1 .45.17 2.4 2.4 0 0 1 .32.17l.21.15.08.09a1.18 1.18 0 0 1 .34.63s0 .06 0 .09ZM480 130.51a1.08 1.08 0 0 1 .29-.71l.06-.06.06-.06.22-.17.14-.08.11-.06.15-.07.15-.05a3 3 0 0 1 .45-.14h.56a5 5 0 0 1 .55 0 4.44 4.44 0 0 1 1.18.21h.22a1.79 1.79 0 0 1 .39.2l.17.12a1.12 1.12 0 0 1 .15.14 1.17 1.17 0 0 1 .27.42 1 1 0 0 1 0 .68 1.34 1.34 0 0 1-.54.59 4 4 0 0 1-3.9 0 1.25 1.25 0 0 1-.65-.92Z"/><path d="M496.84 141.56a7.24 7.24 0 0 0 1.7-4.25 1.7 1.7 0 0 0 0-.22v9.52l-.4.25-.55.33c-.34.19-.63.35-.93.5a.2.2 0 0 1-.08 0l-.48.25-.93.43-1 .41-.27.1a36.5 36.5 0 0 1-6.16 1.75c-1 .19-2 .34-3 .46l-1.08.11-.93.07c-.38 0-1.65.08-1.78.09a43.12 43.12 0 0 1-8.91-.67l-1.1-.21a31.29 31.29 0 0 1-9.94-3.88v-9.25a7.36 7.36 0 0 0 1.7 4.18 16.34 16.34 0 0 0 7.35 4.69c7.16 2.45 16.62 2 22.92-1.61a13.12 13.12 0 0 0 3.87-3.05Z" style="fill:#0c3231"/><path class="cls-15" d="M490.57 132a1.11 1.11 0 0 1-.15.66 1.45 1.45 0 0 1-.59.53c-1.74.94-4.1.24-4.39-.77a1 1 0 0 1 0-.59.13.13 0 0 1 0-.07 1.43 1.43 0 0 1 .2-.3 1.73 1.73 0 0 1 .48-.37l.1-.05h.13l.18-.08.19-.06h.46a4.34 4.34 0 0 1 2.07.14h.09a2.48 2.48 0 0 1 .79.45l.06.06a1.36 1.36 0 0 1 .3.5s.07-.05.08-.05ZM473.8 130.63v-.12a1.11 1.11 0 0 1 .26-.56l.06-.07a.94.94 0 0 1 .17-.15 1.41 1.41 0 0 1 .28-.18 3.38 3.38 0 0 1 1.21-.39h.34a4.52 4.52 0 0 1 1.57.19l.2.07h.1l.12.06.24.14a1.64 1.64 0 0 1 .39.34l.05.06a1.18 1.18 0 0 1 .11.19v.38a1.22 1.22 0 0 1-.65 1 4 4 0 0 1-3.9 0 1.26 1.26 0 0 1-.64-.9ZM493.82 135.28a1.36 1.36 0 0 1-.65.85c-1.23.82-3.61.56-4.29-.37a1.16 1.16 0 0 1-.24-.65 1.09 1.09 0 0 1 .23-.57l.1-.12a2.16 2.16 0 0 1 .33-.27l.1-.06a3.62 3.62 0 0 1 .45-.2 4.58 4.58 0 0 1 1-.22 4.64 4.64 0 0 1 1.38.12l.27.08.21.08h.1a2.18 2.18 0 0 1 .48.29l.09.07.08.08.12.16a1 1 0 0 1 .24.73Z"/><path class="cls-19" d="M485.19 144.59a1.27 1.27 0 0 0 .65-1V146l-.91.18-.56.1-.87.12-1 .11-1.27.09h-.61v-3a.86.86 0 0 1 .05-.27 1 1 0 0 0 0 .66 1.36 1.36 0 0 0 .55.59 4 4 0 0 0 3.97.01Z"/><path class="cls-15" d="m472.77 131.29.21.11a1.26 1.26 0 0 1 .28.19l.11.1.07.06.09.11a1 1 0 0 1 .21.58 1.17 1.17 0 0 1-.53.9 4 4 0 0 1-3.9.15 1.61 1.61 0 0 1-.6-.53 1.07 1.07 0 0 1-.12-.78 1 1 0 0 1 .09-.2.65.65 0 0 1 .1-.15l.05-.06a1.59 1.59 0 0 1 .27-.24l.15-.09.16-.09a3 3 0 0 1 .77-.27l.32-.07h.5a4.79 4.79 0 0 1 .65 0 2 2 0 0 1 .35.06 1.67 1.67 0 0 1 .3.08 3.29 3.29 0 0 1 .47.14Z"/><path class="cls-19" d="M490.42 132.66a1 1 0 0 0 .15-.66.71.71 0 0 1 0 .15v1.56a3 3 0 0 0-1.19.38l-.1.06a1.44 1.44 0 0 0-.33.27 1.13 1.13 0 0 0-.32.58v2.67c-1.8 1.45-3.23.74-3.24-1.13v-4.38a.78.78 0 0 1 .07-.33 1 1 0 0 0 0 .59c.29 1 2.65 1.71 4.39.77a1.45 1.45 0 0 0 .57-.53Z"/><path class="cls-5" d="m517.1 116.39 4.19-2.4c2.2-1.37 4.07-3.81 4.89-7.66 1.05-4.93.08-10.53-1.59-15.28A45 45 0 0 0 516 76.47c-3.33-3.79-7.77-7.42-12.63-9-3.75-1.19-6.81-.82-9.06.38a1.51 1.51 0 0 0-.28.15h-.1c-1.27.76-2.55 1.5-3.85 2.2l-.14.09a10 10 0 0 0-1.63 1.23c-.09.09-.19.18-.28.28a3.07 3.07 0 0 0-.25.26l-.26.31a3.76 3.76 0 0 0-.25.31c-.2.27-.39.54-.57.83l-.09.15a3.47 3.47 0 0 0-.21.37c-.1.17-.19.35-.28.53l-.09.18v.1l-.18.4c-.06.13-.11.26-.16.39s-.11.29-.15.4v.12c0 .08-.05.17-.08.26s-.11.35-.16.52-.16.59-.23.89-.18.9-.25 1.35-.08.61-.11.92v4.58a.77.77 0 0 0 0 .15A37.42 37.42 0 0 0 487.18 95c0 .08.78 1.83.85 2l.15.32.09.2.65 1.32.36.68a44.64 44.64 0 0 0 8.4 11.12c.44.41.89.81 1.34 1.2a23.38 23.38 0 0 0 10.8 5.61l.42.07.46.06H513.54l.68-.11.56-.13a1.8 1.8 0 0 0 .22-.06l.24-.07.24-.08.25-.08.2-.08.39-.16ZM535 74.46s0 64.49.06 64.55l-55-31.3V43.17Z"/><path class="cls-19" d="M468.55 132.45a.8.8 0 0 1 .07-.34 1.06 1.06 0 0 0 .09.85 1.61 1.61 0 0 0 .6.53 4 4 0 0 0 3.9-.15 1.17 1.17 0 0 0 .53-.86v4.44a2 2 0 0 1-.53 1.47c-.66.59-1.66.22-2.39-.28v-2.57a.66.66 0 0 0 0-.14 1.07 1.07 0 0 0-.16-.39l-.05-.07a1.49 1.49 0 0 0-.21-.22l-.08-.06-.14-.11a3.31 3.31 0 0 0-1.27-.44h-.31l-.05-1.66Z"/><path class="cls-15" d="M507.15 137.07v.24a10.68 10.68 0 0 1-2.5 6.3 18.92 18.92 0 0 1-5.51 4.51c-13.48 7.66-36.23 5.36-44.16-4.5a10.48 10.48 0 0 1-2.48-6.13v-1.4a9.9 9.9 0 0 1 1.33-3.9l.25-.4c.07-.11.14-.22.22-.33a1.43 1.43 0 0 1 .14-.2 18.27 18.27 0 0 1 5.37-4.8l.62-.37.9-.49a34.76 34.76 0 0 1 8.07-2.92l1.32-.29a47.09 47.09 0 0 1 13.73-.65l.74.08.86.11a40.71 40.71 0 0 1 7.68 1.76 24.65 24.65 0 0 1 10.29 6.21l.26.3c.3.34.57.69.83 1.05l.15.22.16.24v.08l.15.25a1.59 1.59 0 0 1 .13.22 2.92 2.92 0 0 1 .18.33 3 3 0 0 1 .16.31s0 .07.05.1.1.21.14.32.1.22.14.33a1.31 1.31 0 0 1 .08.21c.09.22.16.44.23.67v.15c0 .05.06.22.08.33s.05.21.07.31v.12l.07.38c0 .14 0 .28.05.42s0 .24 0 .37.2.33.2.46Zm-52.43.07v1.07c0 .03 0 .22.05.33s0 .15 0 .23.06.23.08.34a2.33 2.33 0 0 0 .07.25c0 .12.07.25.11.37l.06.18c.07.19.14.38.22.57a.36.36 0 0 0 0 .09 2.41 2.41 0 0 0 .15.33l.19.38c.07.13.13.25.2.36s.16.26.23.37l.15.24.1.14.52.7.06.07.21.25.21.24.22.24c3.06 3.19 7.86 5.43 13.33 6.63l.43.08.25.05H471.98a48 48 0 0 0 8.91.67h.65l1.13-.06 1.51-.13.5-.05a38.17 38.17 0 0 0 9.11-2.21l.66-.26.58-.25.93-.43.16-.08.32-.17a.2.2 0 0 0 .08 0c.3-.15.59-.31.88-.47l.6-.36.4-.25a17 17 0 0 0 4.06-3.53l.17-.23.18-.24.37-.54a1.63 1.63 0 0 0 .11-.17c.09-.15.18-.29.26-.44l.1-.17s.05-.09.07-.13.1-.2.14-.3.12-.25.17-.37.1-.23.14-.34l.06-.18.05-.12c.05-.14.09-.28.13-.42a1.21 1.21 0 0 0 .05-.18s0-.08 0-.13l.09-.41V137.57a1.1 1.1 0 0 1 0-.21v-.6a9.72 9.72 0 0 0-2.29-5.65c-7.39-9.2-28.35-11.07-40.56-4.13a17.41 17.41 0 0 0-5 4.14 9.61 9.61 0 0 0-2.3 6Z"/><path class="cls-5" d="M452.5 137.49a10.48 10.48 0 0 0 2.48 6.13c7.93 9.86 30.68 12.16 44.16 4.5a18.92 18.92 0 0 0 5.51-4.51 10.68 10.68 0 0 0 2.5-6.3v1.82c0 2.69-1.15 5.7-4.29 8.51-3.83 3.43-9.3 5.44-14.36 6.41a47.18 47.18 0 0 1-17.29 0c-5.06-1-10.53-3-14.38-6.37-3-2.65-4.23-5.49-4.33-8.07v-2.46c-.01.13-.01.24 0 .34Z"/><path class="cls-19" d="M488.64 140.11v-5a1.15 1.15 0 0 0 .24.61c.68.93 3.06 1.19 4.29.37a1.36 1.36 0 0 0 .65-.85 1 1 0 0 0-.17-.67 1.2 1.2 0 0 1 .18.53v1.6a2.45 2.45 0 0 1-.3 1.06 1.73 1.73 0 0 0-.28-.19 3.51 3.51 0 0 0-1.51-.42h-1.01a4.85 4.85 0 0 0-.58.14h-.11a2.61 2.61 0 0 0-.67.34.39.39 0 0 0-.1.08l-.1.08-.06.07a.18.18 0 0 0-.05.07.15.15 0 0 0-.06.09.6.6 0 0 0-.08.13 1 1 0 0 0-.1.4v1.62h-.1a.21.21 0 0 1-.08-.06Z"/><path class="cls-22" d="M462.07 129.16c-3.52 2-6.75 5.1-7.27 9.05V137.14a9.63 9.63 0 0 1 2.3-6 17.41 17.41 0 0 1 5-4.14c12.21-6.94 33.17-5.07 40.56 4.13a9.72 9.72 0 0 1 2.29 5.65v.6a.76.76 0 0 0 0 .15v.65a10.65 10.65 0 0 0-3.23-6c-8.37-8.27-28.06-9.64-39.65-3.02Z"/><path class="cls-23" d="M480 134c0 2.29 1.83 3.89 3.66 2.44a4.37 4.37 0 0 0 1.44-2.42 4.57 4.57 0 0 0 .09-.82v-2.73a.8.8 0 0 0-.06-.3v-.1a1.37 1.37 0 0 0-.34-.42 2.2 2.2 0 0 0-.61-.36h-.09a3.94 3.94 0 0 0-1.29-.25 5.32 5.32 0 0 0-.57 0h-.53a2.51 2.51 0 0 0-.48.14h-.1l-.2.09h-.07l-.18.1-.22.17-.06.06-.06.06a1 1 0 0 0-.29.75Zm-6.23 2.91v-4.44a1 1 0 0 0-.21-.62l-.09-.11a.13.13 0 0 0-.07-.06.17.17 0 0 0-.06-.06 2 2 0 0 0-.33-.23l-.21-.11a2.85 2.85 0 0 0-.44-.16 1.67 1.67 0 0 0-.3-.08 2 2 0 0 0-.35-.06h-1.18l-.32.07a3 3 0 0 0-.77.27.65.65 0 0 0-.16.09l-.15.09a1.59 1.59 0 0 0-.27.24l-.05.06a.65.65 0 0 0-.1.15.47.47 0 0 0-.05.1.88.88 0 0 0-.08.37v1.63h-.21a4.25 4.25 0 0 0-.81.05 3.1 3.1 0 0 0-.55.13 2.69 2.69 0 0 0-.7.3l-.1.08a1.32 1.32 0 0 0-.32.3s-.07.11-.11.17a.36.36 0 0 1 0 .09.9.9 0 0 0-.08.35v1.59a2.6 2.6 0 0 0 .45 1.27l-.09.11v.07a.87.87 0 0 0-.13.35.76.76 0 0 0 0 .14v1.6c0 .58 1.05 1.44 1.53 1.8a16.42 16.42 0 0 0 1.71 1.07v.52c0 .19.8.61 1 .69.47.24 1 .48 1.54.69l-.38-.13-.2-.06-.47-.18-.56-.22a16.54 16.54 0 0 1-2-1c-6.57-3.73-6.56-9.8 0-13.54s17.19-3.75 23.74 0 6.54 9.81 0 13.54a17 17 0 0 1-2.43 1.15c-.46.18-.87.32-1.3.46a17.93 17.93 0 0 0 2.37-1.12c.16-.1.76-.46.75-.65v-.63a8.41 8.41 0 0 0 2.78-2.36 1 1 0 0 0 .15-.47v-1.56a1 1 0 0 0-.26-.66l-.07-.08a.67.67 0 0 0-.15-.14 2.45 2.45 0 0 0 .3-1.06v-1.6a1.2 1.2 0 0 0-.18-.53s0-.07-.06-.09a1.29 1.29 0 0 0-.16-.17l-.09-.07a2 2 0 0 0-.48-.29h-.08l-.23-.09-.27-.08a4.6 4.6 0 0 0-1.32-.12h-.37v-1.56a.71.71 0 0 0 0-.15v-.08a1.07 1.07 0 0 0-.3-.5l-.06-.06a2.39 2.39 0 0 0-.79-.45h-.09a4.12 4.12 0 0 0-2-.15h-.5l-.19.06-.18.08h-.13l-.1.05a1.44 1.44 0 0 0-.62.55.67.67 0 0 0-.06.12.13.13 0 0 0 0 .07.78.78 0 0 0-.07.33v4.38c0 1.87 1.44 2.58 3.24 1.13v2.61H487.64a3.62 3.62 0 0 0-.71.28l-.11.06-.15.1-.12.1-.11.11a1.58 1.58 0 0 0-.12.15.81.81 0 0 0-.1.18c-2.49-2.28-8-2.6-11.28-.74a5.68 5.68 0 0 0-.86.6l-.24-.18h-.07a3.26 3.26 0 0 0-1.39-.44h-.25a5.77 5.77 0 0 0-.72 0h-.17v-1.56a.77.77 0 0 0-.11-.39c0-.08-.06-.11-.07-.14v-.42c.73.5 1.73.87 2.39.28a2 2 0 0 0 .29-1.17Zm.06-3.78v.14c.08 2.22 2.12 4.5 3.84 3.63a3 3 0 0 0 1.33-2.7V130.21a1.18 1.18 0 0 0-.11-.19l-.05-.06a1.83 1.83 0 0 0-.39-.34l-.17-.1-.19-.1h-.1l-.2-.07a4.48 4.48 0 0 0-1.57-.19h-.34a3 3 0 0 0-1.21.39.67.67 0 0 0-.12.06l-.11.08a1.1 1.1 0 0 0-.17.14l-.11.12a1.06 1.06 0 0 0-.26.56v.08s-.08 1.72-.1 2.55Z"/><path class="cls-19" d="M522.63 102.8a18.53 18.53 0 0 1-1.71 9.52 10.06 10.06 0 0 1-3.49 3.87 2.38 2.38 0 0 1-.3.18 7.89 7.89 0 0 1-.81.42l-.35.14-.24.1-.25.08-.24.08-.46.13-.56.13-.68.11H510.7l-.46-.06-.42-.07a18.74 18.74 0 0 1-4.91-1.67 28.32 28.32 0 0 1-5.89-3.94c-.45-.39-.9-.79-1.34-1.2a44.4 44.4 0 0 1-8.4-11.12l-.36-.68-.65-1.32-.09-.2-.36-.79c-.08-.17-.61-1.43-.64-1.51a38.18 38.18 0 0 1-2.52-10.09.77.77 0 0 1 0-.15v-4.58c0-.31.07-.61.11-.92s.15-.91.25-1.35.15-.6.23-.89.1-.35.16-.52l.12-.38c0-.11.08-.23.13-.35s.12-.31.18-.44l.18-.4a1 1 0 0 1 0-.1l.09-.18c.09-.18.18-.36.28-.53a2.71 2.71 0 0 1 .21-.37l.09-.15c.18-.28.37-.56.57-.83a3.76 3.76 0 0 1 .25-.31l.23-.27c.11-.13.2-.21.28-.3l.28-.28c.19-.18.39-.35.59-.51a9.7 9.7 0 0 1 1-.72l.26-.15a10.66 10.66 0 0 1 6.72-1c4.09.6 8.07 3 11.21 5.66 8.01 6.69 14.01 17.96 14.55 27.91Zm-5.27 4.2c3.62-9-4-25.54-14.75-30.83-7.61-3.83-13.67.02-13.61 8.83 0 9.63 7.18 21.39 15.65 25.56 5.35 2.64 10.55 1.77 12.71-3.56Z"/><path class="cls-22" d="M535.07 139h.08l-47.95 27.46A19.44 19.44 0 0 1 479 169l-51.3-29.21a3.71 3.71 0 0 1 .62-1.44l.06-.07.14-.2a1.13 1.13 0 0 0 .1-.13l.09-.11.2-.23.12-.13.13-.14.21-.21.06-.05.26-.24.14-.12c.19-.16.37-.31.56-.45l.6-.44.21-.13.24-.16.33-.2 48.28-27.61Zm-32.21 8.63c3.14-2.81 4.33-5.82 4.29-8.51v-2.89c0-.12 0-.28-.05-.42l-.06-.32a1.06 1.06 0 0 0 0-.18c0-.1 0-.21-.07-.31s0-.22-.08-.33 0-.1 0-.15c-.07-.23-.14-.45-.23-.67a1.8 1.8 0 0 0-.08-.21c0-.11-.09-.22-.14-.33s-.17-.39-.19-.42a3 3 0 0 0-.16-.31.31.31 0 0 0-.05-.1l-.13-.23a2.53 2.53 0 0 0-.13-.22l-.15-.25v-.08l-.16-.24-.15-.22c-.26-.36-.53-.71-.83-1.05l-.26-.3c-3.9-4.31-10.61-7-18-8l-.86-.11-.74-.08a48.08 48.08 0 0 0-13.73.65l-1.32.29a34 34 0 0 0-8.07 2.92l-.9.49-.62.37a18.28 18.28 0 0 0-4.87 4.13c-.18.22-.34.45-.5.67a2.43 2.43 0 0 0-.14.2c-.08.11-.15.22-.22.33l-.24.38a10.27 10.27 0 0 0-1.34 3.92v3.55c.1 2.58 1.34 5.42 4.33 8.07 3.85 3.42 9.32 5.41 14.38 6.37a47.18 47.18 0 0 0 17.29 0c4.88-.96 10.32-2.97 14.18-6.4Z"/><path class="cls-24" d="m455.54 172.74-7.72 10.67-23.08-13.14 7.67-10.7 23.13 13.17z"/><path class="cls-15" d="m448.85 188.1-29.33-16.7 11.85-16.53 29.41 16.75Zm-18.89-19 16.83 9.59 3.52-4.87-16.86-9.59Z"/><path class="cls-25" d="m538.84 73.71.09.05a1.12 1.12 0 0 1 .22.16l.15.13a1.32 1.32 0 0 1 .23.27l.08.11a.21.21 0 0 1 0 .06l.05.08a.93.93 0 0 1 0 .1 1.86 1.86 0 0 1 .1.2 2.91 2.91 0 0 1 .16.5.94.94 0 0 1 0 .16v.2a1 1 0 0 1 0 .16 1.1 1.1 0 0 1 0 .18.66.66 0 0 1 0 .14v.31l.05 54.56a9.56 9.56 0 0 1-2.62 6.08 7.14 7.14 0 0 1-1.75 1.41c-.51 0-.06-64.54-.06-64.54l-55-31.3a3.53 3.53 0 0 1 2.33-.55 1.94 1.94 0 0 1 .76.24c18.58 10.43 36.98 20.71 55.21 31.29Z"/><path class="cls-7" d="m480.8 42.73 55 31.3s-.45 64.54.06 64.54l-.76.44c-.1-.01-.1-64.55-.1-64.55l-55-31.29Z"/><path class="cls-25" d="m535.15 139.05.03 40.24-80.22 45.85-.01-14.55 32.25-44.13 47.95-27.41z"/><path class="cls-20" d="m504.93 200.93-.21.07-.37.14-.55.23-.14.06-.55.26-.79.4-.84.45c-1 .54-2.13 1.18-3.4 1.91-5.52 3.16-13.79 7.89-17.93 11.49s-4.13 6.08-4.81 7.71-2 2.43-6.14 4.75l-1.69.94-.46.24-.71.35-.48.22a15.21 15.21 0 0 1-2 .72l-.5.13a8.32 8.32 0 0 1-1.78.21h-1.88l-.28-.1-.13-.05h-.09l-.12-.06-.18-.09-.12-.07-.21-.12-.2-.13-.17-.12-.14-.11a10.33 10.33 0 0 1-3.11-4.88l80.22-45.85q0 13.4-11.37 19.91c-1.4.8-2.67 1.49-3.83 2.06l-1 .47-.91.42-.84.37-.4.17-.77.3-.71.26-.35.11a10.33 10.33 0 0 1-3.59.66h-.17l-.46-.05h-.65l-.15-.05h-.17l-.3-.17-.16-.11-.11-.09a12.82 12.82 0 0 1-1.52-2 2 2 0 0 0-.46-.38l-.28-.13h-.08l-.19-.05a3.85 3.85 0 0 0-1.76.21Z"/><path class="cls-16" d="M494 68.09h.1a1.51 1.51 0 0 1 .28-.15c2.25-1.2 5.31-1.57 9.06-.38 4.86 1.54 9.3 5.17 12.63 9a45 45 0 0 1 8.56 14.58c1.67 4.75 2.64 10.35 1.59 15.28-.82 3.85-2.69 6.29-4.89 7.66l-.24.15-3.92 2.23a2.38 2.38 0 0 0 .3-.18 10.06 10.06 0 0 0 3.49-3.87 18.53 18.53 0 0 0 1.71-9.52c-.54-10-6.54-21.22-14.47-28-3.2-2.73-7.2-5.11-11.2-5.71a10.51 10.51 0 0 0-6.72 1 .67.67 0 0 0-.12.06c1.23-.68 2.53-1.39 3.84-2.15Z"/><path class="cls-20" d="M502.61 76.12C513.35 81.41 521 97.91 517.36 107c-2.16 5.38-7.4 6.25-12.75 3.61C496.14 106.39 489 94.63 489 85c-.06-8.81 6-12.66 13.61-8.88Zm6.48 16.24a3.3 3.3 0 0 0-1.59-3.1c-.84-.44-1.53-.05-1.53.93a3.51 3.51 0 0 0 1.23 2.45 1.49 1.49 0 0 0 1.38.4.94.94 0 0 0 .51-.68Z"/><path d="m509.29 203.3.11.09.16.11h.07l-4.63-2.59a3.7 3.7 0 0 1 1.76-.21l.19.05h.08l.28.13a2 2 0 0 1 .46.38 12.82 12.82 0 0 0 1.52 2.04Z" style="fill:#08232c"/><path class="cls-9" d="M507.5 89.26a3.3 3.3 0 0 1 1.59 3.1.94.94 0 0 1-.51.68 1.49 1.49 0 0 1-1.38-.4 3.51 3.51 0 0 1-1.2-2.45c0-.98.66-1.37 1.5-.93Z"/><path class="cls-19" d="M491.08 143.07v.63c0 .19-.59.55-.75.65a17.93 17.93 0 0 1-2.37 1.12l-.5.15-.6.17c-.21.05-.41.11-.62.15l-.34.08v-4.25a1.31 1.31 0 0 0 .76 1c1.6.9 4.08.28 4.38-.79a1 1 0 0 0-.07-.68.87.87 0 0 1 .11.41Z"/><path class="cls-22" d="M487.2 166.46 455 210.6a11.16 11.16 0 0 0-.79-3.94 29.42 29.42 0 0 1-1.72-7.21L474 169.88a22.8 22.8 0 0 1 5-.9 19.44 19.44 0 0 0 8.2-2.52Z"/><path class="cls-19" d="M485.15 130.48v2.73a4.57 4.57 0 0 1-.09.82 4.37 4.37 0 0 1-1.44 2.42c-1.82 1.45-3.62-.15-3.62-2.45v-3.46a1.25 1.25 0 0 0 .65.92 4 4 0 0 0 3.9 0 1.34 1.34 0 0 0 .54-.59 1 1 0 0 0 0-.68.8.8 0 0 1 .06.29Z"/><path class="cls-22" d="M427.74 139.77 479 169a22.8 22.8 0 0 0-5 .9l-46.3-26.35a15.26 15.26 0 0 1 .04-3.78Z"/><path class="cls-27" d="m424.74 170.27 23.08 13.15 7.77-10.63-23.18-13.22-7.72 10.67Zm49.3-.39-21.6 29.57-46.3-26.36 21.6-29.56Z"/><path class="cls-19" d="M465.81 139.07v-.14a1.1 1.1 0 0 0 .23.75c.68.92 3.05 1.19 4.29.37a1.31 1.31 0 0 0 .64-.85.91.91 0 0 0-.09-.53.77.77 0 0 1 .11.39v1.56a3.34 3.34 0 0 0-1.19.39h-.07a1.39 1.39 0 0 0-.53.49c0 .05 0 .09-.06.12v.11a.75.75 0 0 0-.06.29v1.48a16.42 16.42 0 0 1-1.71-1.07c-.48-.36-1.53-1.22-1.53-1.8Z"/><path class="cls-15" d="M470.8 135.4a.66.66 0 0 1 0 .14 1.18 1.18 0 0 1-.23.62 2.76 2.76 0 0 1-1.67.81 4 4 0 0 1-2.62-.43 1.39 1.39 0 0 1-.65-.85 1 1 0 0 1 .05-.45l.06-.14a1.61 1.61 0 0 1 .31-.38l.12-.09.1-.08a2.9 2.9 0 0 1 .7-.3l.27-.07a4.48 4.48 0 0 1 1.09-.11h.52a3.34 3.34 0 0 1 1.3.44l.14.11.08.06a1.19 1.19 0 0 1 .19.2.44.44 0 0 1 .07.09 1.17 1.17 0 0 1 .16.36Z"/><path class="cls-6" d="m403.6 199.08-.28-.18-.14-.1-.13-.1-.29-.23-.13-.12-.14-.13a1.59 1.59 0 0 1-.13-.13l-.13-.14-.17-.18-.35-.43a10.42 10.42 0 0 1-.62-1c-.08-.12-.15-.25-.22-.38l-.24-.46a2.4 2.4 0 0 0-.11-.23c-.21-.46-.42-1-.61-1.52l55 31.34a10.33 10.33 0 0 0 3.11 4.88l.14.11.13.09.22.15.14.08Z"/><path class="cls-5" d="M455 210.6v14.54l-55-31.34v-14.55a5.41 5.41 0 0 1 .78-3l53.48 30.44a11.16 11.16 0 0 1 .74 3.91Z"/><path class="cls-7" d="m454.16 206.66-53.48-30.44a.89.89 0 0 1 .13-.17 3.45 3.45 0 0 1 .32-.36 13.36 13.36 0 0 1 5-2.6l46.3 26.36a29.42 29.42 0 0 0 1.73 7.21Z"/><path class="cls-22" d="m430.48 136.21.55-.4-.6.44ZM430.4 136.27l-.53.43c.18-.15.35-.3.53-.43ZM429.73 136.82l-.22.2.06-.06.13-.12ZM400.74 176.13q13.81-18.88 27.62-37.8a3.94 3.94 0 0 0-.62 1.44 15.26 15.26 0 0 0 0 3.76l-21.6 29.56a13.36 13.36 0 0 0-5 2.6 3.45 3.45 0 0 0-.32.36Z"/><path class="cls-15" d="M522.63 102.8c-.08-.67-.13-1.34-.23-2s-.21-1.32-.36-2-.27-1.31-.46-2-.35-1.29-.56-1.92a47.85 47.85 0 0 0-7.42-14.17l-1.25-1.57-1.35-1.45-1.39-1.46-1.47-1.39a36.4 36.4 0 0 1 5.68 5.76 42.41 42.41 0 0 1 4.42 6.78 40.78 40.78 0 0 1 3 7.48 31.11 31.11 0 0 1 1.39 7.94Z"/><path class="cls-24" d="M434.57 153.39c-.64 1.09-2.67 1.1-4.54 0s-2.88-2.81-2.24-3.9 2.66-1.11 4.54 0 2.87 2.81 2.24 3.9Z"/><path class="cls-28" d="M432.48 152.49a4.72 4.72 0 0 1-2.2-.65c-1.52-.87-2.14-2.11-1.88-2.56a1.16 1.16 0 0 1 1-.33 5 5 0 0 1 3.9 2.23 1.1 1.1 0 0 1 .18 1 1.16 1.16 0 0 1-1 .31Z"/><path class="cls-20" d="M445.85 160.22c-.64 1.09-2.67 1.11-4.54 0s-2.88-2.81-2.24-3.9 2.66-1.11 4.53 0 2.88 2.81 2.25 3.9Z"/><path class="cls-28" d="M443.76 159.32a4.56 4.56 0 0 1-2.21-.65c-1.51-.87-2.13-2.11-1.87-2.56a1.16 1.16 0 0 1 1-.33 4.79 4.79 0 0 1 2.21.65 4.63 4.63 0 0 1 1.69 1.58 1.1 1.1 0 0 1 .18 1c-.15.19-.52.31-1 .31Z"/><path d="M457.51 166.86c-.63 1.09-2.66 1.11-4.54 0s-2.87-2.81-2.24-3.9 2.67-1.1 4.54 0 2.88 2.81 2.24 3.9Z" style="fill:#ffe100"/><path class="cls-28" d="M455.43 166a4.66 4.66 0 0 1-2.21-.66c-1.52-.86-2.13-2.11-1.87-2.55a1.13 1.13 0 0 1 1-.34 4.62 4.62 0 0 1 2.2.66 4.57 4.57 0 0 1 1.7 1.57 1.1 1.1 0 0 1 .18 1 1.13 1.13 0 0 1-1 .32Z"/><path class="cls-24" d="M469.18 173.5c-.64 1.09-2.67 1.11-4.54 0s-2.88-2.81-2.24-3.9 2.67-1.1 4.54 0 2.87 2.82 2.24 3.9Z"/><path class="cls-28" d="M467.09 172.61a4.62 4.62 0 0 1-2.2-.66c-1.52-.86-2.14-2.11-1.88-2.55a1.15 1.15 0 0 1 1-.34 5.08 5.08 0 0 1 3.89 2.23 1.14 1.14 0 0 1 .19 1 1.17 1.17 0 0 1-1 .32Z"/><path class="cls-5" d="M416.18 173.06a2.93 2.93 0 0 1-3.91 1.12c-1.16-.79-1.28-2.59-.28-4s2.76-1.92 3.91-1.12 1.28 2.58.28 4Z"/><path class="cls-28" d="M413.28 172.84a1.24 1.24 0 0 1-.69-.2 1.33 1.33 0 0 1-.52-1 2.52 2.52 0 0 1 .49-1.61 2.35 2.35 0 0 1 1.83-1.08 1.13 1.13 0 0 1 .69.2 1.93 1.93 0 0 1 0 2.64 2.35 2.35 0 0 1-1.8 1.05Z"/><path class="cls-5" d="M424 177.38a2.93 2.93 0 0 1-3.91 1.12c-1.15-.8-1.28-2.59-.27-4a2.93 2.93 0 0 1 3.91-1.12c1.16.79 1.27 2.62.27 4Z"/><path class="cls-28" d="M421.11 177.16a1.19 1.19 0 0 1-.68-.2 1.35 1.35 0 0 1-.53-1 2.51 2.51 0 0 1 .49-1.6 2.37 2.37 0 0 1 1.84-1.08 1.1 1.1 0 0 1 .69.2c.69.47.7 1.68 0 2.64a2.4 2.4 0 0 1-1.81 1.04Z"/><path class="cls-5" d="M431.85 181.7c-1 1.42-2.76 1.92-3.91 1.12s-1.28-2.59-.28-4a2.93 2.93 0 0 1 3.91-1.12c1.16.78 1.28 2.58.28 4Z"/><path class="cls-28" d="M429 181.48a1.22 1.22 0 0 1-.69-.2 1.4 1.4 0 0 1-.53-1 2.61 2.61 0 0 1 .5-1.61 2.38 2.38 0 0 1 1.83-1.08 1.22 1.22 0 0 1 .69.2 1.94 1.94 0 0 1 0 2.65 2.38 2.38 0 0 1-1.8 1.04ZM428.39 169.09s3.26-6.4 4.68-6.31 19 10.43 19 10.43-16.71-8.88-18.57-8.26-5.11 4.14-5.11 4.14Z"/><path class="cls-4" d="M370.61 215.72c-9.06 5.34-25.33 8.73-34.53 3.49s-4.15-15.72 5-20.94 25.39-2.59 35.54.46c5.99 1.81 1.83 12.37-6.01 16.99Z"/><path class="cls-30" d="M362.77 189.45s4.83 4.07 5.67 4.43 6.52 3.74 6.06 5.66-9.5.46-10.81-.91-5.82-2.37-6.47-2.92 0-5.84 0-5.84ZM342.54 198.65s-.36 7.48 1.49 9.4.93 6.48 0 6.84-4.52-1-6.1-3.46-1.57-5.93-1.57-6.94a25.72 25.72 0 0 1 1.84-5.84Z"/><path class="cls-23" d="M363.41 136.62a69.66 69.66 0 0 1 2.57 30.7c-1.12 8.38-2.48 22.55-2.48 22.55a5.35 5.35 0 0 1-4.15 1.46c-2.5-.27-3-1.36-3-1.36s-3.16-14.42-1-18.53-4.35-23.64-2.7-29.44 10.76-5.38 10.76-5.38Z"/><path class="cls-20" d="M358.84 146.15c.19.64-1.44 33.83-5.41 37.09S343 199.93 343 199.93s-.24 2.38-3.69 1.92a2.38 2.38 0 0 1-2-2.37c.16-.65 1.62-14.61 3.84-16.71a32 32 0 0 0 4.06-4.39c.09-.27-3.53-27.74-2.34-33.49a60.34 60.34 0 0 1 2.86-9.77l11.27.81Z"/><path class="cls-7" d="M361.8 107.76a4 4 0 0 1 4.53-1.38c2.71 1.07 5.92 7.81 7.58 10.44s5.76 5.73 5.76 5.73l8.21 4.24s.82 6.47-2 6.41-9.11-3.48-12-6.07-8.91-7.44-11.44-11.35-1.29-6.78-.64-8.02Z"/><path class="cls-16" d="M355.3 105.9s8.31.06 9.51 2.82 1.32 15.28.86 20.56-.46 11.51-.46 11.51-9.23 9.07-14.4 6.45a15.64 15.64 0 0 1-7-6.43s1.35-8.61 0-12.26-2.47-12.75-1.37-15.41 9.47-7.24 12.86-7.24Z"/><path class="cls-31" d="M357.6 105.21a17.33 17.33 0 0 1 3.1 2.92c1.1 1.46-.47 9.18-1.87 12.1s-1.95 4.29-1.95 4.29l-1.1 44a38.81 38.81 0 0 0 8.44-2.62c3.32-1.66 3.32-2.94 3.32-2.94s-1.12-23.2-1.61-26.74 1.3-12.33 1.57-14.43 1.29-14.06-3.06-15.88-6.84-.7-6.84-.7Z"/><path class="cls-31" d="M352 106.57a4.38 4.38 0 0 0-1 5.36c1.35 2.46 8.31 7.74 8.31 7.74v47.94s-2.75 4-9.59 2.92-6.84-2.37-6.84-2.37-1.56-21.7 0-29.12-1.88-16.33-1.88-18.52-3-11.78 11-13.95Z"/><path class="cls-32" d="M381 129.92a8.38 8.38 0 0 1 .14-2.24c.23-.57.66-1.46.83-2s0-2.22.69-2 .66 1.06.74 1.74a13.36 13.36 0 0 1 0 1.87 12.63 12.63 0 0 0 3-1.54c.69-.69 3.28-2.79 3.74-2.61s.92.5.32.78a22.41 22.41 0 0 0-2.72 2.37s4.8-2.6 5.08-2.37.69.77 0 1.23-4.25 3-4.25 3 4.44-2.86 4.91-2.59a.79.79 0 0 1 .47.81c0 .22-4.68 3-4.68 3s4.06-1.28 4.24-.87.51.86-1.24 1.23a10.09 10.09 0 0 0-4 2.15c-.32.37-3.58 1.74-5.49 1.1s-1.78-3.06-1.78-3.06Z"/><path class="cls-7" d="M340.72 114.22c.72-.72 1.93-2 4-.55s12.86 14.49 12.86 14.49l14.6 4.93s1.66 2.73 0 4.65-12.76-.44-18.25-3.18-10.2-7.45-12-11.13c-1.85-4.05-2.93-7.43-1.21-9.21Z"/><path class="cls-33" d="M353.61 106.16a2.63 2.63 0 0 0-2.69 1.72c-.93 2.64 8.35 11.79 8.35 11.79s-8.63-3.31-8.91-3.59.23-2 .23-2-2.68-.77-2.95-1.64 2.2-7.19 4.19-8 1.78 1.72 1.78 1.72ZM355.25 105s3.76 1.92 4.58 3.13-.56 11.51-.56 11.51 4.12-6.91 4.12-7.08a9.79 9.79 0 0 0-1.64-1.17s1.82-2.06 1.63-2.24-1.62-4.29-4.9-4.65-3.23.5-3.23.5Z"/><path d="M359.32 103.71s.33 5.29-.26 7.24-3.35 1.31-5.73 0-2.79-2.41-2.13-4.56c.74-2.42.25-3.29.25-3.29Z" style="fill:#8e5025"/><path d="M359.18 94v-1.28s2.15-2.19-4-2.55-7.81 3.51-7.19 6.73 4.53 5.9 4.53 5.9Z"/><path d="M359.18 92.72a11.35 11.35 0 0 1 1.66 2.83 7.33 7.33 0 0 0 .35 1.86 4.1 4.1 0 0 1 .74 1.94c.15 1.28.26 5.29-.06 6a3.29 3.29 0 0 1-2.87 1.25 16.43 16.43 0 0 1-4.28-.61 12.63 12.63 0 0 1-2.48-2.4 1.24 1.24 0 0 1-1.16 0c-.62-.3-2.46-2.22-2.47-2.92s1-1 1.7-.7 1.12.56 1.25.64a5.78 5.78 0 0 0 .47-3.32c-.25-1.43-.7-2.31.2-2.55s3.46 0 4.89-.71a7.55 7.55 0 0 0 2.06-1.31Z" style="fill:#ad693b"/><path id="Axo_panel-32" data-name="Axo panel" class="cls-8" d="M406.89 96.35c0 1.86-1.81 4.27-3.65 5.33a10.64 10.64 0 0 1-9.51 0 3.3 3.3 0 0 1-2-2.71v1.18a3.3 3.3 0 0 0 2 2.71 10.64 10.64 0 0 0 9.51 0c1.84-1.06 3.65-3.47 3.65-5.33Z"/><g id="Axo_Projection-7" data-name="Axo Projection"><g id="Axo_Surface_11" data-name="Axo Surface*"><path id="Axo_panel-33" data-name="Axo panel" class="cls-5" d="m395 102.16-1.21.52a22.23 22.23 0 0 0-4.39 2.52l-.93.69v1.18l.92-.69a21.54 21.54 0 0 1 4.4-2.51l1.2-.53Z"/><path id="Axo_panel-34" data-name="Axo panel" class="cls-36" d="m388.5 105.89-2.13-1.21v1.18l2.13 1.21v-1.18z"/></g><path id="Axo_base-7" data-name="Axo base" class="cls-36" d="m395 102.16-2.1-1.16a42.91 42.91 0 0 1-6.53 3.73l2.12 1.21.93-.69a22.23 22.23 0 0 1 4.39-2.52Z"/></g><g id="Axo_Extrusion-6" data-name="Axo Extrusion"><path id="Axo_panel-35" data-name="Axo panel" class="cls-10" d="M388.62 109.33a2.92 2.92 0 0 1-1.74 2.4 9.36 9.36 0 0 1-8.41 0 2.91 2.91 0 0 1-1.75-2.4v22.85c0 .87 3.95 11.23 4.65 13a1.49 1.49 0 0 0 2.68 0c.59-1.2 4.57-12.12 4.57-13Z"/><path id="Axo_base-8" data-name="Axo base" class="cls-6" d="M388.62 109.33a2.93 2.93 0 0 0-1.74-2.4 9.41 9.41 0 0 0-8.42 0 2.94 2.94 0 0 0-1.74 2.4 2.91 2.91 0 0 0 1.75 2.4 9.36 9.36 0 0 0 8.41 0 2.92 2.92 0 0 0 1.74-2.4Z"/></g><g id="Axo_Compound_Projection-2" data-name="Axo Compound Projection"><g id="Axo_Extrusion-7" data-name="Axo Extrusion"><path id="Axo_panel-36" data-name="Axo panel" class="cls-5" d="M377.05 107.86a2.78 2.78 0 0 1 1.64-2.27 8.86 8.86 0 0 1 7.95 0 2.76 2.76 0 0 1 1.65 2.26v1.46a2.74 2.74 0 0 0-1.65-2.26 8.9 8.9 0 0 0-7.95 0 2.78 2.78 0 0 0-1.64 2.27Z"/><path id="Axo_panel-37" data-name="Axo panel" class="cls-5" d="M389.39 107.85a3.28 3.28 0 0 1-2 2.71 10.64 10.64 0 0 1-9.51 0 3.3 3.3 0 0 1-2-2.71v1.45a3.29 3.29 0 0 0 2 2.71 10.61 10.61 0 0 0 9.51 0 3.34 3.34 0 0 0 2-2.72Z"/></g><path id="Axo_Compound-6" data-name="Axo Compound" class="cls-36" d="M377.92 110.57a10.64 10.64 0 0 0 9.51 0c2.62-1.5 2.62-3.93 0-5.43a10.64 10.64 0 0 0-9.51 0c-2.63 1.5-2.63 3.93 0 5.43Zm.78-.45c-2.2-1.25-2.2-3.28 0-4.53a8.86 8.86 0 0 1 7.95 0c2.2 1.25 2.2 3.28 0 4.53a8.84 8.84 0 0 1-7.95 0Z"/><path id="Axo_Compound-7" data-name="Axo Compound" class="cls-27" d="M393.73 101.69a10.64 10.64 0 0 0 9.51 0c2.62-1.5 5.17-5.75 2.54-7.25s-9.44.33-12.06 1.83-2.62 3.92.01 5.42Z"/></g><g id="Axo_Compound_Extrusion-11" data-name="Axo Compound Extrusion"><g id="Axo_Extrusion-8" data-name="Axo Extrusion"><path id="Axo_panel-38" data-name="Axo panel" class="cls-6" d="M395.3 95.35a1.57 1.57 0 0 1 .93-1.29 5.06 5.06 0 0 1 4.49 0 1.56 1.56 0 0 1 .93 1.28V99a1.57 1.57 0 0 0-.93-1.28 5 5 0 0 0-4.49 0 1.56 1.56 0 0 0-.93 1.28Z"/><path id="Axo_panel-39" data-name="Axo panel" class="cls-7" d="M403.68 95.34a2.56 2.56 0 0 1-1.52 2.1 8.22 8.22 0 0 1-7.36 0 2.56 2.56 0 0 1-1.53-2.1V99a2.56 2.56 0 0 0 1.53 2.1 8.19 8.19 0 0 0 7.36 0 2.54 2.54 0 0 0 1.52-2.1Z"/></g><path id="Axo_Compound-8" data-name="Axo Compound" class="cls-27" d="M394.8 97.45a8.22 8.22 0 0 0 7.36 0c2-1.16 2-3 0-4.2a8.24 8.24 0 0 0-7.37 0c-2.03 1.16-2.03 3.04.01 4.2Zm1.43-3.39a5.06 5.06 0 0 1 4.49 0c1.24.71 1.24 1.85 0 2.56a5 5 0 0 1-4.49 0c-1.23-.7-1.23-1.85 0-2.56Z"/></g><path class="cls-32" d="M371.3 134.37a6.32 6.32 0 0 1 1.5-1.61l2.28-1.31a8.43 8.43 0 0 0 2.36-1.24c.46-.55.8-1.14 1.05-.84a1.27 1.27 0 0 1 0 1.34A16.11 16.11 0 0 1 376 133l3.31.65s3.85 0 4 .36.41.93-.52 1l-5.3.13s5.79.78 5.65 1.24-.06.91-2.26.72-4.41-.25-4.41-.25 4.64 1.1 4.72 1.49.32.88-.93.75-3.95-.66-3.95-.66 2.94 1.13 3 1.53-.32.53-1.18.47a52.39 52.39 0 0 1-6-2.37s-1.72-.8-.83-3.69Z"/><path class="cls-37" d="m248.07 20.55 4.33 1.95-.12-.69-4.33-1.74.12.48z"/><path class="cls-38" d="M247.85 23.24s2.81-3.39 2.55-4.55-1.52-1.76-2-2-2-3.09-5.69-2.45c-.64.11-4.46-.13-5.94 3.18s.84 5.09.84 5.94-2.65 2.39-2.14 4.23a12.55 12.55 0 0 0 2.39 3.92Z"/><path class="cls-39" d="M268 7.25a1.37 1.37 0 0 1 1.48.6 1.22 1.22 0 0 1 .14.33l11.57 45.12a8.06 8.06 0 0 0 2 3.52l8.54 9.84a2.74 2.74 0 0 1 .67 1.9 1.76 1.76 0 0 1-.06.46 2.81 2.81 0 0 1-1.42 1.87A3.08 3.08 0 0 1 288 71l-13.22-6.56a1.24 1.24 0 0 1-.56-1.72 1.14 1.14 0 0 1 .33-.39 1.41 1.41 0 0 1 1.48-.15l13.22 6.56a.26.26 0 0 0 .27 0 .24.24 0 0 0 .14-.22.26.26 0 0 0-.07-.18l-8.48-9.78a10.49 10.49 0 0 1-2.55-4.6L267 8.78a1.2 1.2 0 0 1 .34-1.18 1.25 1.25 0 0 1 .66-.35Z"/><path class="cls-17" d="m276.06 62.13 13.22 6.56a.26.26 0 0 0 .27 0 .24.24 0 0 0 .14-.22.26.26 0 0 0-.07-.18c1 1.19.36 1.25-.12 1.36s-13.23-6.49-14.59-7.22a2.16 2.16 0 0 0-.33-.14 1.41 1.41 0 0 1 1.48-.16ZM268 7.25a1.37 1.37 0 0 1 1.48.6 1.22 1.22 0 0 1 .14.33l11.57 45.12a8.06 8.06 0 0 0 2 3.52l8.54 9.84a2.74 2.74 0 0 1 .67 1.9 1.76 1.76 0 0 1-.06.46 3.86 3.86 0 0 0-.25-.64c-1.16-2.27-10-11.47-11-13.16S270 10.13 269 8.69c-.72-1-1.36-1.12-1.66-1.09a1.25 1.25 0 0 1 .66-.35Z"/><path class="cls-15" d="M275.42 63.68s12.33 7 14.78 6.78a.49.49 0 0 0 .35-.14c1.11-1.33-9.39-13.39-10.07-14.41S269.91 16 269.91 16s8.18 37.75 10.57 40.3 11.14 13.38 9.77 13.8-14.83-6.42-14.83-6.42Z"/><path class="cls-40" d="M247.4 27.06s1.35 7.8 4.33 8.66 7.37 3 10.08 2.75 5.49-6.23 6.72-8.51.84-1.89 1.68-2.87 1.3-.65.47-4.19c-.27-1.15 1.73-1.09 1.73-1.09a4.61 4.61 0 0 0 2.07-1c.65-.74-1.62.07-2.08-.05s-1.67-.65-1.67-.65-2 1.2-2.3 2a25.35 25.35 0 0 0-.74 2.8c-1.93 2.52-1.19 2.16-2.52 3.51-1.76 1.76-5.43 4.76-5.43 4.76a16.16 16.16 0 0 1-3.29-.73c-1.88-.61-2.53-2-4.72-4a5.07 5.07 0 0 0-3.59-1.45 3.52 3.52 0 0 0-.74.06Z"/><path class="cls-7" d="M246.12 28.3a2 2 0 0 1 1.88-1.58c1.74-.24 3.78 1.18 4.68 2s3.32 3.21 4.32 3.41 2.4.59 2.4.59 6-5 6.63-6 .66-1.79 1.3-1.07a7.62 7.62 0 0 1 1.84 4.6c.06 2.16-5.28 9.09-7.2 9.55s-10.16-3.2-12.26-4.8-4.01-5.29-3.59-6.7Z"/><path class="cls-40" d="M275.14 22.16s.07-1-.58-.94-1.55.18-1.65.46.46.92.87 1 1.36-.52 1.36-.52Z"/><path class="cls-40" d="M275.07 23s.06-.82-.47-.76-1.25.15-1.33.37.37.74.7.82 1.1-.43 1.1-.43Z"/><path class="cls-40" d="M274.91 24s.3-.76-.22-.85-1.25-.2-1.39 0 .13.81.43 1 1.18-.15 1.18-.15Z"/><path class="cls-40" d="M274.55 25.17s.44-.58 0-.78-1.06-.47-1.23-.34-.06.72.16.93 1.07.19 1.07.19Z"/><path class="cls-41" d="M253.33 51s4.54 4.1 3.37 15.86-4.52 13.48-4.65 16.54S250 96.85 250 98.56s3.49 5.64 5 6.25 3.49 2.7 3.62 3.68-2.45.61-4.65.24-1.94-2.57-4.91-3.06-3.88-1-4.4-2.2.91-3.44.91-5.52S243 87.54 243.91 85s2.09-5.55 2.09-5.55l-1.55-22.78Z"/><path class="cls-40" d="M216.11 121.6c0 2.69.26 2.32 2.72 3.92s3.75 4.16 4.13 2.2-.68-5.49-1.16-7.35.39-5 .39-5 4.26-7 6.72-10.9 7.5-8.34 9.57-9.32 2.19-3.67 3-7 7.37-28.91 7.37-28.91l-3.36-2.94-8.66-1.1s-3.88 7.22-3.11 11.88.52 21.56.52 21.56-5.56 2.94-7.5 6-6.85 16.79-8.27 17.89c-.95.73-2.7 2.08-2.84 3.19s.48 3.18.48 5.88Z"/><path class="cls-31" d="M254 44.05s2.07-2 1.81-3.92-3.81-8.43-4.63-10.64-4.59-3.88-8.13-2.5-8.73 4.41-9.84 6 .73 9.92 2.18 13.41-2.09 16.86-2.09 16.86 9-4.41 12.27-5.32 8-6 8-6c-.13-2.68-.19-.94.43-7.89Z"/><path class="cls-9" d="M242.75 28.54a11.25 11.25 0 0 1 3.78 1.06c1.4.83 1.16 1 1.73 4.25a38.82 38.82 0 0 1 .55 6s-6.48-5.53-9-6.55c-3-1.24.06-4.41.25-5.33s5.56-.56 5.56-.56Z"/><path d="M241.1 27.86s-2.67.75-1 3.68c.91 1.64 8.25 7.16 8.25 7.16s-.77-5-1.28-7.59-4.62-4.11-4.62-4.11a2.57 2.57 0 0 1 2.87-.62c2 .58 3.88 3.75 3.88 3.75L248.12 32l2.33.69-1.64 7.15-8.6-3.8 1.21-1.53-3.56-.57s-1.85.23-.21-3.22 3.45-2.86 3.45-2.86Z" style="fill:#ffd023"/><path class="cls-41" d="m240.2 25.71-.76-.83a13.93 13.93 0 0 1 0 2.53c-.15 1-.55 1.33-.12 2.63a3.83 3.83 0 0 0 2 2.54c.83.28 3.14.62 4.42-.18a3.75 3.75 0 0 0 1.26-3.34c-.17-.15-6.8-3.35-6.8-3.35Z"/><path class="cls-40" d="M250.18 23.27c0 .61-.2.37-.17 1.1s.36 1.11-.09 1.81-.78 3.49-1.33 3.95-1.26.92-3 .34-5.33-3.31-5.68-4.29l-.36-1s-.06 1.2-1.07.09-2.16-2.78-.77-3.83 2.58 1.56 2.58 1.56a13.94 13.94 0 0 0 .45 1.89c.1 0 4.62-.55 5.91-2.72a25.67 25.67 0 0 0 2.07-4.53 44.51 44.51 0 0 1 1.46 5.63ZM237.57 38.56s-5.82 11-6.79 13.24A61.49 61.49 0 0 0 227.1 62c-1.45 5.33-.29 7-.29 7s1.5 3.35 1.5 2.89a13.41 13.41 0 0 1 .58 2.35c.05.27.39 2.52-.09 2.25-.72-.41-.77.25-1-2.21l-1.36-1.19-1.36 2.48v3.58s.49 1.1.1 1.06-1.21-1.56-1.46-1.61-.87 0-.92-.55v-.55a1.92 1.92 0 0 1-.67-1.2v-.69a1.28 1.28 0 0 1-.39-1c0-.64 1.74-3.63 1.74-5.56s-1.16-9.1 0-13.14a24.88 24.88 0 0 1 2.86-6.39c0-.23 1.84-5.74 2.42-9.32s4.07-8 5.28-7.95 3.73 3.42 3.53 6.31Z"/><path class="cls-7" d="M235.44 32.13a7.24 7.24 0 0 0-5.82 2.08c-2.75 2.61-4.37 15.3-4.61 15.55s-2.83 5.71-3 9.23a56.85 56.85 0 0 0 .68 8.82s2.11 2.76 4.87 1.46 1.56-1.14 1.56-1.14 1.84-15.06 3-17.84 6.54-11.76 5.82-14.43-1.05-3.86-2.5-3.73Z"/><path class="cls-43" d="M255 104.81s1.75.83.39 1.38-5.62-1.56-8.14-3.31-2.14-2-2.14-2a4.08 4.08 0 0 0-.87 2.76 14.78 14.78 0 0 0 1.26 3.58l1.94.55.49-1.38s2.71-.09 3.1.56 1.16 2.84 3.39 3.49 7.66.27 7.66-1.29-1.45-.92-3.49-2.57a7 7 0 0 0-3.59-1.77ZM216.11 121.6c0 2.69.78 4 3.23 5.63s6.13 1.64 4.85.06-1.48-3.57-2-5.57c0 0 .83 2.48-.79 2.2s-3.59-3.58-3.78-6.34c-.16-2.21-.19-3.71-.19-4.22-.69.58-1.7 1.5-1.81 2.36s.49 3.18.49 5.88Z"/><path class="cls-43" d="m214.2 118 1.58-2.89.36 3-.87 1.28s-1.07-.7-1.07-1.39Z"/><path class="cls-14" d="m239.15 58.9-2.89.94s-2.13 1.45-3.39 9-1.88 20-1.88 20a12.6 12.6 0 0 0 12.61 3.77c8-2 14.64-8.26 14.64-8.26s1.88-24.54-4.91-30.05-14.18 4.6-14.18 4.6Z"/><path class="cls-31" d="m239.15 55.5-2.89.94s-2.13 1.44-3.39 9-1.88 20-1.88 20a12.6 12.6 0 0 0 12.61 3.77c8-2 14.64-8.26 14.64-8.26s1.88-24.54-4.91-30-14.18 4.55-14.18 4.55Z"/><g class="cls-44"><path class="cls-38" d="M322.34 80.1c6.28-3.34 16.32-3.24 22.42.22s6 9-.31 12.31-16.32 3.24-22.43-.22-5.96-8.97.32-12.31Z"/><path class="cls-38" d="M305.65 76.73c-6.72-6.71-4.79-15.3 5.69-20.87l11 24.24c-5.24 2.79-6.21 7.08-2.84 10.44Z"/><path class="cls-38" d="M347.26 90.62c3.31-3.27 2.5-7.47-2.5-10.3-6.1-3.46-16.14-3.56-22.42-.22l-11-24.24c12.56-6.68 32.64-6.49 44.85.43 10 5.66 11.62 14.06 5 20.59Z"/><path class="cls-13" d="m312.05 78.52-2.7-2.52c-6.19-5.92-4.58-13.59 4.73-18.54l2.17 4.66c-8.25 4.35-9.7 11.15-4.2 16.4ZM357.49 76.08l-2.71 2.56c5.41-5.11 4.22-11.77-3.66-16.23-9.49-5.38-25.11-5.53-34.87-.34l-2.17-4.66c11-5.85 28.6-5.69 39.29.38 8.88 5.03 10.22 12.53 4.12 18.29Z"/><path d="m316.25 62.07 17.19 9.68-17.19-9.68c9.76-5.19 25.38-5 34.87.34s9.27 14-.49 19.14-25.38 5-34.88-.34-9.27-13.94.5-19.14Z" style="fill:#1c7680"/><path class="cls-38" d="M309.35 76a21.58 21.58 0 0 0 4.17 3c10.7 6.06 28.29 6.23 39.3.37a21.23 21.23 0 0 0 4.67-3.27l-2.71 2.56a18.86 18.86 0 0 1-4.15 2.91c-9.77 5.19-25.38 5-34.88-.34a18.49 18.49 0 0 1-3.7-2.69Z"/><path class="cls-13" d="m319.5 90.54-13.85-13.81a23.68 23.68 0 0 0 5.05 3.75c12.21 6.91 32.29 7.11 44.85.43a24.17 24.17 0 0 0 5.64-4l-13.93 13.71a12.15 12.15 0 0 1-2.81 2c-6.28 3.34-16.32 3.24-22.43-.22a11.63 11.63 0 0 1-2.52-1.86Z"/><path class="cls-38" d="M311.34 55.86c12.56-6.68 32.64-6.49 44.85.43s11.92 17.94-.64 24.62-32.64 6.48-44.85-.43-11.92-17.94.64-24.62Zm44.21 25c-12.56 6.68-32.64 6.48-44.85-.43s-11.92-17.94.64-24.62Zm-41.47-23.5c-11 5.85-11.26 15.51-.56 21.57s28.29 6.23 39.3.37 11.25-15.5.55-21.56-28.29-6.18-39.29-.33Z"/></g><g class="cls-44"><path class="cls-46" d="M358 67c0-3.4-2.3-6.8-7-9.44-9.46-5.36-25-5.51-34.75-.33v-4.54c9.74-5.18 25.3-5 34.77.33 4.65 2.64 6.95 6 6.94 9.44.04 1.37.04 3.2.04 4.54Z"/><path class="cls-46" d="M308.84 66.9c0-3.51 2.51-7 7.45-9.64a5.53 5.53 0 0 0 2.59 4.35c-8.26 4.39-8.45 11.64-.42 16.18s21.22 4.68 29.48.29 8.45-11.64.42-16.19-21.23-4.67-29.48-.28a5.53 5.53 0 0 1-2.59-4.35c9.74-5.18 25.29-5 34.75.33 4.66 2.64 7 6 7 9.44 0 .38-.05.89-.09 1.27a7.62 7.62 0 0 1-.14.81c-.07.26-.15.63-.24.89a16 16 0 0 1-.66 1.61 12.09 12.09 0 0 1-1.48 2.25 14.63 14.63 0 0 1-2 2c-.39.31-.9.72-1.3 1s-.78.53-1.13.74a25.2 25.2 0 0 1-2.84 1.49 31.52 31.52 0 0 1-3.09 1.17c-.49.14-1.14.35-1.64.47-1 .24-2.32.54-3.33.7-1.87.31-3.48.42-3.48.42-1.06 0-2.47.1-3.53.11h-1.76a40.53 40.53 0 0 1-6.95-1A31.94 31.94 0 0 1 321 80a24.58 24.58 0 0 1-3.16-1.32c-.4-.2-.94-.47-1.33-.69s-1.24-.75-1.75-1.11a17.86 17.86 0 0 1-2.65-2.25 12.47 12.47 0 0 1-2.49-3.72 10.94 10.94 0 0 1-.64-2.05 11.36 11.36 0 0 1-.14-1.96Z"/><path class="cls-17" d="M356 62.46V67c0-3.12-2.12-6.25-6.41-8.68-8.7-4.93-23-5.07-32-.3v-4.55c9-4.77 23.28-4.63 32 .3 4.34 2.43 6.46 5.56 6.41 8.69Z"/><path class="cls-47" d="M353.69 56.91a16.23 16.23 0 0 0-4-3.14 29.12 29.12 0 0 0-8.47-3v4.52a28.59 28.59 0 0 1 8.45 3 16.21 16.21 0 0 1 4.06 3.16Z"/><path class="cls-46" d="M308.84 62.33c0-3.51 2.51-7 7.45-9.64v4.57c-4.94 2.63-7.43 6.13-7.45 9.64.01-1.37 0-3.2 0-4.57Z"/><path class="cls-17" d="M310.81 66.85v-4.51c0-3.23 2.3-6.45 6.85-8.87V58c-4.55 2.4-6.84 5.62-6.85 8.85Z"/><path class="cls-46" d="M318.88 61.61c8.25-4.39 21.45-4.27 29.48.28s7.84 11.8-.42 16.19-21.46 4.26-29.48-.29-7.84-11.79.42-16.18Z"/><path class="cls-16" d="M319.06 60.33c8.15-4.34 21.19-4.21 29.12.28s7.74 11.65-.41 16-21.2 4.21-29.13-.28-7.74-11.66.42-16Z"/><path class="cls-9" d="M334.41 61.17s.29-.55-.43-.74c-1.58-.43-11.77 6.29-11.93 7.4-.38 2.71 14.33 2.35 14.87 2.45s12.48 4 12.48 4l.93-1.06s-9.74-3.8-12.91-4.33c-3.4-.57-13.34-.11-13.15-.84s10.14-6.88 10.14-6.88Z"/><path class="cls-23" d="M317.61 76.4a16 16 0 0 1-5-4.3 10 10 0 0 1-1.31-2.5 7.53 7.53 0 0 1-.29-1.06 7.81 7.81 0 0 1-.17-1.69c0-3.23 2.3-6.45 6.85-8.87a3 3 0 0 0 1.4 2.35c-8.16 4.34-8.34 11.5-.42 16s21 4.62 29.13.28 8.34-11.5.41-16-21-4.62-29.12-.28a3 3 0 0 1-1.4-2.35c9-4.77 23.27-4.63 32 .3 4.29 2.43 6.48 5.56 6.41 8.68v.69a12.69 12.69 0 0 1-.23 1.35 9.32 9.32 0 0 1-.65 1.74 11.83 11.83 0 0 1-2.62 3.38 14.6 14.6 0 0 1-1.28 1c-.29.2-.68.49-1 .68s-1 .63-1.47.86a24.29 24.29 0 0 1-2.91 1.34 29.79 29.79 0 0 1-3 1c-.93.23-2.18.51-3.12.67-1.46.24-2.6.34-3.33.39a39 39 0 0 1-6.68-.06c-.68-.07-1.81-.18-3.27-.45s-2.72-.61-3.15-.74a26.39 26.39 0 0 1-3-1 24.29 24.29 0 0 1-2.78-1.41Z"/><path class="cls-46" d="M310.81 66.85c0 .4 0 1 .1 1.35s.16.72.24 1a10 10 0 0 0 .72 1.74 11.5 11.5 0 0 0 1.26 1.84c.37.41.88.93 1.28 1.31a9.79 9.79 0 0 0 .85.72c.28.2.64.49.93.68s1 .63 1.42.88a24.32 24.32 0 0 0 2.76 1.33 26.68 26.68 0 0 0 3 1c.91.24 2.15.53 3.08.73.5.1 1.17.19 1.68.27.84.13 2.74.29 3.31.31s1.17.05 1.68.05h1.66c.5 0 1.17-.06 1.67-.08 0 0 1.49-.1 3.27-.39 1.48-.24 2.44-.49 3.15-.67a27 27 0 0 0 5.9-2.25 22.4 22.4 0 0 0 2.46-1.54 14.29 14.29 0 0 0 2-1.75 10.54 10.54 0 0 0 2.18-3.29 9.13 9.13 0 0 0 .45-1.43c0-.2.1-.47.12-.67s.07-.75.08-1.07c0 3.23-2.31 6.45-6.86 8.88-9 4.76-23.27 4.62-32-.31-4.28-2.39-6.4-5.49-6.39-8.64Z"/><path class="cls-16" d="M316.55 78a20.6 20.6 0 0 1-3.2-2.23 15 15 0 0 1-2.51-2.77 11.46 11.46 0 0 1-1.48-2.91 9.81 9.81 0 0 1-.34-1.26 10.56 10.56 0 0 1-.18-1.92c0 3.39 2.3 6.8 7 9.44 9.46 5.36 25 5.5 34.76.33C355.5 74 358 70.54 358 67v.82a15.07 15.07 0 0 1-.28 1.61 10.26 10.26 0 0 1-.77 2.06 12.94 12.94 0 0 1-1 1.67 13.94 13.94 0 0 1-2 2.22 20.86 20.86 0 0 1-4.13 2.87 27.94 27.94 0 0 1-3.06 1.38 31.45 31.45 0 0 1-3.24 1 37.53 37.53 0 0 1-6.85 1.13c-1.15.09-2.34.13-3.55.12-1.86 0-3.35-.16-3.52-.18-.77-.08-1.94-.2-3.46-.48a33.16 33.16 0 0 1-3.36-.79 29.52 29.52 0 0 1-3.19-1.1 26.46 26.46 0 0 1-3.04-1.33Z"/><path class="cls-46" d="M310.81 62.34c0 3.12 2.12 6.25 6.4 8.68 8.71 4.93 23 5.07 32 .31 4.56-2.42 6.84-5.65 6.85-8.87V67c0 3.23-2.31 6.45-6.86 8.88-9 4.76-23.27 4.62-32-.31-4.28-2.43-6.4-5.56-6.39-8.68Z"/><path d="M316.29 52.69c9.74-5.18 25.3-5 34.77.33s9.24 13.9-.5 19.08-25.29 5-34.75-.33-9.25-13.9.48-19.08Zm1.37.78c-9 4.76-9.15 12.62-.45 17.55s23 5.07 32 .31 9.16-12.63.46-17.56-23.05-5.07-32.01-.3Z" style="fill:#e5f0ff"/><path class="cls-39" d="M308.84 66.9v-4.57c0 3.4 2.31 6.8 7 9.44 9.46 5.36 25 5.51 34.75.33 4.92-2.63 7.41-6.1 7.41-9.64V67c0 3.51-2.5 7-7.45 9.64-9.73 5.17-25.3 5-34.76-.33-4.65-2.61-6.96-6.02-6.95-9.41Z"/><path class="cls-8" d="M329.25 75.68a34.22 34.22 0 0 1-13.44-3.91 18.66 18.66 0 0 1-3.58-2.59v4.58a18.46 18.46 0 0 0 3.56 2.58 34.37 34.37 0 0 0 13.46 3.91Z"/></g><path class="cls-39" d="M378.16 77a1.07 1.07 0 0 1-1 .76.94.94 0 0 1-.3 0L338.51 67.4a7.42 7.42 0 0 0-3.41-.09l-10.77 1.77a2.56 2.56 0 0 1-1.69-.31l-.31-.22a2.22 2.22 0 0 1 .28-3.65l10.19-6.22a1.13 1.13 0 0 1 1.51.32.91.91 0 0 1 .16.38 1 1 0 0 1-.49 1l-10.19 6.21a.2.2 0 0 0-.1.19.18.18 0 0 0 .11.18.21.21 0 0 0 .16 0l10.69-1.76a9.74 9.74 0 0 1 4.46.14l38.3 10.32a1 1 0 0 1 .75.7.92.92 0 0 1 0 .64Z"/><path class="cls-17" d="m334 60.43-10.19 6.21a.2.2 0 0 0-.1.19.18.18 0 0 0 .11.18.21.21 0 0 0 .16 0c-1.31.22-1.08-.26-1-.63s10.15-6.25 11.24-6.87l.24-.16a1 1 0 0 1-.46 1.08ZM378.16 77a1.07 1.07 0 0 1-1 .76.94.94 0 0 1-.3 0L338.51 67.4a7.42 7.42 0 0 0-3.41-.09l-10.77 1.77a2.56 2.56 0 0 1-1.69-.31 2.44 2.44 0 0 1-.31-.22 3.72 3.72 0 0 0 .57.08c2.17.14 12.58-2.11 14.25-2.11s38 10.7 39.53 10.6c1.06-.08 1.38-.47 1.48-.68a.92.92 0 0 1 0 .56Z"/><path class="cls-15" d="M333.09 59.38s-10.17 5.44-11 7.17a.37.37 0 0 0 0 .3c.55 1.27 13.75-.92 14.79-1s34 8.93 34 8.93-31.43-9.67-34.29-9.09-14.45 2.09-14.21 1 10.71-7.31 10.71-7.31Z"/><path class="cls-38" d="M267.71 109.92c14.29-7.59 37.13-7.38 51 .49s13.56 20.41-.72 28-37.14 7.38-51-.49-13.57-20.4.72-28Zm2.43 1.38c-12.9 6.87-13.2 18.19-.65 25.3s33.18 7.3 46.08.44 13.2-18.19.66-25.29-33.18-7.31-46.09-.45Z"/><path d="M274.86 109.3c10.21-5.43 26.55-5.28 36.48.35s9.71 14.59-.51 20-26.56 5.28-36.49-.35-9.7-14.57.52-20Z" style="fill:#006676"/><path class="cls-38" d="M274.72 108.83c10.31-5.48 26.8-5.33 36.83.35s9.79 14.73-.53 20.22-26.8 5.32-36.82-.36-9.79-14.73.52-20.21Zm2.44 1.38c-8.93 4.75-9.14 12.58-.46 17.5s23 5.06 31.89.31 9.13-12.59.45-17.5-22.95-5.06-31.88-.31Z"/><path class="cls-50" d="m311.22 109 5 2.75c12.54 7.1 12.25 18.43-.66 25.29s-33.54 6.67-46.08-.44-12.25-18.43.65-25.3l4.58-2.47c-10.31 5.48-10.55 14.53-.52 20.21s26.51 5.84 36.82.36 10.55-14.54.53-20.22Z"/><path d="M274.72 108.83a17.6 17.6 0 0 0-6 5.13 9.51 9.51 0 0 0-1.55 3.53 7.84 7.84 0 0 0 .19 3.79 12.4 12.4 0 0 0 4.69 6.11 22 22 0 0 0 3.43 2.07c.3.14.59.31.9.44l1.87.78c.32.12.64.22 1 .33a44.21 44.21 0 0 0 16.09 2.18 43.13 43.13 0 0 0 8.09-1.09 33.13 33.13 0 0 0 7.67-2.7 37.65 37.65 0 0 1-15.75 4.1 47.18 47.18 0 0 1-8.23-.28 39.17 39.17 0 0 1-8-1.82l-1-.34-1.89-.8c-.31-.14-.61-.31-.92-.46a21.71 21.71 0 0 1-3.48-2.12 15.1 15.1 0 0 1-2.91-2.79 10.26 10.26 0 0 1-1.85-3.52 8.17 8.17 0 0 1-.14-3.93 9.52 9.52 0 0 1 1.64-3.59 17.62 17.62 0 0 1 6.15-5.02Z" style="fill:#00abac"/><path class="cls-50" d="M318.28 110.16c1.63.9 5.26 2.88 5.44 3 16.58 9.39 16.19 24.35-.86 33.42s-44.32 8.81-60.9-.58-16.19-24.36.86-33.43l4.89-2.64c-14.29 7.6-14.62 20.14-.73 28s36.74 8.09 51 .49 14.61-20.14.72-28Z"/><path class="cls-24" d="M267.71 109.92a24.37 24.37 0 0 0-8.41 7.1 13.05 13.05 0 0 0-2.16 4.9 10.94 10.94 0 0 0 .26 5.27 14.16 14.16 0 0 0 2.53 4.73 20.6 20.6 0 0 0 4 3.77 29.5 29.5 0 0 0 4.77 2.88c.42.2.82.43 1.25.62l2.59 1.08c.44.17.89.31 1.33.46a61.06 61.06 0 0 0 22.32 3 59.74 59.74 0 0 0 11.23-1.53 45.54 45.54 0 0 0 10.58-3.78 45.19 45.19 0 0 1-10.57 4 59.29 59.29 0 0 1-11.26 1.65 67.71 67.71 0 0 1-11.39-.41 53.16 53.16 0 0 1-11.1-2.52c-.44-.16-.9-.3-1.34-.47l-2.62-1.1c-.43-.19-.84-.42-1.26-.63a30.58 30.58 0 0 1-4.81-2.93 20.78 20.78 0 0 1-4-3.86 14.24 14.24 0 0 1-2.56-4.85 11.39 11.39 0 0 1-.2-5.41 13.31 13.31 0 0 1 2.25-5 24.58 24.58 0 0 1 8.57-6.97Z"/><path class="cls-16" d="M313.35 111.92v4.37c0-2.18-1.15-4.36-3.45-6.25a17.22 17.22 0 0 0-2.35-1.6 24 24 0 0 0-5.39-2.18c-7.6-2.15-17.12-1.53-23.57 1.9v-4.38c6.45-3.43 16-4 23.57-1.91a23.66 23.66 0 0 1 5.4 2.19 16.12 16.12 0 0 1 2.74 1.94 8 8 0 0 1 3.05 5.92Z"/><path class="cls-47" d="m310.3 106-.4 4.05a17.22 17.22 0 0 0-2.35-1.6 24 24 0 0 0-5.39-2.18v-4.39a23.66 23.66 0 0 1 5.4 2.19 16.12 16.12 0 0 1 2.74 1.93Z"/><path class="cls-16" d="M272.38 116.2v-4.38c0-2.93 2.09-5.85 6.21-8v4.38c-4.12 2.16-6.2 5.07-6.21 8ZM280.18 110.84c7.2-3.83 18.71-3.72 25.72.25s6.83 10.29-.37 14.12-18.72 3.72-25.72-.25-6.81-10.29.37-14.12Z"/><path class="cls-33" d="M282.3 111.54s-1.64.62-1.48 1.45-.81 1.45-.32 2.38 3 1.22 4.31.92 4.2 1.4 5.84.11a15.19 15.19 0 0 1 2.48-1.76c.24-.13.09-1.16-.51-2.11a3.09 3.09 0 0 0-3.16-1.56c-3.07.47-4.16.18-4.93 0s-2.23.57-2.23.57Z"/><path class="cls-52" d="M283.32 112a3.4 3.4 0 0 1 1.72-.48 6.3 6.3 0 0 0 2.51.17c.37 0 .79-.07 1.28-.14a2.44 2.44 0 0 1 2.44 1.19 3.19 3.19 0 0 1 .41.83c.12.44.11.79 0 .87a11.89 11.89 0 0 0-1.89 1.33c-1.25 1-3.45-.3-4.45-.07s-2.95 0-3.34-.72.32-1.2.2-1.84 1.09-1.14 1.12-1.14Z"/><path d="M284.34 112.43a2.37 2.37 0 0 1 1.2-.33 5.24 5.24 0 0 0 1.76.1c.26 0 .56 0 .9-.1a1.78 1.78 0 0 1 1.72.83 1.92 1.92 0 0 1 .33.63c.08.32.05.58-.08.66a8.65 8.65 0 0 0-1.3.9c-.86.66-2.36-.18-3.07 0s-2.06 0-2.36-.51.16-.85.08-1.31.77-.84.82-.87Z" style="fill:#ffdd4d"/><path d="M285.36 112.88a1.4 1.4 0 0 1 .68-.2 4.06 4.06 0 0 0 1 0h.52a1.14 1.14 0 0 1 1 .46 1 1 0 0 1 .25.43c0 .21 0 .38-.12.44a5.33 5.33 0 0 0-.72.48c-.47.35-1.27-.06-1.68 0a1.73 1.73 0 0 1-1.39-.31c-.2-.27 0-.49-.05-.77s.43-.49.51-.53Z" style="fill:#ffe578"/><path d="M287.39 113.56a.29.29 0 0 1-.17.23.93.93 0 0 1-.84 0 .27.27 0 0 1-.17-.23.29.29 0 0 1 .17-.24 1 1 0 0 1 .84 0 .31.31 0 0 1 .17.24Z" style="fill:#fff3c0"/><path class="cls-33" d="M299.21 113.5c-.36.33-1.58 2.23-.33 2.49s2.42-.32 2.44.9 1 2.4 2.91 2.22a26.88 26.88 0 0 0 3.27-.18c1.86-.31 1.91-1.13 1.53-2.22s0-2.48-1.8-3.21a4.09 4.09 0 0 0-3.6.39c-.38.18-3.33-1.37-4.42-.39Z"/><path class="cls-52" d="M303.92 114.3a3.35 3.35 0 0 1 2.82-.27c1.4.56 1.15 1.64 1.43 2.49s.22 1.5-1.22 1.76a21.53 21.53 0 0 1-2.58.16 1.94 1.94 0 0 1-2.33-1.71c0-.93-.93-.53-1.87-.75s0-1.67.29-1.94c.86-.75 3.12.4 3.46.26Z"/><path class="cls-56" d="M304.22 114.7a2.65 2.65 0 0 1 2-.14c1 .4.86 1.16 1.05 1.77s.11 1.1-.91 1.29a11.55 11.55 0 0 1-1.88.14 1.47 1.47 0 0 1-1.75-1.18c-.08-.65-.69-.42-1.32-.61s0-1.18.27-1.39c.66-.53 2.23.22 2.54.12Z"/><path class="cls-57" d="M304.51 115.11a2 2 0 0 1 1.26 0c.59.24.59.69.68 1.07s0 .68-.6.81a5.65 5.65 0 0 1-1.19.12 1.05 1.05 0 0 1-1.16-.66c-.11-.36-.45-.3-.77-.45s0-.7.24-.85c.39-.33 1.27.01 1.54-.04Z"/><path class="cls-58" d="M305.59 116c0 .24-.35.44-.79.44s-.79-.2-.79-.44.36-.44.79-.44.79.16.79.44Z"/><path class="cls-33" d="M284.64 123.11a6.17 6.17 0 0 1 3.06-2.65c2.07-.75 3.36.89 4 .3s2.93-2 3.75-.8a6.8 6.8 0 0 0 3.49 2.66 1.5 1.5 0 0 1 .05 2.83c-1.31.67-3.93 1-4.74 1.5s-6.33.67-6.22-1.5-3.39-1-3.39-2.34Z"/><path class="cls-52" d="M288.69 121.16c1.59-.59 2.62.63 3.16.18s2.32-1.49 3-.56a5.73 5.73 0 0 0 2.69 2.09 1.18 1.18 0 0 1 0 2.21c-1 .53-3.05.82-3.73 1.17s-4.87.48-4.83-1.17-2.6-.81-2.6-1.84a4.56 4.56 0 0 1 2.31-2.08Z"/><path class="cls-56" d="M289.67 121.85c1.12-.42 1.89.37 2.33.07s1.71-1 2.21-.32a4.83 4.83 0 0 0 1.88 1.51c.68.27.63 1.22-.11 1.6s-2.17.6-2.7.83-3.41.3-3.44-.83-1.83-.61-1.83-1.35a3.08 3.08 0 0 1 1.66-1.51Z"/><path class="cls-57" d="M290.66 122.54c.64-.26 1.14.11 1.49 0s1.11-.45 1.44-.08a5.38 5.38 0 0 0 1.08.94c.34.21.26.74-.2 1a10.17 10.17 0 0 1-1.68.5c-.4.11-2 .12-2.05-.5s-1.05-.41-1.05-.86a1.69 1.69 0 0 1 .97-1Z"/><path class="cls-58" d="M293.24 123.61a.46.46 0 0 1-.27.37 1.55 1.55 0 0 1-1.33 0 .48.48 0 0 1-.27-.37.45.45 0 0 1 .27-.37 1.46 1.46 0 0 1 1.33 0 .43.43 0 0 1 .27.37Z"/><path class="cls-23" d="M278.64 125.05a16.92 16.92 0 0 1-2.65-1.83 12.54 12.54 0 0 1-1.95-2.1 9.18 9.18 0 0 1-1.22-2.33 7 7 0 0 1-.28-1 8.34 8.34 0 0 1-.16-1.6c0-2.93 2.09-5.84 6.21-8a3.39 3.39 0 0 0 1.59 2.68c-7.21 3.83-7.37 10.15-.37 14.12s18.52 4.08 25.72.25 7.37-10.16.37-14.12-18.52-4.08-25.72-.25a3.39 3.39 0 0 1-1.59-2.68c8.11-4.31 21.07-4.18 29 .28 3.87 2.2 5.86 5 5.79 7.87a4.57 4.57 0 0 1 0 .64c-.05.38-.13.89-.22 1.27a7.65 7.65 0 0 1-.61 1.62 11 11 0 0 1-2.41 3.13 21.59 21.59 0 0 1-8.69 4.38 31.21 31.21 0 0 1-5.79 1 34.31 34.31 0 0 1-6-.06c-.61-.06-1.63-.16-2.93-.4s-2.45-.55-2.83-.66a28 28 0 0 1-2.69-.93 21.71 21.71 0 0 1-2.57-1.28Z"/><path class="cls-16" d="M277.43 126.9a16.31 16.31 0 0 1-5.26-4.57 9.57 9.57 0 0 1-1.86-5.67c0 3.11 2.11 6.24 6.37 8.66 8.69 4.91 23 5.05 31.9.3 4.54-2.41 6.83-5.62 6.84-8.84v.76c-.06.45-.16 1.06-.26 1.5a9.9 9.9 0 0 1-.72 1.92 11.33 11.33 0 0 1-.94 1.55 12.8 12.8 0 0 1-1.84 2 18.75 18.75 0 0 1-3.8 2.64 26.34 26.34 0 0 1-5.64 2.18 35.11 35.11 0 0 1-6.39 1.07 38.79 38.79 0 0 1-6.45-.06c-.61-.06-1.75-.18-3.17-.44s-2.65-.6-3.07-.72a28.38 28.38 0 0 1-2.92-1 23.56 23.56 0 0 1-2.79-1.28Z"/><path class="cls-39" d="M277.15 103c8.93-4.75 23.21-4.61 31.89.31s8.48 12.76-.45 17.5-23.21 4.62-31.89-.3-8.48-12.8.45-17.51Zm1.44.82c-8.11 4.32-8.29 11.43-.41 15.9s20.86 4.59 29 .28 8.29-11.43.41-15.9-20.89-4.63-29-.32Z"/><path class="cls-39" d="M315.42 111.93v4.85c0 3.22-2.3 6.43-6.84 8.84-6.83 3.63-16.78 4.41-25 2.37a27.81 27.81 0 0 1-6.93-2.67 18.17 18.17 0 0 1-3-2.1 8.79 8.79 0 0 1-3.39-6.56v-4.83a8.8 8.8 0 0 0 3.39 6.52 17.44 17.44 0 0 0 3 2.12 27.34 27.34 0 0 0 6.68 2.61c8.23 2.12 18.31 1.36 25.21-2.31 4.59-2.41 6.86-5.62 6.88-8.84Z"/><path class="cls-8" d="M283.61 128a27.81 27.81 0 0 1-6.93-2.67 18.17 18.17 0 0 1-3-2.1v-4.87a17.44 17.44 0 0 0 3 2.12 27.34 27.34 0 0 0 6.68 2.61c.11 1.66.19 3.35.25 4.91Z"/><path class="cls-15" d="M307.15 120a14 14 0 0 0 4.78-4 7.5 7.5 0 0 0 1.23-2.79 6.22 6.22 0 0 0-.14-3 9.68 9.68 0 0 0-3.7-4.84 17.54 17.54 0 0 0-2.71-1.63l-.71-.35-1.47-.61c-.25-.1-.51-.17-.76-.26a35.28 35.28 0 0 0-19.05-.83 25.49 25.49 0 0 0-6 2.15 29.58 29.58 0 0 1 12.4-3.17 34 34 0 0 1 12.76 1.65c.25.09.51.17.76.27l1.48.62c.24.11.48.25.72.37a16.76 16.76 0 0 1 2.72 1.66 9.82 9.82 0 0 1 3.73 4.93 6.35 6.35 0 0 1 .13 3.06A7.42 7.42 0 0 1 312 116a14 14 0 0 1-4.85 4ZM270.32 111.81a8 8 0 0 0 1.88 4.89 14.7 14.7 0 0 0 4.15 3.48 24.78 24.78 0 0 0 5 2.23l.66.21.67.19 1.35.35 2.05.41 2.07.3 1.39.13c.92.11 1.86.13 2.79.16a38.44 38.44 0 0 0 5.57-.3 32.93 32.93 0 0 0 10.64-3.09 28.44 28.44 0 0 1-5.14 2.1A36.22 36.22 0 0 1 298 124a37.43 37.43 0 0 1-5.6.34c-.93 0-1.87 0-2.8-.14l-1.4-.12-2.08-.3-2.06-.43s-1.8-.48-2-.55l-.67-.22a25.31 25.31 0 0 1-5.06-2.27 14.55 14.55 0 0 1-4.17-3.54 8 8 0 0 1-1.84-4.96Z"/><g id="Axo_base-9" data-name="Axo base"><path class="cls-4" d="M245.33 27.59c-.33-.18-.47-.75-.24-1.91.19-.93 2.52-1.94 3.12-1.68.23.12 0 .53-.28 1.62-.27.93-1.87 2.38-2.6 1.97Z"/><path class="cls-37" d="M245.62 27.83a.76.76 0 0 1-.38-.09c-.45-.24-.56-.95-.33-2.09.14-.67 1.1-1.21 1.51-1.41a2.92 2.92 0 0 1 1.86-.4c.33.18.23.51 0 1.24l-.18.58a3.9 3.9 0 0 1-2 2.07 1.34 1.34 0 0 1-.48.1Zm-.2-.39a.7.7 0 0 0 .55 0 3.58 3.58 0 0 0 1.78-1.84l.18-.59a2.26 2.26 0 0 0 .19-.83 2.75 2.75 0 0 0-1.53.4c-.74.36-1.25.81-1.32 1.16-.27 1.31.01 1.63.15 1.7Z"/></g><g id="Axo_base-10" data-name="Axo base"><path class="cls-4" d="M249.72 25a.47.47 0 0 1-.21-.23c-.33-.76-.53-.94-.27-1.33.53-.8 2.48-2.13 3-1.85a.17.17 0 0 1 .1.14c.66 2.59-1.81 3.69-2.62 3.27Z"/><path class="cls-37" d="M250.16 25.25a1.16 1.16 0 0 1-.54-.12.64.64 0 0 1-.28-.31l-.18-.4c-.21-.45-.33-.7-.07-1.09.51-.79 2.57-2.27 3.24-1.92a.42.42 0 0 1 .19.26 2.74 2.74 0 0 1-1 3.1 2.45 2.45 0 0 1-1.36.48Zm-.35-.42a1.65 1.65 0 0 0 1.49-.34 2.41 2.41 0 0 0 .87-2.74c-.36-.22-2.22.93-2.77 1.76-.15.23-.12.32.09.77l.19.41a.25.25 0 0 0 .13.14Z"/></g><path class="cls-4" d="M248.28 24.08a1.83 1.83 0 0 1 .37-.34.47.47 0 0 1 .47 0Z"/><path class="cls-37" d="m248.44 24.17-.31-.19a1.92 1.92 0 0 1 .41-.38.64.64 0 0 1 .67-.06l-.18.3a.28.28 0 0 0-.27 0 1.35 1.35 0 0 0-.32.33ZM240.65 24.68l4.32 1.96-.12-.7-4.32-1.74.12.48z"/><path class="cls-41" d="m269.22 172.13-.86-3.42a44.6 44.6 0 0 1-.31-4.5c.14-.19 1.78-2.44 2.06-3s.48-.07.51.73a8.27 8.27 0 0 1-.89 2.61l.52 2.73s1.71-.76 2.19-.95 1.44-1.52 1.78-1.67.72-2.07.72-2.07a7.54 7.54 0 0 1-1.44-.73c-.41-.32-.92-.61-.92-1.09s-.28-1.34.17-1.2.79.73 1.58.77 1.88 0 2.09.54a27 27 0 0 1 .2 3.71s.79-3.34 1.44-3 .86.8.86 2.14-.58 2.18-.38 2.69.72.62.34 1.57-.51 1-.44 1.3.1.4-.66 1.31a11.4 11.4 0 0 1-1.92 2c-.89.72-2.7 2.58-2.7 2.58Z"/><path class="cls-59" d="M230.1 256s-5.48 4.36-7 5.53-6.58 3.7-3.84 7c1.74 2.08 8.09 1.17 9.19-1.16s3.15-3 5.07-3.56a7.35 7.35 0 0 0 3.7-2.33c.55-.72-1-6.61-1-6.61Z"/><path class="cls-60" d="M230.51 253.35s-4.11 5.38-7.4 7.13c-1.67.88-5.76 5.08-3.84 7s8.09 1.17 9.19-1.16a8 8 0 0 1 5.07-4.21 7.42 7.42 0 0 0 3.7-2.33c.55-.73-1-6-1-6Z"/><path class="cls-59" d="M223.11 197.68s-1.1 16.71.55 24.42 2.88 12.79 3.43 15.41 1.23 18.6 1.23 18.6 3.84 1.89 5.9 1a10.65 10.65 0 0 0 3.29-2.18s-.14-9.45.27-12.94-1.78-10.15-1.78-10.15l-1.37-28.64ZM251.77 270.51s-1 4.5-2.47 6.1-4.11 5.23-2.47 6.4a6.49 6.49 0 0 0 6.86-.15c2.19-1.45 3-4.5 3.84-5.81s2.05-3.93 1-6.11-.41-1.89-1.1-2.18-5.66 1.75-5.66 1.75Z"/><path class="cls-60" d="M251.77 269.2s-1 4.5-2.47 6.1-4.11 5.24-2.47 6.4a6.49 6.49 0 0 0 6.86-.15c2.19-1.45 2.47-4.94 3.29-6.25s2.6-3.49 1.51-5.67-.41-1.89-1.1-2.18-5.62 1.75-5.62 1.75Z"/><path class="cls-59" d="M230 212.94c1.62 5.86 6.31 18.61 8.92 22.53s8.09 12.94 8.91 17.74 2.47 17.73 2.47 17.73 5.76 2.62 7 .58 1.65-2.61 1.65-2.61-1-20.21-2.74-23-4.13-7.9-4.8-7.85c-.41 0-3.16-28.64-4.25-33.14a33.53 33.53 0 0 0-4.26-9.16l-15.63 4.36s1.83 9.67 2.73 12.82Z"/><path class="cls-61" d="M228.27 161.25c-.41 0-5.07.58-6.86 3.49s-2.19 18.17-2.33 19.77-.27 2.62-.27 2.62l-17.5 16.36s-.83 4.51 3.7 4.36 21.34-15.49 21.34-15.49 3.43-20.21 3.29-20.93-1.37-10.18-1.37-10.18Z"/><path class="cls-41" d="M190.51 207.69v.82l2 .82a1.49 1.49 0 0 0 .15.57 3.08 3.08 0 0 0 .74.33l.15.86s1.32 1.89 2.86 1.85 3.79-1.77 4.29-2.22 1.7-3.81 1.7-3.81l-3.7-1.91-4.95 2.41s-3.28.04-3.24.28Z"/><path style="fill:#0032ff" d="m214.45 208.7-13.28 7.69-16.23-14.08.01-.76 29.55 6.42-.05.73z"/><path style="fill:#7f86cb" d="m214.54 207.93-13.29 7.69-16.23-14.07 13.28-7.69 16.24 14.07z"/><path class="cls-15" d="m185.63 201.61 12.64-7.32 15.66 13.58-12.64 7.32-15.66-13.58z"/><path style="fill:#ffcd00" d="m190.84 199.75 4.75-2.92-.46-1.26-6.09 3.65 1.8.53z"/><path class="cls-41" d="m190.28 207.32-.08-1s1-1 1.51-1.07.61.09.88 0a.58.58 0 0 1 .7.62 1.48 1.48 0 0 1-.93 1 1.28 1.28 0 0 0-.62.37v.94s-.88.78-1.27.37a1.45 1.45 0 0 1-.19-1.23Z"/><path class="cls-41" d="m190.92 208-.1-1.22s1.3-1.22 1.88-1.27.77.1 1.11-.05a.71.71 0 0 1 .87.73 1.85 1.85 0 0 1-1.16 1.23 1.52 1.52 0 0 0-.77.44V209s-1.11.93-1.59.44a1.7 1.7 0 0 1-.24-1.44Z"/><path class="cls-41" d="m191.85 208.93-.1-1.23s1.3-1.22 1.88-1.27.77.1 1.11-.05a.71.71 0 0 1 .86.74 1.8 1.8 0 0 1-1.15 1.22 1.61 1.61 0 0 0-.77.44v1.12s-1.11.93-1.59.44a1.64 1.64 0 0 1-.24-1.41Z"/><path class="cls-41" d="m193.1 209.78-.07-1s1-1 1.46-1.05.6.08.86 0a.56.56 0 0 1 .68.6 1.51 1.51 0 0 1-.9 1 1.24 1.24 0 0 0-.6.36v.93s-.86.77-1.24.36a1.49 1.49 0 0 1-.19-1.2Z"/><path d="M232.79 159.36s-6.71 2.18-7 3-4.11 8.52-1.87 16.66c1.92 7-.82 11.92-1.23 14.1s-1.4 37.06-1.4 37.06 8.91 7.41 17.69 7.41a27.25 27.25 0 0 0 14.84-4.43s-6.31-38.59-1.84-50.74c1.65-4.47 2.33-19 .82-20.49s-13.71-2.91-13.71-2.91Z" style="fill:#9fb1e8"/><path class="cls-61" d="M247.64 171.18c-1 15.1 11.21 20 13.13 19.72s4.8-1.89 4.25-4.5-6.31-12.79-6.45-14.39-2.46-9.31-5.76-10-4.97 6.26-5.17 9.17Z"/><path class="cls-61" d="M259 182c1-1.38 3.42-2 5.48-3.78a26.34 26.34 0 0 0 3.84-5c.48-.72.82-1.21 1-1.21.41 0 4 2 4.11 3.34s-6.72 11.19-9.32 13.66-9.66-.66-5.11-7.01Z"/><path d="M232 151.87a57.55 57.55 0 0 1-.55 8.94c-.61 3 2.18 13.65 2.18 13.65l8.16-14.87-1.29-3.65Z" style="fill:#00788b"/><path class="cls-41" d="M232 151.87a57.55 57.55 0 0 1-.55 8.94c-.61 3 2.43 4.94 4.6 4.87 4.23-.13 5.74-6.09 5.74-6.09l-1.29-3.65Z"/><path class="cls-59" d="m241.47 148.75 1.51.18a22.64 22.64 0 0 0-.14-6.07c-.55-2.54-4.29-5.12-7.17-4.58s-4.49 2.76-5.28 5.49a8.61 8.61 0 0 0 .52 5.71c.2.36 5.21 1.49 5.21 1.49Z"/><path d="M242.46 149.51s.82-3.12 1.3-2.72-.24 3.56-.41 4a14.62 14.62 0 0 1-.82 1.49Z" style="fill:#ffce72"/><path class="cls-40" d="M241.68 143.34a.37.37 0 0 1 .62.19 16.67 16.67 0 0 1 .57 3.69c0 2 .38 3.89 0 4.91s-.89 3.89-1.34 4.5-1.54 2.62-2.78 2.84-3.84-1.71-4.59-2.54-2.23-3.31-2.54-3.68a1.2 1.2 0 0 1-.13-1 5.59 5.59 0 0 1-.79.15 7 7 0 0 1-1.61-3.64c0-1.34 0-1.81.48-1.63a13.26 13.26 0 0 1 1.81 1.2s.28 1.27.76 1 1-2 1.16-3 .52-3.2 1.72-3.23 3.6 1.89 4.93 1.31a5.68 5.68 0 0 0 1.73-1.07Z"/><path class="cls-58" d="M231.64 159s-1.8.49-2.26 1.69-1.64 4.63-1.64 4.63l2.21-.87-1.6 3.22s2.32 2.45 2.88 3.27 2.32 3.43 2.32 3.43-1.28-5.82-1.7-9.16a28.86 28.86 0 0 1-.21-6.21ZM241.31 158.05a5.54 5.54 0 0 1-1.16 4.27 71 71 0 0 0-4.6 6.63 41.26 41.26 0 0 0-2 5.56l7.4-6.87-.61-1.42 3.49-1.25s-.09-4-.67-5.12a9.68 9.68 0 0 0-1.85-1.8Z"/><path d="M273 164.14a1.49 1.49 0 0 1-.14.67 1.39 1.39 0 0 1-1.24.8 1.43 1.43 0 0 1-1.38-1.47v-13l2.76.07Z" style="fill:#969cde"/><path class="cls-47" d="M272.84 164.07a1.61 1.61 0 0 1-.21.75c-.77 0-.91-.63-.91-1.44V151.2h1.14Z"/><path class="cls-69" d="M273 151.19c0 .47-.62.84-1.38.84s-1.37-.37-1.37-.84v-1.67H273Z"/><path class="cls-69" d="M273 149.52c0 .47-.62.85-1.38.85s-1.37-.38-1.37-.85.61-.84 1.37-.84 1.38.38 1.38.84Z"/><path d="M270.19 164.05Z" style="fill:#4dcb95"/><path class="cls-15" d="M270.57 152.12v11.79s-.09.5.17.5.21-.56.21-.56v-11.63a.52.52 0 0 1-.38-.1Z"/><path class="cls-40" d="M275.8 165.5a5.42 5.42 0 0 0 2.26-1.42c.82-1 .82-1.42.72-1.65s-.32-1-1-.86-1.35 2.22-1.92 2.75-1.16 1.23-.06 1.18ZM278.46 166.35c-.08 0-2-.71-2.09-.51s-2.27 2.46-2 2.95.94.12 1.28-.13.77-1.06 1.68-.87 1.18.81 1.49.51.82-1.13-.36-1.95Z"/><path class="cls-40" d="m278 168.85-1.64-.63c-.16-.06-1.44.74-2 .92s-.63.55-.14.78 2-.32 2.11-.18.83 1.09 1.43 1 1.08-1.27.24-1.89Z"/></g></g></svg>