<svg xmlns="http://www.w3.org/2000/svg" viewBox="0 0 578.17 395.95"><defs><clipPath id="path-item-1"><path style="fill:none" d="m283.56 13.8 44.95 24.89v99.56l-44.95-24.89V13.8z"/></clipPath><style>.cls-2{isolation:isolate}.cls-7{fill:#878787}.cls-8{fill:#dadada}.cls-9{fill:#c6c6c6}.cls-10{fill:#9d9d9c}.cls-11{fill:#3c3c3b}.cls-13{fill:#e30613}.cls-14{fill:#bcbcbc}.cls-15{fill:#757575}.cls-16{fill:#ededed}.cls-17{fill:#fff}.cls-18{fill:#575756}.cls-19{fill:#606060}.cls-20,.cls-33{fill:#1d1d1b}.cls-20{opacity:.2}.cls-21{fill:#a8a8a8}.cls-22{fill:#e05a00}.cls-23{fill:#ff8521}.cls-24{fill:#565656}.cls-25{fill:#616060}.cls-26{fill:#3c3c3c}.cls-27{fill:#706f6f}.cls-28,.cls-29{fill:#fcaf75}.cls-29,.cls-32{mix-blend-mode:multiply}.cls-29{opacity:.3}.cls-30,.cls-32{fill:#21758a}.cls-32{opacity:.5}.cls-35{opacity:.15}.cls-36{fill:#ffbb7d}.cls-37{opacity:.1}.cls-38{fill:#b54825}.cls-39{fill:#f66232}.cls-42{fill:#b1989b}.cls-43{fill:#d4c9c9}.cls-44{fill:#f9f3f4}.cls-45{fill:#9c8383}.cls-46{fill:#3c3f40}.cls-47{fill:#b5b5b5}.cls-48{fill:#736b6b}.cls-49{fill:#456e7b}.cls-50{fill:#bcc4c6}.cls-51{fill:#dae0e2}.cls-52{fill:#a4a4a4}.cls-53{fill:#8a7578}.cls-54{fill:#6e595b}.cls-55{fill:#dcbac0}.cls-56{fill:#574733}.cls-57{fill:#009304}.cls-58{fill:#00f500}.cls-59{fill:#c10202}.cls-60{fill:#ff0408}.cls-61{fill:#86676a}.cls-62{fill:#402317}.cls-63{fill:#b09b9f}</style></defs><g class="cls-2"><g id="Слой_2" data-name="Слой 2"><g id="основа"><path style="fill:#4f4f4f" d="M0 207.27 289.08 29.42l289.09 177.85-289.09 177.85L0 207.27z"/><path style="fill:#292929" d="M288.74 373.71 577.9 206.44l-.04 22.24L288.7 395.95l.04-22.24z"/><path style="fill:#454545" d="M288.74 373.71.14 207.4.1 229.64l288.6 166.31.04-22.24z"/></g><g id="Люди"><path style="fill:#755f6b" d="M393.96 107.56 120.76 275.6l62.45 38.4 283.55-174.78L405.01 101l-11.05 6.56z" id="Дорога"/><path class="cls-7" d="M353.76 24.74v99.56l-25.25 13.95V38.69l25.25-13.95z"/><path class="cls-8" d="m283.28 13.95 44.95 24.89v99.55l-44.95-24.89V13.95z"/><path class="cls-9" d="m353.76 24.74-25.25 13.95-19.69-10.77-25.26-13.82-.28-.15.28-.15L308.54 0l.28.15 44.94 24.59z"/><path class="cls-10" d="M328.51 110.14v27.76l-44.95-24.58 25.26-13.95 19.69 10.77z"/><path class="cls-11" d="M345.54 116.69c.42-.24.76 0 .76.42a1.6 1.6 0 0 1-.76 1.26L337 123.1c-.42.23-.76 0-.76-.42a1.6 1.6 0 0 1 .76-1.27ZM345.54 113.91c.42-.23.76 0 .76.43a1.6 1.6 0 0 1-.76 1.26l-8.54 4.72c-.42.24-.76.05-.76-.42a1.6 1.6 0 0 1 .76-1.26ZM345.54 111.14c.42-.23.76 0 .76.42a1.62 1.62 0 0 1-.76 1.27l-8.54 4.72c-.42.24-.76 0-.76-.42a1.6 1.6 0 0 1 .76-1.26ZM345.54 108.37c.42-.23.76 0 .76.42a1.62 1.62 0 0 1-.76 1.27l-8.54 4.72c-.42.23-.76 0-.76-.42a1.6 1.6 0 0 1 .76-1.26ZM345.54 105.6c.42-.23.76 0 .76.42a1.58 1.58 0 0 1-.76 1.26L337 112c-.42.23-.76 0-.76-.42a1.58 1.58 0 0 1 .76-1.26ZM345.54 102.83c.42-.23.76 0 .76.42a1.58 1.58 0 0 1-.76 1.26l-8.54 4.73c-.42.23-.76 0-.76-.42a1.58 1.58 0 0 1 .76-1.26ZM345.54 100.06c.42-.23.76 0 .76.42a1.6 1.6 0 0 1-.76 1.26l-8.54 4.73c-.42.23-.76 0-.76-.42a1.62 1.62 0 0 1 .76-1.27Z"/><path class="cls-7" d="M308.54 27.77v71.42l-25.26 13.95V13.95l25.26 13.82z"/><path class="cls-10" d="M283.28 13.95 232.7 18.1v99.55l50.58-4.15V13.95z"/><path class="cls-9" d="M328.51 110.14v27.76l-44.95-24.58 25.26-13.95 19.69 10.77z"/><g style="clip-path:url(#clip-path)"><path class="cls-13" d="M328.85 38.55h.84v33.04h-.84zM327.21 114.8a1.6 1.6 0 0 0 .79-.2 1.5 1.5 0 0 0 .81-1.33V89.12H328v24.15a.7.7 0 0 1-.38.63.81.81 0 0 1-.77 0l-17.31-9.84a2.52 2.52 0 0 1-1.3-2.18v-7.37h-.84v7.37a3.33 3.33 0 0 0 1.7 2.87l17.32 9.84a1.66 1.66 0 0 0 .79.21Z"/><path class="cls-13" d="M325.19 111.36a1.64 1.64 0 0 0 .75-.19 1.42 1.42 0 0 0 .75-1.25V85.58h-.84v24.34a.61.61 0 0 1-.33.55.63.63 0 0 1-.65 0l-8.87-4.93a1.84 1.84 0 0 1-1-1.6l.1-10.15h-.84l-.09 10.15a2.59 2.59 0 0 0 1.37 2.3l8.92 4.93a1.52 1.52 0 0 0 .73.19Z"/><path class="cls-13" d="M323 107.72a1.61 1.61 0 0 0 .79-.21 1.49 1.49 0 0 0 .81-1.33V82h-.84v24.14a.74.74 0 0 1-.38.64.78.78 0 0 1-.77 0l-18.98-10.72-.43.69 18.95 10.75a1.68 1.68 0 0 0 .85.22ZM325.53 36.91h.84v33.04h-.84zM321.25 34.9h.84v33.04h-.84zM317.77 33.86h.84V66.9h-.84zM314.63 32.27h.84v33.04h-.84z"/><g class="cls-2"><path class="cls-8" d="m308.52 81.35-8.84-4.93.06 20.58 8.84 4.92-.06-20.57z"/><path class="cls-14" d="m306.85 82.27-5.49-3.05.05 16.85 5.49 3.06-.05-16.86zM312.16 79.33l-8.83-4.92-3.65 2.01 8.84 4.93 3.64-2.02z"/><path class="cls-15" d="m308.52 81.35.06 20.57 3.64-2.02-.06-20.57-3.64 2.02z"/></g><g class="cls-2"><path class="cls-16" d="m306.79 83.68-6.4-3.56.01.88 6.39 3.57v-.89z"/><path class="cls-17" d="m307.22 83.44-6.4-3.56-.43.24 6.4 3.56.43-.24z"/><path class="cls-15" d="M306.79 83.68v.89l.43-.24v-.89l-.43.24z"/></g><g class="cls-2"><path class="cls-16" d="m306.79 85.82-6.4-3.56.01.88 6.39 3.56v-.88z"/><path class="cls-17" d="m307.22 85.58-6.4-3.56-.43.24 6.4 3.56.43-.24z"/><path class="cls-15" d="M306.79 85.82v.88l.43-.23v-.89l-.43.24z"/></g><g class="cls-2"><path class="cls-16" d="m306.79 87.96-6.4-3.57.01.89 6.39 3.56v-.88z"/><path class="cls-17" d="m307.22 87.72-6.4-3.56-.43.23 6.4 3.57.43-.24z"/><path class="cls-15" d="M306.79 87.96v.88l.43-.23v-.89l-.43.24z"/></g><g class="cls-2"><path class="cls-16" d="m306.79 90.09-6.4-3.56.01.89 6.39 3.56v-.89z"/><path class="cls-17" d="m307.22 89.86-6.4-3.57-.43.24 6.4 3.56.43-.23z"/><path class="cls-15" d="M306.79 90.09v.89l.43-.24v-.88l-.43.23z"/></g><g class="cls-2"><path class="cls-16" d="m306.79 92.23-6.4-3.56.01.89 6.39 3.56v-.89z"/><path class="cls-17" d="m307.22 92-6.4-3.57-.43.24 6.4 3.56.43-.23z"/><path class="cls-15" d="M306.79 92.23v.89l.43-.24V92l-.43.23z"/></g><g class="cls-2"><path class="cls-16" d="m306.79 94.37-6.4-3.56.01.88 6.39 3.57v-.89z"/><path class="cls-17" d="m307.22 94.13-6.4-3.56-.43.24 6.4 3.56.43-.24z"/><path class="cls-15" d="M306.79 94.37v.89l.43-.24v-.89l-.43.24z"/></g><g class="cls-2"><path class="cls-16" d="m306.79 96.51-6.4-3.57.01.89 6.39 3.56v-.88z"/><path class="cls-17" d="m307.22 96.27-6.4-3.56-.43.23 6.4 3.57.43-.24z"/><path class="cls-15" d="M306.79 96.51v.88l.43-.23v-.89l-.43.24z"/></g><g class="cls-2"><path class="cls-16" d="m306.79 98.65-6.4-3.57.01.89 6.39 3.56v-.88z"/><path class="cls-17" d="m307.22 98.41-6.4-3.56-.43.23 6.4 3.57.43-.24z"/><path class="cls-15" d="M306.79 98.65v.88l.43-.23v-.89l-.43.24z"/></g><g class="cls-2"><path class="cls-8" d="m308.8 39.03-6.91-3.86.04 16.11 6.92 3.85-.05-16.1z"/><path class="cls-14" d="m307.49 39.75-4.29-2.39.04 13.19 4.29 2.4-.04-13.2zM311.65 37.45l-6.91-3.86-2.85 1.58 6.91 3.86 2.85-1.58z"/><path class="cls-15" d="m308.8 39.03.05 16.1 2.85-1.58-.05-16.1-2.85 1.58z"/></g><path class="cls-11" d="m307.74 53 .47-.26a.81.81 0 0 0 .36-.77 2.6 2.6 0 0 0-1.24-1.97.9.9 0 0 0-.87-.08l-.47.26Z"/><path class="cls-10" d="M305.63 50.9c0-.76.55-1.07 1.24-.69a2.62 2.62 0 0 1 1.24 2.06c0 .76-.56 1.07-1.24.69a2.6 2.6 0 0 1-1.24-2.06Z"/><path class="cls-18" d="M305.63 50.9c0-.76.55-1.07 1.24-.69a2.62 2.62 0 0 1 1.24 2.06c0 .76-.56 1.07-1.24.69a2.6 2.6 0 0 1-1.24-2.06Z"/><g class="cls-2"><path class="cls-18" d="m307.93 51.85-.01.53-1.2.3v-.52l1.21-.31z"/><path class="cls-19" d="M306.72 52.16v.52l-1.35-.75v-.52l1.35.75z"/><path class="cls-11" d="m305.37 51.41.54-.67 2.02 1.11-1.21.31-1.35-.75z"/></g><path class="cls-11" d="m302.78 48.46.47-.26a.92.92 0 0 1 .88.09 2.62 2.62 0 0 1 1.24 2.06.82.82 0 0 1-.37.77l-.47.26Z"/><path class="cls-10" d="M303.66 51.29c.68.38 1.24.08 1.24-.68a2.62 2.62 0 0 0-1.24-2.06c-.69-.38-1.24-.07-1.24.68a2.6 2.6 0 0 0 1.24 2.06Z"/><path class="cls-18" d="M303.66 51.29c.68.38 1.24.08 1.24-.68a2.62 2.62 0 0 0-1.24-2.06c-.69-.38-1.24-.07-1.24.68a2.6 2.6 0 0 0 1.24 2.06Z"/><g class="cls-2"><path class="cls-18" d="m303.94 48.91-.47-.26-.87.84.47.27.87-.85z"/><path class="cls-19" d="m303.07 49.76-.47-.27v1.5l.47.26v-1.49z"/><path class="cls-11" d="m303.07 51.25.87-.11v-2.23l-.87.85v1.49z"/></g><path class="cls-11" d="m307.74 49.3.47-.26a.81.81 0 0 0 .36-.77 2.6 2.6 0 0 0-1.24-2.06.87.87 0 0 0-.87-.08l-.47.26Z"/><path class="cls-10" d="M305.63 47.16c0-.76.55-1.07 1.24-.69a2.62 2.62 0 0 1 1.24 2.06c0 .76-.56 1.07-1.24.69a2.6 2.6 0 0 1-1.24-2.06Z"/><path class="cls-18" d="M305.63 47.16c0-.76.55-1.07 1.24-.69a2.62 2.62 0 0 1 1.24 2.06c0 .76-.56 1.07-1.24.69a2.6 2.6 0 0 1-1.24-2.06Z"/><g class="cls-2"><path class="cls-18" d="m307.93 48.11-.01.53-1.2.3v-.53l1.21-.3z"/><path class="cls-19" d="M306.72 48.41v.53l-1.35-.75v-.52l1.35.74z"/><path class="cls-11" d="m305.37 47.67.54-.67 2.02 1.11-1.21.3-1.35-.74z"/></g><path class="cls-11" d="m302.78 44.72.47-.26a.92.92 0 0 1 .88.09 2.61 2.61 0 0 1 1.24 2.06.8.8 0 0 1-.37.76l-.47.26Z"/><path class="cls-10" d="M303.66 47.55c.68.38 1.24.07 1.24-.69a2.6 2.6 0 0 0-1.24-2c-.69-.38-1.24-.08-1.24.68a2.6 2.6 0 0 0 1.24 2.01Z"/><path class="cls-18" d="M303.66 47.55c.68.38 1.24.07 1.24-.69a2.6 2.6 0 0 0-1.24-2c-.69-.38-1.24-.08-1.24.68a2.6 2.6 0 0 0 1.24 2.01Z"/><g class="cls-2"><path class="cls-18" d="m303.94 45.16-.47-.26-.87.85.47.26.87-.85z"/><path class="cls-19" d="m303.07 46.01-.47-.26v1.5l.47.26v-1.5z"/><path class="cls-11" d="m303.07 47.51.87-.11v-2.24l-.87.85v1.5z"/></g><path class="cls-11" d="m307.61 45.46.47-.26a.8.8 0 0 0 .37-.76 2.61 2.61 0 0 0-1.24-2.06.92.92 0 0 0-.88-.09l-.47.26Z"/><path class="cls-10" d="M305.5 43.32c0-.76.55-1.06 1.24-.68A2.61 2.61 0 0 1 308 44.7c0 .75-.56 1.06-1.24.68a2.6 2.6 0 0 1-1.26-2.06Z"/><path class="cls-18" d="M305.5 43.32c0-.76.55-1.06 1.24-.68A2.61 2.61 0 0 1 308 44.7c0 .75-.56 1.06-1.24.68a2.6 2.6 0 0 1-1.26-2.06Z"/><g class="cls-2"><path class="cls-18" d="M307.8 44.28v.52l-1.21.3v-.52l1.21-.3z"/><path class="cls-19" d="M306.59 44.58v.52l-1.35-.75v-.52l1.35.75z"/><path class="cls-11" d="m305.24 43.83.54-.67 2.02 1.12-1.21.3-1.35-.75z"/></g><path class="cls-11" d="m302.65 40.89.47-.26a.89.89 0 0 1 .88.08 2.62 2.62 0 0 1 1.24 2.06.83.83 0 0 1-.36.77l-.47.26Z"/><path class="cls-10" d="M303.53 43.72c.68.38 1.24.07 1.24-.69a2.62 2.62 0 0 0-1.24-2.03c-.69-.38-1.24-.07-1.24.69a2.6 2.6 0 0 0 1.24 2.03Z"/><path class="cls-18" d="M303.53 43.72c.68.38 1.24.07 1.24-.69a2.62 2.62 0 0 0-1.24-2.03c-.69-.38-1.24-.07-1.24.69a2.6 2.6 0 0 0 1.24 2.03Z"/><g class="cls-2"><path class="cls-18" d="m303.82 41.33-.48-.26-.87.85.47.26.88-.85z"/><path class="cls-19" d="m302.94 42.18-.47-.26v1.5l.47.26v-1.5z"/><path class="cls-11" d="m302.94 43.68.88-.12v-2.23l-.88.85v1.5z"/></g><path class="cls-11" d="m307.61 41.72.47-.26a.81.81 0 0 0 .37-.77 2.62 2.62 0 0 0-1.24-2.06.92.92 0 0 0-.88-.08l-.47.26Z"/><path class="cls-10" d="M305.5 39.58c0-.76.55-1.07 1.24-.69A2.62 2.62 0 0 1 308 41c0 .76-.56 1.07-1.24.69a2.6 2.6 0 0 1-1.26-2.11Z"/><path class="cls-18" d="M305.5 39.58c0-.76.55-1.07 1.24-.69A2.62 2.62 0 0 1 308 41c0 .76-.56 1.07-1.24.69a2.6 2.6 0 0 1-1.26-2.11Z"/><g class="cls-2"><path class="cls-18" d="M307.8 40.53v.53l-1.21.3v-.52l1.21-.31z"/><path class="cls-19" d="M306.59 40.84v.52l-1.35-.75v-.52l1.35.75z"/><path class="cls-11" d="m305.24 40.09.54-.67 2.02 1.11-1.21.31-1.35-.75z"/></g><path class="cls-11" d="m302.65 37.14.47-.25a.89.89 0 0 1 .88.11 2.62 2.62 0 0 1 1.24 2 .84.84 0 0 1-.36.77l-.47.26Z"/><path class="cls-10" d="M303.53 40c.68.38 1.24.08 1.24-.68a2.62 2.62 0 0 0-1.24-2.06c-.69-.38-1.24-.07-1.24.68a2.6 2.6 0 0 0 1.24 2.06Z"/><path class="cls-18" d="M303.53 40c.68.38 1.24.08 1.24-.68a2.62 2.62 0 0 0-1.24-2.06c-.69-.38-1.24-.07-1.24.68a2.6 2.6 0 0 0 1.24 2.06Z"/><g class="cls-2"><path class="cls-18" d="m303.82 37.59-.48-.26-.87.84.47.27.88-.85z"/><path class="cls-19" d="m302.94 38.44-.47-.27v1.5l.47.26v-1.49z"/><path class="cls-11" d="m302.94 39.93.88-.11v-2.23l-.88.85v1.49z"/></g><path class="cls-20" d="m301.66 55.45 2.14 1.18V59l-.82.02-1.63-1.03-.11-1.87.42-.67z"/><path class="cls-17" d="m301.24 56.12 1.74.97v1.93l-1.74-.97v-1.93z"/><path class="cls-20" d="m301.66 55.45 2.14 1.18-.82.46-1.74-.97.42-.67zM304.4 56.97l2.15 1.19v2.37l-.82.01-1.63-1.03-.12-1.87.42-.67z"/><path class="cls-17" d="m303.98 57.64 1.75.97v1.93l-1.75-.97v-1.93z"/><path class="cls-20" d="m304.4 56.97 2.15 1.19-.82.45-1.75-.97.42-.67zM307.21 58.54l2.12 1.17v2.35l-.81.01-1.62-1.02-.11-1.85.42-.66z"/><path class="cls-17" d="m306.79 59.2 1.73.96v1.91l-1.73-.95V59.2z"/><path class="cls-20" d="m307.21 58.54 2.12 1.17-.81.45-1.73-.96.42-.66zM301.66 51.9l2.14 1.19v2.37l-.82.01-1.63-1.02-.11-1.87.42-.68z"/><path class="cls-17" d="m301.24 52.58 1.74.96v1.93l-1.74-.96v-1.93z"/><path class="cls-20" d="m301.66 51.9 2.14 1.19-.82.45-1.74-.96.42-.68zM304.4 53.43l2.15 1.18v2.37l-.82.02-1.63-1.03-.12-1.87.42-.67z"/><path class="cls-17" d="m303.98 54.1 1.75.97V57l-1.75-.97V54.1z"/><path class="cls-20" d="m304.4 53.43 2.15 1.18-.82.45-1.75-.96.42-.67zM307.21 54.99l2.12 1.18v2.35l-.81.01-1.62-1.02-.11-1.85.42-.67z"/><path class="cls-17" d="m306.79 55.66 1.73.96v1.91l-1.73-.96v-1.91z"/><path class="cls-20" d="m307.21 54.99 2.12 1.18-.81.45-1.73-.96.42-.67z"/><g class="cls-2"><path class="cls-21" d="m313.53 83.97-2.92-1.63.04 12.8 2.92 1.63-.04-12.8z"/><path class="cls-11" d="m312.71 87.49-1.27-.7.04 4.44 1.26.7-.03-4.44z"/><path class="cls-14" d="m316.08 82.55-2.92-1.63-2.55 1.42 2.92 1.63 2.55-1.42z"/><path class="cls-15" d="m313.53 83.97.04 12.8 2.55-1.42-.04-12.8-2.55 1.42z"/></g><path class="cls-17" d="M311.5 84.31a1.26 1.26 0 0 0 .59 1c.33.18.59 0 .59-.32a1.23 1.23 0 0 0-.59-1c-.32-.19-.59.01-.59.32ZM311.5 94.18a1.26 1.26 0 0 0 .59 1c.33.18.59 0 .59-.32a1.23 1.23 0 0 0-.59-1c-.32-.18-.59-.03-.59.32Z"/><g class="cls-2"><path class="cls-7" d="m310.49 91.16.76-1.41a.87.87 0 0 1 .09-.81 1.25 1.25 0 0 1 .46-.5l.93.52a1.25 1.25 0 0 0-.46.5.87.87 0 0 0-.09.81l-.76 1.41c-.1.16-.09.33 0 .38l-.93-.52c-.09-.05-.1-.22 0-.38Z"/><path class="cls-17" d="M312.73 89a1.25 1.25 0 0 0-.46.5.87.87 0 0 0-.09.81l-.76 1.41c-.1.17-.08.35 0 .39a.2.2 0 0 0 .18 0 .58.58 0 0 0 .2-.21l.76-1.4.15-.06Z"/></g><g class="cls-2"><path class="cls-21" d="m317.23 85.99-2.92-1.63.04 12.8 2.92 1.63-.04-12.8z"/><path class="cls-11" d="m316.4 89.51-1.26-.7.04 4.44 1.26.7-.04-4.44z"/><path class="cls-14" d="m319.78 84.58-2.92-1.63-2.55 1.41 2.92 1.63 2.55-1.41z"/><path class="cls-15" d="m317.23 85.99.04 12.8 2.55-1.41-.04-12.8-2.55 1.41z"/></g><path class="cls-17" d="M315.2 86.33a1.21 1.21 0 0 0 .59 1c.32.18.59 0 .59-.32a1.26 1.26 0 0 0-.59-1c-.33-.19-.59-.01-.59.32ZM315.2 96.21a1.21 1.21 0 0 0 .59 1c.32.18.59 0 .59-.32a1.26 1.26 0 0 0-.59-1c-.33-.19-.59-.04-.59.32Z"/><g class="cls-2"><path class="cls-7" d="m314.18 93.18.76-1.4A1 1 0 0 1 315 91a1.42 1.42 0 0 1 .47-.5l.93.52a1.32 1.32 0 0 0-.46.5.91.91 0 0 0-.1.81l-.76 1.41c-.09.16-.08.33 0 .38l-.93-.51c-.05-.1-.06-.26.03-.43Z"/><path class="cls-17" d="M316.43 91a1.32 1.32 0 0 0-.46.5.91.91 0 0 0-.1.81l-.76 1.41c-.09.17-.08.35 0 .39a.21.21 0 0 0 .17 0 .51.51 0 0 0 .2-.21l.76-1.41a.44.44 0 0 0 .16-.06Z"/></g><g class="cls-2"><path class="cls-21" d="m320.93 88.01-2.92-1.63.03 12.8 2.93 1.63-.04-12.8z"/><path class="cls-11" d="m320.1 91.53-1.26-.7.03 4.44 1.26.71-.03-4.45z"/><path class="cls-14" d="m323.48 86.6-2.92-1.63-2.55 1.41 2.92 1.63 2.55-1.41z"/><path class="cls-15" d="m320.93 88.01.04 12.8 2.55-1.41-.04-12.8-2.55 1.41z"/></g><path class="cls-17" d="M318.9 88.35a1.23 1.23 0 0 0 .59 1c.32.18.58 0 .58-.33a1.21 1.21 0 0 0-.58-1c-.33-.17-.59-.02-.59.33ZM318.9 98.23a1.23 1.23 0 0 0 .59 1c.32.18.58 0 .58-.33a1.25 1.25 0 0 0-.58-1c-.33-.18-.59-.03-.59.33Z"/><g class="cls-2"><path class="cls-22" d="m317.88 95.2.76-1.4a.92.92 0 0 1 .09-.82 1.42 1.42 0 0 1 .47-.5l.93.52a1.34 1.34 0 0 0-.47.5 1 1 0 0 0-.09.82l-.76 1.4c-.09.17-.08.33 0 .39l-.93-.52c-.08-.05-.09-.22 0-.39Z"/><path class="cls-23" d="M320.13 93a1.34 1.34 0 0 0-.47.5 1 1 0 0 0-.09.82l-.76 1.4c-.09.18-.08.35 0 .39a.21.21 0 0 0 .17 0 .51.51 0 0 0 .2-.21l.76-1.41a.44.44 0 0 0 .16-.06Z"/></g><g class="cls-2"><path class="cls-7" d="m324.43 50.16 1 .55-2.06 1.15-.99-.55 2.05-1.15z"/><path class="cls-7" d="m324 49.14 2.06-1.14a1.58 1.58 0 0 1 1.55.15 4.56 4.56 0 0 1 2.21 3.62v1.38l1 .55v4.22l-2.06 1.15v-4.23l-1-.55v-1.38a4.54 4.54 0 0 0-2.17-3.6 1.62 1.62 0 0 0-1.59-.17Z"/><path class="cls-17" d="M325.55 49.28c-1.2-.66-2.17-.13-2.18 1.2v1.38l-1-.55v4.22l6.38 3.53v-4.22l-1-.55v-1.38a4.54 4.54 0 0 0-2.17-3.6Z"/></g><path class="cls-7" d="M324.38 51.28a2.22 2.22 0 0 0 1 1.74c.58.32 1.05.06 1.05-.58a2.2 2.2 0 0 0-1.05-1.74c-.53-.33-1-.07-1 .58Z"/><g class="cls-2"><path class="cls-7" d="m314.78 44.92.99.55-2.06 1.15-.99-.55 2.06-1.15z"/><path class="cls-7" d="m314.35 43.9 2.06-1.15a1.58 1.58 0 0 1 1.55.15 4.57 4.57 0 0 1 2.21 3.62v1.38l1 .55v4.22l-2.06 1.15V49.6l-1-.55v-1.38a4.52 4.52 0 0 0-2.17-3.6 1.62 1.62 0 0 0-1.59-.17Z"/><path class="cls-17" d="M315.9 44c-1.2-.66-2.18-.13-2.18 1.2v1.38l-1-.55v4.22l6.37 3.53v-4.22l-1-.55v-1.34a4.52 4.52 0 0 0-2.17-3.6Z"/></g><path class="cls-7" d="M314.72 46a2.2 2.2 0 0 0 1 1.74c.58.32 1.05.06 1.05-.58a2.24 2.24 0 0 0-1.05-1.75c-.53-.28-1-.02-1 .59Z"/><g class="cls-2"><path class="cls-21" d="m324.65 90.15-2.92-1.63.04 12.8 2.92 1.63-.04-12.8z"/><path class="cls-11" d="m323.82 93.67-1.26-.7.04 4.45 1.26.7-.04-4.45z"/><path class="cls-14" d="m327.2 88.74-2.92-1.63-2.55 1.41 2.92 1.63 2.55-1.41z"/><path class="cls-15" d="m324.65 90.15.04 12.8 2.55-1.41-.04-12.8-2.55 1.41z"/></g><path class="cls-17" d="M322.62 90.49a1.26 1.26 0 0 0 .59 1c.32.18.59 0 .59-.33a1.24 1.24 0 0 0-.59-1c-.32-.16-.59-.03-.59.33ZM322.62 100.37a1.26 1.26 0 0 0 .59 1c.32.18.59 0 .59-.33a1.24 1.24 0 0 0-.59-1c-.32-.17-.59-.04-.59.33Z"/><g class="cls-2"><path class="cls-22" d="M322.85 94.66a6.19 6.19 0 0 1 1 .48c-.12.07-1.05-.44-1.05-.44a.1.1 0 0 1 .05-.04Z"/><path class="cls-22" d="M321.79 94.07a.69.69 0 0 1 .14-.12.19.19 0 0 1 .19 0l.93.52a.19.19 0 0 0-.19 0 .47.47 0 0 0-.14.12.42.42 0 0 0-.08.45l.65.73a.75.75 0 0 0 0 .77l.09.07-.93-.52a.28.28 0 0 1-.09-.07.77.77 0 0 1 0-.77l-.64-.73a.42.42 0 0 1 .07-.45Z"/><path class="cls-23" d="M322.86 94.47a.47.47 0 0 0-.14.12.42.42 0 0 0-.08.45l.65.73a.75.75 0 0 0 0 .77c.13.15.33.14.55 0v-1.43l-.76-.66a.18.18 0 0 0-.22.02Z"/></g><g class="cls-2"><path class="cls-21" d="m328.39 92.21-2.93-1.63.04 12.8 2.93 1.63-.04-12.8z"/><path class="cls-11" d="m327.56 95.73-1.26-.7.03 4.44 1.26.71-.03-4.45z"/><path class="cls-14" d="m330.94 90.8-2.92-1.63-2.56 1.41 2.93 1.63 2.55-1.41z"/><path class="cls-15" d="m328.39 92.21.04 12.8 2.55-1.41-.04-12.8-2.55 1.41z"/></g><path class="cls-17" d="M326.36 92.55a1.23 1.23 0 0 0 .59 1c.32.18.58 0 .58-.33a1.23 1.23 0 0 0-.58-1c-.33-.17-.59-.03-.59.33ZM326.36 102.43a1.23 1.23 0 0 0 .59 1c.32.18.58 0 .58-.33a1.23 1.23 0 0 0-.58-1c-.33-.17-.59-.03-.59.33Z"/><g class="cls-2"><path class="cls-22" d="M326.58 96.72a6.19 6.19 0 0 1 1 .48c-.12.07-1.05-.45-1.05-.45Z"/><path class="cls-22" d="M325.53 96.13a.39.39 0 0 1 .14-.12.19.19 0 0 1 .19 0l.93.52a.19.19 0 0 0-.19 0 .31.31 0 0 0-.14.12c-.12.16-.16.35-.08.45l.64.73a.77.77 0 0 0 0 .77l.08.07-.93-.52a.18.18 0 0 1-.08-.07.77.77 0 0 1 0-.77l-.64-.73c-.08-.09-.04-.29.08-.45Z"/><path class="cls-23" d="M326.6 96.53a.31.31 0 0 0-.14.12c-.12.16-.16.35-.08.45l.64.73a.77.77 0 0 0 0 .77.42.42 0 0 0 .54 0s0-1.42 0-1.42l-.76-.66s-.11-.04-.2.01Z"/></g><g class="cls-2"><path class="cls-21" d="m302.44 64.03-2.92-1.63.04 12.8 2.92 1.63-.04-12.8z"/><path class="cls-11" d="m301.61 67.56-1.26-.71.03 4.45 1.26.7-.03-4.44z"/><path class="cls-14" d="m304.99 62.62-2.92-1.63-2.55 1.41 2.92 1.63 2.55-1.41z"/><path class="cls-15" d="m302.44 64.03.04 12.8 2.55-1.41-.04-12.8-2.55 1.41z"/></g><path class="cls-17" d="M300.41 64.37a1.23 1.23 0 0 0 .59 1c.32.18.59 0 .59-.33a1.24 1.24 0 0 0-.59-1c-.33-.17-.59-.04-.59.33ZM300.41 74.25a1.23 1.23 0 0 0 .59 1c.32.18.59 0 .59-.33a1.24 1.24 0 0 0-.59-1c-.33-.17-.59-.03-.59.33Z"/><g class="cls-2"><path class="cls-22" d="m299.39 71.23.76-1.41a.93.93 0 0 1 .09-.81 1.46 1.46 0 0 1 .47-.51l.93.52a1.52 1.52 0 0 0-.47.5 1 1 0 0 0-.09.82l-.76 1.4c-.09.17-.08.34 0 .39l-.93-.52c-.08-.05-.09-.22 0-.38Z"/><path class="cls-23" d="M301.64 69a1.52 1.52 0 0 0-.47.5 1 1 0 0 0-.09.82l-.76 1.4c-.09.18-.08.35 0 .4a.18.18 0 0 0 .17 0 .45.45 0 0 0 .2-.21l.76-1.4.16-.07Z"/></g><g class="cls-2"><path class="cls-21" d="m306.14 66.06-2.93-1.63.04 12.8 2.93 1.63-.04-12.8z"/><path class="cls-11" d="m305.31 69.58-1.26-.7.03 4.44 1.26.7-.03-4.44z"/><path class="cls-14" d="m308.69 64.64-2.92-1.63-2.56 1.42 2.93 1.63 2.55-1.42z"/><path class="cls-15" d="m306.14 66.06.04 12.8 2.55-1.42-.04-12.8-2.55 1.42z"/></g><path class="cls-17" d="M304.11 66.4a1.23 1.23 0 0 0 .59 1c.32.18.58 0 .58-.32a1.25 1.25 0 0 0-.58-1c-.33-.19-.59-.08-.59.32ZM304.11 76.27a1.23 1.23 0 0 0 .59 1c.32.18.58 0 .58-.32a1.25 1.25 0 0 0-.58-1c-.33-.18-.59-.03-.59.32Z"/><g class="cls-2"><path class="cls-22" d="m303.09 73.25.76-1.41a.9.9 0 0 1 .09-.81 1.25 1.25 0 0 1 .46-.5l.93.52a1.32 1.32 0 0 0-.46.5.9.9 0 0 0-.09.81l-.78 1.41c-.09.16-.08.33 0 .38l-.93-.52c-.07-.05-.07-.22.02-.38Z"/><path class="cls-23" d="M305.33 71.05a1.32 1.32 0 0 0-.46.5.9.9 0 0 0-.09.81l-.78 1.41c-.09.17-.08.35 0 .39a.18.18 0 0 0 .17 0 .51.51 0 0 0 .2-.21l.76-1.4.16-.06Z"/></g><g class="cls-2"><path class="cls-21" d="m309.84 68.08-2.93-1.63.04 12.8 2.93 1.63-.04-12.8z"/><path class="cls-11" d="m309.01 71.6-1.26-.7.03 4.44 1.26.7-.03-4.44z"/><path class="cls-14" d="m312.39 66.67-2.93-1.63-2.55 1.41 2.93 1.63 2.55-1.41z"/><path class="cls-15" d="m309.84 68.08.04 12.8 2.55-1.41-.04-12.8-2.55 1.41z"/></g><path class="cls-17" d="M307.81 68.42a1.23 1.23 0 0 0 .58 1c.33.18.59 0 .59-.32a1.23 1.23 0 0 0-.59-1c-.32-.19-.58-.04-.58.32ZM307.81 78.3a1.23 1.23 0 0 0 .58 1c.33.18.59 0 .59-.32a1.23 1.23 0 0 0-.59-1c-.32-.19-.58-.04-.58.32Z"/><g class="cls-2"><path class="cls-7" d="m306.79 75.27.76-1.4a.89.89 0 0 1 .09-.82 1.32 1.32 0 0 1 .46-.5l.93.52a1.32 1.32 0 0 0-.46.5.87.87 0 0 0-.09.81l-.76 1.41c-.09.16-.08.33 0 .38l-.93-.51c-.08-.06-.09-.22 0-.39Z"/><path class="cls-17" d="M309 73.07a1.32 1.32 0 0 0-.46.5.87.87 0 0 0-.09.81l-.76 1.41c-.1.17-.08.35 0 .39a.23.23 0 0 0 .18 0 .58.58 0 0 0 .2-.21l.76-1.41.16-.06Z"/></g><g class="cls-2"><path class="cls-21" d="m313.53 70.1-2.92-1.63.04 12.8 2.92 1.63-.04-12.8z"/><path class="cls-11" d="m312.71 73.62-1.27-.7.04 4.44 1.26.71-.03-4.45z"/><path class="cls-14" d="m316.08 68.69-2.92-1.63-2.55 1.41 2.92 1.63 2.55-1.41z"/><path class="cls-15" d="m313.53 70.1.04 12.8 2.55-1.41-.04-12.8-2.55 1.41z"/></g><path class="cls-17" d="M311.5 70.44a1.26 1.26 0 0 0 .59 1c.33.18.59 0 .59-.33a1.2 1.2 0 0 0-.59-1c-.32-.17-.59-.03-.59.33ZM311.5 80.32a1.26 1.26 0 0 0 .59 1c.33.17.59 0 .59-.33a1.23 1.23 0 0 0-.59-1c-.32-.18-.59.01-.59.33Z"/><g class="cls-2"><path class="cls-7" d="m310.49 77.29.76-1.4a.89.89 0 0 1 .09-.82 1.4 1.4 0 0 1 .46-.5l.93.52a1.32 1.32 0 0 0-.46.5.89.89 0 0 0-.09.82l-.76 1.4c-.1.17-.09.33 0 .39l-.93-.52c-.09-.05-.1-.22 0-.39Z"/><path class="cls-17" d="M312.73 75.09a1.32 1.32 0 0 0-.46.5.89.89 0 0 0-.09.82l-.76 1.4c-.1.18-.08.35 0 .39a.23.23 0 0 0 .18 0 .68.68 0 0 0 .2-.21l.76-1.41a.47.47 0 0 0 .15-.06Z"/></g><g class="cls-2"><path class="cls-21" d="m317.23 72.12-2.92-1.63.04 12.8 2.92 1.63-.04-12.8z"/><path class="cls-11" d="m316.4 75.65-1.26-.71.04 4.45 1.26.7-.04-4.44z"/><path class="cls-14" d="m319.78 70.71-2.92-1.63-2.55 1.41 2.92 1.63 2.55-1.41z"/><path class="cls-15" d="m317.23 72.12.04 12.8 2.55-1.41-.04-12.8-2.55 1.41z"/></g><path class="cls-17" d="M315.2 72.46a1.23 1.23 0 0 0 .59 1c.32.18.59 0 .59-.33a1.24 1.24 0 0 0-.59-1c-.33-.13-.59-.03-.59.33ZM315.2 82.34a1.23 1.23 0 0 0 .59 1c.32.18.59 0 .59-.33a1.24 1.24 0 0 0-.59-1c-.33-.17-.59-.01-.59.33Z"/><g class="cls-2"><path class="cls-7" d="m314.18 79.32.76-1.41a.93.93 0 0 1 .09-.81 1.46 1.46 0 0 1 .47-.51l.93.52a1.4 1.4 0 0 0-.46.5.93.93 0 0 0-.1.82l-.76 1.4c-.09.17-.08.34 0 .39l-.93-.52c-.08-.05-.09-.22 0-.38Z"/><path class="cls-17" d="M316.43 77.11a1.4 1.4 0 0 0-.46.5.93.93 0 0 0-.1.82l-.76 1.4c-.09.18-.08.35 0 .4a.18.18 0 0 0 .17 0 .45.45 0 0 0 .2-.21l.76-1.4.16-.07Z"/></g><g class="cls-2"><path class="cls-21" d="m320.93 74.14-2.92-1.62.03 12.8 2.93 1.63-.04-12.81z"/><path class="cls-11" d="m320.1 77.67-1.26-.7.03 4.44 1.26.7-.03-4.44z"/><path class="cls-14" d="m323.48 72.73-2.92-1.63-2.55 1.42 2.92 1.62 2.55-1.41z"/><path class="cls-15" d="m320.93 74.14.04 12.81 2.55-1.42-.04-12.8-2.55 1.41z"/></g><path class="cls-17" d="M318.9 74.49a1.23 1.23 0 0 0 .59 1c.32.18.58 0 .58-.32a1.25 1.25 0 0 0-.58-1c-.33-.17-.59-.04-.59.32ZM318.9 84.36a1.23 1.23 0 0 0 .59 1c.32.18.58 0 .58-.32a1.25 1.25 0 0 0-.58-1c-.33-.18-.59-.04-.59.32Z"/><g class="cls-2"><path class="cls-22" d="m317.88 81.34.76-1.41a.9.9 0 0 1 .09-.81 1.27 1.27 0 0 1 .47-.5l.93.52a1.27 1.27 0 0 0-.47.5.94.94 0 0 0-.09.81l-.76 1.41c-.09.16-.08.33 0 .38l-.93-.52c-.08-.05-.09-.22 0-.38Z"/><path class="cls-23" d="M320.13 79.14a1.27 1.27 0 0 0-.47.5.94.94 0 0 0-.09.81l-.76 1.41c-.09.17-.08.34 0 .39a.18.18 0 0 0 .17 0 .45.45 0 0 0 .2-.21l.76-1.4.16-.06Z"/></g><g class="cls-2"><path class="cls-21" d="m324.65 76.29-2.92-1.63.04 12.8 2.92 1.63-.04-12.8z"/><path class="cls-11" d="m323.82 79.81-1.26-.7.04 4.44 1.26.7-.04-4.44z"/><path class="cls-14" d="m327.2 74.88-2.92-1.63-2.55 1.41 2.92 1.63 2.55-1.41z"/><path class="cls-15" d="m324.65 76.29.04 12.8 2.55-1.41-.04-12.8-2.55 1.41z"/></g><path class="cls-17" d="M322.62 76.63a1.24 1.24 0 0 0 .59 1c.32.18.59 0 .59-.32a1.26 1.26 0 0 0-.59-1c-.32-.19-.59-.04-.59.32ZM322.62 86.51a1.24 1.24 0 0 0 .59 1c.32.18.59 0 .59-.32a1.26 1.26 0 0 0-.59-1c-.32-.19-.59-.04-.59.32Z"/><g class="cls-2"><path class="cls-7" d="M322.85 80.8a6.19 6.19 0 0 1 1 .48c-.12.07-1.05-.45-1.05-.45Z"/><path class="cls-7" d="M321.79 80.21a.79.79 0 0 1 .14-.13.22.22 0 0 1 .19 0l.93.52a.19.19 0 0 0-.19 0l-.14.12a.42.42 0 0 0-.08.45l.65.74a.75.75 0 0 0 0 .77l.09.07-.93-.52-.09-.07a.77.77 0 0 1 0-.77l-.64-.74a.4.4 0 0 1 .07-.44Z"/><path class="cls-17" d="m322.86 80.6-.14.12a.42.42 0 0 0-.08.45l.65.74a.75.75 0 0 0 0 .77.43.43 0 0 0 .55 0s0-1.42 0-1.42l-.76-.67a.18.18 0 0 0-.22.01Z"/></g><g class="cls-2"><path class="cls-21" d="m328.39 78.35-2.93-1.63.04 12.8 2.93 1.63-.04-12.8z"/><path class="cls-11" d="m327.56 81.87-1.26-.7.03 4.44 1.26.7-.03-4.44z"/><path class="cls-14" d="m330.94 76.93-2.92-1.62-2.56 1.41 2.93 1.63 2.55-1.42z"/><path class="cls-15" d="m328.39 78.35.04 12.8 2.55-1.42-.04-12.8-2.55 1.42z"/></g><path class="cls-17" d="M326.36 78.69a1.21 1.21 0 0 0 .59 1c.32.18.58 0 .58-.32a1.25 1.25 0 0 0-.58-1c-.33-.19-.59-.04-.59.32ZM326.36 88.57a1.21 1.21 0 0 0 .59 1c.32.18.58 0 .58-.32a1.25 1.25 0 0 0-.58-1c-.33-.19-.59-.04-.59.32Z"/><g class="cls-2"><path class="cls-22" d="M326.58 82.86a6.19 6.19 0 0 1 1 .48c-.12.07-1.05-.45-1.05-.45Z"/><path class="cls-22" d="M325.53 82.27a.43.43 0 0 1 .14-.13.22.22 0 0 1 .19 0l.93.52a.19.19 0 0 0-.19 0 .53.53 0 0 0-.14.12c-.12.16-.16.36-.08.45l.62.77a.79.79 0 0 0 0 .78l.08.07-.93-.52a.27.27 0 0 1-.08-.07.77.77 0 0 1 0-.77l-.64-.74c-.06-.13-.02-.33.1-.48Z"/><path class="cls-23" d="M326.6 82.66a.53.53 0 0 0-.14.12c-.12.16-.16.36-.08.45l.62.77a.79.79 0 0 0 0 .78.42.42 0 0 0 .54 0s0-1.42 0-1.42l-.76-.67s-.09-.08-.18-.03Z"/></g><g class="cls-2"><path class="cls-21" d="m313.53 56.23-2.92-1.63.04 12.81 2.92 1.63-.04-12.81z"/><path class="cls-11" d="m312.71 59.76-1.27-.71.04 4.45 1.26.7-.03-4.44z"/><path class="cls-14" d="m316.08 54.82-2.92-1.63-2.55 1.41 2.92 1.63 2.55-1.41z"/><path class="cls-15" d="m313.53 56.23.04 12.81 2.55-1.42-.04-12.8-2.55 1.41z"/></g><path class="cls-17" d="M311.5 56.58a1.26 1.26 0 0 0 .59 1c.33.18.59 0 .59-.32a1.23 1.23 0 0 0-.59-1c-.32-.19-.59-.04-.59.32ZM311.5 66.45a1.26 1.26 0 0 0 .59 1c.33.18.59 0 .59-.33a1.23 1.23 0 0 0-.59-1c-.32-.12-.59-.02-.59.33Z"/><g class="cls-2"><path class="cls-22" d="m310.49 63.43.76-1.41a.87.87 0 0 1 .09-.81 1.25 1.25 0 0 1 .46-.5l.93.52a1.25 1.25 0 0 0-.46.5.87.87 0 0 0-.09.81l-.76 1.46c-.1.16-.09.33 0 .38l-.93-.52c-.09-.1-.1-.27 0-.43Z"/><path class="cls-23" d="M312.73 61.23a1.25 1.25 0 0 0-.46.5.87.87 0 0 0-.09.81l-.76 1.46c-.1.17-.08.34 0 .39a.2.2 0 0 0 .18 0 .58.58 0 0 0 .2-.21l.76-1.4.15-.06Z"/></g><g class="cls-2"><path class="cls-21" d="m317.23 58.26-2.92-1.63.04 12.8 2.92 1.63-.04-12.8z"/><path class="cls-11" d="m316.4 61.78-1.26-.7.04 4.44 1.26.7-.04-4.44z"/><path class="cls-14" d="m319.78 56.84-2.92-1.62-2.55 1.41 2.92 1.63 2.55-1.42z"/><path class="cls-15" d="m317.23 58.26.04 12.8 2.55-1.41-.04-12.81-2.55 1.42z"/></g><path class="cls-17" d="M315.2 58.6a1.21 1.21 0 0 0 .59 1c.32.18.59 0 .59-.32a1.26 1.26 0 0 0-.59-1c-.33-.19-.59-.04-.59.32ZM315.2 68.48a1.21 1.21 0 0 0 .59 1c.32.18.59 0 .59-.32a1.26 1.26 0 0 0-.59-1c-.33-.16-.59-.04-.59.32Z"/><g class="cls-2"><path class="cls-22" d="m314.18 65.45.76-1.4a1 1 0 0 1 .09-.82 1.42 1.42 0 0 1 .47-.5l.93.52a1.32 1.32 0 0 0-.46.5.91.91 0 0 0-.1.81l-.76 1.44c-.09.16-.08.33 0 .38l-.93-.51c-.08-.09-.09-.25 0-.42Z"/><path class="cls-23" d="M316.43 63.25a1.32 1.32 0 0 0-.46.5.91.91 0 0 0-.1.81l-.76 1.44c-.09.17-.08.35 0 .39a.21.21 0 0 0 .17 0 .51.51 0 0 0 .2-.21l.76-1.41a.44.44 0 0 0 .16-.06Z"/></g><g class="cls-2"><path class="cls-21" d="m320.93 60.28-2.92-1.63.03 12.8 2.93 1.63-.04-12.8z"/><path class="cls-11" d="m320.1 63.8-1.26-.7.03 4.44 1.26.71-.03-4.45z"/><path class="cls-14" d="m323.48 58.87-2.92-1.63-2.55 1.41 2.92 1.63 2.55-1.41z"/><path class="cls-15" d="m320.93 60.28.04 12.8 2.55-1.41-.04-12.8-2.55 1.41z"/></g><path class="cls-17" d="M318.9 60.62a1.23 1.23 0 0 0 .59 1c.32.18.58 0 .58-.33a1.25 1.25 0 0 0-.58-1c-.33-.17-.59-.03-.59.33ZM318.9 70.5a1.23 1.23 0 0 0 .59 1c.32.17.58 0 .58-.33a1.25 1.25 0 0 0-.58-1c-.33-.17-.59-.03-.59.33Z"/><g class="cls-2"><path class="cls-22" d="m317.88 67.47.76-1.4a.92.92 0 0 1 .09-.82 1.42 1.42 0 0 1 .47-.5l.93.52a1.34 1.34 0 0 0-.47.5 1 1 0 0 0-.09.82l-.76 1.4c-.09.17-.08.33 0 .39l-.93-.52c-.08-.05-.09-.22 0-.39Z"/><path class="cls-23" d="M320.13 65.27a1.34 1.34 0 0 0-.47.5 1 1 0 0 0-.09.82l-.76 1.4c-.09.17-.08.35 0 .39a.21.21 0 0 0 .17 0 .51.51 0 0 0 .2-.21l.76-1.41a.44.44 0 0 0 .16-.06Z"/></g><g class="cls-2"><path class="cls-21" d="m324.65 62.42-2.92-1.63.04 12.8 2.92 1.63-.04-12.8z"/><path class="cls-11" d="m323.82 65.94-1.26-.7.04 4.44 1.26.71-.04-4.45z"/><path class="cls-14" d="m327.2 61.01-2.92-1.63-2.55 1.41 2.92 1.63 2.55-1.41z"/><path class="cls-15" d="m324.65 62.42.04 12.8 2.55-1.41-.04-12.8-2.55 1.41z"/></g><path class="cls-17" d="M322.62 62.76a1.26 1.26 0 0 0 .59 1c.32.18.59 0 .59-.33a1.24 1.24 0 0 0-.59-1c-.32-.17-.59-.03-.59.33ZM322.62 72.64a1.26 1.26 0 0 0 .59 1c.32.18.59 0 .59-.33a1.24 1.24 0 0 0-.59-1c-.32-.17-.59-.03-.59.33Z"/><g class="cls-2"><path class="cls-22" d="M322.85 66.93a6.19 6.19 0 0 1 1 .48c-.12.07-1.05-.45-1.05-.45Z"/><path class="cls-22" d="M321.79 66.34a.69.69 0 0 1 .14-.12.19.19 0 0 1 .19 0l.93.52a.19.19 0 0 0-.19 0 .47.47 0 0 0-.14.12.42.42 0 0 0-.08.45l.65.73a.75.75 0 0 0 0 .77l.09.07-.93-.52a.28.28 0 0 1-.09-.07.77.77 0 0 1 0-.77l-.64-.73a.42.42 0 0 1 .07-.45Z"/><path class="cls-23" d="M322.86 66.74a.47.47 0 0 0-.14.12.42.42 0 0 0-.08.45l.65.73a.75.75 0 0 0 0 .77.43.43 0 0 0 .55 0s0-1.42 0-1.42l-.76-.66a.18.18 0 0 0-.22.01Z"/></g><g class="cls-2"><path class="cls-21" d="m328.39 64.48-2.93-1.63.04 12.8 2.93 1.63-.04-12.8z"/><path class="cls-11" d="m327.56 68-1.26-.7.03 4.44 1.26.71-.03-4.45z"/><path class="cls-14" d="m330.94 63.07-2.92-1.63-2.56 1.41 2.93 1.63 2.55-1.41z"/><path class="cls-15" d="m328.39 64.48.04 12.8 2.55-1.41-.04-12.8-2.55 1.41z"/></g><path class="cls-17" d="M326.36 64.82a1.23 1.23 0 0 0 .59 1c.32.18.58 0 .58-.33a1.23 1.23 0 0 0-.58-1c-.33-.17-.59-.03-.59.33ZM326.36 74.7a1.23 1.23 0 0 0 .59 1c.32.18.58 0 .58-.33a1.23 1.23 0 0 0-.58-1c-.33-.17-.59-.03-.59.33Z"/><g class="cls-2"><path class="cls-22" d="M326.58 69a6.19 6.19 0 0 1 1 .48c-.12.07-1.05-.45-1.05-.45Z"/><path class="cls-22" d="M325.53 68.4a.39.39 0 0 1 .14-.12.19.19 0 0 1 .19 0l.93.52a.19.19 0 0 0-.19 0 .31.31 0 0 0-.14.12c-.12.16-.16.35-.08.45l.64.73a.77.77 0 0 0 0 .77l.08.07-.93-.52a.27.27 0 0 1-.08-.07.77.77 0 0 1 0-.77l-.64-.73c-.08-.09-.04-.29.08-.45Z"/><path class="cls-23" d="M326.6 68.8a.31.31 0 0 0-.14.12c-.12.16-.16.35-.08.45l.64.73a.77.77 0 0 0 0 .77.42.42 0 0 0 .54 0s0-1.42 0-1.42l-.76-.67a.18.18 0 0 0-.2.02Z"/></g><g class="cls-2"><path class="cls-24" d="m318.3 32.88-7.28-4.06.03 10.14 7.28 4.05-.03-10.13z"/><path class="cls-25" d="m319.7 32.1-7.28-4.05-1.4.77 7.28 4.06 1.4-.78z"/><path class="cls-26" d="m318.3 32.88.03 10.13 1.4-.77-.03-10.14-1.4.78z"/></g><path class="cls-11" d="m307.2 25.62 4.67-2.62a3.75 3.75 0 0 1 3.65.35 10.72 10.72 0 0 1 5.12 8.5 3.4 3.4 0 0 1-1.49 3.15l-4.69 2.61.17-.11a3.63 3.63 0 0 1-3.82-.24 10.72 10.72 0 0 1-5.12-8.5 3.37 3.37 0 0 1 1.51-3.14Z"/><path class="cls-27" d="M310.84 26c-2.84-1.57-5.14-.31-5.15 2.81a10.72 10.72 0 0 0 5.12 8.5c2.83 1.57 5.14.31 5.15-2.81a10.72 10.72 0 0 0-5.12-8.5Z"/><path class="cls-17" d="M306.58 28.78a9.38 9.38 0 0 0 2 5.31l5.22 2.9c.81-.31 1.28-1.21 1.28-2.53a8.81 8.81 0 0 0-1.38-4.4l-6.32-3.5a2.82 2.82 0 0 0-.8 2.22Z"/><path class="cls-11" d="m307.89 29.82 5.27 2.92c.27.14.49 0 .49-.27v-.55a1 1 0 0 0-.49-.81l-5.27-2.92c-.27-.15-.49 0-.49.27V29a1 1 0 0 0 .49.82ZM308.43 31.28l3.89 2.15v-.5l-3.89-2.15v.5zM308.96 32.44l2.83 1.56v-.37l-2.83-1.56v.37z"/><g class="cls-2"><path class="cls-24" d="m329.91 38.73-7.28-4.06.03 10.13 7.28 4.06-.03-10.13z"/><path class="cls-25" d="m331.31 37.95-7.28-4.05-1.4.77 7.28 4.06 1.4-.78z"/><path class="cls-26" d="m329.91 38.73.03 10.13 1.41-.77-.04-10.14-1.4.78z"/></g><path class="cls-11" d="m318.81 31.47 4.67-2.61a3.77 3.77 0 0 1 3.66.35 10.73 10.73 0 0 1 5.11 8.49 3.38 3.38 0 0 1-1.49 3.16l-4.69 2.62.17-.12c-.94.64-2.31.61-3.82-.23a10.72 10.72 0 0 1-5.12-8.5 3.37 3.37 0 0 1 1.51-3.16Z"/><path class="cls-27" d="M322.45 31.82c-2.84-1.57-5.14-.31-5.15 2.81a10.72 10.72 0 0 0 5.12 8.5c2.83 1.57 5.14.31 5.15-2.81a10.72 10.72 0 0 0-5.12-8.5Z"/><path class="cls-17" d="M318.19 34.63a9.38 9.38 0 0 0 2 5.31l5.22 2.9c.81-.31 1.28-1.21 1.28-2.53a8.81 8.81 0 0 0-1.38-4.4L319 32.4a2.86 2.86 0 0 0-.81 2.23Z"/><path class="cls-11" d="m319.5 35.67 5.27 2.91c.27.15.49 0 .49-.27v-.54a1 1 0 0 0-.49-.81L319.5 34c-.27-.15-.49 0-.49.27v.55a1 1 0 0 0 .49.85ZM320.05 37.13l3.88 2.15v-.5l-3.88-2.15v.5zM320.58 38.29l2.82 1.56v-.37l-2.82-1.56v.37z"/></g><path class="cls-28" d="m254.63 106.35-.4 3.51.3 2.17 1 3c.32.85 1.14.85 1.26.14l.5 1.43c.49 1.14 1.65.47 1.34-.68L258 113l1.24 3.72c.56 1.12 1.68.68 1.51-.73l-.78-4 1.1 3.25c.38.76 1.62.56 1.55-.73l-.74-5.19a3.12 3.12 0 0 1 .54-1.81c.47-.58 2.8 1.24 2.8 1.24l2.11 1.75c.84.28 1.26.14 1.25-.43l-1.43-2.13-1.67-2.07-.74-.9a11.4 11.4 0 0 0-3.57-2.48v-.38l-.08-.75-2-.07-3-.11-.29 2.15-.37 1Z"/><path class="cls-29" d="m262.79 107.24-3.79-1.61-2.81 3 .59 6.51c.26-1.65.59-3.64 1.8-3.81l2 .09-1.41-1.34.56-1.48 3.52.11ZM265.5 105.86l-6.89-2.09a4 4 0 0 0 2.55-1.67v.38a11.87 11.87 0 0 1 3.57 2.47Z"/><path class="cls-30" d="m272.82 61.92-3.9 13.29-3.22 11c-2.17 6.35-4.2 11.4-4.27 14.92a2.3 2.3 0 0 1-.27.93 4 4 0 0 1-2.55 1.67 13.06 13.06 0 0 1-3.19.51c-.34-7-.36-13.68 1.26-18.78l3.81-13c1.84-7.52 4.87-12.92 12.33-10.54Z"/><path d="M301.2 126c-10.24 5.07-21.58 6.89-33.27 8-6.25 0-6.68-12.83-3.47-13.88l10.34-3.06 28.34 7.08a8.68 8.68 0 0 1-1.94 1.86Z" style="fill:#0b4757"/><path d="m267.13 122.83-7 .37-4.47-.28c-3.82.46-4.22 9.42-3.31 17.57l7 4.23a6.74 6.74 0 0 0 4.79-1.59c.76-1.28.67-2.69-1.76-4.65l.48-4.68 4.8-.87c3.27-1.18 3.08-8.46-.53-10.1Z"/><path class="cls-30" d="M315.49 136.66c-10.23 5.08-21.56 6.9-33.28 8.06-4.24 0-5.79-5.92-5.36-10.06.24-1.94.89-3.49 1.92-3.82l10.47-3.09s-16.9-6.74-21.19-10.87c-5-4.87-3.27-11.74-2.56-14.48a3 3 0 0 1 .08-.35c.06-.21.46-1 .84-1.72a14.76 14.76 0 0 0 .68-1.37c0-.33 2.58.45 6.07 1.67.91.31 1.87.64 2.85 1 4.16 1.48 8.86 3.26 12 4.47l1.4.55 2.37.91.12.07c.41.24.83.48 1.23.73 1.82 1.06 3.61 2.13 5.34 3.22q4.75 3 8.95 6a78.31 78.31 0 0 1 9.57 8.15c2.83 4.93 2.06 8.47-1.5 10.93Z"/><path d="m281.62 132.2-7 .37-4.47-.27c-3.82.45-4.22 9.41-3.32 17.56l7 4.23a6.74 6.74 0 0 0 4.79-1.59c.76-1.28.67-2.69-1.76-4.65l.48-4.68 4.8-.87c3.27-1.18 3.08-8.46-.52-10.1Z"/><path class="cls-32" d="M268.06 116.87c4.28 4.15 21.17 10.87 21.17 10.87l-10.47 3.09c-1 .34-1.68 1.89-1.89 3.84l7.66 1.65c2.8-5.41 11.43-7.42 20.79-8.26-14.44-2.44-23.13-7.4-20.86-16.38-9 7.47-18.74-1.52-18.89-9.64-.63 2.5-2.75 9.75 2.49 14.83Z"/><path class="cls-28" d="m320.48 88.35 1.66 4 .11.26.52-.16c.38-.19 6.31-3.4 6.42-3.52a14.51 14.51 0 0 0 2.73-5l.25-1.93-.08-.33-.79-3.11-1.63-.56c-1.06 0-1 .61-.52 1l.64.69-2.8 2-2 .53 1.28-1.81a9.54 9.54 0 0 0 1.62-.91c.6-.39.9-1.22.15-1.28l-3.63 1.43-2.55 3.51Z"/><path class="cls-29" d="m332.17 82-.08-.33-3.23 5c-2.37 2.14-4.62 3.06-6.72 2.44v3.28l.11.26.52-.16c.38-.19 6.31-3.4 6.42-3.52Z"/><path class="cls-32" d="M265.7 86.25c-2.17 6.35-4.2 11.4-4.27 14.92a2.3 2.3 0 0 1-.27.93 4 4 0 0 1-2.55 1.67c.19-.84.32-1.67.46-2.5 2.09-12.65.26-23.91 5.93-28.87l3.92 2.81Z"/><path class="cls-30" d="M299.9 77.3a94.23 94.23 0 0 0-2.59 13c-.07.55-.16 1.11-.23 1.65-.17 1.12-.32 2.23-.49 3.32-.08.59-.17 1.19-.27 1.77a72.61 72.61 0 0 1-3.16 11.32c-1.52.6-4.2.11-5.68.53-9 2.63-15.9 0-21.07-8.56-1-3.55-2.55-15.48-2-28 .76-5.72.54-9.62 5.79-11 11.25 1.69 21.44 8.09 29.71 15.9Z"/><path class="cls-28" d="m290.46 61.37-.85 7.81c-5.27 0-13.52-3.54-12.48-6.22l2.77-5.1Z"/><path class="cls-28" d="M293 62.36c-2.09 2.28-5.25 2-8.46 1.16-4.69-2.08-8.07-5.16-7.61-11-.37-4.26 1.64-8.71 9.2-8.48 4.81.15 8.91 1.82 9.2 6.75-.02-.01.23 9.3-2.33 11.57Z"/><path class="cls-33" d="M295.28 49.57a7 7 0 0 1-3.07 4.11s.37 3.83.15 3.9-2.3 1.79-2.3 1.79L289 62.26c-3.59 2.49-8.93.59-10.56-1.65-1-1.17-2-5-1.76-9.43a9.76 9.76 0 0 1 9.45-8.56c5.94-.24 9.65 3.09 9.15 6.95Z"/><path class="cls-28" d="M291.71 58.13c.58-.61-.31-2.05-1-2.25-.9-.28-1.39 1-1.49 1.66a3.09 3.09 0 0 0 .53 2.38c.62.87 1.58 0 1.88-.68.26-.51-.29-.71.08-1.11Z"/><path class="cls-30" d="m323.06 92.25-.33.35c0 .06-.11.12-.15.18-4.91 5.38-6.93 7-12.92 9.29a13.89 13.89 0 0 1-1.48-.35 24.77 24.77 0 0 1-2.8-.92 26.86 26.86 0 0 1-5.14-2.65c-.4-.26-.79-.54-1.18-.82a28.37 28.37 0 0 1-2.47-2.06 31.47 31.47 0 0 1-2.46-2.56 27 27 0 0 1-.81-3.07c-1.26-6.13.31-10.59 5.29-13a8 8 0 0 1 1.28.64c3.52 2.21 7 7.83 10.44 13.23 3.54-1.61 5.35-1.4 10.63-3.22 2.46 1.79 2.92 3.42 2.1 4.96Z"/><path class="cls-32" d="M323.08 92.25c-.11.12-.24.24-.35.35s-.11.12-.15.18c-4.45 4.58-6.57 6.82-12.92 9.29-.5-.1-1-.22-1.48-.35-1-.27-1.9-.57-2.8-.92a26.86 26.86 0 0 1-5.14-2.65c-.4-.27-.79-.54-1.18-.83a26.58 26.58 0 0 1-2.47-2c-.08.59-.17 1.19-.27 1.77a72.61 72.61 0 0 1-3.16 11.32c1.82 1.06 3.61 2.13 5.34 3.22-3.21-1.15-8.63-2-11-2.69a5.35 5.35 0 0 0 2-2.24c2.21-4.05 3.12-12 3.88-17 .2-1.37.41-2.8.61-4.32a30 30 0 0 0 3.38 5 21.3 21.3 0 0 0 1.85 1.93c2.79 2.55 6.16 4.23 11.25 6.76 2 1 6.44-4.76 12.65-6.74Z"/><path class="cls-7" d="m353.76 24.74-25.25 13.95v59.89l25.25-13.29V24.74z"/><path class="cls-17" d="m281.58 57.11-.32 1.11a8.4 8.4 0 0 1-3.49-1.65l-.25-1.4a7.66 7.66 0 0 0 4.06 1.94Z"/><path d="M294.42 52.3c4-3.14 7.48-5.38 7.57-7.52 0-2.94-3.44-5.17-6.3-5a20.48 20.48 0 0 0-7.6 2.76Z" style="fill:#0e586b"/><path class="cls-30" d="M295.67 48.35c.42 5.75-5.67 9.49-12.65 10a7.87 7.87 0 0 1-1.76-.11 2.93 2.93 0 0 0-1.91-3.45c-1.28-.54-1.77.24-1.58 1.8-1.51-1.48-1.48-3.69-1.11-6.48C278.19 45 281 41.48 287.44 41c3.83.31 7.3 2.18 8.23 7.35Z"/><path class="cls-17" d="M284.72 150.62s3.1-.49 7.76 2.31 9.9 17.47 10.67 28.53c-.26 5.14-2.47 9.86-5.26 14.47l-9.11-1.11-4.5-30Z"/><path class="cls-35" d="m287.9 166.27 2.5-2.05c3.16 3.44 5.51 9.06 7.15 16.61a14.2 14.2 0 0 1-4.41 9.21Z"/><path class="cls-11" d="M280.55 214.4c-5.64 0-11.63-6.63-15.65-17.31l1.2-.32c3.78 10.08 9.45 16.58 14.45 16.58 5.71 0 9.83-8.29 10.24-20.64h1.25c-.44 13.19-4.95 21.69-11.49 21.69Z"/><path class="cls-11" d="M283.29 212.9c-5.46 0-11.3-6.58-15.34-17.32l1.2-.31c3.88 10.33 9.56 16.84 14.41 16.58 8-.42 9.86-7.88 10.28-20.64h1.25c-.37 11.12-1.52 21.14-11.45 21.66Z"/><path class="cls-11" d="M282.14 214.36c-5.64 0-11.63-6.63-15.65-17.31l1.2-.32c3.78 10.08 9.45 16.58 14.45 16.58 5.71 0 9.83-8.29 10.24-20.64h1.25c-.44 13.19-4.95 21.69-11.49 21.69Z"/><path class="cls-17" d="M288.54 199.16c-2.65 4.8-14.66 8-24.21 7.92-3.42 0-6.35-.68-8-2.22a4 4 0 0 1-.69-1.54c-1.31-4.32-3-16.29-4-25.78-.64-6.06-1-11.11-.85-12.49 3.8-3.59 11.06-7.29 16.15-10a98.22 98.22 0 0 1 10.9-3.48c5.05-1.53 13.54-2 12.54 4.62-1.84 11.65 1.44 37.03-1.84 42.97Z"/><path d="m258.78 258.25-4.53 5.55 1.66 6.14c3.22 2.31 4.68 4 3.82 5.57-1.94 1.66-4.73 1.85-7.79 1.39-5.54-.29-9.34-9.1-11.18-13.84a9.39 9.39 0 0 1 4.2-4.27l4.61-6ZM292.81 272.7l1.74 7.38a13.37 13.37 0 0 0 6.68 4.46c3.62.58 6.15 1.3 7.18 2.92a2.52 2.52 0 0 1-.42 3.07c-1.14 1.26-2.64 2.13-6 2.13-6.61-.44-15.56-1.52-17.89-3.35a11.73 11.73 0 0 1-.4-6.63l-2.24-7.83Z"/><path class="cls-17" d="M286.92 216.46c-1.34 6.32-6.27 19.06-6.27 19.06l-20.09 24c-3.28 3.76-16.56-1.13-13.56-7.52l18.12-27.73 6.88-19.73 16.42-7.92a71 71 0 0 1-1.5 19.84Z"/><path class="cls-17" d="m259.79 222 11.78 22.92 8.26 33.51a2 2 0 0 0 .18.25c2.69 3.11 16.15 1.38 16.15-3.3l-7.4-35.79-9.21-22.72c5.17-2.2 8.36-8.84 8.82-15l1.14-5.21-33.2 8.07c-2.05 6.14-.12 13.53 3.48 17.27Z"/><path class="cls-35" d="M280 278.63a1.12 1.12 0 0 1-.19-.24l-8.25-33.51L259.79 222c-3.57-3.67-5.5-11-3.52-17.13a1.31 1.31 0 0 1 .05-.15c-.25-.43-.48-.89-.71-1.36-1.31-4.32-3-16.29-4-25.78l8.69-2.62c-3.09 11.25-1.75 27 5.09 31.74a11 11 0 0 0-1 .42c-7 3.24-2.73 10.94-.2 12.36-.07 9.36 5.51 15.88 11.69 22.52-1.94 6 1.87 21.3 4.12 36.63Z"/><path class="cls-36" d="M294.35 188.92a27.86 27.86 0 0 1-7.91 5.63c-.56.44-.46 1.15.29 1.45l1.89.57c.24 1.33 2 2.24 3.74 2.59 2-.29 3.67-.82 4.66-2l.87-1.25a5.33 5.33 0 0 0 .7-4.8l-.34-1a4.57 4.57 0 0 0-3.9-1.19Z"/><path class="cls-11" d="M293.06 193.39a.58.58 0 0 1-.62-.54 69.73 69.73 0 0 0-.64-11.19c-2.32-17.52-10.48-31.78-18.19-31.78a.53.53 0 1 1 0-1c8.47 0 17 14.36 19.43 32.7a70.46 70.46 0 0 1 .65 11.34.59.59 0 0 1-.63.47Z"/><path class="cls-11" d="M291.82 193.74a.57.57 0 0 1-.62-.53 71.77 71.77 0 0 0-.91-10.89l-.08-.62c-2.32-17.52-10.48-31.78-18.19-31.78a.53.53 0 1 1 0-1c8.47 0 17 14.36 19.43 32.7l.08.62a70.89 70.89 0 0 1 .92 11 .59.59 0 0 1-.63.5Z"/><path class="cls-11" d="M294.23 192.6a.58.58 0 0 1-.63-.54 76.18 76.18 0 0 0-.34-11.87c-2.32-17.52-10.48-31.77-18.19-31.77a.58.58 0 0 1-.62-.52.58.58 0 0 1 .62-.53c8.47 0 17 14.37 19.43 32.71a76.89 76.89 0 0 1 .35 12 .58.58 0 0 1-.62.52Z"/><path class="cls-36" d="M263.68 157.18a43.24 43.24 0 0 0 2.3-8.6l13.4 4.8-1.94 7.31c-2.29 7.19-15.68 2.08-13.76-3.51Z"/><path class="cls-37" d="M281 154.74c-.57 2.74 3.28 12.87-1.6 14.76-6.32 2.37-14.8-12.66-13.27-15.67l4.41-4.33Z"/><path class="cls-36" d="M272.66 135.81c-6.19.06-9.73 2.58-10 8.16.17 5.86 2.33 11 7.79 14.23a13.57 13.57 0 0 0 10.63 1.94c3.55-1 3.42-7.18 4-12.83.92-5.7-5.45-9.94-12.42-11.5Z"/><path d="M284.63 144.21c-1.4 2.85-7.95 6-13.95 3.75l-.7 4.65-2.68-1.16c-.66 1.4-1.33 2.78-2.46 2.28l-.92-1.12c-3.69-4.61-4.07-13.16 3.77-16.35 9.22-3.05 18.04 3.89 16.94 7.95Z"/><path class="cls-36" d="M266.44 153.45a4.93 4.93 0 0 1-1.5-1.52 1.74 1.74 0 0 1 2-2.63 1.7 1.7 0 0 1 1.06 1 4 4 0 0 1 .26 1.35l.09 1.25a.93.93 0 0 1-.21.82 1 1 0 0 1-.87.16 2.42 2.42 0 0 1-.83-.43Z"/><path class="cls-37" d="m270 148.37.18 1.73c5.16 4.49 12.53 4.42 14.51 2.1l.41-6.83Z"/><path class="cls-17" d="M261.39 145.26c2 2.49 5.21 3.92 10.39 3.69L285 143.6c-.57-4.79-6.21-9.06-13.54-8.56-7.03.47-10.15 4.59-10.07 10.22Z"/><path class="cls-17" d="M271.16 149a39.34 39.34 0 0 0 8.84 2.14 6.48 6.48 0 0 0 3.46-.49A73.54 73.54 0 0 1 291 147c.61-.22.72-.71 0-1.11-1.12-.67-3.42-1.66-6.22-3-4.21.65-8.78 2.99-13.62 6.11Z"/><path class="cls-36" d="M290.11 193.52c2.31-.28 4.31-.89 4.85-2.62l1.2 1.67a52.74 52.74 0 0 1-4.75 2.84c-.16-.13-1.3-1.89-1.3-1.89Z"/><path class="cls-38" d="m240.39 215.54 1.24.6-.5.71c.13 3 1.86 4.54 4.93 5l1.26.61-.92 1.33-.58-.28-1.37 9.57-10.15 6.12-1.26-.61-1.62-9.67c3.08-3.42 4.8-6.61 4.93-9.75a4.35 4.35 0 0 1 2.39-3.46 2 2 0 0 1 1.62-.17Z"/><path class="cls-39" d="M240 216.31c1.32-.64 2.4-.12 2.4 1.15.12 3 1.85 4.54 4.92 5l-1.61 11.23-11.41 5.51-1.62-9.67c3.08-3.42 4.81-6.61 4.93-9.75a4.35 4.35 0 0 1 2.39-3.47Z"/><path class="cls-38" d="M238.71 219.11c0 .69.58 1 1.29.63a2.36 2.36 0 0 0 1.3-1.88c0-.69-.58-1-1.3-.62a2.36 2.36 0 0 0-1.29 1.87ZM232.68 229.52l.36 9.06 19.04 9.19-2.87-10.28-16.53-7.97z"/><path d="M247.32 222.45c-5.9-2.06-10.47 1.64-14.64 7.07l16.52 8c4.93-5 9.82-8.26 14.64-7.06Z" style="fill:#e0592e"/><path class="cls-38" d="M238.71 219.11c0 .69.58 1 1.29.63a2.36 2.36 0 0 0 1.3-1.88c0-.69-.58-1-1.3-.62a2.36 2.36 0 0 0-1.29 1.87Z"/><path class="cls-38" d="m240.92 217.16-1.83 2.65 17.78 8.59 1.83-2.65-17.78-8.59z"/><path class="cls-38" d="m258.18 224.12 1.23.6-.49.71c.12 3 1.85 4.54 4.92 5l1.27.6-.92 1.33-.58-.28-1.38 9.57-10.15 6.12-1.26-.61-1.62-9.67c3.08-3.42 4.81-6.61 4.93-9.75a4.35 4.35 0 0 1 2.39-3.46 2 2 0 0 1 1.62-.17Z"/><path class="cls-39" d="M257.79 224.89c1.32-.64 2.39-.12 2.39 1.15.12 3 1.85 4.54 4.93 5l-1.62 11.23-11.41 5.51-1.61-9.67c3.07-3.42 4.8-6.61 4.92-9.75a4.34 4.34 0 0 1 2.4-3.47Z"/><path class="cls-38" d="M256.49 227.7c0 .69.58 1 1.3.62a2.36 2.36 0 0 0 1.29-1.87c0-.69-.58-1-1.29-.63a2.36 2.36 0 0 0-1.3 1.88Z"/><path class="cls-10" d="m241.62 231.56-2.25 1.69v-.84l2.25-.85z"/><path class="cls-7" d="m241.3 233.63.41 2.17-1-2.05.59-.12zM240.25 233.12l.41 2.17-1-2.05.59-.12z"/><path style="fill:#b2b2b2" d="m240.66 235.29 1.05.51-1-2.05-1.05-.51 1 2.05z"/><path class="cls-10" d="m243.41 232.44-2.24 1.7v-.85l2.24-.85z"/><path class="cls-9" d="m239.37 233.25 1.8.89v-.85l-1.8-.88v.84z"/><path class="cls-16" d="m241.17 233.29 2.24-.85-1.79-.88-2.25.85 1.8.88z"/><path class="cls-36" d="m244.38 217.66 6.31-.5s3.8 3.69 4.13 4.63a8.4 8.4 0 0 1 .14 2.15 21.72 21.72 0 0 1-2.34-1.14 2.37 2.37 0 0 0-2 1.56c-.32 1 .44 1.25 1.29 1.64l1.8.87c.26.7-4 1.67-4.66 1.95a46.66 46.66 0 0 1-6-2.83 18 18 0 0 1-1-4.52 8.17 8.17 0 0 1 2.33-3.81Z"/><path class="cls-17" d="M250.73 165.05a56.54 56.54 0 0 0-9.52 26.95c-1.53 7.26-.77 18.72 3.17 25.7 2.17 1.58 5.28.83 6.78 0 .65-9.71 1-18.53-.43-23.57l8.77-16c6.02-11.07-3.83-18.31-8.77-13.08Z"/><path class="cls-7" d="m482.54 108.48 27.32-15.74-.47 111.5-27.32 15.74.47-111.5z"/><path class="cls-8" d="m434.14 80.8 48.4 27.68-.47 111.5-48.39-27.67.46-111.51z"/><path class="cls-10" d="m482.54 108.48 27.32-15.74-48.69-27.51-27.32 15.74 48.69 27.51z"/><path class="cls-11" d="M500.55 195.76c.46-.27.82-.06.82.46a1.79 1.79 0 0 1-.83 1.42l-9.23 5.36c-.46.27-.82.06-.82-.46a1.81 1.81 0 0 1 .83-1.42ZM500.56 192.65c.46-.26.83-.05.82.47a1.82 1.82 0 0 1-.82 1.42l-9.24 5.33c-.45.26-.82 0-.82-.47a1.79 1.79 0 0 1 .83-1.41ZM500.58 189.55c.45-.26.82-.05.82.47a1.84 1.84 0 0 1-.83 1.41l-9.24 5.34c-.45.26-.82 0-.82-.47a1.86 1.86 0 0 1 .83-1.42ZM500.59 186.44c.45-.26.82-.05.82.47a1.81 1.81 0 0 1-.83 1.42l-9.23 5.33c-.46.27-.82.06-.82-.46a1.81 1.81 0 0 1 .82-1.42ZM500.6 183.34c.46-.26.82-.05.82.47a1.84 1.84 0 0 1-.82 1.42l-9.24 5.33c-.46.26-.82.05-.82-.47a1.82 1.82 0 0 1 .83-1.42ZM500.62 180.24c.45-.27.82-.06.81.46a1.81 1.81 0 0 1-.82 1.42l-9.24 5.34c-.45.26-.82 0-.82-.47a1.86 1.86 0 0 1 .83-1.42ZM500.63 177.13c.45-.26.82 0 .82.47a1.81 1.81 0 0 1-.83 1.42l-9.23 5.33c-.46.26-.83.05-.82-.47a1.8 1.8 0 0 1 .82-1.41ZM500.83 128.37c.46-.26.82-.06.82.47a1.8 1.8 0 0 1-.82 1.41l-9.24 5.34c-.45.26-.82 0-.82-.47a1.81 1.81 0 0 1 .83-1.42ZM500.85 125.26c.45-.26.82-.05.82.47a1.86 1.86 0 0 1-.83 1.42l-9.24 5.33c-.45.26-.82.05-.82-.47a1.84 1.84 0 0 1 .83-1.41ZM500.86 122.16c.45-.26.82 0 .82.47a1.82 1.82 0 0 1-.83 1.42l-9.23 5.33c-.46.26-.82.05-.82-.47a1.82 1.82 0 0 1 .82-1.42ZM500.87 119.06c.46-.27.82-.06.82.46a1.81 1.81 0 0 1-.83 1.42l-9.23 5.33c-.46.27-.82.06-.82-.46a1.81 1.81 0 0 1 .83-1.42ZM500.89 116c.45-.26.82 0 .81.47a1.82 1.82 0 0 1-.82 1.42l-9.24 5.33c-.45.26-.82 0-.82-.47a1.88 1.88 0 0 1 .83-1.42ZM500.9 112.85c.45-.26.82 0 .82.47a1.79 1.79 0 0 1-.83 1.41l-9.24 5.34c-.45.26-.82.05-.81-.47a1.82 1.82 0 0 1 .82-1.42ZM500.91 109.74c.46-.26.82 0 .82.47a1.81 1.81 0 0 1-.83 1.42l-9.23 5.37c-.46.26-.82.05-.82-.47a1.79 1.79 0 0 1 .83-1.41Z"/><path class="cls-9" d="m474.76 165.11-3.96 2.11-1.6.85-.6-.32-22.46-11.97 5.56-2.97 16.9 9.01 2.2 1.18 3.96 2.11z"/><path class="cls-10" d="m474.76 165.11-23.07-12.3V111l23.07 12.29v41.82z"/><path class="cls-27" d="m446.14 155.78 5.55-2.97V111l-5.55 2.96v41.82z"/><path class="cls-17" d="M460.89 154.79a1 1 0 0 1-.47-.11l-6.37-3.3a1.78 1.78 0 0 1-1-1.55l-.05-7.15h.55l.05 7.14a1.28 1.28 0 0 0 .71 1.12l6.36 3.3a.5.5 0 0 0 .46 0 .43.43 0 0 0 .23-.37v-9.94h.55v9.94a.92.92 0 0 1-.5.8 1 1 0 0 1-.52.12Z"/><path class="cls-17" d="M459.21 152.56a.91.91 0 0 1-.45-.11l-4.31-2.37a2.13 2.13 0 0 1-1.12-1.8l-.05-6h.55l.06 6a1.6 1.6 0 0 0 .84 1.37L459 152a.39.39 0 0 0 .38 0 .34.34 0 0 0 .19-.31l-.18-8.73h.61l.18 8.73a.88.88 0 0 1-.45.76 1 1 0 0 1-.52.11Z"/><path class="cls-13" d="M457.3 150.22a.9.9 0 0 1-.42-.1l-2-1.13a1.13 1.13 0 0 1-.6-1l-.07-5.09h.55l.07 5.1a.65.65 0 0 0 .34.55l2 1.12a.29.29 0 0 0 .28 0 .26.26 0 0 0 .14-.23V142h.55v7.45a.75.75 0 0 1-.41.67.9.9 0 0 1-.43.1Z"/><path class="cls-8" d="M454 145.46a1.06 1.06 0 0 1-1.1-1v-28.3a1.1 1.1 0 0 1 2.2 0v28.3a1.06 1.06 0 0 1-1.1 1Z"/><path class="cls-13" d="M468.48 144.12a1.52 1.52 0 0 1-.75-.19l-3.55-1.93a3.88 3.88 0 0 1-1.93-3.08v-7.51h.55V139a3.41 3.41 0 0 0 1.65 2.64l3.55 1.89a1 1 0 0 0 .95 0 .86.86 0 0 0 .47-.75V138h.58v4.73a1.34 1.34 0 0 1-.75 1.19 1.51 1.51 0 0 1-.77.2Z"/><path class="cls-17" d="M467.12 142.48a1 1 0 0 1-.5-.13l-2.45-1.35a1.94 1.94 0 0 1-1-1.55V132h.55v7.52a1.46 1.46 0 0 0 .7 1.11l2.44 1.33a.45.45 0 0 0 .45 0 .41.41 0 0 0 .22-.36l-.07-4.27h.54l.07 4.26a.89.89 0 0 1-.49.81 1.13 1.13 0 0 1-.46.08Z"/><path class="cls-13" d="M457.91 128.17h.55v13.72h-.55z"/><path class="cls-17" d="M459.99 130.24h.55v12.93h-.55z"/><path class="cls-13" d="M466 157.3a1.21 1.21 0 0 1-.61-.16l-1.5-.84a1.11 1.11 0 0 1-.6-1v-9.52h.55v9.52a.63.63 0 0 0 .33.54l1.51.84a.67.67 0 0 0 .63 0 .59.59 0 0 0 .33-.5v-3.05h.55v3a1.08 1.08 0 0 1-.61.94 1.18 1.18 0 0 1-.58.23Z"/><g class="cls-2"><path class="cls-24" d="m462.99 129.01-6.03-3.23.03 8.07 6.02 3.24-.02-8.08z"/><path class="cls-25" d="m464.15 128.39-6.02-3.23-1.17.62 6.03 3.23 1.16-.62z"/><path class="cls-26" d="m462.99 129.01.02 8.08 1.17-.62-.03-8.08-1.16.62z"/></g><path class="cls-11" d="m453.8 123.22 3.87-2.07a3.18 3.18 0 0 1 3 .27 8.5 8.5 0 0 1 4.24 6.77 2.66 2.66 0 0 1-1.24 2.52l-3.88 2.08a1.1 1.1 0 0 0 .14-.09 3.08 3.08 0 0 1-3.16-.18 8.5 8.5 0 0 1-4.24-6.78 2.67 2.67 0 0 1 1.27-2.52Z"/><path class="cls-27" d="M456.81 123.5c-2.34-1.25-4.25-.25-4.26 2.24a8.5 8.5 0 0 0 4.24 6.78c2.35 1.25 4.26.25 4.26-2.25a8.5 8.5 0 0 0-4.24-6.77Z"/><path class="cls-17" d="M453.29 125.74a7.33 7.33 0 0 0 1.64 4.24l4.33 2.3a1.93 1.93 0 0 0 1.06-2 6.88 6.88 0 0 0-1.15-3.51l-5.23-2.77a2.21 2.21 0 0 0-.65 1.74Z"/><path class="cls-11" d="m454.37 126.57 4.37 2.32c.22.12.4 0 .4-.21v-.44a.82.82 0 0 0-.4-.64l-4.37-2.33c-.22-.12-.4 0-.4.22v.43a.82.82 0 0 0 .4.65ZM454.82 127.73l3.22 1.72v-.4l-3.22-1.72v.4zM455.26 128.66l2.34 1.24v-.29l-2.34-1.25v.3z"/><g class="cls-2"><path class="cls-21" d="m457.86 142.47-1.53-.82.02 6.43 1.53.82-.02-6.43z"/><path class="cls-11" d="m457.42 144.24-.66-.36.02 2.24.66.35-.02-2.23z"/><path class="cls-14" d="m459.19 141.76-1.53-.82-1.33.71 1.53.82 1.33-.71z"/><path class="cls-15" d="m457.86 142.47.02 6.43 1.33-.71-.02-6.43-1.33.71z"/></g><path class="cls-17" d="M456.8 142.64a.61.61 0 0 0 .3.49c.17.09.31 0 .31-.17a.62.62 0 0 0-.31-.49c-.17-.09-.3-.01-.3.17ZM456.8 147.6a.61.61 0 0 0 .3.5c.17.09.31 0 .31-.17a.62.62 0 0 0-.31-.49c-.17-.09-.3-.02-.3.16Z"/><g class="cls-2"><path class="cls-22" d="M456.91 144.73a3.26 3.26 0 0 1 .53.25c-.07 0-.55-.23-.55-.23Z"/><path class="cls-22" d="m456.36 144.44.08-.07h.09l.49.26h-.1a.19.19 0 0 0-.07.06c-.07.08-.08.18 0 .22l.33.37a.38.38 0 0 0 0 .39l-.44-.23a.34.34 0 0 1 0-.42l-.34-.37s-.1-.13-.04-.21Z"/><path class="cls-23" d="M456.92 144.64a.19.19 0 0 0-.07.06c-.07.08-.08.18 0 .22l.33.37a.38.38 0 0 0 0 .39.22.22 0 0 0 .28 0s0-.71 0-.71l-.4-.34s-.06-.02-.14.01Z"/></g><g class="cls-2"><path class="cls-21" d="m459.67 143.39-1.53-.82.02 6.44 1.53.82-.02-6.44z"/><path class="cls-11" d="m459.24 145.16-.66-.35.02 2.23.66.36-.02-2.24z"/><path class="cls-14" d="m461 142.68-1.52-.82-1.34.71 1.53.82 1.33-.71z"/><path class="cls-15" d="m459.67 143.39.02 6.44 1.33-.71-.02-6.44-1.33.71z"/></g><path class="cls-17" d="M458.61 143.56a.62.62 0 0 0 .31.49c.17.09.3 0 .3-.16a.61.61 0 0 0-.3-.49c-.17-.09-.31-.02-.31.16ZM458.61 148.53a.62.62 0 0 0 .31.49c.17.09.3 0 .3-.16a.61.61 0 0 0-.3-.49c-.17-.09-.31-.02-.31.16Z"/><g class="cls-2"><path class="cls-22" d="m458.08 147 .4-.71a.44.44 0 0 1 0-.41.74.74 0 0 1 .25-.25l.48.26a.64.64 0 0 0-.24.25.45.45 0 0 0-.05.41l-.4.71v.19l-.48-.26s-.04-.1.04-.19Z"/><path class="cls-23" d="M459.25 145.9a.64.64 0 0 0-.24.25.45.45 0 0 0-.05.41l-.4.71c-.05.09 0 .18 0 .2a.14.14 0 0 0 .09 0 .27.27 0 0 0 .1-.11l.4-.71a.19.19 0 0 0 .08 0Z"/></g><g class="cls-2"><path class="cls-21" d="m461.45 144.48-1.53-.82.02 6.44 1.53.82-.02-6.44z"/><path class="cls-11" d="m461.02 146.25-.66-.35.02 2.23.66.36-.02-2.24z"/><path class="cls-14" d="m462.78 143.77-1.52-.82-1.34.71 1.53.82 1.33-.71z"/><path class="cls-15" d="m461.45 144.48.02 6.44 1.33-.71-.02-6.44-1.33.71z"/></g><path class="cls-17" d="M460.39 144.65a.62.62 0 0 0 .31.49c.17.09.3 0 .3-.16a.61.61 0 0 0-.3-.49c-.17-.09-.31-.02-.31.16ZM460.39 149.62a.62.62 0 0 0 .31.49c.17.09.3 0 .3-.16a.61.61 0 0 0-.3-.49c-.17-.09-.31-.02-.31.16Z"/><g class="cls-2"><path class="cls-22" d="M460.51 146.75a3.13 3.13 0 0 1 .52.24c-.06 0-.55-.22-.55-.22Z"/><path class="cls-22" d="M460 146.45a.19.19 0 0 1 .07-.06.12.12 0 0 1 .1 0l.49.26a.12.12 0 0 0-.1 0 .23.23 0 0 0-.12.29l.34.37a.34.34 0 0 0 0 .38 4.53 4.53 0 0 1-.45-.22.36.36 0 0 1 0-.42l-.33-.37a.19.19 0 0 1 0-.23Z"/><path class="cls-23" d="M460.52 146.65a.23.23 0 0 0-.12.29l.34.37a.34.34 0 0 0 0 .38c.06.08.17.08.28 0s0-.72 0-.72l-.4-.33s-.06-.01-.1.01Z"/></g><g class="cls-2"><path class="cls-21" d="m463.27 145.41-1.53-.82.02 6.44 1.53.81-.02-6.43z"/><path class="cls-11" d="m462.83 147.18-.65-.35.01 2.23.66.35-.02-2.23z"/><path class="cls-14" d="m464.6 144.7-1.53-.82-1.33.71 1.53.82 1.33-.71z"/><path class="cls-15" d="m463.27 145.41.02 6.43 1.33-.71-.02-6.43-1.33.71z"/></g><path class="cls-17" d="M462.21 145.58a.61.61 0 0 0 .3.49c.17.09.31 0 .31-.16a.62.62 0 0 0-.31-.49c-.17-.1-.3-.02-.3.16ZM462.21 150.55a.61.61 0 0 0 .3.49c.17.09.31 0 .31-.17a.62.62 0 0 0-.31-.49c-.17-.09-.3-.01-.3.17Z"/><g class="cls-2"><path class="cls-22" d="m461.67 149 .4-.7a.45.45 0 0 1 .05-.41.64.64 0 0 1 .24-.25l.49.26a.74.74 0 0 0-.25.25.44.44 0 0 0 0 .41l-.4.71c-.05.08 0 .16 0 .19l-.49-.26c-.08-.01-.08-.09-.04-.2Z"/><path class="cls-23" d="M462.85 147.92a.74.74 0 0 0-.25.25.44.44 0 0 0 0 .41l-.4.71c-.05.08 0 .17 0 .19a.12.12 0 0 0 .1 0 .36.36 0 0 0 .1-.11l.4-.7h.08Z"/></g><g class="cls-2"><path class="cls-8" d="m471.24 130.88-5.24-2.81.04 11.73 5.24 2.81-.04-11.73z"/><path class="cls-14" d="m473.4 129.72-5.23-2.8-2.17 1.15 5.24 2.81 2.16-1.16z"/><path class="cls-15" d="m471.24 130.88.04 11.73 2.16-1.15-.04-11.74-2.16 1.16z"/></g><g class="cls-2"><path class="cls-17" d="m470.89 139.06-5.23-2.81v.7l5.23 2.81v-.7z"/><path class="cls-14" d="m471.24 138.88-5.23-2.81-.35.18 5.23 2.81.35-.18z"/><path class="cls-15" d="M470.89 139.06v.7l.35-.19v-.69l-.35.18z"/></g><path class="cls-33" d="m470.62 135.29-1.4-.75.01 2.94 1.39.75v-2.94z"/><g class="cls-2"><path class="cls-23" d="m469.87 134.66-1.4-.75v1.12l1.4.75v-1.12z"/><path class="cls-23" d="m470.62 134.26-1.4-.75-.75.4 1.4.75.75-.4z"/><path class="cls-22" d="M469.87 134.66v1.12l.75-.4v-1.12l-.75.4z"/></g><path class="cls-33" d="m468.05 133.89-1.4-.75.01 2.94 1.39.75v-2.94z"/><g class="cls-2"><path class="cls-23" d="m467.3 136.14-1.4-.75v1.12l1.4.75v-1.12z"/><path class="cls-23" d="m468.05 135.74-1.4-.75-.75.4 1.4.75.75-.4z"/><path class="cls-22" d="M467.3 136.14v1.12l.75-.41v-1.11l-.75.4z"/></g><g class="cls-2"><path class="cls-17" d="m470.89 134.11-5.23-2.81v.7l5.23 2.81v-.7z"/><path class="cls-14" d="m471.24 133.92-5.23-2.8-.35.18 5.23 2.81.35-.19z"/><path class="cls-15" d="M470.89 134.11v.7l.35-.19v-.7l-.35.19z"/></g><path class="cls-17" d="M469.43 131.35a.92.92 0 0 0 .46.73c.26.14.46 0 .46-.24a.93.93 0 0 0-.46-.74c-.25-.1-.46-.02-.46.25ZM466.81 129.92a.93.93 0 0 0 .46.74c.25.14.46 0 .46-.25a.92.92 0 0 0-.46-.73c-.27-.14-.46-.03-.46.24ZM469.43 140.38a1 1 0 0 0 .46.74c.26.13.46 0 .46-.25a.9.9 0 0 0-.46-.73c-.25-.14-.46-.03-.46.24ZM466.81 139a.9.9 0 0 0 .46.73c.25.14.46 0 .46-.24a1 1 0 0 0-.46-.74c-.27-.17-.46-.06-.46.25Z"/><g class="cls-2"><path class="cls-17" d="m469.16 148.25-3.87-2.08.02 8.69 3.88 2.08-.03-8.69z"/><path class="cls-14" d="m468.43 148.64-2.41-1.3.03 7.13 2.4 1.29-.02-7.12zM470.76 147.39l-3.88-2.08-1.59.86 3.87 2.08 1.6-.86z"/><path class="cls-15" d="m469.16 148.25.03 8.69 1.6-.85-.03-8.7-1.6.86z"/></g><g class="cls-2"><path class="cls-16" d="m468.4 149.23-2.8-1.5v.37l2.81 1.51-.01-.38z"/><path class="cls-17" d="m468.59 149.13-2.8-1.5-.19.1 2.8 1.5.19-.1z"/><path class="cls-15" d="m468.4 149.23.01.38.18-.1v-.38l-.19.1z"/></g><g class="cls-2"><path class="cls-16" d="m468.4 150.13-2.8-1.5v.37l2.81 1.51-.01-.38z"/><path class="cls-17" d="m468.59 150.03-2.8-1.5-.19.1 2.8 1.5.19-.1z"/><path class="cls-15" d="m468.4 150.13.01.38.18-.1v-.38l-.19.1z"/></g><g class="cls-2"><path class="cls-16" d="m468.4 151.04-2.8-1.51v.38l2.81 1.5-.01-.37z"/><path class="cls-17" d="m468.59 150.94-2.8-1.51-.19.1 2.8 1.51.19-.1z"/><path class="cls-15" d="m468.4 151.04.01.37.18-.1v-.37l-.19.1z"/></g><g class="cls-2"><path class="cls-16" d="m468.4 151.94-2.8-1.5v.37l2.81 1.51-.01-.38z"/><path class="cls-17" d="m468.59 151.84-2.8-1.5-.19.1 2.8 1.5.19-.1z"/><path class="cls-15" d="m468.4 151.94.01.38.18-.1v-.38l-.19.1z"/></g><g class="cls-2"><path class="cls-16" d="m468.4 152.84-2.8-1.5v.37l2.81 1.51-.01-.38z"/><path class="cls-17" d="m468.59 152.74-2.8-1.5-.19.1 2.8 1.5.19-.1z"/><path class="cls-15" d="m468.4 152.84.01.38.18-.1v-.38l-.19.1z"/></g><g class="cls-2"><path class="cls-16" d="m468.4 153.75-2.8-1.51v.38l2.81 1.5-.01-.37z"/><path class="cls-17" d="m468.59 153.65-2.8-1.51-.19.1 2.8 1.51.19-.1z"/><path class="cls-15" d="m468.4 153.75.01.37.18-.1v-.37l-.19.1z"/></g><g class="cls-2"><path class="cls-16" d="m468.4 154.65-2.8-1.5v.37l2.81 1.51-.01-.38z"/><path class="cls-17" d="m468.59 154.55-2.8-1.51-.19.11 2.8 1.5.19-.1z"/><path class="cls-15" d="m468.4 154.65.01.38.18-.1v-.38l-.19.1z"/></g><g class="cls-2"><path class="cls-16" d="m468.4 155.55-2.8-1.5v.37l2.81 1.51-.01-.38z"/><path class="cls-17" d="m468.59 155.45-2.8-1.5-.19.1 2.8 1.5.19-.1z"/><path class="cls-15" d="m468.4 155.55.01.38.18-.1v-.38l-.19.1z"/></g><path class="cls-9" d="M470.8 121.18v7.38a1.1 1.1 0 0 1-2.2 0V120Z"/><path class="cls-27" d="m469.2 168.07 5.56-2.96v-41.82l-5.56 2.96v41.82z"/><path class="cls-9" d="m474.76 123.29-3.96 2.11-1.6.85-.6-.32-22.46-11.97 5.56-2.96 16.9 9.01 2.2 1.17 3.96 2.11z"/><path class="cls-18" d="m446.14 155.78-15.43-.48-.01-41.82 15.44.48v41.82z"/><path class="cls-10" d="M431.71 154.4v-39.96l13.42.42v39.96l-13.42-.42z"/><path class="cls-18" d="m469.2 168.07 4.2 9.77v-41.81l-4.2-9.78v41.82z"/><path class="cls-10" d="M470.21 167.89v-36.78l2.19 5.1v36.78l-2.19-5.1z"/><path class="cls-42" d="m96.54 175.78 42.02 29.89V149.9L96.54 120v55.78z"/><path class="cls-43" d="m62.59 200.64 42.02 29.89v-55.77l-42.02-29.9v55.78z"/><path class="cls-42" d="m104.61 230.53 33.95-24.86V149.9l-33.95 24.86v55.77z"/><path class="cls-44" d="m62.59 144.86 42.02 29.9 33.95-24.86L96.54 120l-33.95 24.86z"/><path class="cls-43" d="m96.82 124.97 35.98 25.74 2.1-1.53-38.08-27.1v2.89z"/><path class="cls-42" d="m68.05 146.04 28.77-21.07v-2.89l-30.77 22.54 2 1.42z"/><path class="cls-45" d="m77.33 147.26 12.74 6.69 15.89-12.26-12.74-6.68-15.89 12.25z"/><path class="cls-45" d="m76.64 147.32 13.47 7.07 16.54-12.75-13.47-7.07Zm28.64-5.57L90 153.51l-12-6.3 15.26-11.77Z"/><path class="cls-45" d="m78.42 147.79.18.18 15.76-12.32-.18-.18-15.76 12.32zM79.62 148.42l.18.18 15.76-12.33-.18-.18-15.76 12.33zM80.86 149.09l.18.18 15.76-12.33-.18-.18-15.76 12.33zM82.06 149.72l.18.18L98 137.57l-.18-.18-15.76 12.33zM83.3 150.34l.17.18 15.76-12.33-.17-.18-15.76 12.33zM84.5 150.97l.17.18 15.76-12.33-.18-.18-15.75 12.33zM85.6 151.57l.18.18 15.76-12.33-.18-.18-15.76 12.33zM86.8 152.19l.18.18 15.76-12.33-.18-.18-15.76 12.33zM87.74 152.69l.17.18 15.76-12.33-.17-.18-15.76 12.33zM88.94 153.31l.17.18 15.76-12.33-.18-.18-15.75 12.33z"/><path class="cls-45" d="m78.44 146.46 12.76 6.67.13-.2-12.75-6.68-.14.21zM79.78 145.43l12.76 6.67.13-.2-12.76-6.68-.13.21zM81.28 144.26l12.75 6.68.14-.21-12.76-6.68-.13.21zM82.61 143.23l12.76 6.68.14-.21-12.76-6.68-.14.21zM83.9 142.25l12.76 6.67.13-.2-12.75-6.68-.14.21zM85.24 141.22l12.75 6.67.14-.2-12.76-6.68-.13.21zM86.73 140.05l12.76 6.68.14-.21-12.76-6.68-.14.21zM88.07 139.02l12.76 6.68.14-.21-12.76-6.68-.14.21zM89.38 138.04l12.76 6.68.13-.21-12.75-6.68-.14.21zM90.88 136.87l12.76 6.68.13-.21-12.75-6.67-.14.2zM92.22 135.84l12.75 6.68.14-.21-12.76-6.67-.13.2z"/><path class="cls-45" d="m76.64 147.32 13.47 7.07 16.54-12.75-13.47-7.07Zm28.64-5.57L90 153.51l-12-6.3 15.26-11.76Z"/><path class="cls-45" d="m77.33 146.36 12.74 6.69 15.9-12.25-12.75-6.69-15.89 12.25z"/><path class="cls-45" d="m76.64 146.42 13.48 7.07 16.53-12.75-13.47-7.07Zm28.64-5.57L90 152.61l-12-6.3 15.26-11.76Z"/><path class="cls-45" d="m78.42 146.9.18.17 15.76-12.32-.18-.18-15.76 12.33zM79.62 147.52l.18.18 15.76-12.33-.18-.18-15.76 12.33zM80.86 148.2l.18.18 15.76-12.33-.18-.18-15.76 12.33zM82.06 148.82l.18.18L98 136.67l-.18-.18-15.76 12.33zM83.3 149.44l.18.18 15.75-12.33-.17-.17-15.76 12.32zM84.5 150.07l.17.18 15.76-12.33-.17-.18-15.76 12.33zM85.6 150.67l.18.18 15.76-12.33-.18-.18-15.76 12.33zM86.8 151.29l.18.18 15.76-12.33-.18-.18-15.76 12.33zM87.74 151.79l.17.18 15.76-12.33-.17-.18-15.76 12.33zM88.94 152.41l.17.18 15.76-12.33-.18-.18-15.75 12.33z"/><path class="cls-45" d="m78.44 145.56 12.76 6.67.13-.2-12.75-6.68-.14.21zM79.78 144.53l12.76 6.67.13-.2-12.75-6.68-.14.21zM81.28 143.36l12.75 6.68.14-.21-12.76-6.68-.13.21zM82.61 142.33l12.76 6.68.14-.21-12.76-6.68-.14.21zM83.9 141.35l12.76 6.68.13-.21-12.75-6.68-.14.21zM85.24 140.32 98 147l.13-.21-12.76-6.68-.13.21zM86.74 139.15l12.75 6.68.14-.21-12.76-6.68-.13.21zM88.07 138.12l12.76 6.68.14-.21-12.76-6.68-.14.21zM89.38 137.14l12.76 6.68.14-.21-12.76-6.67-.14.2zM90.88 135.97l12.76 6.68.13-.2-12.75-6.68-.14.2zM92.22 134.94l12.75 6.68.14-.2-12.76-6.68-.13.2z"/><path class="cls-45" d="m76.64 146.42 13.47 7.07 16.54-12.75-13.47-7.07Zm28.64-5.57L90 152.62l-12-6.31 15.26-11.76ZM76.64 147.32l.97-.39-.97-.51v.9zM90.11 154.39l16.54-12.75v-.9l-16.54 12.75v.9z"/><path class="cls-46" d="M95.58 145a1.18 1.18 0 0 0-1.3 0 .53.53 0 0 0 0 .92 1.18 1.18 0 0 0 1.3 0 .53.53 0 0 0 0-.92Z"/><path class="cls-46" d="M94.01 138.58h1.84v6.9h-1.84zM87.23 151a1.18 1.18 0 0 0-1.3 0 .53.53 0 0 0 0 .92 1.18 1.18 0 0 0 1.3 0 .53.53 0 0 0 0-.92Z"/><path class="cls-46" d="M85.66 144.59h1.84v6.9h-1.84z"/><path class="cls-47" d="m73.31 144.58 10.66 7.77 13.31-14.23-10.67-7.76-13.3 14.22z"/><path class="cls-47" d="m72.73 144.65 11.27 8.2 13.84-14.79-11.27-8.21Zm24-6.47-12.79 13.66-10.06-7.32 12.77-13.65Z"/><path class="cls-47" d="m74.22 145.2.15.21 13.19-14.31-.15-.21-13.19 14.31zM75.23 145.92l.15.21 13.19-14.31-.15-.2-13.19 14.3zM76.27 146.71l.15.21 13.19-14.31-.15-.21-13.19 14.31zM77.27 147.43l.15.21 13.19-14.31-.15-.21-13.19 14.31zM78.31 148.16l.14.21 13.19-14.31-.14-.21-13.19 14.31zM79.31 148.88l.15.21 13.19-14.31-.15-.21-13.19 14.31zM80.23 149.58l.15.2 13.19-14.3-.14-.21-13.2 14.31zM81.24 150.3l.15.21 13.19-14.31-.15-.21-13.19 14.31zM82.02 150.88l.15.21 13.19-14.31-.15-.21-13.19 14.31zM83.03 151.6l.14.21 13.2-14.31-.15-.21-13.19 14.31z"/><path class="cls-47" d="m74.24 143.65 10.68 7.75.11-.24-10.68-7.75-.11.24zM75.36 142.45l10.68 7.75.11-.24-10.68-7.75-.11.24zM76.61 141.1l10.68 7.74.12-.23-10.68-7.75-.12.24zM77.73 139.9l10.68 7.75.12-.24-10.68-7.75-.12.24zM78.81 138.76l10.68 7.75.11-.24-10.68-7.75-.11.24zM79.93 137.57l10.68 7.75.11-.24-10.68-7.75-.11.24zM81.18 136.21l10.68 7.75.12-.24-10.68-7.75-.12.24zM82.3 135.02l10.68 7.75.12-.24-10.68-7.75-.12.24zM83.4 133.88l10.68 7.75.11-.24-10.68-7.75-.11.24zM84.65 132.52l10.68 7.75.11-.24-10.67-7.74-.12.23zM85.77 131.33l10.68 7.75.11-.24-10.67-7.75-.12.24z"/><path class="cls-47" d="M72.73 144.65 84 152.86l13.84-14.8-11.28-8.21Zm24-6.46-12.79 13.65-10.06-7.32 12.77-13.65Z"/><path class="cls-48" d="m73.31 143.54 10.66 7.76 13.31-14.22-10.67-7.77-13.3 14.23z"/><path class="cls-49" d="M72.73 143.6 84 151.81 97.85 137l-11.27-8.2Zm24-6.46-12.79 13.65-10.06-7.31 12.77-13.66Z"/><path class="cls-50" d="m74.22 144.16.15.21 13.19-14.31-.15-.21-13.19 14.31zM75.23 144.88l.15.21 13.19-14.31-.15-.21-13.19 14.31zM76.27 145.67l.15.2 13.19-14.31-.15-.2-13.19 14.31zM77.27 146.39l.15.21 13.19-14.31-.15-.21-13.19 14.31zM78.31 147.11l.14.21 13.2-14.31-.15-.2-13.19 14.3zM79.31 147.84l.15.2 13.19-14.3-.15-.21-13.19 14.31zM80.23 148.53l.15.21 13.2-14.31-.15-.2-13.2 14.3zM81.24 149.26l.15.21 13.19-14.31-.15-.21-13.19 14.31zM82.02 149.84l.15.2 13.19-14.3-.15-.21-13.19 14.31zM83.03 150.56l.14.21 13.2-14.31-.15-.21-13.19 14.31z"/><path class="cls-50" d="m74.24 142.6 10.68 7.75.11-.24-10.68-7.75-.11.24zM75.36 141.41l10.68 7.75.11-.24-10.68-7.75-.11.24zM76.61 140.05l10.68 7.75.12-.24-10.68-7.75-.12.24zM77.73 138.86l10.68 7.75.12-.24-10.68-7.75-.12.24zM78.81 137.72l10.68 7.75.11-.24-10.68-7.75-.11.24zM79.93 136.52l10.68 7.75.11-.24-10.68-7.75-.11.24zM81.18 135.17l10.68 7.75.12-.24-10.68-7.75-.12.24zM82.3 133.97l10.68 7.75.12-.24-10.68-7.75-.12.24zM83.4 132.84l10.68 7.75.11-.24-10.68-7.75-.11.24zM84.65 131.48l10.68 7.75.11-.24-10.67-7.75-.12.24zM85.77 130.29l10.68 7.75.11-.24-10.67-7.75-.12.24z"/><path class="cls-51" d="m72.73 143.61 11.27 8.2L97.85 137l-11.28-8.2Zm24-6.47-12.79 13.65-10.06-7.31 12.77-13.66Z"/><path class="cls-47" d="m72.73 144.65.81-.46-.81-.58v1.04z"/><path class="cls-52" d="m84.01 152.86 13.84-14.8v-1.05l-13.84 14.8v1.05z"/><path class="cls-45" d="m93.6 158.8 12.74 6.69 15.9-12.26-12.74-6.69-15.9 12.26z"/><path class="cls-45" d="m92.91 158.85 13.48 7.07 16.53-12.75-13.47-7.07Zm28.64-5.57-15.25 11.77-12-6.31L109.54 147Z"/><path class="cls-45" d="m94.69 159.33.18.18 15.76-12.33-.18-.18-15.76 12.33zM95.89 159.95l.18.18 15.76-12.33-.18-.18-15.76 12.33zM97.14 160.63l.17.18 15.76-12.33-.18-.18-15.75 12.33zM98.33 161.25l.18.18 15.76-12.33-.18-.18-15.76 12.33zM99.57 161.88l.18.18 15.76-12.33-.18-.18-15.76 12.33zM100.77 162.5l.18.18 15.76-12.33-.18-.18-15.76 12.33zM101.88 163.1l.17.18 15.76-12.33-.18-.18-15.75 12.33zM103.08 163.72l.17.18 15.76-12.33-.18-.17-15.75 12.32zM104.01 164.22l.18.18 15.76-12.33-.18-.17-15.76 12.32zM105.21 164.85l.18.18 15.76-12.33-.18-.18-15.76 12.33z"/><path class="cls-45" d="m94.71 157.99 12.76 6.68.14-.21-12.76-6.68-.14.21zM96.05 156.96l12.76 6.68.13-.21-12.75-6.68-.14.21zM97.55 155.79l12.76 6.68.13-.21-12.75-6.67-.14.2zM98.89 154.76l12.75 6.68.14-.2-12.76-6.68-.13.2zM100.17 153.78l12.76 6.68.14-.21-12.76-6.68-.14.21zM101.51 152.75l12.76 6.68.13-.21-12.75-6.68-.14.21zM103.01 151.58l12.76 6.68.13-.2-12.76-6.68-.13.2zM104.35 150.55l12.75 6.68.14-.2-12.76-6.68-.13.2zM105.65 149.57l12.76 6.68.14-.2-12.76-6.68-.14.2zM107.15 148.41l12.76 6.68.14-.21-12.76-6.68-.14.21zM108.49 147.38l12.76 6.68.13-.21-12.75-6.68-.14.21z"/><path class="cls-45" d="m92.91 158.85 13.48 7.08 16.53-12.76-13.47-7.07Zm28.64-5.57-15.25 11.77-12-6.31L109.54 147Z"/><path class="cls-45" d="m93.6 157.9 12.74 6.69 15.9-12.26-12.74-6.69-15.9 12.26z"/><path class="cls-45" d="m92.92 158 13.47 7 16.53-12.76-13.47-7.07Zm28.63-5.57-15.25 11.72-12-6.31 15.25-11.76Z"/><path class="cls-45" d="m94.69 158.43.18.18 15.76-12.33-.18-.18-15.76 12.33zM95.89 159.05l.18.18 15.76-12.33-.18-.18-15.76 12.33zM97.14 159.73l.17.18 15.76-12.33-.18-.18-15.75 12.33zM98.33 160.35l.18.18 15.76-12.33-.18-.18-15.76 12.33zM99.57 160.98l.18.18 15.76-12.33-.18-.18-15.76 12.33zM100.77 161.6l.18.18 15.76-12.33-.18-.18-15.76 12.33zM101.88 162.2l.17.18 15.76-12.33-.18-.18-15.75 12.33zM103.08 162.82l.17.18 15.76-12.32-.18-.18-15.75 12.32zM104.01 163.33l.18.17 15.76-12.32-.18-.18-15.76 12.33zM105.21 163.95l.18.18 15.76-12.33-.18-.18-15.76 12.33z"/><path class="cls-45" d="m94.72 157.09 12.75 6.68.14-.21-12.76-6.68-.13.21zM96.05 156.06l12.76 6.68.14-.21-12.76-6.67-.14.2zM97.55 154.89l12.76 6.68.13-.2-12.75-6.68-.14.2zM98.89 153.86l12.76 6.68.13-.2-12.75-6.68-.14.2zM100.17 152.88l12.76 6.68.14-.21-12.76-6.67-.14.2zM101.51 151.85l12.76 6.68.14-.21-12.76-6.67-.14.2zM103.01 150.69l12.76 6.67.13-.2-12.75-6.68-.14.21zM104.35 149.66l12.76 6.67.13-.2-12.76-6.68-.13.21zM105.66 148.68l12.75 6.67.14-.2-12.76-6.68-.13.21zM107.15 147.51l12.76 6.68.14-.21-12.76-6.68-.14.21zM108.49 146.48l12.76 6.68.13-.21-12.75-6.68-.14.21z"/><path class="cls-45" d="m92.91 158 13.48 7 16.53-12.75-13.47-7.08Zm28.64-5.56-15.25 11.71-12-6.31 15.25-11.76Z"/><path class="cls-45" d="m92.91 158.85.97-.39-.97-.5v.89zM106.39 165.93l16.53-12.75v-.9l-16.53 12.75v.9z"/><path class="cls-46" d="M111.86 156.56a1.18 1.18 0 0 0-1.3 0 .53.53 0 0 0 0 .92 1.18 1.18 0 0 0 1.3 0 .53.53 0 0 0 0-.92Z"/><path class="cls-46" d="M110.29 150.12h1.84v6.9h-1.84zM103.5 162.56a1.18 1.18 0 0 0-1.3 0 .54.54 0 0 0 0 .93 1.22 1.22 0 0 0 1.3 0 .54.54 0 0 0 0-.93Z"/><path class="cls-46" d="M101.93 156.12h1.84v6.9h-1.84z"/><path class="cls-47" d="m89.58 156.12 10.67 7.76 13.3-14.23-10.66-7.76-13.31 14.23z"/><path class="cls-47" d="m89 156.18 11.28 8.21 13.84-14.8-11.28-8.21Zm24-6.46-12.77 13.65-10-7.32 12.76-13.65Z"/><path class="cls-47" d="m90.5 156.73.14.21 13.19-14.31-.14-.2-13.19 14.3zM91.5 157.46l.15.2 13.19-14.3-.15-.21-13.19 14.31zM92.54 158.24l.15.21 13.19-14.31-.15-.21-13.19 14.31zM93.54 158.97l.15.2 13.19-14.3-.15-.21-13.19 14.31zM94.58 159.69l.15.21 13.19-14.31-.15-.21-13.19 14.31zM95.58 160.41l.15.21 13.19-14.31-.15-.2-13.19 14.3zM96.51 161.11l.15.21 13.19-14.31-.15-.21-13.19 14.31zM97.51 161.83l.15.21 13.19-14.31-.15-.2-13.19 14.3zM98.3 162.41l.14.21 13.2-14.31-.15-.2-13.19 14.3zM99.3 163.14l.15.2 13.19-14.3-.15-.21-13.19 14.31z"/><path class="cls-47" d="m90.51 155.18 10.68 7.75.12-.24-10.68-7.75-.12.24zM91.63 153.99l10.68 7.74.12-.23-10.68-7.75-.12.24zM92.89 152.63l10.68 7.75.11-.24L93 152.39l-.11.24zM94.01 151.44l10.68 7.74.11-.23-10.68-7.75-.11.24zM95.08 150.29l10.68 7.75.12-.23-10.68-7.75-.12.23zM96.2 149.1l10.68 7.75.12-.24-10.68-7.75-.12.24zM97.46 147.75l10.68 7.75.11-.24-10.68-7.75-.11.24zM98.58 146.55l10.68 7.75.11-.24-10.68-7.75-.11.24zM99.67 145.41l10.68 7.75.11-.24-10.68-7.75-.11.24zM100.92 144.06l10.68 7.75.12-.24-10.68-7.75-.12.24zM102.05 142.86l10.67 7.75.12-.23-10.68-7.75-.11.23z"/><path class="cls-47" d="m89 156.18 11.27 8.21 13.85-14.8-11.28-8.21Zm24-6.46-12.77 13.65-10.06-7.32 12.77-13.65Z"/><path class="cls-48" d="m89.58 155.07 10.67 7.77 13.3-14.23-10.66-7.76-13.31 14.22z"/><path class="cls-49" d="m89 155.14 11.28 8.21 13.84-14.8-11.28-8.21Zm24-6.46-12.77 13.65-10-7.32 12.76-13.65Z"/><path class="cls-50" d="m90.5 155.69.14.21 13.2-14.31-.15-.21-13.19 14.31zM91.5 156.41l.15.21 13.19-14.31-.15-.2-13.19 14.3zM92.54 157.2l.15.21 13.19-14.31-.15-.21-13.19 14.31zM93.54 157.92l.15.21 13.19-14.31-.14-.21-13.2 14.31zM94.58 158.65l.15.21 13.19-14.31-.15-.21-13.19 14.31zM95.58 159.37l.15.21 13.19-14.31-.14-.21-13.2 14.31zM96.51 160.07l.15.21 13.19-14.31-.15-.21-13.19 14.31zM97.51 160.79l.15.21 13.19-14.31-.15-.21-13.19 14.31zM98.3 161.37l.14.21 13.2-14.31-.15-.21-13.19 14.31zM99.3 162.09l.15.21 13.19-14.31-.15-.2-13.19 14.3z"/><path class="cls-50" d="m90.51 154.14 10.68 7.75.12-.24-10.68-7.75-.12.24zM91.63 152.94l10.68 7.75.12-.24-10.68-7.75-.12.24zM92.89 151.59l10.68 7.75.11-.24L93 151.35l-.11.24zM94.01 150.39l10.68 7.75.11-.24-10.68-7.75-.11.24zM95.08 149.25l10.68 7.75.12-.24-10.68-7.75-.12.24zM96.2 148.06l10.68 7.75.12-.24-10.68-7.75-.12.24zM97.46 146.7l10.68 7.75.11-.24-10.68-7.75-.11.24zM98.58 145.51l10.68 7.75.11-.24-10.68-7.75-.11.24zM99.67 144.37l10.68 7.75.12-.24-10.68-7.75-.12.24zM100.93 143.01l10.68 7.75.11-.23-10.68-7.75-.11.23zM102.05 141.82l10.67 7.75.12-.24-10.68-7.75-.11.24z"/><path class="cls-51" d="m89 155.14 11.28 8.21 13.84-14.8-11.28-8.21Zm24-6.46-12.77 13.65L90.15 155l12.77-13.65Z"/><path class="cls-47" d="m89.01 156.18.8-.45-.8-.59v1.04z"/><path class="cls-52" d="m100.28 164.39 13.85-14.8v-1.04l-13.85 14.8v1.04z"/><path class="cls-53" d="m113.81 183.97 15.96-11.36v-9.45l-15.96 11.35v9.46z"/><path class="cls-54" d="M117.23 186.36 133.19 175v-9.45l-15.96 11.35v9.46z"/><path class="cls-53" d="m113.81 183.97 3.42 2.39v-9.46l-3.42-2.39v9.46z"/><path class="cls-55" d="m113.81 174.51 3.42 2.39 15.96-11.35-3.42-2.39-15.96 11.35z"/><path class="cls-56" d="M121.47 174.31a8.62 8.62 0 0 0-3 6.34c0 2.33 1.33 3.27 3 2.11a8.61 8.61 0 0 0 3-6.34c-.03-2.33-1.36-3.27-3-2.11Z"/><path class="cls-57" d="M121.48 174.84a7.6 7.6 0 0 0-2.62 5.6c0 2.06 1.17 2.9 2.62 1.87a7.61 7.61 0 0 0 2.63-5.6c0-2.07-1.18-2.9-2.63-1.87Z"/><path class="cls-58" d="M122 174.84a7.6 7.6 0 0 0-2.62 5.6c0 2.06 1.17 2.9 2.62 1.87a7.6 7.6 0 0 0 2.62-5.6c-.03-2.07-1.2-2.9-2.62-1.87Z"/><path class="cls-56" d="M129.35 168.88a8.61 8.61 0 0 0-3 6.34c0 2.33 1.33 3.27 3 2.11a8.6 8.6 0 0 0 3-6.33c-.03-2.34-1.35-3.28-3-2.12Z"/><path class="cls-59" d="M129.36 169.41a7.6 7.6 0 0 0-2.62 5.6c0 2.06 1.17 2.9 2.62 1.87a7.61 7.61 0 0 0 2.63-5.6c.01-2.07-1.18-2.9-2.63-1.87Z"/><path class="cls-60" d="M129.85 169.41a7.6 7.6 0 0 0-2.62 5.6c0 2.06 1.17 2.9 2.62 1.87a7.61 7.61 0 0 0 2.63-5.6c0-2.07-1.18-2.9-2.63-1.87Z"/><path class="cls-61" d="m128.88 212.6 5.38-3.81v-18.84l-5.38 3.81v18.84z"/><path class="cls-62" d="M128.88 211.55v1.15l5.38-3.91-.75-.52-4.63 3.28zM133.51 208.26l.75.53v-18.84l-.75.53v17.78z"/><path class="cls-61" d="m123.5 216.43 5.38-3.81v-18.84l-5.38 3.81v18.84z"/><path class="cls-62" d="M123.5 215.38v1.24l5.44-3.96-.81-.56-4.63 3.28z"/><path class="cls-62" d="m128.13 212.1.75.52v-18.84l-.75.53v17.79z"/><path class="cls-63" d="m129.13 211.38 1.33-.95 3.05-19.95-1.02.73-3.36 20.17zM123.5 215.38l1.33-.94 3.05-19.96-1.02.73-3.36 20.17z"/><path class="cls-61" d="m118.14 220.43 5.38-3.81v-18.84l-5.38 3.81v18.84z"/><path class="cls-62" d="M118.14 219.38v1.15l5.38-3.91-.75-.52-4.63 3.28z"/><path class="cls-62" d="m122.77 216.1.75.52v-18.84l-.75.53v17.79z"/><path class="cls-61" d="m112.75 224.26 5.39-3.81v-18.83l-5.39 3.8v18.84z"/><path class="cls-62" d="M112.75 223.21v1.24l5.44-3.96-.81-.56-4.63 3.28zM117.38 219.93l.76.52v-18.83l-.76.52v17.79z"/><path class="cls-63" d="m118.39 219.21 1.32-.95 3.06-19.95-1.02.73-3.36 20.17zM112.75 223.21l1.33-.94 3.06-19.96-1.02.73-3.37 20.17z"/><path class="cls-61" d="m65.89 160.05 36.02 26.27v-7.68l-36.02-26.21v7.62z"/><path class="cls-63" d="m66.29 154.5 23.83 22.71 2.14 1.56-25.97-25.01v.74zM79.47 162.82l-2.06-1.5 23.85 24.01.34.25-.04-.25-22.09-22.51z"/><path class="cls-62" d="m65.89 160.05 36 26.27v-7.68l-36-26.21Zm.35-6.85 35.32 25.69v6.65L66.24 159.8Z"/><path class="cls-62" d="m70.28 163.34.36.26v-7.63l-.36-.26v7.63zM76.68 168l.36.26v-7.63l-.36-.26V168zM82.82 172.47l.36.26v-7.64l-.36-.25v7.63zM89.22 177.11l.35.26v-7.63l-.35-.26v7.63zM95.72 181.82l.36.26v-7.63l-.36-.26v7.63z"/><path class="cls-61" d="m65.89 167.28 36.02 26.26v-7.67l-36.02-26.22v7.63z"/><path class="cls-63" d="m66.29 161.73 23.83 22.71 2.14 1.56-25.97-25.01v.74zM79.47 170.05l-2.06-1.5 23.85 24.01.34.25-.04-.25-22.09-22.51z"/><path class="cls-62" d="m65.89 167.28 36 26.26v-7.67l-36-26.22Zm.35-6.86 35.32 25.7v6.65L66.24 167Z"/><path class="cls-62" d="m70.28 170.57.36.26v-7.63l-.36-.26v7.63zM76.68 175.23l.36.26v-7.63l-.36-.26v7.63zM82.82 179.7l.36.26v-7.64l-.36-.26v7.64zM89.22 184.34l.35.26v-7.63l-.35-.26v7.63zM95.72 189.05l.36.26v-7.63l-.36-.26v7.63z"/><path class="cls-61" d="m65.59 181.55 36.02 26.26v-7.67l-36.02-26.22v7.63z"/><path class="cls-63" d="m65.99 176 23.83 22.71 2.14 1.56-25.97-25.01v.74zM79.17 184.32l-2.07-1.51 23.86 24.01.34.26-.04-.26-22.09-22.5z"/><path class="cls-62" d="m65.59 181.55 36 26.26v-7.67l-36-26.22Zm.35-6.86 35.31 25.7V207l-35.31-25.7Z"/><path class="cls-62" d="m69.98 184.84.36.26v-7.64l-.36-.25v7.63zM76.38 189.5l.35.26v-7.63l-.35-.26v7.63zM82.52 193.97l.36.26v-7.64l-.36-.26v7.64zM88.91 198.61l.36.26v-7.63l-.36-.26v7.63zM95.42 203.32l.36.26v-7.64l-.36-.25v7.63z"/><path class="cls-61" d="m65.59 188.78 36.02 26.26v-7.67l-36.02-26.22v7.63z"/><path class="cls-63" d="m65.99 183.23 23.83 22.71 2.14 1.56-25.97-25.01v.74zM79.17 191.55l-2.07-1.51 23.86 24.02.34.25-.04-.25-22.09-22.51z"/><path class="cls-62" d="m65.59 188.78 36 26.26v-7.67l-36-26.22Zm.35-6.86 35.31 25.7v6.65l-35.31-25.74Z"/><path class="cls-62" d="m69.98 192.07.36.26v-7.64l-.36-.26v7.64zM76.38 196.73l.35.26v-7.64l-.35-.25v7.63zM82.52 201.2l.36.26v-7.64l-.36-.26v7.64zM88.91 205.84l.36.26v-7.63l-.36-.26v7.63zM95.42 210.55l.36.26v-7.63l-.36-.27v7.64z"/><path class="cls-42" d="m172.69 139.25 42.02 29.89v-55.77l-42.02-29.9v55.78z"/><path class="cls-43" d="M138.75 164.11 180.77 194v-55.77l-42.02-29.9v55.78z"/><path class="cls-42" d="m180.77 194 33.94-24.86v-55.77l-33.94 24.86V194z"/><path class="cls-44" d="m138.75 108.33 42.02 29.9 33.94-24.86-42.02-29.9-33.94 24.86z"/><path class="cls-43" d="m172.97 88.44 35.99 25.74 2.1-1.53-38.09-27.1v2.89z"/><path class="cls-42" d="m144.21 109.51 28.76-21.07v-2.89l-30.76 22.53 2 1.43z"/><path class="cls-45" d="m153.48 110.73 12.75 6.69 15.89-12.26-12.74-6.69-15.9 12.26z"/><path class="cls-45" d="m152.8 110.79 13.47 7.07 16.54-12.75L169.33 98Zm28.64-5.57L166.18 117l-12-6.3 15.25-11.77Z"/><path class="cls-45" d="m154.58 111.27.17.17 15.76-12.33-.17-.17-15.76 12.33zM155.78 111.89l.17.18 15.76-12.33-.18-.18-15.75 12.33zM157.02 112.56l.18.18 15.75-12.33-.17-.18-15.76 12.33zM158.22 113.19l.18.18 15.75-12.33-.17-.18-15.76 12.33zM159.46 113.81l.17.18 15.76-12.33-.18-.18-15.75 12.33zM160.65 114.44l.18.17 15.76-12.33-.18-.17-15.76 12.33zM161.76 115.04l.18.18 15.75-12.33-.17-.18-15.76 12.33zM162.96 115.66l.18.18 15.75-12.33-.17-.18-15.76 12.33zM163.89 116.16l.18.18 15.76-12.33-.18-.18-15.76 12.33zM165.09 116.78l.18.18 15.76-12.33-.18-.18-15.76 12.33z"/><path class="cls-45" d="m154.6 109.92 12.75 6.68.14-.2-12.76-6.68-.13.2zM155.94 108.89l12.75 6.68.14-.2-12.76-6.68-.13.2zM157.43 107.73l12.76 6.68.14-.21-12.76-6.68-.14.21zM158.77 106.7l12.76 6.68.13-.21-12.75-6.68-.14.21zM160.06 105.72l12.75 6.67.14-.2-12.76-6.68-.13.21zM161.39 104.69l12.76 6.67.14-.2-12.76-6.68-.14.21zM162.89 103.52l12.76 6.68.14-.21-12.76-6.68-.14.21zM164.23 102.49l12.76 6.68.13-.21-12.75-6.68-.14.21zM165.54 101.51l12.75 6.68.14-.21-12.76-6.68-.13.21zM167.03 100.34l12.76 6.68.14-.21-12.76-6.67-.14.2zM168.37 99.31l12.76 6.68.14-.21-12.76-6.67-.14.2z"/><path class="cls-45" d="m152.8 110.79 13.47 7.07 16.54-12.75L169.33 98Zm28.63-5.57L166.18 117l-12-6.3 15.25-11.77Z"/><path class="cls-45" d="m153.49 109.83 12.74 6.69 15.89-12.25-12.74-6.69-15.89 12.25z"/><path class="cls-45" d="m152.8 109.89 13.47 7.11 16.54-12.75-13.48-7.07Zm28.64-5.57-15.26 11.76-12-6.3L169.42 98Z"/><path class="cls-45" d="m154.58 110.37.17.18 15.76-12.33-.17-.18-15.76 12.33zM155.78 110.99l.18.18 15.75-12.33-.17-.18-15.76 12.33zM157.02 111.67l.18.17 15.76-12.32-.18-.18-15.76 12.33zM158.22 112.29l.18.18 15.76-12.33-.18-.18-15.76 12.33zM159.46 112.91l.17.18 15.76-12.33-.18-.18-15.75 12.33zM160.66 113.54l.17.18 15.76-12.33-.18-.18-15.75 12.33zM161.76 114.14l.18.18 15.76-12.33-.18-.18-15.76 12.33zM162.96 114.76l.18.18 15.76-12.33-.18-.18-15.76 12.33zM163.89 115.26l.18.18 15.76-12.33-.18-.18-15.76 12.33zM165.09 115.88l.18.18 15.76-12.33-.18-.18-15.76 12.33z"/><path class="cls-45" d="m154.6 109.03 12.75 6.67.14-.2-12.76-6.68-.13.21zM155.94 108l12.75 6.67.14-.2-12.76-6.68-.13.21zM157.43 106.83l12.76 6.68.14-.21-12.76-6.68-.14.21zM158.77 105.8l12.76 6.68.14-.21-12.76-6.68-.14.21zM160.06 104.82l12.75 6.68.14-.21-12.76-6.68-.13.21zM161.4 103.79l12.75 6.68.14-.21-12.76-6.68-.13.21zM162.89 102.62l12.76 6.68.14-.21-12.76-6.68-.14.21zM164.23 101.59l12.76 6.68.14-.21-12.76-6.67-.14.2zM165.54 100.61l12.75 6.68.14-.21-12.75-6.67-.14.2zM167.04 99.44l12.75 6.68.14-.2-12.76-6.68-.13.2zM168.38 98.41l12.75 6.68.14-.2-12.76-6.68-.13.2z"/><path class="cls-45" d="m152.8 109.89 13.47 7.11 16.54-12.75-13.48-7.07Zm28.64-5.57-15.26 11.76-12-6.3L169.42 98ZM152.8 110.79l.96-.39-.96-.51v.9z"/><path class="cls-45" d="m166.27 117.86 16.54-12.75v-.9l-16.54 12.75v.9z"/><path class="cls-46" d="M171.74 108.49a1.22 1.22 0 0 0-1.3 0 .54.54 0 0 0 0 .93 1.18 1.18 0 0 0 1.3 0 .54.54 0 0 0 0-.93Z"/><path class="cls-46" d="M170.17 102.05h1.84v6.9h-1.84zM163.39 114.5a1.18 1.18 0 0 0-1.3 0 .53.53 0 0 0 0 .92 1.18 1.18 0 0 0 1.3 0 .53.53 0 0 0 0-.92Z"/><path class="cls-46" d="M161.82 108.06h1.84v6.9h-1.84z"/><path class="cls-47" d="m149.47 108.05 10.66 7.76 13.31-14.22-10.67-7.76-13.3 14.22z"/><path class="cls-47" d="m148.89 108.12 11.28 8.2L174 101.53l-11.28-8.21Zm24-6.47-12.77 13.66L150 108l12.77-13.65Z"/><path class="cls-47" d="m150.38 108.67.15.21 13.19-14.31-.15-.21-13.19 14.31zM151.38 109.39l.15.21 13.19-14.31-.15-.21-13.19 14.31zM152.42 110.18l.15.21 13.19-14.31-.14-.21-13.2 14.31zM153.43 110.9l.15.21 13.19-14.31-.15-.21-13.19 14.31zM154.46 111.63l.15.2 13.19-14.3-.15-.21-13.19 14.31zM155.47 112.35l.15.21 13.19-14.31-.15-.21-13.19 14.31zM156.39 113.05l.15.2 13.19-14.3-.15-.21-13.19 14.31zM157.4 113.77l.14.21 13.2-14.31-.15-.21-13.19 14.31zM158.18 114.35l.15.21 13.19-14.31-.15-.21-13.19 14.31zM159.18 115.07l.15.21 13.19-14.31-.15-.21-13.19 14.31z"/><path class="cls-47" d="m150.4 107.11 10.67 7.75.12-.23-10.68-7.75-.11.23zM151.52 105.92l10.68 7.75.11-.24-10.68-7.75-.11.24zM152.77 104.57l10.68 7.74.11-.23-10.68-7.75-.11.24zM153.89 103.37l10.68 7.75.11-.24-10.68-7.75-.11.24zM154.97 102.23l10.68 7.75.11-.24-10.68-7.75-.11.24zM156.09 101.03l10.67 7.75.12-.23-10.68-7.75-.11.23zM157.34 99.68l10.68 7.75.11-.24-10.67-7.75-.12.24zM158.46 98.49l10.68 7.74.11-.23-10.68-7.75-.11.24zM159.56 97.35l10.67 7.75.12-.24-10.68-7.75-.11.24zM160.81 95.99l10.68 7.75.11-.24-10.68-7.75-.11.24zM161.93 94.8l10.68 7.75.11-.24-10.68-7.75-.11.24z"/><path class="cls-47" d="m148.89 108.12 11.28 8.21 13.83-14.8-11.28-8.21Zm24-6.46-12.77 13.65L150 108l12.77-13.65Z"/><path class="cls-48" d="m149.47 107.01 10.66 7.76 13.31-14.22-10.67-7.77-13.3 14.23z"/><path class="cls-49" d="m148.89 107.07 11.28 8.21 13.83-14.8-11.28-8.21Zm24-6.46-12.77 13.65L150 107l12.77-13.66Z"/><path class="cls-50" d="m150.38 107.63.15.2 13.19-14.3-.15-.21-13.19 14.31zM151.38 108.35l.15.21 13.19-14.31-.14-.21-13.2 14.31zM152.42 109.14l.15.2 13.19-14.31-.14-.2-13.2 14.31zM153.43 109.86l.15.2 13.19-14.3-.15-.21-13.19 14.31zM154.46 110.58l.15.21 13.19-14.31-.14-.2-13.2 14.3zM155.47 111.31l.15.2 13.19-14.3-.15-.21-13.19 14.31zM156.39 112l.15.21 13.19-14.31-.15-.21L156.39 112zM157.4 112.73l.14.21 13.2-14.31-.15-.21-13.19 14.31zM158.18 113.31l.15.21 13.19-14.31-.15-.21-13.19 14.31zM159.18 114.03l.15.21 13.19-14.31-.14-.21-13.2 14.31z"/><path class="cls-50" d="m150.4 106.07 10.68 7.75.11-.24-10.68-7.75-.11.24zM151.52 104.88l10.68 7.75.11-.24-10.68-7.75-.11.24zM152.77 103.52l10.68 7.75.11-.24-10.68-7.75-.11.24zM153.89 102.33l10.68 7.75.12-.24-10.69-7.75-.11.24zM154.97 101.19l10.68 7.75.11-.24-10.68-7.75-.11.24zM156.09 99.99l10.68 7.75.11-.24-10.68-7.75-.11.24zM157.34 98.64l10.68 7.75.11-.24-10.67-7.75-.12.24zM158.46 97.44l10.68 7.75.11-.24-10.67-7.75-.12.24zM159.56 96.31l10.67 7.75.12-.24-10.68-7.75-.11.24zM160.81 94.95l10.68 7.75.11-.24-10.68-7.75-.11.24zM161.93 93.76l10.68 7.74.11-.23-10.68-7.75-.11.24z"/><path class="cls-51" d="m148.89 107.08 11.28 8.2 13.83-14.8-11.28-8.2Zm24-6.47-12.77 13.65L150 107l12.77-13.66Z"/><path class="cls-47" d="m148.89 108.12.81-.46-.81-.58v1.04z"/><path class="cls-52" d="m160.17 116.33 13.84-14.8v-1.05l-13.84 14.8v1.05z"/><path class="cls-45" d="m169.76 122.27 12.74 6.69 15.9-12.26-12.75-6.69-15.89 12.26z"/><path class="cls-45" d="m169.07 122.32 13.48 7.07 16.53-12.75-13.47-7.07Zm28.64-5.57-15.25 11.77-12-6.31 15.26-11.76Z"/><path class="cls-45" d="m170.85 122.8.18.18 15.76-12.33-.18-.18-15.76 12.33zM172.05 123.42l.18.18 15.76-12.33-.18-.18-15.76 12.33zM173.29 124.1l.18.18 15.76-12.33-.18-.18-15.76 12.33zM174.49 124.72l.18.18 15.76-12.33-.18-.18-15.76 12.33zM175.73 125.35l.18.18 15.75-12.33-.17-.18-15.76 12.33zM176.93 125.97l.17.18 15.76-12.33-.17-.18-15.76 12.33zM178.03 126.57l.18.18 15.76-12.33-.18-.18-15.76 12.33zM179.23 127.19l.18.18 15.76-12.33-.18-.18-15.76 12.33zM180.17 127.69l.17.18 15.76-12.33-.17-.18-15.76 12.33zM181.37 128.32l.17.18 15.76-12.33-.17-.18-15.76 12.33z"/><path class="cls-45" d="m170.87 121.46 12.76 6.68.13-.21-12.75-6.68-.14.21zM172.21 120.43l12.76 6.68.13-.21-12.76-6.68-.13.21zM173.71 119.26l12.75 6.68.14-.21-12.76-6.67-.13.2zM175.04 118.23l12.76 6.68.14-.21-12.76-6.67-.14.2zM176.33 117.25l12.76 6.68.13-.21-12.75-6.68-.14.21zM177.67 116.22l12.76 6.68.13-.21-12.75-6.68-.14.21zM179.17 115.05l12.75 6.68.14-.2-12.76-6.68-.13.2zM180.5 114.02l12.76 6.68.14-.2-12.76-6.68-.14.2zM181.81 113.04l12.76 6.68.13-.2-12.75-6.68-.14.2zM183.31 111.88l12.76 6.67.13-.2-12.75-6.68-.14.21zM184.65 110.85l12.76 6.68.13-.21-12.76-6.68-.13.21z"/><path class="cls-45" d="m169.07 122.32 13.47 7.08 16.54-12.76-13.47-7.07Zm28.64-5.57-15.26 11.77-12-6.31 15.26-11.76Z"/><path class="cls-45" d="m169.76 121.37 12.74 6.69 15.9-12.26-12.75-6.69-15.89 12.26z"/><path class="cls-45" d="m169.07 121.42 13.48 7.08 16.53-12.76-13.47-7.07Zm28.64-5.57-15.25 11.77-12-6.31 15.26-11.76Z"/><path class="cls-45" d="m170.85 121.9.18.18 15.76-12.33-.18-.18-15.76 12.33zM172.05 122.52l.18.18 15.76-12.33-.18-.18-15.76 12.33zM173.29 123.2l.18.18 15.76-12.33-.18-.18-15.76 12.33zM174.49 123.82l.18.18 15.76-12.33-.18-.18-15.76 12.33zM175.73 124.45l.18.18 15.75-12.33-.17-.18-15.76 12.33zM176.93 125.07l.18.18 15.75-12.33-.17-.18-15.76 12.33zM178.03 125.67l.18.18 15.76-12.33-.18-.18-15.76 12.33zM179.23 126.29l.18.18 15.76-12.33-.18-.17-15.76 12.32zM180.17 126.8l.17.17 15.76-12.33-.17-.17-15.76 12.33zM181.37 127.42l.17.18 15.76-12.33-.17-.18-15.76 12.33z"/><path class="cls-45" d="m170.87 120.56 12.76 6.68.13-.21-12.75-6.67-.14.2zM172.21 119.53l12.76 6.68.13-.21-12.75-6.67-.14.2zM173.71 118.36l12.76 6.68.13-.21-12.76-6.67-.13.2zM175.05 117.33l12.75 6.68.14-.2-12.76-6.68-.13.2zM176.33 116.35l12.76 6.68.13-.21-12.75-6.68-.14.21zM177.67 115.32l12.76 6.68.13-.21-12.75-6.67-.14.2zM179.17 114.15l12.75 6.68.14-.2-12.76-6.68-.13.2zM180.5 113.13l12.76 6.67.14-.2-12.76-6.68-.14.21zM181.81 112.14l12.76 6.68.14-.2-12.76-6.68-.14.2zM183.31 110.98l12.76 6.68.13-.21-12.75-6.68-.14.21zM184.65 109.95l12.76 6.68.13-.21-12.76-6.68-.13.21z"/><path class="cls-45" d="m169.07 121.42 13.48 7.08 16.53-12.75-13.47-7.08Zm28.64-5.56-15.25 11.76-12-6.31 15.26-11.76Z"/><path class="cls-45" d="m169.07 122.32.97-.39-.97-.51v.9zM182.54 129.4l16.54-12.76v-.89l-16.54 12.75v.9z"/><path class="cls-46" d="M188 120a1.18 1.18 0 0 0-1.3 0 .53.53 0 0 0 0 .92 1.18 1.18 0 0 0 1.3 0 .53.53 0 0 0 0-.92Z"/><path class="cls-46" d="M186.44 113.59h1.84v6.9h-1.84zM179.66 126a1.18 1.18 0 0 0-1.3 0 .54.54 0 0 0 0 .93 1.22 1.22 0 0 0 1.3 0 .54.54 0 0 0 0-.93Z"/><path class="cls-46" d="M178.09 119.59h1.84v6.9h-1.84z"/><path class="cls-47" d="m165.74 119.59 10.67 7.76 13.3-14.23-10.67-7.76-13.3 14.23z"/><path class="cls-47" d="m165.16 119.65 11.28 8.21 13.85-14.8-11.29-8.21Zm24-6.46-12.77 13.65-10.06-7.32 12.77-13.65Z"/><path class="cls-47" d="m166.65 120.2.15.21 13.19-14.31-.15-.2-13.19 14.3zM167.66 120.93l.15.21L181 106.83l-.15-.21-13.19 14.31zM168.7 121.71l.15.21 13.19-14.31-.15-.21-13.19 14.31zM169.7 122.44l.15.2 13.19-14.31-.15-.2-13.19 14.31zM170.74 123.16l.14.21 13.2-14.31-.15-.21-13.19 14.31zM171.74 123.88l.15.21 13.19-14.31-.15-.2-13.19 14.3zM172.66 124.58l.15.21L186 110.48l-.14-.21-13.2 14.31zM173.67 125.3l.15.21 13.19-14.31-.15-.2-13.19 14.3zM174.45 125.88l.15.21 13.19-14.31-.15-.2-13.19 14.3zM175.46 126.61l.14.2 13.2-14.3-.15-.21-13.19 14.31z"/><path class="cls-47" d="m166.67 118.65 10.68 7.75.11-.24-10.68-7.75-.11.24zM167.79 117.45l10.68 7.75.11-.23-10.67-7.75-.12.23zM169.04 116.1l10.68 7.75.12-.24-10.68-7.75-.12.24zM170.16 114.91l10.68 7.74.12-.23-10.68-7.75-.12.24zM171.24 113.76l10.68 7.75.11-.23-10.68-7.75-.11.23zM172.36 112.57l10.68 7.75.11-.24-10.68-7.75-.11.24zM173.61 111.22l10.68 7.75.12-.25-10.68-7.74-.12.24zM174.73 110.02l10.68 7.75.12-.24-10.68-7.75-.12.24zM175.83 108.88l10.68 7.75.11-.24-10.68-7.75-.11.24zM177.08 107.53l10.68 7.75.12-.24-10.68-7.75-.12.24zM178.2 106.33l10.68 7.75.12-.24-10.68-7.75-.12.24z"/><path class="cls-47" d="m165.16 119.65 11.28 8.21 13.84-14.8-11.28-8.21Zm24-6.46-12.77 13.65-10.06-7.32 12.77-13.65Z"/><path class="cls-48" d="m165.74 118.54 10.67 7.77 13.3-14.23-10.67-7.76-13.3 14.22z"/><path class="cls-49" d="m165.16 118.61 11.28 8.2L190.29 112 179 103.81Zm24-6.47-12.79 13.66-10.06-7.32 12.77-13.65Z"/><path class="cls-50" d="m166.65 119.16.15.21 13.19-14.31-.15-.21-13.19 14.31zM167.66 119.88l.15.21L181 105.78l-.15-.2-13.19 14.3zM168.7 120.67l.15.21 13.19-14.31-.15-.21-13.19 14.31zM169.7 121.39l.15.21 13.19-14.31-.15-.21-13.19 14.31zM170.74 122.12l.14.21 13.2-14.31-.15-.21-13.19 14.31zM171.74 122.84l.15.21 13.19-14.31-.15-.21-13.19 14.31zM172.66 123.54l.15.21L186 109.44l-.14-.21-13.2 14.31zM173.67 124.26l.15.21 13.19-14.31-.15-.21-13.19 14.31zM174.45 124.84l.15.21 13.19-14.31-.14-.21-13.2 14.31zM175.46 125.56l.15.21 13.19-14.31-.15-.21-13.19 14.31z"/><path class="cls-50" d="m166.67 117.61 10.68 7.75.11-.24-10.68-7.75-.11.24zM167.79 116.41l10.68 7.75.11-.24-10.67-7.75-.12.24zM169.04 115.06l10.68 7.75.12-.24-10.68-7.75-.12.24zM170.17 113.86l10.67 7.75.12-.24-10.68-7.75-.11.24zM171.24 112.72l10.68 7.75.11-.24-10.68-7.75-.11.24zM172.36 111.53l10.68 7.75.11-.24-10.68-7.75-.11.24zM173.62 110.17l10.67 7.75.12-.24-10.68-7.75-.11.24zM174.74 108.98l10.67 7.75.12-.24-10.68-7.75-.11.24zM175.83 107.84l10.68 7.75.11-.24-10.68-7.75-.11.24zM177.08 106.48l10.68 7.75.12-.23-10.68-7.75-.12.23zM178.2 105.29l10.68 7.75.12-.24-10.68-7.75-.12.24z"/><path class="cls-51" d="m165.16 118.61 11.28 8.21L190.28 112 179 103.81Zm24-6.46-12.79 13.65-10.06-7.32 12.77-13.65Z"/><path class="cls-47" d="m165.16 119.65.81-.45-.81-.59v1.04z"/><path class="cls-52" d="m176.44 127.86 13.84-14.8v-1.04l-13.84 14.8v1.04z"/><path class="cls-53" d="m189.96 147.44 15.97-11.36v-9.45l-15.97 11.35v9.46z"/><path class="cls-54" d="m193.39 149.83 15.96-11.36v-9.45l-15.96 11.35v9.46z"/><path class="cls-53" d="m189.96 147.44 3.43 2.39v-9.46l-3.43-2.39v9.46z"/><path class="cls-55" d="m189.96 137.98 3.43 2.39 15.96-11.35-3.42-2.39-15.97 11.35z"/><path class="cls-56" d="M197.63 137.78a8.61 8.61 0 0 0-3 6.34c0 2.33 1.33 3.27 3 2.11a8.6 8.6 0 0 0 3-6.34c-.04-2.33-1.36-3.27-3-2.11Z"/><path class="cls-57" d="M197.64 138.31a7.61 7.61 0 0 0-2.63 5.6c0 2.06 1.18 2.9 2.63 1.87a7.62 7.62 0 0 0 2.62-5.6c0-2.07-1.17-2.9-2.62-1.87Z"/><path class="cls-58" d="M198.13 138.31a7.61 7.61 0 0 0-2.63 5.6c0 2.06 1.18 2.9 2.63 1.87a7.62 7.62 0 0 0 2.62-5.6c0-2.07-1.17-2.9-2.62-1.87Z"/><path class="cls-56" d="M205.51 132.35a8.61 8.61 0 0 0-3 6.34c0 2.33 1.33 3.27 3 2.11a8.6 8.6 0 0 0 3-6.33c-.03-2.34-1.36-3.28-3-2.12Z"/><path class="cls-59" d="M205.52 132.88a7.6 7.6 0 0 0-2.62 5.6c0 2.06 1.17 2.9 2.62 1.87a7.6 7.6 0 0 0 2.62-5.6c0-2.07-1.14-2.9-2.62-1.87Z"/><path class="cls-60" d="M206 132.88a7.61 7.61 0 0 0-2.63 5.6c0 2.06 1.18 2.9 2.63 1.87a7.6 7.6 0 0 0 2.62-5.6c.01-2.07-1.16-2.9-2.62-1.87Z"/><path class="cls-61" d="m205.04 176.07 5.38-3.81v-18.84l-5.38 3.81v18.84z"/><path class="cls-62" d="M205.04 175.02v1.15l5.38-3.91-.75-.52-4.63 3.28zM209.67 171.73l.75.53v-18.84l-.75.53v17.78z"/><path class="cls-61" d="m199.66 179.9 5.38-3.81v-18.84l-5.38 3.81v18.84z"/><path class="cls-62" d="M199.66 178.85v1.24l5.43-3.96-.81-.56-4.62 3.28zM204.28 175.57l.76.52v-18.84l-.76.53v17.79z"/><path class="cls-63" d="m205.29 174.84 1.33-.94 3.05-19.95-1.02.73-3.36 20.16zM199.66 178.85l1.33-.94 3.05-19.96-1.02.73-3.36 20.17z"/><path class="cls-61" d="m194.29 183.9 5.39-3.81v-18.84l-5.39 3.81v18.84z"/><path class="cls-62" d="M194.29 182.85V184l5.39-3.91-.76-.52-4.63 3.28zM198.92 179.56l.76.53v-18.84l-.76.53v17.78z"/><path class="cls-61" d="m188.91 187.73 5.38-3.81v-18.84l-5.38 3.81v18.84z"/><path class="cls-62" d="M188.91 186.68v1.24l5.44-3.96-.81-.56-4.63 3.28z"/><path class="cls-62" d="m193.54 183.4.75.52v-18.84l-.75.53v17.79z"/><path class="cls-63" d="m194.54 182.68 1.33-.94 3.05-19.96-1.02.73-3.36 20.17zM188.91 186.68l1.33-.94 3.05-19.96-1.02.73-3.36 20.17z"/><path class="cls-61" d="m142.04 123.52 36.03 26.26v-7.67l-36.03-26.22v7.63z"/><path class="cls-63" d="m142.45 117.97 23.83 22.71 2.14 1.56-25.97-25.01v.74zM155.63 126.29l-2.07-1.5 23.85 24.01.35.25-.04-.25-22.09-22.51z"/><path class="cls-62" d="m142.05 123.52 36 26.27v-7.68l-36-26.22Zm.35-6.86 35.31 25.7V149l-35.31-25.73Z"/><path class="cls-62" d="m146.44 126.81.36.26v-7.63l-.36-.26v7.63zM152.84 131.47l.35.26v-7.63l-.35-.26v7.63zM158.98 135.94l.36.26v-7.64l-.36-.25v7.63zM165.37 140.58l.36.26v-7.63l-.36-.26v7.63zM171.88 145.29l.36.26v-7.63l-.36-.26v7.63z"/><path class="cls-61" d="m142.04 130.75 36.03 26.26v-7.67l-36.03-26.22v7.63z"/><path class="cls-63" d="m142.45 125.2 23.83 22.71 2.14 1.56-25.97-25.01v.74zM155.63 133.52l-2.07-1.5 23.85 24.01.35.25-.04-.25-22.09-22.51z"/><path class="cls-62" d="m142.05 130.75 36 26.26v-7.67l-36-26.22Zm.35-6.86 35.31 25.7v6.65L142.4 130.5Z"/><path class="cls-62" d="m146.44 134.04.36.26v-7.63l-.36-.26v7.63zM152.84 138.7l.35.26v-7.63l-.35-.26v7.63zM158.98 143.17l.36.26v-7.64l-.36-.26v7.64zM165.37 147.81l.36.26v-7.63l-.36-.26v7.63zM171.88 152.52l.36.26v-7.63l-.36-.26v7.63z"/><path class="cls-61" d="m141.74 145.02 36.03 26.26v-7.67l-36.03-26.22v7.63z"/><path class="cls-63" d="m142.15 139.47 23.83 22.71 2.14 1.56-25.97-25.01v.74zM155.32 147.79l-2.06-1.51 23.85 24.01.35.25-.05-.25-22.09-22.5z"/><path class="cls-62" d="m141.74 145 36 26.26v-7.67l-36-26.22Zm.36-6.86 35.31 25.7v6.65l-35.31-25.72Z"/><path class="cls-62" d="m146.14 148.31.36.26v-7.64l-.36-.26v7.64zM152.54 152.97l.35.26v-7.63l-.35-.26v7.63zM158.68 157.44l.35.26v-7.64l-.35-.26v7.64zM165.07 162.08l.36.26v-7.63l-.36-.26v7.63zM171.58 166.79l.36.26v-7.64l-.36-.25v7.63z"/><path class="cls-61" d="m141.74 152.25 36.03 26.26v-7.67l-36.03-26.22v7.63z"/><path class="cls-63" d="m142.15 146.69 23.83 22.72 2.14 1.56-25.97-25.01v.73zM155.32 155.02l-2.06-1.51 23.85 24.01.35.26-.05-.26-22.09-22.5z"/><path class="cls-62" d="m141.74 152.25 36 26.26v-7.67l-36-26.22Zm.36-6.86 35.31 25.7v6.65L142.1 152Z"/><path class="cls-62" d="m146.14 155.54.36.26v-7.64l-.36-.26v7.64zM152.54 160.2l.35.26v-7.64l-.35-.25v7.63zM158.68 164.67l.35.26v-7.64l-.35-.26v7.64zM165.07 169.31l.36.26v-7.63l-.36-.26v7.63zM171.58 174.02l.36.26v-7.64l-.36-.26v7.64z"/></g></g></g></svg>