<svg xmlns="http://www.w3.org/2000/svg" viewBox="0 0 817.96 503.22"><defs><clipPath id="clip-path"><path style="fill:none" d="m411.8 14.59 44.95 24.89v99.55l-44.95-24.89V14.59z"/></clipPath><style>.cls-2{isolation:isolate}.cls-7{fill:#878787}.cls-8{fill:#dadada}.cls-9{fill:#c6c6c6}.cls-10{fill:#9d9d9c}.cls-11{fill:#3c3c3b}.cls-13{fill:#e30613}.cls-14{fill:#bcbcbc}.cls-15{fill:#757575}.cls-16{fill:#ededed}.cls-17{fill:#fff}.cls-18{fill:#575756}.cls-19{fill:#606060}.cls-20,.cls-33{fill:#1d1d1b}.cls-20{opacity:.2}.cls-21{fill:#a8a8a8}.cls-22{fill:#e05a00}.cls-23{fill:#ff8521}.cls-24{fill:#565656}.cls-25{fill:#616060}.cls-26{fill:#3c3c3c}.cls-27{fill:#706f6f}.cls-28,.cls-29{fill:#fcaf75}.cls-29,.cls-32{mix-blend-mode:multiply}.cls-29{opacity:.3}.cls-30,.cls-32{fill:#21758a}.cls-32{opacity:.5}.cls-35{opacity:.15}.cls-36{fill:#ffbb7d}.cls-37{opacity:.1}.cls-38{fill:#b54825}.cls-39{fill:#f66232}.cls-42{fill:#b1989b}.cls-43{fill:#d4c9c9}.cls-44{fill:#f9f3f4}.cls-45{fill:#9c8383}.cls-46{fill:#3c3f40}.cls-47{fill:#b5b5b5}.cls-48{fill:#736b6b}.cls-49{fill:#456e7b}.cls-50{fill:#bcc4c6}.cls-51{fill:#dae0e2}.cls-52{fill:#a4a4a4}.cls-53{fill:#8a7578}.cls-54{fill:#6e595b}.cls-55{fill:#dcbac0}.cls-56{fill:#574733}.cls-57{fill:#009304}.cls-58{fill:#00f500}.cls-59{fill:#c10202}.cls-60{fill:#ff0408}.cls-61{fill:#86676a}.cls-62{fill:#402317}.cls-63{fill:#b09b9f}</style></defs><g class="cls-2"><g id="Слой_2" data-name="Слой 2"><g id="основа"><path style="fill:#292929" d="M414.98 471.76 817.1 247.02l.86 31.46-402.12 224.74-.86-31.46z"/><path style="fill:#454545" d="M414.98 471.76 0 224.74l.86 31.45 414.98 247.03-.86-31.46z"/><path style="fill:#4f4f4f" d="M0 224.74 402.12 0 817.1 247.03 414.98 471.77 0 224.74z"/></g><g id="Люди"><path style="fill:#755f6b" d="M479.2 178.35 206 346.39l62.45 38.39L552 210.01l-61.75-38.23-11.05 6.57z" id="Дорога"/><path class="cls-7" d="M482 25.52v99.56l-25.25 13.95V39.47L482 25.52z"/><path class="cls-8" d="m411.52 14.73 44.95 24.89v99.56l-44.95-24.89V14.73z"/><path class="cls-9" d="m482 25.52-25.25 13.95-19.69-10.77-25.26-13.81-.28-.16.28-.15L436.78.78l.28.16L482 25.52z"/><path class="cls-10" d="M456.75 110.92v27.77L411.8 114.1l25.26-13.95 19.69 10.77z"/><path class="cls-11" d="M473.78 117.47c.42-.23.76 0 .76.42a1.58 1.58 0 0 1-.76 1.26l-8.54 4.73c-.42.23-.76 0-.76-.42a1.58 1.58 0 0 1 .76-1.26ZM473.78 114.7c.42-.23.76 0 .76.42a1.6 1.6 0 0 1-.76 1.26l-8.54 4.73c-.42.23-.76 0-.76-.42a1.62 1.62 0 0 1 .76-1.27ZM473.78 111.93c.42-.24.76-.05.76.42a1.6 1.6 0 0 1-.76 1.26l-8.54 4.73c-.42.23-.76 0-.76-.42a1.62 1.62 0 0 1 .76-1.27ZM473.78 109.16c.42-.24.76 0 .76.42a1.6 1.6 0 0 1-.76 1.26l-8.54 4.73c-.42.23-.76 0-.76-.42a1.6 1.6 0 0 1 .76-1.27ZM473.78 106.38c.42-.23.76 0 .76.43a1.6 1.6 0 0 1-.76 1.26l-8.54 4.72c-.42.24-.76 0-.76-.42a1.6 1.6 0 0 1 .76-1.26ZM473.78 103.61c.42-.23.76 0 .76.42a1.62 1.62 0 0 1-.76 1.27l-8.54 4.7c-.42.24-.76 0-.76-.42a1.6 1.6 0 0 1 .76-1.26ZM473.78 100.84c.42-.23.76 0 .76.42a1.62 1.62 0 0 1-.76 1.27l-8.54 4.72c-.42.23-.76 0-.76-.42a1.6 1.6 0 0 1 .76-1.26Z"/><path class="cls-7" d="M436.78 28.55v71.42l-25.26 13.95V14.73l25.26 13.82z"/><path class="cls-10" d="m411.52 14.73-50.58 4.15v99.56l50.58-4.15V14.73z"/><path class="cls-9" d="M456.75 110.92v27.77L411.8 114.1l25.26-13.95 19.69 10.77z"/><g style="clip-path:url(#clip-path)"><path class="cls-13" d="M457.09 39.33h.84v33.04h-.84zM455.45 115.59a1.61 1.61 0 0 0 .79-.21 1.49 1.49 0 0 0 .81-1.33V89.91h-.84v24.14a.72.72 0 0 1-.38.64.78.78 0 0 1-.77 0l-17.31-9.84a2.51 2.51 0 0 1-1.3-2.17v-7.39h-.83v7.38a3.3 3.3 0 0 0 1.7 2.86l17.32 9.84a1.67 1.67 0 0 0 .81.22Z"/><path class="cls-13" d="M453.43 112.14a1.52 1.52 0 0 0 .75-.19 1.4 1.4 0 0 0 .75-1.24V86.37h-.84v24.34a.6.6 0 0 1-.33.54.65.65 0 0 1-.66 0l-8.91-4.93a1.82 1.82 0 0 1-1-1.6l.1-10.15h-.84l-.09 10.15a2.59 2.59 0 0 0 1.37 2.3l8.92 4.94a1.51 1.51 0 0 0 .78.18Z"/><path class="cls-13" d="M451.21 108.5a1.72 1.72 0 0 0 .79-.2 1.51 1.51 0 0 0 .81-1.34V82.82H452V107a.72.72 0 0 1-.38.64.8.8 0 0 1-.78 0l-18.97-10.8-.43.69 18.95 10.75a1.58 1.58 0 0 0 .82.22ZM453.77 37.69h.84v33.04h-.84zM449.49 35.68h.84v33.04h-.84zM446.01 34.64h.84v33.04h-.84zM442.87 33.05h.84v33.04h-.84z"/><g class="cls-2"><path class="cls-8" d="m436.76 82.13-8.84-4.92.06 20.57 8.84 4.92-.06-20.57z"/><path class="cls-14" d="M435.09 83.06 429.6 80l.05 16.86 5.49 3.05-.05-16.85zM440.4 80.11l-8.83-4.92-3.65 2.02 8.84 4.92 3.64-2.02z"/><path class="cls-15" d="m436.76 82.13.06 20.57 3.64-2.01-.06-20.58-3.64 2.02z"/></g><g class="cls-2"><path class="cls-16" d="m435.03 84.47-6.4-3.57.01.89 6.39 3.56v-.88z"/><path class="cls-17" d="m435.46 84.23-6.4-3.57-.43.24 6.4 3.57.43-.24z"/><path class="cls-15" d="M435.03 84.47v.88l.43-.24v-.88l-.43.24z"/></g><g class="cls-2"><path class="cls-16" d="m435.03 86.6-6.4-3.56.01.88 6.39 3.57v-.89z"/><path class="cls-17" d="m435.46 86.37-6.4-3.57-.43.24 6.4 3.56.43-.23z"/><path class="cls-15" d="M435.03 86.6v.89l.43-.24v-.88l-.43.23z"/></g><g class="cls-2"><path class="cls-16" d="m435.03 88.74-6.4-3.56.01.88 6.39 3.57v-.89z"/><path class="cls-17" d="m435.46 88.5-6.4-3.56-.43.24 6.4 3.56.43-.24z"/><path class="cls-15" d="M435.03 88.74v.89l.43-.24v-.89l-.43.24z"/></g><g class="cls-2"><path class="cls-16" d="m435.03 90.88-6.4-3.56.01.88 6.39 3.56v-.88z"/><path class="cls-17" d="m435.46 90.64-6.4-3.56-.43.24 6.4 3.56.43-.24z"/><path class="cls-15" d="M435.03 90.88v.88l.43-.23v-.89l-.43.24z"/></g><g class="cls-2"><path class="cls-16" d="m435.03 93.02-6.4-3.57.01.89 6.39 3.56v-.88z"/><path class="cls-17" d="m435.46 92.78-6.4-3.56-.43.23 6.4 3.57.43-.24z"/><path class="cls-15" d="M435.03 93.02v.88l.43-.23v-.89l-.43.24z"/></g><g class="cls-2"><path class="cls-16" d="m435.03 95.16-6.4-3.57.01.89 6.39 3.56v-.88z"/><path class="cls-17" d="m435.46 94.92-6.4-3.57-.43.24 6.4 3.57.43-.24z"/><path class="cls-15" d="M435.03 95.16v.88l.43-.24v-.88l-.43.24z"/></g><g class="cls-2"><path class="cls-16" d="m435.03 97.29-6.4-3.56.01.88 6.39 3.57v-.89z"/><path class="cls-17" d="m435.46 97.06-6.4-3.57-.43.24 6.4 3.56.43-.23z"/><path class="cls-15" d="M435.03 97.29v.89l.43-.24v-.88l-.43.23z"/></g><g class="cls-2"><path class="cls-16" d="m435.03 99.43-6.4-3.56.01.88 6.39 3.57v-.89z"/><path class="cls-17" d="m435.46 99.19-6.4-3.56-.43.24 6.4 3.56.43-.24z"/><path class="cls-15" d="M435.03 99.43v.89l.43-.24v-.89l-.43.24z"/></g><g class="cls-2"><path class="cls-8" d="m437.04 39.81-6.91-3.85.04 16.1 6.92 3.85-.05-16.1z"/><path class="cls-14" d="m435.73 40.53-4.29-2.39.04 13.2 4.29 2.39-.04-13.2zM439.89 38.23l-6.91-3.85-2.85 1.58 6.91 3.85 2.85-1.58z"/><path class="cls-15" d="m437.04 39.81.05 16.1 2.85-1.57-.05-16.11-2.85 1.58z"/></g><path class="cls-11" d="m436 53.83.47-.26a.82.82 0 0 0 .36-.77 2.6 2.6 0 0 0-1.24-2.06.9.9 0 0 0-.87-.09l-.47.26Z"/><path class="cls-10" d="M433.87 51.68c0-.75.55-1.06 1.24-.68a2.62 2.62 0 0 1 1.24 2.06c0 .75-.56 1.06-1.24.68a2.6 2.6 0 0 1-1.24-2.06Z"/><path class="cls-18" d="M433.87 51.68c0-.75.55-1.06 1.24-.68a2.62 2.62 0 0 1 1.24 2.06c0 .75-.56 1.06-1.24.68a2.6 2.6 0 0 1-1.24-2.06Z"/><g class="cls-2"><path class="cls-18" d="m436.17 52.64-.01.52-1.2.3v-.52l1.21-.3z"/><path class="cls-19" d="M434.96 52.94v.52l-1.35-.74v-.53l1.35.75z"/><path class="cls-11" d="m433.61 52.19.54-.67 2.02 1.12-1.21.3-1.35-.75z"/></g><path class="cls-11" d="m431 49.25.47-.26a.89.89 0 0 1 .88.08 2.62 2.62 0 0 1 1.24 2.06.81.81 0 0 1-.37.77l-.47.26Z"/><path class="cls-10" d="M431.9 52.08c.68.38 1.24.07 1.24-.69a2.62 2.62 0 0 0-1.24-2.06c-.69-.38-1.24-.07-1.24.69a2.6 2.6 0 0 0 1.24 2.06Z"/><path class="cls-18" d="M431.9 52.08c.68.38 1.24.07 1.24-.69a2.62 2.62 0 0 0-1.24-2.06c-.69-.38-1.24-.07-1.24.69a2.6 2.6 0 0 0 1.24 2.06Z"/><g class="cls-2"><path class="cls-18" d="m432.18 49.69-.47-.26-.87.85.47.26.87-.85z"/><path class="cls-19" d="m431.31 50.54-.47-.26v1.5l.47.26v-1.5z"/><path class="cls-11" d="m431.31 52.04.87-.12v-2.23l-.87.85v1.5z"/></g><path class="cls-11" d="m436 50.08.47-.26a.81.81 0 0 0 .36-.77 2.61 2.61 0 0 0-1.26-2.05.93.93 0 0 0-.87-.08l-.47.26Z"/><path class="cls-10" d="M433.87 47.94c0-.76.55-1.06 1.24-.69a2.64 2.64 0 0 1 1.24 2.06c0 .76-.56 1.07-1.24.69a2.6 2.6 0 0 1-1.24-2.06Z"/><path class="cls-18" d="M433.87 47.94c0-.76.55-1.06 1.24-.69a2.64 2.64 0 0 1 1.24 2.06c0 .76-.56 1.07-1.24.69a2.6 2.6 0 0 1-1.24-2.06Z"/><g class="cls-2"><path class="cls-18" d="m436.17 48.9-.01.52-1.2.3v-.52l1.21-.3z"/><path class="cls-19" d="M434.96 49.2v.52l-1.35-.75v-.52l1.35.75z"/><path class="cls-11" d="m433.61 48.45.54-.67 2.02 1.12-1.21.3-1.35-.75z"/></g><path class="cls-11" d="m431 45.51.47-.26a.89.89 0 0 1 .88.08 2.62 2.62 0 0 1 1.24 2.06.82.82 0 0 1-.37.77l-.47.26Z"/><path class="cls-10" d="M431.9 48.34c.68.37 1.24.07 1.24-.69a2.62 2.62 0 0 0-1.24-2.06c-.69-.38-1.24-.07-1.24.69a2.61 2.61 0 0 0 1.24 2.06Z"/><path class="cls-18" d="M431.9 48.34c.68.37 1.24.07 1.24-.69a2.62 2.62 0 0 0-1.24-2.06c-.69-.38-1.24-.07-1.24.69a2.61 2.61 0 0 0 1.24 2.06Z"/><g class="cls-2"><path class="cls-18" d="m432.18 45.95-.47-.26-.87.85.47.26.87-.85z"/><path class="cls-19" d="m431.31 46.8-.47-.26v1.49l.47.27v-1.5z"/><path class="cls-11" d="m431.31 48.3.87-.12v-2.23l-.87.85v1.5z"/></g><path class="cls-11" d="m435.85 46.25.47-.26a.82.82 0 0 0 .37-.77 2.62 2.62 0 0 0-1.24-2.06.89.89 0 0 0-.88-.08l-.47.26Z"/><path class="cls-10" d="M433.74 44.11c0-.76.55-1.07 1.24-.69a2.62 2.62 0 0 1 1.24 2.06c0 .76-.56 1.06-1.24.69a2.61 2.61 0 0 1-1.24-2.06Z"/><path class="cls-18" d="M433.74 44.11c0-.76.55-1.07 1.24-.69a2.62 2.62 0 0 1 1.24 2.06c0 .76-.56 1.06-1.24.69a2.61 2.61 0 0 1-1.24-2.06Z"/><g class="cls-2"><path class="cls-18" d="M436.04 45.06v.53l-1.21.3v-.53l1.21-.3z"/><path class="cls-19" d="M434.83 45.36v.53l-1.35-.75v-.52l1.35.74z"/><path class="cls-11" d="m433.48 44.62.54-.67 2.02 1.11-1.21.3-1.35-.74z"/></g><path class="cls-11" d="m430.89 41.67.47-.26a.94.94 0 0 1 .88.08 2.64 2.64 0 0 1 1.24 2.06.83.83 0 0 1-.36.77l-.47.26Z"/><path class="cls-10" d="M431.77 44.5c.68.38 1.24.07 1.24-.69a2.64 2.64 0 0 0-1.24-2.06c-.69-.37-1.24-.07-1.24.69a2.6 2.6 0 0 0 1.24 2.06Z"/><path class="cls-18" d="M431.77 44.5c.68.38 1.24.07 1.24-.69a2.64 2.64 0 0 0-1.24-2.06c-.69-.37-1.24-.07-1.24.69a2.6 2.6 0 0 0 1.24 2.06Z"/><g class="cls-2"><path class="cls-18" d="m432.06 42.11-.48-.26-.87.85.47.26.88-.85z"/><path class="cls-19" d="m431.18 42.96-.47-.26v1.5l.47.26v-1.5z"/><path class="cls-11" d="m431.18 44.46.88-.11v-2.24l-.88.85v1.5z"/></g><path class="cls-11" d="m435.85 42.51.47-.26a.82.82 0 0 0 .37-.77 2.62 2.62 0 0 0-1.24-2.06.92.92 0 0 0-.88-.09l-.47.26Z"/><path class="cls-10" d="M433.74 40.36c0-.75.55-1.06 1.24-.68a2.62 2.62 0 0 1 1.24 2.06c0 .75-.56 1.06-1.24.68a2.6 2.6 0 0 1-1.24-2.06Z"/><path class="cls-18" d="M433.74 40.36c0-.75.55-1.06 1.24-.68a2.62 2.62 0 0 1 1.24 2.06c0 .75-.56 1.06-1.24.68a2.6 2.6 0 0 1-1.24-2.06Z"/><g class="cls-2"><path class="cls-18" d="M436.04 41.32v.52l-1.21.3v-.52l1.21-.3z"/><path class="cls-19" d="M434.83 41.62v.52l-1.35-.74v-.53l1.35.75z"/><path class="cls-11" d="m433.48 40.87.54-.67 2.02 1.12-1.21.3-1.35-.75z"/></g><path class="cls-11" d="m430.89 37.93.47-.26a.89.89 0 0 1 .88.08 2.62 2.62 0 0 1 1.24 2.06.83.83 0 0 1-.36.77l-.47.26Z"/><path class="cls-10" d="M431.77 40.76c.68.38 1.24.07 1.24-.69a2.62 2.62 0 0 0-1.24-2.07c-.69-.38-1.24-.07-1.24.69a2.6 2.6 0 0 0 1.24 2.07Z"/><path class="cls-18" d="M431.77 40.76c.68.38 1.24.07 1.24-.69a2.62 2.62 0 0 0-1.24-2.07c-.69-.38-1.24-.07-1.24.69a2.6 2.6 0 0 0 1.24 2.07Z"/><g class="cls-2"><path class="cls-18" d="m432.06 38.37-.48-.26-.87.85.47.26.88-.85z"/><path class="cls-19" d="m431.18 39.22-.47-.26v1.5l.47.26v-1.5z"/><path class="cls-11" d="m431.18 40.72.88-.12v-2.23l-.88.85v1.5z"/></g><path class="cls-20" d="m429.9 56.23 2.14 1.19v2.37l-.82.01-1.63-1.03-.11-1.87.42-.67z"/><path class="cls-17" d="m429.48 56.9 1.74.97v1.93l-1.74-.96V56.9z"/><path class="cls-20" d="m429.9 56.23 2.14 1.19-.82.45-1.74-.97.42-.67zM432.64 57.75l2.15 1.19v2.37l-.82.01-1.63-1.02-.12-1.87.42-.68z"/><path class="cls-17" d="m432.22 58.43 1.75.96v1.93l-1.75-.96v-1.93z"/><path class="cls-20" d="m432.64 57.75 2.15 1.19-.82.45-1.75-.96.42-.68zM435.45 59.32l2.12 1.17v2.35l-.81.02-1.62-1.02-.11-1.85.42-.67z"/><path class="cls-17" d="m435.03 59.99 1.73.95v1.91l-1.73-.95v-1.91z"/><path class="cls-20" d="m435.45 59.32 2.12 1.17-.81.45-1.73-.95.42-.67zM429.9 52.69l2.14 1.18v2.37l-.82.02-1.63-1.03-.11-1.87.42-.67z"/><path class="cls-17" d="m429.48 53.36 1.74.97v1.93l-1.74-.97v-1.93z"/><path class="cls-20" d="m429.9 52.69 2.14 1.18-.82.46-1.74-.97.42-.67zM432.64 54.21l2.15 1.19v2.37l-.82.01-1.63-1.03-.12-1.87.42-.67z"/><path class="cls-17" d="m432.22 54.88 1.75.97v1.93l-1.75-.97v-1.93z"/><path class="cls-20" d="m432.64 54.21 2.15 1.19-.82.45-1.75-.97.42-.67zM435.45 55.78l2.12 1.17v2.35l-.81.01-1.62-1.02-.11-1.85.42-.66z"/><path class="cls-17" d="m435.03 56.44 1.73.96v1.91l-1.73-.95v-1.92z"/><path class="cls-20" d="m435.45 55.78 2.12 1.17-.81.45-1.73-.96.42-.66z"/><g class="cls-2"><path class="cls-21" d="m441.77 84.75-2.92-1.63.04 12.8 2.92 1.63-.04-12.8z"/><path class="cls-11" d="m440.94 88.27-1.26-.7.04 4.44 1.26.71-.04-4.45z"/><path class="cls-14" d="m444.32 83.34-2.92-1.63-2.55 1.41 2.92 1.63 2.55-1.41z"/><path class="cls-15" d="m441.77 84.75.04 12.8 2.55-1.41-.04-12.8-2.55 1.41z"/></g><path class="cls-17" d="M439.74 85.09a1.22 1.22 0 0 0 .59 1c.33.18.59 0 .59-.32a1.23 1.23 0 0 0-.59-1c-.33-.19-.59-.04-.59.32ZM439.74 95a1.24 1.24 0 0 0 .59 1c.33.18.59 0 .59-.32a1.23 1.23 0 0 0-.59-1c-.33-.22-.59-.07-.59.32Z"/><g class="cls-2"><path class="cls-7" d="m438.72 91.94.77-1.4a.89.89 0 0 1 .09-.82 1.32 1.32 0 0 1 .46-.5l.93.52a1.32 1.32 0 0 0-.46.5.89.89 0 0 0-.09.82l-.76 1.4c-.1.17-.09.33 0 .39l-.93-.52c-.09-.06-.1-.22-.01-.39Z"/><path class="cls-17" d="M441 89.74a1.32 1.32 0 0 0-.46.5.89.89 0 0 0-.09.82l-.76 1.4c-.1.17-.09.35 0 .39a.23.23 0 0 0 .18 0 .68.68 0 0 0 .2-.21l.76-1.41a.47.47 0 0 0 .15-.06Z"/></g><g class="cls-2"><path class="cls-21" d="m445.47 86.77-2.92-1.63.04 12.8 2.92 1.63-.04-12.8z"/><path class="cls-11" d="m444.64 90.3-1.26-.71.03 4.44 1.27.71-.04-4.44z"/><path class="cls-14" d="m448.02 85.36-2.92-1.63-2.55 1.41 2.92 1.63 2.55-1.41z"/><path class="cls-15" d="m445.47 86.77.04 12.8 2.55-1.41-.04-12.8-2.55 1.41z"/></g><path class="cls-17" d="M443.44 87.11a1.23 1.23 0 0 0 .59 1c.32.18.59 0 .59-.33a1.24 1.24 0 0 0-.59-1c-.33-.17-.59-.03-.59.33ZM443.44 97a1.23 1.23 0 0 0 .59 1c.32.18.59 0 .59-.33a1.24 1.24 0 0 0-.59-1c-.33-.18-.59-.04-.59.33Z"/><g class="cls-2"><path class="cls-7" d="m442.42 94 .76-1.4a1 1 0 0 1 .09-.82 1.52 1.52 0 0 1 .47-.5l.93.52a1.52 1.52 0 0 0-.47.5 1 1 0 0 0-.09.82l-.76 1.4c-.09.17-.08.34 0 .39l-.93-.52c-.08-.09-.09-.26 0-.39Z"/><path class="cls-17" d="M444.67 91.76a1.52 1.52 0 0 0-.47.5 1 1 0 0 0-.09.82l-.76 1.4c-.09.18-.08.35 0 .39a.21.21 0 0 0 .17 0 .45.45 0 0 0 .2-.21l.76-1.4.16-.07Z"/></g><g class="cls-2"><path class="cls-21" d="m449.17 88.79-2.92-1.62.03 12.8 2.93 1.62-.04-12.8z"/><path class="cls-11" d="m448.34 92.32-1.26-.71.03 4.45 1.26.7-.03-4.44z"/><path class="cls-14" d="m451.72 87.38-2.92-1.63-2.55 1.42 2.92 1.62 2.55-1.41z"/><path class="cls-15" d="m449.17 88.79.04 12.8 2.55-1.41-.04-12.8-2.55 1.41z"/></g><path class="cls-17" d="M447.14 89.13a1.23 1.23 0 0 0 .59 1c.32.18.58 0 .58-.33a1.24 1.24 0 0 0-.58-1c-.33-.17-.59-.02-.59.33ZM447.14 99a1.23 1.23 0 0 0 .59 1c.32.18.58 0 .58-.33a1.23 1.23 0 0 0-.58-1c-.33-.16-.59-.02-.59.33Z"/><g class="cls-2"><path class="cls-22" d="m446.12 96 .76-1.41a.9.9 0 0 1 .09-.81 1.32 1.32 0 0 1 .46-.5l.94.51a1.38 1.38 0 0 0-.47.51.9.9 0 0 0-.09.81l-.76 1.41c-.09.16-.08.33 0 .38l-.93-.52c-.12-.06-.12-.23 0-.38Z"/><path class="cls-23" d="M448.37 93.78a1.38 1.38 0 0 0-.47.51.9.9 0 0 0-.09.81l-.76 1.41c-.09.17-.08.34 0 .39a.18.18 0 0 0 .17 0 .45.45 0 0 0 .2-.21l.76-1.4.16-.06Z"/></g><g class="cls-2"><path class="cls-7" d="m452.67 50.95.99.54-2.05 1.15-.99-.55 2.05-1.14z"/><path class="cls-7" d="m452.25 49.92 2.05-1.15a1.61 1.61 0 0 1 1.55.15 4.56 4.56 0 0 1 2.21 3.63v1.38l1 .55v4.21l-2 1.15v-4.22l-1-.54v-1.39a4.58 4.58 0 0 0-2.17-3.6 1.62 1.62 0 0 0-1.64-.17Z"/><path class="cls-17" d="M453.79 50.07c-1.2-.67-2.17-.13-2.18 1.19v1.38l-1-.55v4.22l6.39 3.53v-4.22l-1-.54v-1.39a4.58 4.58 0 0 0-2.17-3.6Z"/></g><path class="cls-7" d="M452.61 52.06a2.2 2.2 0 0 0 1.05 1.74c.58.33 1 .07 1-.58a2.2 2.2 0 0 0-1-1.74c-.58-.32-1.05-.06-1.05.58Z"/><g class="cls-2"><path class="cls-7" d="m443.02 45.71.99.55-2.06 1.14-.99-.55 2.06-1.14z"/><path class="cls-7" d="m442.59 44.68 2.06-1.15a1.57 1.57 0 0 1 1.54.15 4.57 4.57 0 0 1 2.22 3.63v1.38l1 .54v4.22l-2.06 1.15v-4.22l-1-.55v-1.38a4.53 4.53 0 0 0-2.17-3.6 1.62 1.62 0 0 0-1.59-.17Z"/><path class="cls-17" d="M444.14 44.83c-1.2-.67-2.18-.14-2.18 1.19v1.38l-1-.55v4.22l6.37 3.53v-4.22l-1-.55v-1.38a4.53 4.53 0 0 0-2.17-3.6Z"/></g><path class="cls-7" d="M443 46.82a2.2 2.2 0 0 0 1 1.74c.58.32 1.05.06 1.05-.58a2.2 2.2 0 0 0-1.05-1.74c-.57-.32-1-.06-1 .58Z"/><g class="cls-2"><path class="cls-21" d="m452.89 90.94-2.92-1.63.04 12.8 2.92 1.63-.04-12.8z"/><path class="cls-11" d="m452.06 94.46-1.26-.7.03 4.44 1.27.7-.04-4.44z"/><path class="cls-14" d="m455.44 89.52-2.92-1.63-2.55 1.42 2.92 1.63 2.55-1.42z"/><path class="cls-15" d="m452.89 90.94.04 12.8 2.55-1.41-.04-12.81-2.55 1.42z"/></g><path class="cls-17" d="M450.86 91.28a1.24 1.24 0 0 0 .59 1c.32.18.59 0 .59-.32a1.26 1.26 0 0 0-.59-1c-.32-.19-.59-.04-.59.32ZM450.86 101.16a1.26 1.26 0 0 0 .59 1c.32.18.59 0 .59-.32a1.26 1.26 0 0 0-.59-1c-.32-.19-.59-.04-.59.32Z"/><g class="cls-2"><path class="cls-22" d="M451.09 95.44a7.16 7.16 0 0 1 1 .49c-.13.07-1.06-.45-1.06-.45Z"/><path class="cls-22" d="M450 94.86a.79.79 0 0 1 .14-.13.22.22 0 0 1 .19 0l.93.52a.19.19 0 0 0-.19 0l-.14.12c-.12.16-.16.36-.08.45l.64.73a.79.79 0 0 0 0 .78.24.24 0 0 0 .09.06l-.93-.51-.09-.07a.77.77 0 0 1 0-.77l-.56-.74c-.13-.09-.09-.3 0-.44Z"/><path class="cls-23" d="m451.1 95.25-.14.12c-.12.16-.16.36-.08.45l.64.73a.79.79 0 0 0 0 .78.43.43 0 0 0 .55 0s0-1.42 0-1.42l-.76-.67a.18.18 0 0 0-.21.01Z"/></g><g class="cls-2"><path class="cls-21" d="m456.63 93-2.93-1.63.04 12.8 2.93 1.63-.04-12.8z"/><path class="cls-11" d="m455.8 96.52-1.26-.7.03 4.44 1.26.7-.03-4.44z"/><path class="cls-14" d="m459.18 91.58-2.93-1.63-2.55 1.42 2.93 1.63 2.55-1.42z"/><path class="cls-15" d="m456.63 93 .04 12.8 2.55-1.42-.04-12.8-2.55 1.42z"/></g><path class="cls-17" d="M454.6 93.34a1.23 1.23 0 0 0 .59 1c.32.18.58 0 .58-.32a1.25 1.25 0 0 0-.58-1c-.33-.19-.59-.02-.59.32ZM454.6 103.21a1.23 1.23 0 0 0 .59 1c.32.18.58 0 .58-.32a1.25 1.25 0 0 0-.58-1c-.33-.18-.59-.03-.59.32Z"/><g class="cls-2"><path class="cls-22" d="M454.82 97.5a7.16 7.16 0 0 1 1 .49c-.12.07-1.05-.45-1.05-.45Z"/><path class="cls-22" d="M453.77 96.91a.53.53 0 0 1 .14-.12.22.22 0 0 1 .19 0l.93.52a.19.19 0 0 0-.19 0 .53.53 0 0 0-.14.12c-.12.16-.16.36-.08.45l.64.73a.79.79 0 0 0 0 .78.24.24 0 0 0 .08.06l-.93-.51a.27.27 0 0 1-.08-.07.77.77 0 0 1 0-.77l-.64-.74c-.08-.09-.04-.29.08-.45Z"/><path class="cls-23" d="M454.84 97.31a.53.53 0 0 0-.14.12c-.12.16-.16.36-.08.45l.64.73a.79.79 0 0 0 0 .78.42.42 0 0 0 .54 0s0-1.42 0-1.42l-.76-.67s-.11-.04-.2.01Z"/></g><g class="cls-2"><path class="cls-21" d="m430.68 64.82-2.92-1.63.04 12.8 2.92 1.63-.04-12.8z"/><path class="cls-11" d="m429.85 68.34-1.26-.7.03 4.44 1.26.7-.03-4.44z"/><path class="cls-14" d="m433.23 63.4-2.92-1.63-2.55 1.42 2.92 1.63 2.55-1.42z"/><path class="cls-15" d="m430.68 64.82.04 12.8 2.55-1.42-.04-12.8-2.55 1.42z"/></g><path class="cls-17" d="M428.65 65.16a1.21 1.21 0 0 0 .59 1c.32.18.58 0 .58-.32a1.25 1.25 0 0 0-.58-1c-.33-.19-.59-.04-.59.32ZM428.65 75a1.21 1.21 0 0 0 .59 1c.32.18.58 0 .58-.32a1.25 1.25 0 0 0-.58-1c-.33-.15-.59 0-.59.32Z"/><g class="cls-2"><path class="cls-22" d="m427.63 72 .76-1.4a1 1 0 0 1 .09-.82 1.34 1.34 0 0 1 .47-.5l.93.52a1.34 1.34 0 0 0-.47.5.94.94 0 0 0-.09.81l-.76 1.41c-.09.16-.08.33 0 .38l-.93-.52c-.08-.04-.09-.2 0-.38Z"/><path class="cls-23" d="M429.88 69.81a1.34 1.34 0 0 0-.47.5.94.94 0 0 0-.09.81l-.76 1.41c-.09.17-.08.35 0 .39a.21.21 0 0 0 .17 0 .48.48 0 0 0 .2-.22l.76-1.4a.76.76 0 0 0 .16-.06Z"/></g><g class="cls-2"><path class="cls-21" d="m434.38 66.84-2.93-1.63.04 12.8 2.93 1.63-.04-12.8z"/><path class="cls-11" d="m433.55 70.36-1.26-.7.03 4.44 1.26.71-.03-4.45z"/><path class="cls-14" d="M436.93 65.43 434 63.8l-2.55 1.41 2.93 1.63 2.55-1.41z"/><path class="cls-15" d="m434.38 66.84.04 12.8 2.55-1.41-.04-12.8-2.55 1.41z"/></g><path class="cls-17" d="M432.35 67.18a1.2 1.2 0 0 0 .59 1c.32.18.58 0 .58-.32a1.25 1.25 0 0 0-.58-1c-.33-.19-.59-.04-.59.32ZM432.35 77.06a1.21 1.21 0 0 0 .59 1c.32.18.58 0 .58-.32a1.25 1.25 0 0 0-.58-1c-.33-.19-.59-.04-.59.32Z"/><g class="cls-2"><path class="cls-22" d="m431.33 74 .76-1.4a.92.92 0 0 1 .09-.82 1.32 1.32 0 0 1 .46-.5l.93.52a1.32 1.32 0 0 0-.46.5.92.92 0 0 0-.09.82l-.76 1.4c-.09.17-.08.33 0 .39l-.93-.52c-.08-.03-.09-.19 0-.39Z"/><path class="cls-23" d="M433.57 71.83a1.32 1.32 0 0 0-.46.5.92.92 0 0 0-.09.82l-.76 1.4c-.1.17-.08.35 0 .39a.21.21 0 0 0 .17 0 .58.58 0 0 0 .2-.21l.76-1.41.16-.06Z"/></g><g class="cls-2"><path class="cls-21" d="m438.08 68.86-2.93-1.63.04 12.8 2.92 1.63-.03-12.8z"/><path class="cls-11" d="m437.25 72.39-1.26-.71.03 4.44 1.26.71-.03-4.44z"/><path class="cls-14" d="m440.63 67.45-2.93-1.63-2.55 1.41 2.93 1.63 2.55-1.41z"/><path class="cls-15" d="m438.08 68.86.03 12.8 2.56-1.41-.04-12.8-2.55 1.41z"/></g><path class="cls-17" d="M436.05 69.2a1.25 1.25 0 0 0 .58 1c.33.18.59 0 .59-.33a1.21 1.21 0 0 0-.59-1c-.32-.17-.58-.03-.58.33ZM436.05 79.08a1.25 1.25 0 0 0 .58 1c.33.18.59 0 .59-.33a1.21 1.21 0 0 0-.59-1c-.32-.17-.58-.03-.58.33Z"/><g class="cls-2"><path class="cls-7" d="m435 76.05.76-1.4a.89.89 0 0 1 .09-.82 1.4 1.4 0 0 1 .46-.5l.93.52a1.4 1.4 0 0 0-.46.5.89.89 0 0 0-.09.82l-.76 1.4c-.09.17-.08.34 0 .39l-.93-.52c0-.05-.06-.22 0-.39Z"/><path class="cls-17" d="M437.27 73.85a1.4 1.4 0 0 0-.46.5.89.89 0 0 0-.09.82l-.76 1.4c-.1.18-.08.35 0 .39a.23.23 0 0 0 .18 0 .51.51 0 0 0 .2-.21l.76-1.4.16-.07Z"/></g><g class="cls-2"><path class="cls-21" d="m441.77 70.88-2.92-1.63.04 12.81 2.92 1.63-.04-12.81z"/><path class="cls-11" d="m440.94 74.41-1.26-.71.04 4.45 1.26.7-.04-4.44z"/><path class="cls-14" d="m444.32 69.47-2.92-1.63-2.55 1.41 2.92 1.63 2.55-1.41z"/><path class="cls-15" d="m441.77 70.88.04 12.81 2.55-1.42-.04-12.8-2.55 1.41z"/></g><path class="cls-17" d="M439.74 71.22a1.26 1.26 0 0 0 .59 1c.33.18.59 0 .59-.33a1.23 1.23 0 0 0-.59-1c-.33-.17-.59-.03-.59.33ZM439.74 81.1a1.26 1.26 0 0 0 .59 1c.33.18.59 0 .59-.33a1.21 1.21 0 0 0-.59-1c-.33-.17-.59-.03-.59.33Z"/><g class="cls-2"><path class="cls-7" d="m438.72 78.08.77-1.41a.87.87 0 0 1 .09-.81 1.25 1.25 0 0 1 .46-.5l.93.51a1.36 1.36 0 0 0-.46.51.87.87 0 0 0-.09.81l-.76 1.41c-.1.16-.09.33 0 .38l-.93-.52c-.09-.05-.1-.22-.01-.38Z"/><path class="cls-17" d="M441 75.87a1.36 1.36 0 0 0-.46.51.87.87 0 0 0-.09.81l-.76 1.41c-.1.17-.09.34 0 .39a.2.2 0 0 0 .18 0 .58.58 0 0 0 .2-.21l.76-1.4.15-.06Z"/></g><g class="cls-2"><path class="cls-21" d="m445.47 72.91-2.92-1.63.04 12.8 2.92 1.63-.04-12.8z"/><path class="cls-11" d="m444.64 76.43-1.26-.7.03 4.44 1.27.7-.04-4.44z"/><path class="cls-14" d="m448.02 71.49-2.92-1.63-2.55 1.42 2.92 1.63 2.55-1.42z"/><path class="cls-15" d="m445.47 72.91.04 12.8 2.55-1.41-.04-12.81-2.55 1.42z"/></g><path class="cls-17" d="M443.44 73.25a1.21 1.21 0 0 0 .59 1c.32.18.59 0 .59-.32a1.26 1.26 0 0 0-.59-1c-.33-.19-.59-.04-.59.32ZM443.44 83.13a1.21 1.21 0 0 0 .59 1c.32.18.59 0 .59-.32a1.26 1.26 0 0 0-.59-1c-.33-.19-.59-.04-.59.32Z"/><g class="cls-2"><path class="cls-7" d="m442.42 80.1.76-1.4a1 1 0 0 1 .09-.82 1.42 1.42 0 0 1 .47-.5l.93.52a1.34 1.34 0 0 0-.47.5.94.94 0 0 0-.09.81l-.76 1.41c-.09.16-.08.33 0 .38l-.93-.52c-.08-.05-.09-.21 0-.38Z"/><path class="cls-17" d="M444.67 77.9a1.34 1.34 0 0 0-.47.5.94.94 0 0 0-.09.81l-.76 1.41c-.09.17-.08.35 0 .39a.21.21 0 0 0 .17 0 .48.48 0 0 0 .2-.22l.76-1.4a.76.76 0 0 0 .16-.06Z"/></g><g class="cls-2"><path class="cls-21" d="m449.17 74.93-2.92-1.63.03 12.8 2.93 1.63-.04-12.8z"/><path class="cls-11" d="m448.34 78.45-1.26-.7.03 4.44 1.26.7-.03-4.44z"/><path class="cls-14" d="m451.72 73.52-2.92-1.63-2.55 1.41 2.92 1.63 2.55-1.41z"/><path class="cls-15" d="m449.17 74.93.04 12.8 2.55-1.41-.04-12.8-2.55 1.41z"/></g><path class="cls-17" d="M447.14 75.27a1.2 1.2 0 0 0 .59 1c.32.18.58 0 .58-.32a1.25 1.25 0 0 0-.58-1c-.33-.19-.59-.04-.59.32ZM447.14 85.15a1.21 1.21 0 0 0 .59 1c.32.18.58 0 .58-.32a1.25 1.25 0 0 0-.58-1c-.33-.19-.59-.04-.59.32Z"/><g class="cls-2"><path class="cls-22" d="m446.12 82.12.76-1.4a.92.92 0 0 1 .09-.82 1.4 1.4 0 0 1 .46-.5l.94.52a1.34 1.34 0 0 0-.47.5.92.92 0 0 0-.09.82l-.76 1.4c-.09.17-.08.33 0 .39l-.93-.52c-.12-.06-.12-.22 0-.39Z"/><path class="cls-23" d="M448.37 79.92a1.34 1.34 0 0 0-.47.5.92.92 0 0 0-.09.82l-.76 1.4c-.09.17-.08.35 0 .39a.21.21 0 0 0 .17 0 .51.51 0 0 0 .2-.21l.76-1.41a.44.44 0 0 0 .16-.06Z"/></g><g class="cls-2"><path class="cls-21" d="m452.89 77.07-2.92-1.63.04 12.8 2.92 1.63-.04-12.8z"/><path class="cls-11" d="m452.06 80.59-1.26-.7.03 4.44 1.27.71-.04-4.45z"/><path class="cls-14" d="m455.44 75.66-2.92-1.63-2.55 1.41 2.92 1.63 2.55-1.41z"/><path class="cls-15" d="m452.89 77.07.04 12.8 2.55-1.41-.04-12.8-2.55 1.41z"/></g><path class="cls-17" d="M450.86 77.41a1.26 1.26 0 0 0 .59 1c.32.18.59 0 .59-.33a1.24 1.24 0 0 0-.59-1c-.32-.17-.59-.03-.59.33ZM450.86 87.29a1.26 1.26 0 0 0 .59 1c.32.18.59 0 .59-.33a1.26 1.26 0 0 0-.59-1c-.32-.17-.59-.03-.59.33Z"/><g class="cls-2"><path class="cls-7" d="M451.09 81.58a6.19 6.19 0 0 1 1 .48c-.13.07-1.06-.45-1.06-.45Z"/><path class="cls-7" d="M450 81a.47.47 0 0 1 .14-.12.19.19 0 0 1 .19 0l.93.52a.21.21 0 0 0-.19 0 .79.79 0 0 0-.14.13c-.12.16-.16.35-.08.45l.64.73a.77.77 0 0 0 0 .77l.09.07-.93-.52-.09-.07a.77.77 0 0 1 0-.77l-.64-.73c-.05-.12-.01-.31.08-.46Z"/><path class="cls-17" d="M451.1 81.38a.79.79 0 0 0-.14.13c-.12.16-.16.35-.08.45l.64.73a.77.77 0 0 0 0 .77.43.43 0 0 0 .55 0s0-1.42 0-1.42l-.76-.67a.21.21 0 0 0-.21.01Z"/></g><g class="cls-2"><path class="cls-21" d="m456.63 79.13-2.93-1.63.04 12.8 2.93 1.63-.04-12.8z"/><path class="cls-11" d="m455.8 82.65-1.26-.7.03 4.44 1.26.71-.03-4.45z"/><path class="cls-14" d="m459.18 77.72-2.93-1.63-2.55 1.41 2.93 1.63 2.55-1.41z"/><path class="cls-15" d="m456.63 79.13.04 12.8 2.55-1.41-.04-12.8-2.55 1.41z"/></g><path class="cls-17" d="M454.6 79.47a1.23 1.23 0 0 0 .59 1c.32.18.58 0 .58-.33a1.21 1.21 0 0 0-.58-1c-.33-.14-.59-.03-.59.33ZM454.6 89.35a1.23 1.23 0 0 0 .59 1c.32.17.58 0 .58-.33a1.25 1.25 0 0 0-.58-1c-.33-.18-.59-.02-.59.33Z"/><g class="cls-2"><path class="cls-22" d="M454.82 83.64a6.19 6.19 0 0 1 1 .48c-.12.07-1.05-.45-1.05-.45Z"/><path class="cls-22" d="M453.77 83.05a.31.31 0 0 1 .14-.12.19.19 0 0 1 .19 0l.93.52a.21.21 0 0 0-.19 0 .43.43 0 0 0-.14.13c-.12.16-.16.35-.08.45l.64.73a.77.77 0 0 0 0 .77.27.27 0 0 0 .08.07l-.93-.52a.27.27 0 0 1-.08-.07.77.77 0 0 1 0-.77l-.64-.73c-.08-.11-.04-.3.08-.46Z"/><path class="cls-23" d="M454.84 83.44a.43.43 0 0 0-.14.13c-.12.16-.16.35-.08.45l.64.73a.77.77 0 0 0 0 .77.42.42 0 0 0 .54 0s0-1.42 0-1.42l-.76-.67a.19.19 0 0 0-.2.01Z"/></g><g class="cls-2"><path class="cls-21" d="m441.77 57.02-2.92-1.63.04 12.8 2.92 1.63-.04-12.8z"/><path class="cls-11" d="m440.94 60.54-1.26-.7.04 4.44 1.26.7-.04-4.44z"/><path class="cls-14" d="m444.32 55.61-2.92-1.63-2.55 1.41 2.92 1.63 2.55-1.41z"/><path class="cls-15" d="m441.77 57.02.04 12.8 2.55-1.41-.04-12.8-2.55 1.41z"/></g><path class="cls-17" d="M439.74 57.36a1.24 1.24 0 0 0 .59 1c.33.18.59 0 .59-.32a1.23 1.23 0 0 0-.59-1c-.33-.19-.59-.04-.59.32ZM439.74 67.24a1.24 1.24 0 0 0 .59 1c.33.18.59 0 .59-.32a1.23 1.23 0 0 0-.59-1c-.33-.19-.59-.04-.59.32Z"/><g class="cls-2"><path class="cls-22" d="m438.72 64.21.77-1.4a.89.89 0 0 1 .09-.82 1.32 1.32 0 0 1 .46-.5l.96.51a1.32 1.32 0 0 0-.46.5.89.89 0 0 0-.09.82l-.76 1.4c-.1.17-.09.33 0 .39l-.93-.52c-.12-.05-.13-.21-.04-.38Z"/><path class="cls-23" d="M441 62a1.32 1.32 0 0 0-.46.5.89.89 0 0 0-.09.82l-.76 1.4c-.1.17-.09.35 0 .39a.23.23 0 0 0 .18 0 .68.68 0 0 0 .2-.21l.76-1.41a.47.47 0 0 0 .15-.06Z"/></g><g class="cls-2"><path class="cls-21" d="m445.47 59.04-2.92-1.63.04 12.8 2.92 1.63-.04-12.8z"/><path class="cls-11" d="m444.64 62.56-1.26-.7.03 4.44 1.27.71-.04-4.45z"/><path class="cls-14" d="M448.02 57.63 445.1 56l-2.55 1.41 2.92 1.63 2.55-1.41z"/><path class="cls-15" d="m445.47 59.04.04 12.8 2.55-1.41-.04-12.8-2.55 1.41z"/></g><path class="cls-17" d="M443.44 59.38a1.23 1.23 0 0 0 .59 1c.32.18.59 0 .59-.33a1.24 1.24 0 0 0-.59-1c-.33-.17-.59-.05-.59.33ZM443.44 69.26a1.23 1.23 0 0 0 .59 1c.32.18.59 0 .59-.33a1.24 1.24 0 0 0-.59-1c-.33-.17-.59-.03-.59.33Z"/><g class="cls-2"><path class="cls-22" d="m442.42 66.23.76-1.4a1 1 0 0 1 .09-.82 1.52 1.52 0 0 1 .47-.5l.93.52a1.52 1.52 0 0 0-.47.5 1 1 0 0 0-.09.82l-.76 1.4c-.09.17-.08.34 0 .39l-.93-.52c-.08-.05-.09-.22 0-.39Z"/><path class="cls-23" d="M444.67 64a1.52 1.52 0 0 0-.47.5 1 1 0 0 0-.09.82l-.76 1.4c-.09.18-.08.35 0 .39a.21.21 0 0 0 .17 0 .45.45 0 0 0 .2-.21l.76-1.4.16-.07Z"/></g><g class="cls-2"><path class="cls-21" d="m449.17 61.06-2.92-1.63.03 12.81 2.93 1.62-.04-12.8z"/><path class="cls-11" d="m448.34 64.59-1.26-.71.03 4.45 1.26.7-.03-4.44z"/><path class="cls-14" d="m451.72 59.65-2.92-1.63-2.55 1.41 2.92 1.63 2.55-1.41z"/><path class="cls-15" d="m449.17 61.06.04 12.8 2.55-1.41-.04-12.8-2.55 1.41z"/></g><path class="cls-17" d="M447.14 61.4a1.23 1.23 0 0 0 .59 1c.32.18.58 0 .58-.33a1.24 1.24 0 0 0-.58-1c-.33-.17-.59-.07-.59.33ZM447.14 71.28a1.23 1.23 0 0 0 .59 1c.32.18.58 0 .58-.33a1.23 1.23 0 0 0-.58-1c-.33-.17-.59-.03-.59.33Z"/><g class="cls-2"><path class="cls-22" d="m446.12 68.26.76-1.41A.9.9 0 0 1 447 66a1.32 1.32 0 0 1 .46-.5l.94.51a1.42 1.42 0 0 0-.47.5.92.92 0 0 0-.09.82l-.76 1.41c-.09.16-.08.33 0 .38l-.93-.52c-.15-.01-.15-.18-.03-.34Z"/><path class="cls-23" d="M448.37 66.05a1.42 1.42 0 0 0-.47.5.92.92 0 0 0-.09.82l-.76 1.41c-.09.17-.08.34 0 .39a.18.18 0 0 0 .17 0 .45.45 0 0 0 .2-.21l.76-1.4.16-.06Z"/></g><g class="cls-2"><path class="cls-21" d="m452.89 63.2-2.92-1.62.04 12.8 2.92 1.63-.04-12.81z"/><path class="cls-11" d="m452.06 66.73-1.26-.7.03 4.44 1.27.7-.04-4.44z"/><path class="cls-14" d="m455.44 61.79-2.92-1.63-2.55 1.42 2.92 1.62 2.55-1.41z"/><path class="cls-15" d="m452.89 63.2.04 12.81 2.55-1.42-.04-12.8-2.55 1.41z"/></g><path class="cls-17" d="M450.86 63.55a1.26 1.26 0 0 0 .59 1c.32.18.59 0 .59-.32a1.26 1.26 0 0 0-.59-1c-.32-.23-.59-.04-.59.32ZM450.86 73.42a1.26 1.26 0 0 0 .59 1c.32.18.59 0 .59-.32a1.26 1.26 0 0 0-.59-1c-.32-.18-.59-.03-.59.32Z"/><g class="cls-2"><path class="cls-22" d="M451.09 67.71a7.16 7.16 0 0 1 1 .49c-.13.07-1.06-.45-1.06-.45Z"/><path class="cls-22" d="m450 67.12.14-.12a.22.22 0 0 1 .19 0l.93.52a.19.19 0 0 0-.19 0l-.14.12c-.12.16-.16.36-.08.45l.64.73a.79.79 0 0 0 0 .78.47.47 0 0 0 .09.06l-.93-.51-.09-.07a.77.77 0 0 1 0-.77l-.64-.74c-.05-.09-.01-.29.08-.45Z"/><path class="cls-23" d="m451.1 67.52-.14.12c-.12.16-.16.36-.08.45l.64.73a.79.79 0 0 0 0 .78.43.43 0 0 0 .55 0s0-1.42 0-1.42l-.76-.67a.18.18 0 0 0-.21.01Z"/></g><g class="cls-2"><path class="cls-21" d="m456.63 65.27-2.93-1.63.04 12.8 2.93 1.63-.04-12.8z"/><path class="cls-11" d="m455.8 68.79-1.26-.71.03 4.45 1.26.7-.03-4.44z"/><path class="cls-14" d="m459.18 63.85-2.93-1.63-2.55 1.42 2.93 1.63 2.55-1.42z"/><path class="cls-15" d="m456.63 65.27.04 12.8 2.55-1.42-.04-12.8-2.55 1.42z"/></g><path class="cls-17" d="M454.6 65.61a1.23 1.23 0 0 0 .59 1c.32.18.58 0 .58-.32a1.25 1.25 0 0 0-.58-1c-.33-.19-.59-.04-.59.32ZM454.6 75.48a1.23 1.23 0 0 0 .59 1c.32.18.58 0 .58-.33a1.24 1.24 0 0 0-.58-1c-.33-.15-.59-.02-.59.33Z"/><g class="cls-2"><path class="cls-22" d="M454.82 69.77a7.16 7.16 0 0 1 1 .49c-.12.07-1.05-.45-1.05-.45Z"/><path class="cls-22" d="M453.77 69.18a.53.53 0 0 1 .14-.12.19.19 0 0 1 .19 0l.93.52a.19.19 0 0 0-.19 0 .53.53 0 0 0-.14.12c-.12.16-.16.36-.08.45l.64.73a.79.79 0 0 0 0 .78.24.24 0 0 0 .08.06l-.93-.51a.27.27 0 0 1-.08-.07.77.77 0 0 1 0-.77l-.64-.74c-.08-.09-.04-.29.08-.45Z"/><path class="cls-23" d="M454.84 69.58a.53.53 0 0 0-.14.12c-.12.16-.16.36-.08.45l.64.73a.79.79 0 0 0 0 .78.42.42 0 0 0 .54 0s0-1.42 0-1.42l-.76-.67s-.11-.04-.2.01Z"/></g><g class="cls-2"><path class="cls-24" d="m446.54 33.67-7.28-4.06.03 10.13 7.28 4.06-.03-10.13z"/><path class="cls-25" d="m447.94 32.89-7.28-4.06-1.4.78 7.28 4.06 1.4-.78z"/><path class="cls-26" d="m446.54 33.67.03 10.13 1.4-.78-.03-10.13-1.4.78z"/></g><path class="cls-11" d="m435.43 26.4 4.68-2.6a3.75 3.75 0 0 1 3.65.34 10.72 10.72 0 0 1 5.12 8.5 3.39 3.39 0 0 1-1.49 3.16l-4.69 2.61.17-.11a3.64 3.64 0 0 1-3.83-.23 10.75 10.75 0 0 1-5.11-8.51 3.4 3.4 0 0 1 1.5-3.16Z"/><path class="cls-27" d="M439.08 26.75c-2.84-1.57-5.14-.31-5.15 2.81a10.75 10.75 0 0 0 5.07 8.51c2.84 1.57 5.15.31 5.16-2.82a10.73 10.73 0 0 0-5.08-8.5Z"/><path class="cls-17" d="M434.82 29.57a9.36 9.36 0 0 0 2 5.31l5.18 2.89c.81-.31 1.28-1.2 1.28-2.52a8.87 8.87 0 0 0-1.38-4.41l-6.33-3.5a2.86 2.86 0 0 0-.75 2.23Z"/><path class="cls-11" d="m436.13 30.6 5.27 2.92c.27.15.49 0 .49-.27v-.55a1 1 0 0 0-.49-.81L436.13 29c-.27-.15-.49 0-.49.27v.54a1 1 0 0 0 .49.79ZM436.67 32.06l3.89 2.16v-.51l-3.89-2.15v.5zM437.2 33.22l2.83 1.57v-.37l-2.83-1.57v.37z"/><g class="cls-2"><path class="cls-24" d="m458.15 39.52-7.28-4.06.03 10.13 7.28 4.06-.03-10.13z"/><path class="cls-25" d="m459.56 38.74-7.29-4.06-1.4.78 7.28 4.06 1.41-.78z"/><path class="cls-26" d="m458.15 39.52.03 10.13 1.4-.78-.02-10.13-1.41.78z"/></g><path class="cls-11" d="m447.05 32.25 4.67-2.6a3.75 3.75 0 0 1 3.65.34 10.72 10.72 0 0 1 5.12 8.5 3.39 3.39 0 0 1-1.49 3.16l-4.69 2.61.17-.11a3.63 3.63 0 0 1-3.82-.23 10.74 10.74 0 0 1-5.12-8.51 3.38 3.38 0 0 1 1.51-3.16Z"/><path class="cls-27" d="M450.69 32.6c-2.84-1.57-5.14-.31-5.15 2.81a10.74 10.74 0 0 0 5.12 8.51c2.83 1.57 5.14.31 5.15-2.82a10.73 10.73 0 0 0-5.12-8.5Z"/><path class="cls-17" d="M446.43 35.42a9.43 9.43 0 0 0 2 5.31l5.22 2.89c.81-.31 1.28-1.2 1.28-2.52a8.87 8.87 0 0 0-1.38-4.41l-6.32-3.5a2.83 2.83 0 0 0-.8 2.23Z"/><path class="cls-11" d="m447.74 36.45 5.26 2.92c.27.15.49 0 .49-.27v-.55a1 1 0 0 0-.49-.81l-5.27-2.91c-.27-.15-.49 0-.49.27v.54a1 1 0 0 0 .5.81ZM448.29 37.91l3.88 2.15v-.5l-3.88-2.15v.5zM448.81 39.07l2.83 1.56v-.36l-2.83-1.57v.37z"/></g><path class="cls-28" d="m382.87 107.14-.4 3.51.3 2.16 1 3c.32.84 1.14.84 1.26.14l.5 1.43c.49 1.14 1.65.46 1.33-.68l-.6-2.91 1.24 3.72c.55 1.12 1.67.68 1.51-.73l-.78-4 1.1 3.24c.38.76 1.62.56 1.55-.73l-.74-5.18a3.1 3.1 0 0 1 .54-1.81c.47-.59 2.8 1.23 2.8 1.23l2.11 1.75c.84.29 1.26.15 1.25-.43l-1.43-2.13-1.67-2.06-.74-.91a11.69 11.69 0 0 0-3.57-2.48v-.38l-.08-.74-2-.08-3-.11-.29 2.16-.37 1Z"/><path class="cls-29" d="m391 108-3.77-1.61-2.81 3L385 116c.26-1.66.59-3.64 1.8-3.82l2 .09-1.41-1.33.56-1.49 3.52.11ZM393.74 106.64l-6.89-2.09a4 4 0 0 0 2.55-1.66v.37a11.65 11.65 0 0 1 3.58 2.48Z"/><path class="cls-30" d="M401.06 62.71 397.16 76l-3.22 11c-2.17 6.35-4.2 11.4-4.27 14.92a2.39 2.39 0 0 1-.27.94 4 4 0 0 1-2.55 1.66 13.55 13.55 0 0 1-3.19.52c-.34-7-.36-13.69 1.26-18.79l3.81-13c1.84-7.53 4.87-12.92 12.33-10.54Z"/><path d="M429.44 126.8c-10.24 5.07-21.58 6.89-33.27 8-6.25 0-6.68-12.83-3.47-13.87l10.3-3.01 28.38 7.08a8.89 8.89 0 0 1-1.94 1.8Z" style="fill:#0b4757"/><path d="m395.37 123.62-7 .36-4.47-.27c-3.82.45-4.22 9.41-3.32 17.56l7 4.23c2.39-.12 3-.28 4.79-1.59.76-1.27.67-2.69-1.76-4.64l.48-4.69 4.8-.86c3.27-1.19 3.11-8.47-.52-10.1Z"/><path class="cls-30" d="M443.73 137.44c-10.23 5.08-21.57 6.9-33.28 8.06-4.24 0-5.79-5.92-5.36-10.05.23-1.94.89-3.5 1.92-3.82l10.47-3.1s-16.9-6.73-21.19-10.87c-5-4.87-3.28-11.73-2.56-14.48a3.59 3.59 0 0 1 .08-.35c.06-.21.46-1 .84-1.71s.68-1.31.68-1.38c0-.33 2.58.46 6.07 1.67.91.31 1.87.64 2.85 1 4.16 1.49 8.86 3.26 12 4.48.52.19 1 .38 1.4.54 1.47.56 2.37.92 2.37.92l.12.07c.41.23.83.47 1.23.72 1.82 1.06 3.61 2.14 5.34 3.22 3.17 2 6.16 4 8.95 6a78.19 78.19 0 0 1 9.57 8.15c2.83 4.93 2.05 8.49-1.5 10.93Z"/><path d="m409.86 133-7 .36-4.47-.27c-3.82.45-4.22 9.41-3.32 17.56l7 4.23c2.39-.12 3-.28 4.79-1.59.76-1.27.67-2.69-1.76-4.64l.48-4.69 4.8-.86c3.27-1.19 3.08-8.48-.52-10.1Z"/><path class="cls-32" d="M396.3 117.66c4.28 4.14 21.17 10.87 21.17 10.87L407 131.62c-1 .33-1.68 1.88-1.89 3.83l7.66 1.66c2.8-5.42 11.43-7.42 20.79-8.26-14.44-2.45-23.13-7.4-20.86-16.38-9 7.46-18.74-1.52-18.89-9.64-.63 2.49-2.75 9.74 2.49 14.83Z"/><path class="cls-28" d="m448.72 89.13 1.66 4 .11.26.52-.16c.38-.19 6.31-3.39 6.42-3.51a14.65 14.65 0 0 0 2.73-5l.24-1.93-.08-.32-.78-3.11-1.64-.55c-1 0-1 .61-.51 1l.64.69-2.8 2-2 .53 1.28-1.8a9.49 9.49 0 0 0 1.62-.92c.6-.39.9-1.22.15-1.27l-3.64 1.43-2.54 3.5Z"/><path class="cls-29" d="m460.4 82.75-.08-.32-3.22 4.95c-2.37 2.14-4.62 3.07-6.72 2.44v3.28l.11.26.52-.16c.38-.19 6.31-3.39 6.42-3.51Z"/><path class="cls-32" d="M393.94 87c-2.17 6.35-4.2 11.4-4.27 14.92a2.39 2.39 0 0 1-.27.94 4 4 0 0 1-2.55 1.66c.19-.84.32-1.66.46-2.49 2.09-12.65.26-23.92 5.93-28.88l3.92 2.85Z"/><path class="cls-30" d="M428.14 78.08a92.9 92.9 0 0 0-2.59 13c-.07.55-.16 1.11-.23 1.64-.17 1.12-.32 2.23-.49 3.32q-.12.9-.27 1.77a72.31 72.31 0 0 1-3.16 11.32c-1.52.61-4.2.12-5.68.54-9 2.62-15.9 0-21.07-8.56-1-3.55-2.55-15.49-2-28 .77-5.72.55-9.62 5.8-11 11.25 1.69 21.44 8.09 29.71 15.9Z"/><path class="cls-28" d="m418.7 62.16-.85 7.84c-5.27 0-13.52-3.54-12.48-6.23l2.77-5.1Z"/><path class="cls-28" d="M421.22 63.14c-2.09 2.29-5.25 2-8.46 1.16-4.69-2.07-8.07-5.15-7.61-11-.37-4.25 1.64-8.71 9.2-8.47 4.81.14 8.91 1.82 9.2 6.75 0-.01.25 9.29-2.33 11.56Z"/><path class="cls-33" d="M423.52 50.35a7 7 0 0 1-3.07 4.11s.36 3.83.15 3.9-2.3 1.79-2.3 1.79L417.22 63c-3.59 2.49-8.93.6-10.56-1.65-1-1.16-2-4.94-1.76-9.43a9.75 9.75 0 0 1 9.45-8.55c5.96-.2 9.65 3.12 9.17 6.98Z"/><path class="cls-28" d="M420 58.92c.58-.62-.31-2.05-1-2.25-.9-.28-1.39 1-1.49 1.65a3.11 3.11 0 0 0 .53 2.39c.62.87 1.58 0 1.88-.69.21-.5-.34-.71.08-1.1Z"/><path class="cls-30" d="m451.3 93-.33.35c0 .06-.11.11-.15.17-4.91 5.39-6.93 7-12.92 9.3-.51-.1-1-.21-1.48-.35a24.82 24.82 0 0 1-2.8-.93 26.3 26.3 0 0 1-5.14-2.65c-.4-.25-.79-.53-1.18-.81a28.49 28.49 0 0 1-2.47-2.07 29.92 29.92 0 0 1-2.46-2.56 27 27 0 0 1-.81-3.07c-1.26-6.13.31-10.59 5.29-13a6.65 6.65 0 0 1 1.28.64c3.52 2.21 7 7.82 10.44 13.23 3.54-1.61 5.35-1.4 10.63-3.22 2.46 1.83 2.92 3.47 2.1 4.97Z"/><path class="cls-32" d="m451.31 93-.34.35c0 .06-.11.11-.15.17-4.45 4.58-6.57 6.82-12.92 9.3-.5-.11-1-.22-1.48-.35a27.83 27.83 0 0 1-2.8-.93 26.3 26.3 0 0 1-5.14-2.65c-.4-.26-.79-.53-1.18-.82a26.69 26.69 0 0 1-2.47-2.06q-.12.9-.27 1.77a72.31 72.31 0 0 1-3.16 11.32c1.82 1.06 3.61 2.14 5.34 3.22-3.21-1.14-8.63-2-11-2.68a5.39 5.39 0 0 0 2-2.25c2.21-4.05 3.12-12 3.88-17 .2-1.36.41-2.8.6-4.32a31.25 31.25 0 0 0 3.39 5A21.16 21.16 0 0 0 427.4 93c2.79 2.55 6.16 4.23 11.25 6.76 2 1 6.44-4.76 12.65-6.73Z"/><path class="cls-7" d="m482 25.52-25.25 13.95v59.89L482 86.08V25.52z"/><path class="cls-17" d="M409.82 57.89 409.5 59a8.77 8.77 0 0 1-3.5-1.65l-.24-1.4a7.61 7.61 0 0 0 4.06 1.94Z"/><path d="M422.65 53.08c4-3.14 7.49-5.38 7.58-7.51 0-3-3.44-5.18-6.3-5a20.34 20.34 0 0 0-7.6 2.77Z" style="fill:#0e586b"/><path class="cls-30" d="M423.91 49.13c.42 5.75-5.67 9.5-12.65 10a9.29 9.29 0 0 1-1.76-.13 2.94 2.94 0 0 0-1.91-3.46c-1.28-.53-1.77.24-1.59 1.81-1.5-1.49-1.47-3.7-1.1-6.49 1.53-5.08 4.32-8.6 10.78-9.09 3.83.33 7.32 2.23 8.23 7.36Z"/><path class="cls-17" d="M417 195.41s3.1-.49 7.76 2.3 9.9 17.47 10.67 28.53c-.26 5.14-2.47 9.87-5.26 14.47L421 239.6l-4.5-30Z"/><path class="cls-35" d="m420.14 211.05 2.5-2c3.16 3.43 5.51 9.06 7.15 16.6a14.2 14.2 0 0 1-4.41 9.21Z"/><path class="cls-11" d="M412.79 259.18c-5.64 0-11.63-6.63-15.65-17.31l1.2-.31c3.78 10.07 9.45 16.58 14.45 16.58 5.71 0 9.83-8.3 10.23-20.64h1.26c-.44 13.18-4.95 21.68-11.49 21.68Z"/><path class="cls-11" d="M415.53 257.69c-5.46 0-11.3-6.59-15.34-17.32l1.2-.32c3.88 10.33 9.56 16.85 14.41 16.58 8-.41 9.85-7.88 10.28-20.64h1.25c-.37 11.12-1.52 21.14-11.45 21.66Z"/><path class="cls-11" d="M414.38 259.14c-5.64 0-11.63-6.63-15.65-17.31l1.2-.31c3.78 10.07 9.45 16.58 14.45 16.58 5.71 0 9.83-8.3 10.23-20.64h1.26c-.44 13.18-4.95 21.68-11.49 21.68Z"/><path class="cls-17" d="M420.78 244c-2.65 4.8-14.66 7.94-24.21 7.91-3.42 0-6.35-.67-8-2.21a4.14 4.14 0 0 1-.69-1.54c-1.31-4.32-3-16.3-4-25.78-.64-6.06-1-11.11-.85-12.5 3.8-3.59 11.06-7.28 16.15-10a95.28 95.28 0 0 1 10.9-3.47c5.05-1.54 13.54-2 12.54 4.62-1.84 11.59 1.44 36.97-1.84 42.97Z"/><path d="m391 303-4.52 5.55 1.66 6.13c3.22 2.32 4.68 4 3.82 5.58-1.94 1.66-4.73 1.84-7.8 1.39-5.53-.3-9.33-9.11-11.17-13.84a9.36 9.36 0 0 1 4.2-4.28l4.61-6ZM425.05 317.48l1.74 7.39a13.43 13.43 0 0 0 6.68 4.46c3.62.58 6.15 1.3 7.18 2.91a2.52 2.52 0 0 1-.42 3.07c-1.14 1.27-2.64 2.13-6 2.13-6.61-.44-15.56-1.51-17.89-3.35a11.72 11.72 0 0 1-.4-6.63l-2.25-7.83Z"/><path class="cls-17" d="M419.16 261.24c-1.34 6.33-6.27 19.06-6.27 19.06l-20.09 24.05c-3.28 3.72-16.54-1.18-13.58-7.58L397.34 269l6.84-19.71 16.43-7.92a71 71 0 0 1-1.45 19.87Z"/><path class="cls-17" d="m392 266.74 11.78 22.92 8.26 33.51a1.44 1.44 0 0 0 .18.25c2.69 3.11 16.15 1.38 16.15-3.3L421 284.34l-9.21-22.73c5.17-2.19 8.36-8.83 8.82-15l1.14-5.22-33.2 8.07c-2.05 6.19-.12 13.54 3.45 17.28Z"/><path class="cls-35" d="M412.26 323.42a1.1 1.1 0 0 1-.19-.25l-8.26-33.5L392 266.74c-3.57-3.66-5.5-11-3.52-17.12a.66.66 0 0 1 .05-.15c-.25-.44-.48-.89-.71-1.36-1.31-4.32-3-16.3-4-25.78l8.69-2.63c-3.09 11.26-1.75 27 5.09 31.74a11 11 0 0 0-1 .42c-7 3.25-2.73 10.94-.2 12.36-.07 9.36 5.51 15.89 11.69 22.53-1.91 6 1.91 21.33 4.17 36.67Z"/><path class="cls-36" d="M426.59 233.71a27.65 27.65 0 0 1-7.91 5.62.8.8 0 0 0 .28 1.45l1.9.57c.24 1.33 2 2.25 3.74 2.6 2-.3 3.67-.83 4.66-2l.87-1.25a5.33 5.33 0 0 0 .7-4.8l-.34-1a4.54 4.54 0 0 0-3.9-1.19Z"/><path class="cls-11" d="M425.3 238.17a.58.58 0 0 1-.62-.54 69.73 69.73 0 0 0-.64-11.19c-2.32-17.52-10.48-31.77-18.19-31.77a.58.58 0 0 1-.62-.53.58.58 0 0 1 .62-.52c8.47 0 17 14.37 19.43 32.7a70.58 70.58 0 0 1 .65 11.34.59.59 0 0 1-.63.51Z"/><path class="cls-11" d="M424.06 238.53a.58.58 0 0 1-.62-.54 71.77 71.77 0 0 0-.91-10.89l-.08-.62c-2.32-17.48-10.45-31.77-18.19-31.77a.58.58 0 0 1-.62-.53.58.58 0 0 1 .62-.52c8.47 0 17 14.37 19.43 32.71l.08.62a70.67 70.67 0 0 1 .92 11 .59.59 0 0 1-.63.54Z"/><path class="cls-11" d="M426.47 237.38a.57.57 0 0 1-.63-.53 76.15 76.15 0 0 0-.34-11.85c-2.32-17.52-10.48-31.78-18.19-31.78a.53.53 0 1 1 0-1c8.47 0 17 14.36 19.43 32.7a77 77 0 0 1 .35 12 .58.58 0 0 1-.62.46Z"/><path class="cls-36" d="M395.92 202a43.42 43.42 0 0 0 2.3-8.6l13.4 4.8-1.94 7.3c-2.29 7.16-15.68 2.05-13.76-3.5Z"/><path class="cls-37" d="M413.22 199.52c-.57 2.75 3.28 12.88-1.6 14.76-6.32 2.37-14.8-12.66-13.27-15.66l4.41-4.34Z"/><path class="cls-36" d="M404.9 180.6c-6.19.05-9.73 2.57-10 8.15.17 5.87 2.33 11 7.79 14.23a13.61 13.61 0 0 0 10.63 2c3.55-1.05 3.42-7.19 4-12.83.92-5.75-5.45-9.99-12.42-11.55Z"/><path d="M416.87 189c-1.4 2.85-7.95 6-13.95 3.74l-.7 4.66-2.68-1.17c-.66 1.41-1.33 2.78-2.46 2.28l-.92-1.11c-3.69-4.61-4.07-13.16 3.77-16.36 9.22-3.04 18.07 3.89 16.94 7.96Z"/><path class="cls-36" d="M398.68 198.23a4.93 4.93 0 0 1-1.5-1.52 1.83 1.83 0 0 1 0-1.91 1.86 1.86 0 0 1 2-.72 1.74 1.74 0 0 1 1.06 1 3.9 3.9 0 0 1 .26 1.35l.09 1.24a1 1 0 0 1-.21.82 1 1 0 0 1-.87.16 2.25 2.25 0 0 1-.83-.42Z"/><path class="cls-37" d="m402.27 193.15.18 1.73c5.16 4.49 12.53 4.42 14.51 2.1l.41-6.82Z"/><path class="cls-17" d="M393.63 190c2 2.49 5.2 3.92 10.39 3.69l13.19-5.34c-.57-4.8-6.21-9.06-13.54-8.57-7 .52-10.12 4.63-10.04 10.22Z"/><path class="cls-17" d="M403.4 193.75a39.46 39.46 0 0 0 8.83 2.15 6.62 6.62 0 0 0 3.47-.49 76.19 76.19 0 0 1 7.58-3.59c.61-.21.72-.71 0-1.11-1.12-.67-3.42-1.65-6.22-3-4.26.61-8.84 2.95-13.66 6.04Z"/><path class="cls-36" d="M422.35 238.3c2.31-.27 4.31-.88 4.85-2.62l1.2 1.67a52.81 52.81 0 0 1-4.75 2.85c-.16-.13-1.3-1.9-1.3-1.9Z"/><path class="cls-38" d="m372.63 260.33 1.24.59-.5.72c.13 3 1.86 4.53 4.93 5l1.26.61-.92 1.33-.58-.28-1.38 9.57-10.14 6.13-1.26-.61-1.62-9.67c3.07-3.42 4.8-6.61 4.93-9.74a4.35 4.35 0 0 1 2.39-3.47 2 2 0 0 1 1.62-.17Z"/><path class="cls-39" d="M372.24 261.09c1.32-.63 2.4-.12 2.4 1.16.12 3 1.85 4.53 4.92 5L378 278.47 366.54 284l-1.62-9.67c3.08-3.42 4.8-6.61 4.93-9.74a4.35 4.35 0 0 1 2.39-3.5Z"/><path class="cls-38" d="M371 263.9c0 .69.58 1 1.29.62a2.33 2.33 0 0 0 1.3-1.87c0-.69-.58-1-1.3-.63a2.37 2.37 0 0 0-1.29 1.88ZM364.92 274.3l.36 9.06 19.04 9.19-2.88-10.28-16.52-7.97z"/><path d="M379.56 267.24c-5.9-2.06-10.47 1.63-14.64 7.06l16.52 8c4.93-5 9.82-8.26 14.64-7.06Z" style="fill:#e0592e"/><path class="cls-38" d="M371 263.9c0 .69.58 1 1.29.62a2.33 2.33 0 0 0 1.3-1.87c0-.69-.58-1-1.3-.63a2.37 2.37 0 0 0-1.29 1.88Z"/><path class="cls-38" d="m373.16 261.95-1.83 2.65 17.78 8.58 1.83-2.65-17.78-8.58z"/><path class="cls-38" d="m390.42 268.91 1.23.59-.49.72c.12 3 1.85 4.53 4.92 5l1.27.61-.92 1.33-.59-.28-1.37 9.57-10.15 6.11-1.26-.61-1.62-9.67c3.08-3.42 4.81-6.61 4.93-9.74a4.35 4.35 0 0 1 2.39-3.47 2 2 0 0 1 1.62-.17Z"/><path class="cls-39" d="M390 269.67c1.32-.63 2.39-.12 2.39 1.16.12 3 1.85 4.53 4.93 5l-1.62 11.23-11.41 5.5-1.61-9.67c3.07-3.42 4.8-6.61 4.92-9.74a4.34 4.34 0 0 1 2.4-3.48Z"/><path class="cls-38" d="M388.73 272.48c0 .69.58 1 1.3.62a2.34 2.34 0 0 0 1.29-1.87c0-.69-.58-1-1.29-.63a2.36 2.36 0 0 0-1.3 1.88Z"/><path class="cls-10" d="m373.86 276.34-2.25 1.7v-.85l2.25-.85z"/><path class="cls-7" d="m373.54 278.41.41 2.17-1-2.05.59-.12zM372.49 277.9l.41 2.17-1-2.05.59-.12z"/><path style="fill:#b2b2b2" d="m372.9 280.07 1.05.51-1-2.05-1.05-.51 1 2.05z"/><path class="cls-10" d="m375.65 277.23-2.24 1.69v-.85l2.24-.84z"/><path class="cls-9" d="m371.61 278.04 1.8.88v-.85l-1.8-.88v.85z"/><path class="cls-16" d="m373.41 278.07 2.24-.84-1.79-.89-2.25.85 1.8.88z"/><path class="cls-36" d="m376.62 262.45 6.31-.5s3.8 3.69 4.13 4.62a8.44 8.44 0 0 1 .14 2.15 21.57 21.57 0 0 1-2.34-1.13 2.37 2.37 0 0 0-2 1.56c-.32 1 .44 1.25 1.29 1.64l1.8.86c.26.7-4 1.67-4.66 2a46.76 46.76 0 0 1-6-2.84 17.89 17.89 0 0 1-1-4.52 8.13 8.13 0 0 1 2.33-3.84Z"/><path class="cls-17" d="M383 209.83a56.54 56.54 0 0 0-9.52 26.91c-1.53 7.26-.77 18.73 3.17 25.71 2.17 1.57 5.28.82 6.78 0 .65-9.71 1-18.54-.43-23.57l8.76-16c6-11.04-3.85-18.28-8.76-13.05Z"/><path class="cls-7" d="m640.78 133.26 27.32-15.74-.47 111.51-27.32 15.74.47-111.51z"/><path class="cls-8" d="m592.38 105.59 48.4 27.67-.47 111.51-48.4-27.68.47-111.5z"/><path class="cls-10" d="m640.78 133.26 27.32-15.74-48.69-27.5-27.32 15.74 48.69 27.5z"/><path class="cls-11" d="M658.79 220.54c.46-.26.82 0 .82.47a1.82 1.82 0 0 1-.83 1.42l-9.23 5.33c-.46.26-.82.05-.82-.47a1.84 1.84 0 0 1 .82-1.42ZM658.8 217.44c.46-.27.82-.06.82.46a1.81 1.81 0 0 1-.82 1.42l-9.24 5.33c-.45.27-.82.06-.82-.46a1.81 1.81 0 0 1 .83-1.42ZM658.82 214.33c.45-.26.82-.05.82.47a1.86 1.86 0 0 1-.83 1.42l-9.24 5.33c-.45.26-.82 0-.82-.47a1.88 1.88 0 0 1 .83-1.42ZM658.83 211.23c.45-.26.82 0 .82.47a1.79 1.79 0 0 1-.83 1.41l-9.23 5.34c-.46.26-.82.05-.82-.47a1.82 1.82 0 0 1 .82-1.42ZM658.84 208.12c.46-.26.82-.05.82.47a1.81 1.81 0 0 1-.83 1.42l-9.23 5.33c-.46.27-.82.06-.82-.47a1.79 1.79 0 0 1 .83-1.41ZM658.86 205c.45-.26.82-.05.81.47a1.84 1.84 0 0 1-.82 1.42l-9.24 5.33c-.45.26-.82 0-.82-.47a1.88 1.88 0 0 1 .83-1.42ZM658.87 201.92c.45-.27.82-.06.82.46a1.79 1.79 0 0 1-.83 1.42l-9.24 5.34c-.45.26-.82.05-.81-.47a1.82 1.82 0 0 1 .82-1.42ZM659.07 153.15c.46-.26.82-.05.82.47a1.82 1.82 0 0 1-.82 1.42l-9.24 5.33c-.45.26-.82 0-.82-.47a1.82 1.82 0 0 1 .83-1.42ZM659.09 150.05c.45-.26.82-.06.81.47a1.8 1.8 0 0 1-.82 1.41l-9.24 5.34c-.45.26-.82 0-.82-.47a1.86 1.86 0 0 1 .83-1.42ZM659.1 146.94c.45-.26.82-.05.82.47a1.81 1.81 0 0 1-.83 1.42l-9.23 5.33c-.46.26-.83.05-.82-.47a1.8 1.8 0 0 1 .82-1.41ZM659.11 143.84c.46-.26.82-.05.82.47a1.82 1.82 0 0 1-.83 1.42l-9.23 5.33c-.46.26-.82.05-.82-.47a1.81 1.81 0 0 1 .83-1.42ZM659.13 140.74c.45-.27.82-.06.81.46a1.82 1.82 0 0 1-.82 1.42l-9.24 5.38c-.45.27-.82.06-.82-.46a1.79 1.79 0 0 1 .83-1.42ZM659.14 137.63c.45-.26.82 0 .82.47a1.86 1.86 0 0 1-.83 1.42l-9.24 5.33c-.45.26-.82.05-.81-.47a1.84 1.84 0 0 1 .82-1.42ZM659.15 134.53c.46-.26.82-.06.82.47a1.79 1.79 0 0 1-.83 1.41l-9.23 5.34c-.46.26-.82.05-.82-.47a1.81 1.81 0 0 1 .83-1.42Z"/><path class="cls-9" d="m633 189.89-3.96 2.11-1.59.85-.61-.32-22.46-11.97 5.56-2.96 16.9 9.01 2.2 1.17 3.96 2.11z"/><path class="cls-10" d="m633 189.89-23.07-12.29v-41.82l23.07 12.3v41.81z"/><path class="cls-27" d="m604.38 180.56 5.55-2.96v-41.82l-5.55 2.97v41.81z"/><path class="cls-17" d="M619.13 179.58a1.12 1.12 0 0 1-.47-.11l-6.37-3.3a1.79 1.79 0 0 1-1-1.56v-7.14h.55l.05 7.15a1.27 1.27 0 0 0 .71 1.11l6.36 3.3a.5.5 0 0 0 .46 0 .42.42 0 0 0 .23-.37v-9.94h.55v9.94a.93.93 0 0 1-.5.81 1.1 1.1 0 0 1-.57.11Z"/><path class="cls-17" d="M617.45 177.35a1 1 0 0 1-.45-.11l-4.31-2.38a2.13 2.13 0 0 1-1.12-1.8l-.05-6h.55v6a1.62 1.62 0 0 0 .85 1.36l4.3 2.38a.46.46 0 0 0 .38 0 .37.37 0 0 0 .19-.31l-.18-8.74h.55l.18 8.74a.85.85 0 0 1-.46.75.91.91 0 0 1-.43.11Z"/><path class="cls-13" d="M615.54 175a.91.91 0 0 1-.42-.11l-2-1.12a1.14 1.14 0 0 1-.6-1l-.07-5.1h.55l.07 5.1a.63.63 0 0 0 .34.55l2 1.13a.29.29 0 0 0 .28 0 .25.25 0 0 0 .14-.22v-7.46h.55v7.46a.73.73 0 0 1-.42.66.87.87 0 0 1-.42.11Z"/><path class="cls-8" d="M612.21 170.24a1.05 1.05 0 0 1-1.1-1v-28.3a1.1 1.1 0 0 1 2.2 0v28.3a1.05 1.05 0 0 1-1.1 1Z"/><path class="cls-13" d="M626.72 168.9a1.63 1.63 0 0 1-.75-.18l-3.56-1.9a3.87 3.87 0 0 1-1.92-3.08v-7.51h.51v7.51a3.39 3.39 0 0 0 1.65 2.64l3.55 1.9a1.06 1.06 0 0 0 1 0 .87.87 0 0 0 .47-.76v-4.73h.55v4.73a1.36 1.36 0 0 1-.75 1.2 1.62 1.62 0 0 1-.75.18Z"/><path class="cls-17" d="M625.36 167.26a1.06 1.06 0 0 1-.5-.12l-2.45-1.34a1.94 1.94 0 0 1-1-1.55v-7.51h.59v7.51a1.46 1.46 0 0 0 .7 1.12l2.44 1.33a.48.48 0 0 0 .45 0 .4.4 0 0 0 .22-.36l-.07-4.26h.55l.07 4.26a.89.89 0 0 1-.49.81 1 1 0 0 1-.51.11Z"/><path class="cls-13" d="M616.15 152.95h.55v13.72h-.55z"/><path class="cls-17" d="M618.23 155.02h.55v12.93h-.55z"/><path class="cls-13" d="M624.26 182.09a1.32 1.32 0 0 1-.61-.16l-1.51-.84a1.15 1.15 0 0 1-.59-1v-9.52h.55v9.52a.63.63 0 0 0 .33.54l1.51.84a.64.64 0 0 0 .63 0 .59.59 0 0 0 .33-.5v-3h.55v3a1.11 1.11 0 0 1-.61.94 1.3 1.3 0 0 1-.58.18Z"/><g class="cls-2"><path class="cls-24" d="m621.23 153.79-6.03-3.23.03 8.07 6.02 3.24-.02-8.08z"/><path class="cls-25" d="m622.39 153.18-6.02-3.24-1.17.62 6.03 3.23 1.16-.61z"/><path class="cls-26" d="m621.23 153.79.02 8.08 1.17-.62-.03-8.07-1.16.61z"/></g><path class="cls-11" d="m612 148 3.87-2.08a3.21 3.21 0 0 1 3 .27 8.53 8.53 0 0 1 4.24 6.78 2.69 2.69 0 0 1-1.24 2.52l-3.88 2.08.14-.09a3.1 3.1 0 0 1-3.16-.19 8.5 8.5 0 0 1-4.24-6.77A2.66 2.66 0 0 1 612 148Z"/><path class="cls-27" d="M615.05 148.28c-2.34-1.25-4.25-.24-4.26 2.25a8.5 8.5 0 0 0 4.21 6.77c2.35 1.25 4.25.25 4.26-2.24a8.53 8.53 0 0 0-4.21-6.78Z"/><path class="cls-17" d="M611.53 150.53a7.33 7.33 0 0 0 1.64 4.23l4.33 2.31a1.94 1.94 0 0 0 1.06-2 6.92 6.92 0 0 0-1.15-3.52l-5.23-2.79a2.23 2.23 0 0 0-.65 1.77Z"/><path class="cls-11" d="m612.61 151.35 4.37 2.33c.22.12.4 0 .4-.22V153a.82.82 0 0 0-.4-.65l-4.37-2.32c-.22-.12-.4 0-.4.21v.44a.82.82 0 0 0 .4.67ZM613.06 152.52l3.22 1.71v-.4l-3.22-1.71v.4zM613.5 153.44l2.34 1.25v-.29l-2.34-1.25v.29z"/><g class="cls-2"><path class="cls-21" d="m616.1 167.25-1.53-.82.02 6.44 1.53.82-.02-6.44z"/><path class="cls-11" d="m615.66 169.02-.66-.35.02 2.23.66.35-.02-2.23z"/><path class="cls-14" d="m617.43 166.54-1.53-.82-1.33.71 1.53.82 1.33-.71z"/><path class="cls-15" d="m616.1 167.25.02 6.44 1.33-.71-.02-6.44-1.33.71z"/></g><path class="cls-17" d="M615 167.42a.62.62 0 0 0 .31.49c.17.09.31 0 .31-.16a.62.62 0 0 0-.31-.49c-.14-.09-.31-.02-.31.16ZM615 172.39a.62.62 0 0 0 .31.49c.17.09.31 0 .31-.16a.62.62 0 0 0-.31-.49c-.14-.1-.31-.02-.31.16Z"/><g class="cls-2"><path class="cls-22" d="M615.15 169.52a3.25 3.25 0 0 1 .53.24c-.07 0-.56-.23-.56-.23Z"/><path class="cls-22" d="M614.6 169.22a.16.16 0 0 1 .08-.06.1.1 0 0 1 .09 0l.49.26a.12.12 0 0 0-.1 0 .19.19 0 0 0-.07.06c-.07.08-.09.18 0 .23l.33.37a.36.36 0 0 0 0 .38 4.48 4.48 0 0 1-.44-.22.34.34 0 0 1 0-.43l-.34-.36a.21.21 0 0 1-.04-.23Z"/><path class="cls-23" d="M615.16 169.42a.19.19 0 0 0-.07.06c-.07.08-.09.18 0 .23l.33.37a.36.36 0 0 0 0 .38c.07.08.17.07.28 0s0-.71 0-.71l-.4-.34a.13.13 0 0 0-.14.01Z"/></g><g class="cls-2"><path class="cls-21" d="m617.91 168.18-1.53-.82.02 6.43 1.53.82-.02-6.43z"/><path class="cls-11" d="m617.48 169.95-.66-.36.02 2.24.66.35-.02-2.23z"/><path class="cls-14" d="m619.24 167.47-1.52-.82-1.34.71 1.53.82 1.33-.71z"/><path class="cls-15" d="m617.91 168.18.02 6.43 1.33-.71-.02-6.43-1.33.71z"/></g><path class="cls-17" d="M616.85 168.35a.62.62 0 0 0 .31.49c.17.09.3 0 .3-.17a.61.61 0 0 0-.3-.49c-.16-.09-.31-.01-.31.17ZM616.85 173.32a.62.62 0 0 0 .31.49c.17.09.3 0 .3-.17a.61.61 0 0 0-.3-.49c-.16-.09-.31-.02-.31.17Z"/><g class="cls-2"><path class="cls-22" d="m616.32 171.79.4-.7a.44.44 0 0 1 0-.41.87.87 0 0 1 .24-.26l.49.27a.64.64 0 0 0-.24.25.45.45 0 0 0 0 .41l-.4.7v.2l-.49-.26s-.05-.11 0-.2Z"/><path class="cls-23" d="M617.49 170.69a.64.64 0 0 0-.24.25.45.45 0 0 0 0 .41l-.4.7v.2a.1.1 0 0 0 .09 0 .22.22 0 0 0 .1-.11l.4-.7h.08Z"/></g><g class="cls-2"><path class="cls-21" d="m619.69 169.26-1.53-.81.02 6.43 1.53.82-.02-6.44z"/><path class="cls-11" d="m619.26 171.04-.66-.36.02 2.24.65.35-.01-2.23z"/><path class="cls-14" d="m621.02 168.56-1.52-.82-1.34.71 1.53.81 1.33-.7z"/><path class="cls-15" d="m619.69 169.26.02 6.44 1.33-.71-.02-6.43-1.33.7z"/></g><path class="cls-17" d="M618.63 169.44a.62.62 0 0 0 .31.49c.17.09.3 0 .3-.17a.61.61 0 0 0-.3-.49c-.17-.09-.31-.01-.31.17ZM618.63 174.4a.62.62 0 0 0 .31.49c.17.09.3 0 .3-.16a.61.61 0 0 0-.3-.49c-.17-.09-.31-.02-.31.16Z"/><g class="cls-2"><path class="cls-22" d="M618.75 171.53a3.13 3.13 0 0 1 .52.24c-.06 0-.55-.22-.55-.22Z"/><path class="cls-22" d="m618.2 171.24.07-.07a.12.12 0 0 1 .1 0l.49.27a.09.09 0 0 0-.1 0l-.08.07c-.06.08-.08.17 0 .22l.34.37a.36.36 0 0 0 0 .39l-.45-.23a.36.36 0 0 1 0-.42l-.33-.37c-.13-.06-.11-.15-.04-.23Z"/><path class="cls-23" d="m618.76 171.43-.08.07c-.06.08-.08.17 0 .22l.34.37a.36.36 0 0 0 0 .39.22.22 0 0 0 .28 0s0-.72 0-.72l-.4-.33s-.1-.02-.14 0Z"/></g><g class="cls-2"><path class="cls-21" d="m621.51 170.19-1.53-.82.02 6.44 1.53.82-.02-6.44z"/><path class="cls-11" d="m621.07 171.96-.66-.35.02 2.23.66.36-.02-2.24z"/><path class="cls-14" d="m622.84 169.48-1.53-.82-1.33.71 1.53.82 1.33-.71z"/><path class="cls-15" d="m621.51 170.19.02 6.44 1.33-.71-.02-6.44-1.33.71z"/></g><path class="cls-17" d="M620.45 170.36a.61.61 0 0 0 .3.49c.17.09.31 0 .31-.16a.62.62 0 0 0-.31-.49c-.17-.09-.3-.02-.3.16ZM620.45 175.33a.61.61 0 0 0 .3.49c.17.09.31 0 .31-.16a.62.62 0 0 0-.31-.49c-.17-.09-.3-.02-.3.16Z"/><g class="cls-2"><path class="cls-22" d="m619.91 173.81.4-.71a.45.45 0 0 1 .05-.41.64.64 0 0 1 .24-.25l.49.26a.74.74 0 0 0-.25.25.44.44 0 0 0 0 .41l-.4.71v.19l-.49-.26s-.08-.11-.04-.19Z"/><path class="cls-23" d="M621.09 172.7a.74.74 0 0 0-.25.25.44.44 0 0 0 0 .41l-.4.71v.2a.1.1 0 0 0 .09 0 .26.26 0 0 0 .11-.1l.4-.71h.08Z"/></g><g class="cls-2"><path class="cls-8" d="m629.48 155.66-5.23-2.81.03 11.74 5.24 2.81-.04-11.74z"/><path class="cls-14" d="m631.64 154.51-5.24-2.81-2.15 1.15 5.23 2.81 2.16-1.15z"/><path class="cls-15" d="m629.48 155.66.04 11.74 2.15-1.15-.03-11.74-2.16 1.15z"/></g><g class="cls-2"><path class="cls-17" d="m629.13 163.85-5.24-2.81.01.7 5.23 2.8v-.69z"/><path class="cls-14" d="m629.48 163.66-5.23-2.81-.36.19 5.24 2.81.35-.19z"/><path class="cls-15" d="M629.13 163.85v.69l.35-.18v-.7l-.35.19z"/></g><path class="cls-33" d="m628.86 160.08-1.4-.75.01 2.93 1.39.75v-2.93z"/><g class="cls-2"><path class="cls-23" d="m628.1 159.45-1.39-.75v1.12l1.4.75-.01-1.12z"/><path class="cls-23" d="m628.86 159.05-1.4-.75-.75.4 1.39.75.76-.4z"/><path class="cls-22" d="m628.1 159.45.01 1.12.75-.4v-1.12l-.76.4z"/></g><path class="cls-33" d="m626.29 158.68-1.4-.75.01 2.93 1.39.75v-2.93z"/><g class="cls-2"><path class="cls-23" d="m625.54 160.92-1.4-.75v1.12l1.4.75v-1.12z"/><path class="cls-23" d="m626.29 160.52-1.4-.75-.75.4 1.4.75.75-.4z"/><path class="cls-22" d="M625.54 160.92v1.12l.75-.4v-1.12l-.75.4z"/></g><g class="cls-2"><path class="cls-17" d="m629.13 158.89-5.24-2.8.01.69 5.23 2.81v-.7z"/><path class="cls-14" d="m629.48 158.71-5.23-2.81-.36.19 5.24 2.8.35-.18z"/><path class="cls-15" d="M629.13 158.89v.7l.35-.18v-.7l-.35.18z"/></g><path class="cls-17" d="M627.67 156.13a1 1 0 0 0 .46.74c.26.13.46 0 .46-.25a.9.9 0 0 0-.46-.73c-.25-.14-.46-.03-.46.24ZM625.05 154.71a.9.9 0 0 0 .46.73c.25.14.46 0 .46-.24a1 1 0 0 0-.46-.74c-.26-.13-.46-.02-.46.25ZM627.67 165.17a.92.92 0 0 0 .46.73c.26.14.46 0 .46-.24a.93.93 0 0 0-.46-.74c-.25-.14-.46-.03-.46.25ZM625.05 163.74a.93.93 0 0 0 .46.74c.25.13.46 0 .46-.25a.92.92 0 0 0-.46-.73c-.26-.14-.46-.03-.46.24Z"/><g class="cls-2"><path class="cls-17" d="m627.4 173.03-3.88-2.08.03 8.69 3.88 2.08-.03-8.69z"/><path class="cls-14" d="m626.67 173.42-2.41-1.29.02 7.12 2.41 1.29-.02-7.12zM629 172.18l-3.88-2.08-1.6.85 3.88 2.08 1.6-.85z"/><path class="cls-15" d="m627.4 173.03.03 8.69 1.6-.85-.03-8.69-1.6.85z"/></g><g class="cls-2"><path class="cls-16" d="m626.64 174.02-2.8-1.51v.37l2.8 1.51v-.37z"/><path class="cls-17" d="m626.83 173.91-2.8-1.5-.19.1 2.8 1.51.19-.11z"/><path class="cls-15" d="M626.64 174.02v.37l.19-.1v-.38l-.19.11z"/></g><g class="cls-2"><path class="cls-16" d="m626.64 174.92-2.8-1.51v.38l2.8 1.5v-.37z"/><path class="cls-17" d="m626.83 174.82-2.8-1.51-.19.1 2.8 1.51.19-.1z"/><path class="cls-15" d="M626.64 174.92v.37l.19-.1v-.37l-.19.1z"/></g><g class="cls-2"><path class="cls-16" d="m626.64 175.82-2.8-1.5v.37l2.8 1.51v-.38z"/><path class="cls-17" d="m626.83 175.72-2.8-1.5-.19.1 2.8 1.5.19-.1z"/><path class="cls-15" d="M626.64 175.82v.38l.19-.1v-.38l-.19.1z"/></g><g class="cls-2"><path class="cls-16" d="m626.64 176.72-2.8-1.5v.37l2.8 1.51v-.38z"/><path class="cls-17" d="m626.83 176.63-2.8-1.51-.19.1 2.8 1.5.19-.09z"/><path class="cls-15" d="M626.64 176.72v.38l.19-.1v-.37l-.19.09z"/></g><g class="cls-2"><path class="cls-16" d="m626.64 177.63-2.8-1.51v.38l2.8 1.5v-.37z"/><path class="cls-17" d="m626.83 177.53-2.8-1.51-.19.1 2.8 1.51.19-.1z"/><path class="cls-15" d="M626.64 177.63v.37l.19-.1v-.37l-.19.1z"/></g><g class="cls-2"><path class="cls-16" d="m626.64 178.53-2.8-1.5v.37l2.8 1.51v-.38z"/><path class="cls-17" d="m626.83 178.43-2.8-1.5-.19.1 2.8 1.5.19-.1z"/><path class="cls-15" d="M626.64 178.53v.38l.19-.1v-.38l-.19.1z"/></g><g class="cls-2"><path class="cls-16" d="m626.64 179.44-2.8-1.51v.37l2.8 1.51v-.37z"/><path class="cls-17" d="m626.83 179.34-2.8-1.51-.19.1 2.8 1.51.19-.1z"/><path class="cls-15" d="M626.64 179.44v.37l.19-.1v-.37l-.19.1z"/></g><g class="cls-2"><path class="cls-16" d="m626.64 180.34-2.8-1.51v.38l2.8 1.5v-.37z"/><path class="cls-17" d="m626.83 180.24-2.8-1.51-.19.1 2.8 1.51.19-.1z"/><path class="cls-15" d="M626.64 180.34v.37l.19-.1v-.37l-.19.1z"/></g><path class="cls-9" d="M629 146v7.37a1.1 1.1 0 0 1-2.2 0v-8.55Z"/><path class="cls-27" d="m627.44 192.85 5.56-2.96v-41.81l-5.56 2.96v41.81z"/><path class="cls-9" d="m633 148.08-3.96 2.11-1.59.85-.61-.32-22.46-11.98 5.56-2.96 16.9 9.01 2.2 1.18 3.96 2.11z"/><path class="cls-18" d="m604.38 180.56-15.43-.48v-41.81l15.43.48v41.81z"/><path class="cls-10" d="M589.95 179.19v-39.96l13.42.41v39.96l-13.42-.41z"/><path class="cls-18" d="m627.44 192.85 4.2 9.78v-41.82l-4.2-9.77v41.81z"/><path class="cls-10" d="M628.45 192.68v-36.79l2.18 5.1.01 36.78-2.19-5.09z"/><path class="cls-42" d="m161.73 214.86 54.12 37.92v-70.74l-54.12-37.92v70.74z"/><path class="cls-43" d="m118 246.4 54.13 37.92v-70.75L118 175.65v70.75z"/><path class="cls-42" d="m172.13 284.32 43.72-31.54v-70.74l-43.72 31.53v70.75z"/><path class="cls-44" d="m118 175.65 54.13 37.92 43.72-31.53-54.12-37.92L118 175.65z"/><path class="cls-43" d="m162.09 150.42 46.36 32.65 2.69-1.94-49.05-34.37v3.66z"/><path class="cls-42" d="m125.04 177.14 37.05-26.72v-3.66l-39.63 28.58 2.58 1.8z"/><path class="cls-45" d="m136.99 178.7 16.41 8.48 20.47-15.55-16.41-8.48-20.47 15.55z"/><path class="cls-45" d="m136.1 178.77 17.36 9 21.3-16.18-17.36-9Zm36.9-7.06-19.65 14.92-15.47-8 19.65-14.92Z"/><path class="cls-45" d="m138.39 179.37.23.23 20.3-15.64-.23-.22-20.3 15.63zM139.94 180.16l.23.23 20.3-15.64-.23-.22-20.3 15.63zM141.54 181.02l.23.23 20.3-15.64-.23-.23-20.3 15.64zM143.08 181.81l.23.23 20.3-15.64-.23-.23-20.3 15.64zM144.68 182.6l.23.23 20.29-15.64-.23-.22-20.29 15.63zM146.22 183.4l.23.22 20.3-15.64-.23-.22-20.3 15.64zM147.65 184.16l.22.22 20.3-15.63-.23-.23-20.29 15.64zM149.19 184.95l.23.22 20.3-15.63-.23-.23-20.3 15.64zM150.4 185.58l.22.23 20.3-15.64-.23-.23-20.29 15.64zM151.94 186.37l.23.23 20.3-15.64-.23-.23-20.3 15.64z"/><path class="cls-45" d="m138.42 177.67 16.43 8.47.18-.26-16.43-8.47-.18.26zM140.14 176.37l16.44 8.47.17-.26-16.43-8.47-.18.26zM142.07 174.89l16.44 8.47.17-.26-16.43-8.47-.18.26zM143.8 173.58l16.43 8.47.18-.26-16.44-8.47-.17.26zM145.45 172.34l16.43 8.47.18-.27-16.43-8.47-.18.27zM147.18 171.03l16.43 8.47.17-.26-16.43-8.47-.17.26zM149.11 169.55l16.43 8.47.17-.26-16.43-8.47-.17.26zM150.83 168.24l16.43 8.47.18-.26-16.44-8.47-.17.26zM152.51 167l16.43 8.47.18-.26-16.43-8.47-.18.26zM154.44 165.52l16.43 8.47.18-.26-16.43-8.47-.18.26zM156.17 164.21l16.43 8.47.17-.26-16.43-8.47-.17.26z"/><path class="cls-45" d="m136.1 178.77 17.36 9 21.3-16.17-17.36-9Zm36.9-7.06-19.65 14.92-15.47-8 19.65-14.92Z"/><path class="cls-45" d="m136.99 177.56 16.41 8.48 20.48-15.54-16.42-8.49-20.47 15.55z"/><path class="cls-45" d="m136.1 177.63 17.36 9 21.3-16.18-17.36-9Zm36.9-7.06-19.65 14.92-15.47-8 19.65-14.92Z"/><path class="cls-45" d="m138.4 178.23.22.23 20.3-15.64-.23-.23-20.29 15.64zM139.94 179.02l.23.23 20.3-15.64-.23-.22-20.3 15.63zM141.54 179.88l.23.23 20.3-15.64-.23-.23-20.3 15.64zM143.09 180.67l.22.23 20.3-15.64-.23-.23-20.29 15.64zM144.68 181.47l.23.22 20.3-15.64-.23-.22-20.3 15.64zM146.22 182.25l.23.23 20.3-15.64-.23-.22-20.3 15.63zM147.65 183.02l.22.22 20.3-15.63-.23-.23-20.29 15.64zM149.19 183.81l.23.22 20.3-15.63-.23-.23-20.3 15.64zM150.4 184.44l.22.23 20.3-15.64-.23-.23-20.29 15.64zM151.94 185.23l.23.23 20.3-15.64-.23-.23-20.3 15.64z"/><path class="cls-45" d="m138.42 176.53 16.43 8.47.18-.26-16.43-8.47-.18.26zM140.15 175.23l16.43 8.47.17-.26-16.43-8.47-.17.26zM142.07 173.75l16.44 8.47.17-.26-16.43-8.47-.18.26zM143.8 172.44l16.43 8.47.18-.26-16.44-8.47-.17.26zM145.45 171.19l16.43 8.47.18-.26-16.43-8.47-.18.26zM147.18 169.89l16.43 8.47.17-.26-16.43-8.47-.17.26zM149.11 168.41l16.43 8.47.18-.26-16.44-8.47-.17.26zM150.83 167.1l16.43 8.47.18-.26-16.43-8.47-.18.26zM152.51 165.86l16.44 8.47.17-.26-16.43-8.47-.18.26zM154.44 164.38l16.44 8.47.17-.26-16.43-8.47-.18.26zM156.17 163.07l16.43 8.47.17-.26-16.43-8.47-.17.26z"/><path class="cls-45" d="m136.1 177.63 17.36 9 21.3-16.17-17.36-9Zm36.9-7.06-19.65 14.92-15.47-8 19.65-14.92Z"/><path class="cls-45" d="m136.1 178.77 1.25-.5-1.25-.64v1.14zM153.46 187.74l21.29-16.17.01-1.14-21.3 16.17v1.14z"/><path class="cls-46" d="M160.5 175.86a1.57 1.57 0 0 0-1.67 0 .66.66 0 0 0 0 1.17 1.53 1.53 0 0 0 1.67 0 .66.66 0 0 0 0-1.17Z"/><path class="cls-46" d="M158.48 167.69h2.37v8.76h-2.37zM149.74 183.47a1.57 1.57 0 0 0-1.67 0 .68.68 0 0 0 0 1.18 1.57 1.57 0 0 0 1.67 0 .67.67 0 0 0 0-1.18Z"/><path class="cls-46" d="M147.72 175.3h2.37v8.76h-2.37z"/><path class="cls-47" d="m131.81 175.3 13.74 9.85 17.14-18.05-13.74-9.84-17.14 18.04z"/><path class="cls-47" d="m131.07 175.38 14.53 10.41L163.43 167l-14.53-10.39Zm30.88-8.2L145.5 184.5l-12.95-9.28L149 157.9Z"/><path class="cls-47" d="m132.99 176.08.19.27 16.99-18.15-.19-.27-16.99 18.15zM134.28 177l.19.26 16.99-18.15-.19-.26L134.28 177zM135.62 178l.19.26 16.99-18.15-.19-.26L135.62 178zM136.91 178.91l.19.27 17-18.15-.19-.27-17 18.15zM138.25 179.83l.19.27 16.99-18.15-.19-.26-16.99 18.14zM139.54 180.75l.19.26 16.99-18.15-.19-.26-16.99 18.15zM140.73 181.63l.19.27 16.99-18.15-.19-.26-16.99 18.14zM142.03 182.55l.19.26 16.99-18.14-.19-.27-16.99 18.15zM143.03 183.29l.19.26 17-18.15-.19-.26-17 18.15zM144.33 184.2l.19.27 16.99-18.15-.19-.26-16.99 18.14z"/><path class="cls-47" d="m133.01 174.11 13.75 9.83.15-.3-13.75-9.83-.15.3zM134.45 172.59l13.76 9.83.14-.3-13.75-9.83-.15.3zM136.07 170.88l13.75 9.83.15-.31-13.76-9.83-.14.31zM137.51 169.36l13.76 9.83.14-.3-13.75-9.83-.15.3zM138.9 167.91l13.75 9.83.15-.3-13.76-9.83-.14.3zM140.34 166.4l13.75 9.83.15-.3-13.75-9.84-.15.31zM141.95 164.68l13.76 9.83.15-.3-13.76-9.83-.15.3zM143.4 163.16l13.75 9.83.15-.3-13.76-9.83-.14.3zM144.81 161.72l13.75 9.83.15-.3-13.76-9.83-.14.3zM146.42 160l13.76 9.83.14-.3-13.75-9.83-.15.3zM147.86 158.49l13.76 9.83.15-.31-13.76-9.82-.15.3z"/><path class="cls-47" d="m131.07 175.38 14.53 10.41L163.43 167l-14.53-10.39Zm30.93-8.19-16.5 17.31-12.95-9.28L149 157.9Z"/><path class="cls-48" d="m131.81 173.98 13.74 9.84 17.14-18.04-13.74-9.85-17.14 18.05z"/><path class="cls-49" d="m131.07 174.06 14.53 10.41 17.83-18.77-14.53-10.41Zm30.88-8.2-16.45 17.32-12.95-9.29L149 156.58Z"/><path class="cls-50" d="m132.99 174.76.19.26 16.99-18.15-.19-.26-16.99 18.15zM134.28 175.68l.19.26 17-18.15-.2-.26-16.99 18.15zM135.62 176.67l.19.27 16.99-18.15-.19-.27-16.99 18.15zM136.91 177.59l.2.26 16.99-18.15-.19-.26-17 18.15zM138.25 178.51l.19.26 16.99-18.15-.19-.26-16.99 18.15zM139.54 179.43l.19.26 16.99-18.15-.19-.26-16.99 18.15zM140.73 180.31l.19.26 16.99-18.14-.19-.27-16.99 18.15zM142.03 181.23l.19.26 16.99-18.15-.19-.26-16.99 18.15zM143.03 181.96l.19.27 17-18.15-.19-.27-17 18.15zM144.33 182.88l.19.26L161.51 165l-.19-.27-16.99 18.15z"/><path class="cls-50" d="m133.01 172.79 13.75 9.83.15-.31-13.75-9.83-.15.31zM134.45 171.27l13.76 9.83.14-.3-13.75-9.83-.15.3zM136.07 169.55l13.75 9.83.15-.3-13.75-9.83-.15.3zM137.51 168.04l13.76 9.83.14-.31-13.75-9.83-.15.31zM138.9 166.59l13.75 9.83.15-.3-13.76-9.83-.14.3zM140.34 165.07l13.75 9.84.15-.31-13.75-9.83-.15.3zM141.96 163.36l13.75 9.83.15-.31-13.76-9.82-.14.3zM143.4 161.84l13.75 9.83.15-.3-13.76-9.83-.14.3zM144.81 160.4l13.75 9.83.15-.3-13.76-9.83-.14.3zM146.42 158.68l13.76 9.83.14-.3-13.75-9.83-.15.3zM147.87 157.17l13.75 9.83.15-.31-13.76-9.83-.14.31z"/><path class="cls-51" d="m131.07 174.06 14.53 10.41 17.83-18.77-14.53-10.41Zm30.88-8.2-16.45 17.32-12.95-9.28L149 156.58Z"/><path class="cls-47" d="m131.07 175.38 1.04-.57-1.04-.75v1.32z"/><path class="cls-52" d="m145.6 185.79 17.83-18.77v-1.32l-17.83 18.77v1.32z"/><path class="cls-45" d="m157.95 193.33 16.41 8.48 20.48-15.55-16.42-8.48-20.47 15.55z"/><path class="cls-45" d="m157.06 193.4 17.36 9 21.3-16.18-17.36-9Zm36.94-7.06-19.7 14.92-15.47-8 19.65-14.92Z"/><path class="cls-45" d="m159.36 194 .23.23 20.29-15.64-.23-.22L159.36 194zM160.9 194.79l.23.23 20.3-15.64-.23-.22-20.3 15.63zM162.5 195.65l.23.23 20.3-15.64-.23-.23-20.3 15.64zM164.05 196.44l.23.23 20.29-15.64-.23-.23-20.29 15.64zM165.64 197.24l.23.22 20.3-15.64-.23-.22-20.3 15.64zM167.18 198.03l.23.22 20.3-15.64-.23-.22-20.3 15.64zM168.61 198.79l.23.22 20.29-15.63-.22-.23-20.3 15.64zM170.15 199.58l.23.23 20.3-15.64-.23-.23-20.3 15.64zM171.36 200.21l.23.23 20.29-15.64-.22-.23-20.3 15.64zM172.9 201l.23.23 20.3-15.64-.23-.23L172.9 201z"/><path class="cls-45" d="m159.38 192.3 16.43 8.47.18-.26-16.43-8.47-.18.26zM161.1 191l16.44 8.47.17-.26-16.43-8.47-.18.26zM163.04 189.52l16.43 8.47.17-.26-16.43-8.47-.17.26zM164.76 188.21l16.43 8.47.18-.26-16.44-8.47-.17.26zM166.41 186.97l16.44 8.46.17-.26-16.43-8.47-.18.27zM168.14 185.66l16.43 8.47.18-.26-16.44-8.47-.17.26zM170.07 184.18l16.43 8.47.18-.26-16.44-8.47-.17.26zM171.79 182.87l16.43 8.47.18-.26-16.43-8.47-.18.26zM173.47 181.63l16.44 8.47.17-.26-16.43-8.47-.18.26zM175.4 180.15l16.44 8.47.17-.26-16.43-8.47-.18.26zM177.13 178.84l16.43 8.47.18-.26-16.44-8.47-.17.26z"/><path class="cls-45" d="m157.06 193.4 17.36 9 21.3-16.17-17.36-9Zm36.94-7.06-19.7 14.92-15.47-8 19.65-14.92Z"/><path class="cls-45" d="m157.95 192.19 16.41 8.48 20.48-15.55-16.42-8.48-20.47 15.55z"/><path class="cls-45" d="m157.07 192.26 17.35 9 21.3-16.18-17.36-9ZM194 185.2l-19.64 14.91-15.48-8 19.65-14.92Z"/><path class="cls-45" d="m159.36 192.86.23.23 20.29-15.64-.22-.23-20.3 15.64zM160.9 193.65l.23.23 20.3-15.64-.23-.23-20.3 15.64zM162.5 194.51l.23.23 20.3-15.64-.23-.23-20.3 15.64zM164.05 195.3l.23.23 20.29-15.64-.23-.23-20.29 15.64zM165.64 196.09l.23.23 20.3-15.64-.23-.22-20.3 15.63zM167.19 196.88l.22.23 20.3-15.64-.23-.22-20.29 15.63zM168.61 197.65l.23.22 20.29-15.63-.22-.23-20.3 15.64zM170.15 198.44l.23.22 20.3-15.63-.23-.23-20.3 15.64zM171.36 199.07l.23.23 20.29-15.64-.22-.23-20.3 15.64zM172.9 199.86l.23.23 20.3-15.64-.23-.23-20.3 15.64z"/><path class="cls-45" d="m159.38 191.16 16.43 8.47.18-.26-16.43-8.47-.18.26zM161.11 189.86l16.43 8.47.17-.26-16.43-8.47-.17.26zM163.04 188.38l16.43 8.47.17-.26-16.43-8.47-.17.26zM164.76 187.07l16.43 8.47.18-.26-16.43-8.47-.18.26zM166.41 185.82l16.44 8.47.17-.26-16.43-8.47-.18.26zM168.14 184.52l16.43 8.47.18-.26-16.44-8.47-.17.26zM170.07 183.04l16.43 8.47.18-.26-16.44-8.47-.17.26zM171.79 181.73l16.43 8.47.18-.26-16.43-8.47-.18.26zM173.47 180.49l16.44 8.47.17-.26-16.43-8.47-.18.26zM175.4 179.01l16.44 8.47.17-.26-16.43-8.47-.18.26zM177.13 177.7l16.43 8.47.18-.26-16.44-8.47-.17.26z"/><path class="cls-45" d="m157.06 192.26 17.36 9 21.3-16.17-17.36-9ZM194 185.2l-19.7 14.92-15.47-8 19.65-14.92Z"/><path class="cls-45" d="m157.06 193.4 1.25-.5-1.25-.64v1.14zM174.42 202.37l21.3-16.17v-1.14l-21.3 16.17v1.14z"/><path class="cls-46" d="M181.47 190.49a1.59 1.59 0 0 0-1.68 0 .67.67 0 0 0 0 1.17 1.55 1.55 0 0 0 1.68 0 .67.67 0 0 0 0-1.17Z"/><path class="cls-46" d="M179.44 182.32h2.37v8.76h-2.37zM170.71 198.1a1.59 1.59 0 0 0-1.68 0 .68.68 0 0 0 0 1.18 1.59 1.59 0 0 0 1.68 0 .68.68 0 0 0 0-1.18Z"/><path class="cls-46" d="M168.68 189.93h2.37v8.76h-2.37z"/><path class="cls-47" d="m152.77 189.93 13.74 9.84 17.14-18.04-13.74-9.84-17.14 18.04z"/><path class="cls-47" d="m152 190 14.53 10.41 17.83-18.77-14.53-10.41Zm30.88-8.2-16.45 17.32-13-9.28L170 172.53Z"/><path class="cls-47" d="m153.95 190.71.19.27 16.99-18.15-.19-.27-16.99 18.15zM155.24 191.63l.19.26 17-18.15-.19-.26-17 18.15zM156.58 192.63l.19.26 16.99-18.15-.19-.26-16.99 18.15zM157.88 193.54l.19.27 16.99-18.15-.19-.27-16.99 18.15zM159.21 194.46l.19.27 16.99-18.15-.19-.27-16.99 18.15zM160.5 195.38l.19.26 17-18.15-.2-.26-16.99 18.15zM161.69 196.26l.19.27 17-18.15-.19-.26-17 18.14zM162.99 197.18l.19.26 16.99-18.14-.19-.27-16.99 18.15zM164 197.92l.19.26 16.99-18.15-.19-.26L164 197.92zM165.29 198.83l.19.27 16.99-18.15-.19-.26-16.99 18.14z"/><path class="cls-47" d="m153.97 188.74 13.76 9.83.14-.3-13.75-9.83-.15.3zM155.41 187.22l13.76 9.83.15-.3-13.76-9.83-.15.3zM157.03 185.51l13.75 9.83.15-.31-13.75-9.83-.15.31zM158.47 183.99l13.76 9.83.14-.3-13.75-9.83-.15.3zM159.86 182.54l13.75 9.83.15-.3-13.76-9.83-.14.3zM161.3 181.03l13.76 9.83.14-.3-13.75-9.84-.15.31zM162.92 179.31l13.75 9.83.15-.3-13.76-9.83-.14.3zM164.36 177.79l13.75 9.83.15-.3-13.75-9.83-.15.3zM165.77 176.35l13.75 9.83.15-.3-13.76-9.83-.14.3zM167.38 174.63l13.76 9.83.15-.3-13.76-9.83-.15.3zM168.83 173.12l13.75 9.83.15-.3-13.76-9.84-.14.31z"/><path class="cls-47" d="m152 190 14.53 10.41 17.83-18.77-14.53-10.41Zm30.88-8.2-16.45 17.32-13-9.28L170 172.53Z"/><path class="cls-48" d="m152.77 188.61 13.74 9.84 17.14-18.04-13.74-9.85-17.14 18.05z"/><path class="cls-49" d="m152 188.69 14.53 10.41 17.83-18.77-14.53-10.41Zm30.88-8.2-16.45 17.32-13-9.29L170 171.21Z"/><path class="cls-50" d="m153.95 189.39.19.26 16.99-18.15-.19-.26-16.99 18.15zM155.24 190.31l.2.26 16.99-18.15-.19-.26-17 18.15zM156.58 191.3l.19.26 17-18.14-.2-.27-16.99 18.15zM157.88 192.22l.19.26 16.99-18.15-.19-.26-16.99 18.15zM159.21 193.14l.19.26 16.99-18.15-.19-.26-16.99 18.15zM160.5 194.06l.19.26 17-18.15-.19-.26-17 18.15zM161.69 194.94l.19.27 17-18.15-.19-.27-17 18.15zM162.99 195.86l.19.26 16.99-18.15-.19-.26-16.99 18.15zM164 196.59l.19.27 16.99-18.15-.19-.27L164 196.59zM165.29 197.51l.19.26 16.99-18.14-.19-.27-16.99 18.15z"/><path class="cls-50" d="m153.97 187.42 13.76 9.83.14-.31-13.75-9.83-.15.31zM155.41 185.9l13.76 9.83.15-.3-13.76-9.83-.15.3zM157.03 184.18l13.76 9.83.14-.3-13.75-9.83-.15.3zM158.47 182.67l13.76 9.83.15-.31-13.76-9.83-.15.31zM159.86 181.22l13.75 9.83.15-.3-13.75-9.83-.15.3zM161.3 179.71l13.76 9.82.14-.3-13.75-9.83-.15.31zM162.92 177.99l13.75 9.83.15-.31-13.76-9.82-.14.3zM164.36 176.47l13.76 9.83.14-.3-13.75-9.83-.15.3zM165.77 175.03l13.75 9.83.15-.3-13.75-9.83-.15.3zM167.38 173.31l13.76 9.83.15-.3-13.76-9.83-.15.3zM168.83 171.8l13.75 9.83.15-.31-13.76-9.83-.14.31z"/><path class="cls-51" d="m152 188.69 14.53 10.41 17.83-18.77-14.53-10.41Zm30.88-8.2-16.45 17.32-13-9.28L170 171.21Z"/><path class="cls-47" d="m152.03 190.01 1.04-.57-1.04-.75v1.32z"/><path class="cls-52" d="m166.56 200.42 17.83-18.77v-1.32l-17.83 18.77v1.32z"/><path class="cls-53" d="m183.97 225.25 20.57-14.4v-11.99l-20.57 14.4v11.99z"/><path class="cls-54" d="m188.38 228.29 20.57-14.41v-11.99l-20.57 14.4v12z"/><path class="cls-53" d="m183.97 225.25 4.41 3.04v-12l-4.41-3.03v11.99z"/><path class="cls-55" d="m183.97 213.26 4.41 3.03 20.57-14.4-4.41-3.03-20.57 14.4z"/><path class="cls-56" d="M193.84 213c-2.11 1.48-3.82 5.07-3.82 8s1.71 4.16 3.82 2.68 3.83-5.08 3.83-8-1.67-4.15-3.83-2.68Z"/><path class="cls-57" d="M193.86 213.67a9.59 9.59 0 0 0-3.38 7.11c0 2.61 1.51 3.67 3.38 2.37a9.59 9.59 0 0 0 3.38-7.11c0-2.61-1.51-3.67-3.38-2.37Z"/><path class="cls-58" d="M194.49 213.67a9.59 9.59 0 0 0-3.38 7.11c0 2.61 1.51 3.67 3.38 2.37a9.59 9.59 0 0 0 3.38-7.11c0-2.61-1.51-3.67-3.38-2.37Z"/><path class="cls-56" d="M204 206.12c-2.11 1.48-3.83 5.08-3.83 8s1.72 4.15 3.83 2.67 3.82-5.07 3.82-8-1.71-4.15-3.82-2.67Z"/><path class="cls-59" d="M204 206.79a9.6 9.6 0 0 0-3.38 7.1c0 2.62 1.52 3.68 3.38 2.37a9.58 9.58 0 0 0 3.38-7.1c.01-2.62-1.5-3.68-3.38-2.37Z"/><path class="cls-60" d="M204.64 206.79a9.6 9.6 0 0 0-3.38 7.1c0 2.62 1.52 3.68 3.38 2.37a9.58 9.58 0 0 0 3.38-7.1c-.02-2.62-1.51-3.68-3.38-2.37Z"/><path class="cls-61" d="m203.39 261.57 6.94-4.83v-23.9l-6.94 4.83v23.9z"/><path class="cls-62" d="M203.39 260.24v1.46l6.94-4.96-.97-.66-5.97 4.16zM209.36 256.07l.97.67v-23.9l-.97.67v22.56z"/><path class="cls-61" d="m196.46 266.43 6.93-4.83v-23.9l-6.93 4.83v23.9z"/><path class="cls-62" d="M196.46 265.1v1.57l7.01-5.02-1.05-.71-5.96 4.16z"/><path class="cls-62" d="m202.42 260.93.97.67v-23.9l-.97.67v22.56z"/><path class="cls-63" d="m203.71 260.02 1.72-1.2 3.93-25.31-1.32.92-4.33 25.59zM196.46 265.1l1.71-1.2 3.93-25.31-1.31.92-4.33 25.59z"/><path class="cls-61" d="m189.55 271.5 6.94-4.83v-23.89l-6.94 4.82v23.9z"/><path class="cls-62" d="M189.55 270.17v1.46l6.94-4.96-.97-.66-5.97 4.16zM195.52 266l.97.67v-23.89l-.97.66V266z"/><path class="cls-61" d="m182.62 276.36 6.93-4.83v-23.89l-6.93 4.83v23.89z"/><path class="cls-62" d="M182.62 275.03v1.57l7.01-5.02-1.05-.71-5.96 4.16z"/><path class="cls-62" d="m188.58 270.87.97.66v-23.89l-.97.66v22.57z"/><path class="cls-63" d="m189.87 269.95 1.72-1.19 3.93-25.32-1.32.93-4.33 25.58zM182.62 275.03l1.71-1.19 3.93-25.32-1.31.93-4.33 25.58z"/><path class="cls-61" d="m122.25 194.92 46.41 33.31v-9.73l-46.41-33.25v9.67z"/><path class="cls-63" d="m122.77 187.88 30.7 28.8 2.75 1.98-33.45-31.72v.94zM139.74 198.43l-2.65-1.9 30.72 30.45.44.32-.05-.32-28.46-28.55z"/><path class="cls-62" d="m122.25 194.92 46.4 33.31v-9.73l-46.4-33.25Zm.46-8.7 45.48 32.6v8.43l-45.48-32.65Z"/><path class="cls-62" d="m127.92 199.09.46.33v-9.68l-.46-.33v9.68zM136.15 205.01l.46.33v-9.69l-.46-.33v9.69zM144.06 210.67l.46.33v-9.68l-.46-.33v9.68zM152.3 216.56l.46.33v-9.68l-.46-.33v9.68zM160.69 222.53l.46.33v-9.68l-.46-.33v9.68z"/><path class="cls-61" d="m122.25 204.09 46.41 33.31v-9.73l-46.41-33.26v9.68z"/><path class="cls-63" d="m122.77 197.05 30.7 28.8 2.75 1.98-33.45-31.72v.94zM139.74 207.6l-2.65-1.91 30.72 30.46.44.32-.05-.32-28.46-28.55z"/><path class="cls-62" d="m122.25 204.09 46.4 33.31v-9.73l-46.4-33.25Zm.46-8.7L168.19 228v8.43l-45.48-32.65Z"/><path class="cls-62" d="m127.92 208.26.46.33v-9.68l-.46-.33v9.68zM136.15 214.18l.46.32v-9.68l-.46-.33v9.69zM144.06 219.84l.46.33v-9.68l-.46-.33v9.68zM152.3 225.73l.46.33v-9.68l-.46-.33v9.68zM160.69 231.7l.46.33v-9.68l-.46-.33v9.68z"/><path class="cls-61" d="m121.86 222.19 46.41 33.31v-9.74l-46.41-33.25v9.68z"/><path class="cls-63" d="m122.38 215.14 30.7 28.81 2.75 1.98-33.45-31.72v.93zM139.36 225.7l-2.66-1.91 30.72 30.46.45.31-.06-.31-28.45-28.55z"/><path class="cls-62" d="m121.86 222.19 46.41 33.31v-9.74l-46.41-33.25Zm.46-8.7 45.49 32.59v8.44l-45.49-32.65Z"/><path class="cls-62" d="m127.53 226.36.46.33V217l-.46-.32v9.68zM135.76 232.27l.46.33v-9.68l-.46-.33v9.68zM143.68 237.94l.45.33v-9.69l-.45-.33v9.69zM151.91 243.83l.46.33v-9.69l-.46-.32v9.68zM160.3 249.8l.46.33v-9.68l-.46-.33v9.68z"/><path class="cls-61" d="m121.86 231.36 46.41 33.31v-9.74l-46.41-33.25v9.68z"/><path class="cls-63" d="m122.38 224.31 30.7 28.81 2.75 1.98-33.45-31.72v.93zM139.36 234.87l-2.66-1.91 30.72 30.46.45.31-.06-.31-28.45-28.55z"/><path class="cls-62" d="m121.86 231.36 46.41 33.31v-9.74l-46.41-33.25Zm.46-8.7 45.49 32.59v8.44L122.32 231Z"/><path class="cls-62" d="m127.53 235.53.46.33v-9.68l-.46-.33v9.68zM135.76 241.44l.46.33v-9.68l-.46-.33v9.68zM143.68 247.11l.45.33v-9.69l-.45-.32v9.68zM151.91 253l.46.33v-9.69l-.46-.33V253zM160.3 258.97l.46.33v-9.68l-.46-.33v9.68z"/><path class="cls-42" d="m259.83 168.53 54.12 37.92V135.7l-54.12-37.92v70.75z"/><path class="cls-43" d="m216.1 200.06 54.13 37.92v-70.74l-54.13-37.92v70.74z"/><path class="cls-42" d="m270.23 237.98 43.72-31.53V135.7l-43.72 31.54v70.74z"/><path class="cls-44" d="m216.1 129.32 54.13 37.92 43.72-31.54-54.12-37.92-43.73 31.54z"/><path class="cls-43" d="m260.19 104.08 46.35 32.66 2.7-1.95-49.05-34.36v3.65z"/><path class="cls-42" d="m223.13 130.81 37.06-26.73v-3.65L220.56 129l2.57 1.81z"/><path class="cls-45" d="m235.08 132.36 16.42 8.49 20.47-15.55-16.41-8.48-20.48 15.54z"/><path class="cls-45" d="m234.2 132.43 17.36 9 21.3-16.17-17.36-9Zm36.89-7.06-19.65 14.92-15.47-8 19.65-14.92Z"/><path class="cls-45" d="m236.49 133.04.23.23 20.3-15.64-.23-.23-20.3 15.64zM238.04 133.83l.23.23 20.29-15.64-.23-.23-20.29 15.64zM239.64 134.69l.23.22 20.29-15.63-.22-.23-20.3 15.64zM241.18 135.48l.23.22 20.3-15.63-.23-.23-20.3 15.64zM242.78 136.27l.22.23 20.3-15.64-.23-.23-20.29 15.64zM244.32 137.06l.23.23 20.3-15.64-.23-.23-20.3 15.64zM245.74 137.82l.23.23 20.3-15.64-.23-.23-20.3 15.64zM247.29 138.61l.23.23 20.29-15.64-.22-.23-20.3 15.64zM248.49 139.25l.23.22 20.3-15.64-.23-.22-20.3 15.64zM250.04 140.04l.23.22 20.29-15.63-.22-.23-20.3 15.64z"/><path class="cls-45" d="m236.52 131.34 16.43 8.47.18-.26-16.44-8.47-.17.26zM238.24 130.03l16.43 8.47.18-.26-16.43-8.47-.18.26zM240.17 128.55l16.43 8.47.18-.26-16.43-8.47-.18.26zM241.9 127.25l16.43 8.47.17-.26-16.43-8.47-.17.26zM243.55 126l16.43 8.47.18-.26-16.44-8.47-.17.26zM245.27 124.69l16.44 8.47.17-.26-16.43-8.47-.18.26zM247.2 123.21l16.44 8.47.17-.26-16.43-8.47-.18.26zM248.93 121.91l16.43 8.47.17-.26-16.43-8.47-.17.26zM250.61 120.67l16.43 8.46.18-.25-16.43-8.47-.18.26zM252.54 119.19l16.43 8.47.18-.27-16.43-8.47-.18.27zM254.26 117.88l16.44 8.47.17-.26-16.43-8.47-.18.26z"/><path class="cls-45" d="m234.2 132.44 17.35 9 21.3-16.18-17.35-9Zm36.89-7.07-19.65 14.92-15.47-8 19.64-14.93Z"/><path class="cls-45" d="m235.09 131.22 16.41 8.49 20.47-15.55-16.41-8.48-20.47 15.54z"/><path class="cls-45" d="m234.2 131.29 17.36 9 21.3-16.17-17.36-9Zm36.89-7.06-19.65 14.92-15.47-8 19.65-14.92Z"/><path class="cls-45" d="m236.49 131.9.23.23 20.3-15.64-.23-.23-20.3 15.64zM238.04 132.69l.23.23 20.29-15.64-.22-.23-20.3 15.64zM239.64 133.55l.23.22 20.29-15.63-.22-.23-20.3 15.64zM241.18 134.34l.23.22 20.3-15.64-.23-.22-20.3 15.64zM242.78 135.13l.22.23 20.3-15.64-.23-.23-20.29 15.64zM244.32 135.92l.23.23 20.3-15.64-.23-.23-20.3 15.64zM245.74 136.68l.23.23 20.3-15.64-.23-.22-20.3 15.63zM247.29 137.47l.23.23 20.3-15.64-.23-.23-20.3 15.64zM248.49 138.11l.23.22 20.3-15.63-.23-.23-20.3 15.64zM250.04 138.9l.23.22 20.3-15.64-.23-.22-20.3 15.64z"/><path class="cls-45" d="m236.52 130.2 16.43 8.47.18-.26-16.44-8.47-.17.26zM238.24 128.89l16.44 8.47.17-.26-16.43-8.47-.18.26zM240.17 127.41l16.43 8.47.18-.26-16.43-8.47-.18.26zM241.9 126.11l16.43 8.47.17-.26-16.43-8.47-.17.26zM243.55 124.86l16.43 8.47.18-.26-16.43-8.47-.18.26zM245.28 123.55l16.43 8.47.17-.26-16.43-8.47-.17.26zM247.2 122.07l16.44 8.47.17-.26-16.43-8.47-.18.26zM248.93 120.77l16.43 8.47.18-.26-16.44-8.47-.17.26zM250.61 119.53l16.43 8.47.18-.27-16.43-8.47-.18.27zM252.54 118.04l16.43 8.47.18-.26-16.43-8.47-.18.26zM254.26 116.74l16.44 8.47.17-.26-16.43-8.47-.18.26z"/><path class="cls-45" d="m234.2 131.3 17.36 9 21.29-16.18-17.35-9Zm36.89-7.07-19.65 14.92-15.47-8 19.64-14.93Z"/><path class="cls-45" d="m234.2 132.44 1.24-.5-1.24-.64v1.14zM251.56 141.41l21.29-16.18v-1.14l-21.29 16.18v1.14z"/><path class="cls-46" d="M258.6 129.53a1.53 1.53 0 0 0-1.67 0 .66.66 0 0 0 0 1.17 1.57 1.57 0 0 0 1.67 0 .67.67 0 0 0 0-1.17Z"/><path class="cls-46" d="M256.58 121.36h2.37v8.76h-2.37zM247.84 137.14a1.53 1.53 0 0 0-1.67 0 .66.66 0 0 0 0 1.17 1.53 1.53 0 0 0 1.67 0 .67.67 0 0 0 0-1.17Z"/><path class="cls-46" d="M245.82 128.97h2.37v8.76h-2.37z"/><path class="cls-47" d="m229.91 128.97 13.74 9.84 17.14-18.04-13.74-9.85-17.14 18.05z"/><path class="cls-47" d="m229.17 129.05 14.53 10.41 17.83-18.77L247 110.28Zm30.88-8.2-16.45 17.31-12.95-9.28 16.44-17.31Z"/><path class="cls-47" d="m231.09 129.75.19.26 16.99-18.15-.19-.26-16.99 18.15zM232.38 130.66l.19.27 16.99-18.15-.19-.26-16.99 18.14zM233.72 131.66l.19.26 16.99-18.14-.19-.27-16.99 18.15zM235.01 132.58l.19.26 16.99-18.15-.19-.26-16.99 18.15zM236.34 133.5l.2.26 16.99-18.15-.19-.26-17 18.15zM237.64 134.41l.19.27 16.99-18.15-.19-.26-16.99 18.14zM238.83 135.3l.19.26 16.99-18.15-.19-.26-16.99 18.15zM240.12 136.22l.19.26 17-18.15-.2-.26-16.99 18.15zM241.13 136.95l.19.27 16.99-18.15-.19-.27-16.99 18.15zM242.43 137.87l.19.26 16.99-18.15-.19-.26-16.99 18.15z"/><path class="cls-47" d="m231.11 127.78 13.75 9.82.15-.3-13.76-9.83-.14.31zM232.55 126.26l13.76 9.83.14-.3-13.75-9.83-.15.3zM234.16 124.54l13.76 9.83.15-.3-13.76-9.83-.15.3zM235.61 123.03l13.75 9.83.15-.31-13.76-9.83-.14.31zM236.99 121.58l13.76 9.83.15-.3-13.76-9.83-.15.3zM238.44 120.06l13.75 9.83.15-.3-13.76-9.83-.14.3zM240.05 118.35l13.76 9.82.14-.3-13.75-9.83-.15.31zM241.49 116.83l13.76 9.83.15-.3-13.76-9.83-.15.3zM242.9 115.39l13.76 9.83.15-.3-13.76-9.84-.15.31zM244.52 113.67l13.75 9.83.15-.3-13.75-9.83-.15.3zM245.96 112.15l13.76 9.83.14-.3-13.75-9.83-.15.3z"/><path class="cls-47" d="m229.17 129.05 14.52 10.41 17.83-18.77L247 110.28Zm30.87-8.2-16.44 17.32-13-9.28 16.45-17.32Z"/><path class="cls-48" d="m229.91 127.64 13.74 9.85 17.14-18.05-13.74-9.84-17.14 18.04z"/><path class="cls-49" d="m229.17 127.72 14.53 10.41 17.83-18.77L247 109Zm30.88-8.19-16.45 17.31-12.95-9.28 16.44-17.32Z"/><path class="cls-50" d="m231.09 128.42.19.27 16.99-18.15-.19-.26-16.99 18.14zM232.38 129.34l.19.26 16.99-18.14-.19-.27-16.99 18.15zM233.72 130.34l.19.26 16.99-18.15-.19-.26-16.99 18.15zM235.01 131.25l.19.27 16.99-18.15-.19-.26-16.99 18.14zM236.34 132.18l.2.26 16.99-18.15-.19-.26-17 18.15zM237.64 133.09l.19.26 16.99-18.14-.19-.27-16.99 18.15zM238.83 133.98l.19.26 16.99-18.15-.19-.26-16.99 18.15zM240.12 134.89l.19.27 17-18.15-.2-.27-16.99 18.15zM241.13 135.63l.19.26 16.99-18.15-.19-.26-16.99 18.15zM242.43 136.55l.19.26 16.99-18.15-.19-.26-16.99 18.15z"/><path class="cls-50" d="m231.11 126.45 13.75 9.83.15-.3-13.76-9.83-.14.3zM232.55 124.94l13.76 9.83.14-.31-13.75-9.83-.15.31zM234.17 123.22l13.75 9.83.15-.3-13.76-9.83-.14.3zM235.61 121.7l13.75 9.83.15-.3-13.76-9.83-.14.3zM237 120.25l13.75 9.84.15-.31-13.76-9.83-.14.3zM238.44 118.74l13.75 9.83.15-.3-13.76-9.83-.14.3zM240.05 117.02l13.76 9.83.15-.3-13.76-9.83-.15.3zM241.5 115.51l13.75 9.83.15-.31-13.76-9.83-.14.31zM242.91 114.06l13.75 9.83.15-.3-13.76-9.83-.14.3zM244.52 112.35l13.75 9.83.15-.31-13.75-9.83-.15.31zM245.96 110.83l13.76 9.83.15-.3-13.76-9.83-.15.3z"/><path class="cls-51" d="m229.17 127.72 14.52 10.42 17.83-18.78L247 109Zm30.88-8.19-16.45 17.31-12.95-9.28 16.44-17.31Z"/><path class="cls-47" d="m229.16 129.05 1.05-.58-1.04-.75-.01 1.33z"/><path class="cls-52" d="m243.69 139.46 17.83-18.77v-1.33l-17.83 18.77v1.33z"/><path class="cls-45" d="m256.05 146.99 16.41 8.49 20.47-15.55-16.41-8.48-20.47 15.54z"/><path class="cls-45" d="m255.16 147.06 17.36 9 21.3-16.17-17.36-9Zm36.89-7.06-19.65 14.92-15.47-8L276.58 132Z"/><path class="cls-45" d="m257.45 147.67.23.23 20.3-15.64-.23-.23-20.3 15.64zM259 148.46l.23.23 20.3-15.64-.23-.23-20.3 15.64zM260.6 149.32l.23.22 20.3-15.63-.23-.23-20.3 15.64zM262.14 150.11l.23.22 20.3-15.63-.23-.23-20.3 15.64zM263.74 150.9l.22.23 20.3-15.64-.22-.23-20.3 15.64zM265.28 151.69l.23.23 20.3-15.64-.23-.23-20.3 15.64zM266.7 152.45l.23.23 20.3-15.64-.23-.23-20.3 15.64zM268.25 153.24l.23.23 20.3-15.64-.23-.23-20.3 15.64zM269.45 153.88l.23.22 20.3-15.63-.23-.23-20.3 15.64zM271 154.67l.23.22 20.3-15.63-.23-.23-20.3 15.64z"/><path class="cls-45" d="m257.48 145.97 16.43 8.47.18-.26-16.44-8.47-.17.26zM259.2 144.66l16.43 8.47.18-.26-16.43-8.47-.18.26zM261.13 143.18l16.44 8.47.17-.26-16.43-8.47-.18.26zM262.86 141.88l16.43 8.47.17-.26-16.43-8.47-.17.26zM264.51 140.63l16.43 8.47.18-.26-16.43-8.47-.18.26zM266.24 139.32l16.43 8.47.17-.26-16.43-8.47-.17.26zM268.17 137.84l16.43 8.47.17-.26-16.43-8.47-.17.26zM269.89 136.54l16.43 8.47.18-.26-16.44-8.47-.17.26zM271.57 135.3l16.43 8.46.18-.26-16.43-8.47-.18.27zM273.5 133.81l16.43 8.47.18-.26-16.43-8.47-.18.26zM275.23 132.51l16.43 8.47.17-.26-16.43-8.47-.17.26z"/><path class="cls-45" d="m255.16 147.07 17.36 9 21.29-16.18-17.35-9Zm36.89-7.07-19.65 14.92-15.47-8L276.58 132Z"/><path class="cls-45" d="m256.05 145.85 16.41 8.49 20.48-15.55-16.42-8.48-20.47 15.54z"/><path class="cls-45" d="m255.16 145.92 17.36 9 21.3-16.17-17.36-9Zm36.89-7.06-19.65 14.92-15.47-8 19.65-14.92Z"/><path class="cls-45" d="m257.45 146.53.23.23 20.3-15.64-.23-.23-20.3 15.64zM259 147.32l.23.23 20.3-15.64-.23-.23-20.3 15.64zM260.6 148.18l.23.22 20.3-15.63-.23-.23-20.3 15.64zM262.14 148.97l.23.22 20.3-15.63-.23-.23-20.3 15.64zM263.74 149.76l.23.23 20.29-15.64-.22-.23-20.3 15.64zM265.28 150.55l.23.23 20.3-15.64-.23-.23-20.3 15.64zM266.7 151.31l.23.23 20.3-15.64-.23-.23-20.3 15.64zM268.25 152.1l.23.23 20.3-15.64-.23-.22-20.3 15.63zM269.45 152.74l.23.22 20.3-15.63-.23-.23-20.3 15.64zM271 153.53l.23.22 20.3-15.63-.23-.23-20.3 15.64z"/><path class="cls-45" d="m257.48 144.83 16.43 8.47.18-.26-16.43-8.47-.18.26zM259.2 143.52l16.44 8.47.17-.26-16.43-8.47-.18.26zM261.13 142.04l16.44 8.47.17-.26-16.43-8.47-.18.26zM262.86 140.74l16.43 8.47.18-.26-16.44-8.48-.17.27zM264.51 139.49l16.43 8.47.18-.26-16.43-8.47-.18.26zM266.24 138.18l16.43 8.47.17-.26-16.43-8.47-.17.26zM268.17 136.7l16.43 8.47.17-.26-16.43-8.47-.17.26zM269.89 135.4l16.43 8.47.18-.26-16.44-8.47-.17.26zM271.57 134.16l16.43 8.47.18-.27-16.43-8.46-.18.26zM273.5 132.67l16.43 8.47.18-.26-16.43-8.47-.18.26zM275.23 131.37l16.43 8.47.17-.26-16.43-8.47-.17.26z"/><path class="cls-45" d="m255.16 145.93 17.36 9 21.3-16.18-17.36-9Zm36.89-7.07-19.65 14.92-15.47-8 19.65-14.93Z"/><path class="cls-45" d="m255.16 147.07 1.25-.5-1.25-.64v1.14zM272.52 156.04l21.29-16.18.01-1.14-21.3 16.18v1.14z"/><path class="cls-46" d="M279.56 144.16a1.53 1.53 0 0 0-1.67 0 .66.66 0 0 0 0 1.17 1.57 1.57 0 0 0 1.67 0 .66.66 0 0 0 0-1.17Z"/><path class="cls-46" d="M277.54 135.99h2.37v8.76h-2.37zM268.8 151.77a1.53 1.53 0 0 0-1.67 0 .66.66 0 0 0 0 1.17 1.53 1.53 0 0 0 1.67 0 .66.66 0 0 0 0-1.17Z"/><path class="cls-46" d="M266.78 143.6h2.37v8.76h-2.37z"/><path class="cls-47" d="m250.87 143.59 13.74 9.85 17.14-18.04-13.74-9.85-17.14 18.04z"/><path class="cls-47" d="m250.13 143.68 14.53 10.41 17.83-18.77L268 124.91Zm30.88-8.2-16.45 17.31-12.95-9.28 16.45-17.31Z"/><path class="cls-47" d="m252.05 144.38.19.26 16.99-18.15-.19-.26-16.99 18.15zM253.34 145.29l.19.27 16.99-18.15-.19-.26-16.99 18.14zM254.68 146.29l.19.26 16.99-18.14-.19-.27-16.99 18.15zM255.97 147.21l.2.26 16.99-18.15-.2-.26-16.99 18.15zM257.31 148.13l.19.26 16.99-18.15-.19-.26-16.99 18.15zM258.6 149.04l.19.27 16.99-18.15-.19-.26-16.99 18.14zM259.79 149.93l.19.26 16.99-18.15-.19-.26-16.99 18.15zM261.08 150.85l.2.26 16.99-18.15-.19-.26-17 18.15zM262.09 151.58l.19.27 17-18.15-.2-.27-16.99 18.15zM263.39 152.5l.19.26 16.99-18.15-.19-.26-16.99 18.15z"/><path class="cls-47" d="m252.07 142.41 13.75 9.82.15-.3-13.75-9.83-.15.31zM253.51 140.89l13.76 9.83.14-.3-13.75-9.83-.15.3zM255.13 139.17l13.75 9.83.15-.3-13.76-9.83-.14.3zM256.57 137.66l13.75 9.83.15-.31-13.75-9.83-.15.31zM257.96 136.21l13.75 9.83.15-.3-13.76-9.83-.14.3zM259.4 134.69l13.75 9.83.15-.3-13.75-9.83-.15.3zM261.01 132.97l13.76 9.84.15-.31-13.76-9.83-.15.3zM262.46 131.46l13.75 9.83.15-.3-13.76-9.83-.14.3zM263.87 130.02l13.75 9.83.15-.31-13.76-9.82-.14.3zM265.48 128.3l13.76 9.83.14-.3-13.75-9.83-.15.3zM266.92 126.78l13.76 9.83.15-.3-13.76-9.83-.15.3z"/><path class="cls-47" d="m250.13 143.68 14.53 10.41 17.83-18.77L268 124.91Zm30.88-8.2-16.45 17.32-12.95-9.28 16.44-17.32Z"/><path class="cls-48" d="m250.87 142.27 13.74 9.85 17.14-18.05-13.74-9.84-17.14 18.04z"/><path class="cls-49" d="m250.13 142.35 14.53 10.41L282.49 134 268 123.58Zm30.87-8.19-16.45 17.31-12.95-9.28 16.45-17.32Z"/><path class="cls-50" d="m252.05 143.05.19.27 16.99-18.15-.19-.26-16.99 18.14zM253.34 143.97l.19.27 16.99-18.15-.19-.27-16.99 18.15zM254.68 144.97l.19.26 16.99-18.15-.19-.26-16.99 18.15zM255.97 145.88l.2.27L273.16 128l-.19-.27-17 18.15zM257.31 146.81l.19.26 16.99-18.15-.19-.26-16.99 18.15zM258.6 147.72l.19.27 16.99-18.15-.19-.27-16.99 18.15zM259.79 148.61l.19.26 16.99-18.15-.19-.26-16.99 18.15zM261.08 149.52l.2.27 16.99-18.15-.19-.26-17 18.14zM262.09 150.26l.2.26 16.99-18.15-.19-.26-17 18.15zM263.39 151.18l.19.26 16.99-18.15-.19-.26-16.99 18.15z"/><path class="cls-50" d="m252.07 141.08 13.75 9.83.15-.3-13.75-9.83-.15.3zM253.51 139.57l13.76 9.83.15-.31-13.76-9.83-.15.31zM255.13 137.85l13.75 9.83.15-.3-13.76-9.83-.14.3zM256.57 136.33l13.76 9.83.14-.3-13.75-9.83-.15.3zM257.96 134.89l13.75 9.83.15-.31-13.76-9.83-.14.31zM259.4 133.37l13.75 9.83.15-.3-13.75-9.83-.15.3zM261.01 131.65l13.76 9.83.15-.3-13.76-9.83-.15.3zM262.46 130.14l13.75 9.83.15-.31-13.76-9.83-.14.31zM263.87 128.69l13.75 9.83.15-.3-13.76-9.83-.14.3zM265.48 126.98l13.76 9.83.14-.31-13.75-9.83-.15.31zM266.92 125.46l13.76 9.83.15-.3-13.76-9.83-.15.3z"/><path class="cls-51" d="m250.13 142.35 14.53 10.42L282.49 134 268 123.58Zm30.87-8.19-16.45 17.31-12.95-9.28 16.44-17.31Z"/><path class="cls-47" d="m250.13 143.68 1.04-.58-1.04-.75v1.33z"/><path class="cls-52" d="m264.66 154.09 17.83-18.77v-1.33l-17.83 18.78v1.32z"/><path class="cls-53" d="m282.07 178.92 20.56-14.41v-11.99l-20.56 14.41v11.99z"/><path class="cls-54" d="m286.48 181.95 20.56-14.4v-12l-20.56 14.41v11.99z"/><path class="cls-53" d="m282.07 178.92 4.41 3.03v-11.99l-4.41-3.03v11.99z"/><path class="cls-55" d="m282.07 166.93 4.41 3.03 20.56-14.41-4.41-3.03-20.56 14.41z"/><path class="cls-56" d="M291.94 166.67c-2.11 1.48-3.82 5.08-3.82 8s1.71 4.15 3.82 2.68 3.82-5.08 3.82-8-1.71-4.16-3.82-2.68Z"/><path class="cls-57" d="M292 167.34a9.58 9.58 0 0 0-3.38 7.1c0 2.62 1.51 3.68 3.38 2.37a9.58 9.58 0 0 0 3.38-7.1c-.04-2.62-1.55-3.71-3.38-2.37Z"/><path class="cls-58" d="M292.59 167.34a9.58 9.58 0 0 0-3.38 7.1c0 2.62 1.51 3.68 3.38 2.37a9.62 9.62 0 0 0 3.38-7.1c.03-2.62-1.52-3.71-3.38-2.37Z"/><path class="cls-56" d="M302.1 159.79c-2.12 1.48-3.83 5.07-3.83 8s1.73 4.21 3.83 2.71 3.82-5.08 3.82-8-1.71-4.19-3.82-2.71Z"/><path class="cls-59" d="M302.11 160.45a9.59 9.59 0 0 0-3.38 7.11c0 2.61 1.51 3.67 3.38 2.36a9.55 9.55 0 0 0 3.38-7.1c0-2.62-1.49-3.67-3.38-2.37Z"/><path class="cls-60" d="M302.74 160.45a9.59 9.59 0 0 0-3.38 7.11c0 2.61 1.51 3.67 3.38 2.36a9.55 9.55 0 0 0 3.38-7.1c0-2.62-1.51-3.67-3.38-2.37Z"/><path class="cls-61" d="m301.49 215.23 6.94-4.82v-23.9l-6.94 4.83v23.89z"/><path class="cls-62" d="M301.49 213.91v1.46l6.94-4.96-.98-.66-5.96 4.16zM307.45 209.74l.98.67v-23.9l-.98.67v22.56z"/><path class="cls-61" d="m294.56 220.09 6.93-4.83v-23.89l-6.93 4.83v23.89z"/><path class="cls-62" d="M294.56 218.76v1.57l7-5.02-1.04-.71-5.96 4.16z"/><path class="cls-62" d="m300.52 214.6.97.66v-23.89l-.97.66v22.57z"/><path class="cls-63" d="m301.81 213.68 1.71-1.19 3.93-25.31-1.31.92-4.33 25.58zM294.56 218.76l1.71-1.19 3.93-25.32-1.31.93-4.33 25.58z"/><path class="cls-61" d="m287.65 225.17 6.93-4.83v-23.9l-6.93 4.83v23.9z"/><path class="cls-62" d="M287.65 223.84v1.46l6.93-4.96-.97-.66-5.96 4.16zM293.61 219.67l.97.67v-23.9l-.97.67v22.56z"/><path class="cls-61" d="m280.72 230.02 6.93-4.82v-23.9l-6.93 4.83v23.89z"/><path class="cls-62" d="M280.72 228.7v1.56l7-5.01-1.04-.71-5.96 4.16zM286.68 224.53l.97.67v-23.9l-.97.67v22.56z"/><path class="cls-63" d="m287.97 223.62 1.71-1.2 3.93-25.31-1.31.92-4.33 25.59zM280.72 228.7l1.71-1.2 3.93-25.31-1.31.92-4.33 25.59z"/><path class="cls-61" d="m220.35 148.59 46.4 33.31v-9.74l-46.4-33.25v9.68z"/><path class="cls-63" d="m220.87 141.54 30.7 28.81 2.75 1.98-33.45-31.73v.94zM237.84 152.09l-2.66-1.9 30.73 30.46.44.31-.05-.31-28.46-28.56z"/><path class="cls-62" d="m220.35 148.59 46.4 33.31v-9.74l-46.4-33.25Zm.46-8.7 45.48 32.59v8.44l-45.48-32.65Z"/><path class="cls-62" d="m226.01 152.76.46.33v-9.69l-.46-.33v9.69zM234.25 158.67l.46.33v-9.68l-.46-.33v9.68zM242.16 164.34l.46.33v-9.69l-.46-.33v9.69zM250.4 170.23l.46.33v-9.69l-.46-.33v9.69zM258.78 176.2l.46.33v-9.68l-.46-.33v9.68z"/><path class="cls-61" d="m220.35 157.76 46.4 33.31v-9.74l-46.4-33.25v9.68z"/><path class="cls-63" d="m220.87 150.71 30.7 28.81 2.75 1.98-33.45-31.73v.94zM237.84 161.26l-2.66-1.9 30.73 30.46.44.31-.05-.31-28.46-28.56z"/><path class="cls-62" d="m220.35 157.76 46.4 33.31v-9.74l-46.4-33.25Zm.46-8.7 45.48 32.59v8.44l-45.48-32.65Z"/><path class="cls-62" d="m226.01 161.93.46.33v-9.69l-.46-.33v9.69zM234.25 167.84l.46.33v-9.68l-.46-.33v9.68zM242.16 173.51l.46.33v-9.69l-.46-.33v9.69zM250.4 179.4l.46.33v-9.69l-.46-.33v9.69zM258.78 185.37l.46.33v-9.69l-.46-.32v9.68z"/><path class="cls-61" d="m219.96 175.85 46.4 33.31v-9.73l-46.4-33.25v9.67z"/><path class="cls-63" d="m220.48 168.81 30.7 28.81 2.75 1.97-33.45-31.72v.94zM237.45 179.36l-2.65-1.9 30.72 30.45.44.32-.05-.32-28.46-28.55z"/><path class="cls-62" d="m220 175.85 46.4 33.32v-9.74L220 166.18Zm.46-8.69 45.48 32.59v8.44l-45.48-32.65Z"/><path class="cls-62" d="m225.63 180.02.45.33v-9.68l-.45-.33v9.68zM233.86 185.94l.46.33v-9.69l-.46-.33v9.69zM241.77 191.6l.46.33v-9.68l-.46-.33v9.68zM250.01 197.49l.46.33v-9.68l-.46-.33v9.68zM258.4 203.47l.46.33v-9.69l-.46-.33v9.69z"/><path class="cls-61" d="m219.96 185.02 46.4 33.32v-9.74l-46.4-33.25v9.67z"/><path class="cls-63" d="m220.48 177.98 30.7 28.8 2.75 1.98-33.45-31.72v.94zM237.45 188.53l-2.65-1.9 30.72 30.45.44.32-.05-.32-28.46-28.55z"/><path class="cls-62" d="m220 185 46.4 33.31v-9.71L220 175.35Zm.46-8.69 45.48 32.59v8.44l-45.48-32.65Z"/><path class="cls-62" d="m225.63 189.19.45.33v-9.68l-.45-.33v9.68zM233.86 195.11l.46.33v-9.69l-.46-.33v9.69zM241.77 200.77l.46.33v-9.68l-.46-.33v9.68zM250.01 206.66l.46.33v-9.68l-.46-.33v9.68zM258.4 212.63l.46.34v-9.69l-.46-.33v9.68z"/></g></g></g></svg>